<?xml version="1.0" encoding="utf-8"?>
<svg id="master-artboard" viewBox="0 0 1400 980" version="1.1" xmlns="http://www.w3.org/2000/svg" x="0px" y="0px" style="enable-background:new 0 0 1400 980;" width="1400px" height="980px">

<g transform="matrix(0.4884229302406311, 0, 0, 0.4884229302406311, 732.0985740615495, 406.4305838004086)">
			<g>
				<g>
					<path d="M 231.600006 740.099976 H 1168.399994 V 761.899975 H 231.600006 V 740.099976 Z" class="st8" style="fill: rgb(19, 29, 66);"/>
					<g>
						<path class="st6" d="M1024.4,581.9c4.5,0,8.2-1.6,10.9-4.7c7.1-8.2,5.1-24.1,5-24.8l-3.9,0.5c0,0.1,1.9,14.8-4,21.7&#10;&#9;&#9;&#9;&#9;&#9;&#9;&#9;c-2,2.3-4.6,3.4-8,3.4V581.9z" style="fill: rgb(27, 54, 99);"/>
					</g>
					<g>
						<path d="M 1024.400024 496.100006 H 1052.300024 V 554.900005 H 1024.400024 V 496.100006 Z" class="st9" style="fill: rgb(180, 191, 214);"/>
						<path d="M 1024.400024 550.299988 H 1052.300024 V 554.899988 H 1024.400024 V 550.299988 Z" class="st7" style="fill: rgb(168, 179, 206);"/>
					</g>
					<g>
						<g>
							<path d="M 1035.5 643 H 1056.9 V 754 H 1035.5 V 643 Z" class="st8" style="fill: rgb(19, 29, 66);"/>
							<path d="M 1106.79995 698.400024 A 48.599998 55.5 0 0 1 1058.199951 753.900024 A 48.599998 55.5 0 0 1 1009.599953 698.400024 A 48.599998 55.5 0 0 1 1058.199951 642.900024 A 48.599998 55.5 0 0 1 1106.79995 698.400024 Z" class="st6" style="fill: rgb(27, 54, 99);"/>
							<path d="M 1084.099998 698.400024 A 48.599998 55.5 0 0 1 1035.5 753.900024 A 48.599998 55.5 0 0 1 986.900002 698.400024 A 48.599998 55.5 0 0 1 1035.5 642.900024 A 48.599998 55.5 0 0 1 1084.099998 698.400024 Z" class="st8" style="fill: rgb(19, 29, 66);"/>
							<path d="M 1065 698.400024 A 29.5 33.700001 0 0 1 1035.5 732.100025 A 29.5 33.700001 0 0 1 1006 698.400024 A 29.5 33.700001 0 0 1 1035.5 664.700024 A 29.5 33.700001 0 0 1 1065 698.400024 Z" class="st8" style="fill: rgb(19, 29, 66);"/>
							<path d="M 1048.399976 698.400024 A 14.8 16.799999 0 0 1 1033.599976 715.200024 A 14.8 16.799999 0 0 1 1018.799975 698.400024 A 14.8 16.799999 0 0 1 1033.599976 681.600025 A 14.8 16.799999 0 0 1 1048.399976 698.400024 Z" class="st8" style="fill: rgb(19, 29, 66);"/>
							<path d="M 1042.099976 698.400024 A 10 11.4 0 0 1 1032.099976 709.800024 A 10 11.4 0 0 1 1022.099976 698.400024 A 10 11.4 0 0 1 1032.099976 687.000025 A 10 11.4 0 0 1 1042.099976 698.400024 Z" class="st8" style="fill: rgb(19, 29, 66);"/>
							<path d="M 877.599976 690.5 H 1058.199982 V 709.9 H 877.599976 V 690.5 Z" class="st8" style="fill: rgb(19, 29, 66);"/>
						</g>
						<g>
							<path class="st8" d="M1055,694.2c-2.1,0-4.1-1.4-4.7-3.5c-2.9-9.3-8.9-10.5-8.9-10.5c-2.7-0.4-4.6-2.9-4.2-5.6&#10;&#9;&#9;&#9;&#9;&#9;&#9;&#9;&#9;c0.4-2.7,2.9-4.6,5.6-4.2c0.5,0.1,12.1,2,16.9,17.3c0.8,2.6-0.6,5.4-3.2,6.2C1056,694.1,1055.5,694.2,1055,694.2z" style="fill: rgb(19, 29, 66);"/>
						</g>
					</g>
					<g>
						<g>
							<path d="M 537.099976 643 H 559.799976 V 754 H 537.099976 V 643 Z" class="st8" style="fill: rgb(19, 29, 66);"/>
							<path d="M 608.399986 698.400024 A 48.599998 55.5 0 0 1 559.799988 753.900024 A 48.599998 55.5 0 0 1 511.199989 698.400024 A 48.599998 55.5 0 0 1 559.799988 642.900024 A 48.599998 55.5 0 0 1 608.399986 698.400024 Z" class="st6" style="fill: rgb(27, 54, 99);"/>
							<path d="M 585.699974 698.400024 A 48.599998 55.5 0 0 1 537.099976 753.900024 A 48.599998 55.5 0 0 1 488.499977 698.400024 A 48.599998 55.5 0 0 1 537.099976 642.900024 A 48.599998 55.5 0 0 1 585.699974 698.400024 Z" class="st8" style="fill: rgb(19, 29, 66);"/>
							<path d="M 566.599976 698.400024 A 29.5 33.700001 0 0 1 537.099976 732.100025 A 29.5 33.700001 0 0 1 507.599976 698.400024 A 29.5 33.700001 0 0 1 537.099976 664.700024 A 29.5 33.700001 0 0 1 566.599976 698.400024 Z" class="st8" style="fill: rgb(19, 29, 66);"/>
							<path d="M 549.899976 698.400024 A 14.8 16.799999 0 0 1 535.099976 715.200024 A 14.8 16.799999 0 0 1 520.299975 698.400024 A 14.8 16.799999 0 0 1 535.099976 681.600025 A 14.8 16.799999 0 0 1 549.899976 698.400024 Z" class="st8" style="fill: rgb(19, 29, 66);"/>
							<path d="M 543.599976 698.400024 A 10 11.4 0 0 1 533.599976 709.800024 A 10 11.4 0 0 1 523.599976 698.400024 A 10 11.4 0 0 1 533.599976 687.000025 A 10 11.4 0 0 1 543.599976 698.400024 Z" class="st8" style="fill: rgb(19, 29, 66);"/>
							<path d="M 379.200012 690.5 H 559.800018 V 709.9 H 379.200012 V 690.5 Z" class="st8" style="fill: rgb(19, 29, 66);"/>
						</g>
						<g>
							<path class="st8" d="M556.5,694.2c-2.1,0-4.1-1.4-4.7-3.5c-2.9-9.3-8.9-10.5-8.9-10.5c-2.7-0.4-4.6-2.9-4.2-5.6&#10;&#9;&#9;&#9;&#9;&#9;&#9;&#9;&#9;c0.4-2.7,2.9-4.6,5.6-4.2c0.5,0.1,12.1,2,16.9,17.3c0.8,2.6-0.6,5.4-3.2,6.2C557.5,694.1,557,694.2,556.5,694.2z" style="fill: rgb(19, 29, 66);"/>
						</g>
					</g>
					<path d="M 320 613.900024 H 452.5 V 698.500023 H 320 V 613.900024 Z" class="st8" style="fill: rgb(19, 29, 66);"/>
					<path d="M 702.200012 298.100006 H 935.000015 V 694.100006 H 702.200012 V 298.100006 Z" class="st10" style="fill: rgb(222, 232, 245);"/>
					<path d="M 797.299988 613.900024 H 956.799988 V 698.500023 H 797.299988 V 613.900024 Z" class="st8" style="fill: rgb(19, 29, 66);"/>
					<path d="M 1040.5999755859375 565 L 864.4000244140625 565 L 844.5999755859375 415.70001220703125 L 1020.7999877929688 415.70001220703125 Z" class="st11" style="fill: rgb(206, 216, 233);"/>
					<path d="M 1021.2999877929688 550.2999877929688 L 879.7999877929688 550.2999877929688 L 863.9000244140625 430.3999938964844 L 1005.4000244140625 430.3999938964844 Z" class="st7" style="fill: rgb(168, 179, 206);"/>
					<g>
						<g>
							<path d="M 881.099976 643 H 904.799976 V 754 H 881.099976 V 643 Z" class="st8" style="fill: rgb(19, 29, 66);"/>
							<path d="M 952.399986 698.400024 A 48.599998 55.5 0 0 1 903.799988 753.900024 A 48.599998 55.5 0 0 1 855.199989 698.400024 A 48.599998 55.5 0 0 1 903.799988 642.900024 A 48.599998 55.5 0 0 1 952.399986 698.400024 Z" class="st8" style="fill: rgb(19, 29, 66);"/>
							<path d="M 929.699974 698.400024 A 48.599998 55.5 0 0 1 881.099976 753.900024 A 48.599998 55.5 0 0 1 832.499977 698.400024 A 48.599998 55.5 0 0 1 881.099976 642.900024 A 48.599998 55.5 0 0 1 929.699974 698.400024 Z" class="st6" style="fill: rgb(27, 54, 99);"/>
							<path d="M 910.599976 698.400024 A 29.5 33.700001 0 0 1 881.099976 732.100025 A 29.5 33.700001 0 0 1 851.599976 698.400024 A 29.5 33.700001 0 0 1 881.099976 664.700024 A 29.5 33.700001 0 0 1 910.599976 698.400024 Z" class="st12" style="fill: rgb(107, 114, 149);"/>
							<path d="M 893.899976 698.400024 A 14.8 16.799999 0 0 1 879.099976 715.200024 A 14.8 16.799999 0 0 1 864.299975 698.400024 A 14.8 16.799999 0 0 1 879.099976 681.600025 A 14.8 16.799999 0 0 1 893.899976 698.400024 Z" class="st6" style="fill: rgb(27, 54, 99);"/>
							<path d="M 887.599976 698.400024 A 10 11.4 0 0 1 877.599976 709.800024 A 10 11.4 0 0 1 867.599976 698.400024 A 10 11.4 0 0 1 877.599976 687.000025 A 10 11.4 0 0 1 887.599976 698.400024 Z" class="st8" style="fill: rgb(19, 29, 66);"/>
						</g>
						<g>
							<path class="st7" d="M900.5,694.2c-2.1,0-4.1-1.4-4.7-3.5c-2.9-9.3-8.9-10.5-8.9-10.5c-2.7-0.4-4.6-2.9-4.2-5.6&#10;&#9;&#9;&#9;&#9;&#9;&#9;&#9;&#9;c0.4-2.7,2.9-4.6,5.6-4.2c0.5,0.1,12.1,2,16.9,17.3c0.8,2.6-0.6,5.4-3.2,6.2C901.5,694.1,901,694.2,900.5,694.2z" style="fill: rgb(168, 179, 206);"/>
						</g>
					</g>
					<path d="M 986.900024 594.799988 H 1163.300018 V 694.199989 H 986.900024 V 594.799988 Z" class="st10" style="fill: rgb(222, 232, 245);"/>
					<path class="st9" d="M864.4,565l-19.8-149.3H720.1v278.4h99.5c1.9-36.9,28.7-66.1,61.5-66.1c31.7,0,57.8,30.9,61.2,66.1h44.6&#10;&#9;&#9;&#9;&#9;&#9;&#9;v-99.4L864.4,565z" style="fill: rgb(180, 191, 214);"/>
					<path d="M 864.4000244140625 565 L 986.9000244140625 594.7000122070312 L 1163.300048828125 594.7999877929688 L 1040.5999755859375 565 Z" class="st13" style="fill: rgb(192, 203, 224);"/>
					<path d="M 702.2000122070312 694.2000122070312 L 720.0999755859375 694.2000122070312 L 720.0999755859375 415.70001220703125 L 702.2000122070312 435.5 Z" class="st14" style="fill: rgb(149, 159, 180);"/>
					<g>
						<g>
							<path d="M 381.200012 643 H 407.500011 V 754 H 381.200012 V 643 Z" class="st8" style="fill: rgb(19, 29, 66);"/>
							<path d="M 452.499992 698.400024 A 48.599998 55.5 0 0 1 403.899994 753.900024 A 48.599998 55.5 0 0 1 355.299995 698.400024 A 48.599998 55.5 0 0 1 403.899994 642.900024 A 48.599998 55.5 0 0 1 452.499992 698.400024 Z" class="st8" style="fill: rgb(19, 29, 66);"/>
							<path d="M 429.800011 698.400024 A 48.599998 55.5 0 0 1 381.200012 753.900024 A 48.599998 55.5 0 0 1 332.600014 698.400024 A 48.599998 55.5 0 0 1 381.200012 642.900024 A 48.599998 55.5 0 0 1 429.800011 698.400024 Z" class="st6" style="fill: rgb(27, 54, 99);"/>
							<path class="st9" d="M237.2,298.1v396H320c3.5-35.1,29.5-66.1,61.2-66.1c31.7,0,57.8,31,61.2,66.1h259.8v-396H237.2z" style="fill: rgb(180, 191, 214);"/>
							<path d="M 410.700012 698.400024 A 29.5 33.700001 0 0 1 381.200012 732.100025 A 29.5 33.700001 0 0 1 351.700012 698.400024 A 29.5 33.700001 0 0 1 381.200012 664.700024 A 29.5 33.700001 0 0 1 410.700012 698.400024 Z" class="st12" style="fill: rgb(107, 114, 149);"/>
							<path d="M 394.000012 698.400024 A 14.8 16.799999 0 0 1 379.200012 715.200024 A 14.8 16.799999 0 0 1 364.400012 698.400024 A 14.8 16.799999 0 0 1 379.200012 681.600025 A 14.8 16.799999 0 0 1 394.000012 698.400024 Z" class="st6" style="fill: rgb(27, 54, 99);"/>
							<path d="M 387.700012 698.400024 A 10 11.4 0 0 1 377.700012 709.800024 A 10 11.4 0 0 1 367.700012 698.400024 A 10 11.4 0 0 1 377.700012 687.000025 A 10 11.4 0 0 1 387.700012 698.400024 Z" class="st8" style="fill: rgb(19, 29, 66);"/>
						</g>
						<g>
							<path class="st7" d="M400.6,694.2c-2.1,0-4.1-1.4-4.7-3.5c-2.9-9.3-8.9-10.5-8.9-10.5c-2.7-0.4-4.6-2.9-4.2-5.6&#10;&#9;&#9;&#9;&#9;&#9;&#9;&#9;&#9;c0.4-2.7,2.9-4.6,5.6-4.2c0.5,0.1,12.1,2,16.9,17.3c0.8,2.6-0.6,5.4-3.2,6.2C401.6,694.1,401.1,694.2,400.6,694.2z" style="fill: rgb(168, 179, 206);"/>
						</g>
					</g>
					<path d="M 846.9000244140625 550.2999877929688 L 734.2000122070312 550.2999877929688 L 734.2000122070312 429.6000061035156 L 831 429.6000061035156 Z" class="st7" style="fill: rgb(168, 179, 206);"/>
					<path d="M 231.600006 690.5 H 320.000008 V 698.5 H 231.600006 V 690.5 Z" class="st6" style="fill: rgb(27, 54, 99);"/>
					<path d="M 442.100006 690.5 H 702.200012 V 698.5 H 442.100006 V 690.5 Z" class="st6" style="fill: rgb(27, 54, 99);"/>
					<path d="M 702.200012 690.5 H 720.000011 V 698.5 H 702.200012 V 690.5 Z" class="st8" style="fill: rgb(19, 29, 66);"/>
					<path d="M 720.099976 690.5 H 819.599976 V 698.5 H 720.099976 V 690.5 Z" class="st6" style="fill: rgb(27, 54, 99);"/>
					<path d="M 941 690.5 H 986.900002 V 698.5 H 941 V 690.5 Z" class="st6" style="fill: rgb(27, 54, 99);"/>
					<path d="M 982.599976 690.5 H 1168.399979 V 698.5 H 982.599976 V 690.5 Z" class="st15" style="fill: rgb(26, 48, 91);"/>
					<g>
						<path class="st16" d="M840.7,413.7v-29.6c0-8.5-6.9-15.3-15.3-15.3h-8.1c-8.5,0-15.3,6.9-15.3,15.3v29.6H840.7z" style="fill: rgb(170, 49, 36);"/>
						<path class="st17" d="M830.8,413.7v-29.6c0-8.5-6.9-15.3-15.3-15.3h1.8c-8.5,0-15.3,6.9-15.3,15.3v29.6H830.8z" style="fill: rgb(193, 62, 51);"/>
						<path d="M 799.5 404.5 H 845 V 415.7 H 799.5 V 404.5 Z" class="st9" style="fill: rgb(180, 191, 214);"/>
						<path d="M 826.799988 404.5 H 844.999989 V 415.7 H 826.799988 V 404.5 Z" class="st11" style="fill: rgb(206, 216, 233);"/>
					</g>
					<path d="M 734.200012 429.600006 H 746.800013 V 550.300003 H 734.200012 V 429.600006 Z" class="st10" style="fill: rgb(222, 232, 245);"/>
					<path d="M 921.5 430.399994 H 935 V 550.299995 H 921.5 V 430.399994 Z" class="st7" style="fill: rgb(168, 179, 206);"/>
					<path d="M 935.099976 430.399994 H 949.199976 V 550.299995 H 935.099976 V 430.399994 Z" class="st11" style="fill: rgb(206, 216, 233);"/>
					<path d="M 744.5 466.6000061035156 L 744.5 550.2999877929688 L 846.9000244140625 550.2999877929688 L 835.9000244140625 466.6000061035156 Z" class="st6" style="fill: rgb(27, 54, 99);"/>
					<path d="M 759.7000122070312 466.6000061035156 L 744.5 466.6000061035156 L 744.5 550.2999877929688 L 770.9000244140625 550.2999877929688 Z" class="st8" style="fill: rgb(19, 29, 66);"/>
					<path d="M 868.7000122070312 466.6000061035156 L 935.0999755859375 466.6000061035156 L 945.5 550.2999877929688 L 879.7999877929688 550.2999877929688 Z" class="st6" style="fill: rgb(27, 54, 99);"/>
					<g>
						<path d="M 744.5 561.5 H 770.6 V 580.299999 H 744.5 V 561.5 Z" class="st18" style="fill: rgb(154, 165, 187);"/>
						<path d="M 744.5 561.5 H 770.6 V 572.7 H 744.5 V 561.5 Z" class="st6" style="fill: rgb(27, 54, 99);"/>
					</g>
					<path d="M 867.7000122070312 629.7999877929688 L 864.4000244140625 630.7000122070312 L 864.4000244140625 565 L 867.7000122070312 565.7999877929688 Z" class="st7" style="fill: rgb(168, 179, 206);"/>
					<path class="st19" d="M914.3,522.1c10.4,0,18.8,8.4,18.8,18.8h7.9c0-14.8-12-26.7-26.7-26.7c-14.8,0-26.7,12-26.7,26.7h7.9&#10;&#9;&#9;&#9;&#9;&#9;&#9;C895.5,530.5,904,522.1,914.3,522.1z" style="fill: rgb(65, 80, 120);"/>
					<path d="M 877.0999755859375 530.2999877929688 L 879.7999877929688 550.2999877929688 L 1021.2999877929688 550.2999877929688 L 1018.5999755859375 530 Z" class="st9" style="fill: rgb(180, 191, 214);"/>
					<g>
						<path class="st6" d="M833.7,581.9c-4.5,0-8.2-1.6-10.9-4.7c-7.1-8.2-5.1-24.1-5-24.8l3.9,0.5c0,0.1-1.9,14.8,4,21.7&#10;&#9;&#9;&#9;&#9;&#9;&#9;&#9;c2,2.3,4.6,3.4,8,3.4V581.9z" style="fill: rgb(27, 54, 99);"/>
					</g>
					<g>
						<path d="M 810.799988 496.100006 H 833.699987 V 554.900005 H 810.799988 V 496.100006 Z" class="st9" style="fill: rgb(180, 191, 214);"/>
						<path d="M 805.799988 496.100006 H 810.799988 V 554.900005 H 805.799988 V 496.100006 Z" class="st7" style="fill: rgb(168, 179, 206);"/>
						<path d="M 805.799988 550.299988 H 833.699987 V 554.899988 H 805.799988 V 550.299988 Z" class="st7" style="fill: rgb(168, 179, 206);"/>
					</g>
					<path d="M 744.5 429.6000061035156 L 744.5 466.6000061035156 L 835.9000244140625 466.6000061035156 L 831 429.6000061035156 Z" class="st13" style="fill: rgb(192, 203, 224);"/>
					<path d="M 863.9000244140625 430.3999938964844 L 868.7000122070312 466.6000061035156 L 921.5 466.6000061035156 L 921.5 430.3999938964844 Z" class="st13" style="fill: rgb(192, 203, 224);"/>
					<path d="M 949.2000122070312 430.3999938964844 L 949.2000122070312 530 L 1018.5999755859375 530 L 1005.4000244140625 430.3999938964844 Z" class="st5" style="fill: rgb(48, 142, 158);"/>
					<path d="M 998.799988 608.099976 H 1036.799988 V 648.399975 H 998.799988 V 608.099976 Z" class="st13" style="fill: rgb(192, 203, 224);"/>
					<path d="M 1108.800049 608.099976 H 1146.800049 V 648.399975 H 1108.800049 V 608.099976 Z" class="st13" style="fill: rgb(192, 203, 224);"/>
					<path d="M 1002.799988 608.099976 H 1040.799988 V 648.399975 H 1002.799988 V 608.099976 Z" class="st1" style="fill: rgb(255, 255, 255);"/>
					<path d="M 1112.800049 608.099976 H 1150.800049 V 648.399975 H 1112.800049 V 608.099976 Z" class="st1" style="fill: rgb(255, 255, 255);"/>
					<path d="M 1048.400024 630.400024 H 1102.600025 V 636.300025 H 1048.400024 V 630.400024 Z" class="st6" style="fill: rgb(27, 54, 99);"/>
					<path d="M 1048.400024 643 H 1102.600025 V 648.9 H 1048.400024 V 643 Z" class="st6" style="fill: rgb(27, 54, 99);"/>
					<path d="M 1048.400024 618.5 H 1102.600025 V 624.4 H 1048.400024 V 618.5 Z" class="st6" style="fill: rgb(27, 54, 99);"/>
					<path d="M 986.9000244140625 690.5 L 941 690.5 L 956.9000244140625 664.7999877929688 L 986.9000244140625 664.7999877929688 Z" class="st6" style="fill: rgb(27, 54, 99);"/>
					<path d="M 982.599976 664.799988 H 1168.399979 V 690.499989 H 982.599976 V 664.799988 Z" class="st15" style="fill: rgb(26, 48, 91);"/>
					<path d="M 275.79998779296875 664.7999877929688 L 231.60000610351562 664.7999877929688 L 231.60000610351562 690.5 L 295.6000061035156 690.5 Z" class="st6" style="fill: rgb(27, 54, 99);"/>
					<path d="M 231.600006 298.100006 H 275.800007 V 311.600006 H 231.600006 V 298.100006 Z" class="st6" style="fill: rgb(27, 54, 99);"/>
					<path d="M 674.700012 298.100006 H 718.900013 V 311.600006 H 674.700012 V 298.100006 Z" class="st6" style="fill: rgb(27, 54, 99);"/>
					<path d="M 920.5 298.100006 H 942.6 V 311.600006 H 920.5 V 298.100006 Z" class="st6" style="fill: rgb(27, 54, 99);"/>
					<path class="st17" d="M702.2,614.6h-465v29.9h106.2c10.4-10.1,23.5-16.4,37.8-16.4c14.2,0,27.4,6.3,37.8,16.4h283.2V614.6z" style="fill: rgb(193, 62, 51);"/>
					<path class="st17" d="M720.1,644.5h121.6c10.7-10.2,24.5-16.4,39.5-16.4c14.3,0,27.4,6.3,37.8,16.4h68v-31.9H720.1V644.5z" style="fill: rgb(193, 62, 51);"/>
					<path d="M 486.799988 415.700012 H 654.399994 V 690.5 H 486.799988 V 415.700012 Z" class="st7" style="fill: rgb(168, 179, 206);"/>
					<path d="M 494.100006 423.700012 H 647.100006 V 690.5 H 494.100006 V 423.700012 Z" class="st9" style="fill: rgb(180, 191, 214);"/>
					<path d="M 494.200012 614.599976 H 647.100006 V 644.499975 H 494.200012 V 614.599976 Z" class="st17" style="fill: rgb(193, 62, 51);"/>
					<g>
						<path d="M 512.599976 561.5 H 538.699976 V 580.299999 H 512.599976 V 561.5 Z" class="st18" style="fill: rgb(154, 165, 187);"/>
						<path d="M 512.599976 561.5 H 538.699976 V 572.7 H 512.599976 V 561.5 Z" class="st6" style="fill: rgb(27, 54, 99);"/>
					</g>
					<path d="M 512.599976 442.799988 H 629.899979 V 540.099991 H 512.599976 V 442.799988 Z" class="st6" style="fill: rgb(27, 54, 99);"/>
					<path d="M 512.599976 442.799988 H 520.399976 V 540.099991 H 512.599976 V 442.799988 Z" class="st8" style="fill: rgb(19, 29, 66);"/>
					<path d="M 799.5 413.200012 H 845 V 415.700012 H 799.5 V 413.200012 Z" class="st7" style="fill: rgb(168, 179, 206);"/>
				</g>
				<path d="M 312.700012 561.5 H 320.000012 V 690.399994 H 312.700012 V 561.5 Z" class="st7" style="fill: rgb(168, 179, 206);"/>
				<path d="M 237.199997 561.5 H 320 V 568.8 H 237.199997 V 561.5 Z" class="st7" style="fill: rgb(168, 179, 206);"/>
			</g>
			<g>
				<path d="M 344.600006 360.5 H 385.700005 V 511.699997 H 344.600006 V 360.5 Z" class="st17" style="fill: rgb(193, 62, 51);"/>
				<path d="M 289.600006 415.5 H 440.800003 V 456.599998 H 289.600006 V 415.5 Z" class="st17" style="fill: rgb(193, 62, 51);"/>
			</g>
			<g>
				<g>
					<path d="M 721 331.600006 H 750.5 V 346.600006 H 721 V 331.600006 Z" class="st16" style="fill: rgb(170, 49, 36);"/>
					<path d="M 721 326.799988 H 750.5 V 341.799988 H 721 V 326.799988 Z" class="st17" style="fill: rgb(193, 62, 51);"/>
				</g>
				<g>
					<path d="M 887.599976 331.600006 H 917.099976 V 346.600006 H 887.599976 V 331.600006 Z" class="st16" style="fill: rgb(170, 49, 36);"/>
					<path d="M 887.599976 326.799988 H 917.099976 V 341.799988 H 887.599976 V 326.799988 Z" class="st17" style="fill: rgb(193, 62, 51);"/>
				</g>
			</g>
		</g>
</svg>