<svg height="512pt" viewBox="0 -26 512 512" width="512pt" xmlns="http://www.w3.org/2000/svg"><path d="m256 123.203125c-123.601562 0-256 36.898437-256 105s132.398438 105 256 105 256-36.898437 256-105-132.398438-105-256-105zm0 180c-128.699219 0-226-39.601563-226-75 0-35.402344 97.300781-75 226-75s226 39.597656 226 75c0 35.398437-97.300781 75-226 75zm0 0" fill="#bbdcff"/><path d="m512 228.203125c0 68.101563-132.398438 105-256 105v-30c128.699219 0 226-39.601563 226-75 0-35.402344-97.300781-75-226-75v-30c123.601562 0 256 36.898437 256 105zm0 0" fill="#9abadb"/><path d="m346.902344 175.703125c-19.203125-33.300781-53.101563-81.601563-90.902344-119.398437-42.597656-42.003907-90-70.503907-127.5-48.902344-59.097656 34.199218-25.199219 166.199218 36.597656 273.300781 19.503906 33.898437 53.402344 81.898437 90.902344 119.398437 42.597656 42 90 70.5 127.5 48.902344 59.097656-34.203125 25.199219-166.199218-36.597656-273.300781zm21.597656 247.5c-27.300781 15.601563-72.898438-22.199219-112.5-67.800781-27-31.199219-51.300781-66-65.097656-89.699219-64.203125-111.601563-78.003906-214.800781-47.402344-232.5 27.898438-15.902344 73.199219 22.199219 112.5 67.800781 27.300781 31.5 51.898438 66.898438 65.097656 89.699219 64.203125 111.597656 78.003906 214.800781 47.402344 232.5zm0 0" fill="#bbdcff"/><path d="m383.5 449.003906c-37.5 21.597656-84.902344-6.902344-127.5-48.902344v-44.699218c39.601562 45.601562 85.199219 83.402344 112.5 67.800781 30.601562-17.703125 16.800781-120.902344-47.402344-232.5-13.199218-22.800781-37.796875-58.199219-65.097656-89.699219v-44.703125c37.800781 37.800781 71.699219 86.101563 90.902344 119.402344 61.796875 107.101563 95.695312 239.097656 36.597656 273.300781zm0 0" fill="#9abadb"/><path d="m256 183.203125c-24.902344 0-45 20.097656-45 45 0 24.898437 20.097656 45 45 45s45-20.101563 45-45c0-24.902344-20.097656-45-45-45zm0 0" fill="#ff7cb9"/><path d="m467 303.203125c-16.539062 0-30-13.460937-30-30s13.460938-30 30-30 30 13.460937 30 30-13.460938 30-30 30zm0 0" fill="#00c0f1"/><path d="m256 273.203125v-90c24.902344 0 45 20.097656 45 45 0 24.898437-20.097656 45-45 45zm0 0" fill="#fa5e97"/><path d="m383.5 7.402344c-37.5-21.601563-85.199219 6.898437-127.5 49.199218-37.800781 37.5-71.699219 85.5-90.902344 119.101563-61.796875 107.097656-95.695312 239.097656-36.597656 273.300781 37.5 21.597656 84.902344-6.902344 127.5-49.203125 37.800781-37.5 71.398438-85.496093 90.902344-119.097656 61.796875-107.101563 95.695312-239.101563 36.597656-273.300781zm-62.402344 258.300781c-13.199218 22.5-37.5 57.898437-65.097656 89.699219-39.300781 45.601562-84.601562 83.699218-112.5 67.800781-30.601562-17.703125-16.800781-120.902344 47.402344-232.5 13.199218-22.5 37.5-58.199219 65.097656-90 39.300781-45.300781 84.601562-83.402344 112.5-67.5 30.601562 17.699219 16.800781 120.898437-47.402344 232.5zm0 0" fill="#bbdcff"/><path d="m346.902344 280.703125c-19.503906 33.597656-53.101563 81.597656-90.902344 119.097656v-44.398437c27.597656-31.800782 51.898438-67.199219 65.097656-89.699219 64.203125-111.597656 78.003906-214.796875 47.402344-232.5-27.898438-15.902344-73.199219 22.199219-112.5 67.5v-44.101563c42.300781-42.300781 90-70.800781 127.5-49.199218 59.097656 34.199218 25.199219 166.199218-36.597656 273.300781zm0 0" fill="#9abadb"/><g fill="#25d9f8"><path d="m203.5 63.203125c-16.539062 0-30-13.460937-30-30s13.460938-30 30-30 30 13.460937 30 30-13.460938 30-30 30zm0 0"/><path d="m196 460.703125c-16.539062 0-30-13.460937-30-30s13.460938-30 30-30 30 13.460937 30 30-13.460938 30-30 30zm0 0"/></g></svg>