<svg width="580" height="400" xmlns="http://www.w3.org/2000/svg">
 <!-- Created with Method Draw - http://github.com/duopixel/Method-Draw/ -->

 <g>
  <title>background</title>
  <rect fill="#fff" id="canvas_background" height="402" width="582" y="-1" x="-1"/>
  <g display="none" overflow="visible" y="0" x="0" height="100%" width="100%" id="canvasGrid">
   <rect fill="url(#gridpattern)" stroke-width="0" y="0" x="0" height="100%" width="100%"/>
  </g>
 </g>
 <g>
  <title>Layer 1</title>
  <g stroke="null" id="svg_141">
   <path stroke="null" id="svg_5" d="m426.566853,316.906212c0.017227,-0.52296 0.844133,-28.027369 0,-33.6165c-0.844133,-5.638159 -5.49548,-7.386805 -5.49548,-7.386805l0,41.003306l5.49548,0z" fill="#E9F7FE"/>
   <g stroke="null" id="svg_6" transform="matrix(0.17227209463400636,0,0,0.16342489241453478,-11562.319649375275,-7540.379877106804) ">
    <path stroke="null" id="svg_7" d="m69685.135709,47697.98043c0,0 -12.7,53.4 -10.2,86.5s9.3,63.6 9.3,63.6l112,0c0,0 3.4,-87.4 -8.5,-128.1c-11.9,-40.6 -73.8,-70.3 -102.6,-22z" fill="#211316"/>
    <g stroke="null" id="svg_8">
     <path stroke="null" id="svg_9" d="m69649.235709,48078.88043l0,-235.5c0,0 -23.2,10 -27.5,42.4c-4.2,32.1 -0.1,190.1 0,193.1l27.5,0z" fill="#E9F7FE"/>
     <path stroke="null" id="svg_10" d="m69851.535709,48078.88043c0.1,-3 4.2,-161 0,-193.1c-4.2,-32.4 -27.5,-42.4 -27.5,-42.4l0,235.5l27.5,0z" fill="#E9F7FE"/>
    </g>
    <path stroke="null" id="svg_11" fill="#E9F7FE" d="m69824.035719,48078.88044l0,-235.5l-49.40002,-15.80002l-75.29999,0l-50.09998,15.80002l0,235.5l174.79999,0z"/>
    <path stroke="null" id="svg_12" fill="#FFFFFF" d="m69699.335709,47827.58042l-9.40002,2.9l-17.79999,60.6l23.60003,5.60001l-21,18.79999l31.89997,150.29999l30,0l30,0l31.90002,-150.29999l-21,-18.79999l23.59998,-5.60001l-17.79999,-60.79998l-8.70001,-2.70002l-75.29999,0z"/>
    <g stroke="null" id="svg_13">
     <path stroke="null" id="svg_14" d="m69829.935709,47893.88043l-45.6,0c-2.9,0 -5.3,2.4 -5.3,5.3l0,26.9c0,2.9 2.4,5.3 5.3,5.3l45.6,0c2.9,0 5.3,-2.4 5.3,-5.3l0,-26.9c0,-2.9 -2.4,-5.3 -5.3,-5.3z" fill="#FFFFFF"/>
     <g stroke="null" id="svg_15">
      <path stroke="null" id="svg_16" fill="#A9ACBA" d="m69784.335709,47900.48042l16.2,0l0,22.4l-16.2,0l0,-22.4z"/>
      <path stroke="null" id="svg_17" fill="#A9ACBA" d="m69802.435689,47900.68043l27.6,0l0,2.5l-27.6,0l0,-2.5z"/>
      <path stroke="null" id="svg_18" fill="#A9ACBA" d="m69802.435689,47907.98042l27.6,0l0,2.5l-27.6,0l0,-2.5z"/>
      <path stroke="null" id="svg_19" fill="#A9ACBA" d="m69802.435689,47915.18043l27.6,0l0,2.5l-27.6,0l0,-2.5z"/>
     </g>
     <path stroke="null" id="svg_20" d="m69807.135709,47884.28043c-1.5,0 -2.6,1.2 -2.6,2.6l0,7.5c0,1.5 1.2,2.6 2.6,2.6s2.6,-1.2 2.6,-2.6l0,-7.5c0.1,-1.4 -1.1,-2.6 -2.6,-2.6z" fill="#A9ACBA"/>
    </g>
    <g stroke="null" id="svg_21">
     <g stroke="null" id="svg_22">
      <g stroke="null" id="svg_23">
       <path stroke="null" id="svg_24" d="m69808.635709,47915.38043l-6.3,0l0,-42.3c0,-30.2 -24.6,-54.7 -54.7,-54.7l-20.1,0c-30.2,0 -54.7,24.6 -54.7,54.7l0,73.1l-6.3,0l0,-73.1c0,-33.7 27.4,-61.1 61.1,-61.1l20.1,0c33.7,0 61.1,27.4 61.1,61.1l0,42.3l-0.2,0z" fill="#305675"/>
      </g>
     </g>
     <path stroke="null" id="svg_25" fill="#87939B" d="m69679.735709,47954.98042a10.4,10.4 0 0 1 -10.4,10.4a10.4,10.4 0 0 1 -10.4,-10.4a10.4,10.4 0 0 1 10.4,-10.4a10.4,10.4 0 0 1 10.4,10.4z"/>
     <path stroke="null" id="svg_26" fill="#305675" d="m69674.635709,47954.98042a5.3,5.3 0 0 1 -5.3,5.3a5.3,5.3 0 0 1 -5.3,-5.3a5.3,5.3 0 0 1 5.3,-5.3a5.3,5.3 0 0 1 5.3,5.3z"/>
     <g stroke="null" id="svg_27">
      <path stroke="null" id="svg_28" d="m69819.335709,47991.58043l-1.8,0l0,-6.3l1.8,0c2.3,0 4.5,-0.7 6.4,-2.1c3.7,-2.7 5.3,-7.2 4.2,-11.7l-11.2,-43.2c-1.3,-4.8 -5.6,-8.2 -10.6,-8.2l-5,0c-5,0 -9.4,3.4 -10.6,8.2l-11.2,43.2c-1.1,4.4 0.5,9 4.2,11.7c1.9,1.4 4.1,2.1 6.4,2.1l1.8,0l0,6.3l-1.8,0c-3.7,0 -7.2,-1.1 -10.1,-3.3c-5.8,-4.2 -8.4,-11.4 -6.6,-18.4l11.2,-43.2c2,-7.6 8.9,-13 16.8,-13l5,0c7.9,0 14.8,5.3 16.8,13l11.2,43.2c1.8,7 -0.8,14.2 -6.6,18.4c-3.1,2.1 -6.6,3.3 -10.3,3.3z" fill="#87939B"/>
     </g>
     <path stroke="null" id="svg_29" d="m69801.735709,47988.68043c0,3.2 -1.6,5.8 -3.5,5.8s-7.2,-2.6 -7.2,-5.8s5.3,-5.8 7.2,-5.8s3.5,2.6 3.5,5.8z" fill="#305675"/>
     <path stroke="null" id="svg_30" d="m69810.735709,47988.68043c0,3.2 1.6,5.8 3.5,5.8s7.2,-2.6 7.2,-5.8s-5.3,-5.8 -7.2,-5.8s-3.5,2.6 -3.5,5.8z" fill="#305675"/>
    </g>
    <path stroke="null" id="svg_31" fill="#F49B7F" d="m69703.735729,47799.18043l65.90001,0l0,85.7l-65.90001,0l0,-85.7z"/>
    <g stroke="null" id="svg_32">
     <path stroke="null" id="svg_33" d="m69797.135709,47738.58043c-4.5,-6.1 -9,-2.4 -11.5,0.8c-2.9,-18.2 -7.4,-35.4 -13.6,-38.7c-11.3,-6.1 -35.3,-6.1 -35.3,-6.1s-24.1,0 -35.3,6.1c-6.2,3.4 -10.7,20.6 -13.6,38.7c-2.5,-3.2 -7,-6.9 -11.5,-0.8c-5.9,7.9 2.7,23.8 8.4,27.4c-0.4,5.5 6.8,35.9 21.4,49.8c8.2,7.8 16.1,11.3 22,15.4c5.2,3.6 12.1,3.6 17.4,0c6,-4.1 14.6,-6.8 22,-15.4c14.5,-16.9 21.8,-44.3 21.4,-49.8c5.5,-3.6 14.1,-19.5 8.2,-27.4z" fill="#F9AB90"/>
    </g>
    <g stroke="null" id="svg_34">
     <g stroke="null" id="svg_35">
      <g stroke="null" id="svg_36">
       <g stroke="null" id="svg_37">
        <path stroke="null" id="svg_38" d="m69717.235709,47773.88043c-1.8,0 -3.2,-1.4 -3.2,-3.2l0,-4.1c0,-1.8 1.4,-3.2 3.2,-3.2c1.8,0 3.2,1.4 3.2,3.2l0,4.1c0,1.8 -1.5,3.2 -3.2,3.2z" fill="#381218"/>
       </g>
       <g stroke="null" id="svg_39">
        <path stroke="null" id="svg_40" d="m69755.735709,47773.88043c-1.8,0 -3.2,-1.4 -3.2,-3.2l0,-4.1c0,-1.8 1.4,-3.2 3.2,-3.2c1.8,0 3.2,1.4 3.2,3.2l0,4.1c0,1.8 -1.4,3.2 -3.2,3.2z" fill="#381218"/>
       </g>
      </g>
      <g stroke="null" id="svg_41">
       <path stroke="null" id="svg_42" d="m69701.235709,47756.28043c0,0 9.4,-9.8 19.3,-9.8l0.4,4.3c0,0 -7.1,0 -19.7,5.5z" fill="#381218"/>
       <path stroke="null" id="svg_43" d="m69771.635709,47756.28043c0,0 -9.4,-9.8 -19.3,-9.8l-0.4,4.3c0.1,0 7.2,0 19.7,5.5z" fill="#381218"/>
      </g>
      <path stroke="null" id="svg_44" d="m69726.235709,47804.38043l20.8,0c0,0 -9.5,8.9 -20.8,0z" fill="#EF4136"/>
     </g>
    </g>
    <path stroke="null" id="svg_45" d="m69736.635709,47866.68043c-12.3,0 -23.7,-2.5 -32.9,-6.8l0,219.1l65.9,0l0,-219.1c-9.3,4.3 -20.7,6.8 -33,6.8z" fill="#017E82"/>
    <path stroke="null" id="svg_46" fill="#305675" d="m69703.735729,48050.88044l65.90001,0l0,28l-65.90001,0l0,-28z"/>
    <path stroke="null" id="svg_47" d="m69714.035709,47700.38043c0,0 15.5,20 40.6,37.5c25.1,17.6 29.5,46 32.4,69.2c3,23.2 5.9,74.2 -17,92.6c0,0 36.3,-3.1 42.2,-48.9c4.5,-34.6 -0.9,-98.7 -6.8,-129.9c-5.9,-31.1 -16.2,-50.3 -45,-64.7c-28.8,-14.4 -53.9,10.4 -53.9,10.4s-18.4,-4.8 -31.7,22.4c-13.3,27.1 -17.6,120.8 -10.2,157.6s23.8,53.4 44.9,54c0,0 -19.9,-18.4 -19.9,-83s2.3,-86.7 9.6,-99.5c7.5,-12.9 14.8,-17.7 14.8,-17.7z" fill="#331C21"/>
    <path stroke="null" id="svg_48" d="m69762.535709,47744.38043c-9.7,0 -17.7,7.2 -19.1,16.5l-13,0c-1.3,-9.3 -9.4,-16.5 -19.1,-16.5c-10.6,0 -19.3,8.6 -19.3,19.3s8.6,19.3 19.3,19.3c10.4,0 18.8,-8.2 19.2,-18.5l12.7,0c0.4,10.3 8.8,18.5 19.2,18.5c10.6,0 19.3,-8.6 19.3,-19.3s-8.5,-19.3 -19.2,-19.3zm-51.1,36.2c-9.3,0 -16.9,-7.6 -16.9,-16.9s7.6,-16.9 16.9,-16.9c9.3,0 16.9,7.6 16.9,16.9s-7.6,16.9 -16.9,16.9zm51.1,0c-9.3,0 -16.9,-7.6 -16.9,-16.9s7.6,-16.9 16.9,-16.9s16.9,7.6 16.9,16.9s-7.5,16.9 -16.9,16.9z" fill="#FFFFFF"/>
   </g>
   <path stroke="null" id="svg_49" d="m386.255183,316.906212l0,-40.986963c0,0 -4.651347,1.748646 -5.49548,7.386805c-0.844133,5.589131 -0.017227,33.093541 0,33.6165l5.49548,0l0,-0.016342z" fill="#E9F7FE"/>
   <path stroke="null" id="svg_50" fill="#E9F7FE" d="m421.243646,316.906214l0,-40.986966l-9.888422,-2.761879l-15.056576,0l-10.043467,2.761879l0,40.986966l34.988464,0z"/>
   <path stroke="null" id="svg_51" fill="#FFFFFF" d="m396.298648,273.157368l-1.894993,0.522961l-3.548805,10.540906l4.720254,0.964207l-4.203437,3.268498l6.374062,26.180664l6.0123,0l5.995067,0l6.3913,-26.180664l-4.220666,-3.268498l4.737483,-0.964207l-3.566034,-10.573592l-1.739953,-0.490275l-15.056576,0z"/>
   <path stroke="null" id="svg_52" d="m421.002465,286.672607l-7.855608,0c-0.499589,0 -0.913042,0.39222 -0.913042,0.866152l0,4.39613c0,0.473932 0.413453,0.866152 0.913042,0.866152l7.855608,0c0.499589,0 0.913042,-0.39222 0.913042,-0.866152l0,-4.39613c0,-0.473932 -0.413453,-0.866152 -0.913042,-0.866152z" fill="#FFFFFF"/>
   <path stroke="null" id="svg_53" fill="#A9ACBA" d="m413.146857,287.75121l2.790808,0l0,3.660718l-2.790808,0l0,-3.660718z"/>
   <path stroke="null" id="svg_54" fill="#A9ACBA" d="m416.247755,287.783896l4.75471,0l0,0.408562l-4.75471,0l0,-0.408562z"/>
   <path stroke="null" id="svg_55" fill="#A9ACBA" d="m416.247755,288.976896l4.75471,0l0,0.408562l-4.75471,0l0,-0.408562z"/>
   <path stroke="null" id="svg_56" fill="#A9ACBA" d="m416.247755,290.153557l4.75471,0l0,0.408562l-4.75471,0l0,-0.408562z"/>
   <path stroke="null" id="svg_57" d="m417.074661,285.103728c-0.258408,0 -0.447907,0.19611 -0.447907,0.424905l0,1.225687c0,0.245137 0.206727,0.424905 0.447907,0.424905s0.447907,-0.19611 0.447907,-0.424905l0,-1.225687c0,-0.228795 -0.189499,-0.424905 -0.447907,-0.424905z" fill="#A9ACBA"/>
   <g stroke="null" id="svg_58" transform="matrix(0.17227209463400636,0,0,0.16342489241453478,-11562.319649375275,-7540.379877106804) ">
    <path stroke="null" id="svg_59" d="m69531.435709,47894.68043l-6.3,0l0,-42.3c0,-30.2 -24.6,-54.7 -54.7,-54.7l-20.1,0c-30.2,0 -54.7,24.6 -54.7,54.7l0,73.1l-6.3,0l0,-73.1c0,-33.7 27.4,-61.1 61.1,-61.1l20.1,0c33.7,0 61.1,27.4 61.1,61.1l0,42.3l-0.2,0z" fill="#305675"/>
   </g>
   <path stroke="null" id="svg_60" fill="#F49B7F" d="m397.160008,268.205594l13.178815,0l0,10.393823l-13.178815,0l0,-10.393823z"/>
   <path stroke="null" id="svg_61" d="m415.403622,258.318388c-0.792452,-1.062262 -1.705494,-0.424905 -2.22231,0.13074c-0.378999,-3.203128 -1.119769,-6.357228 -2.325673,-6.978243c-2.22231,-1.160317 -7.080383,-1.160317 -7.080383,-1.160317s-4.858073,0 -7.080383,1.160317c-1.223132,0.637357 -1.946675,3.775115 -2.325673,6.978243c-0.516816,-0.555645 -1.429858,-1.193002 -2.22231,-0.13074c-1.016405,1.356427 0.792452,4.020252 1.91222,4.624924c-0.017227,0.898837 -0.017227,2.206236 0.017227,2.745538c0.206727,2.876278 3.445442,4.314417 4.255121,5.000802c2.635763,2.238921 5.461025,2.304291 5.461025,2.304291s2.825262,-0.06537 5.461025,-2.304291c0.809679,-0.686385 4.048394,-2.320633 4.255121,-5.196912c0.034454,-0.52296 0.051682,-1.650591 0.017227,-2.549428c1.085314,-0.604672 2.894171,-3.268498 1.877766,-4.624924z" fill="#F9AB90"/>
   <path stroke="null" id="svg_62" d="m394.1797,260.851474c0,0 -1.085314,-4.477842 -0.964724,-6.667736c0.12059,-2.189894 0.723543,-3.562663 0.723543,-3.562663s-1.567676,-1.029577 -1.205905,-3.67706c0.361771,-2.647483 1.567676,-2.647483 1.567676,-2.647483s-0.482362,1.846701 1.688267,2.075496c2.187856,0.228795 3.27317,-0.228795 3.27317,-0.228795l-1.205905,-1.258372c0,0 1.567676,1.029577 4.237894,0.686385c2.670217,-0.343192 4.237894,-1.258372 6.787521,-0.343192s3.152579,2.647483 3.27317,2.990676c0.12059,0.343192 1.567676,1.372769 2.067265,3.333868c0.482362,1.961099 -1.688267,8.743232 -1.688267,8.743232s-1.205905,-3.105073 -1.826084,-4.821034c-0.602952,-1.732304 -0.723543,-2.647483 -0.723543,-2.647483s-0.723543,0.343192 -4.720255,0.343192s-8.734195,-0.915179 -8.734195,-0.915179s0.361771,1.029577 -0.482362,2.647483c-0.86136,1.568879 -2.067265,5.948666 -2.067265,5.948666z" fill="#7F1327"/>
   <path stroke="null" id="svg_63" fill="#7AB7B2" d="m397.160008,278.599416l13.178815,0l0,38.323137l-13.178815,0l0,-38.323137z"/>
   <path stroke="null" id="svg_64" d="m403.758028,278.599417c0,0 -5.013118,-1.258372 -6.615248,-5.523761l0,9.642069l6.615248,-4.118307z" fill="#8EC9C5"/>
   <path stroke="null" id="svg_65" d="m403.758028,278.599417c0,0 5.013118,-1.258372 6.615248,-5.523761l0,9.642069l-6.615248,-4.118307z" fill="#8EC9C5"/>
   <path stroke="null" id="svg_66" fill="#87939B" d="m393.800699,293.274974a1.79163,1.699619 0 0 1 -1.79163,1.699619a1.79163,1.699619 0 0 1 -1.79163,-1.699619a1.79163,1.699619 0 0 1 1.79163,-1.699619a1.79163,1.699619 0 0 1 1.79163,1.699619z"/>
   <path stroke="null" id="svg_67" fill="#305675" d="m392.922112,293.274974a0.913042,0.866152 0 0 1 -0.913042,0.866152a0.913042,0.866152 0 0 1 -0.913042,-0.866152a0.913042,0.866152 0 0 1 0.913042,-0.866152a0.913042,0.866152 0 0 1 0.913042,0.866152z"/>
   <path stroke="null" id="svg_68" d="m417.849885,299.239981l-0.31009,0l0,-1.029577l0.31009,0c0.396226,0 0.775224,-0.114397 1.102541,-0.343192c0.637407,-0.441247 0.913042,-1.176659 0.723543,-1.912071l-1.929447,-7.059955c-0.223954,-0.784439 -0.964724,-1.340084 -1.826084,-1.340084l-0.86136,0c-0.86136,0 -1.619358,0.555645 -1.826084,1.340084l-1.929447,7.059955c-0.189499,0.71907 0.086136,1.470824 0.723543,1.912071c0.327317,0.228795 0.706316,0.343192 1.102541,0.343192l0.31009,0l0,1.029577l-0.31009,0c-0.637407,0 -1.240359,-0.179767 -1.739948,-0.539302c-0.999178,-0.686385 -1.447086,-1.863044 -1.136996,-3.007018l1.929447,-7.059955c0.344544,-1.242029 1.533222,-2.124524 2.894171,-2.124524l0.86136,0c1.36095,0 2.549627,0.866152 2.894171,2.124524l1.929447,7.059955c0.31009,1.143974 -0.137818,2.320633 -1.136996,3.007018c-0.534043,0.359535 -1.136996,0.539302 -1.774403,0.539302z" fill="#87939B"/>
   <path stroke="null" id="svg_69" d="m414.817896,298.766049c0,0.52296 -0.275635,0.947864 -0.602952,0.947864c-0.327317,0 -1.240359,-0.424905 -1.240359,-0.947864s0.913042,-0.947864 1.240359,-0.947864c0.344544,0.016342 0.602952,0.424905 0.602952,0.947864z" fill="#305675"/>
   <path stroke="null" id="svg_70" d="m416.368345,298.766049c0,0.52296 0.275635,0.947864 0.602952,0.947864s1.240359,-0.424905 1.240359,-0.947864s-0.913042,-0.947864 -1.240359,-0.947864s-0.602952,0.424905 -0.602952,0.947864z" fill="#305675"/>
   <path stroke="null" id="svg_71" fill="#305675" d="m401.466811,316.906214l4.582434,0l-1.550449,-35.773712l0.981953,-1.323738l-1.722721,-1.209347l-1.722721,1.209347l0.96472,1.323738l-1.533216,35.773712z"/>
   <g stroke="null" id="svg_72" transform="matrix(0.17227209463400636,0,0,0.16342489241453478,-11562.319649375275,-7540.379877106804) ">
    <g stroke="null" id="svg_73">
     <g stroke="null" id="svg_74">
      <path stroke="null" id="svg_75" d="m69437.835709,47746.68043c-1.8,0 -3.3,-1.5 -3.3,-3.3l0,-4.3c0,-1.8 1.5,-3.3 3.3,-3.3c1.8,0 3.3,1.5 3.3,3.3l0,4.3c0,1.8 -1.5,3.3 -3.3,3.3z" fill="#381218"/>
     </g>
     <g stroke="null" id="svg_76">
      <path stroke="null" id="svg_77" d="m69478.035709,47746.68043c-1.8,0 -3.3,-1.5 -3.3,-3.3l0,-4.3c0,-1.8 1.5,-3.3 3.3,-3.3c1.8,0 3.3,1.5 3.3,3.3l0,4.3c0,1.8 -1.5,3.3 -3.3,3.3z" fill="#381218"/>
     </g>
    </g>
    <g stroke="null" id="svg_78">
     <path stroke="null" id="svg_79" d="m69421.235709,47728.38043c0,0 9.8,-10.3 20.1,-10.3l0.4,4.5c0,0 -7.4,0 -20.5,5.8z" fill="#381218"/>
     <path stroke="null" id="svg_80" d="m69494.635709,47728.38043c0,0 -9.8,-10.3 -20.1,-10.3l-0.4,4.5c0,0 7.4,0 20.5,5.8z" fill="#381218"/>
    </g>
    <path stroke="null" id="svg_81" d="m69443.235709,47777.18043l32.8,0c0,0 -14.9,27.6 -32.8,0z" fill="#EF4136"/>
   </g>
   <path stroke="null" id="svg_82" fill="#F49B7F" d="m347.338917,268.205594l13.178815,0l0,12.975936l-13.178815,0l0,-12.975936z"/>
   <path stroke="null" id="svg_83" d="m365.582532,258.318388c-0.792452,-1.062262 -1.705494,-0.424905 -2.22231,0.13074c-0.378999,-3.203128 -1.119769,-6.357228 -2.325673,-6.978243c-2.22231,-1.160317 -7.080383,-1.160317 -7.080383,-1.160317s-4.858073,0 -7.080383,1.160317c-1.223132,0.637357 -1.946675,3.775115 -2.325673,6.978243c-0.516816,-0.555645 -1.429858,-1.193002 -2.22231,-0.13074c-1.016405,1.356427 0.792452,4.020252 1.91222,4.624924c-0.017227,0.898837 0.723543,3.41558 0.930269,3.905855c1.085314,2.598456 2.5324,3.1541 3.342079,3.840485c2.635763,2.238921 5.461025,2.304291 5.461025,2.304291s2.825262,-0.06537 5.461025,-2.304291c0.809679,-0.686385 2.015584,-1.307399 3.342079,-3.840485c0.241181,-0.473932 0.947497,-3.007018 0.930269,-3.905855c1.085314,-0.604672 2.894171,-3.268498 1.877766,-4.624924z" fill="#F9AB90"/>
   <path stroke="null" id="svg_84" d="m344.996017,260.835132c0,0 0.258408,-3.382895 0.775224,-5.278624c0.516816,-1.895729 1.739948,-3.74243 2.463491,-3.74243s1.877766,1.405454 5.374889,1.650591c3.497124,0.245137 6.66693,-0.555645 7.063156,0.06537c0.396226,0.621015 0.654634,1.601564 1.429858,3.252155c0.775224,1.650591 1.223132,4.853719 1.223132,4.853719s0.913042,-5.768899 0.913042,-7.435833c0,-1.650591 -0.258408,-4.428815 -3.307624,-6.389913c-3.049216,-1.961099 -8.992603,-2.091839 -11.008187,-1.601564c-1.998356,0.490275 -2.84249,2.157209 -2.84249,2.157209s-1.877766,0.375877 -2.65299,1.846701c-0.775224,1.470824 -0.913042,5.278624 -0.654634,6.749448c0.258408,1.487167 1.223132,3.87317 1.223132,3.87317z" fill="#763618"/>
   <path stroke="null" id="svg_85" d="m331.851656,316.906212c-0.086136,-3.186785 -0.775224,-28.027369 0,-33.224281c0.637407,-4.281732 3.58326,-6.242831 4.771937,-6.880188l0,40.104469l-4.771937,0z" fill="#F49B7F"/>
   <path stroke="null" id="svg_86" d="m371.250284,316.906212l0,-40.088126c1.188677,0.621015 4.13453,2.598456 4.771937,6.880188c0.775224,5.196912 0.103363,30.037495 0,33.224281l-4.771937,0l0,-0.016342z" fill="#F49B7F"/>
   <path stroke="null" id="svg_87" d="m377.297034,294.04307c0,-4.772007 -0.103363,-8.922999 -0.378999,-10.737015c-0.826906,-5.523761 -5.305981,-7.305093 -5.49548,-7.386805l0,0l-9.905645,-2.761881l-7.666108,6.716763l-7.373246,-6.716763l-10.026236,2.761881l0,0c0,0 -4.651347,1.748646 -5.49548,7.386805c-0.275635,1.814016 -0.378999,5.965009 -0.378999,10.737015l5.874478,0l0,22.879485l34.988462,0l0,-22.879485l5.857251,0z" fill="#017E82"/>
   <path stroke="null" id="svg_88" fill="#026868" d="m344.617018,273.663987l9.182103,8.563463l9.733373,-8.514439l-1.998358,-0.555643l-7.666108,6.716765l-7.390471,-6.716765l-1.860539,0.506619z"/>
   <path stroke="null" id="svg_89" d="m367.839296,286.672607l-7.855608,0c-0.499589,0 -0.913042,0.39222 -0.913042,0.866152l0,4.39613c0,0.473932 0.413453,0.866152 0.913042,0.866152l7.855608,0c0.499589,0 0.913042,-0.39222 0.913042,-0.866152l0,-4.39613c0,-0.473932 -0.413453,-0.866152 -0.913042,-0.866152z" fill="#FFFFFF"/>
   <path stroke="null" id="svg_90" fill="#A9ACBA" d="m359.983687,287.75121l2.790808,0l0,3.660718l-2.790808,0l0,-3.660718z"/>
   <path stroke="null" id="svg_91" fill="#A9ACBA" d="m363.084585,287.783896l4.75471,0l0,0.408562l-4.75471,0l0,-0.408562z"/>
   <path stroke="null" id="svg_92" fill="#A9ACBA" d="m363.084585,288.976896l4.75471,0l0,0.408562l-4.75471,0l0,-0.408562z"/>
   <path stroke="null" id="svg_93" fill="#A9ACBA" d="m363.084585,290.153557l4.75471,0l0,0.408562l-4.75471,0l0,-0.408562z"/>
   <path stroke="null" id="svg_94" d="m363.911493,285.103728c-0.258408,0 -0.447907,0.19611 -0.447907,0.424905l0,1.225687c0,0.245137 0.206727,0.424905 0.447907,0.424905c0.258408,0 0.447907,-0.19611 0.447907,-0.424905l0,-1.225687c0,-0.228795 -0.189499,-0.424905 -0.447907,-0.424905z" fill="#A9ACBA"/>
   <g stroke="null" id="svg_95" transform="matrix(0.17227209463400636,0,0,0.16342489241453478,-11562.319649375275,-7540.379877106804) ">
    <g stroke="null" id="svg_96">
     <g stroke="null" id="svg_97">
      <path stroke="null" id="svg_98" d="m69151.035709,47746.68043c-1.8,0 -3.3,-1.5 -3.3,-3.3l0,-4.3c0,-1.8 1.5,-3.3 3.3,-3.3c1.8,0 3.3,1.5 3.3,3.3l0,4.3c0,1.8 -1.5,3.3 -3.3,3.3z" fill="#381218"/>
     </g>
     <g stroke="null" id="svg_99">
      <path stroke="null" id="svg_100" d="m69191.235709,47746.68043c-1.8,0 -3.3,-1.5 -3.3,-3.3l0,-4.3c0,-1.8 1.5,-3.3 3.3,-3.3c1.8,0 3.3,1.5 3.3,3.3l0,4.3c0,1.8 -1.5,3.3 -3.3,3.3z" fill="#381218"/>
     </g>
    </g>
    <g stroke="null" id="svg_101">
     <path stroke="null" id="svg_102" d="m69134.435709,47728.38043c0,0 9.8,-10.3 20.1,-10.3l0.4,4.5c0,0 -7.4,0 -20.5,5.8z" fill="#381218"/>
     <path stroke="null" id="svg_103" d="m69207.835709,47728.38043c0,0 -9.8,-10.3 -20.1,-10.3l-0.4,4.5c0,0 7.4,0 20.5,5.8z" fill="#381218"/>
    </g>
   </g>
   <path stroke="null" id="svg_104" d="m350.663768,266.113756l6.391295,0c0,0 -0.31009,2.680168 -3.307624,2.680168c-2.997534,-0.016342 -3.08367,-2.680168 -3.08367,-2.680168z" fill="#EF4136"/>
   <g stroke="null" id="svg_105" transform="matrix(0.17227209463400636,0,0,0.16342489241453478,-11562.319649375275,-7540.379877106804) ">
    <path stroke="null" id="svg_106" d="m69919.135709,48077.68043l0,-235.6c0,0 -23.2,10 -27.5,42.4c-4.2,32.1 -0.1,190.1 0,193.1l27.5,0l0,0.1z" fill="#F49B7F"/>
    <path stroke="null" id="svg_107" d="m70115.135709,48077.68043c0.1,-3 4.2,-161 0,-193.1c-4.2,-32.4 -27.5,-42.4 -27.5,-42.4l0,235.5l27.5,0z" fill="#F49B7F"/>
   </g>
   <path stroke="null" id="svg_108" fill="#F49B7F" d="m491.63402,270.983817l11.352731,0l0,14.005512l-11.352731,0l0,-14.005512z"/>
   <path stroke="null" id="svg_109" d="m517.113066,285.152756c-0.723543,-5.245939 -4.651347,-6.89653 -4.737483,-6.929215l0,0l-8.527469,-2.598456l-6.735839,7.174353l-6.23625,-7.174353l-8.630832,2.598456l0,0c-0.086136,0.032685 -4.01394,1.699619 -4.737483,6.929215c-0.258408,1.895729 -0.327317,6.455283 -0.327317,11.537797l5.047572,0l0,20.019549l30.147617,0l0,-20.035892l5.047572,0c0.017227,-5.082514 -0.051682,-9.642069 -0.31009,-11.521455z" fill="#017E82"/>
   <path stroke="null" id="svg_110" d="m509.791502,286.476497l-7.855608,0c-0.499589,0 -0.913042,0.39222 -0.913042,0.866152l0,4.39613c0,0.473932 0.413453,0.866152 0.913042,0.866152l7.855608,0c0.499589,0 0.913042,-0.39222 0.913042,-0.866152l0,-4.39613c-0.017227,-0.490275 -0.413453,-0.866152 -0.913042,-0.866152z" fill="#FFFFFF"/>
   <path stroke="null" id="svg_111" fill="#A9ACBA" d="m501.918676,287.555103l2.790808,0l0,3.660718l-2.790808,0l0,-3.660718z"/>
   <path stroke="null" id="svg_112" fill="#A9ACBA" d="m505.036796,287.587785l4.754712,0l0,0.408562l-4.754712,0l0,-0.408562z"/>
   <path stroke="null" id="svg_113" fill="#A9ACBA" d="m505.036796,288.764446l4.754712,0l0,0.408562l-4.754712,0l0,-0.408562z"/>
   <path stroke="null" id="svg_114" fill="#A9ACBA" d="m505.036796,289.941107l4.754712,0l0,0.408562l-4.754712,0l0,-0.408562z"/>
   <path stroke="null" id="svg_115" d="m505.863698,284.891276c-0.258408,0 -0.447907,0.19611 -0.447907,0.424905l0,1.225687c0,0.245137 0.206727,0.424905 0.447907,0.424905s0.447907,-0.19611 0.447907,-0.424905l0,-1.209344c0,-0.245137 -0.206727,-0.441247 -0.447907,-0.441247z" fill="#A9ACBA"/>
   <path stroke="null" id="svg_116" fill="#026868" d="m497.008921,284.972987l8.424088,-8.841283l-1.671031,-0.506617l-6.735835,7.174351l-6.236262,-7.174351l-1.584895,0.473931l7.803935,8.87397z"/>
   <path stroke="null" id="svg_117" d="m494.097514,288.323198l-16.245259,0c-1.136996,0 -2.067265,0.882494 -2.067265,1.961099l0,24.677159c0,1.078604 0.930269,1.961099 2.067265,1.961099l16.245259,0c1.136996,0 2.067265,-0.882494 2.067265,-1.961099l0,-24.677159c0,-1.094947 -0.930269,-1.961099 -2.067265,-1.961099z" fill="#913A1F"/>
   <path stroke="null" id="svg_118" d="m475.130357,300.580065l2.549627,-0.882494c0.534043,-0.179767 1.085314,0.179767 1.085314,0.71907l0,0c0,0.310507 -0.189499,0.58833 -0.482362,0.702727l-2.566854,1.062262c-0.551271,0.228795 -1.17145,-0.179767 -1.136996,-0.751755l0.017227,-0.179767c0.017227,-0.294165 0.223954,-0.571987 0.534043,-0.670042z" fill="#F49B7F"/>
   <path stroke="null" id="svg_119" d="m475.130357,302.508479l2.997534,-1.029577c0.534043,-0.179767 1.085314,0.179767 1.085314,0.71907l0,0c0,0.310507 -0.189499,0.58833 -0.482362,0.702727l-2.997534,1.209344c-0.551271,0.228795 -1.17145,-0.179767 -1.136996,-0.751755l0.017227,-0.179767c0,-0.294165 0.206727,-0.555645 0.516816,-0.670042z" fill="#F49B7F"/>
   <path stroke="null" id="svg_120" d="m475.130357,304.436893l2.997534,-1.029577c0.534043,-0.179767 1.085314,0.179767 1.085314,0.71907l0,0c0,0.310507 -0.189499,0.58833 -0.482362,0.702727l-2.997534,1.209344c-0.551271,0.228795 -1.17145,-0.179767 -1.136996,-0.751755l0.017227,-0.179767c0,-0.310507 0.206727,-0.571987 0.516816,-0.670042z" fill="#F49B7F"/>
   <path stroke="null" id="svg_121" d="m475.23372,306.316279l2.22231,-0.768097c0.465135,-0.163425 0.947497,0.163425 0.947497,0.637357l0,0c0,0.26148 -0.172272,0.506617 -0.43068,0.621015l-2.239537,0.931522c-0.482362,0.19611 -1.016405,-0.147082 -0.999178,-0.6537l0.017227,-0.163425c0.034454,-0.277822 0.206727,-0.506617 0.482362,-0.604672z" fill="#F49B7F"/>
   <g stroke="null" id="svg_122" transform="matrix(0.17227209463400636,0,0,0.16342489241453478,-11562.319649375275,-7540.379877106804) ">
    <path stroke="null" id="svg_123" d="m70063.935709,47737.38043c-4.5,-6.1 -9,-2.4 -11.5,0.8c-2.9,-18.2 -7.4,-35.4 -13.6,-38.7c-11.3,-6.1 -35.3,-6.1 -35.3,-6.1s-24.1,0 -35.3,6.1c-6.2,3.4 -10.7,20.6 -13.6,38.7c-2.5,-3.2 -7,-6.9 -11.5,-0.8c-5.9,7.9 2.7,23.8 8.4,27.4c-0.4,5.5 6.8,35.9 21.4,49.8c8.2,7.8 16.1,11.3 22,15.4c5.2,3.6 12.1,3.6 17.4,0c6,-4.1 14.6,-6.8 22,-15.4c14.5,-16.9 21.8,-44.3 21.4,-49.8c5.4,-3.6 14,-19.5 8.2,-27.4z" fill="#F9AB90"/>
   </g>
   <g stroke="null" id="svg_124" transform="matrix(0.17227209463400636,0,0,0.16342489241453478,-11562.319649375275,-7540.379877106804) ">
    <g stroke="null" id="svg_125">
     <g stroke="null" id="svg_126">
      <path stroke="null" id="svg_127" d="m69985.435709,47762.68043c-1.6,0 -3,-1.3 -3,-3l0,-3.8c0,-1.6 1.3,-3 3,-3c1.6,0 3,1.3 3,3l0,3.8c0,1.7 -1.4,3 -3,3z" fill="#381218"/>
     </g>
     <g stroke="null" id="svg_128">
      <path stroke="null" id="svg_129" d="m70021.335709,47762.68043c-1.6,0 -3,-1.3 -3,-3l0,-3.8c0,-1.6 1.3,-3 3,-3c1.6,0 3,1.3 3,3l0,3.8c0,1.7 -1.3,3 -3,3z" fill="#381218"/>
     </g>
    </g>
    <g stroke="null" id="svg_130">
     <path stroke="null" id="svg_131" d="m69970.535709,47749.38043c0,0 8.8,-9.2 18,-9.2l0.4,4c0,0.1 -6.6,0.1 -18.4,5.2z" fill="#381218"/>
     <path stroke="null" id="svg_132" d="m70036.235709,47749.38043c0,0 -8.8,-9.2 -18,-9.2l-0.4,4c0,0.1 6.6,0.1 18.4,5.2z" fill="#381218"/>
    </g>
   </g>
   <path stroke="null" id="svg_133" d="m490.169711,271.277982c0,0 6.54634,4.543212 14.177993,0.016342c0,0 0.499589,0.13074 -0.551271,0.768097c-1.033633,0.637357 -5.788342,3.448265 -12.989316,0.114397c-0.223954,-0.098055 -0.413453,-0.228795 -0.568498,-0.408562c-0.155045,-0.163425 -0.258408,-0.375877 -0.068909,-0.490275z" fill="#017E82"/>
   <path stroke="null" id="svg_134" d="m489.756258,267.176017c0.378999,1.585221 1.326495,5.049829 2.739126,6.422598c0.103363,0.098055 0.223954,0.147082 0.344544,0.179767c1.016405,0.147082 5.857251,0.768097 9.492192,0.032685c0.189499,-0.032685 0.344544,-0.163425 0.43068,-0.32685c0.396226,-0.800782 1.584903,-3.317525 2.10172,-6.242831c0.068909,-0.39222 -0.241181,-0.751755 -0.654634,-0.71907c-1.998356,0.098055 -7.666108,0.32685 -13.833449,-0.081712c-0.396226,-0.06537 -0.723543,0.32685 -0.62018,0.735412z" fill="#017E82"/>
   <path stroke="null" id="svg_135" d="m488.87767,262.093503c0,0 1.085314,3.922197 1.378177,4.428815c0.292863,0.506617 -0.499589,0.6537 -0.499589,0.6537s-1.205905,-3.170443 -0.878588,-5.082514z" fill="#017E82"/>
   <path stroke="null" id="svg_136" d="m505.656972,262.093503c0,0 -1.085314,3.922197 -1.378177,4.428815c-0.292863,0.506617 0.499589,0.6537 0.499589,0.6537s1.205905,-3.170443 0.878588,-5.082514z" fill="#017E82"/>
   <path stroke="null" id="svg_137" d="m489.032715,262.877943c0,0 0.74077,-3.170443 1.395404,-3.987567c0.671861,-0.817124 10.353553,-1.585221 11.697275,-0.882494c1.343722,0.702727 2.205083,1.143974 2.205083,1.143974l1.343722,4.118307c0,0 0.930269,-2.091839 0.930269,-3.039703s-2.876944,-5.507419 -8.820331,-5.507419c-5.943387,0 -9.492192,3.48095 -9.612783,3.74243c-0.137818,0.26148 -0.137818,1.961099 -0.137818,1.961099s0.465135,1.634249 0.999178,2.451373z" fill="#381218"/>
   <path stroke="null" id="svg_138" d="m488.016309,260.410227c0,0 9.233784,-4.118307 18.639841,0.114397c0,0 1.79163,-7.729997 -3.27317,-10.508221c-5.874478,-3.21947 -13.02377,-1.209344 -14.763719,2.533086c-1.705494,3.660718 -0.602952,7.860737 -0.602952,7.860737z" fill="#017E82"/>
   <path stroke="null" id="svg_139" fill="#F2E29B" d="m319.740927,321.285999l208.518149,0l0,55.417383l-208.518149,0l0,-55.417383z"/>
   <path stroke="null" id="svg_140" d="m530.688107,316.971582l-213.376216,0c-1.085314,0 -1.963902,0.833467 -1.963902,1.863044l0,3.74243c0,1.029577 0.878588,1.863044 1.963902,1.863044l213.376216,0c1.085314,0 1.963902,-0.833467 1.963902,-1.863044l0,-3.74243c0,-1.029577 -0.878588,-1.863044 -1.963902,-1.863044z" fill="#FFF3B4"/>
  </g>
 </g>
</svg>