<?xml version="1.0"?>
<svg xmlns="http://www.w3.org/2000/svg" xmlns:xlink="http://www.w3.org/1999/xlink" version="1.1" id="Capa_1" x="0px" y="0px" viewBox="0 0 464 464" style="enable-background:new 0 0 464 464;" xml:space="preserve" width="512px" height="512px" class=""><g><path style="fill:#4B8CC5" d="M456,32c-49.3,0-60.8,0-109.6,0c-68.3,0-61.9,72-98.4,72V59.6c9.5-5.5,16-15.7,16-27.6  c0-17.7-14.3-32-32-32s-32,14.3-32,32c0,11.8,6.5,22,16,27.6V104c-36.7,0-30-72-98.4-72C68.8,32,57.4,32,8,32  c0,24.5,17.2,48,54.6,48L24,96c10.1,24.5,38.2,36.1,62.7,26l12.5-5.2L72,144c18.7,18.7,53.6,18.4,72.3-0.4  c5.5,9.7,15.8,16.4,27.8,16.4c11.8,0,22.4-6.7,27.9-16.3c3.4,7,9,12.6,16,16.1V448c0,8.8,7.2,16,16,16s16-7.2,16-16V159.9  c6.9-3.5,12.5-9.1,16-16.1c5.6,9.5,16.1,16.3,27.9,16.3c12,0,22.3-6.6,27.8-16.4c18.7,18.7,53.6,19.1,72.3,0.4l-27.2-27.2l12.5,5.2  c24.5,10.1,52.6-1.5,62.7-26l-38.6-16C438.8,80,456,56.5,456,32z" data-original="#FACE59" class="" data-old_color="#FACE59"/><g>
	<path style="fill:#4B8CC5" d="M86.4,98.6c-5.3-3.5-8.2-9.6-7.6-15.9c0.6-6.3,4.6-11.8,10.5-14.2C78.8,59.8,72,46.8,72,32h45.6   c68.5,0,61.6,72,98.4,72v55.9c-6.9-3.5-12.5-9.1-16-16.1l-0.2-0.1c-5.5,9.7-15.8,16.4-27.8,16.4c-16,0-29.2-11.8-31.5-27.2   c-8.8,1.6-17.8,0.8-26.2-2.2c-4.6-1.7-8.1-5.6-9.2-10.4s0.4-9.8,3.9-13.3l0.5-0.5C101.3,105.8,93.3,103.1,86.4,98.6z" data-original="#EFBF61" class="active-path" data-old_color="#EFBF61"/>
	<path style="fill:#4B8CC5" d="M378.9,97.7c4.9-3.5,7.6-9.4,6.9-15.4s-4.6-11.1-10.2-13.4l-0.9-0.4c10.4-8.8,17.2-21.8,17.2-36.5   h-45.6c-68.5,0-61.6,72-98.4,72v55.9c6.9-3.5,12.5-9.1,16-16.1l0.2-0.1c5.5,9.7,15.8,16.4,27.8,16.4c16,0,29.2-11.8,31.5-27.2   c8.8,1.6,17.8,0.8,26.2-2.2c4.6-1.7,8.1-5.6,9.2-10.4s-0.4-9.8-3.9-13.3l-0.5-0.5C363.2,105.8,371.7,102.8,378.9,97.7z" data-original="#EFBF61" class="active-path" data-old_color="#EFBF61"/>
</g><path style="fill:#81BCF1" d="M232,64c-5.9,0-11.3-1.7-16-4.4V64l32,32V59.6C243.3,62.3,237.9,64,232,64z" data-original="#E4B64F" class="" data-old_color="#E4B64F"/><g>
	<path style="fill:#81BCF1" d="M346.2,78.5c3.8-2.6,5.8-7.1,5.3-11.7c-0.5-4.6-3.5-8.5-7.7-10.2l-0.7-0.3   c7.1-6,11.7-14.5,12.7-24.2h-9.4c-68.5,0-61.6,72-98.4,72v20.7l10.8-11.3l0.1-0.1c4.2,7.4,12,12.5,21.1,12.5c12.2,0,22.2-9,24-20.7   c6.9,1.2,14.1,0.6,20.6-1.9c3.4-1.3,5.8-4.2,6.6-7.7c0.7-3.5-0.3-7.2-2.9-9.7l-0.8-0.8C334.3,84.6,340.8,82.3,346.2,78.5z" data-original="#FADC8B" class="" data-old_color="#FADC8B"/>
	<path style="fill:#81BCF1" d="M117.6,32h-9.4c1,9.7,5.6,18.3,12.7,24.2l-0.7,0.3c-4.3,1.7-7.2,5.7-7.7,10.2s1.5,9,5.3,11.7   c5.5,3.8,11.9,6.1,18.7,6.6l-0.8,0.8c-2.5,2.5-3.6,6.2-2.9,9.7c0.7,3.5,3.2,6.4,6.6,7.7c6.6,2.5,13.7,3.2,20.6,1.9   c1.8,11.7,11.8,20.7,24,20.7c9.1,0,16.9-5.1,21.1-12.5l0.1,0.1l10.8,11.3V104C179.1,104,186.1,32,117.6,32z" data-original="#FADC8B" class="" data-old_color="#FADC8B"/>
</g><path style="fill:#81BCF1" d="M248,401.2v-52.6l-32,14.3v52.7C221,413.1,242.4,403.7,248,401.2z" data-original="#E4B64F" class="" data-old_color="#E4B64F"/><path style="fill:#618EA8;" d="M319.9,344.8C319.9,344.7,319.9,344.7,319.9,344.8C319.9,344.7,319.9,344.7,319.9,344.8L319.9,344.8  c0-23.7-17.9-43.9-47.8-54.1c-76.7-25.5-111.6-32.2-117.6-54.5c6-1.1,12.4-3.7,18.4-8.1c16.2-11.7,23.4-30.9,16-43  c-14.6-23.9-67.2,0.6-67.2,47.1c0,56.4,70.8,68.4,140.9,91.7c16.5,5.6,25.2,14.7,25.2,20.8c0,10-5.7,15-25.7,23.8l-54.4,23.7  c-20.4,10.1-33.1,26.5-33.1,43.1c0,8.4,1.2,17.1,14.7,27.6c0.8,0.6,1.8,1,2.9,1c2.6,0,4.6-2.1,4.6-4.6c0-0.8-0.2-1.7-0.6-2.3  c-15.2-26.3,15.6-36.6,76.1-58.2C295.9,390.3,319.8,372.9,319.9,344.8L319.9,344.8z" data-original="#618EA8"/><path style="fill:#81BCF1" d="M248,297.7v-50.5c-10,3.3-21.7,7.1-32,10.4V308C224.4,305.3,232,302.9,248,297.7z" data-original="#E4B64F" class="" data-old_color="#E4B64F"/><path style="fill:#2D3F50;" d="M196,265.7c-9.8,3.2-21.5,9.1-37.6,20.8c26.5,18,109.5,32.5,126,50.6l1-40.9  C269.4,290.3,216.2,272.5,196,265.7z" data-original="#2D3F50"/><path style="fill:#618EA8;" d="M201.3,324c70.2-23.3,140.9-35.3,140.9-91.7c0-46.5-52.6-71-67.2-47.1c-7.3,12-0.2,31.3,16,43  c6,4.3,12.3,7,18.4,8.1c-5.9,22.3-40.8,29-117.6,54.5C161.9,301,144,321.2,144,344.9l0,0c0,28.1,24,45.5,47.6,54  c60.5,21.6,91.3,31.9,76.1,58.2c-0.4,0.7-0.6,1.5-0.6,2.3c0,2.6,2.1,4.6,4.6,4.6c1.1,0,2.1-0.4,2.9-1c13.5-10.4,14.7-19.2,14.7-27.6  c0-16.5-11.5-32.5-33.1-42.5l-54.4-24.3c-20-8.8-25.7-13.8-25.7-23.8C176.2,338.6,184.8,329.6,201.3,324z" data-original="#618EA8"/><g>
	<ellipse style="fill:#CDDBEC;" cx="159.9" cy="199.8" rx="8" ry="8.1" data-original="#CDDBEC" class=""/>
	<ellipse style="fill:#CDDBEC;" cx="304.1" cy="199.8" rx="8" ry="8.1" data-original="#CDDBEC" class=""/>
</g><g>
	<path style="fill:#2D3F50;" d="M203.7,369.4c-11.6,5.2-20.2,11-30.2,20.8c5.5,3.5,13,6.7,21.5,9.9c15.6-10.4,36.6-18.2,36.6-18.3   C224.7,378.7,215.6,374.7,203.7,369.4z" data-original="#2D3F50"/>
	<path style="fill:#2D3F50;" d="M268.8,400.1L232,413.5c14.3,5.6,27.4,12,35.3,20.4L268.8,400.1z" data-original="#2D3F50"/>
	<path style="fill:#2D3F50;" d="M231.6,381.8L231.6,381.8L231.6,381.8z" data-original="#2D3F50"/>
	<path style="fill:#2D3F50;" d="M195,400.1L195,400.1L195,400.1z" data-original="#2D3F50"/>
	<path style="fill:#2D3F50;" d="M232,413.5L232,413.5L232,413.5L232,413.5z" data-original="#2D3F50"/>
	<path style="fill:#2D3F50;" d="M232,413.5L232,413.5l36.7-13.4C268.8,400.1,245.5,408.1,232,413.5z" data-original="#2D3F50"/>
</g></g> </svg>
