<svg height="480pt" viewBox="0 0 480 479" width="480pt" xmlns="http://www.w3.org/2000/svg"><path d="m440 40.5h-400c-17.671875 0-32 14.328125-32 32v48h464v-48c0-17.671875-14.328125-32-32-32zm0 0" fill="#9bc9ff"/><path d="m240 232.5c-47.707031-.0625-90.910156 28.167969-110.007812 71.882812-19.097657 43.71875-10.453126 94.597657 22.007812 129.558594 2.066406 2.304688 4.253906 4.492188 6.558594 6.558594 39.429687 36.492188 98.316406 42.320312 144.132812 14.261719 45.816406-28.058594 67.390625-83.160157 52.804688-134.867188-14.582032-51.707031-61.769532-87.414062-115.496094-87.394531zm1.65625 124 33.945312 33.945312zm0 0" fill="#9bc9ff"/><g fill="#1e81ce"><path d="m440 32.5h-32v-24c0-4.417969-3.582031-8-8-8s-8 3.582031-8 8v24h-64v-24c0-4.417969-3.582031-8-8-8s-8 3.582031-8 8v24h-64v-24c0-4.417969-3.582031-8-8-8s-8 3.582031-8 8v24h-64v-24c0-4.417969-3.582031-8-8-8s-8 3.582031-8 8v24h-64v-24c0-4.417969-3.582031-8-8-8s-8 3.582031-8 8v24h-32c-22.082031.027344-39.9726562 17.917969-40 40v304c.0273438 22.082031 17.917969 39.972656 40 40h89.273438c4.734374 8.195312 10.367187 15.832031 16.796874 22.777344 2.226563 2.484375 4.585938 4.847656 7.074219 7.070312 28.507813 26.441406 67.507813 38.460938 105.953125 32.652344 38.445313-5.808594 72.152344-28.816406 91.574219-62.5h89.328125c22.082031-.027344 39.972656-17.917969 40-40v-304c-.027344-22.082031-17.917969-39.972656-40-40zm-424 40c0-13.253906 10.746094-24 24-24h32v24c0 4.417969 3.582031 8 8 8s8-3.582031 8-8v-24h64v24c0 4.417969 3.582031 8 8 8s8-3.582031 8-8v-24h64v24c0 4.417969 3.582031 8 8 8s8-3.582031 8-8v-24h64v24c0 4.417969 3.582031 8 8 8s8-3.582031 8-8v-24h64v24c0 4.417969 3.582031 8 8 8s8-3.582031 8-8v-24h32c13.253906 0 24 10.746094 24 24v40h-448zm300 362.152344c-42.886719 39.839844-109.261719 39.792968-152.089844-.113282-2.117187-1.902343-4.132812-3.917968-6.03125-6.039062-34.066406-36.800781-39.507812-91.761719-13.320312-134.527344 26.191406-42.765625 77.621094-62.902344 125.882812-49.285156 48.261719 13.617188 81.585938 57.664062 81.558594 107.8125.054688 13.644531-2.429688 27.175781-7.328125 39.910156-1.625 4.214844-3.511719 8.324219-5.648437 12.304688-5.894532 11.230468-13.683594 21.359375-23.023438 29.9375zm148-58.152344c0 13.253906-10.746094 24-24 24h-81.34375c.097656-.246094.167969-.503906.265625-.753906 1.316406-3.308594 2.511719-6.6875 3.550781-10.109375.199219-.65625.367188-1.320313.558594-1.984375.890625-3.121094 1.664062-6.273438 2.320312-9.464844.113282-.535156.242188-1.0625.34375-1.597656.671876-3.515625 1.175782-7.066406 1.550782-10.632813.082031-.800781.152344-1.601562.226562-2.402343.3125-3.695313.527344-7.367188.527344-11.054688 0-70.691406-57.308594-128-128-128s-128 57.308594-128 128c0 3.671875.214844 7.335938.535156 10.984375.074219.800781.136719 1.601563.21875 2.398437.382813 3.585938.886719 7.136719 1.597656 10.671876.097657.503906.222657 1 .328126 1.503906.664062 3.257812 1.464843 6.480468 2.398437 9.671875.179687.601562.328125 1.203125.507813 1.800781 1.046874 3.457031 2.253906 6.871094 3.589843 10.226562.097657.246094.160157.511719.265625.757813h-81.441406c-13.253906 0-24-10.746094-24-24v-248.015625h448zm0 0"/><path d="m248 351.53125v-79.03125c0-4.417969-3.582031-8-8-8s-8 3.582031-8 8v80c.03125 1.796875.679688 3.527344 1.832031 4.902344.160157 1.785156.925781 3.464844 2.167969 4.753906l33.945312 33.9375c2.007813 2.078125 4.980469 2.910156 7.777344 2.179688 2.796875-.730469 4.984375-2.917969 5.714844-5.714844s-.101562-5.769532-2.179688-7.777344zm0 0"/></g></svg>