<?xml version="1.0" encoding="utf-8"?>
<svg id="master-artboard" viewBox="0 0 1400 980" version="1.1" xmlns="http://www.w3.org/2000/svg" x="0px" y="0px" enable-background="new 0 0 1400 980" width="1400px" height="980px">
<path fill="#E9F7FE" d="M714.9,529.2c0.1-3.2,4.9-171.5,0-205.7c-4.9-34.5-31.9-45.2-31.9-45.2v250.9H714.9z" transform="matrix(1, 0, 0, 1, 0, 0)"/><g transform="matrix(1, 0, 0, 1, 0, 0)">
					<path fill="#211316" d="M807.3,148.3c0,0-12.7,53.4-10.2,86.5s9.3,63.6,9.3,63.6h112c0,0,3.4-87.4-8.5-128.1&#10;&#9;&#9;&#9;&#9;&#9;&#9;C898,129.7,836.1,100,807.3,148.3z"/>
					<g>
						<path fill="#E9F7FE" d="M771.4,529.2V293.7c0,0-23.2,10-27.5,42.4c-4.2,32.1-0.1,190.1,0,193.1H771.4z"/>
						<path fill="#E9F7FE" d="M973.7,529.2c0.1-3,4.2-161,0-193.1c-4.2-32.4-27.5-42.4-27.5-42.4v235.5H973.7z"/>
					</g>
					<path d="M 946.2000122070312 529.2000122070312 L 946.2000122070312 293.70001220703125 L 896.7999877929688 277.8999938964844 L 821.5 277.8999938964844 L 771.4000244140625 293.70001220703125 L 771.4000244140625 529.2000122070312 Z" fill="#E9F7FE"/>
					<path d="M 821.5 277.8999938964844 L 812.0999755859375 280.79998779296875 L 794.2999877929688 341.3999938964844 L 817.9000244140625 347 L 796.9000244140625 365.79998779296875 L 828.7999877929688 516.0999755859375 L 858.7999877929688 516.0999755859375 L 888.7999877929688 516.0999755859375 L 920.7000122070312 365.79998779296875 L 899.7000122070312 347 L 923.2999877929688 341.3999938964844 L 905.5 280.6000061035156 L 896.7999877929688 277.8999938964844 Z" fill="#FFFFFF"/>
					<g>
						<path fill="#FFFFFF" d="M952.1,344.2h-45.6c-2.9,0-5.3,2.4-5.3,5.3v26.9c0,2.9,2.4,5.3,5.3,5.3h45.6c2.9,0,5.3-2.4,5.3-5.3&#10;&#9;&#9;&#9;&#9;&#9;&#9;&#9;v-26.9C957.4,346.6,955,344.2,952.1,344.2z"/>
						<g>
							<path d="M 906.5 350.799988 H 922.700001 V 373.199987 H 906.5 V 350.799988 Z" fill="#A9ACBA"/>
							<path d="M 924.599976 351 H 952.199976 V 353.5 H 924.599976 V 351 Z" fill="#A9ACBA"/>
							<path d="M 924.599976 358.299988 H 952.199976 V 360.799988 H 924.599976 V 358.299988 Z" fill="#A9ACBA"/>
							<path d="M 924.599976 365.5 H 952.199976 V 368 H 924.599976 V 365.5 Z" fill="#A9ACBA"/>
						</g>
						<path fill="#A9ACBA" d="M929.3,334.6c-1.5,0-2.6,1.2-2.6,2.6v7.5c0,1.5,1.2,2.6,2.6,2.6s2.6-1.2,2.6-2.6v-7.5&#10;&#9;&#9;&#9;&#9;&#9;&#9;&#9;C932,335.8,930.8,334.6,929.3,334.6z"/>
					</g>
					<g>
						<g>
							<g>
								<path fill="#305675" d="M930.8,365.7h-6.3v-42.3c0-30.2-24.6-54.7-54.7-54.7h-20.1c-30.2,0-54.7,24.6-54.7,54.7v73.1h-6.3&#10;&#9;&#9;&#9;&#9;&#9;&#9;&#9;&#9;&#9;v-73.1c0-33.7,27.4-61.1,61.1-61.1h20.1c33.7,0,61.1,27.4,61.1,61.1V365.7z"/>
							</g>
						</g>
						<path d="M 801.9 405.299988 A 10.4 10.4 0 0 1 791.5 415.699987 A 10.4 10.4 0 0 1 781.1 405.299988 A 10.4 10.4 0 0 1 791.5 394.899988 A 10.4 10.4 0 0 1 801.9 405.299988 Z" fill="#87939B"/>
						<path d="M 796.8 405.299988 A 5.3 5.3 0 0 1 791.5 410.599988 A 5.3 5.3 0 0 1 786.2 405.299988 A 5.3 5.3 0 0 1 791.5 399.999988 A 5.3 5.3 0 0 1 796.8 405.299988 Z" fill="#305675"/>
						<g>
							<path fill="#87939B" d="M941.5,441.9h-1.8v-6.3h1.8c2.3,0,4.5-0.7,6.4-2.1c3.7-2.7,5.3-7.2,4.2-11.7l-11.2-43.2&#10;&#9;&#9;&#9;&#9;&#9;&#9;&#9;&#9;c-1.3-4.8-5.6-8.2-10.6-8.2h-5c-5,0-9.4,3.4-10.6,8.2l-11.2,43.2c-1.1,4.4,0.5,9,4.2,11.7c1.9,1.4,4.1,2.1,6.4,2.1h1.8v6.3&#10;&#9;&#9;&#9;&#9;&#9;&#9;&#9;&#9;h-1.8c-3.7,0-7.2-1.1-10.1-3.3c-5.8-4.2-8.4-11.4-6.6-18.4l11.2-43.2c2-7.6,8.9-13,16.8-13h5c7.9,0,14.8,5.3,16.8,13&#10;&#9;&#9;&#9;&#9;&#9;&#9;&#9;&#9;l11.2,43.2c1.8,7-0.8,14.2-6.6,18.4C948.7,440.7,945.2,441.9,941.5,441.9z"/>
						</g>
						<path fill="#305675" d="M923.9,439c0,3.2-1.6,5.8-3.5,5.8s-7.2-2.6-7.2-5.8s5.3-5.8,7.2-5.8S923.9,435.8,923.9,439z"/>
						<path fill="#305675" d="M932.9,439c0,3.2,1.6,5.8,3.5,5.8s7.2-2.6,7.2-5.8s-5.3-5.8-7.2-5.8S932.9,435.8,932.9,439z"/>
					</g>
					<path d="M 825.900024 249.5 H 891.800026 V 335.199997 H 825.900024 V 249.5 Z" fill="#F49B7F"/>
					<g>
						<path fill="#F9AB90" d="M919.3,188.9c-4.5-6.1-9-2.4-11.5,0.8c-2.9-18.2-7.4-35.4-13.6-38.7c-11.3-6.1-35.3-6.1-35.3-6.1&#10;&#9;&#9;&#9;&#9;&#9;&#9;&#9;s-24.1,0-35.3,6.1c-6.2,3.4-10.7,20.6-13.6,38.7c-2.5-3.2-7-6.9-11.5-0.8c-5.9,7.9,2.7,23.8,8.4,27.4&#10;&#9;&#9;&#9;&#9;&#9;&#9;&#9;c-0.4,5.5,6.8,35.9,21.4,49.8c8.2,7.8,16.1,11.3,22,15.4c5.2,3.6,12.1,3.6,17.4,0c6-4.1,14.6-6.8,22-15.4&#10;&#9;&#9;&#9;&#9;&#9;&#9;&#9;c14.5-16.9,21.8-44.3,21.4-49.8C916.6,212.7,925.2,196.8,919.3,188.9z"/>
					</g>
					<g>
						<g>
							<g>
								<g>
									<path fill="#381218" d="M839.4,224.2c-1.8,0-3.2-1.4-3.2-3.2v-4.1c0-1.8,1.4-3.2,3.2-3.2c1.8,0,3.2,1.4,3.2,3.2v4.1&#10;&#9;&#9;&#9;&#9;&#9;&#9;&#9;&#9;&#9;&#9;C842.6,222.8,841.1,224.2,839.4,224.2z"/>
								</g>
								<g>
									<path fill="#381218" d="M877.9,224.2c-1.8,0-3.2-1.4-3.2-3.2v-4.1c0-1.8,1.4-3.2,3.2-3.2c1.8,0,3.2,1.4,3.2,3.2v4.1&#10;&#9;&#9;&#9;&#9;&#9;&#9;&#9;&#9;&#9;&#9;C881.1,222.8,879.7,224.2,877.9,224.2z"/>
								</g>
							</g>
							<g>
								<path fill="#381218" d="M823.4,206.6c0,0,9.4-9.8,19.3-9.8l0.4,4.3C843.1,201.1,836,201.1,823.4,206.6z"/>
								<path fill="#381218" d="M893.8,206.6c0,0-9.4-9.8-19.3-9.8l-0.4,4.3C874.2,201.1,881.3,201.1,893.8,206.6z"/>
							</g>
							<path fill="#EF4136" d="M848.4,254.7h20.8C869.2,254.7,859.7,263.6,848.4,254.7z"/>
						</g>
					</g>
					<path fill="#017E82" d="M858.8,317c-12.3,0-23.7-2.5-32.9-6.8v219.1h65.9V310.2C882.5,314.5,871.1,317,858.8,317z"/>
					<path d="M 825.900024 501.200012 H 891.800026 V 529.200012 H 825.900024 V 501.200012 Z" fill="#305675"/>
					<path fill="#331C21" d="M836.2,150.7c0,0,15.5,20,40.6,37.5c25.1,17.6,29.5,46,32.4,69.2c3,23.2,5.9,74.2-17,92.6&#10;&#9;&#9;&#9;&#9;&#9;&#9;c0,0,36.3-3.1,42.2-48.9c4.5-34.6-0.9-98.7-6.8-129.9c-5.9-31.1-16.2-50.3-45-64.7c-28.8-14.4-53.9,10.4-53.9,10.4&#10;&#9;&#9;&#9;&#9;&#9;&#9;s-18.4-4.8-31.7,22.4c-13.3,27.1-17.6,120.8-10.2,157.6s23.8,53.4,44.9,54c0,0-19.9-18.4-19.9-83s2.3-86.7,9.6-99.5&#10;&#9;&#9;&#9;&#9;&#9;&#9;C828.9,155.5,836.2,150.7,836.2,150.7z"/>
					<path fill="#FFFFFF" d="M884.7,194.7c-9.7,0-17.7,7.2-19.1,16.5h-13c-1.3-9.3-9.4-16.5-19.1-16.5c-10.6,0-19.3,8.6-19.3,19.3&#10;&#9;&#9;&#9;&#9;&#9;&#9;s8.6,19.3,19.3,19.3c10.4,0,18.8-8.2,19.2-18.5h12.7c0.4,10.3,8.8,18.5,19.2,18.5c10.6,0,19.3-8.6,19.3-19.3&#10;&#9;&#9;&#9;&#9;&#9;&#9;S895.4,194.7,884.7,194.7z M833.6,230.9c-9.3,0-16.9-7.6-16.9-16.9s7.6-16.9,16.9-16.9c9.3,0,16.9,7.6,16.9,16.9&#10;&#9;&#9;&#9;&#9;&#9;&#9;S842.9,230.9,833.6,230.9z M884.7,230.9c-9.3,0-16.9-7.6-16.9-16.9s7.6-16.9,16.9-16.9s16.9,7.6,16.9,16.9&#10;&#9;&#9;&#9;&#9;&#9;&#9;S894.1,230.9,884.7,230.9z"/>
				</g><path fill="#E9F7FE" d="M480.9,529.2V278.4c0,0-27,10.7-31.9,45.2c-4.9,34.2-0.1,202.5,0,205.7H480.9z" transform="matrix(1, 0, 0, 1, 0, 0)"/><path d="M 684 529.2000122070312 L 684 278.3999938964844 L 626.5999755859375 261.5 L 539.2000122070312 261.5 L 480.8999938964844 278.3999938964844 L 480.8999938964844 529.2000122070312 Z" fill="#E9F7FE" transform="matrix(1, 0, 0, 1, 0, 0)"/><path d="M 539.2000122070312 261.5 L 528.2000122070312 264.70001220703125 L 507.6000061035156 329.20001220703125 L 535 335.1000061035156 L 510.6000061035156 355.1000061035156 L 547.5999755859375 515.2999877929688 L 582.5 515.2999877929688 L 617.2999877929688 515.2999877929688 L 654.4000244140625 355.1000061035156 L 629.9000244140625 335.1000061035156 L 657.4000244140625 329.20001220703125 L 636.7000122070312 264.5 L 626.5999755859375 261.5 Z" fill="#FFFFFF" transform="matrix(1, 0, 0, 1, 0, 0)"/><path fill="#FFFFFF" d="M682.6,344.2H637c-2.9,0-5.3,2.4-5.3,5.3v26.9c0,2.9,2.4,5.3,5.3,5.3h45.6c2.9,0,5.3-2.4,5.3-5.3&#10;&#9;&#9;&#9;&#9;&#9;&#9;&#9;v-26.9C687.9,346.6,685.5,344.2,682.6,344.2z" transform="matrix(1, 0, 0, 1, 0, 0)"/><path d="M 637 350.799988 H 653.200001 V 373.199987 H 637 V 350.799988 Z" fill="#A9ACBA" transform="matrix(1, 0, 0, 1, 0, 0)"/><path d="M 655 351 H 682.6 V 353.5 H 655 V 351 Z" fill="#A9ACBA" transform="matrix(1, 0, 0, 1, 0, 0)"/><path d="M 655 358.299988 H 682.6 V 360.799988 H 655 V 358.299988 Z" fill="#A9ACBA" transform="matrix(1, 0, 0, 1, 0, 0)"/><path d="M 655 365.5 H 682.6 V 368 H 655 V 365.5 Z" fill="#A9ACBA" transform="matrix(1, 0, 0, 1, 0, 0)"/><path fill="#A9ACBA" d="M659.8,334.6c-1.5,0-2.6,1.2-2.6,2.6v7.5c0,1.5,1.2,2.6,2.6,2.6s2.6-1.2,2.6-2.6v-7.5&#10;&#9;&#9;&#9;&#9;&#9;&#9;&#9;C662.4,335.8,661.3,334.6,659.8,334.6z" transform="matrix(1, 0, 0, 1, 0, 0)"/><g transform="matrix(1, 0, 0, 1, 0, 0)">
							<path fill="#305675" d="M653.6,345h-6.3v-42.3c0-30.2-24.6-54.7-54.7-54.7h-20.1c-30.2,0-54.7,24.6-54.7,54.7v73.1h-6.3&#10;&#9;&#9;&#9;&#9;&#9;&#9;&#9;&#9;v-73.1c0-33.7,27.4-61.1,61.1-61.1h20.1c33.7,0,61.1,27.4,61.1,61.1V345z"/>
						</g><path d="M 544.200012 231.199997 H 620.700012 V 294.799995 H 544.200012 V 231.199997 Z" fill="#F49B7F" transform="matrix(1, 0, 0, 1, 0, 0)"/><path fill="#F9AB90" d="M650.1,170.7c-4.6-6.5-9.9-2.6-12.9,0.8c-2.2-19.6-6.5-38.9-13.5-42.7c-12.9-7.1-41.1-7.1-41.1-7.1&#10;&#9;&#9;&#9;&#9;&#9;&#9;&#9;s-28.2,0-41.1,7.1c-7.1,3.9-11.3,23.1-13.5,42.7c-3-3.4-8.3-7.3-12.9-0.8c-5.9,8.3,4.6,24.6,11.1,28.3&#10;&#9;&#9;&#9;&#9;&#9;&#9;&#9;c-0.1,5.5-0.1,13.5,0.1,16.8c1.2,17.6,20,26.4,24.7,30.6c15.3,13.7,31.7,14.1,31.7,14.1s16.4-0.4,31.7-14.1&#10;&#9;&#9;&#9;&#9;&#9;&#9;&#9;c4.7-4.2,23.5-14.2,24.7-31.8c0.2-3.2,0.3-10.1,0.1-15.6C645.5,195.3,656,179,650.1,170.7z" transform="matrix(1, 0, 0, 1, 0, 0)"/><path fill="#7F1327" d="M526.9,186.2c0,0-6.3-27.4-5.6-40.8c0.7-13.4,4.2-21.8,4.2-21.8s-9.1-6.3-7-22.5&#10;&#9;&#9;&#9;&#9;&#9;&#9;&#9;c2.1-16.2,9.1-16.2,9.1-16.2s-2.8,11.3,9.8,12.7c12.7,1.4,19-1.4,19-1.4l-7-7.7c0,0,9.1,6.3,24.6,4.2&#10;&#9;&#9;&#9;&#9;&#9;&#9;&#9;c15.5-2.1,24.6-7.7,39.4-2.1s18.3,16.2,19,18.3c0.7,2.1,9.1,8.4,12,20.4c2.8,12-9.8,53.5-9.8,53.5s-7-19-10.6-29.5&#10;&#9;&#9;&#9;&#9;&#9;&#9;&#9;c-3.5-10.6-4.2-16.2-4.2-16.2s-4.2,2.1-27.4,2.1s-50.7-5.6-50.7-5.6s2.1,6.3-2.8,16.2C533.9,159.4,526.9,186.2,526.9,186.2z" transform="matrix(1, 0, 0, 1, 0, 0)"/><path d="M 544.200012 294.799988 H 620.700012 V 529.299988 H 544.200012 V 294.799988 Z" fill="#7AB7B2" transform="matrix(1, 0, 0, 1, 0, 0)"/><path fill="#8EC9C5" d="M582.5,294.8c0,0-29.1-7.7-38.4-33.8V320L582.5,294.8z" transform="matrix(1, 0, 0, 1, 0, 0)"/><path fill="#8EC9C5" d="M582.5,294.8c0,0,29.1-7.7,38.4-33.8V320L582.5,294.8z" transform="matrix(1, 0, 0, 1, 0, 0)"/><path d="M 524.699987 384.600006 A 10.4 10.4 0 0 1 514.299988 395.000006 A 10.4 10.4 0 0 1 503.899988 384.600006 A 10.4 10.4 0 0 1 514.299988 374.200006 A 10.4 10.4 0 0 1 524.699987 384.600006 Z" fill="#87939B" transform="matrix(1, 0, 0, 1, 0, 0)"/><path d="M 519.599988 384.600006 A 5.3 5.3 0 0 1 514.299988 389.900006 A 5.3 5.3 0 0 1 508.999988 384.600006 A 5.3 5.3 0 0 1 514.299988 379.300006 A 5.3 5.3 0 0 1 519.599988 384.600006 Z" fill="#305675" transform="matrix(1, 0, 0, 1, 0, 0)"/><path fill="#87939B" d="M664.3,421.1h-1.8v-6.3h1.8c2.3,0,4.5-0.7,6.4-2.1c3.7-2.7,5.3-7.2,4.2-11.7l-11.2-43.2&#10;&#9;&#9;&#9;&#9;&#9;&#9;&#9;c-1.3-4.8-5.6-8.2-10.6-8.2h-5c-5,0-9.4,3.4-10.6,8.2L626.3,401c-1.1,4.4,0.5,9,4.2,11.7c1.9,1.4,4.1,2.1,6.4,2.1h1.8v6.3&#10;&#9;&#9;&#9;&#9;&#9;&#9;&#9;h-1.8c-3.7,0-7.2-1.1-10.1-3.3c-5.8-4.2-8.4-11.4-6.6-18.4l11.2-43.2c2-7.6,8.9-13,16.8-13h5c7.9,0,14.8,5.3,16.8,13&#10;&#9;&#9;&#9;&#9;&#9;&#9;&#9;l11.2,43.2c1.8,7-0.8,14.2-6.6,18.4C671.5,420,668,421.1,664.3,421.1z" transform="matrix(1, 0, 0, 1, 0, 0)"/><path fill="#305675" d="M646.7,418.2c0,3.2-1.6,5.8-3.5,5.8c-1.9,0-7.2-2.6-7.2-5.8s5.3-5.8,7.2-5.8&#10;&#9;&#9;&#9;&#9;&#9;&#9;C645.2,412.5,646.7,415,646.7,418.2z" transform="matrix(1, 0, 0, 1, 0, 0)"/><path fill="#305675" d="M655.7,418.2c0,3.2,1.6,5.8,3.5,5.8s7.2-2.6,7.2-5.8s-5.3-5.8-7.2-5.8S655.7,415,655.7,418.2z" transform="matrix(1, 0, 0, 1, 0, 0)"/><path d="M 569.2000122070312 529.2000122070312 L 595.7999877929688 529.2000122070312 L 586.7999877929688 310.29998779296875 L 592.5 302.20001220703125 L 582.5 294.79998779296875 L 572.5 302.20001220703125 L 578.0999755859375 310.29998779296875 Z" fill="#305675" transform="matrix(1, 0, 0, 1, 0, 0)"/><g transform="matrix(1, 0, 0, 1, 0, 0)">
							<g>
								<g>
									<path fill="#381218" d="M560,197c-1.8,0-3.3-1.5-3.3-3.3v-4.3c0-1.8,1.5-3.3,3.3-3.3c1.8,0,3.3,1.5,3.3,3.3v4.3&#10;&#9;&#9;&#9;&#9;&#9;&#9;&#9;&#9;&#9;&#9;C563.3,195.5,561.8,197,560,197z"/>
								</g>
								<g>
									<path fill="#381218" d="M600.2,197c-1.8,0-3.3-1.5-3.3-3.3v-4.3c0-1.8,1.5-3.3,3.3-3.3c1.8,0,3.3,1.5,3.3,3.3v4.3&#10;&#9;&#9;&#9;&#9;&#9;&#9;&#9;&#9;&#9;&#9;C603.5,195.5,602,197,600.2,197z"/>
								</g>
							</g>
							<g>
								<path fill="#381218" d="M543.4,178.7c0,0,9.8-10.3,20.1-10.3l0.4,4.5C563.9,172.9,556.5,172.9,543.4,178.7z"/>
								<path fill="#381218" d="M616.8,178.7c0,0-9.8-10.3-20.1-10.3l-0.4,4.5C596.3,172.9,603.7,172.9,616.8,178.7z"/>
							</g>
							<path fill="#EF4136" d="M565.4,227.5h32.8C598.2,227.5,583.3,255.1,565.4,227.5z"/>
						</g><path d="M 255 231.199997 H 331.5 V 310.599998 H 255 V 231.199997 Z" fill="#F49B7F" transform="matrix(1, 0, 0, 1, 0, 0)"/><path fill="#F9AB90" d="M360.9,170.7c-4.6-6.5-9.9-2.6-12.9,0.8c-2.2-19.6-6.5-38.9-13.5-42.7c-12.9-7.1-41.1-7.1-41.1-7.1&#10;&#9;&#9;&#9;&#9;&#9;&#9;&#9;s-28.2,0-41.1,7.1c-7.1,3.9-11.3,23.1-13.5,42.7c-3-3.4-8.3-7.3-12.9-0.8c-5.9,8.3,4.6,24.6,11.1,28.3&#10;&#9;&#9;&#9;&#9;&#9;&#9;&#9;c-0.1,5.5,4.2,20.9,5.4,23.9c6.3,15.9,14.7,19.3,19.4,23.5c15.3,13.7,31.7,14.1,31.7,14.1s16.4-0.4,31.7-14.1&#10;&#9;&#9;&#9;&#9;&#9;&#9;&#9;c4.7-4.2,11.7-8,19.4-23.5c1.4-2.9,5.5-18.4,5.4-23.9C356.3,195.3,366.8,179,360.9,170.7z" transform="matrix(1, 0, 0, 1, 0, 0)"/><path fill="#763618" d="M241.4,186.1c0,0,1.5-20.7,4.5-32.3c3-11.6,10.1-22.9,14.3-22.9s10.9,8.6,31.2,10.1&#10;&#9;&#9;&#9;&#9;&#9;&#9;c20.3,1.5,38.7-3.4,41,0.4c2.3,3.8,3.8,9.8,8.3,19.9c4.5,10.1,7.1,29.7,7.1,29.7s5.3-35.3,5.3-45.5c0-10.1-1.5-27.1-19.2-39.1&#10;&#9;&#9;&#9;&#9;&#9;&#9;c-17.7-12-52.2-12.8-63.9-9.8c-11.6,3-16.5,13.2-16.5,13.2s-10.9,2.3-15.4,11.3c-4.5,9-5.3,32.3-3.8,41.3&#10;&#9;&#9;&#9;&#9;&#9;&#9;C235.8,171.5,241.4,186.1,241.4,186.1z" transform="matrix(1, 0, 0, 1, 0, 0)"/><path fill="#F49B7F" d="M165.1,529.2c-0.5-19.5-4.5-171.5,0-203.3c3.7-26.2,20.8-38.2,27.7-42.1v245.4H165.1z" transform="matrix(1, 0, 0, 1, 0, 0)"/><path fill="#F49B7F" d="M393.8,529.2V283.9c6.9,3.8,24,15.9,27.7,42.1c4.5,31.8,0.6,183.8,0,203.3H393.8z" transform="matrix(1, 0, 0, 1, 0, 0)"/><path fill="#017E82" d="M428.9,389.3c0-29.2-0.6-54.6-2.2-65.7c-4.8-33.8-30.8-44.7-31.9-45.2v0l-57.5-16.9l-44.5,41.1&#10;&#9;&#9;&#9;&#9;&#9;&#9;&#9;L250,261.5l-58.2,16.9l0,0c0,0-27,10.7-31.9,45.2c-1.6,11.1-2.2,36.5-2.2,65.7h34.1v140h203.1v-140H428.9z" transform="matrix(1, 0, 0, 1, 0, 0)"/><path d="M 239.1999969482422 264.6000061035156 L 292.5 317 L 349 264.8999938964844 L 337.3999938964844 261.5 L 292.8999938964844 302.6000061035156 L 250 261.5 Z" fill="#026868" transform="matrix(1, 0, 0, 1, 0, 0)"/><path fill="#FFFFFF" d="M374,344.2h-45.6c-2.9,0-5.3,2.4-5.3,5.3v26.9c0,2.9,2.4,5.3,5.3,5.3H374c2.9,0,5.3-2.4,5.3-5.3&#10;&#9;&#9;&#9;&#9;&#9;&#9;&#9;&#9;v-26.9C379.3,346.6,376.9,344.2,374,344.2z" transform="matrix(1, 0, 0, 1, 0, 0)"/><path d="M 328.399994 350.799988 H 344.599995 V 373.199987 H 328.399994 V 350.799988 Z" fill="#A9ACBA" transform="matrix(1, 0, 0, 1, 0, 0)"/><path d="M 346.399994 351 H 373.999994 V 353.5 H 346.399994 V 351 Z" fill="#A9ACBA" transform="matrix(1, 0, 0, 1, 0, 0)"/><path d="M 346.399994 358.299988 H 373.999994 V 360.799988 H 346.399994 V 358.299988 Z" fill="#A9ACBA" transform="matrix(1, 0, 0, 1, 0, 0)"/><path d="M 346.399994 365.5 H 373.999994 V 368 H 346.399994 V 365.5 Z" fill="#A9ACBA" transform="matrix(1, 0, 0, 1, 0, 0)"/><path fill="#A9ACBA" d="M351.2,334.6c-1.5,0-2.6,1.2-2.6,2.6v7.5c0,1.5,1.2,2.6,2.6,2.6c1.5,0,2.6-1.2,2.6-2.6v-7.5&#10;&#9;&#9;&#9;&#9;&#9;&#9;&#9;&#9;C353.8,335.8,352.7,334.6,351.2,334.6z" transform="matrix(1, 0, 0, 1, 0, 0)"/><g transform="matrix(1, 0, 0, 1, 0, 0)">
							<g>
								<g>
									<path fill="#381218" d="M273.2,197c-1.8,0-3.3-1.5-3.3-3.3v-4.3c0-1.8,1.5-3.3,3.3-3.3c1.8,0,3.3,1.5,3.3,3.3v4.3&#10;&#9;&#9;&#9;&#9;&#9;&#9;&#9;&#9;&#9;&#9;C276.5,195.5,275,197,273.2,197z"/>
								</g>
								<g>
									<path fill="#381218" d="M313.4,197c-1.8,0-3.3-1.5-3.3-3.3v-4.3c0-1.8,1.5-3.3,3.3-3.3c1.8,0,3.3,1.5,3.3,3.3v4.3&#10;&#9;&#9;&#9;&#9;&#9;&#9;&#9;&#9;&#9;&#9;C316.7,195.5,315.2,197,313.4,197z"/>
								</g>
							</g>
							<g>
								<path fill="#381218" d="M256.6,178.7c0,0,9.8-10.3,20.1-10.3l0.4,4.5C277.1,172.9,269.7,172.9,256.6,178.7z"/>
								<path fill="#381218" d="M330,178.7c0,0-9.8-10.3-20.1-10.3l-0.4,4.5C309.5,172.9,316.9,172.9,330,178.7z"/>
							</g>
						</g><path fill="#EF4136" d="M274.3,218.4h37.1c0,0-1.8,16.4-19.2,16.4C274.8,234.7,274.3,218.4,274.3,218.4z" transform="matrix(1, 0, 0, 1, 0, 0)"/><g transform="matrix(1, 0, 0, 1, 0, 0)">
						<path fill="#F49B7F" d="M1041.3,528V292.4c0,0-23.2,10-27.5,42.4c-4.2,32.1-0.1,190.1,0,193.1H1041.3z"/>
						<path fill="#F49B7F" d="M1237.3,528c0.1-3,4.2-161,0-193.1c-4.2-32.4-27.5-42.4-27.5-42.4V528H1237.3z"/>
					</g><path d="M 1092.599976 248.199997 H 1158.499977 V 333.899994 H 1092.599976 V 248.199997 Z" fill="#F49B7F" transform="matrix(1, 0, 0, 1, 0, 0)"/><path fill="#017E82" d="M1240.5,334.9c-4.2-32.1-27-42.2-27.5-42.4v0l-49.5-15.9l-39.1,43.9l-36.2-43.9l-50.1,15.9v0&#10;&#9;&#9;&#9;&#9;&#9;&#9;c-0.5,0.2-23.3,10.4-27.5,42.4c-1.5,11.6-1.9,39.5-1.9,70.6h29.3V528H1213V405.4h29.3C1242.4,374.3,1242,346.4,1240.5,334.9z" transform="matrix(1, 0, 0, 1, 0, 0)"/><path fill="#FFFFFF" d="M1198,343h-45.6c-2.9,0-5.3,2.4-5.3,5.3v26.9c0,2.9,2.4,5.3,5.3,5.3h45.6c2.9,0,5.3-2.4,5.3-5.3v-26.9&#10;&#9;&#9;&#9;&#9;&#9;&#9;&#9;C1203.2,345.3,1200.9,343,1198,343z" transform="matrix(1, 0, 0, 1, 0, 0)"/><path d="M 1152.300049 349.600006 H 1168.50005 V 372.000006 H 1152.300049 V 349.600006 Z" fill="#A9ACBA" transform="matrix(1, 0, 0, 1, 0, 0)"/><path d="M 1170.400024 349.799988 H 1198.000025 V 352.299988 H 1170.400024 V 349.799988 Z" fill="#A9ACBA" transform="matrix(1, 0, 0, 1, 0, 0)"/><path d="M 1170.400024 357 H 1198.000025 V 359.5 H 1170.400024 V 357 Z" fill="#A9ACBA" transform="matrix(1, 0, 0, 1, 0, 0)"/><path d="M 1170.400024 364.200012 H 1198.000025 V 366.700012 H 1170.400024 V 364.200012 Z" fill="#A9ACBA" transform="matrix(1, 0, 0, 1, 0, 0)"/><path fill="#A9ACBA" d="M1175.2,333.3c-1.5,0-2.6,1.2-2.6,2.6v7.5c0,1.5,1.2,2.6,2.6,2.6s2.6-1.2,2.6-2.6V336&#10;&#9;&#9;&#9;&#9;&#9;&#9;&#9;C1177.8,334.5,1176.6,333.3,1175.2,333.3z" transform="matrix(1, 0, 0, 1, 0, 0)"/><path d="M 1123.800048828125 333.79998779296875 L 1172.699951171875 279.70001220703125 L 1163 276.6000061035156 L 1123.9000244140625 320.5 L 1087.699951171875 276.6000061035156 L 1078.5 279.5 Z" fill="#026868" transform="matrix(1, 0, 0, 1, 0, 0)"/><path fill="#913A1F" d="M1106.9,354.3h-94.3c-6.6,0-12,5.4-12,12v151c0,6.6,5.4,12,12,12h94.3c6.6,0,12-5.4,12-12v-151&#10;&#9;&#9;&#9;&#9;&#9;&#9;C1118.9,359.6,1113.5,354.3,1106.9,354.3z" transform="matrix(1, 0, 0, 1, 0, 0)"/><path fill="#F49B7F" d="M996.8,429.3l14.8-5.4c3.1-1.1,6.3,1.1,6.3,4.4l0,0c0,1.9-1.1,3.6-2.8,4.3l-14.9,6.5&#10;&#9;&#9;&#9;&#9;&#9;&#9;c-3.2,1.4-6.8-1.1-6.6-4.6l0.1-1.1C993.8,431.6,995,429.9,996.8,429.3z" transform="matrix(1, 0, 0, 1, 0, 0)"/><path fill="#F49B7F" d="M996.8,441.1l17.4-6.3c3.1-1.1,6.3,1.1,6.3,4.4l0,0c0,1.9-1.1,3.6-2.8,4.3l-17.4,7.4&#10;&#9;&#9;&#9;&#9;&#9;&#9;c-3.2,1.4-6.8-1.1-6.6-4.6l0.1-1.1C993.8,443.4,995,441.8,996.8,441.1z" transform="matrix(1, 0, 0, 1, 0, 0)"/><path fill="#F49B7F" d="M996.8,452.9l17.4-6.3c3.1-1.1,6.3,1.1,6.3,4.4l0,0c0,1.9-1.1,3.6-2.8,4.3l-17.4,7.4&#10;&#9;&#9;&#9;&#9;&#9;&#9;c-3.2,1.4-6.8-1.1-6.6-4.6l0.1-1.1C993.8,455.1,995,453.5,996.8,452.9z" transform="matrix(1, 0, 0, 1, 0, 0)"/><path fill="#F49B7F" d="M997.4,464.4l12.9-4.7c2.7-1,5.5,1,5.5,3.9l0,0c0,1.6-1,3.1-2.5,3.8l-13,5.7c-2.8,1.2-5.9-0.9-5.8-4&#10;&#9;&#9;&#9;&#9;&#9;&#9;l0.1-1C994.8,466.4,995.8,465,997.4,464.4z" transform="matrix(1, 0, 0, 1, 0, 0)"/><g transform="matrix(1, 0, 0, 1, 0, 0)">
							<path fill="#F9AB90" d="M1186.1,187.7c-4.5-6.1-9-2.4-11.5,0.8c-2.9-18.2-7.4-35.4-13.6-38.7c-11.3-6.1-35.3-6.1-35.3-6.1&#10;&#9;&#9;&#9;&#9;&#9;&#9;&#9;&#9;s-24.1,0-35.3,6.1c-6.2,3.4-10.7,20.6-13.6,38.7c-2.5-3.2-7-6.9-11.5-0.8c-5.9,7.9,2.7,23.8,8.4,27.4&#10;&#9;&#9;&#9;&#9;&#9;&#9;&#9;&#9;c-0.4,5.5,6.8,35.9,21.4,49.8c8.2,7.8,16.1,11.3,22,15.4c5.2,3.6,12.1,3.6,17.4,0c6-4.1,14.6-6.8,22-15.4&#10;&#9;&#9;&#9;&#9;&#9;&#9;&#9;&#9;c14.5-16.9,21.8-44.3,21.4-49.8C1183.3,211.5,1191.9,195.6,1186.1,187.7z"/>
						</g><g transform="matrix(1, 0, 0, 1, 0, 0)">
								<g>
									<g>
										<path fill="#381218" d="M1107.6,213c-1.6,0-3-1.3-3-3v-3.8c0-1.6,1.3-3,3-3c1.6,0,3,1.3,3,3v3.8&#10;&#9;&#9;&#9;&#9;&#9;&#9;&#9;&#9;&#9;&#9;&#9;C1110.6,211.7,1109.2,213,1107.6,213z"/>
									</g>
									<g>
										<path fill="#381218" d="M1143.5,213c-1.6,0-3-1.3-3-3v-3.8c0-1.6,1.3-3,3-3c1.6,0,3,1.3,3,3v3.8&#10;&#9;&#9;&#9;&#9;&#9;&#9;&#9;&#9;&#9;&#9;&#9;C1146.5,211.7,1145.2,213,1143.5,213z"/>
									</g>
								</g>
								<g>
									<path fill="#381218" d="M1092.7,199.7c0,0,8.8-9.2,18-9.2l0.4,4C1111.1,194.6,1104.5,194.6,1092.7,199.7z"/>
									<path fill="#381218" d="M1158.4,199.7c0,0-8.8-9.2-18-9.2l-0.4,4C1140,194.6,1146.6,194.6,1158.4,199.7z"/>
								</g>
							</g><path fill="#017E82" d="M1084.1,250c0,0,38,27.8,82.3,0.1c0,0,2.9,0.8-3.2,4.7c-6,3.9-33.6,21.1-75.4,0.7&#10;&#9;&#9;&#9;&#9;&#9;&#9;&#9;c-1.3-0.6-2.4-1.4-3.3-2.5C1083.6,252,1083,250.7,1084.1,250z" transform="matrix(1, 0, 0, 1, 0, 0)"/><path fill="#017E82" d="M1081.7,224.9c2.2,9.7,7.7,30.9,15.9,39.3c0.6,0.6,1.3,0.9,2,1.1c5.9,0.9,34,4.7,55.1,0.2&#10;&#9;&#9;&#9;&#9;&#9;&#9;&#9;c1.1-0.2,2-1,2.5-2c2.3-4.9,9.2-20.3,12.2-38.2c0.4-2.4-1.4-4.6-3.8-4.4c-11.6,0.6-44.5,2-80.3-0.5&#10;&#9;&#9;&#9;&#9;&#9;&#9;&#9;C1083,220,1081.1,222.4,1081.7,224.9z" transform="matrix(1, 0, 0, 1, 0, 0)"/><path fill="#017E82" d="M1076.6,193.8c0,0,6.3,24,8,27.1c1.7,3.1-2.9,4-2.9,4S1074.7,205.5,1076.6,193.8z" transform="matrix(1, 0, 0, 1, 0, 0)"/><path fill="#017E82" d="M1174,193.8c0,0-6.3,24-8,27.1c-1.7,3.1,2.9,4,2.9,4S1175.9,205.5,1174,193.8z" transform="matrix(1, 0, 0, 1, 0, 0)"/><path fill="#381218" d="M1077.5,198.6c0,0,4.3-19.4,8.1-24.4c3.9-5,60.1-9.7,67.9-5.4c7.8,4.3,12.8,7,12.8,7l7.8,25.2&#10;&#9;&#9;&#9;&#9;&#9;&#9;&#9;c0,0,5.4-12.8,5.4-18.6s-16.7-33.7-51.2-33.7c-34.5,0-55.1,21.3-55.8,22.9c-0.8,1.6-0.8,12-0.8,12S1074.4,193.6,1077.5,198.6z&#10;&#9;&#9;&#9;&#9;&#9;&#9;&#9;" transform="matrix(1, 0, 0, 1, 0, 0)"/><path fill="#017E82" d="M1071.6,183.5c0,0,53.6-25.2,108.2,0.7c0,0,10.4-47.3-19-64.3c-34.1-19.7-75.6-7.4-85.7,15.5&#10;&#9;&#9;&#9;&#9;&#9;&#9;&#9;C1065.2,157.8,1071.6,183.5,1071.6,183.5z" transform="matrix(1, 0, 0, 1, 0, 0)"/><path d="M 94.800003 556 H 1305.200027 V 895.100006 H 94.800003 V 556 Z" fill="#F2E29B" transform="matrix(1, 0, 0, 1, 0, 0)"/><path fill="#FFF3B4" d="M1319.3,529.6H80.7c-6.3,0-11.4,5.1-11.4,11.4v22.9c0,6.3,5.1,11.4,11.4,11.4h1238.6&#10;&#9;&#9;&#9;&#9;c6.3,0,11.4-5.1,11.4-11.4V541C1330.7,534.7,1325.6,529.6,1319.3,529.6z" transform="matrix(1, 0, 0, 1, 0, 0)"/>
</svg>