<?xml version="1.0" encoding="utf-8"?>
<svg id="master-artboard" viewBox="0 0 1400 980" version="1.1" xmlns="http://www.w3.org/2000/svg" x="0px" y="0px" style="enable-background:new 0 0 1400 980;" width="1400px" height="980px">

<path d="M 568.0999755859375 448.79998779296875 L 853.2000122070312 82.9000015258789 L 933.9000244140625 163.60000610351562 L 933.9000244140625 490.8999938964844 L 610.2000122070312 490.8999938964844 L 568.0999755859375 448.79998779296875 Z" class="st6" style="fill-rule: evenodd; clip-rule: evenodd; fill: rgb(169, 165, 209); fill-opacity: 0.69;" transform="matrix(1, 0, 0, 1, 417.41169606672224, 1.2764915999404707)"/><path class="st9" d="M576.2,57.2h246.1c17.2,0,31.3,14.1,31.3,31.3v337c0,17.2-14.1,31.3-31.3,31.3H576.2&#10;&#9;&#9;c-17.2,0-31.3-14.1-31.3-31.3v-337C544.9,71.3,559,57.2,576.2,57.2L576.2,57.2z" style="fill-rule: evenodd; clip-rule: evenodd; fill: rgb(75, 73, 158); stroke: rgb(75, 73, 158); stroke-width: 0.5669; stroke-miterlimit: 22.9256; fill-opacity: 0.69;" transform="matrix(1, 0, 0, 1, 417.41169606672224, 1.2764915999404707)"/><path class="st10" d="M606.4,77.2h185.8c11.6,0,21.2,9.5,21.2,21.2v274.3c0,11.6-9.5,21.2-21.2,21.2H606.4&#10;&#9;&#9;c-11.6,0-21.2-9.5-21.2-21.2V98.3C585.2,86.7,594.8,77.2,606.4,77.2L606.4,77.2z" style="fill-rule: evenodd; clip-rule: evenodd; fill: rgb(255, 255, 255); stroke: rgb(135, 129, 189); stroke-width: 1.9199; stroke-miterlimit: 22.9256; fill-opacity: 0.69;" transform="matrix(1, 0, 0, 1, 417.41169606672224, 1.2764915999404707)"/><path d="M 686.7000122070312 105 L 804.2999877929688 105 L 804.2999877929688 107.69999694824219 L 686.7000122070312 107.69999694824219 L 686.7000122070312 105 Z" class="st11" style="fill-rule: evenodd; clip-rule: evenodd; fill: rgb(135, 129, 189); fill-opacity: 0.69;" transform="matrix(1, 0, 0, 1, 417.41169606672224, 1.2764915999404707)"/><path d="M 686.7000122070312 126.30000305175781 L 804.2999877929688 126.30000305175781 L 804.2999877929688 129.10000610351562 L 686.7000122070312 129.10000610351562 L 686.7000122070312 126.30000305175781 Z" class="st11" style="fill-rule: evenodd; clip-rule: evenodd; fill: rgb(135, 129, 189); fill-opacity: 0.69;" transform="matrix(1, 0, 0, 1, 417.41169606672224, 1.2764915999404707)"/><path d="M 594.2999877929688 153.1999969482422 L 804.2999877929688 153.1999969482422 L 804.2999877929688 155.89999389648438 L 594.2999877929688 155.89999389648438 L 594.2999877929688 153.1999969482422 Z" class="st11" style="fill-rule: evenodd; clip-rule: evenodd; fill: rgb(135, 129, 189); fill-opacity: 0.69;" transform="matrix(1, 0, 0, 1, 417.41169606672224, 1.2764915999404707)"/><path d="M 594.2999877929688 362.70001220703125 L 804.2999877929688 362.70001220703125 L 804.2999877929688 359.8999938964844 L 594.2999877929688 359.8999938964844 L 594.2999877929688 362.70001220703125 Z" class="st11" style="fill-rule: evenodd; clip-rule: evenodd; fill: rgb(135, 129, 189); fill-opacity: 0.69;" transform="matrix(1, 0, 0, 1, 417.41169606672224, 1.2764915999404707)"/><path d="M 627.2000122070312 93.19999694824219 L 644.4000244140625 93.19999694824219 L 644.4000244140625 107.80000305175781 L 659 107.80000305175781 L 659 125.0999984741211 L 644.4000244140625 125.0999984741211 L 644.4000244140625 139.6999969482422 L 627.2000122070312 139.6999969482422 L 627.2000122070312 125.0999984741211 L 612.5999755859375 125.0999984741211 L 612.5999755859375 107.80000305175781 L 627.2000122070312 107.80000305175781 L 627.2000122070312 93.19999694824219 Z" class="st8" style="fill-rule: evenodd; clip-rule: evenodd; fill: rgb(240, 81, 57); fill-opacity: 0.69;" transform="matrix(1, 0, 0, 1, 417.41169606672224, 1.2764915999404707)"/><path class="st12" d="M653.4,59.4h8v-8.2c0-7.4,6.1-13.5,13.5-13.5h48.6c7.4,0,13.5,6.1,13.5,13.5v8.2h8c7.4,0,13.5,6.1,13.5,13.5&#10;&#9;&#9;v13.5H639.9V72.9C639.9,65.5,646,59.4,653.4,59.4L653.4,59.4z" style="fill-rule: evenodd; clip-rule: evenodd; fill: rgb(34, 29, 84); stroke: rgb(34, 29, 84); stroke-width: 0.5669; stroke-miterlimit: 22.9256; fill-opacity: 0.69;" transform="matrix(1, 0, 0, 1, 417.41169606672224, 1.2764915999404707)"/>
</svg>