<?xml version="1.0" encoding="utf-8"?>
<svg id="master-artboard" viewBox="0 0 1200 1200" version="1.0" xmlns="http://www.w3.org/2000/svg" x="0px" y="0px" width="1200px" height="1200px" enable-background="new 0 0 1200 1200">

<g transform="matrix(0.547458291053772, 0, 0, 0.547458291053772, 548.5024955256936, 300.1547861342776)">
		<g>
			<g>
				<path fill="#9BD4DD" d="M357.9,528.7l202.9-117.2c8.2-4.7,20.6-5.3,27.7-1.1l309.9,178.9c7.1,4.1,6.2,11.3-2,16L693.6,722.5&#10;&#9;&#9;&#9;&#9;&#9;c-8.2,4.7-20.6,5.3-27.7,1.1L355.9,544.8C348.8,540.6,349.7,533.5,357.9,528.7z"/>
				<g>
					<g>
						<g>
							<g>
								<g>
									<g>
										<path fill="#414141" d="M365.8,530.7l298.6,172.4c6.9,4,18.8,3.5,26.7-1.1l195.6-112.9c4-2.3,6.2-5.2,6.5-8.1h0v11.4&#10;&#9;&#9;&#9;&#9;&#9;&#9;&#9;&#9;&#9;&#9;&#9;c0,0.4,0,0.8,0,1.1v0.1h0c-0.3,2.8-2.5,5.7-6.5,8L691.2,714.6c-7.9,4.6-19.9,5.1-26.7,1.1L365.8,543.3&#10;&#9;&#9;&#9;&#9;&#9;&#9;&#9;&#9;&#9;&#9;&#9;c-3.1-1.8-4.6-4.2-4.6-6.7h0v-12.2h0C361.4,526.8,362.9,529,365.8,530.7z"/>
									</g>
									<g>
										<path d="M447.5,469.2l-79.8,46.1c-7.9,4.6-8.8,11.5-1.9,15.4l298.6,172.4c6.9,4,18.8,3.5,26.7-1.1l79.8-46.1L447.5,469.2z&#10;&#9;&#9;&#9;&#9;&#9;&#9;&#9;&#9;&#9;&#9;&#9;"/>
										<path d="M770.9,656l115.8-66.8c7.9-4.6,8.8-11.5,1.9-15.4L590,401.3c-6.9-4-18.8-3.5-26.7,1.1l-115.8,66.8L770.9,656z"/>
										<g>
											<g>
												<path fill="#414141" d="M820.5,589.1l14.9,8.6c0.9,0.5,2.5,0.5,3.6-0.1l14.3-8.3c1.1-0.6,1.2-1.5,0.3-2.1l-14.9-8.6&#10;&#9;&#9;&#9;&#9;&#9;&#9;&#9;&#9;&#9;&#9;&#9;&#9;&#9;c-0.9-0.5-2.5-0.5-3.6,0.1l-14.3,8.3C819.7,587.6,819.6,588.6,820.5,589.1z"/>
												<path fill="#414141" d="M800.3,577.4l14.9,8.6c0.9,0.5,2.5,0.5,3.6-0.1l14.3-8.3c1.1-0.6,1.2-1.5,0.3-2.1l-14.9-8.6&#10;&#9;&#9;&#9;&#9;&#9;&#9;&#9;&#9;&#9;&#9;&#9;&#9;&#9;c-0.9-0.5-2.5-0.5-3.6,0.1l-14.3,8.3C799.5,576,799.4,576.9,800.3,577.4z"/>
												<path fill="#414141" d="M780.1,565.7l14.9,8.6c0.9,0.5,2.5,0.5,3.6-0.1l14.3-8.3c1.1-0.6,1.2-1.5,0.3-2.1l-14.9-8.6&#10;&#9;&#9;&#9;&#9;&#9;&#9;&#9;&#9;&#9;&#9;&#9;&#9;&#9;c-0.9-0.5-2.5-0.5-3.6,0.1l-14.3,8.3C779.3,564.3,779.1,565.2,780.1,565.7z"/>
												<path fill="#414141" d="M759.8,554.1l14.9,8.6c0.9,0.5,2.5,0.5,3.6-0.1l14.3-8.3c1.1-0.6,1.2-1.5,0.3-2.1l-14.9-8.6&#10;&#9;&#9;&#9;&#9;&#9;&#9;&#9;&#9;&#9;&#9;&#9;&#9;&#9;c-0.9-0.5-2.5-0.5-3.6,0.1l-14.3,8.3C759,552.6,758.9,553.5,759.8,554.1z"/>
												<path fill="#414141" d="M739.6,542.4l14.9,8.6c0.9,0.5,2.5,0.5,3.6-0.1l14.3-8.3c1.1-0.6,1.2-1.5,0.3-2.1l-14.9-8.6&#10;&#9;&#9;&#9;&#9;&#9;&#9;&#9;&#9;&#9;&#9;&#9;&#9;&#9;c-0.9-0.5-2.5-0.5-3.6,0.1l-14.3,8.3C738.8,540.9,738.7,541.9,739.6,542.4z"/>
												<path fill="#414141" d="M719.4,530.7l14.9,8.6c0.9,0.5,2.5,0.5,3.6-0.1l14.3-8.3c1.1-0.6,1.2-1.5,0.3-2.1l-14.9-8.6&#10;&#9;&#9;&#9;&#9;&#9;&#9;&#9;&#9;&#9;&#9;&#9;&#9;&#9;c-0.9-0.5-2.5-0.5-3.6,0.1l-14.3,8.3C718.6,529.3,718.5,530.2,719.4,530.7z"/>
												<path fill="#414141" d="M699.2,519l14.9,8.6c0.9,0.5,2.5,0.5,3.6-0.1l14.3-8.3c1.1-0.6,1.2-1.5,0.3-2.1l-14.9-8.6&#10;&#9;&#9;&#9;&#9;&#9;&#9;&#9;&#9;&#9;&#9;&#9;&#9;&#9;c-0.9-0.5-2.5-0.5-3.6,0.1l-14.3,8.3C698.4,517.6,698.3,518.5,699.2,519z"/>
												<path fill="#414141" d="M679,507.4l14.9,8.6c0.9,0.5,2.5,0.5,3.6-0.1l14.3-8.3c1.1-0.6,1.2-1.5,0.3-2.1l-14.9-8.6&#10;&#9;&#9;&#9;&#9;&#9;&#9;&#9;&#9;&#9;&#9;&#9;&#9;&#9;c-0.9-0.5-2.5-0.5-3.6,0.1l-14.3,8.3C678.2,505.9,678.1,506.8,679,507.4z"/>
												<path fill="#414141" d="M658.8,495.7l14.9,8.6c0.9,0.5,2.5,0.5,3.6-0.1l14.3-8.3c1.1-0.6,1.2-1.5,0.3-2.1l-14.9-8.6&#10;&#9;&#9;&#9;&#9;&#9;&#9;&#9;&#9;&#9;&#9;&#9;&#9;&#9;c-0.9-0.5-2.5-0.5-3.6,0.1l-14.3,8.3C658,494.3,657.8,495.2,658.8,495.7z"/>
												<path fill="#414141" d="M638.5,484l14.9,8.6c0.9,0.5,2.5,0.5,3.6-0.1l14.3-8.3c1.1-0.6,1.2-1.5,0.3-2.1l-14.9-8.6&#10;&#9;&#9;&#9;&#9;&#9;&#9;&#9;&#9;&#9;&#9;&#9;&#9;&#9;c-0.9-0.5-2.5-0.5-3.6,0.1l-14.3,8.3C637.7,482.6,637.6,483.5,638.5,484z"/>
												<path fill="#414141" d="M618.3,472.4l14.9,8.6c0.9,0.5,2.5,0.5,3.6-0.1l14.3-8.3c1.1-0.6,1.2-1.5,0.3-2.1l-14.9-8.6&#10;&#9;&#9;&#9;&#9;&#9;&#9;&#9;&#9;&#9;&#9;&#9;&#9;&#9;c-0.9-0.5-2.5-0.5-3.6,0.1l-14.3,8.3C617.5,470.9,617.4,471.8,618.3,472.4z"/>
												<path fill="#414141" d="M598.1,460.7l14.9,8.6c0.9,0.5,2.5,0.5,3.6-0.1l14.3-8.3c1.1-0.6,1.2-1.5,0.3-2.1l-14.9-8.6&#10;&#9;&#9;&#9;&#9;&#9;&#9;&#9;&#9;&#9;&#9;&#9;&#9;&#9;c-0.9-0.5-2.5-0.5-3.6,0.1l-14.3,8.3C597.3,459.2,597.2,460.2,598.1,460.7z"/>
												<path fill="#414141" d="M577.9,449l14.9,8.6c0.9,0.5,2.5,0.5,3.6-0.1l14.3-8.3c1.1-0.6,1.2-1.5,0.3-2.1l-14.9-8.6&#10;&#9;&#9;&#9;&#9;&#9;&#9;&#9;&#9;&#9;&#9;&#9;&#9;&#9;c-0.9-0.5-2.5-0.5-3.6,0.1l-14.3,8.3C577.1,447.6,577,448.5,577.9,449z"/>
												<path fill="#414141" d="M548.5,432.1l24.1,13.9c0.9,0.5,2.5,0.5,3.6-0.1l14.3-8.3c1.1-0.6,1.2-1.5,0.3-2.1l-24.1-13.9&#10;&#9;&#9;&#9;&#9;&#9;&#9;&#9;&#9;&#9;&#9;&#9;&#9;&#9;c-0.9-0.5-2.5-0.5-3.6,0.1l-14.3,8.3C547.7,430.6,547.6,431.5,548.5,432.1z"/>
											</g>
											<g>
												<path fill="#414141" d="M561.5,441.8l-14.9-8.6c-0.9-0.5-2.5-0.5-3.6,0.1l-14.3,8.3c-1.1,0.6-1.2,1.5-0.3,2.1l14.9,8.6&#10;&#9;&#9;&#9;&#9;&#9;&#9;&#9;&#9;&#9;&#9;&#9;&#9;&#9;c0.9,0.5,2.5,0.5,3.6-0.1l14.3-8.3C562.3,443.3,562.4,442.4,561.5,441.8z"/>
												<path fill="#414141" d="M581.7,453.5l-14.9-8.6c-0.9-0.5-2.5-0.5-3.6,0.1l-14.3,8.3c-1.1,0.6-1.2,1.5-0.3,2.1l14.9,8.6&#10;&#9;&#9;&#9;&#9;&#9;&#9;&#9;&#9;&#9;&#9;&#9;&#9;&#9;c0.9,0.5,2.5,0.5,3.6-0.1l14.3-8.3C582.5,454.9,582.7,454,581.7,453.5z"/>
												<path fill="#414141" d="M602,465.2l-14.9-8.6c-0.9-0.5-2.5-0.5-3.6,0.1l-14.3,8.3c-1.1,0.6-1.2,1.5-0.3,2.1l14.9,8.6&#10;&#9;&#9;&#9;&#9;&#9;&#9;&#9;&#9;&#9;&#9;&#9;&#9;&#9;c0.9,0.5,2.5,0.5,3.6-0.1l14.3-8.3C602.8,466.6,602.9,465.7,602,465.2z"/>
												<path fill="#414141" d="M622.2,476.8l-14.9-8.6c-0.9-0.5-2.5-0.5-3.6,0.1l-14.3,8.3c-1.1,0.6-1.2,1.5-0.3,2.1l14.9,8.6&#10;&#9;&#9;&#9;&#9;&#9;&#9;&#9;&#9;&#9;&#9;&#9;&#9;&#9;c0.9,0.5,2.5,0.5,3.6-0.1l14.3-8.3C623,478.3,623.1,477.4,622.2,476.8z"/>
												<path fill="#414141" d="M642.4,488.5l-14.9-8.6c-0.9-0.5-2.5-0.5-3.6,0.1l-14.3,8.3c-1.1,0.6-1.2,1.5-0.3,2.1l14.9,8.6&#10;&#9;&#9;&#9;&#9;&#9;&#9;&#9;&#9;&#9;&#9;&#9;&#9;&#9;c0.9,0.5,2.5,0.5,3.6-0.1l14.3-8.3C643.2,490,643.3,489,642.4,488.5z"/>
												<path fill="#414141" d="M662.6,500.2l-14.9-8.6c-0.9-0.5-2.5-0.5-3.6,0.1l-14.3,8.3c-1.1,0.6-1.2,1.5-0.3,2.1l14.9,8.6&#10;&#9;&#9;&#9;&#9;&#9;&#9;&#9;&#9;&#9;&#9;&#9;&#9;&#9;c0.9,0.5,2.5,0.5,3.6-0.1l14.3-8.3C663.4,501.6,663.5,500.7,662.6,500.2z"/>
												<path fill="#414141" d="M682.8,511.9l-14.9-8.6c-0.9-0.5-2.5-0.5-3.6,0.1l-14.3,8.3c-1.1,0.6-1.2,1.5-0.3,2.1l14.9,8.6&#10;&#9;&#9;&#9;&#9;&#9;&#9;&#9;&#9;&#9;&#9;&#9;&#9;&#9;c0.9,0.5,2.5,0.5,3.6-0.1l14.3-8.3C683.6,513.3,683.7,512.4,682.8,511.9z"/>
												<path fill="#414141" d="M703,523.5l-14.9-8.6c-0.9-0.5-2.5-0.5-3.6,0.1l-14.3,8.3c-1.1,0.6-1.2,1.5-0.3,2.1l14.9,8.6&#10;&#9;&#9;&#9;&#9;&#9;&#9;&#9;&#9;&#9;&#9;&#9;&#9;&#9;c0.9,0.5,2.5,0.5,3.6-0.1l14.3-8.3C703.8,525,704,524.1,703,523.5z"/>
												<path fill="#414141" d="M723.3,535.2l-14.9-8.6c-0.9-0.5-2.5-0.5-3.6,0.1l-14.3,8.3c-1.1,0.6-1.2,1.5-0.3,2.1l14.9,8.6&#10;&#9;&#9;&#9;&#9;&#9;&#9;&#9;&#9;&#9;&#9;&#9;&#9;&#9;c0.9,0.5,2.5,0.5,3.6-0.1l14.3-8.3C724.1,536.7,724.2,535.7,723.3,535.2z"/>
												<path fill="#414141" d="M743.5,546.9l-14.9-8.6c-0.9-0.5-2.5-0.5-3.6,0.1l-14.3,8.3c-1.1,0.6-1.2,1.5-0.3,2.1l14.9,8.6&#10;&#9;&#9;&#9;&#9;&#9;&#9;&#9;&#9;&#9;&#9;&#9;&#9;&#9;c0.9,0.5,2.5,0.5,3.6-0.2l14.3-8.3C744.3,548.3,744.4,547.4,743.5,546.9z"/>
												<path fill="#414141" d="M763.7,558.5l-14.9-8.6c-0.9-0.5-2.5-0.5-3.6,0.1l-14.3,8.3c-1.1,0.6-1.2,1.5-0.3,2.1l14.9,8.6&#10;&#9;&#9;&#9;&#9;&#9;&#9;&#9;&#9;&#9;&#9;&#9;&#9;&#9;c0.9,0.5,2.5,0.5,3.6-0.1l14.3-8.3C764.5,560,764.6,559.1,763.7,558.5z"/>
												<path fill="#414141" d="M783.9,570.2l-14.9-8.6c-0.9-0.5-2.5-0.5-3.6,0.1l-14.3,8.3c-1.1,0.6-1.2,1.5-0.3,2.1l14.9,8.6&#10;&#9;&#9;&#9;&#9;&#9;&#9;&#9;&#9;&#9;&#9;&#9;&#9;&#9;c0.9,0.5,2.5,0.5,3.6-0.1l14.3-8.3C784.7,571.7,784.8,570.7,783.9,570.2z"/>
												<path fill="#414141" d="M804.1,581.9l-14.9-8.6c-0.9-0.5-2.5-0.5-3.6,0.1l-14.3,8.3c-1.1,0.6-1.2,1.5-0.3,2.1l14.9,8.6&#10;&#9;&#9;&#9;&#9;&#9;&#9;&#9;&#9;&#9;&#9;&#9;&#9;&#9;c0.9,0.5,2.5,0.5,3.6-0.1l14.3-8.3C804.9,583.3,805,582.4,804.1,581.9z"/>
												<path fill="#414141" d="M833.5,598.8l-24.1-13.9c-0.9-0.5-2.5-0.5-3.6,0.1l-14.3,8.3c-1.1,0.6-1.2,1.5-0.3,2.1&#10;&#9;&#9;&#9;&#9;&#9;&#9;&#9;&#9;&#9;&#9;&#9;&#9;&#9;l24.1,13.9c0.9,0.5,2.5,0.5,3.6-0.1l14.3-8.3C834.3,600.3,834.4,599.4,833.5,598.8z"/>
											</g>
											<g>
												<path fill="#414141" d="M556,461.8l-29.5-17.1c-0.9-0.5-2.5-0.5-3.6,0.1l-14.3,8.3c-1.1,0.6-1.2,1.5-0.3,2.1l29.5,17.1&#10;&#9;&#9;&#9;&#9;&#9;&#9;&#9;&#9;&#9;&#9;&#9;&#9;&#9;c0.9,0.5,2.5,0.5,3.6-0.1l14.3-8.3C556.8,463.3,556.9,462.4,556,461.8z"/>
												<path fill="#414141" d="M813.2,610.3l-29.5-17.1c-0.9-0.5-2.5-0.5-3.6,0.1l-14.3,8.3c-1.1,0.6-1.2,1.5-0.3,2.1&#10;&#9;&#9;&#9;&#9;&#9;&#9;&#9;&#9;&#9;&#9;&#9;&#9;&#9;l29.5,17.1c0.9,0.5,2.5,0.5,3.6-0.2l14.3-8.3C814,611.8,814.1,610.9,813.2,610.3z"/>
												<path fill="#414141" d="M576.2,473.5l-14.9-8.6c-0.9-0.5-2.5-0.5-3.6,0.1l-14.3,8.3c-1.1,0.6-1.2,1.5-0.3,2.1l14.9,8.6&#10;&#9;&#9;&#9;&#9;&#9;&#9;&#9;&#9;&#9;&#9;&#9;&#9;&#9;c0.9,0.5,2.5,0.5,3.6-0.1l14.3-8.3C577,475,577.2,474,576.2,473.5z"/>
												<path fill="#414141" d="M596.5,485.2l-14.9-8.6c-0.9-0.5-2.5-0.5-3.6,0.1l-14.3,8.3c-1.1,0.6-1.2,1.5-0.3,2.1l14.9,8.6&#10;&#9;&#9;&#9;&#9;&#9;&#9;&#9;&#9;&#9;&#9;&#9;&#9;&#9;c0.9,0.5,2.5,0.5,3.6-0.1l14.3-8.3C597.3,486.6,597.4,485.7,596.5,485.2z"/>
												<path fill="#414141" d="M616.7,496.9l-14.9-8.6c-0.9-0.5-2.5-0.5-3.6,0.1l-14.3,8.3c-1.1,0.6-1.2,1.5-0.3,2.1l14.9,8.6&#10;&#9;&#9;&#9;&#9;&#9;&#9;&#9;&#9;&#9;&#9;&#9;&#9;&#9;c0.9,0.5,2.5,0.5,3.6-0.1l14.3-8.3C617.5,498.3,617.6,497.4,616.7,496.9z"/>
												<path fill="#414141" d="M636.9,508.5l-14.9-8.6c-0.9-0.5-2.5-0.5-3.6,0.1l-14.3,8.3c-1.1,0.6-1.2,1.5-0.3,2.1l14.9,8.6&#10;&#9;&#9;&#9;&#9;&#9;&#9;&#9;&#9;&#9;&#9;&#9;&#9;&#9;c0.9,0.5,2.5,0.5,3.6-0.1l14.3-8.3C637.7,510,637.8,509.1,636.9,508.5z"/>
												<path fill="#414141" d="M657.1,520.2l-14.9-8.6c-0.9-0.5-2.5-0.5-3.6,0.1l-14.3,8.3c-1.1,0.6-1.2,1.5-0.3,2.1l14.9,8.6&#10;&#9;&#9;&#9;&#9;&#9;&#9;&#9;&#9;&#9;&#9;&#9;&#9;&#9;c0.9,0.5,2.5,0.5,3.6-0.1l14.3-8.3C657.9,521.7,658,520.7,657.1,520.2z"/>
												<path fill="#414141" d="M677.3,531.9l-14.9-8.6c-0.9-0.5-2.5-0.5-3.6,0.1l-14.3,8.3c-1.1,0.6-1.2,1.5-0.3,2.1l14.9,8.6&#10;&#9;&#9;&#9;&#9;&#9;&#9;&#9;&#9;&#9;&#9;&#9;&#9;&#9;c0.9,0.5,2.5,0.5,3.6-0.1l14.3-8.3C678.1,533.3,678.2,532.4,677.3,531.9z"/>
												<path fill="#414141" d="M697.5,543.6l-14.9-8.6c-0.9-0.5-2.5-0.5-3.6,0.1l-14.3,8.3c-1.1,0.6-1.2,1.5-0.3,2.1l14.9,8.6&#10;&#9;&#9;&#9;&#9;&#9;&#9;&#9;&#9;&#9;&#9;&#9;&#9;&#9;c0.9,0.5,2.5,0.5,3.6-0.1l14.3-8.3C698.3,545,698.5,544.1,697.5,543.6z"/>
												<path fill="#414141" d="M717.8,555.2l-14.9-8.6c-0.9-0.5-2.5-0.5-3.6,0.1l-14.3,8.3c-1.1,0.6-1.2,1.5-0.3,2.1l14.9,8.6&#10;&#9;&#9;&#9;&#9;&#9;&#9;&#9;&#9;&#9;&#9;&#9;&#9;&#9;c0.9,0.5,2.5,0.5,3.6-0.1l14.3-8.3C718.6,556.7,718.7,555.8,717.8,555.2z"/>
												<path fill="#414141" d="M738,566.9l-14.9-8.6c-0.9-0.5-2.5-0.5-3.6,0.1l-14.3,8.3c-1.1,0.6-1.2,1.5-0.3,2.1l14.9,8.6&#10;&#9;&#9;&#9;&#9;&#9;&#9;&#9;&#9;&#9;&#9;&#9;&#9;&#9;c0.9,0.5,2.5,0.5,3.6-0.1l14.3-8.3C738.8,568.3,738.9,567.4,738,566.9z"/>
												<path fill="#414141" d="M758.2,578.6l-14.9-8.6c-0.9-0.5-2.5-0.5-3.6,0.1l-14.3,8.3c-1.1,0.6-1.2,1.5-0.3,2.1l14.9,8.6&#10;&#9;&#9;&#9;&#9;&#9;&#9;&#9;&#9;&#9;&#9;&#9;&#9;&#9;c0.9,0.5,2.5,0.5,3.6-0.1l14.3-8.3C759,580,759.1,579.1,758.2,578.6z"/>
												<path fill="#414141" d="M778.4,590.2l-14.9-8.6c-0.9-0.5-2.5-0.5-3.6,0.1l-14.3,8.3c-1.1,0.6-1.2,1.5-0.3,2.1l14.9,8.6&#10;&#9;&#9;&#9;&#9;&#9;&#9;&#9;&#9;&#9;&#9;&#9;&#9;&#9;c0.9,0.5,2.5,0.5,3.6-0.1l14.3-8.3C779.2,591.7,779.3,590.8,778.4,590.2z"/>
											</g>
											<g>
												<path fill="#414141" d="M546,479.2l-39.6-22.8c-0.9-0.5-2.5-0.5-3.6,0.1l-14.3,8.3c-1.1,0.6-1.2,1.5-0.3,2.1l39.6,22.8&#10;&#9;&#9;&#9;&#9;&#9;&#9;&#9;&#9;&#9;&#9;&#9;&#9;&#9;c0.9,0.5,2.5,0.5,3.6-0.1l14.3-8.3C546.8,480.7,546.9,479.8,546,479.2z"/>
												<path fill="#414141" d="M566.2,490.9l-14.9-8.6c-0.9-0.5-2.5-0.5-3.6,0.1l-14.3,8.3c-1.1,0.6-1.2,1.5-0.3,2.1l14.9,8.6&#10;&#9;&#9;&#9;&#9;&#9;&#9;&#9;&#9;&#9;&#9;&#9;&#9;&#9;c0.9,0.5,2.5,0.5,3.6-0.1l14.3-8.3C567,492.4,567.1,491.4,566.2,490.9z"/>
												<path fill="#414141" d="M586.4,502.6l-14.9-8.6c-0.9-0.5-2.5-0.5-3.6,0.1l-14.3,8.3c-1.1,0.6-1.2,1.5-0.3,2.1l14.9,8.6&#10;&#9;&#9;&#9;&#9;&#9;&#9;&#9;&#9;&#9;&#9;&#9;&#9;&#9;c0.9,0.5,2.5,0.5,3.6-0.1l14.3-8.3C587.2,504,587.3,503.1,586.4,502.6z"/>
												<path fill="#414141" d="M606.6,514.3l-14.9-8.6c-0.9-0.5-2.5-0.5-3.6,0.1l-14.3,8.3c-1.1,0.6-1.2,1.5-0.3,2.1l14.9,8.6&#10;&#9;&#9;&#9;&#9;&#9;&#9;&#9;&#9;&#9;&#9;&#9;&#9;&#9;c0.9,0.5,2.5,0.5,3.6-0.1l14.3-8.3C607.4,515.7,607.5,514.8,606.6,514.3z"/>
												<path fill="#414141" d="M626.8,525.9l-14.9-8.6c-0.9-0.5-2.5-0.5-3.6,0.1l-14.3,8.3c-1.1,0.6-1.2,1.5-0.3,2.1l14.9,8.6&#10;&#9;&#9;&#9;&#9;&#9;&#9;&#9;&#9;&#9;&#9;&#9;&#9;&#9;c0.9,0.5,2.5,0.5,3.6-0.1l14.3-8.3C627.6,527.4,627.8,526.5,626.8,525.9z"/>
												<path fill="#414141" d="M647.1,537.6l-14.9-8.6c-0.9-0.5-2.5-0.5-3.6,0.1l-14.3,8.3c-1.1,0.6-1.2,1.5-0.3,2.1l14.9,8.6&#10;&#9;&#9;&#9;&#9;&#9;&#9;&#9;&#9;&#9;&#9;&#9;&#9;&#9;c0.9,0.5,2.5,0.5,3.6-0.1l14.3-8.3C647.9,539.1,648,538.1,647.1,537.6z"/>
												<path fill="#414141" d="M667.3,549.3l-14.9-8.6c-0.9-0.5-2.5-0.5-3.6,0.1l-14.3,8.3c-1.1,0.6-1.2,1.5-0.3,2.1l14.9,8.6&#10;&#9;&#9;&#9;&#9;&#9;&#9;&#9;&#9;&#9;&#9;&#9;&#9;&#9;c0.9,0.5,2.5,0.5,3.6-0.1l14.3-8.3C668.1,550.7,668.2,549.8,667.3,549.3z"/>
												<path fill="#414141" d="M687.5,560.9l-14.9-8.6c-0.9-0.5-2.5-0.5-3.6,0.1l-14.3,8.3c-1.1,0.6-1.2,1.5-0.3,2.1l14.9,8.6&#10;&#9;&#9;&#9;&#9;&#9;&#9;&#9;&#9;&#9;&#9;&#9;&#9;&#9;c0.9,0.5,2.5,0.5,3.6-0.1l14.3-8.3C688.3,562.4,688.4,561.5,687.5,560.9z"/>
												<path fill="#414141" d="M707.7,572.6l-14.9-8.6c-0.9-0.5-2.5-0.5-3.6,0.1l-14.3,8.3c-1.1,0.6-1.2,1.5-0.3,2.1l14.9,8.6&#10;&#9;&#9;&#9;&#9;&#9;&#9;&#9;&#9;&#9;&#9;&#9;&#9;&#9;c0.9,0.5,2.5,0.5,3.6-0.1l14.3-8.3C708.5,574.1,708.6,573.1,707.7,572.6z"/>
												<path fill="#414141" d="M727.9,584.3l-14.9-8.6c-0.9-0.5-2.5-0.5-3.6,0.2l-14.3,8.3c-1.1,0.6-1.2,1.5-0.3,2.1l14.9,8.6&#10;&#9;&#9;&#9;&#9;&#9;&#9;&#9;&#9;&#9;&#9;&#9;&#9;&#9;c0.9,0.5,2.5,0.5,3.6-0.1l14.3-8.3C728.7,585.7,728.8,584.8,727.9,584.3z"/>
												<path fill="#414141" d="M748.1,596l-14.9-8.6c-0.9-0.5-2.5-0.5-3.6,0.1l-14.3,8.3c-1.1,0.6-1.2,1.5-0.3,2.1l14.9,8.6&#10;&#9;&#9;&#9;&#9;&#9;&#9;&#9;&#9;&#9;&#9;&#9;&#9;&#9;c0.9,0.5,2.5,0.5,3.6-0.1l14.3-8.3C748.9,597.4,749,596.5,748.1,596z"/>
												<path fill="#414141" d="M793.1,621.9L753.4,599c-0.9-0.5-2.5-0.5-3.6,0.1l-14.3,8.3c-1.1,0.6-1.2,1.5-0.3,2.1l39.7,22.9&#10;&#9;&#9;&#9;&#9;&#9;&#9;&#9;&#9;&#9;&#9;&#9;&#9;&#9;c0.9,0.5,2.5,0.5,3.6-0.1l14.3-8.3C793.9,623.4,794,622.5,793.1,621.9z"/>
											</g>
											<g>
												<path fill="#414141" d="M687.6,584.2l-95.8-55.3c-0.9-0.5-2.5-0.5-3.6,0.1l-14.3,8.3c-1.1,0.6-1.2,1.5-0.3,2.1&#10;&#9;&#9;&#9;&#9;&#9;&#9;&#9;&#9;&#9;&#9;&#9;&#9;&#9;l95.8,55.3c0.9,0.5,2.5,0.5,3.6-0.1l14.3-8.3C688.4,585.7,688.5,584.7,687.6,584.2z"/>
												<path fill="#414141" d="M561.9,511.6L547,503c-0.9-0.5-2.5-0.5-3.6,0.1l-14.3,8.3c-1.1,0.6-1.2,1.5-0.3,2.1l14.9,8.6&#10;&#9;&#9;&#9;&#9;&#9;&#9;&#9;&#9;&#9;&#9;&#9;&#9;&#9;c0.9,0.5,2.5,0.5,3.6-0.1l14.3-8.3C562.7,513.1,562.8,512.2,561.9,511.6z"/>
												<path fill="#414141" d="M586.5,525.9l-19.4-11.2c-0.9-0.5-2.5-0.5-3.6,0.1l-14.3,8.3c-1.1,0.6-1.2,1.5-0.3,2.1&#10;&#9;&#9;&#9;&#9;&#9;&#9;&#9;&#9;&#9;&#9;&#9;&#9;&#9;l19.4,11.2c0.9,0.5,2.5,0.5,3.6-0.1l14.3-8.3C587.3,527.3,587.4,526.4,586.5,525.9z"/>
												<path fill="#414141" d="M717.5,601.5l14.9,8.6c0.9,0.5,0.8,1.4-0.3,2.1l-14.3,8.3c-1.1,0.6-2.6,0.7-3.6,0.1l-14.9-8.6&#10;&#9;&#9;&#9;&#9;&#9;&#9;&#9;&#9;&#9;&#9;&#9;&#9;&#9;c-0.9-0.5-0.8-1.5,0.3-2.1l14.3-8.3C715,601,716.6,601,717.5,601.5z"/>
												<path fill="#414141" d="M692.9,587.3l19.4,11.2c0.9,0.5,0.8,1.5-0.3,2.1l-14.3,8.3c-1.1,0.6-2.7,0.7-3.6,0.1l-19.4-11.2&#10;&#9;&#9;&#9;&#9;&#9;&#9;&#9;&#9;&#9;&#9;&#9;&#9;&#9;c-0.9-0.5-0.8-1.5,0.3-2.1l14.3-8.3C690.4,586.8,692,586.7,692.9,587.3z"/>
												<path fill="#414141" d="M501.2,476.6l-14.9-8.6c-0.9-0.5-2.5-0.5-3.6,0.1l-14.3,8.3c-1.1,0.6-1.2,1.5-0.3,2.1l14.9,8.6&#10;&#9;&#9;&#9;&#9;&#9;&#9;&#9;&#9;&#9;&#9;&#9;&#9;&#9;c0.9,0.5,2.5,0.5,3.6-0.1l14.3-8.3C502,478.1,502.2,477.1,501.2,476.6z"/>
												<path fill="#414141" d="M521.5,488.3l-14.9-8.6c-0.9-0.5-2.5-0.5-3.6,0.1l-14.3,8.3c-1.1,0.6-1.2,1.5-0.3,2.1l14.9,8.6&#10;&#9;&#9;&#9;&#9;&#9;&#9;&#9;&#9;&#9;&#9;&#9;&#9;&#9;c0.9,0.5,2.5,0.5,3.6-0.1l14.3-8.3C522.3,489.7,522.4,488.8,521.5,488.3z"/>
												<path fill="#414141" d="M541.7,500l-14.9-8.6c-0.9-0.5-2.5-0.5-3.6,0.1l-14.3,8.3c-1.1,0.6-1.2,1.5-0.3,2.1l14.9,8.6&#10;&#9;&#9;&#9;&#9;&#9;&#9;&#9;&#9;&#9;&#9;&#9;&#9;&#9;c0.9,0.5,2.5,0.5,3.6-0.1l14.3-8.3C542.5,501.4,542.6,500.5,541.7,500z"/>
												<path fill="#414141" d="M773,633.5l-35.3-20.4c-0.9-0.5-2.5-0.5-3.6,0.1l-14.3,8.3c-1.1,0.6-1.2,1.5-0.3,2.1l35.3,20.4&#10;&#9;&#9;&#9;&#9;&#9;&#9;&#9;&#9;&#9;&#9;&#9;&#9;&#9;c0.9,0.5,2.5,0.5,3.6-0.1l14.3-8.3C773.8,635,773.9,634.1,773,633.5z"/>
											</g>
											<g>
												<path fill="#414141" d="M840.6,577.5l14.9,8.6c0.9,0.5,2.5,0.5,3.6-0.1l7.1-4.1c1.1-0.6,1.2-1.5,0.3-2.1l-14.9-8.6&#10;&#9;&#9;&#9;&#9;&#9;&#9;&#9;&#9;&#9;&#9;&#9;&#9;&#9;c-0.9-0.5-2.5-0.5-3.6,0.1l-7.1,4.1C839.8,576,839.7,577,840.6,577.5z"/>
												<path fill="#414141" d="M820.4,565.8l14.9,8.6c0.9,0.5,2.5,0.5,3.6-0.1l7.1-4.1c1.1-0.6,1.2-1.5,0.3-2.1l-14.9-8.6&#10;&#9;&#9;&#9;&#9;&#9;&#9;&#9;&#9;&#9;&#9;&#9;&#9;&#9;c-0.9-0.5-2.5-0.5-3.6,0.1l-7.1,4.1C819.6,564.4,819.4,565.3,820.4,565.8z"/>
												<path fill="#414141" d="M800.1,554.1l14.9,8.6c0.9,0.5,2.5,0.5,3.6-0.1l7.1-4.1c1.1-0.6,1.2-1.5,0.3-2.1l-14.9-8.6&#10;&#9;&#9;&#9;&#9;&#9;&#9;&#9;&#9;&#9;&#9;&#9;&#9;&#9;c-0.9-0.5-2.5-0.5-3.6,0.1l-7.1,4.1C799.3,552.7,799.2,553.6,800.1,554.1z"/>
												<path fill="#414141" d="M779.9,542.5l14.9,8.6c0.9,0.5,2.5,0.5,3.6-0.1l7.1-4.1c1.1-0.6,1.2-1.5,0.3-2.1l-14.9-8.6&#10;&#9;&#9;&#9;&#9;&#9;&#9;&#9;&#9;&#9;&#9;&#9;&#9;&#9;c-0.9-0.5-2.5-0.5-3.6,0.1l-7.1,4.1C779.1,541,779,541.9,779.9,542.5z"/>
												<path fill="#414141" d="M759.7,530.8l14.9,8.6c0.9,0.5,2.5,0.5,3.6-0.1l7.1-4.1c1.1-0.6,1.2-1.5,0.3-2.1l-14.9-8.6&#10;&#9;&#9;&#9;&#9;&#9;&#9;&#9;&#9;&#9;&#9;&#9;&#9;&#9;c-0.9-0.5-2.5-0.5-3.6,0.1l-7.1,4.1C758.9,529.3,758.8,530.3,759.7,530.8z"/>
												<path fill="#414141" d="M739.5,519.1l14.9,8.6c0.9,0.5,2.5,0.5,3.6-0.1l7.1-4.1c1.1-0.6,1.2-1.5,0.3-2.1l-14.9-8.6&#10;&#9;&#9;&#9;&#9;&#9;&#9;&#9;&#9;&#9;&#9;&#9;&#9;&#9;c-0.9-0.5-2.5-0.5-3.6,0.1l-7.1,4.1C738.7,517.7,738.6,518.6,739.5,519.1z"/>
												<path fill="#414141" d="M719.3,507.5l14.9,8.6c0.9,0.5,2.5,0.5,3.6-0.1l7.1-4.1c1.1-0.6,1.2-1.5,0.3-2.1l-14.9-8.6&#10;&#9;&#9;&#9;&#9;&#9;&#9;&#9;&#9;&#9;&#9;&#9;&#9;&#9;c-0.9-0.5-2.5-0.5-3.6,0.1l-7.1,4.1C718.5,506,718.4,506.9,719.3,507.5z"/>
												<path fill="#414141" d="M699.1,495.8l14.9,8.6c0.9,0.5,2.5,0.5,3.6-0.1l7.1-4.1c1.1-0.6,1.2-1.5,0.3-2.1l-14.9-8.6&#10;&#9;&#9;&#9;&#9;&#9;&#9;&#9;&#9;&#9;&#9;&#9;&#9;&#9;c-0.9-0.5-2.5-0.5-3.6,0.1l-7.1,4.1C698.3,494.3,698.1,495.2,699.1,495.8z"/>
												<path fill="#414141" d="M678.8,484.1l14.9,8.6c0.9,0.5,2.5,0.5,3.6-0.1l7.1-4.1c1.1-0.6,1.2-1.5,0.3-2.1l-14.9-8.6&#10;&#9;&#9;&#9;&#9;&#9;&#9;&#9;&#9;&#9;&#9;&#9;&#9;&#9;c-0.9-0.5-2.5-0.5-3.6,0.1l-7.1,4.1C678,482.7,677.9,483.6,678.8,484.1z"/>
												<path fill="#414141" d="M658.6,472.4l14.9,8.6c0.9,0.5,2.5,0.5,3.6-0.1l7.1-4.1c1.1-0.6,1.2-1.5,0.3-2.1l-14.9-8.6&#10;&#9;&#9;&#9;&#9;&#9;&#9;&#9;&#9;&#9;&#9;&#9;&#9;&#9;c-0.9-0.5-2.5-0.5-3.6,0.1l-7.1,4.1C657.8,471,657.7,471.9,658.6,472.4z"/>
												<path fill="#414141" d="M638.4,460.8l14.9,8.6c0.9,0.5,2.5,0.5,3.6-0.1l7.1-4.1c1.1-0.6,1.2-1.5,0.3-2.1l-14.9-8.6&#10;&#9;&#9;&#9;&#9;&#9;&#9;&#9;&#9;&#9;&#9;&#9;&#9;&#9;c-0.9-0.5-2.5-0.5-3.6,0.1l-7.1,4.1C637.6,459.3,637.5,460.2,638.4,460.8z"/>
												<path fill="#414141" d="M618.2,449.1l14.9,8.6c0.9,0.5,2.5,0.5,3.6-0.1l7.1-4.1c1.1-0.6,1.2-1.5,0.3-2.1l-14.9-8.6&#10;&#9;&#9;&#9;&#9;&#9;&#9;&#9;&#9;&#9;&#9;&#9;&#9;&#9;c-0.9-0.5-2.5-0.5-3.6,0.1l-7.1,4.1C617.4,447.6,617.3,448.6,618.2,449.1z"/>
												<path fill="#414141" d="M598,437.4l14.9,8.6c0.9,0.5,2.5,0.5,3.6-0.1l7.1-4.1c1.1-0.6,1.2-1.5,0.3-2.1l-14.9-8.6&#10;&#9;&#9;&#9;&#9;&#9;&#9;&#9;&#9;&#9;&#9;&#9;&#9;&#9;c-0.9-0.5-2.5-0.5-3.6,0.1l-7.1,4.1C597.2,436,597.1,436.9,598,437.4z"/>
												<path fill="#414141" d="M568.6,420.5l24.1,13.9c0.9,0.5,2.5,0.5,3.6-0.1l7.1-4.1c1.1-0.6,1.2-1.5,0.3-2.1l-24.1-13.9&#10;&#9;&#9;&#9;&#9;&#9;&#9;&#9;&#9;&#9;&#9;&#9;&#9;&#9;c-0.9-0.5-2.5-0.5-3.6,0.1l-7.1,4.1C567.8,419,567.7,419.9,568.6,420.5z"/>
											</g>
										</g>
										<g>
											<g>
												<path fill="#414141" d="M820.5,588.1l14.9,8.6c0.9,0.5,2.5,0.5,3.6-0.1l14.3-8.3c1.1-0.6,1.2-1.5,0.3-2.1l-14.9-8.6&#10;&#9;&#9;&#9;&#9;&#9;&#9;&#9;&#9;&#9;&#9;&#9;&#9;&#9;c-0.9-0.5-2.5-0.5-3.6,0.1l-14.3,8.3C819.7,586.6,819.6,587.5,820.5,588.1z"/>
												<path fill="#414141" d="M800.3,576.4l14.9,8.6c0.9,0.5,2.5,0.5,3.6-0.1l14.3-8.3c1.1-0.6,1.2-1.5,0.3-2.1l-14.9-8.6&#10;&#9;&#9;&#9;&#9;&#9;&#9;&#9;&#9;&#9;&#9;&#9;&#9;&#9;c-0.9-0.5-2.5-0.5-3.6,0.1l-14.3,8.3C799.5,575,799.4,575.9,800.3,576.4z"/>
												<path fill="#414141" d="M780.1,564.7l14.9,8.6c0.9,0.5,2.5,0.5,3.6-0.1l14.3-8.3c1.1-0.6,1.2-1.5,0.3-2.1l-14.9-8.6&#10;&#9;&#9;&#9;&#9;&#9;&#9;&#9;&#9;&#9;&#9;&#9;&#9;&#9;c-0.9-0.5-2.5-0.5-3.6,0.1l-14.3,8.3C779.3,563.3,779.1,564.2,780.1,564.7z"/>
												<path fill="#414141" d="M759.8,553.1l14.9,8.6c0.9,0.5,2.5,0.5,3.6-0.1l14.3-8.3c1.1-0.6,1.2-1.5,0.3-2.1l-14.9-8.6&#10;&#9;&#9;&#9;&#9;&#9;&#9;&#9;&#9;&#9;&#9;&#9;&#9;&#9;c-0.9-0.5-2.5-0.5-3.6,0.1l-14.3,8.3C759,551.6,758.9,552.5,759.8,553.1z"/>
												<path fill="#414141" d="M739.6,541.4l14.9,8.6c0.9,0.5,2.5,0.5,3.6-0.1l14.3-8.3c1.1-0.6,1.2-1.5,0.3-2.1l-14.9-8.6&#10;&#9;&#9;&#9;&#9;&#9;&#9;&#9;&#9;&#9;&#9;&#9;&#9;&#9;c-0.9-0.5-2.5-0.5-3.6,0.1l-14.3,8.3C738.8,539.9,738.7,540.9,739.6,541.4z"/>
												<path fill="#414141" d="M719.4,529.7l14.9,8.6c0.9,0.5,2.5,0.5,3.6-0.1l14.3-8.3c1.1-0.6,1.2-1.5,0.3-2.1l-14.9-8.6&#10;&#9;&#9;&#9;&#9;&#9;&#9;&#9;&#9;&#9;&#9;&#9;&#9;&#9;c-0.9-0.5-2.5-0.5-3.6,0.1l-14.3,8.3C718.6,528.3,718.5,529.2,719.4,529.7z"/>
												<path fill="#414141" d="M699.2,518l14.9,8.6c0.9,0.5,2.5,0.5,3.6-0.1l14.3-8.3c1.1-0.6,1.2-1.5,0.3-2.1l-14.9-8.6&#10;&#9;&#9;&#9;&#9;&#9;&#9;&#9;&#9;&#9;&#9;&#9;&#9;&#9;c-0.9-0.5-2.5-0.5-3.6,0.1l-14.3,8.3C698.4,516.6,698.3,517.5,699.2,518z"/>
												<path fill="#414141" d="M679,506.4l14.9,8.6c0.9,0.5,2.5,0.5,3.6-0.1l14.3-8.3c1.1-0.6,1.2-1.5,0.3-2.1l-14.9-8.6&#10;&#9;&#9;&#9;&#9;&#9;&#9;&#9;&#9;&#9;&#9;&#9;&#9;&#9;c-0.9-0.5-2.5-0.5-3.6,0.1l-14.3,8.3C678.2,504.9,678.1,505.8,679,506.4z"/>
												<path fill="#414141" d="M658.8,494.7l14.9,8.6c0.9,0.5,2.5,0.5,3.6-0.1l14.3-8.3c1.1-0.6,1.2-1.5,0.3-2.1l-14.9-8.6&#10;&#9;&#9;&#9;&#9;&#9;&#9;&#9;&#9;&#9;&#9;&#9;&#9;&#9;c-0.9-0.5-2.5-0.5-3.6,0.1l-14.3,8.3C658,493.2,657.8,494.2,658.8,494.7z"/>
												<path fill="#414141" d="M638.5,483l14.9,8.6c0.9,0.5,2.5,0.5,3.6-0.1l14.3-8.3c1.1-0.6,1.2-1.5,0.3-2.1l-14.9-8.6&#10;&#9;&#9;&#9;&#9;&#9;&#9;&#9;&#9;&#9;&#9;&#9;&#9;&#9;c-0.9-0.5-2.5-0.5-3.6,0.1l-14.3,8.3C637.7,481.6,637.6,482.5,638.5,483z"/>
												<path fill="#414141" d="M618.3,471.4l14.9,8.6c0.9,0.5,2.5,0.5,3.6-0.1l14.3-8.3c1.1-0.6,1.2-1.5,0.3-2.1l-14.9-8.6&#10;&#9;&#9;&#9;&#9;&#9;&#9;&#9;&#9;&#9;&#9;&#9;&#9;&#9;c-0.9-0.5-2.5-0.5-3.6,0.1l-14.3,8.3C617.5,469.9,617.4,470.8,618.3,471.4z"/>
												<path fill="#414141" d="M598.1,459.7l14.9,8.6c0.9,0.5,2.5,0.5,3.6-0.1l14.3-8.3c1.1-0.6,1.2-1.5,0.3-2.1l-14.9-8.6&#10;&#9;&#9;&#9;&#9;&#9;&#9;&#9;&#9;&#9;&#9;&#9;&#9;&#9;c-0.9-0.5-2.5-0.5-3.6,0.1l-14.3,8.3C597.3,458.2,597.2,459.2,598.1,459.7z"/>
												<path fill="#414141" d="M577.9,448l14.9,8.6c0.9,0.5,2.5,0.5,3.6-0.1l14.3-8.3c1.1-0.6,1.2-1.5,0.3-2.1l-14.9-8.6&#10;&#9;&#9;&#9;&#9;&#9;&#9;&#9;&#9;&#9;&#9;&#9;&#9;&#9;c-0.9-0.5-2.5-0.5-3.6,0.1l-14.3,8.3C577.1,446.6,577,447.5,577.9,448z"/>
												<path fill="#414141" d="M548.5,431.1l24.1,13.9c0.9,0.5,2.5,0.5,3.6-0.1l14.3-8.3c1.1-0.6,1.2-1.5,0.3-2.1l-24.1-13.9&#10;&#9;&#9;&#9;&#9;&#9;&#9;&#9;&#9;&#9;&#9;&#9;&#9;&#9;c-0.9-0.5-2.5-0.5-3.6,0.1l-14.3,8.3C547.7,429.6,547.6,430.5,548.5,431.1z"/>
											</g>
											<g>
												<path fill="#414141" d="M561.5,440.8l-14.9-8.6c-0.9-0.5-2.5-0.5-3.6,0.1l-14.3,8.3c-1.1,0.6-1.2,1.5-0.3,2.1l14.9,8.6&#10;&#9;&#9;&#9;&#9;&#9;&#9;&#9;&#9;&#9;&#9;&#9;&#9;&#9;c0.9,0.5,2.5,0.5,3.6-0.1l14.3-8.3C562.3,442.3,562.4,441.3,561.5,440.8z"/>
												<path fill="#414141" d="M581.7,452.5l-14.9-8.6c-0.9-0.5-2.5-0.5-3.6,0.1l-14.3,8.3c-1.1,0.6-1.2,1.5-0.3,2.1l14.9,8.6&#10;&#9;&#9;&#9;&#9;&#9;&#9;&#9;&#9;&#9;&#9;&#9;&#9;&#9;c0.9,0.5,2.5,0.5,3.6-0.1l14.3-8.3C582.5,453.9,582.7,453,581.7,452.5z"/>
												<path fill="#414141" d="M602,464.2l-14.9-8.6c-0.9-0.5-2.5-0.5-3.6,0.1l-14.3,8.3c-1.1,0.6-1.2,1.5-0.3,2.1l14.9,8.6&#10;&#9;&#9;&#9;&#9;&#9;&#9;&#9;&#9;&#9;&#9;&#9;&#9;&#9;c0.9,0.5,2.5,0.5,3.6-0.1l14.3-8.3C602.8,465.6,602.9,464.7,602,464.2z"/>
												<path fill="#414141" d="M622.2,475.8l-14.9-8.6c-0.9-0.5-2.5-0.5-3.6,0.1l-14.3,8.3c-1.1,0.6-1.2,1.5-0.3,2.1l14.9,8.6&#10;&#9;&#9;&#9;&#9;&#9;&#9;&#9;&#9;&#9;&#9;&#9;&#9;&#9;c0.9,0.5,2.5,0.5,3.6-0.1l14.3-8.3C623,477.3,623.1,476.4,622.2,475.8z"/>
												<path fill="#414141" d="M642.4,487.5l-14.9-8.6c-0.9-0.5-2.5-0.5-3.6,0.1l-14.3,8.3c-1.1,0.6-1.2,1.5-0.3,2.1l14.9,8.6&#10;&#9;&#9;&#9;&#9;&#9;&#9;&#9;&#9;&#9;&#9;&#9;&#9;&#9;c0.9,0.5,2.5,0.5,3.6-0.1l14.3-8.3C643.2,489,643.3,488,642.4,487.5z"/>
												<path fill="#414141" d="M662.6,499.2l-14.9-8.6c-0.9-0.5-2.5-0.5-3.6,0.1l-14.3,8.3c-1.1,0.6-1.2,1.5-0.3,2.1l14.9,8.6&#10;&#9;&#9;&#9;&#9;&#9;&#9;&#9;&#9;&#9;&#9;&#9;&#9;&#9;c0.9,0.5,2.5,0.5,3.6-0.1l14.3-8.3C663.4,500.6,663.5,499.7,662.6,499.2z"/>
												<path fill="#414141" d="M682.8,510.8l-14.9-8.6c-0.9-0.5-2.5-0.5-3.6,0.1l-14.3,8.3c-1.1,0.6-1.2,1.5-0.3,2.1l14.9,8.6&#10;&#9;&#9;&#9;&#9;&#9;&#9;&#9;&#9;&#9;&#9;&#9;&#9;&#9;c0.9,0.5,2.5,0.5,3.6-0.1l14.3-8.3C683.6,512.3,683.7,511.4,682.8,510.8z"/>
												<path fill="#414141" d="M703,522.5l-14.9-8.6c-0.9-0.5-2.5-0.5-3.6,0.1l-14.3,8.3c-1.1,0.6-1.2,1.5-0.3,2.1l14.9,8.6&#10;&#9;&#9;&#9;&#9;&#9;&#9;&#9;&#9;&#9;&#9;&#9;&#9;&#9;c0.9,0.5,2.5,0.5,3.6-0.1l14.3-8.3C703.8,524,704,523,703,522.5z"/>
												<path fill="#414141" d="M723.3,534.2l-14.9-8.6c-0.9-0.5-2.5-0.5-3.6,0.1l-14.3,8.3c-1.1,0.6-1.2,1.5-0.3,2.1l14.9,8.6&#10;&#9;&#9;&#9;&#9;&#9;&#9;&#9;&#9;&#9;&#9;&#9;&#9;&#9;c0.9,0.5,2.5,0.5,3.6-0.1l14.3-8.3C724.1,535.6,724.2,534.7,723.3,534.2z"/>
												<path fill="#414141" d="M743.5,545.9l-14.9-8.6c-0.9-0.5-2.5-0.5-3.6,0.1l-14.3,8.3c-1.1,0.6-1.2,1.5-0.3,2.1l14.9,8.6&#10;&#9;&#9;&#9;&#9;&#9;&#9;&#9;&#9;&#9;&#9;&#9;&#9;&#9;c0.9,0.5,2.5,0.5,3.6-0.1l14.3-8.3C744.3,547.3,744.4,546.4,743.5,545.9z"/>
												<path fill="#414141" d="M763.7,557.5l-14.9-8.6c-0.9-0.5-2.5-0.5-3.6,0.1l-14.3,8.3c-1.1,0.6-1.2,1.5-0.3,2.1l14.9,8.6&#10;&#9;&#9;&#9;&#9;&#9;&#9;&#9;&#9;&#9;&#9;&#9;&#9;&#9;c0.9,0.5,2.5,0.5,3.6-0.1l14.3-8.3C764.5,559,764.6,558.1,763.7,557.5z"/>
												<path fill="#414141" d="M783.9,569.2l-14.9-8.6c-0.9-0.5-2.5-0.5-3.6,0.1l-14.3,8.3c-1.1,0.6-1.2,1.5-0.3,2.1l14.9,8.6&#10;&#9;&#9;&#9;&#9;&#9;&#9;&#9;&#9;&#9;&#9;&#9;&#9;&#9;c0.9,0.5,2.5,0.5,3.6-0.2l14.3-8.3C784.7,570.7,784.8,569.7,783.9,569.2z"/>
												<path fill="#414141" d="M804.1,580.9l-14.9-8.6c-0.9-0.5-2.5-0.5-3.6,0.1l-14.3,8.3c-1.1,0.6-1.2,1.5-0.3,2.1l14.9,8.6&#10;&#9;&#9;&#9;&#9;&#9;&#9;&#9;&#9;&#9;&#9;&#9;&#9;&#9;c0.9,0.5,2.5,0.5,3.6-0.1l14.3-8.3C804.9,582.3,805,581.4,804.1,580.9z"/>
												<path fill="#414141" d="M833.5,597.8l-24.1-13.9c-0.9-0.5-2.5-0.5-3.6,0.1l-14.3,8.3c-1.1,0.6-1.2,1.5-0.3,2.1&#10;&#9;&#9;&#9;&#9;&#9;&#9;&#9;&#9;&#9;&#9;&#9;&#9;&#9;l24.1,13.9c0.9,0.5,2.5,0.5,3.6-0.1l14.3-8.3C834.3,599.3,834.4,598.4,833.5,597.8z"/>
											</g>
											<g>
												<path fill="#414141" d="M556,460.8l-29.5-17.1c-0.9-0.5-2.5-0.5-3.6,0.1l-14.3,8.3c-1.1,0.6-1.2,1.5-0.3,2.1l29.5,17.1&#10;&#9;&#9;&#9;&#9;&#9;&#9;&#9;&#9;&#9;&#9;&#9;&#9;&#9;c0.9,0.5,2.5,0.5,3.6-0.1l14.3-8.3C556.8,462.3,556.9,461.4,556,460.8z"/>
												<path fill="#414141" d="M813.2,609.3l-29.5-17.1c-0.9-0.5-2.5-0.5-3.6,0.1l-14.3,8.3c-1.1,0.6-1.2,1.5-0.3,2.1&#10;&#9;&#9;&#9;&#9;&#9;&#9;&#9;&#9;&#9;&#9;&#9;&#9;&#9;l29.5,17.1c0.9,0.5,2.5,0.5,3.6-0.2l14.3-8.3C814,610.8,814.1,609.9,813.2,609.3z"/>
												<path fill="#414141" d="M576.2,472.5l-14.9-8.6c-0.9-0.5-2.5-0.5-3.6,0.1l-14.3,8.3c-1.1,0.6-1.2,1.5-0.3,2.1l14.9,8.6&#10;&#9;&#9;&#9;&#9;&#9;&#9;&#9;&#9;&#9;&#9;&#9;&#9;&#9;c0.9,0.5,2.5,0.5,3.6-0.1l14.3-8.3C577,474,577.2,473,576.2,472.5z"/>
												<path fill="#414141" d="M596.5,484.2l-14.9-8.6c-0.9-0.5-2.5-0.5-3.6,0.1l-14.3,8.3c-1.1,0.6-1.2,1.5-0.3,2.1l14.9,8.6&#10;&#9;&#9;&#9;&#9;&#9;&#9;&#9;&#9;&#9;&#9;&#9;&#9;&#9;c0.9,0.5,2.5,0.5,3.6-0.1l14.3-8.3C597.3,485.6,597.4,484.7,596.5,484.2z"/>
												<path fill="#414141" d="M616.7,495.9l-14.9-8.6c-0.9-0.5-2.5-0.5-3.6,0.1l-14.3,8.3c-1.1,0.6-1.2,1.5-0.3,2.1l14.9,8.6&#10;&#9;&#9;&#9;&#9;&#9;&#9;&#9;&#9;&#9;&#9;&#9;&#9;&#9;c0.9,0.5,2.5,0.5,3.6-0.1l14.3-8.3C617.5,497.3,617.6,496.4,616.7,495.9z"/>
												<path fill="#414141" d="M636.9,507.5l-14.9-8.6c-0.9-0.5-2.5-0.5-3.6,0.1l-14.3,8.3c-1.1,0.6-1.2,1.5-0.3,2.1l14.9,8.6&#10;&#9;&#9;&#9;&#9;&#9;&#9;&#9;&#9;&#9;&#9;&#9;&#9;&#9;c0.9,0.5,2.5,0.5,3.6-0.1l14.3-8.3C637.7,509,637.8,508.1,636.9,507.5z"/>
												<path fill="#414141" d="M657.1,519.2l-14.9-8.6c-0.9-0.5-2.5-0.5-3.6,0.1l-14.3,8.3c-1.1,0.6-1.2,1.5-0.3,2.1l14.9,8.6&#10;&#9;&#9;&#9;&#9;&#9;&#9;&#9;&#9;&#9;&#9;&#9;&#9;&#9;c0.9,0.5,2.5,0.5,3.6-0.1l14.3-8.3C657.9,520.6,658,519.7,657.1,519.2z"/>
												<path fill="#414141" d="M677.3,530.9l-14.9-8.6c-0.9-0.5-2.5-0.5-3.6,0.1l-14.3,8.3c-1.1,0.6-1.2,1.5-0.3,2.1l14.9,8.6&#10;&#9;&#9;&#9;&#9;&#9;&#9;&#9;&#9;&#9;&#9;&#9;&#9;&#9;c0.9,0.5,2.5,0.5,3.6-0.1l14.3-8.3C678.1,532.3,678.2,531.4,677.3,530.9z"/>
												<path fill="#414141" d="M697.5,542.5l-14.9-8.6c-0.9-0.5-2.5-0.5-3.6,0.1l-14.3,8.3c-1.1,0.6-1.2,1.5-0.3,2.1l14.9,8.6&#10;&#9;&#9;&#9;&#9;&#9;&#9;&#9;&#9;&#9;&#9;&#9;&#9;&#9;c0.9,0.5,2.5,0.5,3.6-0.1l14.3-8.3C698.3,544,698.5,543.1,697.5,542.5z"/>
												<path fill="#414141" d="M717.8,554.2l-14.9-8.6c-0.9-0.5-2.5-0.5-3.6,0.1l-14.3,8.3c-1.1,0.6-1.2,1.5-0.3,2.1l14.9,8.6&#10;&#9;&#9;&#9;&#9;&#9;&#9;&#9;&#9;&#9;&#9;&#9;&#9;&#9;c0.9,0.5,2.5,0.5,3.6-0.1l14.3-8.3C718.6,555.7,718.7,554.7,717.8,554.2z"/>
												<path fill="#414141" d="M738,565.9l-14.9-8.6c-0.9-0.5-2.5-0.5-3.6,0.1l-14.3,8.3c-1.1,0.6-1.2,1.5-0.3,2.1l14.9,8.6&#10;&#9;&#9;&#9;&#9;&#9;&#9;&#9;&#9;&#9;&#9;&#9;&#9;&#9;c0.9,0.5,2.5,0.5,3.6-0.1l14.3-8.3C738.8,567.3,738.9,566.4,738,565.9z"/>
												<path fill="#414141" d="M758.2,577.6l-14.9-8.6c-0.9-0.5-2.5-0.5-3.6,0.1l-14.3,8.3c-1.1,0.6-1.2,1.5-0.3,2.1l14.9,8.6&#10;&#9;&#9;&#9;&#9;&#9;&#9;&#9;&#9;&#9;&#9;&#9;&#9;&#9;c0.9,0.5,2.5,0.5,3.6-0.1l14.3-8.3C759,579,759.1,578.1,758.2,577.6z"/>
												<path fill="#414141" d="M778.4,589.2l-14.9-8.6c-0.9-0.5-2.5-0.5-3.6,0.1l-14.3,8.3c-1.1,0.6-1.2,1.5-0.3,2.1l14.9,8.6&#10;&#9;&#9;&#9;&#9;&#9;&#9;&#9;&#9;&#9;&#9;&#9;&#9;&#9;c0.9,0.5,2.5,0.5,3.6-0.1l14.3-8.3C779.2,590.7,779.3,589.8,778.4,589.2z"/>
											</g>
											<g>
												<path fill="#414141" d="M546,478.2l-39.6-22.8c-0.9-0.5-2.5-0.5-3.6,0.1l-14.3,8.3c-1.1,0.6-1.2,1.5-0.3,2.1l39.6,22.8&#10;&#9;&#9;&#9;&#9;&#9;&#9;&#9;&#9;&#9;&#9;&#9;&#9;&#9;c0.9,0.5,2.5,0.5,3.6-0.1l14.3-8.3C546.8,479.7,546.9,478.8,546,478.2z"/>
												<path fill="#414141" d="M566.2,489.9l-14.9-8.6c-0.9-0.5-2.5-0.5-3.6,0.1l-14.3,8.3c-1.1,0.6-1.2,1.5-0.3,2.1l14.9,8.6&#10;&#9;&#9;&#9;&#9;&#9;&#9;&#9;&#9;&#9;&#9;&#9;&#9;&#9;c0.9,0.5,2.5,0.5,3.6-0.1l14.3-8.3C567,491.4,567.1,490.4,566.2,489.9z"/>
												<path fill="#414141" d="M586.4,501.6l-14.9-8.6c-0.9-0.5-2.5-0.5-3.6,0.1l-14.3,8.3c-1.1,0.6-1.2,1.5-0.3,2.1l14.9,8.6&#10;&#9;&#9;&#9;&#9;&#9;&#9;&#9;&#9;&#9;&#9;&#9;&#9;&#9;c0.9,0.5,2.5,0.5,3.6-0.1l14.3-8.3C587.2,503,587.3,502.1,586.4,501.6z"/>
												<path fill="#414141" d="M606.6,513.3l-14.9-8.6c-0.9-0.5-2.5-0.5-3.6,0.1l-14.3,8.3c-1.1,0.6-1.2,1.5-0.3,2.1l14.9,8.6&#10;&#9;&#9;&#9;&#9;&#9;&#9;&#9;&#9;&#9;&#9;&#9;&#9;&#9;c0.9,0.5,2.5,0.5,3.6-0.1l14.3-8.3C607.4,514.7,607.5,513.8,606.6,513.3z"/>
												<path fill="#414141" d="M626.8,524.9l-14.9-8.6c-0.9-0.5-2.5-0.5-3.6,0.1l-14.3,8.3c-1.1,0.6-1.2,1.5-0.3,2.1l14.9,8.6&#10;&#9;&#9;&#9;&#9;&#9;&#9;&#9;&#9;&#9;&#9;&#9;&#9;&#9;c0.9,0.5,2.5,0.5,3.6-0.1l14.3-8.3C627.6,526.4,627.8,525.4,626.8,524.9z"/>
												<path fill="#414141" d="M647.1,536.6l-14.9-8.6c-0.9-0.5-2.5-0.5-3.6,0.1l-14.3,8.3c-1.1,0.6-1.2,1.5-0.3,2.1l14.9,8.6&#10;&#9;&#9;&#9;&#9;&#9;&#9;&#9;&#9;&#9;&#9;&#9;&#9;&#9;c0.9,0.5,2.5,0.5,3.6-0.1l14.3-8.3C647.9,538,648,537.1,647.1,536.6z"/>
												<path fill="#414141" d="M667.3,548.3l-14.9-8.6c-0.9-0.5-2.5-0.5-3.6,0.1l-14.3,8.3c-1.1,0.6-1.2,1.5-0.3,2.1l14.9,8.6&#10;&#9;&#9;&#9;&#9;&#9;&#9;&#9;&#9;&#9;&#9;&#9;&#9;&#9;c0.9,0.5,2.5,0.5,3.6-0.1l14.3-8.3C668.1,549.7,668.2,548.8,667.3,548.3z"/>
												<path fill="#414141" d="M687.5,559.9l-14.9-8.6c-0.9-0.5-2.5-0.5-3.6,0.1l-14.3,8.3c-1.1,0.6-1.2,1.5-0.3,2.1l14.9,8.6&#10;&#9;&#9;&#9;&#9;&#9;&#9;&#9;&#9;&#9;&#9;&#9;&#9;&#9;c0.9,0.5,2.5,0.5,3.6-0.1l14.3-8.3C688.3,561.4,688.4,560.5,687.5,559.9z"/>
												<path fill="#414141" d="M707.7,571.6l-14.9-8.6c-0.9-0.5-2.5-0.5-3.6,0.1l-14.3,8.3c-1.1,0.6-1.2,1.5-0.3,2.1l14.9,8.6&#10;&#9;&#9;&#9;&#9;&#9;&#9;&#9;&#9;&#9;&#9;&#9;&#9;&#9;c0.9,0.5,2.5,0.5,3.6-0.1l14.3-8.3C708.5,573.1,708.6,572.1,707.7,571.6z"/>
												<path fill="#414141" d="M727.9,583.3l-14.9-8.6c-0.9-0.5-2.5-0.5-3.6,0.1l-14.3,8.3c-1.1,0.6-1.2,1.5-0.3,2.1l14.9,8.6&#10;&#9;&#9;&#9;&#9;&#9;&#9;&#9;&#9;&#9;&#9;&#9;&#9;&#9;c0.9,0.5,2.5,0.5,3.6-0.1l14.3-8.3C728.7,584.7,728.8,583.8,727.9,583.3z"/>
												<path fill="#414141" d="M748.1,595l-14.9-8.6c-0.9-0.5-2.5-0.5-3.6,0.1l-14.3,8.3c-1.1,0.6-1.2,1.5-0.3,2.1l14.9,8.6&#10;&#9;&#9;&#9;&#9;&#9;&#9;&#9;&#9;&#9;&#9;&#9;&#9;&#9;c0.9,0.5,2.5,0.5,3.6-0.1l14.3-8.3C748.9,596.4,749,595.5,748.1,595z"/>
												<path fill="#414141" d="M793.1,620.9L753.4,598c-0.9-0.5-2.5-0.5-3.6,0.1l-14.3,8.3c-1.1,0.6-1.2,1.5-0.3,2.1l39.7,22.9&#10;&#9;&#9;&#9;&#9;&#9;&#9;&#9;&#9;&#9;&#9;&#9;&#9;&#9;c0.9,0.5,2.5,0.5,3.6-0.1l14.3-8.3C793.9,622.4,794,621.5,793.1,620.9z"/>
											</g>
											<g>
												<path fill="#414141" d="M687.6,583.2l-95.8-55.3c-0.9-0.5-2.5-0.5-3.6,0.1l-14.3,8.3c-1.1,0.6-1.2,1.5-0.3,2.1&#10;&#9;&#9;&#9;&#9;&#9;&#9;&#9;&#9;&#9;&#9;&#9;&#9;&#9;l95.8,55.3c0.9,0.5,2.5,0.5,3.6-0.1l14.3-8.3C688.4,584.7,688.5,583.7,687.6,583.2z"/>
												<path fill="#414141" d="M561.9,510.6L547,502c-0.9-0.5-2.5-0.5-3.6,0.1l-14.3,8.3c-1.1,0.6-1.2,1.5-0.3,2.1l14.9,8.6&#10;&#9;&#9;&#9;&#9;&#9;&#9;&#9;&#9;&#9;&#9;&#9;&#9;&#9;c0.9,0.5,2.5,0.5,3.6-0.1l14.3-8.3C562.7,512.1,562.8,511.2,561.9,510.6z"/>
												<path fill="#414141" d="M586.5,524.9l-19.4-11.2c-0.9-0.5-2.5-0.5-3.6,0.1l-14.3,8.3c-1.1,0.6-1.2,1.5-0.3,2.1&#10;&#9;&#9;&#9;&#9;&#9;&#9;&#9;&#9;&#9;&#9;&#9;&#9;&#9;l19.4,11.2c0.9,0.5,2.5,0.5,3.6-0.1l14.3-8.3C587.3,526.3,587.4,525.4,586.5,524.9z"/>
												<path fill="#414141" d="M717.5,600.5l14.9,8.6c0.9,0.5,0.8,1.5-0.3,2.1l-14.3,8.3c-1.1,0.6-2.6,0.7-3.6,0.1l-14.9-8.6&#10;&#9;&#9;&#9;&#9;&#9;&#9;&#9;&#9;&#9;&#9;&#9;&#9;&#9;c-0.9-0.5-0.8-1.5,0.3-2.1l14.3-8.3C715,600,716.6,599.9,717.5,600.5z"/>
												<path fill="#414141" d="M692.9,586.3l19.4,11.2c0.9,0.5,0.8,1.5-0.3,2.1l-14.3,8.3c-1.1,0.6-2.7,0.7-3.6,0.1l-19.4-11.2&#10;&#9;&#9;&#9;&#9;&#9;&#9;&#9;&#9;&#9;&#9;&#9;&#9;&#9;c-0.9-0.5-0.8-1.5,0.3-2.1l14.3-8.3C690.4,585.8,692,585.7,692.9,586.3z"/>
												<path fill="#414141" d="M501.2,475.6l-14.9-8.6c-0.9-0.5-2.5-0.5-3.6,0.1l-14.3,8.3c-1.1,0.6-1.2,1.5-0.3,2.1l14.9,8.6&#10;&#9;&#9;&#9;&#9;&#9;&#9;&#9;&#9;&#9;&#9;&#9;&#9;&#9;c0.9,0.5,2.5,0.5,3.6-0.1l14.3-8.3C502,477.1,502.2,476.1,501.2,475.6z"/>
												<path fill="#414141" d="M521.5,487.3l-14.9-8.6c-0.9-0.5-2.5-0.5-3.6,0.1l-14.3,8.3c-1.1,0.6-1.2,1.5-0.3,2.1l14.9,8.6&#10;&#9;&#9;&#9;&#9;&#9;&#9;&#9;&#9;&#9;&#9;&#9;&#9;&#9;c0.9,0.5,2.5,0.5,3.6-0.1l14.3-8.3C522.3,488.7,522.4,487.8,521.5,487.3z"/>
												<path fill="#414141" d="M541.7,499l-14.9-8.6c-0.9-0.5-2.5-0.5-3.6,0.1l-14.3,8.3c-1.1,0.6-1.2,1.5-0.3,2.1l14.9,8.6&#10;&#9;&#9;&#9;&#9;&#9;&#9;&#9;&#9;&#9;&#9;&#9;&#9;&#9;c0.9,0.5,2.5,0.5,3.6-0.1l14.3-8.3C542.5,500.4,542.6,499.5,541.7,499z"/>
												<path fill="#414141" d="M773,632.5l-35.3-20.4c-0.9-0.5-2.5-0.5-3.6,0.1l-14.3,8.3c-1.1,0.6-1.2,1.5-0.3,2.1l35.3,20.4&#10;&#9;&#9;&#9;&#9;&#9;&#9;&#9;&#9;&#9;&#9;&#9;&#9;&#9;c0.9,0.5,2.5,0.5,3.6-0.1l14.3-8.3C773.8,634,773.9,633.1,773,632.5z"/>
											</g>
											<g>
												<path fill="#414141" d="M840.6,576.5l14.9,8.6c0.9,0.5,2.5,0.5,3.6-0.1l7.1-4.1c1.1-0.6,1.2-1.5,0.3-2.1l-14.9-8.6&#10;&#9;&#9;&#9;&#9;&#9;&#9;&#9;&#9;&#9;&#9;&#9;&#9;&#9;c-0.9-0.5-2.5-0.5-3.6,0.1l-7.1,4.1C839.8,575,839.7,575.9,840.6,576.5z"/>
												<path fill="#414141" d="M820.4,564.8l14.9,8.6c0.9,0.5,2.5,0.5,3.6-0.1l7.1-4.1c1.1-0.6,1.2-1.5,0.3-2.1l-14.9-8.6&#10;&#9;&#9;&#9;&#9;&#9;&#9;&#9;&#9;&#9;&#9;&#9;&#9;&#9;c-0.9-0.5-2.5-0.5-3.6,0.1l-7.1,4.1C819.6,563.4,819.4,564.3,820.4,564.8z"/>
												<path fill="#414141" d="M800.1,553.1l14.9,8.6c0.9,0.5,2.5,0.5,3.6-0.1l7.1-4.1c1.1-0.6,1.2-1.5,0.3-2.1l-14.9-8.6&#10;&#9;&#9;&#9;&#9;&#9;&#9;&#9;&#9;&#9;&#9;&#9;&#9;&#9;c-0.9-0.5-2.5-0.5-3.6,0.1l-7.1,4.1C799.3,551.7,799.2,552.6,800.1,553.1z"/>
												<path fill="#414141" d="M779.9,541.5l14.9,8.6c0.9,0.5,2.5,0.5,3.6-0.1l7.1-4.1c1.1-0.6,1.2-1.5,0.3-2.1l-14.9-8.6&#10;&#9;&#9;&#9;&#9;&#9;&#9;&#9;&#9;&#9;&#9;&#9;&#9;&#9;c-0.9-0.5-2.5-0.5-3.6,0.1l-7.1,4.1C779.1,540,779,540.9,779.9,541.5z"/>
												<path fill="#414141" d="M759.7,529.8l14.9,8.6c0.9,0.5,2.5,0.5,3.6-0.1l7.1-4.1c1.1-0.6,1.2-1.5,0.3-2.1l-14.9-8.6&#10;&#9;&#9;&#9;&#9;&#9;&#9;&#9;&#9;&#9;&#9;&#9;&#9;&#9;c-0.9-0.5-2.5-0.5-3.6,0.1l-7.1,4.1C758.9,528.3,758.8,529.3,759.7,529.8z"/>
												<path fill="#414141" d="M739.5,518.1l14.9,8.6c0.9,0.5,2.5,0.5,3.6-0.1l7.1-4.1c1.1-0.6,1.2-1.5,0.3-2.1l-14.9-8.6&#10;&#9;&#9;&#9;&#9;&#9;&#9;&#9;&#9;&#9;&#9;&#9;&#9;&#9;c-0.9-0.5-2.5-0.5-3.6,0.1l-7.1,4.1C738.7,516.7,738.6,517.6,739.5,518.1z"/>
												<path fill="#414141" d="M719.3,506.4l14.9,8.6c0.9,0.5,2.5,0.5,3.6-0.1l7.1-4.1c1.1-0.6,1.2-1.5,0.3-2.1l-14.9-8.6&#10;&#9;&#9;&#9;&#9;&#9;&#9;&#9;&#9;&#9;&#9;&#9;&#9;&#9;c-0.9-0.5-2.5-0.5-3.6,0.1l-7.1,4.1C718.5,505,718.4,505.9,719.3,506.4z"/>
												<path fill="#414141" d="M699.1,494.8l14.9,8.6c0.9,0.5,2.5,0.5,3.6-0.1l7.1-4.1c1.1-0.6,1.2-1.5,0.3-2.1l-14.9-8.6&#10;&#9;&#9;&#9;&#9;&#9;&#9;&#9;&#9;&#9;&#9;&#9;&#9;&#9;c-0.9-0.5-2.5-0.5-3.6,0.1l-7.1,4.1C698.3,493.3,698.1,494.2,699.1,494.8z"/>
												<path fill="#414141" d="M678.8,483.1l14.9,8.6c0.9,0.5,2.5,0.5,3.6-0.1l7.1-4.1c1.1-0.6,1.2-1.5,0.3-2.1l-14.9-8.6&#10;&#9;&#9;&#9;&#9;&#9;&#9;&#9;&#9;&#9;&#9;&#9;&#9;&#9;c-0.9-0.5-2.5-0.5-3.6,0.1l-7.1,4.1C678,481.6,677.9,482.6,678.8,483.1z"/>
												<path fill="#414141" d="M658.6,471.4l14.9,8.6c0.9,0.5,2.5,0.5,3.6-0.1l7.1-4.1c1.1-0.6,1.2-1.5,0.3-2.1l-14.9-8.6&#10;&#9;&#9;&#9;&#9;&#9;&#9;&#9;&#9;&#9;&#9;&#9;&#9;&#9;c-0.9-0.5-2.5-0.5-3.6,0.1l-7.1,4.1C657.8,470,657.7,470.9,658.6,471.4z"/>
												<path fill="#414141" d="M638.4,459.8l14.9,8.6c0.9,0.5,2.5,0.5,3.6-0.1l7.1-4.1c1.1-0.6,1.2-1.5,0.3-2.1l-14.9-8.6&#10;&#9;&#9;&#9;&#9;&#9;&#9;&#9;&#9;&#9;&#9;&#9;&#9;&#9;c-0.9-0.5-2.5-0.5-3.6,0.1l-7.1,4.1C637.6,458.3,637.5,459.2,638.4,459.8z"/>
												<path fill="#414141" d="M618.2,448.1l14.9,8.6c0.9,0.5,2.5,0.5,3.6-0.1l7.1-4.1c1.1-0.6,1.2-1.5,0.3-2.1l-14.9-8.6&#10;&#9;&#9;&#9;&#9;&#9;&#9;&#9;&#9;&#9;&#9;&#9;&#9;&#9;c-0.9-0.5-2.5-0.5-3.6,0.1l-7.1,4.1C617.4,446.6,617.3,447.6,618.2,448.1z"/>
												<path fill="#414141" d="M598,436.4l14.9,8.6c0.9,0.5,2.5,0.5,3.6-0.1l7.1-4.1c1.1-0.6,1.2-1.5,0.3-2.1l-14.9-8.6&#10;&#9;&#9;&#9;&#9;&#9;&#9;&#9;&#9;&#9;&#9;&#9;&#9;&#9;c-0.9-0.5-2.5-0.5-3.6,0.1l-7.1,4.1C597.2,435,597.1,435.9,598,436.4z"/>
												<path fill="#414141" d="M568.6,419.5l24.1,13.9c0.9,0.5,2.5,0.5,3.6-0.1l7.1-4.1c1.1-0.6,1.2-1.5,0.3-2.1l-24.1-13.9&#10;&#9;&#9;&#9;&#9;&#9;&#9;&#9;&#9;&#9;&#9;&#9;&#9;&#9;c-0.9-0.5-2.5-0.5-3.6,0.1l-7.1,4.1C567.8,418,567.7,418.9,568.6,419.5z"/>
											</g>
										</g>
										<path fill="#414141" d="M493.1,601.5l48.7,28.1c1.3,0.8,1.3,2,0,2.7l-53.4-30.8C489.7,600.8,491.8,600.8,493.1,601.5z"/>
										<path d="M 609.5999755859375 416.6000061035156 L 862.0999755859375 562.4000244140625 L 865.5999755859375 560.4000244140625 L 613.0999755859375 414.6000061035156 Z" fill="#414141"/>
									</g>
								</g>
								<g>
									<g>
										<path fill="#414141" d="M901,564.3V338.5c0-12.7-4.1-18.9-12.4-23.7L590,142.4c-3-1.8-5.8-2.4-8-1.5l0,0&#10;&#9;&#9;&#9;&#9;&#9;&#9;&#9;&#9;&#9;&#9;&#9;c0,0,5-2.9,5.5-3.1l0,0l0,0c2.1-0.8,4.9-0.2,7.9,1.6L894,311.8c8.3,4.8,12.4,11,12.4,23.7v225.8c0,6.1-1.7,9.5-4.3,10.7&#10;&#9;&#9;&#9;&#9;&#9;&#9;&#9;&#9;&#9;&#9;&#9;l-4.5,2.5C899.7,572.9,901,569.7,901,564.3z"/>
										<path d="M 896.5 575.0999755859375 L 896.5 575.0999755859375 L 896.5 575.0999755859375 Z" fill="#565656"/>
									</g>
									<g>
										<path fill="#414141" d="M590,401.3l298.6,172.4c6.9,4,12.4,1.7,12.4-9.4V338.5c0-12.7-4.1-18.9-12.4-23.7L590,142.4&#10;&#9;&#9;&#9;&#9;&#9;&#9;&#9;&#9;&#9;&#9;&#9;c-6.9-4-12.4-2.2-12.4,9.4v225.8C577.6,392.3,582.5,397,590,401.3z"/>
										<path d="M589.2,143.7l300.2,173.3c5.5,3.2,10,11,10,17.3v232.3c0,6.4-4.5,8.9-10,5.7L589.2,399c-5.5-3.2-10-11-10-17.3&#10;&#9;&#9;&#9;&#9;&#9;&#9;&#9;&#9;&#9;&#9;&#9;V149.4C579.2,143.1,583.7,140.5,589.2,143.7z"/>
										<g>
											<path d="M 887.9000244140625 546.7000122070312 L 887.9000244140625 329.3999938964844 L 590.7000122070312 157.89999389648438 L 590.7000122070312 375.1000061035156 Z" fill="#414141"/>
										</g>
										<path d="M 887.9000244140625 329.3999938964844 L 887.9000244140625 546.7000122070312 L 590.7000122070312 157.89999389648438 Z" fill="#414141"/>
									</g>
								</g>
							</g>
						</g>
						<path fill="#414141" d="M479.8,573.9l20.7-12l-0.2-0.1l41.2-23.8c2.5-1.4,6.5-1.4,8.9,0l99.9,57.7c2.5,1.4,2.5,3.7,0,5.2&#10;&#9;&#9;&#9;&#9;&#9;&#9;&#9;l-41.2,23.8l-0.2-0.1l-21.2,12.2c-2.5,1.4-6.5,1.4-8.9,0l-99-57.7C477.3,577.6,477.3,575.3,479.8,573.9z"/>
						<g>
							<path fill="#414141" d="M850.9,620.1l15.4-9c0.4-0.2,0.8-0.9,0.8-1.5v-4.2c0-0.6-0.3-0.8-0.8-0.6l-15.4,9&#10;&#9;&#9;&#9;&#9;&#9;&#9;&#9;&#9;c-0.4,0.2-0.8,0.9-0.8,1.5v4.2C850.1,620.1,850.4,620.3,850.9,620.1z"/>
							<path fill="#414141" d="M850.6,619.9l15.4-9c0.4-0.2,0.8-0.9,0.8-1.5v-4.2c0-0.2-0.1-0.4-0.2-0.5c0.3,0,0.4,0.3,0.4,0.7v4.2&#10;&#9;&#9;&#9;&#9;&#9;&#9;&#9;&#9;c0,0.6-0.3,1.2-0.8,1.5l-15.4,9c-0.3,0.1-0.5,0.1-0.6-0.1C850.4,620,850.5,620,850.6,619.9z"/>
						</g>
						<g>
							<path fill="#414141" d="M830.7,631.5l15.4-9c0.4-0.2,0.8-0.9,0.8-1.5v-4.2c0-0.6-0.3-0.8-0.8-0.6l-15.4,9&#10;&#9;&#9;&#9;&#9;&#9;&#9;&#9;&#9;c-0.4,0.2-0.8,0.9-0.8,1.5v4.2C830,631.5,830.3,631.8,830.7,631.5z"/>
						</g>
						<g>
							<path fill="#414141" d="M880.4,597.6c-1.1,0.7-2.1,2.3-2.1,3.6c0,1.3,0.9,1.8,2.1,1.2c1.1-0.7,2.1-2.3,2.1-3.6&#10;&#9;&#9;&#9;&#9;&#9;&#9;&#9;&#9;C882.5,597.4,881.5,596.9,880.4,597.6z"/>
							<path fill="#414141" d="M880.2,602.1c1.1-0.7,2.1-2.3,2.1-3.6c0-0.3-0.1-0.6-0.2-0.8c0.2,0.3,0.4,0.6,0.4,1.1&#10;&#9;&#9;&#9;&#9;&#9;&#9;&#9;&#9;c0,1.3-0.9,2.9-2.1,3.6c-0.9,0.5-1.6,0.3-1.9-0.4C878.8,602.4,879.5,602.5,880.2,602.1z"/>
						</g>
					</g>
				</g>
			</g>
			<g>
				<path fill="#9BD4DD" d="M625,834.2l162.9,94.1l243.7-141.6l-162.9-94.1c-7.8-4.5-21.3-3.9-30.3,1.3L627.2,815.6&#10;&#9;&#9;&#9;&#9;&#9;C618.2,820.7,617.2,828.6,625,834.2z"/>
				<g>
					<path d="M 884.900024 680.5 L 869.700012 671.700012 L 869.700012 689.700012 L 884.900024 698.5" fill="#FFFFFF"/>
					<g>
						<path fill="#7BBFC6" d="M628.7,825.5l159.9,92.3l239.2-137.8l0,0v2.6L788.6,920.5l-159.9-92.3c-3.3-1.9-4.9-4.5-5.1-7.2&#10;&#9;&#9;&#9;&#9;&#9;&#9;&#9;l-0.1-3C623.6,818,623.1,822.2,628.7,825.5z"/>
						<g>
							<path fill="#7BBFC6" d="M628.7,825.5l159.9,92.3l239.2-137.8l-159.9-92.3c-7.6-4.4-20.9-3.8-29.7,1.2L630.8,808.4&#10;&#9;&#9;&#9;&#9;&#9;&#9;&#9;&#9;C622,813.5,621.1,821.1,628.7,825.5z"/>
						</g>
					</g>
					<g>
						<path fill="#7BBFC6" d="M628.7,810.4l159.9,92.3L1027.8,765l0,0v2.6L788.6,905.4l-159.9-92.3c-3.3-1.9-4.9-4.5-5.1-7.2l-0.1-3&#10;&#9;&#9;&#9;&#9;&#9;&#9;&#9;C623.6,802.9,623.1,807.1,628.7,810.4z"/>
					</g>
					<path fill="#9BD4DD" d="M628.7,810.4l159.9,92.3L1027.8,765l-159.9-92.3c-7.6-4.4-20.9-3.8-29.7,1.2L630.8,793.3&#10;&#9;&#9;&#9;&#9;&#9;&#9;C622,798.3,621.1,806,628.7,810.4z"/>
					<g>
						<path d="M 788.5999755859375 920.5 L 788.5999755859375 902.7000122070312 L 1027.800048828125 765 L 1027.800048828125 782.7000122070312 Z" fill="#7BBFC6"/>
						<path d="M 788.5999755859375 920.5 L 786.4000244140625 919.2000122070312 L 786.4000244140625 901.5 L 788.5999755859375 902.7000122070312 Z" fill="#7BBFC6"/>
					</g>
					<g>
						<path d="M 786.4000244140625 912.7999877929688 L 628.7000122070312 821.7000122070312 L 628.7000122070312 813.0999755859375 L 786.4000244140625 904.0999755859375 Z" fill="#FFFFFF"/>
						<path d="M 628.700012 813.099976 L 628.700012 816.400024 L 786.400024 907.400024 L 786.400024 904.099976" fill="#EBEBEB"/>
					</g>
					<g>
						<path d="M 629.5 810.7999877929688 L 645.5999755859375 821.4000244140625 L 885.7999877929688 682.7999877929688 L 868.7999877929688 673.0999755859375 Z" fill="#7BBFC6"/>
						<path d="M 628.7000122070312 810.4000244140625 L 643.9000244140625 819.2999877929688 L 884.9000244140625 680.5 L 869.7000122070312 671.7000122070312 Z" fill="#474FAA"/>
						<g>
							<g>
								<path d="M 639.5999755859375 819.2999877929688 L 644.7000122070312 822.2000122070312 L 644.7000122070312 819.7000122070312 L 639.5999755859375 816.7999877929688 Z" fill="#E1E1E1"/>
								<path d="M 636.2999877929688 832.5 L 644.7000122070312 837.2999877929688 L 644.7000122070312 834.7999877929688 L 636.2999877929688 830 Z" fill="#E1E1E1"/>
								<path d="M 639.5999755859375 828 L 648 832.7999877929688 L 648 824.2000122070312 L 639.5999755859375 819.4000244140625 Z" fill="#EBEBEB"/>
								<path d="M 636.2999877929688 830 L 644.7000122070312 834.7999877929688 L 648 832.7999877929688 L 639.5999755859375 828 Z" fill="#E1E1E1"/>
							</g>
							<path d="M 628.7000122070312 828.4000244140625 L 643.9000244140625 837.2999877929688 L 643.9000244140625 819.2999877929688 L 628.7000122070312 810.4000244140625 Z" fill="#353B89"/>
						</g>
					</g>
				</g>
			</g>
			<g>
				<path fill="#9BD4DD" d="M786.8,975.5l104.5,60.4l156.4-90.9l-104.5-60.4c-5-2.9-13.7-2.5-19.4,0.8l-135.6,78.1&#10;&#9;&#9;&#9;&#9;&#9;C782.4,966.9,781.8,971.9,786.8,975.5z"/>
				<g>
					<g>
						<path fill="#414141" d="M789.2,970l102.6,59.2l153.5-88.4l0,0v1.7l-153.5,88.4l-102.6-59.2c-2.1-1.2-3.2-2.9-3.2-4.6l0-2&#10;&#9;&#9;&#9;&#9;&#9;&#9;&#9;C785.9,965.1,785.6,967.8,789.2,970z"/>
						<g>
							<path fill="#414141" d="M789.2,970l102.6,59.2l153.5-88.4l-102.6-59.2c-4.9-2.8-13.4-2.5-19.1,0.8l-133.1,76.6&#10;&#9;&#9;&#9;&#9;&#9;&#9;&#9;&#9;C784.9,962.2,784.3,967.1,789.2,970z"/>
						</g>
					</g>
					<g>
						<path fill="#414141" d="M789.2,960.3l102.6,59.2l153.5-88.4l0,0v1.7l-153.5,88.4L789.2,962c-2.1-1.2-3.2-2.9-3.2-4.6l0-2&#10;&#9;&#9;&#9;&#9;&#9;&#9;&#9;C785.9,955.4,785.6,958.1,789.2,960.3z"/>
					</g>
					<path d="M789.2,960.3l102.6,59.2l153.5-88.4l-102.6-59.2c-4.9-2.8-13.4-2.5-19.1,0.8l-133.1,76.6&#10;&#9;&#9;&#9;&#9;&#9;&#9;C784.9,952.5,784.3,957.4,789.2,960.3z"/>
					<g>
						<path d="M 891.7999877929688 1030.9000244140625 L 891.7999877929688 1019.5 L 1045.300048828125 931.0999755859375 L 1045.300048828125 942.5 Z" fill="#414141"/>
						<path d="M 891.7999877929688 1030.9000244140625 L 890.4000244140625 1030.0999755859375 L 890.4000244140625 1018.7000122070312 L 891.7999877929688 1019.5 Z" fill="#414141"/>
					</g>
					<g>
						<path d="M 890.4000244140625 1026 L 789.2000122070312 967.5 L 789.2000122070312 962 L 890.4000244140625 1020.4000244140625 Z" fill="#FFFFFF"/>
						<path d="M 789.200012 962 L 789.200012 964.099976 L 890.400024 1022.5 L 890.400024 1020.400024" fill="#EBEBEB"/>
					</g>
				</g>
			</g>
			<g>
				<path fill="#9BD4DD" d="M257.2,542.7L257.2,542.7L257.2,542.7C257.2,542.7,257.2,542.7,257.2,542.7l144.1-83.3l0,0&#10;&#9;&#9;&#9;&#9;&#9;c0.6-0.4,1.3-0.4,2.1-0.2l15.2-3.2c0,0,0.1,0,0.1,0c0.1,0.1,0.2,0.3,0.2,0.4c0,0.1,0,0.1,0,0.1l-10.3,11.6&#10;&#9;&#9;&#9;&#9;&#9;c-0.2,0.8-0.6,1.5-1.2,1.8l0,0l-143.8,82.9l0,0c-0.8,0.8-2.1,0.9-3.5,0c-2.4-1.4-4.3-4.7-4.3-7.5&#10;&#9;&#9;&#9;&#9;&#9;C255.9,544.1,256.4,543.2,257.2,542.7z"/>
				<g>
					<path fill="#FFFFFF" d="M396.9,456l16-3.3c0,0,0.1,0,0.1,0c0.1,0.1,0.2,0.3,0.2,0.4c0,0,0,0.1,0,0.1l-11,12.3L396.9,456z"/>
					<path fill="#FFFFFF" d="M413,452.7C413.1,452.7,413.1,452.7,413,452.7l-13.5,8l-2.7-4.7l16-3.3&#10;&#9;&#9;&#9;&#9;&#9;&#9;C412.9,452.6,413,452.6,413,452.7z"/>
					<g>
						<path fill="#353B89" d="M396,455.9L396,455.9c0.8-0.5,1.9-0.5,3.1,0.2c2.3,1.3,4.2,4.6,4.2,7.3c0,1.4-0.5,2.3-1.3,2.7l0,0&#10;&#9;&#9;&#9;&#9;&#9;&#9;&#9;l-139.5,80.4l-6.4-9.9L396,455.9z"/>
						<path fill="#474FAA" d="M259.3,541.7l-3.2-5L396,455.9l0,0c0.8-0.5,1.9-0.5,3.1,0.2c1.2,0.7,2.2,1.8,3,3.1L259.3,541.7z"/>
						<path fill="#474FAA" d="M259.1,537c-2.3-1.3-4.2-0.3-4.2,2.4c0,2.7,1.9,5.9,4.2,7.3c2.3,1.3,4.2,0.3,4.2-2.4&#10;&#9;&#9;&#9;&#9;&#9;&#9;&#9;C263.3,541.6,261.4,538.3,259.1,537z"/>
					</g>
				</g>
			</g>
			<g>
				<path fill="#9BD4DD" d="M237.5,510L237.5,510L237.5,510C237.5,509.9,237.5,509.9,237.5,510l144.1-83.3l0,0&#10;&#9;&#9;&#9;&#9;&#9;c0.6-0.4,1.3-0.4,2.1-0.2l15.2-3.2c0,0,0.1,0,0.1,0c0.1,0.1,0.2,0.3,0.2,0.4c0,0.1,0,0.1,0,0.1l-10.3,11.6&#10;&#9;&#9;&#9;&#9;&#9;c-0.2,0.8-0.6,1.5-1.2,1.8l0,0l-143.8,82.9l0,0c-0.8,0.8-2.1,0.9-3.5,0c-2.4-1.4-4.3-4.7-4.3-7.5&#10;&#9;&#9;&#9;&#9;&#9;C236.3,511.4,236.7,510.4,237.5,510z"/>
				<g>
					<path fill="#FFFFFF" d="M377.2,423.2l16-3.3c0,0,0.1,0,0.1,0c0.1,0.1,0.2,0.3,0.2,0.4c0,0,0,0.1,0,0.1l-11,12.3L377.2,423.2z"/>
					<path fill="#FFFFFF" d="M393.4,419.9C393.4,419.9,393.4,420,393.4,419.9l-13.5,8l-2.7-4.7l16-3.3&#10;&#9;&#9;&#9;&#9;&#9;&#9;C393.3,419.9,393.3,419.9,393.4,419.9z"/>
					<g>
						<path fill="#353B89" d="M376.4,423.1L376.4,423.1c0.8-0.5,1.9-0.5,3.1,0.2c2.3,1.3,4.2,4.6,4.2,7.3c0,1.4-0.5,2.3-1.3,2.7l0,0&#10;&#9;&#9;&#9;&#9;&#9;&#9;&#9;l-139.5,80.4l-6.4-9.9L376.4,423.1z"/>
						<path fill="#474FAA" d="M239.7,508.9l-3.2-5l139.9-80.8l0,0c0.8-0.5,1.9-0.5,3.1,0.2c1.2,0.7,2.2,1.8,3,3.1L239.7,508.9z"/>
						<path fill="#474FAA" d="M239.5,504.2c-2.3-1.3-4.2-0.3-4.2,2.4c0,2.7,1.9,5.9,4.2,7.3c2.3,1.3,4.2,0.3,4.2-2.4&#10;&#9;&#9;&#9;&#9;&#9;&#9;&#9;C243.7,508.8,241.8,505.6,239.5,504.2z"/>
					</g>
				</g>
			</g>
			<g>
				<path fill="#9BD4DD" d="M474.7,830.7L474.7,830.7L474.7,830.7C474.7,830.6,474.7,830.6,474.7,830.7l144.1-83.3l0,0&#10;&#9;&#9;&#9;&#9;&#9;c0.6-0.4,1.3-0.4,2.1-0.2l15.2-3.2c0,0,0.1,0,0.1,0c0.1,0.1,0.2,0.3,0.2,0.4c0,0.1,0,0.1,0,0.1l-10.3,11.6&#10;&#9;&#9;&#9;&#9;&#9;c-0.2,0.8-0.6,1.5-1.2,1.8l0,0l-143.8,82.9l0,0c-0.8,0.8-2.1,0.9-3.5,0c-2.4-1.4-4.3-4.7-4.3-7.5&#10;&#9;&#9;&#9;&#9;&#9;C473.4,832.1,473.9,831.1,474.7,830.7z"/>
				<g>
					<path fill="#FFFFFF" d="M614.4,743.9l16-3.3c0,0,0.1,0,0.1,0c0.1,0.1,0.2,0.3,0.2,0.4c0,0,0,0.1,0,0.1l-11,12.3L614.4,743.9z"/>
					<path fill="#FFFFFF" d="M630.5,740.6C630.6,740.6,630.6,740.7,630.5,740.6l-13.5,8l-2.7-4.7l16-3.3&#10;&#9;&#9;&#9;&#9;&#9;&#9;C630.4,740.6,630.5,740.6,630.5,740.6z"/>
					<g>
						<path fill="#C0C4D3" d="M613.5,743.8L613.5,743.8c0.8-0.5,1.9-0.5,3.1,0.2c2.3,1.3,4.2,4.6,4.2,7.3c0,1.4-0.5,2.3-1.3,2.7v0&#10;&#9;&#9;&#9;&#9;&#9;&#9;&#9;L480,834.5l-6.4-9.9L613.5,743.8z"/>
						<path fill="#B0B5BF" d="M476.8,829.6l-3.2-5l139.9-80.8l0,0c0.8-0.5,1.9-0.5,3.1,0.2c1.2,0.7,2.2,1.8,3,3.1L476.8,829.6z"/>
						<path fill="#B0B5BF" d="M476.6,824.9c-2.3-1.3-4.2-0.3-4.2,2.4s1.9,5.9,4.2,7.3c2.3,1.3,4.2,0.3,4.2-2.4&#10;&#9;&#9;&#9;&#9;&#9;&#9;&#9;S478.9,826.3,476.6,824.9z"/>
					</g>
				</g>
			</g>
			<g>
				<path fill="#9BD4DD" d="M187,424.2l47.8,27.6c4.9,2.8,13.5,2.5,19.2-0.8l122.5-70.7c5.7-3.3,6.3-8.2,1.4-11.1l-47.8-27.6&#10;&#9;&#9;&#9;&#9;&#9;c-4.9-2.8-13.5-2.5-19.2,0.8l-122.5,70.7C182.7,416.4,182.1,421.4,187,424.2z"/>
				<g>
					<path fill="#AAAAAA" d="M186.1,407.8l47.8,27.6c4.9,2.8,13.5,2.5,19.2-0.8l122.5-70.7c5.7-3.3,6.3-8.2,1.4-11.1l-47.8-27.6&#10;&#9;&#9;&#9;&#9;&#9;&#9;c-4.9-2.8-13.5-2.5-19.2,0.8l-122.5,70.7C181.8,400,181.2,405,186.1,407.8z"/>
					<g>
						<path fill="#414141" d="M183,400.7c0.7-1.6,2.2-3.1,4.3-4.3l122.5-70.7c3-1.8,7.1-2.8,11-2.8c3.3,0,6.3,0.7,8.5,2l47.8,27.6&#10;&#9;&#9;&#9;&#9;&#9;&#9;&#9;c1.4,0.8,2.4,1.8,3,2.9l0,0c0,0,0,0,0,0c0.8,1.5,1.2,3.7,1.2,6.7c0,4.5-1.8,6.9-1.8,6.9h0c-0.8,1.3-2.1,2.6-3.9,3.6&#10;&#9;&#9;&#9;&#9;&#9;&#9;&#9;l-122.5,70.7c-5.7,3.3-14.3,3.6-19.2,0.8l-47.8-27.6c-1.2-0.7-2-1.5-2.6-2.3l0,0c0,0-1.8-2.4-1.8-6.9&#10;&#9;&#9;&#9;&#9;&#9;&#9;&#9;C181.8,402.9,183,400.7,183,400.7z"/>
						<path d="M186.1,407.8l47.8,27.6c4.9,2.8,13.5,2.5,19.2-0.8l122.5-70.7c5.7-3.3,6.3-8.2,1.4-11.1l-47.8-27.6&#10;&#9;&#9;&#9;&#9;&#9;&#9;&#9;c-4.9-2.8-13.5-2.5-19.2,0.8l-122.5,70.7C181.8,400,181.2,405,186.1,407.8z"/>
					</g>
					<g>
						<path d="M 234 444.29998779296875 L 234 435.3999938964844 L 186.10000610351562 407.79998779296875 L 186.10000610351562 416.70001220703125 Z" fill="#414141"/>
						<path d="M 186.10000610351562 416.70001220703125 L 188.5 418 L 188.5 409.20001220703125 L 186.10000610351562 407.79998779296875 Z"/>
						<path d="M 231.60000610351562 442.8999938964844 L 234 444.29998779296875 L 234 435.3999938964844 L 231.60000610351562 434.1000061035156 Z"/>
						<g>
							<path fill="#414141" d="M225.4,434.9c0,1.1,0.8,2.5,1.8,3.1c1,0.6,1.8,0.1,1.8-1c0-1.1-0.8-2.5-1.8-3.1&#10;&#9;&#9;&#9;&#9;&#9;&#9;&#9;&#9;C226.2,433.3,225.4,433.8,225.4,434.9z"/>
						</g>
						<g>
							<path fill="#414141" d="M205.7,421.5l7.5,4.3c1,0.6,1.8,1.9,1.8,3.1s-0.8,1.6-1.8,1l-7.5-4.3c-1-0.6-1.8-1.9-1.8-3.1&#10;&#9;&#9;&#9;&#9;&#9;&#9;&#9;&#9;C203.9,421.4,204.8,420.9,205.7,421.5z"/>
						</g>
						<g>
							<g>
								<path fill="#414141" d="M195.4,418.5l0.3,0.2c0.3,0.1,0.5,0,0.5-0.3v-0.9c0-0.2-0.1-0.3-0.2-0.4l-0.3-0.2&#10;&#9;&#9;&#9;&#9;&#9;&#9;&#9;&#9;&#9;c-0.3-0.1-0.5,0-0.5,0.3v0.9C195.2,418.3,195.3,418.4,195.4,418.5z"/>
							</g>
							<g>
								<path fill="#414141" d="M194,417.7l0.3,0.2c0.3,0.1,0.5,0,0.5-0.3v-0.9c0-0.2-0.1-0.3-0.2-0.4l-0.3-0.2&#10;&#9;&#9;&#9;&#9;&#9;&#9;&#9;&#9;&#9;c-0.3-0.1-0.5,0-0.5,0.3v0.9C193.7,417.4,193.8,417.6,194,417.7z"/>
							</g>
							<g>
								<path fill="#414141" d="M192.5,416.8l0.3,0.2c0.3,0.1,0.5,0,0.5-0.3v-0.9c0-0.2-0.1-0.3-0.2-0.4l-0.3-0.2&#10;&#9;&#9;&#9;&#9;&#9;&#9;&#9;&#9;&#9;c-0.3-0.1-0.5,0-0.5,0.4v0.9C192.3,416.6,192.4,416.8,192.5,416.8z"/>
							</g>
							<g>
								<path fill="#414141" d="M191.1,416l0.3,0.2c0.3,0.1,0.5,0,0.5-0.3v-0.9c0-0.2-0.1-0.3-0.2-0.4l-0.3-0.2&#10;&#9;&#9;&#9;&#9;&#9;&#9;&#9;&#9;&#9;c-0.3-0.1-0.5,0-0.5,0.4v0.9C190.8,415.7,190.9,415.9,191.1,416z"/>
							</g>
							<g>
								<path fill="#414141" d="M189.6,415.2l0.3,0.2c0.3,0.1,0.5,0,0.5-0.4v-0.9c0-0.2-0.1-0.3-0.2-0.4l-0.3-0.2&#10;&#9;&#9;&#9;&#9;&#9;&#9;&#9;&#9;&#9;c-0.3-0.1-0.5,0-0.5,0.4v0.9C189.4,414.9,189.5,415.1,189.6,415.2z"/>
							</g>
						</g>
					</g>
					<g>
						<g>
							<path fill="#414141" d="M343.7,338.2c-0.3,0.2-0.3,0.4-0.1,0.6l9.1,5.2c0.2,0.1,0.4,0.1,0.5,0l0.2-0.1&#10;&#9;&#9;&#9;&#9;&#9;&#9;&#9;&#9;c0.3-0.2,0.3-0.4,0.1-0.6l-9.1-5.2c-0.2-0.1-0.4-0.1-0.5,0L343.7,338.2z"/>
							<path fill="#414141" d="M334.5,332.9c-0.7,0.4-0.7,1.1,0,1.5c0.7,0.4,1.9,0.4,2.6,0c0.7-0.4,0.7-1.1,0-1.5&#10;&#9;&#9;&#9;&#9;&#9;&#9;&#9;&#9;C336.3,332.5,335.2,332.5,334.5,332.9z"/>
							<path fill="#414141" d="M362.7,349.2c-0.7,0.4-1.9,0.4-2.6,0c-0.7-0.4-0.7-1.1,0-1.5c0.7-0.4,1.9-0.4,2.6,0&#10;&#9;&#9;&#9;&#9;&#9;&#9;&#9;&#9;C363.4,348.1,363.4,348.8,362.7,349.2z"/>
						</g>
						<path fill="#414141" d="M200.4,403.1l42,24.3c4.4,2.6,12.2,2.2,17.4-0.7l99.3-57.4c5.1-3,5.7-7.5,1.2-10l-42-24.3&#10;&#9;&#9;&#9;&#9;&#9;&#9;&#9;c-4.4-2.6-12.2-2.2-17.4,0.7l-99.3,57.3C196.5,396.1,196,400.6,200.4,403.1z"/>
						<g>
							<g>
								<path fill="none" stroke="#000000" stroke-linecap="round" stroke-miterlimit="10" d="M222.4,412.5l-1,0.6&#10;&#9;&#9;&#9;&#9;&#9;&#9;&#9;&#9;&#9;c-0.6,0.3-0.6,0.9,0,1.2l1,0.6"/>
								<path fill="none" stroke="#000000" stroke-linecap="round" stroke-miterlimit="10" d="M223.7,414.9l1-0.6&#10;&#9;&#9;&#9;&#9;&#9;&#9;&#9;&#9;&#9;c0.6-0.3,0.6-0.9,0-1.2l-1-0.6"/>
							</g>
							<g>
								<path d="M 205.100006 404.899994 L 207.800003 404.899994 L 207.800003 403.299988" fill="none" stroke="#000000" stroke-linecap="round" stroke-linejoin="round" stroke-miterlimit="10"/>
								
									<path d="M 207.800003 404.899994 L 205.199997 403.399994" fill="none" stroke="#000000" stroke-linecap="round" stroke-linejoin="round" stroke-miterlimit="10"/>
							</g>
							<g>
								<path fill="none" stroke="#000000" stroke-linecap="round" stroke-linejoin="round" stroke-miterlimit="10" d="M241,423.6&#10;&#9;&#9;&#9;&#9;&#9;&#9;&#9;&#9;&#9;l-1.7-1c-0.6-0.3-0.6-0.9-0.1-1.2l0,0"/>
								<path fill="none" stroke="#000000" stroke-linecap="round" stroke-linejoin="round" stroke-miterlimit="10" d="M237.5,422.5&#10;&#9;&#9;&#9;&#9;&#9;&#9;&#9;&#9;&#9;l1.7,1c0.6,0.3,0.6,0.9,0.1,1.2l0,0"/>
							</g>
						</g>
						<path fill="#414141" d="M229.9,378.8c-5.7,3.3-14.1,6.5-19.9,9.7l-1.2,0.7l2.4-1.4l0-0.3l89.8-51.8c5.1-3,12.9-3.3,17.4-0.7&#10;&#9;&#9;&#9;&#9;&#9;&#9;&#9;l32.8,18.9l-0.2,0.2l-0.2,0.2l-0.3-0.1l-17.2-9.7l-8.6-4.8l-4.3-2.4c-1.4-0.8-2.9-1.7-4.2-2.2c-2.9-0.9-6.2-0.9-9.2-0.1&#10;&#9;&#9;&#9;&#9;&#9;&#9;&#9;c-1.5,0.4-3,0.9-4.3,1.7l-4.2,2.5l-17,10l-17.1,9.9c-5.7,3.3-11.4,6.6-17.1,9.9C241.4,372.3,235.6,375.6,229.9,378.8z"/>
					</g>
					<g>
						<g>
							<path d="M 253.1999969482422 434.6000061035156 L 253.1999969482422 443.5 L 375.70001220703125 372.79998779296875 L 375.70001220703125 363.8999938964844 Z" fill="#414141"/>
						</g>
						<g>
							<path fill="#202020" d="M335.2,392.2c0,0.6-0.4,1.4-1,1.7l-7.5,4.3c-0.5,0.3-1,0.1-1-0.6c0-0.6,0.4-1.4,1-1.7l7.5-4.3&#10;&#9;&#9;&#9;&#9;&#9;&#9;&#9;&#9;C334.8,391.3,335.2,391.6,335.2,392.2z"/>
							<path fill="#414141" d="M325.1,397.3c0-0.6,0.4-1.4,1-1.7l7.5-4.3c0.3-0.2,0.5-0.2,0.7-0.1l0,0l0.6,0.3&#10;&#9;&#9;&#9;&#9;&#9;&#9;&#9;&#9;c-0.2-0.1-0.4-0.1-0.6,0.1l-7.5,4.3c-0.5,0.3-1,1.1-1,1.7c0,0.3,0.1,0.5,0.2,0.6l-0.6-0.3h0&#10;&#9;&#9;&#9;&#9;&#9;&#9;&#9;&#9;C325.2,397.9,325.1,397.6,325.1,397.3z"/>
						</g>
						<g>
							<path fill="#202020" d="M365.3,374.8c0,0.6-0.4,1.4-1,1.7l-21.1,12.2c-0.5,0.3-1,0.1-1-0.6c0-0.6,0.4-1.4,1-1.7l21.1-12.2&#10;&#9;&#9;&#9;&#9;&#9;&#9;&#9;&#9;C364.8,373.9,365.3,374.2,365.3,374.8z"/>
							<path fill="#414141" d="M341.6,387.7c0-0.6,0.4-1.4,1-1.7l21.1-12.2c0.3-0.2,0.5-0.2,0.7-0.1l0,0l0.6,0.3&#10;&#9;&#9;&#9;&#9;&#9;&#9;&#9;&#9;c-0.2-0.1-0.4-0.1-0.6,0.1l-21.1,12.2c-0.5,0.3-1,1.1-1,1.7c0,0.3,0.1,0.5,0.2,0.6l-0.6-0.3l0,0&#10;&#9;&#9;&#9;&#9;&#9;&#9;&#9;&#9;C341.7,388.3,341.6,388.1,341.6,387.7z"/>
						</g>
					</g>
				</g>
			</g>
			<g>
				<path fill="#EBEBEB" d="M570.8,774.8L570.8,774.8c0.1-0.1,0.2-0.1,0.4,0c0.3,0.2,0.5,0.6,0.5,0.9c0,0.2-0.1,0.3-0.2,0.3v0&#10;&#9;&#9;&#9;&#9;&#9;l-17.3,10l-0.8-1.2L570.8,774.8z"/>
				<path fill="#EBEBEB" d="M553.8,785.5l-0.4-0.6l17.4-10h0c0.1-0.1,0.2-0.1,0.4,0c0.1,0.1,0.3,0.2,0.4,0.4L553.8,785.5z"/>
				<path fill="#EBEBEB" d="M553.8,784.9c-0.3-0.2-0.5,0-0.5,0.3s0.2,0.7,0.5,0.9c0.3,0.2,0.5,0,0.5-0.3&#10;&#9;&#9;&#9;&#9;&#9;C554.3,785.5,554.1,785.1,553.8,784.9z"/>
			</g>
			<g>
				<g>
					<path fill="#9BD4DD" d="M417.8,348.5c-25.5,14.7-25.4,38.7,0.3,53.5c25.7,14.8,67.2,14.9,92.7,0.2&#10;&#9;&#9;&#9;&#9;&#9;&#9;c25.5-14.7,25.4-38.7-0.3-53.5C484.8,333.9,443.3,333.8,417.8,348.5z"/>
					<path fill="#353B89" d="M424.9,343.8c-25.5,14.7-25.4,38.7,0.3,53.5c25.7,14.8,67.2,14.9,92.7,0.2&#10;&#9;&#9;&#9;&#9;&#9;&#9;c25.5-14.7,25.4-38.7-0.3-53.5C491.9,329.2,450.4,329.1,424.9,343.8z"/>
					<path fill="#474FAA" d="M426.6,340c-25.5,14.7-25.4,38.7,0.3,53.5s67.2,14.9,92.7,0.2c25.5-14.7,25.4-38.7-0.3-53.5&#10;&#9;&#9;&#9;&#9;&#9;&#9;C493.7,325.3,452.2,325.3,426.6,340z"/>
				</g>
				<g>
					<path fill="#9BD4DD" d="M418.6,285.9c14.5,15.8,47.9,22.5,76.3,15.8c1.4-0.3,2.7-0.7,4.1-1.1c1.1-0.3,2.2-0.7,3.3-1&#10;&#9;&#9;&#9;&#9;&#9;&#9;c9.4-3.1,16.5-7.1,21.3-12.6c-2.3,14.4-5.7,34.5-8.6,50.9c-2.7,15.4-4.9,27.5-5,28.4c-1,7.2-9.6,15-20.8,19.9&#10;&#9;&#9;&#9;&#9;&#9;&#9;c-13,5.6-27.5,4.2-38.5-0.5c-5.4-2.3-10.1-5.4-13.3-9c-2.9-3.2-4.3-6.5-4.4-9.9c0-1.6-11.9-59.7-16.3-83.1&#10;&#9;&#9;&#9;&#9;&#9;&#9;C417.2,284.4,417.9,285.2,418.6,285.9z"/>
					<g>
						<path fill="#EBEBEB" d="M439.4,265.2l-0.6,0.4c-4.7-4.6-3.3-9.8,2.9-13.9v12.2C440.8,264.3,439.8,264.7,439.4,265.2z"/>
						<path fill="#FFFFFF" d="M424.5,271.7c13.5,11.9,45.5,16.6,71.4,10.6c9.5-2.2,16.8-5.6,21.7-9.5c4.2-3.4,6.5-7.2,6.7-11.2&#10;&#9;&#9;&#9;&#9;&#9;&#9;&#9;c0-0.4,0-0.8-0.1-1.2c0-0.4,0-0.8-0.1-1.2c-0.5-3.2-2.4-6.4-5.9-9.4c-13.6-11.9-45.5-16.6-71.4-10.6&#10;&#9;&#9;&#9;&#9;&#9;&#9;&#9;c-16.8,3.9-26.9,11.5-28.2,19.5c0,0.1,0,0.1,0,0.1c-0.1,0.3-0.1,0.6-0.1,0.9C418.2,263.8,420.1,267.9,424.5,271.7z&#10;&#9;&#9;&#9;&#9;&#9;&#9;&#9; M437.7,267.4c-9.4-7.8-2.2-17.6,16.2-21.9c18.4-4.3,41-1.4,50.5,6.5c9.4,7.8,2.2,17.6-16.3,21.9&#10;&#9;&#9;&#9;&#9;&#9;&#9;&#9;C469.7,278.1,447.1,275.2,437.7,267.4z"/>
						<path fill="#EBEBEB" d="M504.4,251.9c-9.5-7.8-32.1-10.7-50.5-6.5c-18.4,4.3-25.7,14.1-16.2,21.9c9.5,7.8,32.1,10.7,50.5,6.5&#10;&#9;&#9;&#9;&#9;&#9;&#9;&#9;C506.6,269.6,513.8,259.7,504.4,251.9z"/>
						<path fill="#FFFFFF" d="M411.8,264.4c-0.2,4.5,1.9,9.1,6.8,13.3c15.2,13.4,51.2,18.7,80.3,11.9c4.2-1,8-2.1,11.4-3.5&#10;&#9;&#9;&#9;&#9;&#9;&#9;&#9;c0.1,0,0.2-0.1,0.2-0.1c6.8-2.7,12.1-6,15.5-9.6c3.6-3.8,5.2-7.9,4.8-12.1c1.9,11.6-0.5,19.9-7.2,25.9&#10;&#9;&#9;&#9;&#9;&#9;&#9;&#9;c-4.9,4.5-12,7.7-21.3,10.2c-1.1,0.3-2.2,0.6-3.3,0.8c-1.3,0.3-2.7,0.6-4.1,0.9c-28.3,5.5-61.7,0-76.3-12.7&#10;&#9;&#9;&#9;&#9;&#9;&#9;&#9;c-0.7-0.6-1.4-1.2-2-1.9C411.3,282.1,410.5,276.5,411.8,264.4z"/>
						<path fill="#EBEBEB" d="M411.8,268C411.8,268,411.8,268,411.8,268c0.3-4.1,2.5-8,6.5-11.6c0-0.1,0.1-0.1,0.2-0.2&#10;&#9;&#9;&#9;&#9;&#9;&#9;&#9;c-0.3,4,1.7,8.1,6,11.9c13.5,11.9,45.5,16.6,71.4,10.6c9.5-2.2,16.8-5.6,21.7-9.5c4.2-3.4,6.5-7.2,6.7-11.2c0-0.4,0-0.8,0-1.2&#10;&#9;&#9;&#9;&#9;&#9;&#9;&#9;c4,3.6,6.2,7.4,6.6,11.2c0.5,4.2-1.2,8.3-4.8,12.1c-3.4,3.7-8.7,7-15.5,9.6c-0.1,0-0.2,0.1-0.2,0.1c-3.4,1.3-7.2,2.5-11.4,3.5&#10;&#9;&#9;&#9;&#9;&#9;&#9;&#9;c-29.1,6.8-65.1,1.5-80.3-11.9C413.7,277.1,411.6,272.5,411.8,268z"/>
					</g>
				</g>
			</g>
			<g>
				<g>
					<g>
						<path d="M 368.8999938964844 960.7999877929688 L 577.5999755859375 840.2999877929688 L 741 934.5999755859375 L 551.4000244140625 1044 L 507.5 1040.800048828125 Z" fill="#9BD4DD"/>
					</g>
					<path d="M 681.599976 943.900024 L 553.299988 869.900024" fill-rule="evenodd" clip-rule="evenodd" fill="#9BD4DD"/>
					<path d="M 522.0999755859375 1030.699951171875 L 555.2999877929688 1042.300048828125 L 512.2999877929688 1039.0999755859375 Z" fill="#9BD4DD"/>
					<path d="M 667.599976 955 L 539.400024 881" fill-rule="evenodd" clip-rule="evenodd" fill="#9BD4DD"/>
					<path d="M 649.099976 967.599976 L 591.5 934.400024" fill-rule="evenodd" clip-rule="evenodd" fill="#9BD4DD"/>
					<path d="M 583.099976 929.299988 L 525.5 896.099976" fill-rule="evenodd" clip-rule="evenodd" fill="#9BD4DD"/>
				</g>
				<g>
					<g>
						<path d="M 372.6000061035156 953.7000122070312 L 577.7000122070312 835.2999877929688 L 738.2999877929688 928 L 552 1035.5 L 508.79998779296875 1032.300048828125 Z" fill="#FFFFFF"/>
					</g>
					
						<path d="M 676.400024 939.700012 L 550.5 867" fill-rule="evenodd" clip-rule="evenodd" fill="none" stroke="#E8E8E8" stroke-width="2" stroke-miterlimit="10"/>
					<path d="M 519.7000122070312 1025 L 552.4000244140625 1036.4000244140625 L 510.20001220703125 1033.199951171875 Z" fill="#EBEBEB"/>
					
						<path d="M 662.799988 950.599976 L 536.799988 878" fill-rule="evenodd" clip-rule="evenodd" fill="none" stroke="#E8E8E8" stroke-width="2" stroke-miterlimit="10"/>
					
						<path d="M 644.599976 963 L 588 930.299988" fill-rule="evenodd" clip-rule="evenodd" fill="none" stroke="#E8E8E8" stroke-width="2" stroke-miterlimit="10"/>
					
						<path d="M 579.700012 925.400024 L 523.099976 892.799988" fill-rule="evenodd" clip-rule="evenodd" fill="none" stroke="#E8E8E8" stroke-width="2" stroke-miterlimit="10"/>
				</g>
			</g>
			<g>
				<g>
					<g>
						<path d="M 78.80000305175781 867.5999755859375 L 245.60000610351562 771.2000122070312 L 376.20001220703125 846.5999755859375 L 224.6999969482422 934.0999755859375 L 189.60000610351562 931.5 Z" fill="#9BD4DD"/>
					</g>
					<path d="M 328.700012 854.099976 L 226.199997 795" fill-rule="evenodd" clip-rule="evenodd" fill="#9BD4DD"/>
					<path d="M 201.1999969482422 923.4000244140625 L 227.8000030517578 932.7000122070312 L 193.39999389648438 930.2000122070312 Z" fill="#9BD4DD"/>
					<path d="M 317.600006 863 L 215.100006 803.799988" fill-rule="evenodd" clip-rule="evenodd" fill="#9BD4DD"/>
					<path d="M 302.799988 873 L 256.700012 846.400024" fill-rule="evenodd" clip-rule="evenodd" fill="#9BD4DD"/>
					<path d="M 250 842.400024 L 203.899994 815.900024" fill-rule="evenodd" clip-rule="evenodd" fill="#9BD4DD"/>
				</g>
				<g>
					<g>
						<path d="M 81.80000305175781 861.9000244140625 L 245.6999969482422 767.2999877929688 L 374 841.4000244140625 L 225.10000610351562 927.2999877929688 L 190.6999969482422 924.7000122070312 Z" fill="#FFFFFF"/>
					</g>
					
						<path d="M 324.600006 850.700012 L 223.899994 792.599976" fill-rule="evenodd" clip-rule="evenodd" fill="none" stroke="#E8E8E8" stroke-width="2" stroke-miterlimit="10"/>
					<path d="M 199.39999389648438 918.9000244140625 L 225.5 928 L 191.6999969482422 925.5 Z" fill="#EBEBEB"/>
					
						<path d="M 313.700012 859.5 L 213 801.400024" fill-rule="evenodd" clip-rule="evenodd" fill="none" stroke="#E8E8E8" stroke-width="2" stroke-miterlimit="10"/>
					
						<path d="M 299.100006 869.299988 L 253.899994 843.200012" fill-rule="evenodd" clip-rule="evenodd" fill="none" stroke="#E8E8E8" stroke-width="2" stroke-miterlimit="10"/>
					
						<path d="M 247.300003 839.299988 L 202 813.200012" fill-rule="evenodd" clip-rule="evenodd" fill="none" stroke="#E8E8E8" stroke-width="2" stroke-miterlimit="10"/>
				</g>
			</g>
			<g>
				<g>
					<g>
						<path d="M 84.0999984741211 913.7999877929688 L 250.89999389648438 817.5 L 381.6000061035156 892.9000244140625 L 230 980.4000244140625 L 194.89999389648438 977.7999877929688 Z" fill="#9BD4DD"/>
					</g>
					<path d="M 334 900.299988 L 231.600006 841.200012" fill-rule="evenodd" clip-rule="evenodd" fill="#9BD4DD"/>
					<path d="M 206.60000610351562 969.7000122070312 L 233.10000610351562 979 L 198.8000030517578 976.4000244140625 Z" fill="#9BD4DD"/>
					<path d="M 322.899994 909.200012 L 220.399994 850.099976" fill-rule="evenodd" clip-rule="evenodd" fill="#9BD4DD"/>
					<path d="M 308.100006 919.299988 L 262.100006 892.700012" fill-rule="evenodd" clip-rule="evenodd" fill="#9BD4DD"/>
					<path d="M 255.300003 888.700012 L 209.300003 862.200012" fill-rule="evenodd" clip-rule="evenodd" fill="#9BD4DD"/>
				</g>
				<g>
					<g>
						<path d="M 87.0999984741211 908.2000122070312 L 251 813.5999755859375 L 379.29998779296875 887.5999755859375 L 230.5 973.5999755859375 L 196 971 Z" fill="#FFFFFF"/>
					</g>
					
						<path d="M 329.899994 897 L 229.300003 838.900024" fill-rule="evenodd" clip-rule="evenodd" fill="none" stroke="#E8E8E8" stroke-width="2" stroke-miterlimit="10"/>
					<path d="M 204.6999969482422 965.0999755859375 L 230.8000030517578 974.2999877929688 L 197 971.7000122070312 Z" fill="#EBEBEB"/>
					
						<path d="M 319 905.700012 L 218.300003 847.599976" fill-rule="evenodd" clip-rule="evenodd" fill="none" stroke="#E8E8E8" stroke-width="2" stroke-miterlimit="10"/>
					
						<path d="M 304.5 915.599976 L 259.200012 889.5" fill-rule="evenodd" clip-rule="evenodd" fill="none" stroke="#E8E8E8" stroke-width="2" stroke-miterlimit="10"/>
					
						<path d="M 252.600006 885.599976 L 207.399994 859.5" fill-rule="evenodd" clip-rule="evenodd" fill="none" stroke="#E8E8E8" stroke-width="2" stroke-miterlimit="10"/>
				</g>
			</g>
			<g>
				<path fill="#9BD4DD" d="M388.7,878.1l11-6.4v-5.5l38.4-22.2c5.3-3,13.8-3.1,19.1,0c2.9,1.7,4.2,4,3.8,6.2c0-0.1,0.1-0.3,0.1-0.4&#10;&#9;&#9;&#9;&#9;&#9;h0v5.9c0,0.1,0,0.2,0,0.2v0.1h0c-0.1,1.9-1.4,3.8-4,5.3l-38.4,22.1l-4.2-2.4l-13,7.5l-12.9-7.4L388.7,878.1L388.7,878.1z"/>
				<g>
					<path fill="#414141" d="M460.2,846.6l-38.4,22.2l-19-11v6.3l19,11l38.4-22.2c2.5-1.5,3.9-3.4,4-5.3h0v-0.1c0-0.1,0-0.2,0-0.2&#10;&#9;&#9;&#9;&#9;&#9;&#9;v-5.9h0C464,843.3,462.7,845.2,460.2,846.6z"/>
					<path d="M421.8,868.8l38.4-22.2c5.3-3,5.3-8,0.1-11c-5.2-3-13.8-3-19.1,0l-38.4,22.1L421.8,868.8z"/>
					<path d="M 460.20001220703125 852.9000244140625 L 460.20001220703125 846.5999755859375 L 421.79998779296875 868.7999877929688 L 421.79998779296875 875 Z" fill="#414141"/>
					<g>
						<g>
							<path d="M 404.6000061035156 880.2000122070312 L 404.6000061035156 877 L 391.70001220703125 869.5999755859375 L 391.70001220703125 872.7000122070312 Z" fill="#EBEBEB"/>
							<path d="M 404.20001220703125 877.2000122070312 L 404.20001220703125 879.5 L 392.1000061035156 872.5 L 392.1000061035156 870.2000122070312 Z" fill="#EBEBEB"/>
							<path d="M 392.29998779296875 871.5 L 403.8999938964844 878.2000122070312 L 403.8999938964844 879.0999755859375 L 392.29998779296875 872.4000244140625 Z" fill="#EBEBEB"/>
						</g>
						<g>
							<path d="M 406.1000061035156 861.4000244140625 L 418.8999938964844 868.7999877929688 L 404.6000061035156 877 L 391.79998779296875 869.5999755859375 Z" fill="#FFFFFF"/>
							<path d="M 403.5 866.7999877929688 L 404.79998779296875 867.5 L 402.3999938964844 868.9000244140625 L 401.1000061035156 868.2000122070312 Z" fill="#EBEBEB"/>
							<path d="M 409.5 870.2000122070312 L 408.20001220703125 869.5 L 405.79998779296875 870.9000244140625 L 407.1000061035156 871.5999755859375 Z" fill="#EBEBEB"/>
						</g>
						<path d="M 404.6000061035156 877 L 418.8999938964844 868.7999877929688 L 418.8999938964844 871.9000244140625 L 404.6000061035156 880.2000122070312 Z" fill="#E8E8E8"/>
					</g>
				</g>
			</g>
		</g>
		<g>
			<g>
				<path fill="#EBEBEB" d="M170.9,681.6v-7.9h7.8L344.5,578c6.2-3.6,15.6-4,21-0.9l209.7,121h7.8v7.7h0c0,2.4-1.8,4.9-5.1,6.8&#10;&#9;&#9;&#9;&#9;&#9;L409.3,810c-6.2,3.6-15.6,4-21,0.9L174.5,687.4C171.8,685.9,170.6,683.7,170.9,681.6z"/>
				<path fill="#C0C4D3" d="M579.3,692.7c5.4,3.1,4.7,8.5-1.5,12.1l-168.5,97.3c-6.2,3.6-15.6,4-21,0.9L174.5,679.5&#10;&#9;&#9;&#9;&#9;&#9;c-5.4-3.1-4.7-8.5,1.5-12.1l168.5-97.3c6.2-3.6,15.6-4,21-0.9L579.3,692.7z"/>
				<path fill="#FFFFFF" d="M408.1,801.4c-5.5,3.2-13.7,3.5-18.5,0.8L175.8,678.7c-4.7-2.7-4.1-7.5,1.3-10.7l168.5-97.3&#10;&#9;&#9;&#9;&#9;&#9;c5.5-3.2,13.7-3.5,18.5-0.8L578,693.5c4.7,2.7,4.1,7.5-1.3,10.7L408.1,801.4z"/>
				<path d="M 556.2000122070312 693.0999755859375 L 389 789.5999755859375 L 197.6999969482422 679.2000122070312 L 364.8999938964844 582.7000122070312 Z" fill="#474FAA"/>
			</g>
		</g>
		<g>
			<g>
				<path fill="#414141" d="M985.8,636.8c18.8,7,18.9,18.4,0.2,25.4c-18.7,7-49,7-67.8,0c-18.8-7-18.8-18.4-0.2-25.4&#10;&#9;&#9;&#9;&#9;&#9;C936.7,629.8,967,629.8,985.8,636.8z"/>
			</g>
			<g>
				<g>
					<path d="M942.4,548.2v96.1c0,3.7,3,6.7,6.7,6.7h5.8c3.7,0,6.7-3,6.7-6.7v-96.1H942.4z"/>
					<path fill="#9BD4DD" d="M1023.8,528.3l-29.3-100.6h-84.9l-29.3,100.6c-0.8,1.5-1.3,3-1.3,4.6c0,13.4,32.7,24.3,73.1,24.3&#10;&#9;&#9;&#9;&#9;&#9;&#9;s73.1-10.9,73.1-24.3C1025.1,531.3,1024.6,529.7,1023.8,528.3z"/>
				</g>
				<path d="M 994.400002 427.600006 A 42.400002 6.7 0 0 1 952 434.300006 A 42.400002 6.7 0 0 1 909.599998 427.600006 A 42.400002 6.7 0 0 1 952 420.900006 A 42.400002 6.7 0 0 1 994.400002 427.600006 Z" fill="#B7E4ED"/>
			</g>
		</g>
	</g>
</svg>