<svg height="512pt" viewBox="0 -61 512.00056 512" width="512pt" xmlns="http://www.w3.org/2000/svg"><path d="m470.542969 51.226562c-4.96875-2.09375-122.734375-51.226562-214.542969-51.226562-91.8125 0-209.574219 49.132812-214.542969 51.226562-27.265625 11.480469-45.1875 43.390626-40.796875 72.640626l33.617188 224.136718c3.757812 25.042969 23.484375 42.53125 47.976562 42.53125 5.566406 0 11.179688-.917968 16.683594-2.734375.878906-.289062 88.753906-28.996093 157.0625-28.996093 68.203125 0 156.179688 28.707031 157.058594 28.996093 5.503906 1.816407 11.113281 2.734375 16.679687 2.734375h.003907c24.492187 0 44.21875-17.488281 47.976562-42.53125l33.621094-224.132812c4.390625-29.253906-13.527344-61.164063-40.796875-72.644532zm0 0" fill="#e7f0ef"/><path d="m470.542969 51.226562c-4.96875-2.09375-122.734375-51.226562-214.542969-51.226562v358.804688c68.203125 0 156.183594 28.707031 157.058594 28.996093 5.503906 1.816407 11.117187 2.734375 16.679687 2.734375h.003907c24.492187 0 44.222656-17.488281 47.976562-42.53125l33.621094-224.132812c4.390625-29.253906-13.527344-61.164063-40.796875-72.644532zm0 0" fill="#c5e1e6"/><path d="m256 48.203125c-72.34375 0-131.199219 58.855469-131.199219 131.199219 0 72.347656 58.855469 131.203125 131.199219 131.203125s131.199219-58.855469 131.199219-131.203125c0-72.34375-58.855469-131.199219-131.199219-131.199219zm0 0" fill="#ff5b5b"/><path d="m387.199219 179.402344c0-72.34375-58.855469-131.199219-131.199219-131.199219v262.402344c72.34375 0 131.199219-58.855469 131.199219-131.203125zm0 0" fill="#ff0059"/><path d="m328.296875 140.304688h-33.195313v-33.199219c0-8.28125-6.71875-14.996094-15-14.996094h-48.199218c-8.285156 0-15 6.714844-15 14.996094v33.199219h-33.199219c-8.285156 0-15 6.714843-15 15v48.199218c0 8.285156 6.714844 15 15 15h33.199219v33.199219c0 8.28125 6.714844 15 15 15h48.199218c8.28125 0 15-6.71875 15-15v-33.199219h33.195313c8.285156 0 15-6.714844 15-15v-48.199218c0-8.285157-6.714844-15-15-15zm0 0" fill="#e7f0ef"/><path d="m328.296875 140.304688h-33.195313v-33.199219c0-8.28125-6.71875-14.996094-15-14.996094h-24.101562v174.59375h24.101562c8.28125 0 15-6.714844 15-15v-33.199219h33.195313c8.285156 0 15-6.714844 15-15v-48.199218c0-8.285157-6.714844-15-15-15zm0 0" fill="#c5e1e6"/></svg>