<?xml version="1.0" encoding="utf-8"?>
<svg id="master-artboard" viewBox="0 0 1400 980" version="1.1" xmlns="http://www.w3.org/2000/svg" x="0px" y="0px" width="1400px" height="980px" enable-background="new 0 0 1400 980">

<g id="Layer_1">
	<path d="M 0 0 H 1400 V 980 H 0 V 0 Z" fill="#A8E0F9"/>
	<g>
		<path d="M 0 332 H 1400 V 602 H 0 V 332 Z" fill="#63BCB8"/>
		<g>
			<path fill="#BFD6BA" d="M1395.5,341.4c-0.3,0.6-0.4,1.4-0.4,2.1c0,1.1,0.3,2.2,0.9,3c0.2,0.3,0.4,0.6,0.7,0.8&#10;&#9;&#9;&#9;&#9;c0.5,0.5,1.1,0.9,1.7,1.2c0.5,0.2,1.1,0.3,1.6,0.4v-10.7c-1.7,0.1-3.1,1-4,2.3C1395.8,340.8,1395.6,341.1,1395.5,341.4z"/>
			<path fill="#BFD6BA" d="M1395.1,451.3c0,1.1,0.3,2.2,0.9,3c0.2,0.3,0.4,0.6,0.7,0.8c0.5,0.5,1.1,0.9,1.7,1.2&#10;&#9;&#9;&#9;&#9;c0.5,0.2,1.1,0.3,1.6,0.4v-10.7c-2,0.2-3.7,1.4-4.5,3.2C1395.2,449.8,1395.1,450.5,1395.1,451.3z"/>
			<path fill="#BFD6BA" d="M1400,402.7v-10.7c-2.8,0.2-4.9,2.5-4.9,5.3C1395.1,400.2,1397.2,402.5,1400,402.7z"/>
			<path fill="#BFD6BA" d="M1368.1,424.3c0,3,2.4,5.4,5.4,5.4c3,0,5.4-2.4,5.4-5.4c0-3-2.4-5.4-5.4-5.4&#10;&#9;&#9;&#9;&#9;C1370.5,418.9,1368.1,421.4,1368.1,424.3z"/>
			<path fill="#BFD6BA" d="M1368.1,370.5c0,3,2.4,5.4,5.4,5.4c3,0,5.4-2.4,5.4-5.4c0-3-2.4-5.4-5.4-5.4&#10;&#9;&#9;&#9;&#9;C1370.5,365.1,1368.1,367.5,1368.1,370.5z"/>
			<path fill="#BFD6BA" d="M1346.6,445.9c-1.1,0-2.2,0.3-3,0.9c-0.3,0.2-0.6,0.4-0.8,0.7c-0.5,0.5-0.9,1.1-1.2,1.7s-0.4,1.4-0.4,2.1&#10;&#9;&#9;&#9;&#9;c0,0.7,0.2,1.5,0.4,2.1c0.1,0.3,0.3,0.6,0.5,0.9s0.4,0.6,0.7,0.8c0.2,0.2,0.5,0.5,0.8,0.7c0.3,0.2,0.6,0.4,0.9,0.5&#10;&#9;&#9;&#9;&#9;c0.6,0.3,1.4,0.4,2.1,0.4c0.7,0,1.5-0.2,2.1-0.4c0.6-0.3,1.2-0.7,1.7-1.2c0.2-0.2,0.5-0.5,0.7-0.8c0.6-0.9,0.9-1.9,0.9-3&#10;&#9;&#9;&#9;&#9;c0-0.7-0.2-1.5-0.4-2.1c-0.1-0.3-0.3-0.6-0.5-0.9C1350.1,446.8,1348.4,445.9,1346.6,445.9z"/>
			<path fill="#BFD6BA" d="M1395.1,559c0,0.7,0.2,1.5,0.4,2.1c0.8,1.8,2.5,3.1,4.5,3.2v-10.7c-2,0.2-3.7,1.4-4.5,3.2&#10;&#9;&#9;&#9;&#9;C1395.2,557.6,1395.1,558.3,1395.1,559z"/>
			<path fill="#BFD6BA" d="M1400,510.5v-10.7c-2.8,0.2-4.9,2.5-4.9,5.3C1395.1,508,1397.2,510.3,1400,510.5z"/>
			<path fill="#BFD6BA" d="M1368.1,532.1c0,3,2.4,5.4,5.4,5.4c3,0,5.4-2.4,5.4-5.4c0-3-2.4-5.4-5.4-5.4&#10;&#9;&#9;&#9;&#9;C1370.5,526.7,1368.1,529.1,1368.1,532.1z"/>
			<path fill="#BFD6BA" d="M1368.1,478.2c0,3,2.4,5.4,5.4,5.4c3,0,5.4-2.4,5.4-5.4c0-3-2.4-5.4-5.4-5.4&#10;&#9;&#9;&#9;&#9;C1370.5,472.8,1368.1,475.2,1368.1,478.2z"/>
			<path fill="#BFD6BA" d="M1346.6,499.8c-1.1,0-2.2,0.3-3,0.9c-0.3,0.2-0.6,0.4-0.8,0.7c-0.5,0.5-0.9,1.1-1.2,1.7s-0.4,1.4-0.4,2.1&#10;&#9;&#9;&#9;&#9;c0,0.7,0.2,1.5,0.4,2.1s0.7,1.2,1.2,1.7c0.2,0.2,0.5,0.5,0.8,0.7c0.9,0.6,1.9,0.9,3,0.9c1.9,0,3.5-0.9,4.5-2.4&#10;&#9;&#9;&#9;&#9;c0.6-0.9,0.9-1.9,0.9-3c0-1.1-0.3-2.2-0.9-3C1350.1,500.7,1348.4,499.8,1346.6,499.8z"/>
			<path fill="#BFD6BA" d="M1368.1,586c0,3,2.4,5.4,5.4,5.4c3,0,5.4-2.4,5.4-5.4c0-3-2.4-5.4-5.4-5.4&#10;&#9;&#9;&#9;&#9;C1370.5,580.6,1368.1,583,1368.1,586z"/>
			<path fill="#BFD6BA" d="M1292.7,338.1c-1.9,0-3.5,0.9-4.5,2.4c-0.2,0.3-0.4,0.6-0.5,0.9c-0.3,0.6-0.4,1.4-0.4,2.1&#10;&#9;&#9;&#9;&#9;c0,1.1,0.3,2.2,0.9,3c0.2,0.3,0.4,0.6,0.7,0.8c0.5,0.5,1.1,0.9,1.7,1.2c0.6,0.3,1.4,0.4,2.1,0.4c0.7,0,1.5-0.2,2.1-0.4&#10;&#9;&#9;&#9;&#9;c0.6-0.3,1.2-0.7,1.7-1.2c0.2-0.2,0.5-0.5,0.7-0.8c0.6-0.9,0.9-1.9,0.9-3c0-0.7-0.2-1.5-0.4-2.1c-0.1-0.3-0.3-0.6-0.5-0.9&#10;&#9;&#9;&#9;&#9;C1296.2,339.1,1294.6,338.1,1292.7,338.1z"/>
			<path fill="#BFD6BA" d="M1346.6,338.1c-1.1,0-2.2,0.3-3,0.9c-0.3,0.2-0.6,0.4-0.8,0.7c-0.2,0.2-0.5,0.5-0.7,0.8s-0.4,0.6-0.5,0.9&#10;&#9;&#9;&#9;&#9;c-0.3,0.6-0.4,1.4-0.4,2.1c0,0.7,0.2,1.5,0.4,2.1c0.1,0.3,0.3,0.6,0.5,0.9c0.2,0.3,0.4,0.6,0.7,0.8c0.2,0.2,0.5,0.5,0.8,0.7&#10;&#9;&#9;&#9;&#9;c0.3,0.2,0.6,0.4,0.9,0.5c0.6,0.3,1.4,0.4,2.1,0.4c0.7,0,1.5-0.2,2.1-0.4c0.6-0.3,1.2-0.7,1.7-1.2c0.2-0.2,0.5-0.5,0.7-0.8&#10;&#9;&#9;&#9;&#9;c0.6-0.9,0.9-1.9,0.9-3c0-0.7-0.2-1.5-0.4-2.1c-0.1-0.3-0.3-0.6-0.5-0.9C1350.1,339.1,1348.4,338.1,1346.6,338.1z"/>
			<path fill="#BFD6BA" d="M1292.7,445.9c-2.2,0-4.1,1.4-5,3.3c-0.3,0.6-0.4,1.4-0.4,2.1c0,1.1,0.3,2.2,0.9,3&#10;&#9;&#9;&#9;&#9;c0.2,0.3,0.4,0.6,0.7,0.8c0.5,0.5,1.1,0.9,1.7,1.2c0.6,0.3,1.4,0.4,2.1,0.4c0.7,0,1.5-0.2,2.1-0.4c0.6-0.3,1.2-0.7,1.7-1.2&#10;&#9;&#9;&#9;&#9;c0.2-0.2,0.5-0.5,0.7-0.8c0.6-0.9,0.9-1.9,0.9-3c0-0.7-0.2-1.5-0.4-2.1C1296.8,447.2,1294.9,445.9,1292.7,445.9z"/>
			<path fill="#BFD6BA" d="M1292.7,392c-3,0-5.4,2.4-5.4,5.4c0,3,2.4,5.4,5.4,5.4c3,0,5.4-2.4,5.4-5.4&#10;&#9;&#9;&#9;&#9;C1298.1,394.4,1295.7,392,1292.7,392z"/>
			<path fill="#BFD6BA" d="M1346.6,392c-1.1,0-2.2,0.3-3,0.9c-0.3,0.2-0.6,0.4-0.8,0.7c-0.5,0.5-0.9,1.1-1.2,1.7s-0.4,1.4-0.4,2.1&#10;&#9;&#9;&#9;&#9;c0,0.7,0.2,1.5,0.4,2.1s0.7,1.2,1.2,1.7c0.2,0.2,0.5,0.5,0.8,0.7c0.9,0.6,1.9,0.9,3,0.9c1.9,0,3.5-0.9,4.5-2.4&#10;&#9;&#9;&#9;&#9;c0.6-0.9,0.9-1.9,0.9-3c0-1.1-0.3-2.2-0.9-3C1350.1,392.9,1348.4,392,1346.6,392z"/>
			<path fill="#BFD6BA" d="M1314.2,424.3c0,3,2.4,5.4,5.4,5.4c3,0,5.4-2.4,5.4-5.4c0-3-2.4-5.4-5.4-5.4&#10;&#9;&#9;&#9;&#9;C1316.7,418.9,1314.2,421.4,1314.2,424.3z"/>
			<path fill="#BFD6BA" d="M1260.4,424.3c0,3,2.4,5.4,5.4,5.4c3,0,5.4-2.4,5.4-5.4c0-3-2.4-5.4-5.4-5.4&#10;&#9;&#9;&#9;&#9;C1262.8,418.9,1260.4,421.4,1260.4,424.3z"/>
			<path fill="#BFD6BA" d="M1314.2,370.5c0,3,2.4,5.4,5.4,5.4c3,0,5.4-2.4,5.4-5.4c0-3-2.4-5.4-5.4-5.4&#10;&#9;&#9;&#9;&#9;C1316.7,365.1,1314.2,367.5,1314.2,370.5z"/>
			<path fill="#BFD6BA" d="M1260.4,370.5c0,3,2.4,5.4,5.4,5.4c3,0,5.4-2.4,5.4-5.4c0-3-2.4-5.4-5.4-5.4&#10;&#9;&#9;&#9;&#9;C1262.8,365.1,1260.4,367.5,1260.4,370.5z"/>
			<path fill="#BFD6BA" d="M1240.9,446.3c-0.6-0.3-1.4-0.4-2.1-0.4c-1.1,0-2.2,0.3-3,0.9c-0.3,0.2-0.6,0.4-0.8,0.7&#10;&#9;&#9;&#9;&#9;c-0.5,0.5-0.9,1.1-1.2,1.7c-0.3,0.6-0.4,1.4-0.4,2.1c0,0.7,0.2,1.5,0.4,2.1c0.1,0.3,0.3,0.6,0.5,0.9c0.2,0.3,0.4,0.6,0.7,0.8&#10;&#9;&#9;&#9;&#9;c0.2,0.2,0.5,0.5,0.8,0.7s0.6,0.4,0.9,0.5c0.6,0.3,1.4,0.4,2.1,0.4c0.7,0,1.5-0.2,2.1-0.4c0.6-0.3,1.2-0.7,1.7-1.2&#10;&#9;&#9;&#9;&#9;c0.2-0.2,0.5-0.5,0.7-0.8c0.6-0.9,0.9-1.9,0.9-3c0-0.7-0.2-1.5-0.4-2.1C1243.2,447.9,1242.2,446.9,1240.9,446.3z"/>
			<path fill="#BFD6BA" d="M1292.7,499.8c-3,0-5.4,2.4-5.4,5.4c0,3,2.4,5.4,5.4,5.4c3,0,5.4-2.4,5.4-5.4&#10;&#9;&#9;&#9;&#9;C1298.1,502.2,1295.7,499.8,1292.7,499.8z"/>
			<path fill="#BFD6BA" d="M1314.2,532.1c0,3,2.4,5.4,5.4,5.4c3,0,5.4-2.4,5.4-5.4c0-3-2.4-5.4-5.4-5.4&#10;&#9;&#9;&#9;&#9;C1316.7,526.7,1314.2,529.1,1314.2,532.1z"/>
			<path fill="#BFD6BA" d="M1260.4,532.1c0,3,2.4,5.4,5.4,5.4c3,0,5.4-2.4,5.4-5.4c0-3-2.4-5.4-5.4-5.4&#10;&#9;&#9;&#9;&#9;C1262.8,526.7,1260.4,529.1,1260.4,532.1z"/>
			<path fill="#BFD6BA" d="M1314.2,478.2c0,3,2.4,5.4,5.4,5.4c3,0,5.4-2.4,5.4-5.4c0-3-2.4-5.4-5.4-5.4&#10;&#9;&#9;&#9;&#9;C1316.7,472.8,1314.2,475.2,1314.2,478.2z"/>
			<path fill="#BFD6BA" d="M1260.4,478.2c0,3,2.4,5.4,5.4,5.4c3,0,5.4-2.4,5.4-5.4c0-3-2.4-5.4-5.4-5.4&#10;&#9;&#9;&#9;&#9;C1262.8,472.8,1260.4,475.2,1260.4,478.2z"/>
			<path fill="#BFD6BA" d="M1238.8,499.8c-1.1,0-2.2,0.3-3,0.9c-0.3,0.2-0.6,0.4-0.8,0.7c-0.5,0.5-0.9,1.1-1.2,1.7&#10;&#9;&#9;&#9;&#9;c-0.3,0.6-0.4,1.4-0.4,2.1c0,0.7,0.2,1.5,0.4,2.1c0.3,0.6,0.7,1.2,1.2,1.7c0.2,0.2,0.5,0.5,0.8,0.7c0.9,0.6,1.9,0.9,3,0.9&#10;&#9;&#9;&#9;&#9;c0.7,0,1.5-0.2,2.1-0.4c1.9-0.8,3.3-2.7,3.3-5c0-2.2-1.4-4.1-3.3-5C1240.3,499.9,1239.6,499.8,1238.8,499.8z"/>
			<path fill="#BFD6BA" d="M1314.2,586c0,3,2.4,5.4,5.4,5.4c3,0,5.4-2.4,5.4-5.4c0-3-2.4-5.4-5.4-5.4&#10;&#9;&#9;&#9;&#9;C1316.7,580.6,1314.2,583,1314.2,586z"/>
			<path fill="#BFD6BA" d="M1260.4,586c0,3,2.4,5.4,5.4,5.4c3,0,5.4-2.4,5.4-5.4c0-3-2.4-5.4-5.4-5.4&#10;&#9;&#9;&#9;&#9;C1262.8,580.6,1260.4,583,1260.4,586z"/>
			<path fill="#BFD6BA" d="M1292.7,553.6c-2.2,0-4.1,1.4-5,3.3c-0.3,0.6-0.4,1.4-0.4,2.1c0,0.7,0.2,1.5,0.4,2.1&#10;&#9;&#9;&#9;&#9;c0.8,1.9,2.7,3.3,5,3.3c2.2,0,4.1-1.4,5-3.3c0.3-0.6,0.4-1.4,0.4-2.1c0-0.7-0.2-1.5-0.4-2.1&#10;&#9;&#9;&#9;&#9;C1296.8,555,1294.9,553.6,1292.7,553.6z"/>
			<path fill="#BFD6BA" d="M1346.6,553.6c-1.1,0-2.2,0.3-3,0.9c-0.3,0.2-0.6,0.4-0.8,0.7c-0.5,0.5-0.9,1.1-1.2,1.7&#10;&#9;&#9;&#9;&#9;c-0.3,0.6-0.4,1.4-0.4,2.1c0,0.7,0.2,1.5,0.4,2.1c0.3,0.6,0.7,1.2,1.2,1.7c0.2,0.2,0.5,0.5,0.8,0.7c0.9,0.6,1.9,0.9,3,0.9&#10;&#9;&#9;&#9;&#9;c1.9,0,3.5-0.9,4.5-2.4c0.2-0.3,0.4-0.6,0.5-0.9c0.3-0.6,0.4-1.4,0.4-2.1c0-0.7-0.2-1.5-0.4-2.1c-0.1-0.3-0.3-0.6-0.5-0.9&#10;&#9;&#9;&#9;&#9;C1350.1,554.6,1348.4,553.6,1346.6,553.6z"/>
			<path fill="#BFD6BA" d="M1184.9,338.1c-1.9,0-3.5,0.9-4.5,2.4c-0.2,0.3-0.4,0.6-0.5,0.9c-0.3,0.6-0.4,1.4-0.4,2.1&#10;&#9;&#9;&#9;&#9;c0,1.1,0.3,2.2,0.9,3c0.2,0.3,0.4,0.6,0.7,0.8c0.5,0.5,1.1,0.9,1.7,1.2c0.6,0.3,1.4,0.4,2.1,0.4c0.7,0,1.5-0.2,2.1-0.4&#10;&#9;&#9;&#9;&#9;c0.6-0.3,1.2-0.7,1.7-1.2c0.2-0.2,0.5-0.5,0.7-0.8c0.6-0.9,0.9-1.9,0.9-3c0-0.7-0.2-1.5-0.4-2.1c-0.1-0.3-0.3-0.6-0.5-0.9&#10;&#9;&#9;&#9;&#9;C1188.4,339.1,1186.8,338.1,1184.9,338.1z"/>
			<path fill="#BFD6BA" d="M1240.9,338.5c-0.6-0.3-1.4-0.4-2.1-0.4c-1.1,0-2.2,0.3-3,0.9c-0.3,0.2-0.6,0.4-0.8,0.7s-0.5,0.5-0.7,0.8&#10;&#9;&#9;&#9;&#9;c-0.2,0.3-0.4,0.6-0.5,0.9c-0.3,0.6-0.4,1.4-0.4,2.1c0,0.7,0.2,1.5,0.4,2.1c0.1,0.3,0.3,0.6,0.5,0.9c0.2,0.3,0.4,0.6,0.7,0.8&#10;&#9;&#9;&#9;&#9;c0.2,0.2,0.5,0.5,0.8,0.7s0.6,0.4,0.9,0.5c0.6,0.3,1.4,0.4,2.1,0.4c0.7,0,1.5-0.2,2.1-0.4c0.6-0.3,1.2-0.7,1.7-1.2&#10;&#9;&#9;&#9;&#9;c0.2-0.2,0.5-0.5,0.7-0.8c0.6-0.9,0.9-1.9,0.9-3c0-0.7-0.2-1.5-0.4-2.1c-0.1-0.3-0.3-0.6-0.5-0.9&#10;&#9;&#9;&#9;&#9;C1242.7,339.6,1241.9,339,1240.9,338.5z"/>
			<path fill="#BFD6BA" d="M1184.9,445.9c-2.2,0-4.1,1.4-5,3.3c-0.3,0.6-0.4,1.4-0.4,2.1c0,1.1,0.3,2.2,0.9,3&#10;&#9;&#9;&#9;&#9;c0.2,0.3,0.4,0.6,0.7,0.8c0.5,0.5,1.1,0.9,1.7,1.2c0.6,0.3,1.4,0.4,2.1,0.4c0.7,0,1.5-0.2,2.1-0.4c0.6-0.3,1.2-0.7,1.7-1.2&#10;&#9;&#9;&#9;&#9;c0.2-0.2,0.5-0.5,0.7-0.8c0.6-0.9,0.9-1.9,0.9-3c0-0.7-0.2-1.5-0.4-2.1C1189.1,447.2,1187.2,445.9,1184.9,445.9z"/>
			<path fill="#BFD6BA" d="M1179.5,397.4c0,3,2.4,5.4,5.4,5.4c3,0,5.4-2.4,5.4-5.4c0-3-2.4-5.4-5.4-5.4&#10;&#9;&#9;&#9;&#9;C1182,392,1179.5,394.4,1179.5,397.4z"/>
			<path fill="#BFD6BA" d="M1238.8,392c-1.1,0-2.2,0.3-3,0.9c-0.3,0.2-0.6,0.4-0.8,0.7c-0.5,0.5-0.9,1.1-1.2,1.7&#10;&#9;&#9;&#9;&#9;c-0.3,0.6-0.4,1.4-0.4,2.1c0,0.7,0.2,1.5,0.4,2.1c0.3,0.6,0.7,1.2,1.2,1.7c0.2,0.2,0.5,0.5,0.8,0.7c0.9,0.6,1.9,0.9,3,0.9&#10;&#9;&#9;&#9;&#9;c0.7,0,1.5-0.2,2.1-0.4c1.9-0.8,3.3-2.7,3.3-5c0-2.2-1.4-4.1-3.3-5C1240.3,392.2,1239.6,392,1238.8,392z"/>
			<path fill="#BFD6BA" d="M1206.5,424.3c0,3,2.4,5.4,5.4,5.4c3,0,5.4-2.4,5.4-5.4c0-3-2.4-5.4-5.4-5.4&#10;&#9;&#9;&#9;&#9;C1208.9,418.9,1206.5,421.4,1206.5,424.3z"/>
			<path fill="#BFD6BA" d="M1152.6,424.3c0,3,2.4,5.4,5.4,5.4c3,0,5.4-2.4,5.4-5.4c0-3-2.4-5.4-5.4-5.4&#10;&#9;&#9;&#9;&#9;C1155,418.9,1152.6,421.4,1152.6,424.3z"/>
			<path fill="#BFD6BA" d="M1206.5,370.5c0,3,2.4,5.4,5.4,5.4c3,0,5.4-2.4,5.4-5.4c0-3-2.4-5.4-5.4-5.4&#10;&#9;&#9;&#9;&#9;C1208.9,365.1,1206.5,367.5,1206.5,370.5z"/>
			<path fill="#BFD6BA" d="M1152.6,370.5c0,3,2.4,5.4,5.4,5.4c3,0,5.4-2.4,5.4-5.4c0-3-2.4-5.4-5.4-5.4&#10;&#9;&#9;&#9;&#9;C1155,365.1,1152.6,367.5,1152.6,370.5z"/>
			<path fill="#BFD6BA" d="M1133.1,446.3c-0.6-0.3-1.4-0.4-2.1-0.4c-0.7,0-1.5,0.2-2.1,0.4c-1.3,0.5-2.3,1.6-2.9,2.9&#10;&#9;&#9;&#9;&#9;c-0.3,0.6-0.4,1.4-0.4,2.1c0,1.1,0.3,2.2,0.9,3c0.2,0.3,0.4,0.6,0.7,0.8c0.5,0.5,1.1,0.9,1.7,1.2c0.6,0.3,1.4,0.4,2.1,0.4&#10;&#9;&#9;&#9;&#9;c0.7,0,1.5-0.2,2.1-0.4c0.6-0.3,1.2-0.7,1.7-1.2c0.2-0.2,0.5-0.5,0.7-0.8c0.6-0.9,0.9-1.9,0.9-3c0-0.7-0.2-1.5-0.4-2.1&#10;&#9;&#9;&#9;&#9;C1135.5,447.9,1134.4,446.9,1133.1,446.3z"/>
			<path fill="#BFD6BA" d="M1179.5,505.2c0,3,2.4,5.4,5.4,5.4c3,0,5.4-2.4,5.4-5.4c0-3-2.4-5.4-5.4-5.4&#10;&#9;&#9;&#9;&#9;C1182,499.8,1179.5,502.2,1179.5,505.2z"/>
			<path fill="#BFD6BA" d="M1206.5,532.1c0,3,2.4,5.4,5.4,5.4c3,0,5.4-2.4,5.4-5.4c0-3-2.4-5.4-5.4-5.4&#10;&#9;&#9;&#9;&#9;C1208.9,526.7,1206.5,529.1,1206.5,532.1z"/>
			<path fill="#BFD6BA" d="M1152.6,532.1c0,3,2.4,5.4,5.4,5.4c3,0,5.4-2.4,5.4-5.4c0-3-2.4-5.4-5.4-5.4&#10;&#9;&#9;&#9;&#9;C1155,526.7,1152.6,529.1,1152.6,532.1z"/>
			<path fill="#BFD6BA" d="M1206.5,478.2c0,3,2.4,5.4,5.4,5.4c3,0,5.4-2.4,5.4-5.4c0-3-2.4-5.4-5.4-5.4&#10;&#9;&#9;&#9;&#9;C1208.9,472.8,1206.5,475.2,1206.5,478.2z"/>
			<path fill="#BFD6BA" d="M1152.6,478.2c0,3,2.4,5.4,5.4,5.4c3,0,5.4-2.4,5.4-5.4c0-3-2.4-5.4-5.4-5.4&#10;&#9;&#9;&#9;&#9;C1155,472.8,1152.6,475.2,1152.6,478.2z"/>
			<path fill="#BFD6BA" d="M1131.1,499.8c-0.7,0-1.5,0.2-2.1,0.4c-1.9,0.8-3.3,2.7-3.3,5c0,2.2,1.4,4.1,3.3,5&#10;&#9;&#9;&#9;&#9;c0.6,0.3,1.4,0.4,2.1,0.4c0.7,0,1.5-0.2,2.1-0.4c1.9-0.8,3.3-2.7,3.3-5c0-2.2-1.4-4.1-3.3-5&#10;&#9;&#9;&#9;&#9;C1132.5,499.9,1131.8,499.8,1131.1,499.8z"/>
			<path fill="#BFD6BA" d="M1206.5,586c0,3,2.4,5.4,5.4,5.4c3,0,5.4-2.4,5.4-5.4c0-3-2.4-5.4-5.4-5.4&#10;&#9;&#9;&#9;&#9;C1208.9,580.6,1206.5,583,1206.5,586z"/>
			<path fill="#BFD6BA" d="M1152.6,586c0,3,2.4,5.4,5.4,5.4c3,0,5.4-2.4,5.4-5.4c0-3-2.4-5.4-5.4-5.4&#10;&#9;&#9;&#9;&#9;C1155,580.6,1152.6,583,1152.6,586z"/>
			<path fill="#BFD6BA" d="M1184.9,553.6c-2.2,0-4.1,1.4-5,3.3c-0.3,0.6-0.4,1.4-0.4,2.1c0,0.7,0.2,1.5,0.4,2.1&#10;&#9;&#9;&#9;&#9;c0.8,1.9,2.7,3.3,5,3.3c2.2,0,4.1-1.4,5-3.3c0.3-0.6,0.4-1.4,0.4-2.1c0-0.7-0.2-1.5-0.4-2.1&#10;&#9;&#9;&#9;&#9;C1189.1,555,1187.2,553.6,1184.9,553.6z"/>
			<path fill="#BFD6BA" d="M1240.9,554.1c-0.6-0.3-1.4-0.4-2.1-0.4c-1.1,0-2.2,0.3-3,0.9c-0.3,0.2-0.6,0.4-0.8,0.7&#10;&#9;&#9;&#9;&#9;c-0.5,0.5-0.9,1.1-1.2,1.7c-0.3,0.6-0.4,1.4-0.4,2.1c0,0.7,0.2,1.5,0.4,2.1c0.3,0.6,0.7,1.2,1.2,1.7c0.2,0.2,0.5,0.5,0.8,0.7&#10;&#9;&#9;&#9;&#9;c0.9,0.6,1.9,0.9,3,0.9c0.7,0,1.5-0.2,2.1-0.4c1.3-0.5,2.3-1.6,2.9-2.9c0.3-0.6,0.4-1.4,0.4-2.1c0-0.7-0.2-1.5-0.4-2.1&#10;&#9;&#9;&#9;&#9;C1243.2,555.7,1242.2,554.6,1240.9,554.1z"/>
			<path fill="#BFD6BA" d="M1077.2,338.1c-1.9,0-3.5,0.9-4.5,2.4c-0.2,0.3-0.4,0.6-0.5,0.9c-0.3,0.6-0.4,1.4-0.4,2.1&#10;&#9;&#9;&#9;&#9;c0,1.1,0.3,2.2,0.9,3c0.2,0.3,0.4,0.6,0.7,0.8c0.5,0.5,1.1,0.9,1.7,1.2c0.6,0.3,1.4,0.4,2.1,0.4c0.7,0,1.5-0.2,2.1-0.4&#10;&#9;&#9;&#9;&#9;c0.6-0.3,1.2-0.7,1.7-1.2c0.2-0.2,0.5-0.5,0.7-0.8c0.6-0.9,0.9-1.9,0.9-3c0-0.7-0.2-1.5-0.4-2.1c-0.1-0.3-0.3-0.6-0.5-0.9&#10;&#9;&#9;&#9;&#9;C1080.7,339.1,1079,338.1,1077.2,338.1z"/>
			<path fill="#BFD6BA" d="M1133.1,338.5c-0.6-0.3-1.4-0.4-2.1-0.4c-0.7,0-1.5,0.2-2.1,0.4c-1,0.4-1.8,1.1-2.4,2&#10;&#9;&#9;&#9;&#9;c-0.2,0.3-0.4,0.6-0.5,0.9c-0.3,0.6-0.4,1.4-0.4,2.1c0,1.1,0.3,2.2,0.9,3c0.2,0.3,0.4,0.6,0.7,0.8c0.5,0.5,1.1,0.9,1.7,1.2&#10;&#9;&#9;&#9;&#9;c0.6,0.3,1.4,0.4,2.1,0.4c0.7,0,1.5-0.2,2.1-0.4c0.6-0.3,1.2-0.7,1.7-1.2c0.2-0.2,0.5-0.5,0.7-0.8c0.6-0.9,0.9-1.9,0.9-3&#10;&#9;&#9;&#9;&#9;c0-0.7-0.2-1.5-0.4-2.1c-0.1-0.3-0.3-0.6-0.5-0.9C1134.9,339.6,1134.1,339,1133.1,338.5z"/>
			<path fill="#BFD6BA" d="M1077.2,445.9c-2.2,0-4.1,1.4-5,3.3c-0.3,0.6-0.4,1.4-0.4,2.1c0,1.1,0.3,2.2,0.9,3&#10;&#9;&#9;&#9;&#9;c0.2,0.3,0.4,0.6,0.7,0.8c0.5,0.5,1.1,0.9,1.7,1.2c0.6,0.3,1.4,0.4,2.1,0.4c0.7,0,1.5-0.2,2.1-0.4c0.6-0.3,1.2-0.7,1.7-1.2&#10;&#9;&#9;&#9;&#9;c0.2-0.2,0.5-0.5,0.7-0.8c0.6-0.9,0.9-1.9,0.9-3c0-0.7-0.2-1.5-0.4-2.1C1081.3,447.2,1079.4,445.9,1077.2,445.9z"/>
			<path fill="#BFD6BA" d="M1071.8,397.4c0,3,2.4,5.4,5.4,5.4c3,0,5.4-2.4,5.4-5.4c0-3-2.4-5.4-5.4-5.4&#10;&#9;&#9;&#9;&#9;C1074.2,392,1071.8,394.4,1071.8,397.4z"/>
			<path fill="#BFD6BA" d="M1131.1,392c-0.7,0-1.5,0.2-2.1,0.4c-1.9,0.8-3.3,2.7-3.3,5c0,2.2,1.4,4.1,3.3,5c0.6,0.3,1.4,0.4,2.1,0.4&#10;&#9;&#9;&#9;&#9;c0.7,0,1.5-0.2,2.1-0.4c1.9-0.8,3.3-2.7,3.3-5c0-2.2-1.4-4.1-3.3-5C1132.5,392.2,1131.8,392,1131.1,392z"/>
			<path fill="#BFD6BA" d="M1098.7,424.3c0,3,2.4,5.4,5.4,5.4c3,0,5.4-2.4,5.4-5.4c0-3-2.4-5.4-5.4-5.4&#10;&#9;&#9;&#9;&#9;C1101.1,418.9,1098.7,421.4,1098.7,424.3z"/>
			<path fill="#BFD6BA" d="M1044.8,424.3c0,3,2.4,5.4,5.4,5.4c3,0,5.4-2.4,5.4-5.4c0-3-2.4-5.4-5.4-5.4&#10;&#9;&#9;&#9;&#9;C1047.3,418.9,1044.8,421.4,1044.8,424.3z"/>
			<path fill="#BFD6BA" d="M1098.7,370.5c0,3,2.4,5.4,5.4,5.4c3,0,5.4-2.4,5.4-5.4c0-3-2.4-5.4-5.4-5.4&#10;&#9;&#9;&#9;&#9;C1101.1,365.1,1098.7,367.5,1098.7,370.5z"/>
			<path fill="#BFD6BA" d="M1044.8,370.5c0,3,2.4,5.4,5.4,5.4c3,0,5.4-2.4,5.4-5.4c0-3-2.4-5.4-5.4-5.4&#10;&#9;&#9;&#9;&#9;C1047.3,365.1,1044.8,367.5,1044.8,370.5z"/>
			<path fill="#BFD6BA" d="M1023.3,445.9c-1.1,0-2.2,0.3-3,0.9c-0.3,0.2-0.6,0.4-0.8,0.7c-0.5,0.5-0.9,1.1-1.2,1.7&#10;&#9;&#9;&#9;&#9;c-0.3,0.6-0.4,1.4-0.4,2.1c0,0.7,0.2,1.5,0.4,2.1c0.1,0.3,0.3,0.6,0.5,0.9c0.2,0.3,0.4,0.6,0.7,0.8c0.2,0.2,0.5,0.5,0.8,0.7&#10;&#9;&#9;&#9;&#9;c0.3,0.2,0.6,0.4,0.9,0.5c0.6,0.3,1.4,0.4,2.1,0.4c0.7,0,1.5-0.2,2.1-0.4c0.6-0.3,1.2-0.7,1.7-1.2c0.2-0.2,0.5-0.5,0.7-0.8&#10;&#9;&#9;&#9;&#9;c0.6-0.9,0.9-1.9,0.9-3c0-0.7-0.2-1.5-0.4-2.1C1027.4,447.2,1025.5,445.9,1023.3,445.9z"/>
			<path fill="#BFD6BA" d="M1071.8,505.2c0,3,2.4,5.4,5.4,5.4c3,0,5.4-2.4,5.4-5.4c0-3-2.4-5.4-5.4-5.4&#10;&#9;&#9;&#9;&#9;C1074.2,499.8,1071.8,502.2,1071.8,505.2z"/>
			<path fill="#BFD6BA" d="M1098.7,532.1c0,3,2.4,5.4,5.4,5.4c3,0,5.4-2.4,5.4-5.4c0-3-2.4-5.4-5.4-5.4&#10;&#9;&#9;&#9;&#9;C1101.1,526.7,1098.7,529.1,1098.7,532.1z"/>
			<path fill="#BFD6BA" d="M1044.8,532.1c0,3,2.4,5.4,5.4,5.4c3,0,5.4-2.4,5.4-5.4c0-3-2.4-5.4-5.4-5.4&#10;&#9;&#9;&#9;&#9;C1047.3,526.7,1044.8,529.1,1044.8,532.1z"/>
			<path fill="#BFD6BA" d="M1098.7,478.2c0,3,2.4,5.4,5.4,5.4c3,0,5.4-2.4,5.4-5.4c0-3-2.4-5.4-5.4-5.4&#10;&#9;&#9;&#9;&#9;C1101.1,472.8,1098.7,475.2,1098.7,478.2z"/>
			<path fill="#BFD6BA" d="M1044.8,478.2c0,3,2.4,5.4,5.4,5.4c3,0,5.4-2.4,5.4-5.4c0-3-2.4-5.4-5.4-5.4&#10;&#9;&#9;&#9;&#9;C1047.3,472.8,1044.8,475.2,1044.8,478.2z"/>
			<path fill="#BFD6BA" d="M1020.3,500.7c-0.3,0.2-0.6,0.4-0.8,0.7c-0.5,0.5-0.9,1.1-1.2,1.7c-0.3,0.6-0.4,1.4-0.4,2.1&#10;&#9;&#9;&#9;&#9;c0,0.7,0.2,1.5,0.4,2.1c0.3,0.6,0.7,1.2,1.2,1.7c0.2,0.2,0.5,0.5,0.8,0.7c0.9,0.6,1.9,0.9,3,0.9c3,0,5.4-2.4,5.4-5.4&#10;&#9;&#9;&#9;&#9;c0-3-2.4-5.4-5.4-5.4C1022.2,499.8,1021.1,500.1,1020.3,500.7z"/>
			<path fill="#BFD6BA" d="M1098.7,586c0,3,2.4,5.4,5.4,5.4c3,0,5.4-2.4,5.4-5.4c0-3-2.4-5.4-5.4-5.4&#10;&#9;&#9;&#9;&#9;C1101.1,580.6,1098.7,583,1098.7,586z"/>
			<path fill="#BFD6BA" d="M1044.8,586c0,3,2.4,5.4,5.4,5.4c3,0,5.4-2.4,5.4-5.4c0-3-2.4-5.4-5.4-5.4&#10;&#9;&#9;&#9;&#9;C1047.3,580.6,1044.8,583,1044.8,586z"/>
			<path fill="#BFD6BA" d="M1077.2,553.6c-2.2,0-4.1,1.4-5,3.3c-0.3,0.6-0.4,1.4-0.4,2.1c0,0.7,0.2,1.5,0.4,2.1&#10;&#9;&#9;&#9;&#9;c0.8,1.9,2.7,3.3,5,3.3c2.2,0,4.1-1.4,5-3.3c0.3-0.6,0.4-1.4,0.4-2.1c0-0.7-0.2-1.5-0.4-2.1&#10;&#9;&#9;&#9;&#9;C1081.3,555,1079.4,553.6,1077.2,553.6z"/>
			<path fill="#BFD6BA" d="M1133.1,554.1c-0.6-0.3-1.4-0.4-2.1-0.4c-0.7,0-1.5,0.2-2.1,0.4c-1.3,0.5-2.3,1.6-2.9,2.9&#10;&#9;&#9;&#9;&#9;c-0.3,0.6-0.4,1.4-0.4,2.1c0,0.7,0.2,1.5,0.4,2.1c0.5,1.3,1.6,2.3,2.9,2.9c0.6,0.3,1.4,0.4,2.1,0.4c0.7,0,1.5-0.2,2.1-0.4&#10;&#9;&#9;&#9;&#9;c1.3-0.5,2.3-1.6,2.9-2.9c0.3-0.6,0.4-1.4,0.4-2.1c0-0.7-0.2-1.5-0.4-2.1C1135.5,555.7,1134.4,554.6,1133.1,554.1z"/>
			<path fill="#BFD6BA" d="M969.4,338.1c-1.9,0-3.5,0.9-4.5,2.4c-0.2,0.3-0.4,0.6-0.5,0.9c-0.3,0.6-0.4,1.4-0.4,2.1&#10;&#9;&#9;&#9;&#9;c0,1.1,0.3,2.2,0.9,3c0.2,0.3,0.4,0.6,0.7,0.8c0.5,0.5,1.1,0.9,1.7,1.2c0.6,0.3,1.4,0.4,2.1,0.4c0.7,0,1.5-0.2,2.1-0.4&#10;&#9;&#9;&#9;&#9;c0.6-0.3,1.2-0.7,1.7-1.2c0.2-0.2,0.5-0.5,0.7-0.8c0.6-0.9,0.9-1.9,0.9-3c0-0.7-0.2-1.5-0.4-2.1c-0.1-0.3-0.3-0.6-0.5-0.9&#10;&#9;&#9;&#9;&#9;C972.9,339.1,971.3,338.1,969.4,338.1z"/>
			<path fill="#BFD6BA" d="M1023.3,338.1c-1.1,0-2.2,0.3-3,0.9c-0.3,0.2-0.6,0.4-0.8,0.7c-0.2,0.2-0.5,0.5-0.7,0.8&#10;&#9;&#9;&#9;&#9;c-0.2,0.3-0.4,0.6-0.5,0.9c-0.3,0.6-0.4,1.4-0.4,2.1c0,0.7,0.2,1.5,0.4,2.1c0.1,0.3,0.3,0.6,0.5,0.9c0.2,0.3,0.4,0.6,0.7,0.8&#10;&#9;&#9;&#9;&#9;c0.2,0.2,0.5,0.5,0.8,0.7c0.3,0.2,0.6,0.4,0.9,0.5c0.6,0.3,1.4,0.4,2.1,0.4c0.7,0,1.5-0.2,2.1-0.4c0.6-0.3,1.2-0.7,1.7-1.2&#10;&#9;&#9;&#9;&#9;c0.2-0.2,0.5-0.5,0.7-0.8c0.6-0.9,0.9-1.9,0.9-3c0-0.7-0.2-1.5-0.4-2.1c-0.1-0.3-0.3-0.6-0.5-0.9&#10;&#9;&#9;&#9;&#9;C1026.8,339.1,1025.1,338.1,1023.3,338.1z"/>
			<path fill="#BFD6BA" d="M969.4,445.9c-2.2,0-4.1,1.4-5,3.3c-0.3,0.6-0.4,1.4-0.4,2.1c0,1.1,0.3,2.2,0.9,3&#10;&#9;&#9;&#9;&#9;c0.2,0.3,0.4,0.6,0.7,0.8c0.5,0.5,1.1,0.9,1.7,1.2c0.6,0.3,1.4,0.4,2.1,0.4c0.7,0,1.5-0.2,2.1-0.4c0.6-0.3,1.2-0.7,1.7-1.2&#10;&#9;&#9;&#9;&#9;c0.2-0.2,0.5-0.5,0.7-0.8c0.6-0.9,0.9-1.9,0.9-3c0-0.7-0.2-1.5-0.4-2.1C973.6,447.2,971.6,445.9,969.4,445.9z"/>
			<path fill="#BFD6BA" d="M964,397.4c0,3,2.4,5.4,5.4,5.4c3,0,5.4-2.4,5.4-5.4c0-3-2.4-5.4-5.4-5.4C966.4,392,964,394.4,964,397.4z&#10;&#9;&#9;&#9;&#9;"/>
			<path fill="#BFD6BA" d="M1020.3,392.9c-0.3,0.2-0.6,0.4-0.8,0.7c-0.5,0.5-0.9,1.1-1.2,1.7c-0.3,0.6-0.4,1.4-0.4,2.1&#10;&#9;&#9;&#9;&#9;c0,0.7,0.2,1.5,0.4,2.1c0.3,0.6,0.7,1.2,1.2,1.7c0.2,0.2,0.5,0.5,0.8,0.7c0.9,0.6,1.9,0.9,3,0.9c3,0,5.4-2.4,5.4-5.4&#10;&#9;&#9;&#9;&#9;c0-3-2.4-5.4-5.4-5.4C1022.2,392,1021.1,392.3,1020.3,392.9z"/>
			<path fill="#BFD6BA" d="M991,424.3c0,3,2.4,5.4,5.4,5.4c3,0,5.4-2.4,5.4-5.4c0-3-2.4-5.4-5.4-5.4&#10;&#9;&#9;&#9;&#9;C993.4,418.9,991,421.4,991,424.3z"/>
			<path fill="#BFD6BA" d="M937.1,424.3c0,3,2.4,5.4,5.4,5.4c3,0,5.4-2.4,5.4-5.4c0-3-2.4-5.4-5.4-5.4&#10;&#9;&#9;&#9;&#9;C939.5,418.9,937.1,421.4,937.1,424.3z"/>
			<path fill="#BFD6BA" d="M991,370.5c0,3,2.4,5.4,5.4,5.4c3,0,5.4-2.4,5.4-5.4c0-3-2.4-5.4-5.4-5.4&#10;&#9;&#9;&#9;&#9;C993.4,365.1,991,367.5,991,370.5z"/>
			<path fill="#BFD6BA" d="M937.1,370.5c0,3,2.4,5.4,5.4,5.4c3,0,5.4-2.4,5.4-5.4c0-3-2.4-5.4-5.4-5.4&#10;&#9;&#9;&#9;&#9;C939.5,365.1,937.1,367.5,937.1,370.5z"/>
			<path fill="#BFD6BA" d="M915.5,445.9c-1.1,0-2.2,0.3-3,0.9c-0.3,0.2-0.6,0.4-0.8,0.7c-0.5,0.5-0.9,1.1-1.2,1.7s-0.4,1.4-0.4,2.1&#10;&#9;&#9;&#9;&#9;c0,0.7,0.2,1.5,0.4,2.1c0.1,0.3,0.3,0.6,0.5,0.9c0.2,0.3,0.4,0.6,0.7,0.8c0.2,0.2,0.5,0.5,0.8,0.7c0.3,0.2,0.6,0.4,0.9,0.5&#10;&#9;&#9;&#9;&#9;c0.6,0.3,1.4,0.4,2.1,0.4c0.7,0,1.5-0.2,2.1-0.4c0.6-0.3,1.2-0.7,1.7-1.2c0.2-0.2,0.5-0.5,0.7-0.8c0.6-0.9,0.9-1.9,0.9-3&#10;&#9;&#9;&#9;&#9;c0-0.7-0.2-1.5-0.4-2.1c-0.1-0.3-0.3-0.6-0.5-0.9C919,446.8,917.4,445.9,915.5,445.9z"/>
			<path fill="#BFD6BA" d="M964,505.2c0,3,2.4,5.4,5.4,5.4c3,0,5.4-2.4,5.4-5.4c0-3-2.4-5.4-5.4-5.4&#10;&#9;&#9;&#9;&#9;C966.4,499.8,964,502.2,964,505.2z"/>
			<path fill="#BFD6BA" d="M991,532.1c0,3,2.4,5.4,5.4,5.4c3,0,5.4-2.4,5.4-5.4c0-3-2.4-5.4-5.4-5.4&#10;&#9;&#9;&#9;&#9;C993.4,526.7,991,529.1,991,532.1z"/>
			<path fill="#BFD6BA" d="M937.1,532.1c0,3,2.4,5.4,5.4,5.4c3,0,5.4-2.4,5.4-5.4c0-3-2.4-5.4-5.4-5.4&#10;&#9;&#9;&#9;&#9;C939.5,526.7,937.1,529.1,937.1,532.1z"/>
			<path fill="#BFD6BA" d="M991,478.2c0,3,2.4,5.4,5.4,5.4c3,0,5.4-2.4,5.4-5.4c0-3-2.4-5.4-5.4-5.4&#10;&#9;&#9;&#9;&#9;C993.4,472.8,991,475.2,991,478.2z"/>
			<path fill="#BFD6BA" d="M937.1,478.2c0,3,2.4,5.4,5.4,5.4c3,0,5.4-2.4,5.4-5.4c0-3-2.4-5.4-5.4-5.4&#10;&#9;&#9;&#9;&#9;C939.5,472.8,937.1,475.2,937.1,478.2z"/>
			<path fill="#BFD6BA" d="M915.5,499.8c-1.1,0-2.2,0.3-3,0.9c-0.3,0.2-0.6,0.4-0.8,0.7c-0.5,0.5-0.9,1.1-1.2,1.7s-0.4,1.4-0.4,2.1&#10;&#9;&#9;&#9;&#9;c0,0.7,0.2,1.5,0.4,2.1s0.7,1.2,1.2,1.7c0.2,0.2,0.5,0.5,0.8,0.7c0.9,0.6,1.9,0.9,3,0.9c1.9,0,3.5-0.9,4.5-2.4&#10;&#9;&#9;&#9;&#9;c0.6-0.9,0.9-1.9,0.9-3c0-1.1-0.3-2.2-0.9-3C919,500.7,917.4,499.8,915.5,499.8z"/>
			<path fill="#BFD6BA" d="M991,586c0,3,2.4,5.4,5.4,5.4c3,0,5.4-2.4,5.4-5.4c0-3-2.4-5.4-5.4-5.4C993.4,580.6,991,583,991,586z"/>
			<path fill="#BFD6BA" d="M937.1,586c0,3,2.4,5.4,5.4,5.4c3,0,5.4-2.4,5.4-5.4c0-3-2.4-5.4-5.4-5.4&#10;&#9;&#9;&#9;&#9;C939.5,580.6,937.1,583,937.1,586z"/>
			<path fill="#BFD6BA" d="M969.4,553.6c-2.2,0-4.1,1.4-5,3.3c-0.3,0.6-0.4,1.4-0.4,2.1c0,0.7,0.2,1.5,0.4,2.1&#10;&#9;&#9;&#9;&#9;c0.8,1.9,2.7,3.3,5,3.3c2.2,0,4.1-1.4,5-3.3c0.3-0.6,0.4-1.4,0.4-2.1c0-0.7-0.2-1.5-0.4-2.1C973.6,555,971.6,553.6,969.4,553.6z"/>
			<path fill="#BFD6BA" d="M1023.3,553.6c-1.1,0-2.2,0.3-3,0.9c-0.3,0.2-0.6,0.4-0.8,0.7c-0.5,0.5-0.9,1.1-1.2,1.7&#10;&#9;&#9;&#9;&#9;c-0.3,0.6-0.4,1.4-0.4,2.1c0,0.7,0.2,1.5,0.4,2.1c0.3,0.6,0.7,1.2,1.2,1.7c0.2,0.2,0.5,0.5,0.8,0.7c0.9,0.6,1.9,0.9,3,0.9&#10;&#9;&#9;&#9;&#9;c2.2,0,4.1-1.4,5-3.3c0.3-0.6,0.4-1.4,0.4-2.1c0-0.7-0.2-1.5-0.4-2.1C1027.4,555,1025.5,553.6,1023.3,553.6z"/>
			<path fill="#BFD6BA" d="M861.6,338.1c-1.9,0-3.5,0.9-4.5,2.4c-0.2,0.3-0.4,0.6-0.5,0.9c-0.3,0.6-0.4,1.4-0.4,2.1&#10;&#9;&#9;&#9;&#9;c0,1.1,0.3,2.2,0.9,3c0.2,0.3,0.4,0.6,0.7,0.8c0.5,0.5,1.1,0.9,1.7,1.2c0.6,0.3,1.4,0.4,2.1,0.4c0.7,0,1.5-0.2,2.1-0.4&#10;&#9;&#9;&#9;&#9;c0.6-0.3,1.2-0.7,1.7-1.2c0.2-0.2,0.5-0.5,0.7-0.8c0.6-0.9,0.9-1.9,0.9-3c0-0.7-0.2-1.5-0.4-2.1c-0.1-0.3-0.3-0.6-0.5-0.9&#10;&#9;&#9;&#9;&#9;C865.1,339.1,863.5,338.1,861.6,338.1z"/>
			<path fill="#BFD6BA" d="M915.5,338.1c-1.1,0-2.2,0.3-3,0.9c-0.3,0.2-0.6,0.4-0.8,0.7c-0.2,0.2-0.5,0.5-0.7,0.8&#10;&#9;&#9;&#9;&#9;c-0.2,0.3-0.4,0.6-0.5,0.9c-0.3,0.6-0.4,1.4-0.4,2.1c0,0.7,0.2,1.5,0.4,2.1c0.1,0.3,0.3,0.6,0.5,0.9c0.2,0.3,0.4,0.6,0.7,0.8&#10;&#9;&#9;&#9;&#9;c0.2,0.2,0.5,0.5,0.8,0.7c0.3,0.2,0.6,0.4,0.9,0.5c0.6,0.3,1.4,0.4,2.1,0.4c0.7,0,1.5-0.2,2.1-0.4c0.6-0.3,1.2-0.7,1.7-1.2&#10;&#9;&#9;&#9;&#9;c0.2-0.2,0.5-0.5,0.7-0.8c0.6-0.9,0.9-1.9,0.9-3c0-0.7-0.2-1.5-0.4-2.1c-0.1-0.3-0.3-0.6-0.5-0.9&#10;&#9;&#9;&#9;&#9;C919,339.1,917.4,338.1,915.5,338.1z"/>
			<path fill="#BFD6BA" d="M861.6,445.9c-2.2,0-4.1,1.4-5,3.3c-0.3,0.6-0.4,1.4-0.4,2.1c0,1.1,0.3,2.2,0.9,3&#10;&#9;&#9;&#9;&#9;c0.2,0.3,0.4,0.6,0.7,0.8c0.5,0.5,1.1,0.9,1.7,1.2c0.6,0.3,1.4,0.4,2.1,0.4c0.7,0,1.5-0.2,2.1-0.4c0.6-0.3,1.2-0.7,1.7-1.2&#10;&#9;&#9;&#9;&#9;c0.2-0.2,0.5-0.5,0.7-0.8c0.6-0.9,0.9-1.9,0.9-3c0-0.7-0.2-1.5-0.4-2.1C865.8,447.2,863.9,445.9,861.6,445.9z"/>
			<path fill="#BFD6BA" d="M856.3,397.4c0,3,2.4,5.4,5.4,5.4c3,0,5.4-2.4,5.4-5.4c0-3-2.4-5.4-5.4-5.4&#10;&#9;&#9;&#9;&#9;C858.7,392,856.3,394.4,856.3,397.4z"/>
			<path fill="#BFD6BA" d="M915.5,392c-1.1,0-2.2,0.3-3,0.9c-0.3,0.2-0.6,0.4-0.8,0.7c-0.5,0.5-0.9,1.1-1.2,1.7s-0.4,1.4-0.4,2.1&#10;&#9;&#9;&#9;&#9;c0,0.7,0.2,1.5,0.4,2.1s0.7,1.2,1.2,1.7c0.2,0.2,0.5,0.5,0.8,0.7c0.9,0.6,1.9,0.9,3,0.9c1.9,0,3.5-0.9,4.5-2.4&#10;&#9;&#9;&#9;&#9;c0.6-0.9,0.9-1.9,0.9-3c0-1.1-0.3-2.2-0.9-3C919,392.9,917.4,392,915.5,392z"/>
			<path fill="#BFD6BA" d="M883.2,424.3c0,3,2.4,5.4,5.4,5.4c3,0,5.4-2.4,5.4-5.4c0-3-2.4-5.4-5.4-5.4&#10;&#9;&#9;&#9;&#9;C885.6,418.9,883.2,421.4,883.2,424.3z"/>
			<path fill="#BFD6BA" d="M829.3,424.3c0,3,2.4,5.4,5.4,5.4c3,0,5.4-2.4,5.4-5.4c0-3-2.4-5.4-5.4-5.4&#10;&#9;&#9;&#9;&#9;C831.7,418.9,829.3,421.4,829.3,424.3z"/>
			<path fill="#BFD6BA" d="M883.2,370.5c0,3,2.4,5.4,5.4,5.4c3,0,5.4-2.4,5.4-5.4c0-3-2.4-5.4-5.4-5.4&#10;&#9;&#9;&#9;&#9;C885.6,365.1,883.2,367.5,883.2,370.5z"/>
			<path fill="#BFD6BA" d="M829.3,370.5c0,3,2.4,5.4,5.4,5.4c3,0,5.4-2.4,5.4-5.4c0-3-2.4-5.4-5.4-5.4&#10;&#9;&#9;&#9;&#9;C831.7,365.1,829.3,367.5,829.3,370.5z"/>
			<path fill="#BFD6BA" d="M809.9,446.3c-0.6-0.3-1.4-0.4-2.1-0.4c-0.7,0-1.5,0.2-2.1,0.4c-1.3,0.5-2.3,1.6-2.9,2.9&#10;&#9;&#9;&#9;&#9;c-0.3,0.6-0.4,1.4-0.4,2.1c0,1.1,0.3,2.2,0.9,3c0.2,0.3,0.4,0.6,0.7,0.8c0.5,0.5,1.1,0.9,1.7,1.2c0.6,0.3,1.4,0.4,2.1,0.4&#10;&#9;&#9;&#9;&#9;c0.7,0,1.5-0.2,2.1-0.4c0.6-0.3,1.2-0.7,1.7-1.2c0.2-0.2,0.5-0.5,0.7-0.8c0.6-0.9,0.9-1.9,0.9-3c0-0.7-0.2-1.5-0.4-2.1&#10;&#9;&#9;&#9;&#9;C812.2,447.9,811.1,446.9,809.9,446.3z"/>
			<path fill="#BFD6BA" d="M856.3,505.2c0,3,2.4,5.4,5.4,5.4c3,0,5.4-2.4,5.4-5.4c0-3-2.4-5.4-5.4-5.4&#10;&#9;&#9;&#9;&#9;C858.7,499.8,856.3,502.2,856.3,505.2z"/>
			<path fill="#BFD6BA" d="M883.2,532.1c0,3,2.4,5.4,5.4,5.4c3,0,5.4-2.4,5.4-5.4c0-3-2.4-5.4-5.4-5.4&#10;&#9;&#9;&#9;&#9;C885.6,526.7,883.2,529.1,883.2,532.1z"/>
			<path fill="#BFD6BA" d="M829.3,532.1c0,3,2.4,5.4,5.4,5.4c3,0,5.4-2.4,5.4-5.4c0-3-2.4-5.4-5.4-5.4&#10;&#9;&#9;&#9;&#9;C831.7,526.7,829.3,529.1,829.3,532.1z"/>
			<path fill="#BFD6BA" d="M883.2,478.2c0,3,2.4,5.4,5.4,5.4c3,0,5.4-2.4,5.4-5.4c0-3-2.4-5.4-5.4-5.4&#10;&#9;&#9;&#9;&#9;C885.6,472.8,883.2,475.2,883.2,478.2z"/>
			<path fill="#BFD6BA" d="M829.3,478.2c0,3,2.4,5.4,5.4,5.4c3,0,5.4-2.4,5.4-5.4c0-3-2.4-5.4-5.4-5.4&#10;&#9;&#9;&#9;&#9;C831.7,472.8,829.3,475.2,829.3,478.2z"/>
			<path fill="#BFD6BA" d="M807.8,499.8c-0.7,0-1.5,0.2-2.1,0.4c-1.9,0.8-3.3,2.7-3.3,5c0,2.2,1.4,4.1,3.3,5&#10;&#9;&#9;&#9;&#9;c0.6,0.3,1.4,0.4,2.1,0.4c0.7,0,1.5-0.2,2.1-0.4c1.9-0.8,3.3-2.7,3.3-5c0-2.2-1.4-4.1-3.3-5C809.2,499.9,808.5,499.8,807.8,499.8&#10;&#9;&#9;&#9;&#9;z"/>
			<path fill="#BFD6BA" d="M883.2,586c0,3,2.4,5.4,5.4,5.4c3,0,5.4-2.4,5.4-5.4c0-3-2.4-5.4-5.4-5.4&#10;&#9;&#9;&#9;&#9;C885.6,580.6,883.2,583,883.2,586z"/>
			<path fill="#BFD6BA" d="M829.3,586c0,3,2.4,5.4,5.4,5.4c3,0,5.4-2.4,5.4-5.4c0-3-2.4-5.4-5.4-5.4&#10;&#9;&#9;&#9;&#9;C831.7,580.6,829.3,583,829.3,586z"/>
			<path fill="#BFD6BA" d="M861.6,553.6c-2.2,0-4.1,1.4-5,3.3c-0.3,0.6-0.4,1.4-0.4,2.1c0,0.7,0.2,1.5,0.4,2.1&#10;&#9;&#9;&#9;&#9;c0.8,1.9,2.7,3.3,5,3.3c2.2,0,4.1-1.4,5-3.3c0.3-0.6,0.4-1.4,0.4-2.1c0-0.7-0.2-1.5-0.4-2.1C865.8,555,863.9,553.6,861.6,553.6z"/>
			<path fill="#BFD6BA" d="M915.5,553.6c-1.1,0-2.2,0.3-3,0.9c-0.3,0.2-0.6,0.4-0.8,0.7c-0.5,0.5-0.9,1.1-1.2,1.7&#10;&#9;&#9;&#9;&#9;c-0.3,0.6-0.4,1.4-0.4,2.1c0,0.7,0.2,1.5,0.4,2.1c0.3,0.6,0.7,1.2,1.2,1.7c0.2,0.2,0.5,0.5,0.8,0.7c0.9,0.6,1.9,0.9,3,0.9&#10;&#9;&#9;&#9;&#9;c1.9,0,3.5-0.9,4.5-2.4c0.2-0.3,0.4-0.6,0.5-0.9c0.3-0.6,0.4-1.4,0.4-2.1c0-0.7-0.2-1.5-0.4-2.1c-0.1-0.3-0.3-0.6-0.5-0.9&#10;&#9;&#9;&#9;&#9;C919,554.6,917.4,553.6,915.5,553.6z"/>
			<path fill="#BFD6BA" d="M753.9,338.1c-1.9,0-3.5,0.9-4.5,2.4c-0.2,0.3-0.4,0.6-0.5,0.9c-0.3,0.6-0.4,1.4-0.4,2.1&#10;&#9;&#9;&#9;&#9;c0,1.1,0.3,2.2,0.9,3c0.2,0.3,0.4,0.6,0.7,0.8c0.5,0.5,1.1,0.9,1.7,1.2c0.6,0.3,1.4,0.4,2.1,0.4c0.7,0,1.5-0.2,2.1-0.4&#10;&#9;&#9;&#9;&#9;c0.6-0.3,1.2-0.7,1.7-1.2c0.2-0.2,0.5-0.5,0.7-0.8c0.6-0.9,0.9-1.9,0.9-3c0-0.7-0.2-1.5-0.4-2.1c-0.1-0.3-0.3-0.6-0.5-0.9&#10;&#9;&#9;&#9;&#9;C757.4,339.1,755.7,338.1,753.9,338.1z"/>
			<path fill="#BFD6BA" d="M809.9,338.5c-0.6-0.3-1.4-0.4-2.1-0.4c-0.7,0-1.5,0.2-2.1,0.4c-1,0.4-1.8,1.1-2.4,2&#10;&#9;&#9;&#9;&#9;c-0.2,0.3-0.4,0.6-0.5,0.9c-0.3,0.6-0.4,1.4-0.4,2.1c0,1.1,0.3,2.2,0.9,3c0.2,0.3,0.4,0.6,0.7,0.8c0.5,0.5,1.1,0.9,1.7,1.2&#10;&#9;&#9;&#9;&#9;c0.6,0.3,1.4,0.4,2.1,0.4c0.7,0,1.5-0.2,2.1-0.4c0.6-0.3,1.2-0.7,1.7-1.2c0.2-0.2,0.5-0.5,0.7-0.8c0.6-0.9,0.9-1.9,0.9-3&#10;&#9;&#9;&#9;&#9;c0-0.7-0.2-1.5-0.4-2.1c-0.1-0.3-0.3-0.6-0.5-0.9C811.6,339.6,810.8,339,809.9,338.5z"/>
			<path fill="#BFD6BA" d="M753.9,445.9c-2.2,0-4.1,1.4-5,3.3c-0.3,0.6-0.4,1.4-0.4,2.1c0,1.1,0.3,2.2,0.9,3&#10;&#9;&#9;&#9;&#9;c0.2,0.3,0.4,0.6,0.7,0.8c0.5,0.5,1.1,0.9,1.7,1.2c0.6,0.3,1.4,0.4,2.1,0.4c0.7,0,1.5-0.2,2.1-0.4c0.6-0.3,1.2-0.7,1.7-1.2&#10;&#9;&#9;&#9;&#9;c0.2-0.2,0.5-0.5,0.7-0.8c0.6-0.9,0.9-1.9,0.9-3c0-0.7-0.2-1.5-0.4-2.1C758,447.2,756.1,445.9,753.9,445.9z"/>
			<path fill="#BFD6BA" d="M748.5,397.4c0,3,2.4,5.4,5.4,5.4c3,0,5.4-2.4,5.4-5.4c0-3-2.4-5.4-5.4-5.4&#10;&#9;&#9;&#9;&#9;C750.9,392,748.5,394.4,748.5,397.4z"/>
			<path fill="#BFD6BA" d="M807.8,392c-0.7,0-1.5,0.2-2.1,0.4c-1.9,0.8-3.3,2.7-3.3,5c0,2.2,1.4,4.1,3.3,5c0.6,0.3,1.4,0.4,2.1,0.4&#10;&#9;&#9;&#9;&#9;c0.7,0,1.5-0.2,2.1-0.4c1.9-0.8,3.3-2.7,3.3-5c0-2.2-1.4-4.1-3.3-5C809.2,392.2,808.5,392,807.8,392z"/>
			<path fill="#BFD6BA" d="M775.4,424.3c0,3,2.4,5.4,5.4,5.4c3,0,5.4-2.4,5.4-5.4c0-3-2.4-5.4-5.4-5.4&#10;&#9;&#9;&#9;&#9;C777.8,418.9,775.4,421.4,775.4,424.3z"/>
			<path fill="#BFD6BA" d="M721.6,424.3c0,3,2.4,5.4,5.4,5.4c3,0,5.4-2.4,5.4-5.4c0-3-2.4-5.4-5.4-5.4&#10;&#9;&#9;&#9;&#9;C724,418.9,721.6,421.4,721.6,424.3z"/>
			<path fill="#BFD6BA" d="M775.4,370.5c0,3,2.4,5.4,5.4,5.4c3,0,5.4-2.4,5.4-5.4c0-3-2.4-5.4-5.4-5.4&#10;&#9;&#9;&#9;&#9;C777.8,365.1,775.4,367.5,775.4,370.5z"/>
			<path fill="#BFD6BA" d="M721.6,370.5c0,3,2.4,5.4,5.4,5.4c3,0,5.4-2.4,5.4-5.4c0-3-2.4-5.4-5.4-5.4&#10;&#9;&#9;&#9;&#9;C724,365.1,721.6,367.5,721.6,370.5z"/>
			<path fill="#BFD6BA" d="M700,445.9c-0.7,0-1.5,0.2-2.1,0.4c-1.3,0.5-2.3,1.6-2.9,2.9c-0.3,0.6-0.4,1.4-0.4,2.1&#10;&#9;&#9;&#9;&#9;c0,1.1,0.3,2.2,0.9,3c0.2,0.3,0.4,0.6,0.7,0.8c0.5,0.5,1.1,0.9,1.7,1.2c0.6,0.3,1.4,0.4,2.1,0.4c0.7,0,1.5-0.2,2.1-0.4&#10;&#9;&#9;&#9;&#9;c0.6-0.3,1.2-0.7,1.7-1.2c0.2-0.2,0.5-0.5,0.7-0.8c0.6-0.9,0.9-1.9,0.9-3c0-0.7-0.2-1.5-0.4-2.1&#10;&#9;&#9;&#9;&#9;C704.1,447.2,702.2,445.9,700,445.9z"/>
			<path fill="#BFD6BA" d="M748.5,505.2c0,3,2.4,5.4,5.4,5.4c3,0,5.4-2.4,5.4-5.4c0-3-2.4-5.4-5.4-5.4&#10;&#9;&#9;&#9;&#9;C750.9,499.8,748.5,502.2,748.5,505.2z"/>
			<path fill="#BFD6BA" d="M775.4,532.1c0,3,2.4,5.4,5.4,5.4c3,0,5.4-2.4,5.4-5.4c0-3-2.4-5.4-5.4-5.4&#10;&#9;&#9;&#9;&#9;C777.8,526.7,775.4,529.1,775.4,532.1z"/>
			<path fill="#BFD6BA" d="M721.6,532.1c0,3,2.4,5.4,5.4,5.4c3,0,5.4-2.4,5.4-5.4c0-3-2.4-5.4-5.4-5.4&#10;&#9;&#9;&#9;&#9;C724,526.7,721.6,529.1,721.6,532.1z"/>
			<path fill="#BFD6BA" d="M775.4,478.2c0,3,2.4,5.4,5.4,5.4c3,0,5.4-2.4,5.4-5.4c0-3-2.4-5.4-5.4-5.4&#10;&#9;&#9;&#9;&#9;C777.8,472.8,775.4,475.2,775.4,478.2z"/>
			<path fill="#BFD6BA" d="M721.6,478.2c0,3,2.4,5.4,5.4,5.4c3,0,5.4-2.4,5.4-5.4c0-3-2.4-5.4-5.4-5.4&#10;&#9;&#9;&#9;&#9;C724,472.8,721.6,475.2,721.6,478.2z"/>
			<path fill="#BFD6BA" d="M697.9,500.2c-1.9,0.8-3.3,2.7-3.3,5c0,2.2,1.4,4.1,3.3,5c0.6,0.3,1.4,0.4,2.1,0.4c3,0,5.4-2.4,5.4-5.4&#10;&#9;&#9;&#9;&#9;c0-3-2.4-5.4-5.4-5.4C699.3,499.8,698.5,499.9,697.9,500.2z"/>
			<path fill="#BFD6BA" d="M775.4,586c0,3,2.4,5.4,5.4,5.4c3,0,5.4-2.4,5.4-5.4c0-3-2.4-5.4-5.4-5.4&#10;&#9;&#9;&#9;&#9;C777.8,580.6,775.4,583,775.4,586z"/>
			<path fill="#BFD6BA" d="M721.6,586c0,3,2.4,5.4,5.4,5.4c3,0,5.4-2.4,5.4-5.4c0-3-2.4-5.4-5.4-5.4C724,580.6,721.6,583,721.6,586z&#10;&#9;&#9;&#9;&#9;"/>
			<path fill="#BFD6BA" d="M753.9,553.6c-2.2,0-4.1,1.4-5,3.3c-0.3,0.6-0.4,1.4-0.4,2.1c0,0.7,0.2,1.5,0.4,2.1&#10;&#9;&#9;&#9;&#9;c0.8,1.9,2.7,3.3,5,3.3c2.2,0,4.1-1.4,5-3.3c0.3-0.6,0.4-1.4,0.4-2.1c0-0.7-0.2-1.5-0.4-2.1C758,555,756.1,553.6,753.9,553.6z"/>
			<path fill="#BFD6BA" d="M809.9,554.1c-0.6-0.3-1.4-0.4-2.1-0.4c-0.7,0-1.5,0.2-2.1,0.4c-1.3,0.5-2.3,1.6-2.9,2.9&#10;&#9;&#9;&#9;&#9;c-0.3,0.6-0.4,1.4-0.4,2.1c0,0.7,0.2,1.5,0.4,2.1c0.5,1.3,1.6,2.3,2.9,2.9c0.6,0.3,1.4,0.4,2.1,0.4c0.7,0,1.5-0.2,2.1-0.4&#10;&#9;&#9;&#9;&#9;c1.3-0.5,2.3-1.6,2.9-2.9c0.3-0.6,0.4-1.4,0.4-2.1c0-0.7-0.2-1.5-0.4-2.1C812.2,555.7,811.1,554.6,809.9,554.1z"/>
			<path fill="#BFD6BA" d="M646.1,338.1c-1.9,0-3.5,0.9-4.5,2.4c-0.2,0.3-0.4,0.6-0.5,0.9c-0.3,0.6-0.4,1.4-0.4,2.1&#10;&#9;&#9;&#9;&#9;c0,1.1,0.3,2.2,0.9,3c0.2,0.3,0.4,0.6,0.7,0.8c0.5,0.5,1.1,0.9,1.7,1.2c0.6,0.3,1.4,0.4,2.1,0.4c0.7,0,1.5-0.2,2.1-0.4&#10;&#9;&#9;&#9;&#9;c0.6-0.3,1.2-0.7,1.7-1.2c0.2-0.2,0.5-0.5,0.7-0.8c0.6-0.9,0.9-1.9,0.9-3c0-0.7-0.2-1.5-0.4-2.1c-0.1-0.3-0.3-0.6-0.5-0.9&#10;&#9;&#9;&#9;&#9;C649.6,339.1,648,338.1,646.1,338.1z"/>
			<path fill="#BFD6BA" d="M700,338.1c-0.7,0-1.5,0.2-2.1,0.4c-1,0.4-1.8,1.1-2.4,2c-0.2,0.3-0.4,0.6-0.5,0.9&#10;&#9;&#9;&#9;&#9;c-0.3,0.6-0.4,1.4-0.4,2.1c0,1.1,0.3,2.2,0.9,3c0.2,0.3,0.4,0.6,0.7,0.8c0.5,0.5,1.1,0.9,1.7,1.2c0.6,0.3,1.4,0.4,2.1,0.4&#10;&#9;&#9;&#9;&#9;c0.7,0,1.5-0.2,2.1-0.4c0.6-0.3,1.2-0.7,1.7-1.2c0.2-0.2,0.5-0.5,0.7-0.8c0.6-0.9,0.9-1.9,0.9-3c0-0.7-0.2-1.5-0.4-2.1&#10;&#9;&#9;&#9;&#9;c-0.1-0.3-0.3-0.6-0.5-0.9C703.5,339.1,701.9,338.1,700,338.1z"/>
			<path fill="#BFD6BA" d="M646.1,445.9c-2.2,0-4.1,1.4-5,3.3c-0.3,0.6-0.4,1.4-0.4,2.1c0,1.1,0.3,2.2,0.9,3&#10;&#9;&#9;&#9;&#9;c0.2,0.3,0.4,0.6,0.7,0.8c0.5,0.5,1.1,0.9,1.7,1.2c0.6,0.3,1.4,0.4,2.1,0.4c0.7,0,1.5-0.2,2.1-0.4c0.6-0.3,1.2-0.7,1.7-1.2&#10;&#9;&#9;&#9;&#9;c0.2-0.2,0.5-0.5,0.7-0.8c0.6-0.9,0.9-1.9,0.9-3c0-0.7-0.2-1.5-0.4-2.1C650.3,447.2,648.3,445.9,646.1,445.9z"/>
			<path fill="#BFD6BA" d="M640.7,397.4c0,3,2.4,5.4,5.4,5.4c3,0,5.4-2.4,5.4-5.4c0-3-2.4-5.4-5.4-5.4&#10;&#9;&#9;&#9;&#9;C643.1,392,640.7,394.4,640.7,397.4z"/>
			<path fill="#BFD6BA" d="M697.9,392.4c-1.9,0.8-3.3,2.7-3.3,5c0,2.2,1.4,4.1,3.3,5c0.6,0.3,1.4,0.4,2.1,0.4c3,0,5.4-2.4,5.4-5.4&#10;&#9;&#9;&#9;&#9;c0-3-2.4-5.4-5.4-5.4C699.3,392,698.5,392.2,697.9,392.4z"/>
			<path fill="#BFD6BA" d="M667.7,424.3c0,3,2.4,5.4,5.4,5.4c3,0,5.4-2.4,5.4-5.4c0-3-2.4-5.4-5.4-5.4&#10;&#9;&#9;&#9;&#9;C670.1,418.9,667.7,421.4,667.7,424.3z"/>
			<path fill="#BFD6BA" d="M613.8,424.3c0,3,2.4,5.4,5.4,5.4c3,0,5.4-2.4,5.4-5.4c0-3-2.4-5.4-5.4-5.4&#10;&#9;&#9;&#9;&#9;C616.2,418.9,613.8,421.4,613.8,424.3z"/>
			<path fill="#BFD6BA" d="M667.7,370.5c0,3,2.4,5.4,5.4,5.4c3,0,5.4-2.4,5.4-5.4c0-3-2.4-5.4-5.4-5.4&#10;&#9;&#9;&#9;&#9;C670.1,365.1,667.7,367.5,667.7,370.5z"/>
			<path fill="#BFD6BA" d="M613.8,370.5c0,3,2.4,5.4,5.4,5.4c3,0,5.4-2.4,5.4-5.4c0-3-2.4-5.4-5.4-5.4&#10;&#9;&#9;&#9;&#9;C616.2,365.1,613.8,367.5,613.8,370.5z"/>
			<path fill="#BFD6BA" d="M592.2,445.9c-1.1,0-2.2,0.3-3,0.9c-0.3,0.2-0.6,0.4-0.8,0.7c-0.5,0.5-0.9,1.1-1.2,1.7s-0.4,1.4-0.4,2.1&#10;&#9;&#9;&#9;&#9;c0,0.7,0.2,1.5,0.4,2.1c0.1,0.3,0.3,0.6,0.5,0.9c0.2,0.3,0.4,0.6,0.7,0.8c0.2,0.2,0.5,0.5,0.8,0.7c0.3,0.2,0.6,0.4,0.9,0.5&#10;&#9;&#9;&#9;&#9;c0.6,0.3,1.4,0.4,2.1,0.4c0.7,0,1.5-0.2,2.1-0.4c0.6-0.3,1.2-0.7,1.7-1.2c0.2-0.2,0.5-0.5,0.7-0.8c0.6-0.9,0.9-1.9,0.9-3&#10;&#9;&#9;&#9;&#9;c0-0.7-0.2-1.5-0.4-2.1c-0.1-0.3-0.3-0.6-0.5-0.9C595.7,446.8,594.1,445.9,592.2,445.9z"/>
			<path fill="#BFD6BA" d="M640.7,505.2c0,3,2.4,5.4,5.4,5.4c3,0,5.4-2.4,5.4-5.4c0-3-2.4-5.4-5.4-5.4&#10;&#9;&#9;&#9;&#9;C643.1,499.8,640.7,502.2,640.7,505.2z"/>
			<path fill="#BFD6BA" d="M667.7,532.1c0,3,2.4,5.4,5.4,5.4c3,0,5.4-2.4,5.4-5.4c0-3-2.4-5.4-5.4-5.4&#10;&#9;&#9;&#9;&#9;C670.1,526.7,667.7,529.1,667.7,532.1z"/>
			<path fill="#BFD6BA" d="M613.8,532.1c0,3,2.4,5.4,5.4,5.4c3,0,5.4-2.4,5.4-5.4c0-3-2.4-5.4-5.4-5.4&#10;&#9;&#9;&#9;&#9;C616.2,526.7,613.8,529.1,613.8,532.1z"/>
			<path fill="#BFD6BA" d="M667.7,478.2c0,3,2.4,5.4,5.4,5.4c3,0,5.4-2.4,5.4-5.4c0-3-2.4-5.4-5.4-5.4&#10;&#9;&#9;&#9;&#9;C670.1,472.8,667.7,475.2,667.7,478.2z"/>
			<path fill="#BFD6BA" d="M613.8,478.2c0,3,2.4,5.4,5.4,5.4c3,0,5.4-2.4,5.4-5.4c0-3-2.4-5.4-5.4-5.4&#10;&#9;&#9;&#9;&#9;C616.2,472.8,613.8,475.2,613.8,478.2z"/>
			<path fill="#BFD6BA" d="M592.2,499.8c-1.1,0-2.2,0.3-3,0.9c-0.3,0.2-0.6,0.4-0.8,0.7c-0.5,0.5-0.9,1.1-1.2,1.7s-0.4,1.4-0.4,2.1&#10;&#9;&#9;&#9;&#9;c0,0.7,0.2,1.5,0.4,2.1s0.7,1.2,1.2,1.7c0.2,0.2,0.5,0.5,0.8,0.7c0.9,0.6,1.9,0.9,3,0.9c1.9,0,3.5-0.9,4.5-2.4&#10;&#9;&#9;&#9;&#9;c0.6-0.9,0.9-1.9,0.9-3c0-1.1-0.3-2.2-0.9-3C595.7,500.7,594.1,499.8,592.2,499.8z"/>
			<path fill="#BFD6BA" d="M667.7,586c0,3,2.4,5.4,5.4,5.4c3,0,5.4-2.4,5.4-5.4c0-3-2.4-5.4-5.4-5.4&#10;&#9;&#9;&#9;&#9;C670.1,580.6,667.7,583,667.7,586z"/>
			<path fill="#BFD6BA" d="M613.8,586c0,3,2.4,5.4,5.4,5.4c3,0,5.4-2.4,5.4-5.4c0-3-2.4-5.4-5.4-5.4&#10;&#9;&#9;&#9;&#9;C616.2,580.6,613.8,583,613.8,586z"/>
			<path fill="#BFD6BA" d="M646.1,553.6c-2.2,0-4.1,1.4-5,3.3c-0.3,0.6-0.4,1.4-0.4,2.1c0,0.7,0.2,1.5,0.4,2.1&#10;&#9;&#9;&#9;&#9;c0.8,1.9,2.7,3.3,5,3.3c2.2,0,4.1-1.4,5-3.3c0.3-0.6,0.4-1.4,0.4-2.1c0-0.7-0.2-1.5-0.4-2.1C650.3,555,648.3,553.6,646.1,553.6z"/>
			<path fill="#BFD6BA" d="M700,553.6c-0.7,0-1.5,0.2-2.1,0.4c-1.3,0.5-2.3,1.6-2.9,2.9c-0.3,0.6-0.4,1.4-0.4,2.1&#10;&#9;&#9;&#9;&#9;c0,0.7,0.2,1.5,0.4,2.1c0.5,1.3,1.6,2.3,2.9,2.9c0.6,0.3,1.4,0.4,2.1,0.4c2.2,0,4.1-1.4,5-3.3c0.3-0.6,0.4-1.4,0.4-2.1&#10;&#9;&#9;&#9;&#9;c0-0.7-0.2-1.5-0.4-2.1C704.1,555,702.2,553.6,700,553.6z"/>
			<path fill="#BFD6BA" d="M538.4,338.1c-1.9,0-3.5,0.9-4.5,2.4c-0.2,0.3-0.4,0.6-0.5,0.9c-0.3,0.6-0.4,1.4-0.4,2.1&#10;&#9;&#9;&#9;&#9;c0,1.1,0.3,2.2,0.9,3c0.2,0.3,0.4,0.6,0.7,0.8c0.5,0.5,1.1,0.9,1.7,1.2c0.6,0.3,1.4,0.4,2.1,0.4c0.7,0,1.5-0.2,2.1-0.4&#10;&#9;&#9;&#9;&#9;c0.6-0.3,1.2-0.7,1.7-1.2c0.2-0.2,0.5-0.5,0.7-0.8c0.6-0.9,0.9-1.9,0.9-3c0-0.7-0.2-1.5-0.4-2.1c-0.1-0.3-0.3-0.6-0.5-0.9&#10;&#9;&#9;&#9;&#9;C541.9,339.1,540.2,338.1,538.4,338.1z"/>
			<path fill="#BFD6BA" d="M592.2,338.1c-1.1,0-2.2,0.3-3,0.9c-0.3,0.2-0.6,0.4-0.8,0.7c-0.2,0.2-0.5,0.5-0.7,0.8&#10;&#9;&#9;&#9;&#9;c-0.2,0.3-0.4,0.6-0.5,0.9c-0.3,0.6-0.4,1.4-0.4,2.1c0,0.7,0.2,1.5,0.4,2.1c0.1,0.3,0.3,0.6,0.5,0.9c0.2,0.3,0.4,0.6,0.7,0.8&#10;&#9;&#9;&#9;&#9;c0.2,0.2,0.5,0.5,0.8,0.7c0.3,0.2,0.6,0.4,0.9,0.5c0.6,0.3,1.4,0.4,2.1,0.4c0.7,0,1.5-0.2,2.1-0.4c0.6-0.3,1.2-0.7,1.7-1.2&#10;&#9;&#9;&#9;&#9;c0.2-0.2,0.5-0.5,0.7-0.8c0.6-0.9,0.9-1.9,0.9-3c0-0.7-0.2-1.5-0.4-2.1c-0.1-0.3-0.3-0.6-0.5-0.9&#10;&#9;&#9;&#9;&#9;C595.7,339.1,594.1,338.1,592.2,338.1z"/>
			<path fill="#BFD6BA" d="M538.4,445.9c-2.2,0-4.1,1.4-5,3.3c-0.3,0.6-0.4,1.4-0.4,2.1c0,1.1,0.3,2.2,0.9,3&#10;&#9;&#9;&#9;&#9;c0.2,0.3,0.4,0.6,0.7,0.8c0.5,0.5,1.1,0.9,1.7,1.2c0.6,0.3,1.4,0.4,2.1,0.4c0.7,0,1.5-0.2,2.1-0.4c0.6-0.3,1.2-0.7,1.7-1.2&#10;&#9;&#9;&#9;&#9;c0.2-0.2,0.5-0.5,0.7-0.8c0.6-0.9,0.9-1.9,0.9-3c0-0.7-0.2-1.5-0.4-2.1C542.5,447.2,540.6,445.9,538.4,445.9z"/>
			<path fill="#BFD6BA" d="M533,397.4c0,3,2.4,5.4,5.4,5.4c3,0,5.4-2.4,5.4-5.4c0-3-2.4-5.4-5.4-5.4C535.4,392,533,394.4,533,397.4z&#10;&#9;&#9;&#9;&#9;"/>
			<path fill="#BFD6BA" d="M592.2,392c-1.1,0-2.2,0.3-3,0.9c-0.3,0.2-0.6,0.4-0.8,0.7c-0.5,0.5-0.9,1.1-1.2,1.7s-0.4,1.4-0.4,2.1&#10;&#9;&#9;&#9;&#9;c0,0.7,0.2,1.5,0.4,2.1s0.7,1.2,1.2,1.7c0.2,0.2,0.5,0.5,0.8,0.7c0.9,0.6,1.9,0.9,3,0.9c1.9,0,3.5-0.9,4.5-2.4&#10;&#9;&#9;&#9;&#9;c0.6-0.9,0.9-1.9,0.9-3c0-1.1-0.3-2.2-0.9-3C595.7,392.9,594.1,392,592.2,392z"/>
			<path fill="#BFD6BA" d="M559.9,424.3c0,3,2.4,5.4,5.4,5.4c3,0,5.4-2.4,5.4-5.4c0-3-2.4-5.4-5.4-5.4&#10;&#9;&#9;&#9;&#9;C562.3,418.9,559.9,421.4,559.9,424.3z"/>
			<path fill="#BFD6BA" d="M506,424.3c0,3,2.4,5.4,5.4,5.4c3,0,5.4-2.4,5.4-5.4c0-3-2.4-5.4-5.4-5.4&#10;&#9;&#9;&#9;&#9;C508.4,418.9,506,421.4,506,424.3z"/>
			<path fill="#BFD6BA" d="M559.9,370.5c0,3,2.4,5.4,5.4,5.4c3,0,5.4-2.4,5.4-5.4c0-3-2.4-5.4-5.4-5.4&#10;&#9;&#9;&#9;&#9;C562.3,365.1,559.9,367.5,559.9,370.5z"/>
			<path fill="#BFD6BA" d="M506,370.5c0,3,2.4,5.4,5.4,5.4c3,0,5.4-2.4,5.4-5.4c0-3-2.4-5.4-5.4-5.4&#10;&#9;&#9;&#9;&#9;C508.4,365.1,506,367.5,506,370.5z"/>
			<path fill="#BFD6BA" d="M486.6,446.3c-0.6-0.3-1.4-0.4-2.1-0.4c-0.7,0-1.5,0.2-2.1,0.4c-1.3,0.5-2.3,1.6-2.9,2.9&#10;&#9;&#9;&#9;&#9;c-0.3,0.6-0.4,1.4-0.4,2.1c0,1.1,0.3,2.2,0.9,3c0.2,0.3,0.4,0.6,0.7,0.8c0.5,0.5,1.1,0.9,1.7,1.2c0.6,0.3,1.4,0.4,2.1,0.4&#10;&#9;&#9;&#9;&#9;c0.7,0,1.5-0.2,2.1-0.4c0.6-0.3,1.2-0.7,1.7-1.2c0.2-0.2,0.5-0.5,0.7-0.8c0.6-0.9,0.9-1.9,0.9-3c0-0.7-0.2-1.5-0.4-2.1&#10;&#9;&#9;&#9;&#9;c-0.3-0.6-0.7-1.2-1.2-1.7C487.8,447,487.2,446.6,486.6,446.3z"/>
			<path fill="#BFD6BA" d="M533,505.2c0,3,2.4,5.4,5.4,5.4c3,0,5.4-2.4,5.4-5.4c0-3-2.4-5.4-5.4-5.4&#10;&#9;&#9;&#9;&#9;C535.4,499.8,533,502.2,533,505.2z"/>
			<path fill="#BFD6BA" d="M559.9,532.1c0,3,2.4,5.4,5.4,5.4c3,0,5.4-2.4,5.4-5.4c0-3-2.4-5.4-5.4-5.4&#10;&#9;&#9;&#9;&#9;C562.3,526.7,559.9,529.1,559.9,532.1z"/>
			<path fill="#BFD6BA" d="M506,532.1c0,3,2.4,5.4,5.4,5.4c3,0,5.4-2.4,5.4-5.4c0-3-2.4-5.4-5.4-5.4&#10;&#9;&#9;&#9;&#9;C508.4,526.7,506,529.1,506,532.1z"/>
			<path fill="#BFD6BA" d="M559.9,478.2c0,3,2.4,5.4,5.4,5.4c3,0,5.4-2.4,5.4-5.4c0-3-2.4-5.4-5.4-5.4&#10;&#9;&#9;&#9;&#9;C562.3,472.8,559.9,475.2,559.9,478.2z"/>
			<path fill="#BFD6BA" d="M506,478.2c0,3,2.4,5.4,5.4,5.4c3,0,5.4-2.4,5.4-5.4c0-3-2.4-5.4-5.4-5.4&#10;&#9;&#9;&#9;&#9;C508.4,472.8,506,475.2,506,478.2z"/>
			<path fill="#BFD6BA" d="M484.5,499.8c-0.7,0-1.5,0.2-2.1,0.4c-1.9,0.8-3.3,2.7-3.3,5c0,2.2,1.4,4.1,3.3,5&#10;&#9;&#9;&#9;&#9;c0.6,0.3,1.4,0.4,2.1,0.4c0.7,0,1.5-0.2,2.1-0.4c0.6-0.3,1.2-0.7,1.7-1.2c1-1,1.6-2.3,1.6-3.8c0-1.5-0.6-2.8-1.6-3.8&#10;&#9;&#9;&#9;&#9;c-0.5-0.5-1.1-0.9-1.7-1.2C485.9,499.9,485.2,499.8,484.5,499.8z"/>
			<path fill="#BFD6BA" d="M559.9,586c0,3,2.4,5.4,5.4,5.4c3,0,5.4-2.4,5.4-5.4c0-3-2.4-5.4-5.4-5.4&#10;&#9;&#9;&#9;&#9;C562.3,580.6,559.9,583,559.9,586z"/>
			<path fill="#BFD6BA" d="M506,586c0,3,2.4,5.4,5.4,5.4c3,0,5.4-2.4,5.4-5.4c0-3-2.4-5.4-5.4-5.4C508.4,580.6,506,583,506,586z"/>
			<path fill="#BFD6BA" d="M538.4,553.6c-2.2,0-4.1,1.4-5,3.3c-0.3,0.6-0.4,1.4-0.4,2.1c0,0.7,0.2,1.5,0.4,2.1&#10;&#9;&#9;&#9;&#9;c0.8,1.9,2.7,3.3,5,3.3c2.2,0,4.1-1.4,5-3.3c0.3-0.6,0.4-1.4,0.4-2.1c0-0.7-0.2-1.5-0.4-2.1C542.5,555,540.6,553.6,538.4,553.6z"/>
			<path fill="#BFD6BA" d="M592.2,553.6c-1.1,0-2.2,0.3-3,0.9c-0.3,0.2-0.6,0.4-0.8,0.7c-0.5,0.5-0.9,1.1-1.2,1.7&#10;&#9;&#9;&#9;&#9;c-0.3,0.6-0.4,1.4-0.4,2.1c0,0.7,0.2,1.5,0.4,2.1c0.3,0.6,0.7,1.2,1.2,1.7c0.2,0.2,0.5,0.5,0.8,0.7c0.9,0.6,1.9,0.9,3,0.9&#10;&#9;&#9;&#9;&#9;c1.9,0,3.5-0.9,4.5-2.4c0.2-0.3,0.4-0.6,0.5-0.9c0.3-0.6,0.4-1.4,0.4-2.1c0-0.7-0.2-1.5-0.4-2.1c-0.1-0.3-0.3-0.6-0.5-0.9&#10;&#9;&#9;&#9;&#9;C595.7,554.6,594.1,553.6,592.2,553.6z"/>
			<path fill="#BFD6BA" d="M430.6,338.1c-1.9,0-3.5,0.9-4.5,2.4c-0.2,0.3-0.4,0.6-0.5,0.9c-0.3,0.6-0.4,1.4-0.4,2.1&#10;&#9;&#9;&#9;&#9;c0,1.1,0.3,2.2,0.9,3c0.2,0.3,0.4,0.6,0.7,0.8c0.5,0.5,1.1,0.9,1.7,1.2c0.6,0.3,1.4,0.4,2.1,0.4c0.7,0,1.5-0.2,2.1-0.4&#10;&#9;&#9;&#9;&#9;c0.6-0.3,1.2-0.7,1.7-1.2c0.2-0.2,0.5-0.5,0.7-0.8c0.6-0.9,0.9-1.9,0.9-3c0-0.7-0.2-1.5-0.4-2.1c-0.1-0.3-0.3-0.6-0.5-0.9&#10;&#9;&#9;&#9;&#9;C434.1,339.1,432.5,338.1,430.6,338.1z"/>
			<path fill="#BFD6BA" d="M488.3,339.7c-0.5-0.5-1.1-0.9-1.7-1.2c-0.6-0.3-1.4-0.4-2.1-0.4c-0.7,0-1.5,0.2-2.1,0.4&#10;&#9;&#9;&#9;&#9;c-1,0.4-1.8,1.1-2.4,2c-0.2,0.3-0.4,0.6-0.5,0.9c-0.3,0.6-0.4,1.4-0.4,2.1c0,1.1,0.3,2.2,0.9,3c0.2,0.3,0.4,0.6,0.7,0.8&#10;&#9;&#9;&#9;&#9;c0.5,0.5,1.1,0.9,1.7,1.2c0.6,0.3,1.4,0.4,2.1,0.4c0.7,0,1.5-0.2,2.1-0.4c0.6-0.3,1.2-0.7,1.7-1.2c0.2-0.2,0.5-0.5,0.7-0.8&#10;&#9;&#9;&#9;&#9;c0.6-0.9,0.9-1.9,0.9-3c0-0.7-0.2-1.5-0.4-2.1c-0.1-0.3-0.3-0.6-0.5-0.9C488.7,340.2,488.5,339.9,488.3,339.7z"/>
			<path fill="#BFD6BA" d="M430.6,445.9c-2.2,0-4.1,1.4-5,3.3c-0.3,0.6-0.4,1.4-0.4,2.1c0,1.1,0.3,2.2,0.9,3&#10;&#9;&#9;&#9;&#9;c0.2,0.3,0.4,0.6,0.7,0.8c0.5,0.5,1.1,0.9,1.7,1.2c0.6,0.3,1.4,0.4,2.1,0.4c0.7,0,1.5-0.2,2.1-0.4c0.6-0.3,1.2-0.7,1.7-1.2&#10;&#9;&#9;&#9;&#9;c0.2-0.2,0.5-0.5,0.7-0.8c0.6-0.9,0.9-1.9,0.9-3c0-0.7-0.2-1.5-0.4-2.1C434.7,447.2,432.8,445.9,430.6,445.9z"/>
			<path fill="#BFD6BA" d="M425.2,397.4c0,3,2.4,5.4,5.4,5.4c3,0,5.4-2.4,5.4-5.4c0-3-2.4-5.4-5.4-5.4&#10;&#9;&#9;&#9;&#9;C427.6,392,425.2,394.4,425.2,397.4z"/>
			<path fill="#BFD6BA" d="M484.5,392c-0.7,0-1.5,0.2-2.1,0.4c-1.9,0.8-3.3,2.7-3.3,5c0,2.2,1.4,4.1,3.3,5c0.6,0.3,1.4,0.4,2.1,0.4&#10;&#9;&#9;&#9;&#9;c0.7,0,1.5-0.2,2.1-0.4c0.6-0.3,1.2-0.7,1.7-1.2c1-1,1.6-2.3,1.6-3.8c0-1.5-0.6-2.8-1.6-3.8c-0.5-0.5-1.1-0.9-1.7-1.2&#10;&#9;&#9;&#9;&#9;C485.9,392.2,485.2,392,484.5,392z"/>
			<path fill="#BFD6BA" d="M452.1,424.3c0,3,2.4,5.4,5.4,5.4c3,0,5.4-2.4,5.4-5.4c0-3-2.4-5.4-5.4-5.4&#10;&#9;&#9;&#9;&#9;C454.6,418.9,452.1,421.4,452.1,424.3z"/>
			<path fill="#BFD6BA" d="M398.3,424.3c0,3,2.4,5.4,5.4,5.4c3,0,5.4-2.4,5.4-5.4c0-3-2.4-5.4-5.4-5.4&#10;&#9;&#9;&#9;&#9;C400.7,418.9,398.3,421.4,398.3,424.3z"/>
			<path fill="#BFD6BA" d="M452.1,370.5c0,3,2.4,5.4,5.4,5.4c3,0,5.4-2.4,5.4-5.4c0-3-2.4-5.4-5.4-5.4&#10;&#9;&#9;&#9;&#9;C454.6,365.1,452.1,367.5,452.1,370.5z"/>
			<path fill="#BFD6BA" d="M398.3,370.5c0,3,2.4,5.4,5.4,5.4c3,0,5.4-2.4,5.4-5.4c0-3-2.4-5.4-5.4-5.4&#10;&#9;&#9;&#9;&#9;C400.7,365.1,398.3,367.5,398.3,370.5z"/>
			<path fill="#BFD6BA" d="M376.7,445.9c-1.1,0-2.2,0.3-3,0.9c-0.3,0.2-0.6,0.4-0.8,0.7c-0.5,0.5-0.9,1.1-1.2,1.7&#10;&#9;&#9;&#9;&#9;c-0.3,0.6-0.4,1.4-0.4,2.1c0,0.7,0.2,1.5,0.4,2.1c0.1,0.3,0.3,0.6,0.5,0.9c0.2,0.3,0.4,0.6,0.7,0.8c0.2,0.2,0.5,0.5,0.8,0.7&#10;&#9;&#9;&#9;&#9;c0.3,0.2,0.6,0.4,0.9,0.5c0.6,0.3,1.4,0.4,2.1,0.4c0.7,0,1.5-0.2,2.1-0.4c0.6-0.3,1.2-0.7,1.7-1.2c0.2-0.2,0.5-0.5,0.7-0.8&#10;&#9;&#9;&#9;&#9;c0.6-0.9,0.9-1.9,0.9-3c0-0.7-0.2-1.5-0.4-2.1C380.9,447.2,378.9,445.9,376.7,445.9z"/>
			<path fill="#BFD6BA" d="M425.2,505.2c0,3,2.4,5.4,5.4,5.4c3,0,5.4-2.4,5.4-5.4c0-3-2.4-5.4-5.4-5.4&#10;&#9;&#9;&#9;&#9;C427.6,499.8,425.2,502.2,425.2,505.2z"/>
			<path fill="#BFD6BA" d="M452.1,532.1c0,3,2.4,5.4,5.4,5.4c3,0,5.4-2.4,5.4-5.4c0-3-2.4-5.4-5.4-5.4&#10;&#9;&#9;&#9;&#9;C454.6,526.7,452.1,529.1,452.1,532.1z"/>
			<path fill="#BFD6BA" d="M398.3,532.1c0,3,2.4,5.4,5.4,5.4c3,0,5.4-2.4,5.4-5.4c0-3-2.4-5.4-5.4-5.4&#10;&#9;&#9;&#9;&#9;C400.7,526.7,398.3,529.1,398.3,532.1z"/>
			<path fill="#BFD6BA" d="M452.1,478.2c0,3,2.4,5.4,5.4,5.4c3,0,5.4-2.4,5.4-5.4c0-3-2.4-5.4-5.4-5.4&#10;&#9;&#9;&#9;&#9;C454.6,472.8,452.1,475.2,452.1,478.2z"/>
			<path fill="#BFD6BA" d="M398.3,478.2c0,3,2.4,5.4,5.4,5.4c3,0,5.4-2.4,5.4-5.4c0-3-2.4-5.4-5.4-5.4&#10;&#9;&#9;&#9;&#9;C400.7,472.8,398.3,475.2,398.3,478.2z"/>
			<path fill="#BFD6BA" d="M373.7,500.7c-0.3,0.2-0.6,0.4-0.8,0.7c-0.5,0.5-0.9,1.1-1.2,1.7c-0.3,0.6-0.4,1.4-0.4,2.1&#10;&#9;&#9;&#9;&#9;c0,0.7,0.2,1.5,0.4,2.1c0.3,0.6,0.7,1.2,1.2,1.7c0.2,0.2,0.5,0.5,0.8,0.7c0.9,0.6,1.9,0.9,3,0.9c3,0,5.4-2.4,5.4-5.4&#10;&#9;&#9;&#9;&#9;c0-3-2.4-5.4-5.4-5.4C375.6,499.8,374.6,500.1,373.7,500.7z"/>
			<path fill="#BFD6BA" d="M452.1,586c0,3,2.4,5.4,5.4,5.4c3,0,5.4-2.4,5.4-5.4c0-3-2.4-5.4-5.4-5.4&#10;&#9;&#9;&#9;&#9;C454.6,580.6,452.1,583,452.1,586z"/>
			<path fill="#BFD6BA" d="M398.3,586c0,3,2.4,5.4,5.4,5.4c3,0,5.4-2.4,5.4-5.4c0-3-2.4-5.4-5.4-5.4&#10;&#9;&#9;&#9;&#9;C400.7,580.6,398.3,583,398.3,586z"/>
			<path fill="#BFD6BA" d="M430.6,553.6c-2.2,0-4.1,1.4-5,3.3c-0.3,0.6-0.4,1.4-0.4,2.1c0,0.7,0.2,1.5,0.4,2.1&#10;&#9;&#9;&#9;&#9;c0.8,1.9,2.7,3.3,5,3.3c2.2,0,4.1-1.4,5-3.3c0.3-0.6,0.4-1.4,0.4-2.1c0-0.7-0.2-1.5-0.4-2.1C434.7,555,432.8,553.6,430.6,553.6z"/>
			<path fill="#BFD6BA" d="M486.6,554.1c-0.6-0.3-1.4-0.4-2.1-0.4c-0.7,0-1.5,0.2-2.1,0.4c-1.3,0.5-2.3,1.6-2.9,2.9&#10;&#9;&#9;&#9;&#9;c-0.3,0.6-0.4,1.4-0.4,2.1c0,0.7,0.2,1.5,0.4,2.1c0.5,1.3,1.6,2.3,2.9,2.9c0.6,0.3,1.4,0.4,2.1,0.4c0.7,0,1.5-0.2,2.1-0.4&#10;&#9;&#9;&#9;&#9;c0.6-0.3,1.2-0.7,1.7-1.2c0.5-0.5,0.9-1.1,1.2-1.7c0.3-0.6,0.4-1.4,0.4-2.1c0-0.7-0.2-1.5-0.4-2.1c-0.3-0.6-0.7-1.2-1.2-1.7&#10;&#9;&#9;&#9;&#9;C487.8,554.7,487.2,554.3,486.6,554.1z"/>
			<path fill="#BFD6BA" d="M322.8,338.1c-1.9,0-3.5,0.9-4.5,2.4c-0.2,0.3-0.4,0.6-0.5,0.9c-0.3,0.6-0.4,1.4-0.4,2.1&#10;&#9;&#9;&#9;&#9;c0,1.1,0.3,2.2,0.9,3c0.2,0.3,0.4,0.6,0.7,0.8c0.5,0.5,1.1,0.9,1.7,1.2c0.6,0.3,1.4,0.4,2.1,0.4c0.7,0,1.5-0.2,2.1-0.4&#10;&#9;&#9;&#9;&#9;c0.6-0.3,1.2-0.7,1.7-1.2c0.2-0.2,0.5-0.5,0.7-0.8c0.6-0.9,0.9-1.9,0.9-3c0-0.7-0.2-1.5-0.4-2.1c-0.1-0.3-0.3-0.6-0.5-0.9&#10;&#9;&#9;&#9;&#9;C326.3,339.1,324.7,338.1,322.8,338.1z"/>
			<path fill="#BFD6BA" d="M376.7,338.1c-1.1,0-2.2,0.3-3,0.9c-0.3,0.2-0.6,0.4-0.8,0.7c-0.2,0.2-0.5,0.5-0.7,0.8&#10;&#9;&#9;&#9;&#9;c-0.2,0.3-0.4,0.6-0.5,0.9c-0.3,0.6-0.4,1.4-0.4,2.1c0,0.7,0.2,1.5,0.4,2.1c0.1,0.3,0.3,0.6,0.5,0.9c0.2,0.3,0.4,0.6,0.7,0.8&#10;&#9;&#9;&#9;&#9;c0.2,0.2,0.5,0.5,0.8,0.7c0.3,0.2,0.6,0.4,0.9,0.5c0.6,0.3,1.4,0.4,2.1,0.4c0.7,0,1.5-0.2,2.1-0.4c0.6-0.3,1.2-0.7,1.7-1.2&#10;&#9;&#9;&#9;&#9;c0.2-0.2,0.5-0.5,0.7-0.8c0.6-0.9,0.9-1.9,0.9-3c0-0.7-0.2-1.5-0.4-2.1c-0.1-0.3-0.3-0.6-0.5-0.9&#10;&#9;&#9;&#9;&#9;C380.2,339.1,378.6,338.1,376.7,338.1z"/>
			<path fill="#BFD6BA" d="M322.8,445.9c-2.2,0-4.1,1.4-5,3.3c-0.3,0.6-0.4,1.4-0.4,2.1c0,1.1,0.3,2.2,0.9,3&#10;&#9;&#9;&#9;&#9;c0.2,0.3,0.4,0.6,0.7,0.8c0.5,0.5,1.1,0.9,1.7,1.2c0.6,0.3,1.4,0.4,2.1,0.4c0.7,0,1.5-0.2,2.1-0.4c0.6-0.3,1.2-0.7,1.7-1.2&#10;&#9;&#9;&#9;&#9;c0.2-0.2,0.5-0.5,0.7-0.8c0.6-0.9,0.9-1.9,0.9-3c0-0.7-0.2-1.5-0.4-2.1C327,447.2,325.1,445.9,322.8,445.9z"/>
			<path fill="#BFD6BA" d="M317.4,397.4c0,3,2.4,5.4,5.4,5.4c3,0,5.4-2.4,5.4-5.4c0-3-2.4-5.4-5.4-5.4&#10;&#9;&#9;&#9;&#9;C319.9,392,317.4,394.4,317.4,397.4z"/>
			<path fill="#BFD6BA" d="M373.7,392.9c-0.3,0.2-0.6,0.4-0.8,0.7c-0.5,0.5-0.9,1.1-1.2,1.7c-0.3,0.6-0.4,1.4-0.4,2.1&#10;&#9;&#9;&#9;&#9;c0,0.7,0.2,1.5,0.4,2.1c0.3,0.6,0.7,1.2,1.2,1.7c0.2,0.2,0.5,0.5,0.8,0.7c0.9,0.6,1.9,0.9,3,0.9c3,0,5.4-2.4,5.4-5.4&#10;&#9;&#9;&#9;&#9;c0-3-2.4-5.4-5.4-5.4C375.6,392,374.6,392.3,373.7,392.9z"/>
			<path fill="#BFD6BA" d="M344.4,424.3c0,3,2.4,5.4,5.4,5.4c3,0,5.4-2.4,5.4-5.4c0-3-2.4-5.4-5.4-5.4&#10;&#9;&#9;&#9;&#9;C346.8,418.9,344.4,421.4,344.4,424.3z"/>
			<path fill="#BFD6BA" d="M290.5,424.3c0,3,2.4,5.4,5.4,5.4c3,0,5.4-2.4,5.4-5.4c0-3-2.4-5.4-5.4-5.4&#10;&#9;&#9;&#9;&#9;C292.9,418.9,290.5,421.4,290.5,424.3z"/>
			<path fill="#BFD6BA" d="M344.4,370.5c0,3,2.4,5.4,5.4,5.4c3,0,5.4-2.4,5.4-5.4c0-3-2.4-5.4-5.4-5.4&#10;&#9;&#9;&#9;&#9;C346.8,365.1,344.4,367.5,344.4,370.5z"/>
			<path fill="#BFD6BA" d="M290.5,370.5c0,3,2.4,5.4,5.4,5.4c3,0,5.4-2.4,5.4-5.4c0-3-2.4-5.4-5.4-5.4&#10;&#9;&#9;&#9;&#9;C292.9,365.1,290.5,367.5,290.5,370.5z"/>
			<path fill="#BFD6BA" d="M268.9,445.9c-1.1,0-2.2,0.3-3,0.9c-0.3,0.2-0.6,0.4-0.8,0.7c-0.5,0.5-0.9,1.1-1.2,1.7s-0.4,1.4-0.4,2.1&#10;&#9;&#9;&#9;&#9;c0,0.7,0.2,1.5,0.4,2.1c0.1,0.3,0.3,0.6,0.5,0.9c0.2,0.3,0.4,0.6,0.7,0.8c0.2,0.2,0.5,0.5,0.8,0.7c0.3,0.2,0.6,0.4,0.9,0.5&#10;&#9;&#9;&#9;&#9;c0.6,0.3,1.4,0.4,2.1,0.4c0.7,0,1.5-0.2,2.1-0.4c0.6-0.3,1.2-0.7,1.7-1.2c0.2-0.2,0.5-0.5,0.7-0.8c0.6-0.9,0.9-1.9,0.9-3&#10;&#9;&#9;&#9;&#9;c0-0.7-0.2-1.5-0.4-2.1c-0.1-0.3-0.3-0.6-0.5-0.9C272.4,446.8,270.8,445.9,268.9,445.9z"/>
			<path fill="#BFD6BA" d="M317.4,505.2c0,3,2.4,5.4,5.4,5.4c3,0,5.4-2.4,5.4-5.4c0-3-2.4-5.4-5.4-5.4&#10;&#9;&#9;&#9;&#9;C319.9,499.8,317.4,502.2,317.4,505.2z"/>
			<path fill="#BFD6BA" d="M344.4,532.1c0,3,2.4,5.4,5.4,5.4c3,0,5.4-2.4,5.4-5.4c0-3-2.4-5.4-5.4-5.4&#10;&#9;&#9;&#9;&#9;C346.8,526.7,344.4,529.1,344.4,532.1z"/>
			<path fill="#BFD6BA" d="M290.5,532.1c0,3,2.4,5.4,5.4,5.4c3,0,5.4-2.4,5.4-5.4c0-3-2.4-5.4-5.4-5.4&#10;&#9;&#9;&#9;&#9;C292.9,526.7,290.5,529.1,290.5,532.1z"/>
			<path fill="#BFD6BA" d="M344.4,478.2c0,3,2.4,5.4,5.4,5.4c3,0,5.4-2.4,5.4-5.4c0-3-2.4-5.4-5.4-5.4&#10;&#9;&#9;&#9;&#9;C346.8,472.8,344.4,475.2,344.4,478.2z"/>
			<path fill="#BFD6BA" d="M290.5,478.2c0,3,2.4,5.4,5.4,5.4c3,0,5.4-2.4,5.4-5.4c0-3-2.4-5.4-5.4-5.4&#10;&#9;&#9;&#9;&#9;C292.9,472.8,290.5,475.2,290.5,478.2z"/>
			<path fill="#BFD6BA" d="M268.9,499.8c-1.1,0-2.2,0.3-3,0.9c-0.3,0.2-0.6,0.4-0.8,0.7c-0.5,0.5-0.9,1.1-1.2,1.7s-0.4,1.4-0.4,2.1&#10;&#9;&#9;&#9;&#9;c0,0.7,0.2,1.5,0.4,2.1s0.7,1.2,1.2,1.7c0.2,0.2,0.5,0.5,0.8,0.7c0.9,0.6,1.9,0.9,3,0.9c1.9,0,3.5-0.9,4.5-2.4&#10;&#9;&#9;&#9;&#9;c0.6-0.9,0.9-1.9,0.9-3c0-1.1-0.3-2.2-0.9-3C272.4,500.7,270.8,499.8,268.9,499.8z"/>
			<path fill="#BFD6BA" d="M344.4,586c0,3,2.4,5.4,5.4,5.4c3,0,5.4-2.4,5.4-5.4c0-3-2.4-5.4-5.4-5.4&#10;&#9;&#9;&#9;&#9;C346.8,580.6,344.4,583,344.4,586z"/>
			<path fill="#BFD6BA" d="M290.5,586c0,3,2.4,5.4,5.4,5.4c3,0,5.4-2.4,5.4-5.4c0-3-2.4-5.4-5.4-5.4&#10;&#9;&#9;&#9;&#9;C292.9,580.6,290.5,583,290.5,586z"/>
			<path fill="#BFD6BA" d="M322.8,553.6c-2.2,0-4.1,1.4-5,3.3c-0.3,0.6-0.4,1.4-0.4,2.1c0,0.7,0.2,1.5,0.4,2.1&#10;&#9;&#9;&#9;&#9;c0.8,1.9,2.7,3.3,5,3.3c2.2,0,4.1-1.4,5-3.3c0.3-0.6,0.4-1.4,0.4-2.1c0-0.7-0.2-1.5-0.4-2.1C327,555,325.1,553.6,322.8,553.6z"/>
			<path fill="#BFD6BA" d="M376.7,553.6c-1.1,0-2.2,0.3-3,0.9c-0.3,0.2-0.6,0.4-0.8,0.7c-0.5,0.5-0.9,1.1-1.2,1.7&#10;&#9;&#9;&#9;&#9;c-0.3,0.6-0.4,1.4-0.4,2.1c0,0.7,0.2,1.5,0.4,2.1c0.3,0.6,0.7,1.2,1.2,1.7c0.2,0.2,0.5,0.5,0.8,0.7c0.9,0.6,1.9,0.9,3,0.9&#10;&#9;&#9;&#9;&#9;c2.2,0,4.1-1.4,5-3.3c0.3-0.6,0.4-1.4,0.4-2.1c0-0.7-0.2-1.5-0.4-2.1C380.9,555,378.9,553.6,376.7,553.6z"/>
			<path fill="#BFD6BA" d="M215.1,338.1c-1.9,0-3.5,0.9-4.5,2.4c-0.2,0.3-0.4,0.6-0.5,0.9c-0.3,0.6-0.4,1.4-0.4,2.1&#10;&#9;&#9;&#9;&#9;c0,1.1,0.3,2.2,0.9,3c0.2,0.3,0.4,0.6,0.7,0.8c0.5,0.5,1.1,0.9,1.7,1.2c0.6,0.3,1.4,0.4,2.1,0.4c0.7,0,1.5-0.2,2.1-0.4&#10;&#9;&#9;&#9;&#9;c0.6-0.3,1.2-0.7,1.7-1.2c0.2-0.2,0.5-0.5,0.7-0.8c0.6-0.9,0.9-1.9,0.9-3c0-0.7-0.2-1.5-0.4-2.1c-0.1-0.3-0.3-0.6-0.5-0.9&#10;&#9;&#9;&#9;&#9;C218.6,339.1,216.9,338.1,215.1,338.1z"/>
			<path fill="#BFD6BA" d="M268.9,338.1c-1.1,0-2.2,0.3-3,0.9c-0.3,0.2-0.6,0.4-0.8,0.7c-0.2,0.2-0.5,0.5-0.7,0.8&#10;&#9;&#9;&#9;&#9;c-0.2,0.3-0.4,0.6-0.5,0.9c-0.3,0.6-0.4,1.4-0.4,2.1c0,0.7,0.2,1.5,0.4,2.1c0.1,0.3,0.3,0.6,0.5,0.9c0.2,0.3,0.4,0.6,0.7,0.8&#10;&#9;&#9;&#9;&#9;c0.2,0.2,0.5,0.5,0.8,0.7c0.3,0.2,0.6,0.4,0.9,0.5c0.6,0.3,1.4,0.4,2.1,0.4c0.7,0,1.5-0.2,2.1-0.4c0.6-0.3,1.2-0.7,1.7-1.2&#10;&#9;&#9;&#9;&#9;c0.2-0.2,0.5-0.5,0.7-0.8c0.6-0.9,0.9-1.9,0.9-3c0-0.7-0.2-1.5-0.4-2.1c-0.1-0.3-0.3-0.6-0.5-0.9&#10;&#9;&#9;&#9;&#9;C272.4,339.1,270.8,338.1,268.9,338.1z"/>
			<path fill="#BFD6BA" d="M215.1,445.9c-2.2,0-4.1,1.4-5,3.3c-0.3,0.6-0.4,1.4-0.4,2.1c0,1.1,0.3,2.2,0.9,3&#10;&#9;&#9;&#9;&#9;c0.2,0.3,0.4,0.6,0.7,0.8c0.5,0.5,1.1,0.9,1.7,1.2c0.6,0.3,1.4,0.4,2.1,0.4c0.7,0,1.5-0.2,2.1-0.4c0.6-0.3,1.2-0.7,1.7-1.2&#10;&#9;&#9;&#9;&#9;c0.2-0.2,0.5-0.5,0.7-0.8c0.6-0.9,0.9-1.9,0.9-3c0-0.7-0.2-1.5-0.4-2.1C219.2,447.2,217.3,445.9,215.1,445.9z"/>
			<path fill="#BFD6BA" d="M209.7,397.4c0,3,2.4,5.4,5.4,5.4c3,0,5.4-2.4,5.4-5.4c0-3-2.4-5.4-5.4-5.4&#10;&#9;&#9;&#9;&#9;C212.1,392,209.7,394.4,209.7,397.4z"/>
			<path fill="#BFD6BA" d="M268.9,392c-1.1,0-2.2,0.3-3,0.9c-0.3,0.2-0.6,0.4-0.8,0.7c-0.5,0.5-0.9,1.1-1.2,1.7s-0.4,1.4-0.4,2.1&#10;&#9;&#9;&#9;&#9;c0,0.7,0.2,1.5,0.4,2.1s0.7,1.2,1.2,1.7c0.2,0.2,0.5,0.5,0.8,0.7c0.9,0.6,1.9,0.9,3,0.9c1.9,0,3.5-0.9,4.5-2.4&#10;&#9;&#9;&#9;&#9;c0.6-0.9,0.9-1.9,0.9-3c0-1.1-0.3-2.2-0.9-3C272.4,392.9,270.8,392,268.9,392z"/>
			<path fill="#BFD6BA" d="M236.6,424.3c0,3,2.4,5.4,5.4,5.4c3,0,5.4-2.4,5.4-5.4c0-3-2.4-5.4-5.4-5.4&#10;&#9;&#9;&#9;&#9;C239,418.9,236.6,421.4,236.6,424.3z"/>
			<path fill="#BFD6BA" d="M182.7,424.3c0,3,2.4,5.4,5.4,5.4c3,0,5.4-2.4,5.4-5.4c0-3-2.4-5.4-5.4-5.4&#10;&#9;&#9;&#9;&#9;C185.1,418.9,182.7,421.4,182.7,424.3z"/>
			<path fill="#BFD6BA" d="M236.6,370.5c0,3,2.4,5.4,5.4,5.4c3,0,5.4-2.4,5.4-5.4c0-3-2.4-5.4-5.4-5.4&#10;&#9;&#9;&#9;&#9;C239,365.1,236.6,367.5,236.6,370.5z"/>
			<path fill="#BFD6BA" d="M182.7,370.5c0,3,2.4,5.4,5.4,5.4c3,0,5.4-2.4,5.4-5.4c0-3-2.4-5.4-5.4-5.4&#10;&#9;&#9;&#9;&#9;C185.1,365.1,182.7,367.5,182.7,370.5z"/>
			<path fill="#BFD6BA" d="M163.3,446.3c-0.6-0.3-1.4-0.4-2.1-0.4c-0.7,0-1.5,0.2-2.1,0.4c-1.3,0.5-2.3,1.6-2.9,2.9&#10;&#9;&#9;&#9;&#9;c-0.3,0.6-0.4,1.4-0.4,2.1c0,1.1,0.3,2.2,0.9,3c0.2,0.3,0.4,0.6,0.7,0.8c0.5,0.5,1.1,0.9,1.7,1.2c0.6,0.3,1.4,0.4,2.1,0.4&#10;&#9;&#9;&#9;&#9;c0.7,0,1.5-0.2,2.1-0.4c0.6-0.3,1.2-0.7,1.7-1.2c0.2-0.2,0.5-0.5,0.7-0.8c0.6-0.9,0.9-1.9,0.9-3c0-0.7-0.2-1.5-0.4-2.1&#10;&#9;&#9;&#9;&#9;C165.6,447.9,164.6,446.9,163.3,446.3z"/>
			<path fill="#BFD6BA" d="M209.7,505.2c0,3,2.4,5.4,5.4,5.4c3,0,5.4-2.4,5.4-5.4c0-3-2.4-5.4-5.4-5.4&#10;&#9;&#9;&#9;&#9;C212.1,499.8,209.7,502.2,209.7,505.2z"/>
			<path fill="#BFD6BA" d="M236.6,532.1c0,3,2.4,5.4,5.4,5.4c3,0,5.4-2.4,5.4-5.4c0-3-2.4-5.4-5.4-5.4&#10;&#9;&#9;&#9;&#9;C239,526.7,236.6,529.1,236.6,532.1z"/>
			<path fill="#BFD6BA" d="M182.7,532.1c0,3,2.4,5.4,5.4,5.4c3,0,5.4-2.4,5.4-5.4c0-3-2.4-5.4-5.4-5.4&#10;&#9;&#9;&#9;&#9;C185.1,526.7,182.7,529.1,182.7,532.1z"/>
			<path fill="#BFD6BA" d="M236.6,478.2c0,3,2.4,5.4,5.4,5.4c3,0,5.4-2.4,5.4-5.4c0-3-2.4-5.4-5.4-5.4&#10;&#9;&#9;&#9;&#9;C239,472.8,236.6,475.2,236.6,478.2z"/>
			<path fill="#BFD6BA" d="M182.7,478.2c0,3,2.4,5.4,5.4,5.4c3,0,5.4-2.4,5.4-5.4c0-3-2.4-5.4-5.4-5.4&#10;&#9;&#9;&#9;&#9;C185.1,472.8,182.7,475.2,182.7,478.2z"/>
			<path fill="#BFD6BA" d="M161.2,499.8c-0.7,0-1.5,0.2-2.1,0.4c-1.9,0.8-3.3,2.7-3.3,5c0,2.2,1.4,4.1,3.3,5&#10;&#9;&#9;&#9;&#9;c0.6,0.3,1.4,0.4,2.1,0.4c0.7,0,1.5-0.2,2.1-0.4c1.9-0.8,3.3-2.7,3.3-5c0-2.2-1.4-4.1-3.3-5C162.6,499.9,161.9,499.8,161.2,499.8&#10;&#9;&#9;&#9;&#9;z"/>
			<path fill="#BFD6BA" d="M236.6,586c0,3,2.4,5.4,5.4,5.4c3,0,5.4-2.4,5.4-5.4c0-3-2.4-5.4-5.4-5.4C239,580.6,236.6,583,236.6,586z&#10;&#9;&#9;&#9;&#9;"/>
			<path fill="#BFD6BA" d="M182.7,586c0,3,2.4,5.4,5.4,5.4c3,0,5.4-2.4,5.4-5.4c0-3-2.4-5.4-5.4-5.4&#10;&#9;&#9;&#9;&#9;C185.1,580.6,182.7,583,182.7,586z"/>
			<path fill="#BFD6BA" d="M215.1,553.6c-2.2,0-4.1,1.4-5,3.3c-0.3,0.6-0.4,1.4-0.4,2.1c0,0.7,0.2,1.5,0.4,2.1&#10;&#9;&#9;&#9;&#9;c0.8,1.9,2.7,3.3,5,3.3c2.2,0,4.1-1.4,5-3.3c0.3-0.6,0.4-1.4,0.4-2.1c0-0.7-0.2-1.5-0.4-2.1C219.2,555,217.3,553.6,215.1,553.6z"/>
			<path fill="#BFD6BA" d="M268.9,553.6c-1.1,0-2.2,0.3-3,0.9c-0.3,0.2-0.6,0.4-0.8,0.7c-0.5,0.5-0.9,1.1-1.2,1.7&#10;&#9;&#9;&#9;&#9;c-0.3,0.6-0.4,1.4-0.4,2.1c0,0.7,0.2,1.5,0.4,2.1c0.3,0.6,0.7,1.2,1.2,1.7c0.2,0.2,0.5,0.5,0.8,0.7c0.9,0.6,1.9,0.9,3,0.9&#10;&#9;&#9;&#9;&#9;c1.9,0,3.5-0.9,4.5-2.4c0.2-0.3,0.4-0.6,0.5-0.9c0.3-0.6,0.4-1.4,0.4-2.1c0-0.7-0.2-1.5-0.4-2.1c-0.1-0.3-0.3-0.6-0.5-0.9&#10;&#9;&#9;&#9;&#9;C272.4,554.6,270.8,553.6,268.9,553.6z"/>
			<path fill="#BFD6BA" d="M107.3,338.1c-1.9,0-3.5,0.9-4.5,2.4c-0.2,0.3-0.4,0.6-0.5,0.9c-0.3,0.6-0.4,1.4-0.4,2.1&#10;&#9;&#9;&#9;&#9;c0,1.1,0.3,2.2,0.9,3c0.2,0.3,0.4,0.6,0.7,0.8c0.5,0.5,1.1,0.9,1.7,1.2c0.6,0.3,1.4,0.4,2.1,0.4c0.7,0,1.5-0.2,2.1-0.4&#10;&#9;&#9;&#9;&#9;c0.6-0.3,1.2-0.7,1.7-1.2c0.2-0.2,0.5-0.5,0.7-0.8c0.6-0.9,0.9-1.9,0.9-3c0-0.7-0.2-1.5-0.4-2.1c-0.1-0.3-0.3-0.6-0.5-0.9&#10;&#9;&#9;&#9;&#9;C110.8,339.1,109.2,338.1,107.3,338.1z"/>
			<path fill="#BFD6BA" d="M163.3,338.5c-0.6-0.3-1.4-0.4-2.1-0.4c-0.7,0-1.5,0.2-2.1,0.4c-1,0.4-1.8,1.1-2.4,2&#10;&#9;&#9;&#9;&#9;c-0.2,0.3-0.4,0.6-0.5,0.9c-0.3,0.6-0.4,1.4-0.4,2.1c0,1.1,0.3,2.2,0.9,3c0.2,0.3,0.4,0.6,0.7,0.8c0.5,0.5,1.1,0.9,1.7,1.2&#10;&#9;&#9;&#9;&#9;c0.6,0.3,1.4,0.4,2.1,0.4c0.7,0,1.5-0.2,2.1-0.4c0.6-0.3,1.2-0.7,1.7-1.2c0.2-0.2,0.5-0.5,0.7-0.8c0.6-0.9,0.9-1.9,0.9-3&#10;&#9;&#9;&#9;&#9;c0-0.7-0.2-1.5-0.4-2.1c-0.1-0.3-0.3-0.6-0.5-0.9C165.1,339.6,164.2,339,163.3,338.5z"/>
			<path fill="#BFD6BA" d="M107.3,445.9c-2.2,0-4.1,1.4-5,3.3c-0.3,0.6-0.4,1.4-0.4,2.1c0,1.1,0.3,2.2,0.9,3&#10;&#9;&#9;&#9;&#9;c0.2,0.3,0.4,0.6,0.7,0.8c0.5,0.5,1.1,0.9,1.7,1.2c0.6,0.3,1.4,0.4,2.1,0.4c0.7,0,1.5-0.2,2.1-0.4c0.6-0.3,1.2-0.7,1.7-1.2&#10;&#9;&#9;&#9;&#9;c0.2-0.2,0.5-0.5,0.7-0.8c0.6-0.9,0.9-1.9,0.9-3c0-0.7-0.2-1.5-0.4-2.1C111.4,447.2,109.5,445.9,107.3,445.9z"/>
			<path fill="#BFD6BA" d="M101.9,397.4c0,3,2.4,5.4,5.4,5.4c3,0,5.4-2.4,5.4-5.4c0-3-2.4-5.4-5.4-5.4&#10;&#9;&#9;&#9;&#9;C104.3,392,101.9,394.4,101.9,397.4z"/>
			<path fill="#BFD6BA" d="M161.2,392c-0.7,0-1.5,0.2-2.1,0.4c-1.9,0.8-3.3,2.7-3.3,5c0,2.2,1.4,4.1,3.3,5c0.6,0.3,1.4,0.4,2.1,0.4&#10;&#9;&#9;&#9;&#9;c0.7,0,1.5-0.2,2.1-0.4c1.9-0.8,3.3-2.7,3.3-5c0-2.2-1.4-4.1-3.3-5C162.6,392.2,161.9,392,161.2,392z"/>
			<path fill="#BFD6BA" d="M128.9,424.3c0,3,2.4,5.4,5.4,5.4c3,0,5.4-2.4,5.4-5.4c0-3-2.4-5.4-5.4-5.4&#10;&#9;&#9;&#9;&#9;C131.3,418.9,128.9,421.4,128.9,424.3z"/>
			<path fill="#BFD6BA" d="M75,424.3c0,3,2.4,5.4,5.4,5.4c3,0,5.4-2.4,5.4-5.4c0-3-2.4-5.4-5.4-5.4C77.4,418.9,75,421.4,75,424.3z"/>
			<path fill="#BFD6BA" d="M128.9,370.5c0,3,2.4,5.4,5.4,5.4c3,0,5.4-2.4,5.4-5.4c0-3-2.4-5.4-5.4-5.4&#10;&#9;&#9;&#9;&#9;C131.3,365.1,128.9,367.5,128.9,370.5z"/>
			<path fill="#BFD6BA" d="M75,370.5c0,3,2.4,5.4,5.4,5.4c3,0,5.4-2.4,5.4-5.4c0-3-2.4-5.4-5.4-5.4C77.4,365.1,75,367.5,75,370.5z"/>
			<path fill="#BFD6BA" d="M53.4,445.9c-1.5,0-2.8,0.6-3.8,1.6c-0.5,0.5-0.9,1.1-1.2,1.7s-0.4,1.4-0.4,2.1c0,0.7,0.2,1.5,0.4,2.1&#10;&#9;&#9;&#9;&#9;c0.1,0.3,0.3,0.6,0.5,0.9c0.2,0.3,0.4,0.6,0.7,0.8c0.5,0.5,1.1,0.9,1.7,1.2c0.6,0.3,1.4,0.4,2.1,0.4c0.7,0,1.5-0.2,2.1-0.4&#10;&#9;&#9;&#9;&#9;c0.6-0.3,1.2-0.7,1.7-1.2c0.2-0.2,0.5-0.5,0.7-0.8c0.6-0.9,0.9-1.9,0.9-3c0-0.7-0.2-1.5-0.4-2.1&#10;&#9;&#9;&#9;&#9;C57.6,447.2,55.7,445.9,53.4,445.9z"/>
			<path fill="#BFD6BA" d="M101.9,505.2c0,3,2.4,5.4,5.4,5.4c3,0,5.4-2.4,5.4-5.4c0-3-2.4-5.4-5.4-5.4&#10;&#9;&#9;&#9;&#9;C104.3,499.8,101.9,502.2,101.9,505.2z"/>
			<path fill="#BFD6BA" d="M128.9,532.1c0,3,2.4,5.4,5.4,5.4c3,0,5.4-2.4,5.4-5.4c0-3-2.4-5.4-5.4-5.4&#10;&#9;&#9;&#9;&#9;C131.3,526.7,128.9,529.1,128.9,532.1z"/>
			<path fill="#BFD6BA" d="M75,532.1c0,3,2.4,5.4,5.4,5.4c3,0,5.4-2.4,5.4-5.4c0-3-2.4-5.4-5.4-5.4C77.4,526.7,75,529.1,75,532.1z"/>
			<path fill="#BFD6BA" d="M128.9,478.2c0,3,2.4,5.4,5.4,5.4c3,0,5.4-2.4,5.4-5.4c0-3-2.4-5.4-5.4-5.4&#10;&#9;&#9;&#9;&#9;C131.3,472.8,128.9,475.2,128.9,478.2z"/>
			<path fill="#BFD6BA" d="M75,478.2c0,3,2.4,5.4,5.4,5.4c3,0,5.4-2.4,5.4-5.4c0-3-2.4-5.4-5.4-5.4C77.4,472.8,75,475.2,75,478.2z"/>
			<path fill="#BFD6BA" d="M49.6,501.3c-0.5,0.5-0.9,1.1-1.2,1.7s-0.4,1.4-0.4,2.1c0,0.7,0.2,1.5,0.4,2.1s0.7,1.2,1.2,1.7&#10;&#9;&#9;&#9;&#9;c1,1,2.3,1.6,3.8,1.6c3,0,5.4-2.4,5.4-5.4c0-3-2.4-5.4-5.4-5.4C51.9,499.8,50.6,500.4,49.6,501.3z"/>
			<path fill="#BFD6BA" d="M128.9,586c0,3,2.4,5.4,5.4,5.4c3,0,5.4-2.4,5.4-5.4c0-3-2.4-5.4-5.4-5.4&#10;&#9;&#9;&#9;&#9;C131.3,580.6,128.9,583,128.9,586z"/>
			<path fill="#BFD6BA" d="M75,586c0,3,2.4,5.4,5.4,5.4c3,0,5.4-2.4,5.4-5.4c0-3-2.4-5.4-5.4-5.4C77.4,580.6,75,583,75,586z"/>
			<path fill="#BFD6BA" d="M107.3,553.6c-2.2,0-4.1,1.4-5,3.3c-0.3,0.6-0.4,1.4-0.4,2.1c0,0.7,0.2,1.5,0.4,2.1&#10;&#9;&#9;&#9;&#9;c0.8,1.9,2.7,3.3,5,3.3c2.2,0,4.1-1.4,5-3.3c0.3-0.6,0.4-1.4,0.4-2.1c0-0.7-0.2-1.5-0.4-2.1C111.4,555,109.5,553.6,107.3,553.6z"/>
			<path fill="#BFD6BA" d="M163.3,554.1c-0.6-0.3-1.4-0.4-2.1-0.4c-0.7,0-1.5,0.2-2.1,0.4c-1.3,0.5-2.3,1.6-2.9,2.9&#10;&#9;&#9;&#9;&#9;c-0.3,0.6-0.4,1.4-0.4,2.1c0,0.7,0.2,1.5,0.4,2.1c0.5,1.3,1.6,2.3,2.9,2.9c0.6,0.3,1.4,0.4,2.1,0.4c0.7,0,1.5-0.2,2.1-0.4&#10;&#9;&#9;&#9;&#9;c1.3-0.5,2.3-1.6,2.9-2.9c0.3-0.6,0.4-1.4,0.4-2.1c0-0.7-0.2-1.5-0.4-2.1C165.6,555.7,164.6,554.6,163.3,554.1z"/>
			<path fill="#BFD6BA" d="M53.4,338.1c-1.5,0-2.8,0.6-3.8,1.6c-0.2,0.2-0.5,0.5-0.7,0.8c-0.2,0.3-0.4,0.6-0.5,0.9&#10;&#9;&#9;&#9;&#9;c-0.3,0.6-0.4,1.4-0.4,2.1c0,0.7,0.2,1.5,0.4,2.1c0.1,0.3,0.3,0.6,0.5,0.9c0.2,0.3,0.4,0.6,0.7,0.8c0.5,0.5,1.1,0.9,1.7,1.2&#10;&#9;&#9;&#9;&#9;c0.6,0.3,1.4,0.4,2.1,0.4c0.7,0,1.5-0.2,2.1-0.4c0.6-0.3,1.2-0.7,1.7-1.2c0.2-0.2,0.5-0.5,0.7-0.8c0.6-0.9,0.9-1.9,0.9-3&#10;&#9;&#9;&#9;&#9;c0-0.7-0.2-1.5-0.4-2.1c-0.1-0.3-0.3-0.6-0.5-0.9C56.9,339.1,55.3,338.1,53.4,338.1z"/>
			<path fill="#BFD6BA" d="M0,445.9v10.7c0.6,0,1.1-0.2,1.6-0.4c0.6-0.3,1.2-0.7,1.7-1.2c0.2-0.2,0.5-0.5,0.7-0.8&#10;&#9;&#9;&#9;&#9;c0.6-0.9,0.9-1.9,0.9-3c0-0.7-0.2-1.5-0.4-2.1C3.7,447.4,2,446.1,0,445.9z"/>
			<path fill="#BFD6BA" d="M0,402.7c2.8-0.2,4.9-2.5,4.9-5.3c0-2.8-2.2-5.1-4.9-5.3V402.7z"/>
			<path fill="#BFD6BA" d="M49.6,393.6c-0.5,0.5-0.9,1.1-1.2,1.7s-0.4,1.4-0.4,2.1c0,0.7,0.2,1.5,0.4,2.1s0.7,1.2,1.2,1.7&#10;&#9;&#9;&#9;&#9;c1,1,2.3,1.6,3.8,1.6c3,0,5.4-2.4,5.4-5.4c0-3-2.4-5.4-5.4-5.4C51.9,392,50.6,392.6,49.6,393.6z"/>
			<path fill="#BFD6BA" d="M21.1,424.3c0,3,2.4,5.4,5.4,5.4c3,0,5.4-2.4,5.4-5.4c0-3-2.4-5.4-5.4-5.4&#10;&#9;&#9;&#9;&#9;C23.5,418.9,21.1,421.4,21.1,424.3z"/>
			<path fill="#BFD6BA" d="M21.1,370.5c0,3,2.4,5.4,5.4,5.4c3,0,5.4-2.4,5.4-5.4c0-3-2.4-5.4-5.4-5.4&#10;&#9;&#9;&#9;&#9;C23.5,365.1,21.1,367.5,21.1,370.5z"/>
			<path fill="#BFD6BA" d="M0,338.2v10.7c0.6,0,1.1-0.2,1.6-0.4c0.6-0.3,1.2-0.7,1.7-1.2c0.2-0.2,0.5-0.5,0.7-0.8&#10;&#9;&#9;&#9;&#9;c0.6-0.9,0.9-1.9,0.9-3c0-0.7-0.2-1.5-0.4-2.1c-0.1-0.3-0.3-0.6-0.5-0.9C3.1,339.2,1.7,338.3,0,338.2z"/>
			<path fill="#BFD6BA" d="M0,510.5c2.8-0.2,4.9-2.5,4.9-5.3c0-2.8-2.2-5.1-4.9-5.3V510.5z"/>
			<path fill="#BFD6BA" d="M21.1,532.1c0,3,2.4,5.4,5.4,5.4c3,0,5.4-2.4,5.4-5.4c0-3-2.4-5.4-5.4-5.4&#10;&#9;&#9;&#9;&#9;C23.5,526.7,21.1,529.1,21.1,532.1z"/>
			<path fill="#BFD6BA" d="M21.1,478.2c0,3,2.4,5.4,5.4,5.4c3,0,5.4-2.4,5.4-5.4c0-3-2.4-5.4-5.4-5.4&#10;&#9;&#9;&#9;&#9;C23.5,472.8,21.1,475.2,21.1,478.2z"/>
			<path fill="#BFD6BA" d="M21.1,586c0,3,2.4,5.4,5.4,5.4c3,0,5.4-2.4,5.4-5.4c0-3-2.4-5.4-5.4-5.4C23.5,580.6,21.1,583,21.1,586z"/>
			<path fill="#BFD6BA" d="M0,553.7v10.7c2-0.2,3.7-1.4,4.5-3.2c0.3-0.6,0.4-1.4,0.4-2.1c0-0.7-0.2-1.5-0.4-2.1&#10;&#9;&#9;&#9;&#9;C3.7,555.1,2,553.9,0,553.7z"/>
			<path fill="#BFD6BA" d="M53.4,553.6c-1.5,0-2.8,0.6-3.8,1.6c-0.5,0.5-0.9,1.1-1.2,1.7c-0.3,0.6-0.4,1.4-0.4,2.1&#10;&#9;&#9;&#9;&#9;c0,0.7,0.2,1.5,0.4,2.1c0.3,0.6,0.7,1.2,1.2,1.7c1,1,2.3,1.6,3.8,1.6c2.2,0,4.1-1.4,5-3.3c0.3-0.6,0.4-1.4,0.4-2.1&#10;&#9;&#9;&#9;&#9;c0-0.7-0.2-1.5-0.4-2.1C57.6,555,55.7,553.6,53.4,553.6z"/>
		</g>
		<g>
			<g>
				<path fill="#8C5232" d="M1223.8,779.8V118.9H886.3v660.9H1223.8z M908.3,140.9h293.5v616.9H908.3V140.9z"/>
			</g>
			<path d="M 908.299988 140.899994 H 1201.799988 V 757.800018 H 908.299988 V 140.899994 Z" fill="#84D5F7"/>
			<path d="M 1043.099976 687.099976 H 1201.799973 V 757.799973 H 1043.099976 V 687.099976 Z" fill="#4EC9F5"/>
			<path d="M 908.299988 140.899994 H 1123.299988 V 757.800018 H 908.299988 V 140.899994 Z" fill="#A67240"/>
			<path d="M 1103.50005 472.799988 A 17.700001 17.700001 0 0 1 1085.800049 490.499989 A 17.700001 17.700001 0 0 1 1068.100048 472.799988 A 17.700001 17.700001 0 0 1 1085.800049 455.099987 A 17.700001 17.700001 0 0 1 1103.50005 472.799988 Z" fill="#8C5232"/>
			<g>
				<path d="M 929.900024 211.100006 H 1103.400024 V 259.800007 H 929.900024 V 211.100006 Z" fill="#D1D2D1"/>
				<path d="M 929.900024 252.199997 H 1103.400024 V 259.799997 H 929.900024 V 252.199997 Z" fill="#B6B7B8"/>
				<g>
					<path fill="#3E4A5A" d="M947.6,220.6v22.9h3.5v-8.6h2c1.5,0,2.8-0.5,3.8-1.6c1.1-1.1,1.6-2.4,1.6-3.9V226&#10;&#9;&#9;&#9;&#9;&#9;&#9;c0-1.6-0.5-2.9-1.4-3.9c-1-1.1-2.3-1.6-4-1.6H947.6z M954.6,224.7c0.4,0.4,0.5,0.8,0.5,1.4v3.3c0,0.5-0.2,1-0.6,1.4&#10;&#9;&#9;&#9;&#9;&#9;&#9;s-0.8,0.6-1.4,0.6h-2.1v-7.3h2.1C953.8,224.1,954.3,224.3,954.6,224.7z"/>
					<path d="M 971.0999755859375 224 L 971.0999755859375 220.60000610351562 L 961.2999877929688 220.60000610351562 L 961.2999877929688 243.5 L 971.0999755859375 243.5 L 971.0999755859375 240 L 964.7000122070312 240 L 964.7000122070312 233.8000030517578 L 969.4000244140625 233.8000030517578 L 969.4000244140625 230.3000030517578 L 964.7000122070312 230.3000030517578 L 964.7000122070312 224 Z" fill="#3E4A5A"/>
					<path fill="#3E4A5A" d="M973.5,220.6v22.9h5.4c1.5,0,2.8-0.5,3.8-1.6c1.1-1.1,1.6-2.4,1.6-3.9v-12c0-1.5-0.5-2.8-1.6-3.9&#10;&#9;&#9;&#9;&#9;&#9;&#9;c-1.1-1.1-2.3-1.6-3.8-1.6H973.5z M980.4,224.7c0.4,0.4,0.6,0.9,0.6,1.4v12c0,0.5-0.2,1-0.6,1.4c-0.4,0.4-0.8,0.6-1.4,0.6h-2.1&#10;&#9;&#9;&#9;&#9;&#9;&#9;v-16h2.1C979.5,224.1,980,224.3,980.4,224.7z"/>
					<path d="M 987.400024 220.600006 H 990.900024 V 243.500006 H 987.400024 V 220.600006 Z" fill="#3E4A5A"/>
					<path fill="#3E4A5A" d="M993.7,243.5h3.6l0.8-5.3h3.6l0.8,5.3h3.6l-3.8-22.9h-4.8L993.7,243.5z M999.9,225.8l1.3,9h-2.6&#10;&#9;&#9;&#9;&#9;&#9;&#9;L999.9,225.8z"/>
					<path d="M 1013 243.5 L 1013 224.10000610351562 L 1016.5999755859375 224.10000610351562 L 1016.5999755859375 220.60000610351562 L 1005.7999877929688 220.60000610351562 L 1005.7999877929688 224.10000610351562 L 1009.5 224.10000610351562 L 1009.5 243.5 Z" fill="#3E4A5A"/>
					<path fill="#3E4A5A" d="M1030.3,229.4V226c0-1.7-0.4-2.9-1.2-3.9c-0.9-1.1-2.3-1.6-4.2-1.6h-5.4v22.9h3.5v-8.6h2&#10;&#9;&#9;&#9;&#9;&#9;&#9;c0.1,0,0.2,0,0.3,0l2.1,8.6h3.7l-2.6-10C1029.7,232.4,1030.3,231,1030.3,229.4z M1026.9,229.4c0,0.5-0.2,1-0.6,1.4&#10;&#9;&#9;&#9;&#9;&#9;&#9;c-0.4,0.4-0.8,0.6-1.4,0.6h-2.1v-7.3h2.1c1.3,0,2,0.7,2,2V229.4z"/>
					<path d="M 1033.900024 220.600006 H 1037.400024 V 243.500006 H 1033.900024 V 220.600006 Z" fill="#3E4A5A"/>
					<path fill="#3E4A5A" d="M1051.4,228.4v-2.6c0-1.5-0.5-2.8-1.6-3.9c-1.1-1.1-2.4-1.6-3.9-1.6c-1.5,0-2.8,0.5-3.9,1.6&#10;&#9;&#9;&#9;&#9;&#9;&#9;c-1.1,1.1-1.6,2.4-1.6,3.9v12.5c0,1.5,0.5,2.8,1.6,3.9c1.1,1.1,2.4,1.6,3.9,1.6c1.5,0,2.8-0.5,3.9-1.6c1.1-1.1,1.6-2.4,1.6-3.9&#10;&#9;&#9;&#9;&#9;&#9;&#9;v-3.2h-3.6v3.2c0,0.5-0.2,1-0.6,1.4c-0.4,0.4-0.9,0.6-1.4,0.6c-0.5,0-1-0.2-1.4-0.6c-0.4-0.4-0.6-0.8-0.6-1.4v-12.5&#10;&#9;&#9;&#9;&#9;&#9;&#9;c0-0.5,0.2-1,0.6-1.4c0.4-0.4,0.9-0.6,1.4-0.6c0.5,0,1,0.2,1.4,0.6c0.4,0.4,0.6,0.9,0.6,1.4v2.7H1051.4z"/>
					<path d="M 1054.199951 220.600006 H 1057.699951 V 243.500006 H 1054.199951 V 220.600006 Z" fill="#3E4A5A"/>
					<path fill="#3E4A5A" d="M1060.6,243.5h3.6l0.8-5.3h3.6l0.8,5.3h3.6l-3.8-22.9h-4.8L1060.6,243.5z M1066.8,225.8l1.3,9h-2.6&#10;&#9;&#9;&#9;&#9;&#9;&#9;L1066.8,225.8z"/>
					<path d="M 1079.800048828125 220.60000610351562 L 1076 220.60000610351562 L 1076 243.5 L 1079.4000244140625 243.5 L 1079.4000244140625 228.8000030517578 L 1084.199951171875 243.5 L 1087.9000244140625 243.5 L 1087.9000244140625 220.60000610351562 L 1084.4000244140625 220.60000610351562 L 1084.4000244140625 236 Z" fill="#3E4A5A"/>
				</g>
			</g>
		</g>
		<g>
			<path d="M 0 786.299988 H 1400 V 979.999985 H 0 V 786.299988 Z" fill="#4A93BC"/>
			<path d="M 0 757.799988 H 1400 V 786.299988 H 0 V 757.799988 Z" fill="#1F85AE"/>
		</g>
		<g>
			<g>
				<path d="M 1270.199951 786.299988 H 1275.199951 V 979.999985 H 1270.199951 V 786.299988 Z" fill="#3F7EA1"/>
			</g>
			<g>
				<path d="M 1143 786.299988 H 1148 V 979.999985 H 1143 V 786.299988 Z" fill="#3F7EA1"/>
			</g>
			<g>
				<path d="M 1015.700012 786.299988 H 1020.700012 V 979.999985 H 1015.700012 V 786.299988 Z" fill="#3F7EA1"/>
			</g>
			<g>
				<path d="M 888.400024 786.299988 H 893.400024 V 979.999985 H 888.400024 V 786.299988 Z" fill="#3F7EA1"/>
			</g>
			<g>
				<path d="M 761.099976 786.299988 H 766.099976 V 979.999985 H 761.099976 V 786.299988 Z" fill="#3F7EA1"/>
			</g>
			<g>
				<path d="M 633.900024 786.299988 H 638.900024 V 979.999985 H 633.900024 V 786.299988 Z" fill="#3F7EA1"/>
			</g>
			<g>
				<path d="M 506.600006 786.299988 H 511.600006 V 979.999985 H 506.600006 V 786.299988 Z" fill="#3F7EA1"/>
			</g>
			<g>
				<path d="M 379.299988 786.299988 H 384.299988 V 979.999985 H 379.299988 V 786.299988 Z" fill="#3F7EA1"/>
			</g>
			<g>
				<path d="M 252 786.299988 H 257 V 979.999985 H 252 V 786.299988 Z" fill="#3F7EA1"/>
			</g>
			<g>
				<path d="M 124.800003 786.299988 H 129.800003 V 979.999985 H 124.800003 V 786.299988 Z" fill="#3F7EA1"/>
			</g>
		</g>
		<path d="M 524.299995 809.299988 A 73.900002 8.2 0 0 1 450.399994 817.499988 A 73.900002 8.2 0 0 1 376.499992 809.299988 A 73.900002 8.2 0 0 1 450.399994 801.099988 A 73.900002 8.2 0 0 1 524.299995 809.299988 Z" fill="#3F7EA1"/>
		<path d="M 1395.400002 809.299988 A 73.900002 8.2 0 0 1 1321.5 817.499988 A 73.900002 8.2 0 0 1 1247.599998 809.299988 A 73.900002 8.2 0 0 1 1321.5 801.099988 A 73.900002 8.2 0 0 1 1395.400002 809.299988 Z" fill="#3F7EA1"/>
		<path d="M 1313.200043 921.700012 A 133.899994 14.8 0 0 1 1179.300049 936.500012 A 133.899994 14.8 0 0 1 1045.400055 921.700012 A 133.899994 14.8 0 0 1 1179.300049 906.900012 A 133.899994 14.8 0 0 1 1313.200043 921.700012 Z" fill="#3F7EA1"/>
		<g>
			<path fill="#00A14B" d="M395.9,624.9c11.2,17.7,11.1,18.8,13.7,29.8c3.8,16.8,11.8,34.8,11.9,52.1l5-1.5&#10;&#9;&#9;&#9;&#9;c19.9,0,39.9-0.2,59.8-1.1c2-12.5,1.6-25.7,2.7-38.5c1.1-13.8,4.6-26.5,7.3-40c1.5-7.5,3.2-15.1,5.6-22.3c1.1-3.3,3.1-6.6,3-10&#10;&#9;&#9;&#9;&#9;c-15.2,6.1-33.4,23.6-37.8,39.5c-1.5-18.6-5.2-36.4-10.3-54.4c-6.6,17.3-14.3,35-20.4,52.7c-3.2,9.3-5.4,20.1-3,29.9&#10;&#9;&#9;&#9;&#9;C426.2,655.4,415.8,628.3,395.9,624.9z"/>
			<path d="M 488.8999938964844 807.7999877929688 L 499.29998779296875 693.2000122070312 L 401.5 693.2000122070312 L 412 807.7999877929688 Z" fill="#8C5232"/>
			<path d="M 391 685.799988 H 507.5 V 708.299988 H 391 V 685.799988 Z" fill="#A67240"/>
		</g>
		<g>
			<path fill="#00A14B" d="M1268.2,622.8c11.2,17.7,11.1,18.8,13.7,29.8c3.8,16.8,11.8,34.8,11.9,52.1l5-1.5&#10;&#9;&#9;&#9;&#9;c19.9,0,39.9-0.2,59.8-1.1c2-12.5,1.6-25.7,2.7-38.5c1.1-13.8,4.6-26.5,7.3-40c1.5-7.5,3.2-15.1,5.6-22.3c1.1-3.3,3.1-6.6,3-10&#10;&#9;&#9;&#9;&#9;c-15.2,6.1-33.4,23.6-37.8,39.5c-1.5-18.6-5.2-36.4-10.3-54.4c-6.6,17.3-14.3,35-20.4,52.7c-3.2,9.3-5.4,20.1-3,29.9&#10;&#9;&#9;&#9;&#9;C1298.5,653.3,1288.1,626.2,1268.2,622.8z"/>
			<path d="M 1284.300048828125 805.7000122070312 L 1361.199951171875 805.7000122070312 L 1371.5999755859375 691.0999755859375 L 1273.800048828125 691.0999755859375 Z" fill="#8C5232"/>
			<path d="M 1263.300049 683.700012 H 1379.800049 V 706.200012 H 1263.300049 V 683.700012 Z" fill="#A67240"/>
		</g>
		<g>
			<g>
				<path fill="#3D332A" d="M514.7,669.6c-9.6,0-17.4,7.8-17.4,17.4v12c0,9.6,7.8,17.4,17.4,17.4h335.9c9.6,0,17.4-7.8,17.4-17.4&#10;&#9;&#9;&#9;&#9;&#9;v-12c0-9.6-7.8-17.4-17.4-17.4H514.7z"/>
				<path fill="#656665" d="M486.3,715.2c-4.6,0-8.3,3.7-8.3,8.3c0,4.6,3.7,8.3,8.3,8.3H879c4.6,0,8.3-3.7,8.3-8.3&#10;&#9;&#9;&#9;&#9;&#9;c0-4.6-3.7-8.3-8.3-8.3H486.3z"/>
				<path d="M 507.700012 723.5 H 523.600012 V 838.5 H 507.700012 V 723.5 Z" fill="#656665"/>
				<path d="M 505.200012 824.299988 H 526.200012 V 838.499988 H 505.200012 V 824.299988 Z" fill="#3D332A"/>
				<path d="M 838.099976 723.5 H 853.999975 V 838.5 H 838.099976 V 723.5 Z" fill="#656665"/>
				<path d="M 515.700012 795.599976 H 846 V 811.499975 H 515.700012 V 795.599976 Z" fill="#656665"/>
				<path d="M 835.5 824.299988 H 856.5 V 838.499988 H 835.5 V 824.299988 Z" fill="#3D332A"/>
			</g>
			<g>
				<path fill="#3D332A" d="M53.7,669.6c-9.6,0-17.4,7.8-17.4,17.4v12c0,9.6,7.8,17.4,17.4,17.4h335.9c9.6,0,17.4-7.8,17.4-17.4v-12&#10;&#9;&#9;&#9;&#9;&#9;c0-9.6-7.8-17.4-17.4-17.4H53.7z"/>
				<path fill="#656665" d="M25.3,715.2c-4.6,0-8.3,3.7-8.3,8.3c0,4.6,3.7,8.3,8.3,8.3H418c4.6,0,8.3-3.7,8.3-8.3&#10;&#9;&#9;&#9;&#9;&#9;c0-4.6-3.7-8.3-8.3-8.3H25.3z"/>
				<path d="M 46.700001 723.5 H 62.6 V 838.5 H 46.700001 V 723.5 Z" fill="#656665"/>
				<path d="M 44.200001 824.299988 H 65.200001 V 838.499988 H 44.200001 V 824.299988 Z" fill="#3D332A"/>
				<path d="M 377.100006 723.5 H 393.000006 V 838.5 H 377.100006 V 723.5 Z" fill="#656665"/>
				<path d="M 54.700001 795.599976 H 384.999989 V 811.499975 H 54.700001 V 795.599976 Z" fill="#656665"/>
				<path d="M 374.5 824.299988 H 395.5 V 838.499988 H 374.5 V 824.299988 Z" fill="#3D332A"/>
			</g>
		</g>
		<g>
			<path d="M 0 282.799988 H 237.600006 V 307.999989 H 0 V 282.799988 Z" fill="#8C5232"/>
			<g>
				<g>
					<path d="M 603.800026 99.099998 A 68.900002 68.900002 0 0 1 534.900024 168 A 68.900002 68.900002 0 0 1 466.000023 99.099998 A 68.900002 68.900002 0 0 1 534.900024 30.199997 A 68.900002 68.900002 0 0 1 603.800026 99.099998 Z" fill="#2E95D2"/>
				</g>
				<path d="M 591.900024 99.099998 A 57 57 0 0 1 534.900024 156.099998 A 57 57 0 0 1 477.900024 99.099998 A 57 57 0 0 1 534.900024 42.099998 A 57 57 0 0 1 591.900024 99.099998 Z" fill="#FFFFFF"/>
				<path d="M 542.600024 99.099998 A 7.7 7.7 0 0 1 534.900024 106.799998 A 7.7 7.7 0 0 1 527.200025 99.099998 A 7.7 7.7 0 0 1 534.900024 91.399999 A 7.7 7.7 0 0 1 542.600024 99.099998 Z" fill="#2B2B2B"/>
				<path d="M 532.5 50.599998 H 537.3 V 98 H 532.5 V 50.599998 Z" fill="#2B2B2B"/>
				<path d="M 536.099976 96.699997 H 563.099976 V 101.499997 H 536.099976 V 96.699997 Z" fill="#2B2B2B"/>
			</g>
			<g>
				<g>
					<path d="M 21.1 145.699997 H 114.500002 V 282.800003 H 21.1 V 145.699997 Z" fill="#E94C87"/>
					<path d="M 30.4 157.100006 H 105.099997 V 271.400009 H 30.4 V 157.100006 Z" fill="#FFFFFF"/>
					<path d="M 35.099998 170.300003 H 100.5 V 175.100003 H 35.099998 V 170.300003 Z" fill="#2B2B2B"/>
					<path d="M 35.099998 182.600006 H 100.5 V 187.400006 H 35.099998 V 182.600006 Z" fill="#2B2B2B"/>
					<path d="M 35.099998 194.800003 H 100.5 V 199.600003 H 35.099998 V 194.800003 Z" fill="#2B2B2B"/>
					<path d="M 35.099998 207 H 100.5 V 211.8 H 35.099998 V 207 Z" fill="#2B2B2B"/>
					<path d="M 35.099998 219.300003 H 100.5 V 224.100003 H 35.099998 V 219.300003 Z" fill="#2B2B2B"/>
					<path d="M 35.099998 231.5 H 100.5 V 236.3 H 35.099998 V 231.5 Z" fill="#2B2B2B"/>
				</g>
				<path d="M 98.200002 254 A 9.3 9.3 0 0 1 88.900002 263.3 A 9.3 9.3 0 0 1 79.600001 254 A 9.3 9.3 0 0 1 88.900002 244.7 A 9.3 9.3 0 0 1 98.200002 254 Z" fill="#FFCE4B"/>
			</g>
			<g>
				<g>
					<path d="M 127.099998 145.699997 H 220.5 V 282.800003 H 127.099998 V 145.699997 Z" fill="#E74C3D"/>
					<path d="M 136.399994 157.100006 H 211.099991 V 271.400009 H 136.399994 V 157.100006 Z" fill="#FFFFFF"/>
					<path d="M 141.100006 170.300003 H 206.500008 V 175.100003 H 141.100006 V 170.300003 Z" fill="#2B2B2B"/>
					<path d="M 141.100006 182.600006 H 206.500008 V 187.400006 H 141.100006 V 182.600006 Z" fill="#2B2B2B"/>
					<path d="M 141.100006 194.800003 H 206.500008 V 199.600003 H 141.100006 V 194.800003 Z" fill="#2B2B2B"/>
					<path d="M 141.100006 207 H 206.500008 V 211.8 H 141.100006 V 207 Z" fill="#2B2B2B"/>
					<path d="M 141.100006 219.300003 H 206.500008 V 224.100003 H 141.100006 V 219.300003 Z" fill="#2B2B2B"/>
					<path d="M 141.100006 231.5 H 206.500008 V 236.3 H 141.100006 V 231.5 Z" fill="#2B2B2B"/>
				</g>
				<path d="M 204.199994 254 A 9.3 9.3 0 0 1 194.899994 263.3 A 9.3 9.3 0 0 1 185.599994 254 A 9.3 9.3 0 0 1 194.899994 244.7 A 9.3 9.3 0 0 1 204.199994 254 Z" fill="#FFCE4B"/>
			</g>
		</g>
		<g>
			<path fill="#EBB47B" d="M1098.7,562.5c8,1.7,8.3-12.1,8.5-17.8c0.9-19.7-16.9-29.3-32-20c-5.5,3.4-7.1,21.3-7.3,28&#10;&#9;&#9;&#9;&#9;c-0.2,7.6,7.4,28.1,17.9,25.9c0.5-9-5.2-18.2-3.8-26.5C1089.9,547.7,1092.8,561.2,1098.7,562.5z"/>
			<path fill="#EBB47B" d="M1274.3,578.6c10.5,2.2,18.1-18.3,17.9-25.9c-0.2-6.7-1.8-24.6-7.3-28c-15.1-9.3-32.9,0.3-32,20&#10;&#9;&#9;&#9;&#9;c0.3,5.7,0.6,19.6,8.5,17.8c6-1.3,8.9-14.7,16.7-10.4C1279.4,560.4,1273.8,569.5,1274.3,578.6z"/>
			<path fill="#2E95D2" d="M1153.1,257.2v270.7c17.9,0,37.6,0,55.3,0V257.2h-2.4l-26.5,5.5L1153.1,257.2z"/>
			<path fill="#2B2B2B" d="M1178.9,484.7H1100c-1.4,3.8,0.3,412.5,0.3,412.5h40.9l25.5-347.7h12.3h0.6h12.3l25.5,347.7h40.9&#10;&#9;&#9;&#9;&#9;c0,0,1.7-408.8,0.3-412.5h-79H1178.9z"/>
			<path d="M 1159 295.3999938964844 L 1179.5999755859375 279.5 L 1150.699951171875 257.20001220703125 L 1146.199951171875 257.20001220703125 Z" fill="#E6E7E8"/>
			<path d="M 1200.199951171875 295.3999938964844 L 1213 257.20001220703125 L 1208.4000244140625 257.20001220703125 L 1179.5999755859375 279.5 Z" fill="#E6E7E8"/>
			<path d="M 1160 226.10000610351562 L 1150.699951171875 257.20001220703125 L 1179.5999755859375 279.70001220703125 L 1208.4000244140625 257.20001220703125 L 1199.0999755859375 226.10000610351562 L 1179.5999755859375 234.10000610351562 Z" fill="#EBB47B"/>
			<g>
				<path fill="#D7A571" d="M1119.2,164.6c-2.2,6.7-7.1,32.8,15.1,40.4l-3.5-34.5C1130.7,170.4,1121.4,158,1119.2,164.6z"/>
				<path fill="#D7A571" d="M1228.4,170.4l-3.5,34.5c22.2-7.5,17.3-33.7,15.1-40.4C1237.7,158,1228.4,170.4,1228.4,170.4z"/>
			</g>
			<path fill="#D5A470" d="M1160,226.1l-5.8,19.6l11.4,8.1c8.8,4.7,19.1,4.7,27.9,0l11.4-8.1l-5.8-19.5l-19.6,8L1160,226.1z"/>
			<path fill="#EBB47B" d="M1136.1,225l29.5,19.6c8.8,4.4,19.1,4.4,27.9,0l29.5-19.6c5.1-2.6,8.4-7.8,8.4-13.6V156&#10;&#9;&#9;&#9;&#9;c0,0,4.7-58.2-51.9-58.2s-51.9,58.2-51.9,58.2v55.5C1127.7,217.2,1131,222.4,1136.1,225z"/>
			<path fill="#A7A9AC" d="M1223.5,161.2c2.9,2.7,5.6,6.1,8.7,8.4c2.7,0,3.6-14.5,4.1-17.2c2.6-14.5-2.7-31.5-10.7-43.8&#10;&#9;&#9;&#9;&#9;c-1.9-2.9-23.8-22-45.9-22c-22.5,0-45.2,19.1-47.1,22c-8,12.3-13.4,29.3-10.7,43.8c0.5,2.7,1.4,17.2,4.1,17.2&#10;&#9;&#9;&#9;&#9;c3.1-2.4,5.8-5.8,8.7-8.4c3.1-2.8,4.7-3.2,4.2-7.5c-0.4-4.3-3.6-13.1-0.2-16.6c3.1-3.2,10.7,0.8,14.3,2.1&#10;&#9;&#9;&#9;&#9;c4.8,1.7,9.9,2.7,14.9,3.7c2.5,0.5,5,0.9,7.6,1.1c0,0.1,0,0.1,0,0.2c1.2,0.1,2.4,0.1,3.6,0c1.2,0,2.4,0,3.6,0c0-0.1,0-0.1,0-0.2&#10;&#9;&#9;&#9;&#9;c2.6-0.2,5.1-0.6,7.6-1.1c5-1,10-2,14.9-3.7c3.6-1.3,11.2-5.2,14.3-2.1c3.4,3.5,0.3,12.3-0.2,16.6&#10;&#9;&#9;&#9;&#9;C1218.8,158,1220.4,158.3,1223.5,161.2z"/>
			<path fill="#353535" d="M1087.4,921.7h64.3c-0.6-5.9-5.3-24.3-10.4-32C1135,880.6,1089,868.6,1087.4,921.7z"/>
			<path fill="#353535" d="M1218.4,889.8c-5.1,7.6-9.9,26.1-10.4,32h64.3C1270.7,868.6,1224.6,880.6,1218.4,889.8z"/>
			<path fill="#FFFFFF" d="M1105.3,319.7l-5.3,165l-6.8,136.1c1.1,0.1,27.8,0.2,59.9,0.2V257.2h-35c-2.2,0-4.4,0.2-6.6,0.4&#10;&#9;&#9;&#9;&#9;L1105.3,319.7z"/>
			<path fill="#FFFFFF" d="M1241.1,257.2h-32.6v363.7c31.7,0,57.5-0.1,57.5-0.1l-6.8-136.1L1254,321l-0.2-1.3l-6.2-62l0,0&#10;&#9;&#9;&#9;&#9;C1245.4,257.4,1243.2,257.2,1241.1,257.2z"/>
			<path fill="#FFFFFF" d="M1076.2,316c-4.3,52-15,221.5-15,221.5s49.3,2.9,50.3,0c1-2.9,0-279.8,0-279.8S1080.5,264,1076.2,316z"/>
			<path fill="#FFFFFF" d="M1247.5,257.7c0,0-1,276.9,0,279.8c1,2.9,50.3,0,50.3,0s-10.7-169.5-15-221.5&#10;&#9;&#9;&#9;&#9;C1278.6,264,1247.5,257.7,1247.5,257.7z"/>
			<path fill="#D5D7D8" d="M1096.6,538.8l-3.4,82.1l59.9,0.2c-44.3-4.1-46.6-26-46.6-26V308C1106.5,308,1096.6,537.5,1096.6,538.8z"/>
			<path fill="#D5D7D8" d="M1252.6,595c0,0,0.2,21.9-44.1,26l57.4-0.2l-3.4-82.1c0-1.3-9.9-230.7-9.9-230.7V595z"/>
			<path d="M 1213.099976 343.5 H 1249.799976 V 348.8 H 1213.099976 V 343.5 Z" fill="#D5D7D8"/>
			<path d="M 1150.499951 341.299988 A 4.3 4.3 0 0 1 1146.199951 345.599988 A 4.3 4.3 0 0 1 1141.899951 341.299988 A 4.3 4.3 0 0 1 1146.199951 336.999988 A 4.3 4.3 0 0 1 1150.499951 341.299988 Z" fill="#D5D7D8"/>
			<path d="M 1150.499951 409.299988 A 4.3 4.3 0 0 1 1146.199951 413.599988 A 4.3 4.3 0 0 1 1141.899951 409.299988 A 4.3 4.3 0 0 1 1146.199951 404.999988 A 4.3 4.3 0 0 1 1150.499951 409.299988 Z" fill="#D5D7D8"/>
			<path d="M 1150.499951 477.299988 A 4.3 4.3 0 0 1 1146.199951 481.599988 A 4.3 4.3 0 0 1 1141.899951 477.299988 A 4.3 4.3 0 0 1 1146.199951 472.999988 A 4.3 4.3 0 0 1 1150.499951 477.299988 Z" fill="#D5D7D8"/>
			<path d="M 1150.499951 545.299988 A 4.3 4.3 0 0 1 1146.199951 549.599988 A 4.3 4.3 0 0 1 1141.899951 545.299988 A 4.3 4.3 0 0 1 1146.199951 540.999988 A 4.3 4.3 0 0 1 1150.499951 545.299988 Z" fill="#D5D7D8"/>
		</g>
		<path d="M 859.499985 851.099976 A 100.199997 11.1 0 0 1 759.299988 862.199976 A 100.199997 11.1 0 0 1 659.099991 851.099976 A 100.199997 11.1 0 0 1 759.299988 839.999975 A 100.199997 11.1 0 0 1 859.499985 851.099976 Z" fill="#3F7EA1"/>
		<g>
			<path fill="#029C49" d="M797.4,479.4h-20.7l-18.8,4.7l-18.8-4.7h-20.7c-1.4,0-2.8,0.1-4.2,0.3l-7,39.4l-8.6,116.2h118.3&#10;&#9;&#9;&#9;&#9;L808.7,520l-0.2-0.8l-7-39.5l0,0C800.2,479.5,798.8,479.4,797.4,479.4z"/>
			<path d="M 743.2000122070312 506.5 L 757.9000244140625 495.29998779296875 L 737.4000244140625 479.3999938964844 L 734.0999755859375 479.3999938964844 Z" fill="#FFFFFF"/>
			<path d="M 772.5 506.5 L 781.5999755859375 479.3999938964844 L 778.4000244140625 479.3999938964844 L 757.9000244140625 495.29998779296875 Z" fill="#FFFFFF"/>
			<path d="M 744 457.29998779296875 L 737.4000244140625 479.3999938964844 L 757.9000244140625 495.3999938964844 L 778.4000244140625 479.3999938964844 L 771.7999877929688 457.29998779296875 L 757.9000244140625 463 Z" fill="#E9B797"/>
			<g>
				<path fill="#E9B797" d="M714.9,413.6c-1.6,4.7-5,23.3,10.7,28.7l-2.5-24.6C723.1,417.7,716.5,408.8,714.9,413.6z"/>
				<path fill="#E9B797" d="M792.6,417.7l-2.5,24.6c15.8-5.4,12.3-24,10.7-28.7C799.2,408.8,792.6,417.7,792.6,417.7z"/>
			</g>
			<path fill="#D4A78A" d="M744,457.3l-4.2,13.9l8.1,5.7c6.3,3.3,13.6,3.3,19.9,0l8.1-5.7l-4.2-13.9l-13.9,5.7L744,457.3z"/>
			<path fill="#E9B797" d="M726.9,456.5l21,13.9c6.3,3.1,13.6,3.1,19.9,0l21-13.9c3.7-1.8,6-5.6,6-9.7v-39.4c0,0,3.3-41.4-36.9-41.4&#10;&#9;&#9;&#9;&#9;c-40.2,0-36.9,41.4-36.9,41.4v39.4C721,450.9,723.3,454.7,726.9,456.5z"/>
			<path fill="#2D3A4A" d="M698.5,635.3c-0.5,0.8-8.7,29.9-9.8,63c-0.2,4.5,3.5,8.2,7.9,8.2h40c4.1,0,7.5-3.1,7.9-7.2l3.7-22.9h9.2&#10;&#9;&#9;&#9;&#9;h0.4h9.2l3.7,22.9c0.4,4.1,3.8,7.2,7.9,7.2h40c4.5,0,8.1-3.7,7.9-8.2c-1.1-33.1-9.3-62.3-9.8-63H698.5z"/>
			<g>
				<path fill="#E9B797" d="M720.5,643.9c-10.7,0-19.3,8.7-19.3,19.3c0.1,67,0.3,167.7,0.3,167.7h29.1l9.1-166.4&#10;&#9;&#9;&#9;&#9;&#9;C740.5,653.4,731.7,643.9,720.5,643.9L720.5,643.9z"/>
				<path fill="#E9B797" d="M794.8,643.9c-11.2,0-20,9.5-19.2,20.7l9.1,166.4h29.1c0,0,0.2-100.7,0.3-167.7&#10;&#9;&#9;&#9;&#9;&#9;C814.1,652.6,805.5,643.9,794.8,643.9L794.8,643.9z"/>
			</g>
			<path fill="#2D3A4A" d="M692.3,848.4H738c-0.4-4.2-3.7-17.3-7.4-22.7C726.2,819.1,693.4,810.6,692.3,848.4z"/>
			<path fill="#2D3A4A" d="M785.5,825.6c-3.7,5.4-7,18.5-7.4,22.7h45.7C822.6,810.6,789.9,819.1,785.5,825.6z"/>
			<path fill="#D67627" d="M784,402.7c2,3.7,4.2,9.2,8.3,11.1c6.5,2.9,7.5-2.5,9.8-7.6c4.7-10.7,2.4-19.8-4.7-29.1&#10;&#9;&#9;&#9;&#9;c-3.6-4.7-7.7-5.1-11.1-7.7c-5.3-4.2-6.2-9.6-13.8-11.8c-11.6-3.5-28-2.5-38.1,4.4c-17.4,11.8-35,41.1-17,54.2&#10;&#9;&#9;&#9;&#9;c14.1,10.2,29.9-2.1,38.2-13.4c-0.9,2.4,1.1,7.6,4.9,7.4c2.6-0.1,7.4-6.2,9.4-7.9C768.1,416.5,777.9,406.4,784,402.7z"/>
			<path fill="#E9B797" d="M763.1,668.3c0.4,1.3,2.2,1.3,2.7,0.1c6.2-18.1-11.1-35.3-26.1-41.6c-17.9-7.6-35.8-14.2-36.8-36.1&#10;&#9;&#9;&#9;&#9;c-0.5-11.3,0.2-21.4,4-31.5c-7.3-0.8-12.7-6.1-19.8-7.1c-4.3,10.4-5.4,24-5.9,35.1c-0.5,10,0.2,21.5,4,30.5&#10;&#9;&#9;&#9;&#9;c8.1,19.5,30.5,17.5,46.5,24.9c5.9,2.7,10.8,7.4,14,13c1.3,2.3,2.5,7.8,5.1,8.7c5.4,1.9,4.2-4,3.6-7.3&#10;&#9;&#9;&#9;&#9;C758,659.4,761.4,662.5,763.1,668.3z"/>
			<path fill="#E9B797" d="M766.9,664.2c2.6-0.9,3.8-6.4,5.1-8.7c3.2-5.5,8.1-10.2,14-13c15.9-7.4,38.3-5.4,46.5-24.9&#10;&#9;&#9;&#9;&#9;c3.8-9.1,4.4-20.5,4-30.5c-0.5-11.1-1.6-24.7-5.9-35.1c-7.1,1-12.5,6.3-19.8,7.1c3.9,10.1,4.6,20.2,4,31.5&#10;&#9;&#9;&#9;&#9;c-1.1,22-18.9,28.6-36.8,36.1c-15,6.3-32.3,23.5-26.1,41.6c0.4,1.3,2.3,1.2,2.7-0.1c1.8-5.9,5.1-8.9,8.7-11.4&#10;&#9;&#9;&#9;&#9;C762.7,660.2,761.5,666.1,766.9,664.2z"/>
			<path fill="#029C49" d="M691.4,499.9l-10.3,57.6l27.9,2.8c0,0,12.5-32.8,11.3-35.5s-6.7-45.1-6.7-45.1&#10;&#9;&#9;&#9;&#9;C710.1,479.8,691.4,499.9,691.4,499.9z"/>
			<path fill="#029C49" d="M801.6,479.7c0,0-5.6,42.4-6.7,45.1c-1.2,2.7,15.6,35.5,15.6,35.5l23.6-2.8l-10.3-57.6&#10;&#9;&#9;&#9;&#9;C823.8,499.9,805.1,479.8,801.6,479.7z"/>
		</g>
		<path d="M 394.599991 851.099976 A 100.199997 11.1 0 0 1 294.399994 862.199976 A 100.199997 11.1 0 0 1 194.199997 851.099976 A 100.199997 11.1 0 0 1 294.399994 839.999975 A 100.199997 11.1 0 0 1 394.599991 851.099976 Z" fill="#3F7EA1"/>
		<path d="M 681.400009 851.099976 A 100.199997 11.1 0 0 1 581.200012 862.199976 A 100.199997 11.1 0 0 1 481.000015 851.099976 A 100.199997 11.1 0 0 1 581.200012 839.999975 A 100.199997 11.1 0 0 1 681.400009 851.099976 Z" fill="#3F7EA1"/>
		<g>
			<path fill="#9E6C4C" d="M348.8,683.7l6.4-5.7c0,0,10.2,8.7,12.8,13.1c2.7,4.4,16.7,8.2,20,0s-13.5-26.2-13.5-26.2l-13.1-100.8&#10;&#9;&#9;&#9;&#9;l-16.6,1.9l6.3,73.6l-1.4,19L348.8,683.7z"/>
			<path fill="#0057A0" d="M230.5,690.2c3.5-0.9,127.8,0,127.8,0s10.6-16.9-7.2-50.6h-116C235.2,639.6,221,675.8,230.5,690.2z"/>
			<path fill="#F0C419" d="M332.1,486.8h-20.3l-18.5,4.6l-18.5-4.6h-20.3c-1.4,0-2.8,0.1-4.2,0.3l-6.9,38.7l-8.4,113.9h116l-7.9-113&#10;&#9;&#9;&#9;&#9;l-0.1-0.8l-6.9-38.7l0,0C334.8,486.9,333.5,486.8,332.1,486.8z"/>
			<path fill="#9E6C4C" d="M279.7,465.2l-6.5,21.7l8.7,15.5c5,8.9,17.8,8.9,22.8,0l8.7-15.5l-6.5-21.7l-13.6,5.6L279.7,465.2z"/>
			<g>
				<path fill="#9E6C4C" d="M251.3,422.3c-1.5,4.6-4.9,22.9,10.5,28.1l-2.5-24.1C259.3,426.3,252.8,417.7,251.3,422.3z"/>
				<path fill="#9E6C4C" d="M327.4,426.3l-2.5,24.1c15.4-5.3,12-23.5,10.5-28.1C333.9,417.7,327.4,426.3,327.4,426.3z"/>
			</g>
			<path fill="#8F5D3B" d="M279.7,465.2l-4.1,13.6l8,5.6c6.1,3.3,13.3,3.3,19.5,0l8-5.6l-4.1-13.6l-13.6,5.6L279.7,465.2z"/>
			<path fill="#9E6C4C" d="M263.1,464.4l20.6,13.7c6.1,3.1,13.3,3.1,19.5,0l20.6-13.7c3.6-1.8,5.8-5.5,5.8-9.5v-38.6&#10;&#9;&#9;&#9;&#9;c0,0,3.2-40.5-36.1-40.5c-39.4,0-36.1,40.5-36.1,40.5v38.6C257.2,458.9,259.5,462.6,263.1,464.4z"/>
			<path fill="#0057A0" d="M256.7,648c-14.5,0-26.2,8.5-26.2,18.9c0.2,65.7,0.4,164.3,0.4,164.3h39.5l12.4-163&#10;&#9;&#9;&#9;&#9;C284,657.3,272,648,256.7,648L256.7,648z"/>
			<path fill="#2D3A4A" d="M221.3,846.9h60.5c-0.5-5.5-5-22.9-9.8-30.1C266.1,808.2,222.8,796.9,221.3,846.9z"/>
			<path fill="#0057A0" d="M332.2,648c-15.2,0-27.2,9.3-26.1,20.3l12.4,163H358c0,0,0.3-98.7,0.4-164.3&#10;&#9;&#9;&#9;&#9;C358.5,656.5,346.7,648,332.2,648L332.2,648z"/>
			<path fill="#2D3A4A" d="M317,816.8c-4.8,7.2-9.3,24.5-9.8,30.1h60.5C366.2,796.9,322.9,808.2,317,816.8z"/>
			<path fill="#9E6C4C" d="M298.5,671.9c0.4,1.3,2.2,1.3,2.6,0.1c6.1-17.7-10.8-34.5-25.5-40.8c-17.5-7.4-35.1-13.9-36.1-35.4&#10;&#9;&#9;&#9;&#9;c-0.5-11.1,0.2-20.9,4-30.8c-7.2-0.8-12.4-5.9-19.4-7c-4.2,10.2-5.2,23.5-5.8,34.4c-0.5,9.8,0.2,21,3.9,29.9&#10;&#9;&#9;&#9;&#9;c8,19.1,29.9,17.1,45.5,24.4c5.8,2.7,10.6,7.3,13.8,12.7c1.3,2.2,2.5,7.6,5,8.5c5.3,1.8,4.1-3.9,3.6-7.1&#10;&#9;&#9;&#9;&#9;C293.5,663.2,296.8,666.2,298.5,671.9z"/>
			<path fill="#F0C419" d="M228.2,506.9l-10.1,56.4l27.3,2.7c0,0,12.3-32.1,11.1-34.7s-6.6-44.2-6.6-44.2&#10;&#9;&#9;&#9;&#9;C246.5,487.2,228.2,506.9,228.2,506.9z"/>
			<path fill="#F0C419" d="M336.2,487.1c0,0-5.5,41.6-6.6,44.2s15.3,34.7,15.3,34.7l23.2-2.7l-10.1-56.4&#10;&#9;&#9;&#9;&#9;C357.9,506.9,339.6,487.2,336.2,487.1z"/>
			<path fill="#3D332A" d="M254.5,423.4l-0.5-3.9C253.2,420.8,253.6,422.2,254.5,423.4z"/>
			<path fill="#3D332A" d="M335.2,387.4c6.4-4.2-7.6-22.8-14-18.2c3.6-10.6-16.2-16.6-22.2-7.5c-3.7-4.1-9.9-6.3-15.6-6.2&#10;&#9;&#9;&#9;&#9;c-7.6,0-7.2,4.7-12.1,8.3c-3,2.2-28.7,9.6-17.3,17.6c-2.9,3.2-16.8,15.7-4.6,18.1c-2.3,2.9-9.2,10-2.6,12.5&#10;&#9;&#9;&#9;&#9;c-3.5,4.8,1.4,14.2,7.7,11.4l0-0.1c-0.9-1.2-1.3-2.6-0.5-3.9l0.5,3.9c1.3,1.6,3.6,2.7,5.5,2.6c3.7-0.2,5.8-3.6,7.5-6.6&#10;&#9;&#9;&#9;&#9;c5.1,4.2,12,5.1,15.7-1.3c5.4,4.7,10.2,6.1,15-0.5c5.4,3.1,9.5,5.9,14.9,1c2,2.6,8.1,8.6,10.1,2.5c3.7,3.6,7.7,4.8,8.5-2&#10;&#9;&#9;&#9;&#9;c5.8,2.6,8.3-12.4,3.6-12C340.6,402.2,340,392.2,335.2,387.4z"/>
		</g>
		<g>
			<path fill="#D67627" d="M582.4,291.1c-9.7-0.9-22.6,5.8-31.1,10.5c-10.6,5.9-18.1,14.4-22.5,26.2c-8.5,23.1-7.7,44.1-0.3,66.8&#10;&#9;&#9;&#9;&#9;c7.1,22,16.5,47.9,39.4,56.4c9.1,3.4,22.3,4.2,32.1,2.7c12.2-1.9,19.1-12.2,24.3-23.2c18.1-38.1,29.9-120.4-21-137.5&#10;&#9;&#9;&#9;&#9;C594.9,290.1,590.7,291.9,582.4,291.1z"/>
			<path fill="#BA1F58" d="M510.1,655.8c-0.7,18.7,14.3,34.3,33,34.3l73.4,0.1c18.4,0,33.2-14.9,33.1-33.3l-0.2-38.8l-138,0.3&#10;&#9;&#9;&#9;&#9;L510.1,655.8z"/>
			<path fill="#E94C87" d="M636.6,449.8c-1.2-7.3-7.3-12.7-14.7-12.9l-16.3-0.4l-22,5.1l-21.8-5.8c0,0-8.5-0.1-16.3-0.2&#10;&#9;&#9;&#9;&#9;c-7.4-0.1-13.7,5.1-15.1,12.4l-6.5,33.4l-12.5,137.2l138-0.4l-7.3-133.9l-0.2-1L636.6,449.8z"/>
			<path fill="#E9B797" d="M566.1,410.4l-7.7,25.7l10.3,32.9c4.2,13.3,23,13.3,27.2,0l10.3-32.9l-7.7-25.7l-16.2,6.6L566.1,410.4z"/>
			<g>
				<path fill="#E9B797" d="M532.3,359.5c-1.8,5.5-5.9,27.2,12.5,33.4l-2.9-28.6C541.8,364.3,534.1,354,532.3,359.5z"/>
				<path fill="#E9B797" d="M622.7,364.3l-2.9,28.6c18.3-6.2,14.3-27.9,12.5-33.4C630.4,354,622.7,364.3,622.7,364.3z"/>
			</g>
			<path fill="#D4A78A" d="M566.1,410.4l-4.8,16.2l9.5,6.7c7.3,3.9,15.8,3.9,23.1,0l9.5-6.7l-4.8-16.2l-16.2,6.6L566.1,410.4z"/>
			<path fill="#E9B797" d="M546.3,409.5l24.4,16.2c7.3,3.6,15.8,3.6,23.1,0l24.4-16.2c4.3-2.1,6.9-6.5,6.9-11.2v-45.9&#10;&#9;&#9;&#9;&#9;c0,0,3.9-48.2-42.9-48.2c-46.8,0-42.9,48.2-42.9,48.2v45.9C539.3,403,542,407.3,546.3,409.5z"/>
			<g>
				<path fill="#BA1F58" d="M538.8,620.6c-12.4,0-22.5,9.6-22.4,21.4c0.1,74.4,0.4,186.1,0.4,186.1h33.8l10.6-184.6&#10;&#9;&#9;&#9;&#9;&#9;C562.1,631.1,551.8,620.6,538.8,620.6L538.8,620.6z"/>
				<path fill="#BA1F58" d="M602.9,643.5l10.6,184.6h33.8c0,0,0.2-111.7,0.4-186.1c0-11.8-10-21.4-22.4-21.4&#10;&#9;&#9;&#9;&#9;&#9;C612.3,620.6,602,631.1,602.9,643.5z"/>
			</g>
			<path fill="#2D3A4A" d="M506,848.4h53.2c-0.5-4.9-4.4-20.1-8.6-26.4C545.4,814.3,507.3,804.4,506,848.4z"/>
			<path fill="#2D3A4A" d="M614.4,821.9c-4.3,6.3-8.2,21.6-8.6,26.4H659C657.6,804.4,619.5,814.3,614.4,821.9z"/>
			<path fill="#D67627" d="M602.5,340.1c4.5,4.4,17.1,25.9,23.3,24.9c5.3-0.8,8.3-14.3,8.9-18.4c1.3-8.6-1.2-18.5-4.2-26.8&#10;&#9;&#9;&#9;&#9;c-5.1-14.1-13.2-20.6-27.1-23.4c-11-2.2-20.6-2.5-31.4,0.7c-16.4,4.9-34.5,14.9-40.8,31.3c-4.3,11.1-6.2,35.9,3.5,44.7&#10;&#9;&#9;&#9;&#9;c8,7.2,25-1.9,32.4-6.5c9.4-5.9,12.3-14.1,19-22c2.7,6.1-2.1,14-4.6,19.7C591.6,359.4,596.2,348.8,602.5,340.1z"/>
			<path fill="#D4457C" d="M518.9,505.9l0.8-1C519.3,505.2,519.1,505.5,518.9,505.9z"/>
			<path fill="#D4457C" d="M517.3,507.9c-5.3,1.9-4.4,12-2.2,16c2.9,5.3,8.9,6.6,14.5,8c9.9,2.4,31.1,0.6,30.1-14.1&#10;&#9;&#9;&#9;&#9;c-5.8,6.4-13.7,7.7-21.8,6.2c-4.8-0.9-9.8-2.9-13.1-6.5c-1.7-1.8-6.7-8.6-5.7-11.4L517.3,507.9z"/>
			<path fill="#D4457C" d="M643.6,504.9l0.8,1C644.3,505.5,644,505.2,643.6,504.9z"/>
			<path fill="#D4457C" d="M638.7,517.3c-3.4,3.6-8.4,5.6-13.1,6.5c-8.1,1.5-16,0.2-21.8-6.2c-1,14.7,20.3,16.5,30.1,14.1&#10;&#9;&#9;&#9;&#9;c5.6-1.4,11.6-2.7,14.5-8c2.2-4,3.1-14.1-2.2-16l-1.7-2C645.3,508.7,640.3,515.6,638.7,517.3z"/>
			<path fill="#E9B797" d="M603.3,640c1.5-8.2-4.1-22.3-9.9-28.1c-6.8-6.8-21.4-8-30.3-11.8c-9.1-3.8-18.9-7.1-26.5-13.6&#10;&#9;&#9;&#9;&#9;c-14.9-12.7-17.3-32.8-16.4-51.3c0.8-16.7,2.3-33.4,4.7-50c1.1-7.9,1.9-15.8,3.4-23.7c1.6-8.4,5.6-15.6,8.6-23.5&#10;&#9;&#9;&#9;&#9;c-15.2,7.5-24.4,30.1-28.9,45.2c-6.8,22.7-11.6,44.7-12.8,68.7c-1.1,21.3,2.4,49.4,24,60c16.9,8.3,40.4,3.3,51.8,22.2&#10;&#9;&#9;&#9;&#9;c1.7,2.7,3.3,10.2,6.3,11.7c7,3.5,6-5.7,5.3-9.8C590,640,599.9,658,603.3,640z"/>
			<path fill="#E9B797" d="M587,645.8c3-1.5,4.7-9,6.3-11.7c11.4-18.8,35-13.8,51.8-22.2c21.6-10.7,25.1-38.7,24-60&#10;&#9;&#9;&#9;&#9;c-1.2-23.9-6-45.9-12.8-68.7c-4.5-15-13.7-37.7-28.9-45.2c3,7.9,7,15.1,8.6,23.5c1.5,7.8,2.3,15.8,3.4,23.7&#10;&#9;&#9;&#9;&#9;c2.4,16.6,3.9,33.3,4.7,50c0.9,18.4-1.5,38.5-16.4,51.3c-7.6,6.5-17.4,9.8-26.5,13.6c-8.9,3.7-23.5,5-30.3,11.8&#10;&#9;&#9;&#9;&#9;c-5.8,5.7-11.4,19.9-9.9,28.1c3.4,18,13.3,0,20.6-3.9C581,640.2,579.9,649.3,587,645.8z"/>
		</g>
		<g>
			<path d="M 796.099976 0.3 H 807.699976 V 101.499997 H 796.099976 V 0.3 Z" fill="#888888"/>
			<path d="M 813.100012 152.699997 A 10.9 10.9 0 0 1 802.200012 163.599997 A 10.9 10.9 0 0 1 791.300013 152.699997 A 10.9 10.9 0 0 1 802.200012 141.799997 A 10.9 10.9 0 0 1 813.100012 152.699997 Z" fill="#F8BE37"/>
			<path d="M 747.7999877929688 152.6999969482422 L 856.0999755859375 152.6999969482422 L 825.0999755859375 74.30000305175781 L 778.9000244140625 74.30000305175781 Z" fill="#E74C3D"/>
		</g>
		<g>
			<path d="M 287.299988 0.3 H 298.899988 V 101.499997 H 287.299988 V 0.3 Z" fill="#888888"/>
			<path d="M 304.299994 152.699997 A 10.9 10.9 0 0 1 293.399994 163.599997 A 10.9 10.9 0 0 1 282.499994 152.699997 A 10.9 10.9 0 0 1 293.399994 141.799997 A 10.9 10.9 0 0 1 304.299994 152.699997 Z" fill="#F8BE37"/>
			<path d="M 239 152.6999969482422 L 347.29998779296875 152.6999969482422 L 316.20001220703125 74.30000305175781 L 270.1000061035156 74.30000305175781 Z" fill="#E74C3D"/>
		</g>
	</g>
</g>
</svg>