<svg width="580" height="400" xmlns="http://www.w3.org/2000/svg" xmlns:xlink="http://www.w3.org/1999/xlink">
 <!-- Created with Method Draw - http://github.com/duopixel/Method-Draw/ -->

 <g>
  <title>background</title>
  <rect fill="#fff" id="canvas_background" height="402" width="582" y="-1" x="-1"/>
  <g display="none" overflow="visible" y="0" x="0" height="100%" width="100%" id="canvasGrid">
   <rect fill="url(#gridpattern)" stroke-width="0" y="0" x="0" height="100%" width="100%"/>
  </g>
 </g>
 <g>
  <title>Layer 1</title>
  <defs>
   <path id="svg_137" d="m99,91l400,0l0,889l-400,0l0,-889z"/>
  </defs>
  <clipPath transform="matrix(0.009070295122475314,0,0,0.009070295122475314,0,0) " id="svg_136">
   <use id="svg_139" xlink:href="#svg_137"/>
  </clipPath>
  <g stroke="null" id="svg_140">
   <path stroke="null" d="m458.024627,176.032311l4.821657,0l5.420621,0l8.684973,0l5.061243,0l-0.479171,-1.618567l-0.539067,-1.865467c0,0 0.029948,-0.109733 0,-0.301767l0,0c-0.119793,-0.4938 -0.778653,-1.371667 -4.072953,-1.453967c-0.269534,0 -0.539067,0 -0.838549,0c-1.138031,0.027433 -2.515647,-0.054867 -3.983108,-0.109733c-0.898445,-0.054867 -1.826839,-0.109733 -2.785181,-0.1646c-1.617202,-0.0823 -3.234404,-0.137167 -4.701864,-0.0823c-0.299482,0.027433 -0.598964,0.027433 -0.898445,0.054867c-0.419275,0.027433 -0.838549,0.0823 -1.227875,0.137167c0,0 0,0 0,0c-0.688808,0.109733 -1.287772,0.2469 -1.796891,0.466367c-0.838549,0.3292 -1.407565,0.823 -1.617202,1.508833l-0.718756,2.469l-0.32943,0.960167z" fill="#EBA29B" id="svg_135"/>
   <path stroke="null" d="m497.915604,291.91071c1.377616,-9.821133 1.766943,-26.445733 1.766943,-26.445733s-18.11865,-2.606167 -58.398953,0c1.377616,23.647533 4.013056,56.156033 4.671916,83.287599c4.402383,2.9628 8.864662,5.815867 13.50663,8.23c-0.299482,-26.198833 -0.209637,-57.911766 1.796891,-61.560399c2.875025,-5.2672 13.895956,-7.050367 17.040515,2.770767c1.946632,6.035333 0.718756,40.573899 -0.539067,66.361232c4.402383,1.673433 8.834713,3.264567 13.267044,4.828267c1.257824,-27.6528 5.869843,-70.201899 6.888082,-77.471732z" fill="#003B5E" id="svg_134"/>
   <path stroke="null" d="m439.935926,232.32551c-0.059896,5.1026 -0.209637,10.424667 -0.359378,15.252933c15.393365,8.3123 31.415642,15.252933 48.006934,20.602433c7.397201,-0.6584 13.117303,-1.865467 14.734505,-3.6212c0.089845,-0.109733 0.179689,-0.219467 0.269534,-0.3292c0,0 -0.868497,-15.938766 -1.407565,-29.929766c-20.514504,0.027433 -40.939163,0.1646 -61.24403,-1.9752z" fill="#EBA29B" id="svg_133"/>
   <path stroke="null" d="m500.850526,214.987644c0.32943,-4.965433 2.365906,-17.502466 3.024766,-24.9369c0.149741,-1.618567 0.209637,-2.990233 0.179689,-4.005267c-0.029948,-1.865467 -1.31772,-3.484033 -3.204455,-4.087567l-20.514504,-6.474267l-20.724141,0.219467l-18.028805,4.169867c-1.97658,0.384067 -3.473989,1.8929 -3.713574,3.7858c-0.149741,1.015033 -0.718756,2.194667 -0.598964,4.4442c0.419275,7.544167 2.006528,20.382966 2.425803,27.844833c0.209637,3.3743 0.239585,7.955667 0.209637,12.948533c0,1.124767 -0.029948,2.276967 -0.029948,3.429167c20.304867,2.167233 40.729526,2.002633 61.214082,1.947767c-0.179689,-4.745967 -0.32943,-9.272467 -0.359378,-12.893667c0,-2.7982 0.029948,-5.047733 0.119793,-6.391967z" fill="#FAC1B7" id="svg_132"/>
   <path stroke="null" d="m439.576547,247.55101c-0.299482,9.2999 -0.65886,16.652033 -0.65886,16.652033c0.059896,0.0823 0.149741,0.137167 0.209637,0.219467c4.222694,3.8681 30.996367,5.294633 48.426209,3.730933c-16.561344,-5.322067 -32.583621,-12.2627 -47.976986,-20.602433z" fill="#FAC1B7" id="svg_131"/>
   <path stroke="null" d="m438.917688,269.36051c2.096373,2.496433 13.446733,4.0327 26.024969,4.471633c3.833367,0.137167 7.786527,0.1646 11.619894,0.0823c12.817821,-0.274333 24.317923,-1.7283 26.024969,-4.5265c0,0 -0.089845,-1.838033 -0.269534,-4.828267c-2.365906,2.578733 -13.476681,3.9504 -25.755436,4.1973c-3.833367,0.0823 -7.786527,0.054867 -11.619894,-0.0823c-12.18891,-0.4115 -23.239788,-1.865467 -25.785384,-4.252167c-0.149741,3.0451 -0.239585,4.938 -0.239585,4.938z" fill="#414042" id="svg_130"/>
   <path stroke="null" d="m455.598824,176.498678l4.043004,-0.795567l20.724141,-0.2469l20.514504,6.693733c1.886735,0.603533 3.144559,2.3044 3.204455,4.224733c0.119793,5.870733 -2.815129,23.674966 -3.204455,29.9572c-0.269534,3.977833 0.119793,15.691866 0.598964,26.884666c-20.394711,-18.160866 -33.931289,-42.713699 -45.880613,-66.717866z" fill="#EBA29B" id="svg_129"/>
   <path stroke="null" d="m458.024627,176.032311c0,0 7.157615,7.599033 11.889428,7.269833c0.209637,-0.027433 0.389326,-0.027433 0.569015,-0.0823c0.838549,-0.192033 1.677098,-0.438933 2.455751,-0.768133l0.479171,-0.192033c0.299482,-0.137167 0.598964,-0.274333 0.898445,-0.4115c0.179689,-0.0823 0.359378,-0.1646 0.509119,-0.274333c0.269534,-0.137167 0.539067,-0.301767 0.808601,-0.438933c0,0 0,0 0,0c0.029948,-0.027433 0.059896,-0.027433 0.059896,-0.054867c0.149741,-0.0823 0.269534,-0.1646 0.419275,-0.2469c0.718756,-0.438933 1.377616,-0.877867 1.97658,-1.3168c0.119793,-0.0823 0.239585,-0.1646 0.359378,-0.274333c0.449223,-0.356633 0.898445,-0.685833 1.257824,-1.042467c1.287772,-1.124767 2.096373,-2.030067 2.216165,-2.167233l0,0c0,0 0,0 0,0c0,0 0,0 0,0s-1.197927,-0.4938 -2.63544,-1.8929c-0.029948,-0.054867 -0.089845,-0.0823 -0.149741,-0.137167c-0.119793,-0.137167 -0.269534,-0.274333 -0.389326,-0.4115c-0.539067,-0.5761 -1.078135,-1.289367 -1.587254,-2.1398c-0.119793,-0.192033 -0.239585,-0.4115 -0.32943,-0.6584c-0.089845,-0.1646 -0.149741,-0.356633 -0.209637,-0.548667c-1.31772,-3.977833 -0.65886,-11.6866 -0.65886,-11.6866l-12.009221,-1.618567c0,0 0.059896,4.2796 0,8.1477c0,0.1646 0,0.356633 0,0.521233c0,0.1646 0,0.356633 0,0.548667c0,0.1646 0,0.3292 -0.029948,0.466367c0,0.301767 -0.029948,0.5761 -0.029948,0.850433c0,0.137167 0,0.274333 -0.029948,0.4115c0,0.027433 0,0.054867 0,0.0823c0,0.0823 0,0.1646 0,0.2469c-0.029948,0.384067 -0.029948,0.7407 -0.059896,1.042467c-0.029948,0.219467 -0.029948,0.438933 -0.059896,0.630967c-0.029948,0.192033 -0.059896,0.4115 -0.119793,0.603533c-0.808601,3.099967 -5.60031,5.541533 -5.60031,5.541533z" fill="#FCBA7C" id="svg_128"/>
   <path stroke="null" d="m463.864522,169.201411c0.239585,0.384067 0.479171,0.795567 0.718756,1.179633c1.167979,1.920333 2.425803,3.7858 3.683626,5.651267c1.078135,1.5637 2.186217,3.072533 3.2943,4.6088c0.449223,0.603533 0.928394,1.2345 1.377616,1.838033l0.479171,-0.192033c0.299482,-0.137167 0.598964,-0.274333 0.898445,-0.4115c0.179689,-0.0823 0.359378,-0.1646 0.509119,-0.274333c0.269534,-0.137167 0.539067,-0.301767 0.808601,-0.466367c0.029948,-0.027433 0.059896,-0.027433 0.059896,-0.054867c0.149741,-0.0823 0.269534,-0.1646 0.419275,-0.2469c0.718756,-0.438933 1.347668,-0.877867 1.97658,-1.3168c0.119793,-0.0823 0.239585,-0.1646 0.359378,-0.274333c0.449223,-0.356633 0.868497,-0.685833 1.257824,-1.042467c1.287772,-1.124767 2.096373,-2.030067 2.216165,-2.167233l0,0c0,0 0,0 0,0c0,0 0,0 0,0s-1.197927,-0.4938 -2.63544,-1.8929c-0.029948,-0.054867 -0.089845,-0.0823 -0.149741,-0.137167c-0.119793,-0.137167 -0.269534,-0.274333 -0.389326,-0.4115c-0.539067,-0.5761 -1.078135,-1.289367 -1.587254,-2.1398c-0.119793,-0.192033 -0.239585,-0.4115 -0.32943,-0.6584c-0.089845,-0.1646 -0.149741,-0.356633 -0.209637,-0.548667c-1.31772,-3.977833 -0.65886,-11.6866 -0.65886,-11.6866l-12.009221,-1.618567c0,0 0.059896,4.2796 0,8.1477c0,0.1646 0,0.356633 0,0.521233c0,0.1646 0,0.356633 0,0.548667c0,0.1646 0,0.3292 -0.029948,0.466367c0,0.301767 -0.029948,0.5761 -0.029948,0.850433c0,0.137167 0,0.274333 -0.029948,0.4115c0,0.027433 0,0.054867 0,0.0823c0,0.0823 0,0.1646 0,0.2469c0.059896,0.301767 0.029948,0.6584 0,0.9876z" fill="#EEB78F" id="svg_127"/>
   <path stroke="null" d="m463.804626,169.832378c0.029948,-0.192033 0.029948,-0.4115 0.059896,-0.630967c2.785181,4.6088 5.869843,8.998133 9.104247,13.2503c-0.778653,0.301767 -1.587254,0.7407 -2.455751,0.768133c-5.240932,0.137167 -12.488391,-7.187533 -12.488391,-7.187533s5.420621,-2.743333 5.779999,-6.199933z" fill="#F0CDB6" id="svg_126"/>
   <path stroke="null" d="m472.399754,162.233345c-0.569015,0.027433 -1.167979,0.054867 -1.766943,0.054867c0.359378,0 0.958342,-0.027433 1.766943,-0.054867z" fill="#FDC07D" id="svg_125"/>
   <path stroke="null" d="m470.333329,162.288211l0,0c0,0 0.059896,0 0.179689,0c-0.059896,0 -0.119793,0 -0.179689,0z" fill="#4B361B" id="svg_124"/>
   <path stroke="null" d="m482.01312,176.004878l-1.018238,-3.511467c0,0 -3.743523,3.895533 -6.648496,5.5964c-2.904974,1.673433 -4.432331,5.212333 -4.432331,5.212333c1.766943,0.054867 6.498755,0.1646 12.099065,-7.297267z" fill="#EBA29B" id="svg_123"/>
   <path stroke="null" d="m458.024627,176.032311c0,0 0,0 0,0c2.066424,2.990233 4.162797,4.7734 6.019584,5.815867c3.354196,1.920333 5.869843,1.4814 5.869843,1.4814s0,0 0,0c0,-0.027433 -0.029948,-0.054867 -0.029948,-0.109733c-0.239585,-0.603533 -1.617202,-3.593767 -4.192745,-5.1026c0,0 -0.029948,0 -0.059896,-0.027433c-0.898445,-0.521233 -1.916684,-1.289367 -2.845077,-2.0575c-0.449223,-0.384067 -0.868497,-0.7407 -1.287772,-1.097333l-0.089845,-0.0823c-0.239585,-0.219467 -0.449223,-0.4115 -0.65886,-0.603533c-0.059896,-0.054867 -0.119793,-0.109733 -0.149741,-0.1646c-0.718756,-0.685833 -1.257824,-1.2345 -1.467461,-1.453967c-0.029948,-0.027433 -0.059896,-0.054867 -0.089845,-0.109733l-0.718756,2.469l-0.299482,1.042467z" fill="#EBA29B" id="svg_122"/>
   <path stroke="null" d="m482.01312,175.483644l19.226732,6.1725c1.916684,0.603533 3.234404,2.3044 3.264352,4.252167c0.119793,5.870733 -2.875025,23.757266 -3.264352,30.0395c-0.179689,2.5513 0.449223,14.704266 1.407565,30.423566c-7.367253,-7.105233 -14.16549,-14.7317 -20.604349,-22.522766l0,-48.364966l-0.029948,0z" fill="#E6E7E8" id="svg_121"/>
   <path stroke="null" d="m502.617469,246.343943c-7.367253,-7.105233 -14.16549,-14.7317 -20.604349,-22.522766l0,42.494233c7.337304,2.523867 14.764453,4.7734 22.281447,6.6663c-0.598964,-9.2999 -1.167979,-18.4352 -1.677098,-26.637766z" fill="#E6E7E8" id="svg_120"/>
   <path stroke="null" d="m482.01312,266.31541l0,75.633699c13.716267,-0.4115 25.156472,-1.838033 26.683829,-4.389333c0,0 -2.335958,-32.92 -4.402383,-64.605499c-7.516993,-1.8929 -14.944142,-4.115 -22.281447,-6.638867z" fill="#EFEFF0" id="svg_119"/>
   <path stroke="null" d="m458.024627,175.730544l-17.220204,4.060133c-2.006528,0.384067 -3.533885,1.9752 -3.773471,3.922967c-0.598964,4.6911 1.856787,22.111266 2.425803,32.1793c0.239585,4.1973 -0.419275,16.0485 -1.467461,30.807633c6.678444,3.676067 13.50663,7.0778 20.424659,10.2052l-0.389326,-81.175232z" fill="#EFEFF0" id="svg_118"/>
   <path stroke="null" d="m437.989294,246.700577c-2.575544,36.239433 -7.516993,89.899032 -7.516993,89.899032c1.946632,2.359267 13.686319,3.977833 28.330979,5.953033l-0.389326,-85.646866c-6.91803,-3.1274 -13.746215,-6.529133 -20.424659,-10.2052z" fill="#FFFFFF" id="svg_117"/>
   <path stroke="null" d="m474.376334,178.089811c0,0 0.65886,1.453967 1.31772,3.0451c0,0 0,0 0,0c0.089845,0.192033 0.179689,0.4115 0.269534,0.603533c0.299482,0.685833 0.569015,1.371667 0.778653,1.920333c3.653678,-4.0327 5.181035,-7.434433 5.300828,-7.626467c0,0 0,0 0,0l-0.419275,-1.618567l-0.569015,-2.194667l0,0c-0.479171,0.521233 -0.98829,1.015033 -1.497409,1.536267c-0.089845,0.0823 -0.179689,0.1646 -0.269534,0.2469c-0.778653,0.7407 -1.587254,1.453967 -2.276062,2.030067c-1.437513,1.1522 -2.515647,1.9752 -2.63544,2.0575c0,0 0,0 0,0z" fill="#FAC1B7" id="svg_116"/>
   <path stroke="null" d="m458.024627,176.032311c0,0 0,0 0,0c0.089845,0.219467 1.64715,3.6212 5.300828,7.6539c0.179689,-0.521233 0.449223,-1.179633 0.718756,-1.838033c0.089845,-0.192033 0.149741,-0.384067 0.239585,-0.5761c0.029948,-0.054867 0.059896,-0.137167 0.089845,-0.192033c0.65886,-1.536267 1.31772,-2.9628 1.31772,-2.9628s-0.029948,0 -0.059896,-0.027433c-0.239585,-0.1646 -1.377616,-0.932733 -2.785181,-2.0575c-0.419275,-0.3292 -0.898445,-0.713267 -1.347668,-1.097333l-0.089845,-0.0823c-0.209637,-0.192033 -0.449223,-0.384067 -0.65886,-0.603533c-0.059896,-0.054867 -0.119793,-0.109733 -0.179689,-0.1646c-0.509119,-0.466367 -0.98829,-0.960167 -1.467461,-1.453967c-0.029948,-0.027433 -0.059896,-0.054867 -0.089845,-0.109733l-0.718756,2.469l-0.269534,1.042467z" fill="#FAC1B7" id="svg_115"/>
   <path stroke="null" d="m466.949185,181.573844c1.916684,-0.466367 3.983108,-0.466367 6.169325,0l0.628912,1.536267l-1.677098,2.688467l-4.043004,0l-1.707046,-2.688467l0.628912,-1.536267z" fill="#003D61" id="svg_114"/>
   <path stroke="null" fill="#003050" id="svg_113" d="m473.118513,181.573847l2.066424,-1.646l0.778653,1.8106l-2.216171,1.344233l-0.628906,-1.508833z"/>
   <path stroke="null" fill="#003050" id="svg_112" d="m466.949188,181.573847l-2.186223,-1.426539l-0.808595,1.8929l2.335952,1.042472"/>
   <path stroke="null" d="m468.027319,185.798578l2.006528,0l2.036476,0l1.766943,25.2661c-2.365906,-3.346867 -4.851605,-6.721167 -6.858133,-10.2875l1.048186,-14.9786z" fill="#003050" id="svg_111"/>
   <path stroke="null" d="m466.949185,200.777177c2.006528,3.593767 4.492227,6.940633 6.858133,10.2875l2.695336,38.2695l-6.498755,7.9831l-6.498755,-7.9831l3.444041,-48.556999z" fill="#003D61" id="svg_110"/>
   <path stroke="null" d="m471.710946,274.21621c0.898445,0 1.796891,0 2.665388,-0.027433c0.539067,0 0.98829,-0.521233 0.98829,-1.1522l0,-3.401733c0,-0.356633 -0.149741,-0.685833 -0.389326,-0.9053c-0.179689,-0.1646 -0.419275,-0.2469 -0.628912,-0.2469c-2.335958,0.054867 -4.731813,0.027433 -7.157615,-0.054867c-0.239585,0 -0.449223,0.0823 -0.65886,0.2469c-0.239585,0.219467 -0.389326,0.548667 -0.389326,0.9053l0,3.401733c0,0.630967 0.419275,1.124767 0.958342,1.1522c1.527357,0.027433 3.054714,0.0823 4.61202,0.0823zm2.63544,-5.1849c0.089845,0 0.149741,0.054867 0.209637,0.0823c0.119793,0.109733 0.209637,0.301767 0.209637,0.4938l0,3.429167c0,0.356633 -0.209637,0.5761 -0.389326,0.603533c-2.395854,0.054867 -4.821657,0.027433 -7.24746,-0.054867c-0.179689,0 -0.389326,-0.2469 -0.389326,-0.603533l0,-3.401733c0,-0.219467 0.089845,-0.384067 0.209637,-0.4938c0.059896,-0.054867 0.119793,-0.0823 0.209637,-0.0823c2.425803,0.054867 4.851605,0.0823 7.187563,0.027433c0,0 0,0 0,0z" fill="#D1D3D4" id="svg_109"/>
   <path stroke="null" fill="#D1D3D4" id="svg_108" d="m475.065145,271.171113l-3.533885,0l0,0.274333l3.533885,0l0,-0.274333z"/>
   <path stroke="null" d="m447.512815,131.946945c0,2.770767 -0.359378,20.2458 1.287772,25.128933c1.617202,4.883133 12.817821,10.8636 20.933779,10.9459c0.209637,0 0.419275,0 0.628912,0l0,-19.0113c0,0 5.091191,-0.4115 2.695336,-3.895533c-2.395854,-3.484033 -2.934922,-7.873367 -2.934922,-7.873367l0.239585,-18.380333l6.199273,-5.376933l14.764453,3.099967c0,0 0,0 0,0c-4.851605,-6.529133 -15.363417,-7.0778 -21.952017,-7.187533c-6.5886,-0.109733 -19.076991,5.3495 -20.424659,6.9955c-3.473989,4.169867 -1.437513,12.783933 -1.437513,15.5547z" fill="#F0CDB6" id="svg_107"/>
   <path stroke="null" d="m470.363278,149.010478l0,19.0113c0.029948,0 0.089845,0 0.119793,0c0.029948,0 0.059896,0 0.089845,0c8.774817,-0.7407 20.424659,-4.1973 21.802276,-10.9459c1.587254,-7.845933 1.31772,-26.034233 1.31772,-26.034233c0.688808,-10.3698 -1.677098,-13.634366 -2.335958,-14.4848l-14.764453,-3.099967l-6.229222,5.404367l-0.209637,18.407766c0,0 0.539067,4.389333 2.934922,7.873367c2.365906,3.4566 -2.725284,3.8681 -2.725284,3.8681z" fill="#EEB78F" id="svg_106"/>
   <path stroke="null" d="m448.740691,139.930045c0,0 0.119793,-5.239767 -4.28259,-5.541533c-4.402383,-0.301767 -4.013056,4.3619 -2.725284,7.4893c1.287772,3.1274 7.217512,4.252167 7.217512,4.252167l-0.209637,-6.199933z" fill="#EEB78F" id="svg_105"/>
   <path stroke="null" d="m492.075709,138.530945c0,0 -0.119793,-5.239767 4.28259,-5.541533c4.402383,-0.301767 4.013056,4.3619 2.725284,7.4893c-1.287772,3.1274 -7.217512,4.252167 -7.217512,4.252167l0.209637,-6.199933z" fill="#EEB78F" id="svg_104"/>
   <path stroke="null" id="svg_103" d="m479.317781,139.545975a-2.066424,2.276967 0 0 1 2.066424,2.276967a-2.066424,2.276967 0 0 1 2.066424,-2.276967a-2.066424,2.276967 0 0 1 -2.066424,-2.276967a-2.066424,2.276967 0 0 1 -2.066424,2.276967z"/>
   <path stroke="null" fill="#FFFFFF" id="svg_102" d="m479.946699,138.256614a-0.65886,0.7407 0 0 1 0.65886,0.7407a-0.65886,0.7407 0 0 1 0.65886,-0.7407a-0.65886,0.7407 0 0 1 -0.65886,-0.7407a-0.65886,0.7407 0 0 1 -0.65886,0.7407z"/>
   <path stroke="null" id="svg_101" d="m456.407422,139.545975a-2.066424,2.276967 0 0 1 2.066424,2.276967a-2.066424,2.276967 0 0 1 2.066424,-2.276967a-2.066424,2.276967 0 0 1 -2.066424,-2.276967a-2.066424,2.276967 0 0 1 -2.066424,2.276967z"/>
   <path stroke="null" fill="#FFFFFF" id="svg_100" d="m457.03634,138.256614a-0.65886,0.7407 0 0 1 0.65886,0.7407a-0.65886,0.7407 0 0 1 0.65886,-0.7407a-0.65886,0.7407 0 0 1 -0.65886,-0.7407a-0.65886,0.7407 0 0 1 -0.65886,0.7407z"/>
   <path stroke="null" d="m470.123692,137.241578c0,0 -0.239585,2.990233 1.497409,6.9132c0.838549,1.8929 1.048186,3.9504 0.269534,4.224733s-2.395854,0.4938 -2.395854,0.4938s4.492227,0.7407 4.252642,-1.4814c-0.299482,-2.661033 -2.455751,-4.471633 -3.62373,-10.150333z" fill="#CFA07E" id="svg_99"/>
   <path stroke="null" d="m477.460997,130.849612c1.766943,0.027433 6.019584,0.3292 11.290464,2.0575c0.479171,0.1646 1.018238,-0.0823 1.167979,-0.521233l0,0c0.119793,-0.356633 -0.029948,-0.768133 -0.419275,-0.960167c-1.437513,-0.768133 -5.480517,-2.606167 -11.949324,-3.0451c-0.539067,-0.027433 -0.98829,0.356633 -0.98829,0.823l0,0.795567c0,0.4938 0.389326,0.850433 0.898445,0.850433z" id="svg_98"/>
   <path stroke="null" d="m463.505144,130.849612c-1.766943,0.027433 -6.019584,0.3292 -11.290464,2.0575c-0.479171,0.1646 -1.018238,-0.0823 -1.167979,-0.521233l0,0c-0.119793,-0.356633 0.029948,-0.768133 0.419275,-0.960167c1.437513,-0.768133 5.480517,-2.606167 11.949324,-3.0451c0.539067,-0.027433 0.98829,0.356633 0.98829,0.823l0,0.795567c-0.029948,0.4938 -0.419275,0.850433 -0.898445,0.850433z" id="svg_97"/>
   <path stroke="null" d="m496.687729,114.828545c-3.62373,-10.891033 -28.660409,-13.030833 -34.919579,-13.195433c-17.93896,-0.4938 -13.536578,11.165367 -13.536578,11.165367s-0.239585,0.054867 -0.628912,0.1646c0.299482,0.109733 0.598964,0.109733 0.838549,-0.109733c-0.239585,0.219467 -3.503937,2.7159 -4.582072,4.6911c0,4.0327 3.743523,26.555466 3.743523,26.555466l1.108083,-18.8467c0.209637,-3.593767 3.563834,-6.364533 7.487045,-6.1725c4.971398,0.2469 9.823003,2.743333 14.345179,2.688467c5.061243,-0.054867 9.493573,-2.167233 14.16549,-2.661033c4.072953,-0.438933 7.696683,2.441567 7.876372,6.199933l0.928394,18.791833c0,0 3.62373,-23.565233 3.62373,-26.555466c0,-0.932733 -0.179689,-1.865467 -0.449223,-2.7159z" id="svg_96"/>
   <path stroke="null" d="m482.01312,175.483644c0,0.548667 7.816475,13.222867 7.816475,13.222867l-3.923212,3.648633l5.181035,4.499067l-8.086009,31.219133c-0.32943,-0.4938 -0.65886,-1.015033 -1.018238,-1.508833l0.029948,-51.080866z" fill="#F1F2F2" id="svg_95"/>
   <path stroke="null" d="m482.01312,226.537077c0.359378,0.4938 0.688808,1.015033 1.018238,1.508833l-1.018238,3.895533l0,-5.404367z" fill="#FFFFFF" id="svg_94"/>
   <path stroke="null" d="m458.024627,175.483644c0,0.548667 -7.816475,13.222867 -7.816475,13.222867l3.923212,3.648633l-5.181035,4.499067l9.074299,35.114666l0,-56.485233z" fill="#FFFFFF" id="svg_93"/>
   <path stroke="null" d="m489.500165,236.330777l0.359378,-1.8929l-1.31772,-0.192033c-4.013056,-0.603533 -7.307356,-4.087567 -8.265698,-8.614067c-1.227875,-5.898167 -2.365906,-14.4025 -0.868497,-21.288266l-2.066424,-0.384067c-1.557305,7.187533 -0.389326,15.938766 0.868497,22.028966c1.108083,5.404367 5.031294,9.409633 9.972744,10.177767l1.31772,0.1646z" fill="#BCBEC0" id="svg_92"/>
   <path stroke="null" d="m491.327004,237.153777l-3.863315,-0.603533c-0.269534,-0.054867 -0.449223,-0.274333 -0.389326,-0.521233l0.389326,-2.030067c0.059896,-0.2469 0.299482,-0.4115 0.569015,-0.356633l3.863315,0.603533c0.269534,0.054867 0.449223,0.274333 0.389326,0.521233l-0.389326,2.030067c-0.029948,0.219467 -0.299482,0.384067 -0.569015,0.356633z" fill="#003050" id="svg_91"/>
   <path stroke="null" d="m476.712292,170.189011c0.059896,0.192033 0.119793,0.384067 0.209637,0.548667c3.2943,0.0823 3.95316,0.960167 4.072953,1.453967l0,0l0.569015,2.194667c2.455751,0.932733 4.462279,2.249533 6.049533,3.922967c5.181035,5.486667 4.072953,13.140567 4.043004,13.195433c-0.119793,0.795567 0.479171,1.536267 1.347668,1.646c0.059896,0 0.149741,0.027433 0.239585,0.027433c0.778653,0 1.437513,-0.521233 1.557305,-1.2345c0.059896,-0.356633 1.31772,-9.053 -4.791709,-15.499833c-3.144559,-3.346867 -7.57689,-5.4318 -13.296992,-6.2548z" fill="#003050" id="svg_90"/>
   <path stroke="null" d="m446.464629,191.916211c0.119793,0.713267 0.778653,1.2345 1.557305,1.2345c0.059896,0 0.149741,0 0.209637,-0.027433c0.868497,-0.109733 1.467461,-0.850433 1.347668,-1.646c-0.029948,-0.109733 -1.078135,-7.791067 4.072953,-13.222867c1.287772,-1.344233 2.845077,-2.441567 4.671916,-3.319433l0.718756,-2.469c0.209637,-0.685833 0.778653,-1.179633 1.617202,-1.508833c-3.863315,1.097333 -7.007874,2.8805 -9.403729,5.404367c-6.109429,6.529133 -4.851605,15.198066 -4.791709,15.5547z" fill="#003050" id="svg_89"/>
   <path stroke="null" fill="#003050" id="svg_88" d="m446.464632,191.916208l1.497409,14.155608l3.35419,0l-1.736989,-14.539675l-3.114611,0.384067z"/>
   <path stroke="null" fill="#BCBEC0" id="svg_87" d="m444.218519,207.553208a-5.690154,5.212333 0 0 1 5.690154,5.212333a-5.690154,5.212333 0 0 1 5.690154,-5.212333a-5.690154,5.212333 0 0 1 -5.690154,-5.212333a-5.690154,5.212333 0 0 1 -5.690154,5.212333z"/>
   <path stroke="null" fill="#E6E7E8" id="svg_86" d="m447.033648,207.553208a-2.875025,2.6336 0 0 1 2.875025,2.6336a-2.875025,2.6336 0 0 1 2.875025,-2.6336a-2.875025,2.6336 0 0 1 -2.875025,-2.6336a-2.875025,2.6336 0 0 1 -2.875025,2.6336z"/>
   <path stroke="null" d="m489.500165,236.330777c0,0 -0.718756,0.109733 -1.946632,0.301767c-4.791709,0.713267 -17.549634,2.523867 -29.229425,3.758367c-8.295646,0.850433 -16.022277,1.426533 -19.975437,1.042467c-0.389326,-0.027433 -0.748705,-0.0823 -1.078135,-0.137167c-5.031294,-0.9053 -8.205802,-1.9752 -9.643314,-4.663667c-0.65886,-1.207067 -0.958342,-2.7159 -0.898445,-4.6911c0.149741,-5.953033 1.437513,-36.102266 10.242278,-47.377366c-0.299482,5.623833 1.946632,21.8095 2.485699,31.383733c0,0.137167 0,0.301767 0.029948,0.466367c0,0.0823 0,0.1646 0,0.2469c0,0 0.598964,2.112367 -0.359378,12.372433l0,0.027433c4.971398,0.548667 12.009221,0.438933 19.166836,0.027433c13.955852,-0.795567 28.271083,-2.6336 28.271083,-2.6336l2.934922,9.876z" fill="#FFFFFF" id="svg_85"/>
   <path stroke="null" d="m461.139238,153.536978c2.934922,9.491933 15.213676,8.778667 18.77751,0c-6.408911,1.618567 -12.668081,1.591133 -18.77751,0z" fill="#CA5C67" id="svg_84"/>
   <path stroke="null" d="m467.787734,161.876711l5.151087,0c0,0 -1.617202,1.865467 -5.151087,0z" fill="#CFA07E" id="svg_83"/>
   <path stroke="null" d="m439.127325,229.006077c0.299482,-5.568967 0.449223,-9.903433 0.359378,-12.372433c0,0 0.598964,2.112367 -0.359378,12.372433z" fill="#EFEFF0" id="svg_82"/>
   <path stroke="null" d="m458.354057,228.923777c0,0.054867 -0.029948,0.109733 -0.029948,0.1646l-0.029948,0c-3.803419,0.219467 -7.57689,0.356633 -11.020931,0.3292c0.299482,-0.0823 0.569015,-0.192033 0.868497,-0.301767c1.766943,-0.603533 3.503937,-1.261933 5.300828,-1.8106c0.179689,-0.054867 0.359378,-0.109733 0.539067,-0.1646c0.179689,-0.054867 0.359378,-0.109733 0.539067,-0.1646c0.868497,-0.219467 1.736995,-0.438933 2.605492,-0.5761l0.119793,1.9752c0.359378,0.219467 0.748705,0.384067 1.108083,0.548667z" fill="#EEB78F" id="svg_81"/>
   <path stroke="null" d="m460.001207,224.452144c-0.419275,0.850433 -1.018238,2.249533 -1.64715,4.471633c-0.389326,-0.1646 -0.748705,-0.3292 -1.138031,-0.4938c-0.928394,-0.4115 -1.856787,-0.823 -2.785181,-1.261933c0,0 0,-0.027433 0,-0.027433c0,-0.027433 0.029948,-0.054867 0.029948,-0.109733c-0.179689,0.054867 -0.359378,0.109733 -0.539067,0.1646c-0.179689,0.054867 -0.359378,0.109733 -0.539067,0.1646c-1.796891,0.548667 -3.563834,1.207067 -5.300828,1.8106c-0.299482,0.109733 -0.569015,0.192033 -0.868497,0.301767c0,0 0,0 0,0c-0.029948,0 -0.059896,0.027433 -0.119793,0.027433c-0.359378,0.109733 -0.688808,0.219467 -1.048186,0.3292c0.119793,-0.109733 0.239585,-0.2469 0.359378,-0.356633c2.036476,-1.9752 4.582072,-4.087567 6.828185,-5.1026c2.096373,-0.932733 3.62373,-0.9876 3.62373,-0.9876c1.138031,0.3292 2.156269,0.713267 3.144559,1.0699z" fill="#F0CDB6" id="svg_80"/>
   <path stroke="null" d="m447.27323,229.417577c-0.029948,0 -0.059896,0.027433 -0.119793,0.027433c-0.359378,0.109733 -0.688808,0.219467 -1.048186,0.3292c0.119793,-0.109733 0.239585,-0.2469 0.359378,-0.356633c0.269534,0 0.539067,0 0.808601,0z" fill="#FFFFFF" id="svg_79"/>
   <path stroke="null" d="m487.553534,236.632544c-4.791709,0.713267 -17.549634,2.523867 -29.229425,3.758367c-8.295646,0.850433 -16.022277,1.426533 -19.975437,1.042467c-0.389326,-0.027433 -0.748705,-0.0823 -1.078135,-0.137167c-5.031294,-0.9053 -8.205802,-1.9752 -9.643314,-4.663667c6.528703,0.5761 23.030151,1.700867 33.032844,-0.274333c-2.455751,-0.466367 -2.63544,-0.960167 -2.63544,-0.960167l0.778653,-3.8681l28.750254,5.1026z" fill="#E6E7E8" id="svg_78"/>
   <path stroke="null" d="m515.10586,232.956477c-0.898445,4.828267 -4.043004,6.885767 -12.84777,6.9955c-0.898445,0 -1.826839,0 -2.845077,-0.027433c-0.98829,-0.027433 -2.126321,-0.0823 -3.324248,-0.1646c-12.009221,-0.877867 -32.883103,-4.581367 -38.69305,-6.776033c0.299482,-1.508833 0.628912,-2.770767 0.928394,-3.8681c1.257824,-4.471633 2.335958,-5.761 2.335958,-5.761s10.811293,2.331833 24.048389,3.730933c5.420621,0.5761 11.230568,0.960167 16.890774,0.9876c-0.299482,-6.3371 -0.449223,-10.699 -0.359378,-12.125533c0.419275,-6.282233 3.414093,-24.168766 3.264352,-30.0395c8.655024,7.050367 11.559998,41.726099 10.601656,47.048166z" fill="#FFFFFF" id="svg_77"/>
   <path stroke="null" d="m515.10586,232.956477c-0.898445,4.828267 -4.043004,6.885767 -12.84777,6.9955c-0.898445,0 -1.826839,0 -2.845077,-0.027433c-0.98829,-0.027433 -2.126321,-0.0823 -3.324248,-0.1646c-12.009221,-0.877867 -32.883103,-4.581367 -38.69305,-6.776033c0.299482,-1.508833 0.628912,-2.770767 0.928394,-3.8681c1.197927,0.219467 34.73989,6.1725 44.982168,4.965433c-1.707046,-6.0079 -1.707046,-6.0079 -1.707046,-6.0079c-0.299482,-6.3371 -0.449223,-10.699 -0.359378,-12.125533c0.419275,-6.282233 3.414093,-24.168766 3.264352,-30.0395c8.655024,7.050367 11.559998,41.726099 10.601656,47.048166z" fill="#EFEFF0" id="svg_76"/>
   <path stroke="null" d="m478.38939,205.578011c0.748705,0 1.407565,-0.466367 1.557305,-1.1522c1.64715,-7.5716 6.019584,-11.247667 13.326941,-11.247667c7.337304,0 11.679791,3.676067 13.326941,11.247667c0.179689,0.795567 0.98829,1.289367 1.856787,1.124767c0.868497,-0.1646 1.407565,-0.9053 1.227875,-1.700867c-1.946632,-8.860967 -7.606838,-13.552066 -16.441551,-13.552066s-14.49492,4.6911 -16.441551,13.552066c-0.179689,0.795567 0.389326,1.536267 1.227875,1.700867c0.149741,0.027433 0.239585,0.027433 0.359378,0.027433z" fill="#003050" id="svg_75"/>
   <path stroke="null" d="m497.017159,236.330777l1.31772,-0.192033c4.94145,-0.768133 8.864662,-4.745967 9.972744,-10.177767c1.257824,-6.0902 2.425803,-14.841433 0.868497,-22.028966l-2.066424,0.384067c1.497409,6.885767 0.359378,15.362666 -0.868497,21.288266c-0.928394,4.5265 -4.252642,8.010533 -8.265698,8.614067l-1.31772,0.192033l0.359378,1.920333z" fill="#BCBEC0" id="svg_74"/>
   <path stroke="null" d="m495.19032,237.153777l3.863315,-0.603533c0.269534,-0.054867 0.449223,-0.274333 0.389326,-0.521233l-0.389326,-2.030067c-0.059896,-0.2469 -0.299482,-0.4115 -0.569015,-0.356633l-3.863315,0.603533c-0.269534,0.054867 -0.449223,0.274333 -0.389326,0.521233l0.389326,2.030067c0.059896,0.219467 0.299482,0.384067 0.569015,0.356633z" fill="#003050" id="svg_73"/>
   <path stroke="null" d="m509.355809,226.537077l-7.157615,0.0823l-0.628912,0.823l-0.479171,0.603533c-2.006528,-0.027433 -4.013056,-0.0823 -6.049533,-0.192033c1.197927,-0.384067 2.365906,-0.877867 3.444041,-1.536267c0.928394,-0.630967 1.946632,-1.015033 2.96487,-1.179633c2.455751,-0.384067 5.151087,0.301767 7.90632,0.877867l0,0.521233z" fill="#EEB78F" id="svg_72"/>
   <path stroke="null" d="m505.672183,219.98051l5.001346,1.426533l-0.059896,1.508833l-4.552124,-0.3292l-3.563834,0.932733l0,0.2469l6.828185,1.289367l0,0.9876c-2.755233,-0.5761 -5.450569,-1.261933 -7.90632,-0.877867c-1.048186,0.1646 -2.036476,0.521233 -2.96487,1.179633c-1.078135,0.6584 -2.246114,1.1522 -3.444041,1.536267c-2.605492,-0.137167 -5.210984,-0.3292 -7.726631,-0.548667c0.838549,-0.274333 1.677098,-0.548667 2.515647,-0.877867l4.432331,-7.132667l1.766943,-2.6336l4.791709,-2.2221l0.569015,-0.137167l5.121139,-1.2345l0.598964,1.3991l-3.473989,1.646l-1.227875,1.124767l0,0.054867l3.204455,-0.823l5.720103,-0.1646l0.539067,1.426533l-5.989636,1.289367l-2.755233,1.0699l2.575544,-0.137167z" fill="#F0CDB6" id="svg_71"/>
  </g>
  <g stroke="null" id="svg_246">
   <path stroke="null" id="svg_145" d="m365.856298,159.435154l0,21.690619c0,4.925131 3.954389,8.919641 8.830051,8.919641l0,0c4.875662,0 8.830051,-3.99451 8.830051,-8.919641l0,-21.690619l-17.660101,0z" fill="#F9BFA1"/>
   <path stroke="null" id="svg_146" d="m365.856298,169.614712c3.004768,2.262124 6.505607,3.564993 10.247394,3.564993c2.622086,0 5.130784,-0.644276 7.42688,-1.803972l0,-11.940578l-17.674275,0l0,10.179558z" fill="#F5AC88"/>
   <path stroke="null" id="svg_147" d="m425.753239,197.647868c0,0 2.792167,-11.482427 16.710481,-6.943862c0,0 7.781216,1.6608 9.411162,-2.476883c0,0 6.959157,-4.137682 2.040975,7.029765c0,0 -8.192246,5.368965 -16.370319,2.892083c0,0 -5.187478,-1.932827 -6.420567,2.620055c0.014173,0 -7.412707,3.493407 -5.371732,-3.121158z" fill="#F9BFA1"/>
   <path stroke="null" id="svg_148" d="m400.978073,178.004615c0,0 9.864711,20.888854 16.49788,38.212715c0,0 5.385906,-19.371226 8.475715,-18.970344c0,0 -1.289783,3.42182 0.892926,3.822703l4.478806,-0.701545l0.892926,-1.703752c0,0 1.587425,-1.202648 1.388997,3.020938c0,0 -8.560755,33.001239 -12.345063,32.800798c0,0 -5.385906,1.202648 -8.759183,0l-17.107337,-34.977018l5.584334,-21.504495z" fill="#FFFFFF"/>
   <path stroke="null" id="svg_149" d="m389.49759,252.926734l-33.293401,0c0,0 -6.448913,-3.178427 -7.129238,51.857045l2.7213,53.188548c0,0 5.442599,5.411917 14.27265,0.959255l7.596962,-87.850587l2.593739,87.850587c0,0 6.122924,4.137682 13.592325,0.959255l5.442599,-79.589539c-0.014173,-0.014317 1.006314,-22.921902 -5.796935,-27.374564z" fill="#257E9F"/>
   <g stroke="null" id="svg_150" transform="matrix(0.1417343601826779,0,0,0.14317240391437047,-17794.884994382595,-12413.239782441671) ">
    <g stroke="null" id="svg_151">
     <path stroke="null" id="svg_152" d="m128140.440522,89130.428718l-111.2,0l3.7,71.2c0,0 38.4,37.8 100.7,6.7l6.8,-77.9z" fill="#289EC1"/>
    </g>
    <g stroke="null" id="svg_153">
     <path stroke="null" id="svg_154" d="m128203.240522,89130.428718l2.3,77.8c0,0 43.2,28.9 95.9,6.7l5.8,-84.5l-104,0z" fill="#289EC1"/>
    </g>
   </g>
   <path stroke="null" id="svg_155" d="m392.374797,272.612939l2.863034,0c-0.311816,-7.087034 -1.516558,-16.922978 -5.726068,-19.671888l-33.293401,0c0,0 -6.448913,-3.178427 -7.129238,51.857045l1.8142,35.449487l12.189155,0l7.115065,-69.581788l2.735473,8.876689l0,0l0.737019,-8.475806l2.040975,69.166588l11.735605,0l4.918182,-67.620326z" fill="#2F93B1"/>
   <path stroke="null" id="svg_156" d="m322.641492,197.27562c0,0 -2.792167,-11.482427 -16.710481,-6.943862c0,0 -7.781216,1.646483 -9.411162,-2.476883c0,0 -6.959157,-4.137682 -2.040975,7.029765c0,0 8.192246,5.368965 16.370319,2.892083c0,0 5.187478,-1.932827 6.420567,2.620055c0,0 7.412707,3.493407 5.371732,-3.121158z" fill="#F9BFA1"/>
   <path stroke="null" id="svg_157" fill="#8EB4D6" d="m365.700388,171.805242l6.859946,11.13882l1.828376,6.256627l2.182713,-5.884382l8.745003,-10.666344l6.562308,10.294099l-9.113526,9.936168l-2.551218,-6.256644l-1.091347,7.001135l0.368505,62.924272l-10.927715,0l1.445683,-63.296517l-1.814207,-6.98682l-2.551218,6.614575l-6.562291,-14.718129l6.618989,-6.356859z"/>
   <path stroke="null" id="svg_158" d="m378.754125,183.903318l-3.642573,100.206365l8.74501,20.817268c0,0 19.30422,4.581517 25.129502,-4.581517l-9.467855,-62.809734l-1.502384,-37.425266l2.962248,-22.349212l-18.269559,-5.941655c0,-0.014317 0.481897,5.612358 -3.954389,12.083751z" fill="#FFFFFF"/>
   <path stroke="null" id="svg_159" d="m369.654779,183.903318l3.642573,100.206365l-8.74501,20.817268c0,0 -19.30422,4.581517 -25.129502,-4.581517l9.467855,-62.809734l2.055148,-34.977018l-2.976422,-25.012219l17.730968,-5.741213c0,0 -0.481897,5.626675 3.954389,12.098068z" fill="#FFFFFF"/>
   <path stroke="null" id="svg_160" d="m347.955249,177.789856c0,0 -9.595416,21.676302 -16.285278,40.589377c0,0 -6.137098,-21.919695 -9.226907,-21.504495c0,0 1.289783,3.42182 -0.892926,3.822703l-4.478806,-0.701545l-0.892926,-1.703752c0,0 -1.587425,-1.202648 -1.388997,3.020938c0,0 8.560755,33.001239 12.345063,32.800798c0,0 7.044198,1.202648 10.431649,0l16.242758,-34.60477l-5.853629,-21.719254z" fill="#FFFFFF"/>
   <path stroke="null" id="svg_161" d="m348.876522,238.52359l1.474037,4.194951l6.307179,0.587007l3.500839,-4.839227c0,0 -10.573383,-0.544055 -11.282055,0.057269z" fill="#CCCCCC"/>
   <path stroke="null" id="svg_162" d="m398.426854,238.337466l-0.666151,4.023145l-6.307179,0.587007l-3.529186,-4.25222c0,0 9.793844,-0.944938 10.502516,-0.357931z" fill="#CCCCCC"/>
   <path stroke="null" id="svg_163" fill="#6A9CC8" d="m369.654779,184.418746l2.905554,-1.474683l-1.006311,-1.10242l-2.083505,2.118942l0.184262,0.458162z"/>
   <path stroke="null" id="svg_164" fill="#6A9CC8" d="m376.571423,183.316308l0.949613,-1.05948l1.417344,1.560583l-0.226772,0.472475l-2.140185,-0.973578z"/>
   <path stroke="null" id="svg_165" fill="#6A9CC8" d="m372.92884,218.178788l0.538596,38.370204l1.275609,0l-0.269298,-39.472626l1.190571,-30.62458l-1.275609,2.290758l-0.822065,-2.018728l-0.637805,31.454971z"/>
   <path stroke="null" id="svg_166" fill="#424145" d="m375.848575,195.643448a1.459864,1.474676 0 0 1 -1.459865,1.474676a1.459864,1.474676 0 0 1 -1.459864,-1.474676a1.459864,1.474676 0 0 1 1.459864,-1.474676a1.459864,1.474676 0 0 1 1.459865,1.474676z"/>
   <path stroke="null" id="svg_167" fill="#424145" d="m375.295807,212.022375a1.459864,1.474676 0 0 1 -1.459864,1.474676a1.459864,1.474676 0 0 1 -1.459864,-1.474676a1.459864,1.474676 0 0 1 1.459864,-1.474677a1.459864,1.474676 0 0 1 1.459864,1.474677z"/>
   <path stroke="null" id="svg_168" fill="#424145" d="m375.295807,228.945363a1.459864,1.474676 0 0 1 -1.459864,1.474676a1.459864,1.474676 0 0 1 -1.459864,-1.474676a1.459864,1.474676 0 0 1 1.459864,-1.474676a1.459864,1.474676 0 0 1 1.459864,1.474676z"/>
   <path stroke="null" id="svg_169" fill="#424145" d="m375.664313,243.491675a1.459864,1.474676 0 0 1 -1.459864,1.474677a1.459864,1.474676 0 0 1 -1.459865,-1.474677a1.459864,1.474676 0 0 1 1.459865,-1.474676a1.459864,1.474676 0 0 1 1.459864,1.474676z"/>
   <path stroke="null" id="svg_170" d="m365.700391,171.80525l-8.489888,2.935034l0,16.679585c0,0 6.321352,-7.602455 8.985958,-6.628882l1.459864,3.436138l2.423658,2.448248l-0.425203,-6.256634l-3.954389,-12.613489z" fill="#E6E6E6"/>
   <path stroke="null" id="svg_171" d="m368.974454,206.868171c0,0.67291 -0.538591,1.231283 -1.218915,1.231283c-0.666151,0 -1.218915,-0.544055 -1.218915,-1.231283c0,-0.67291 0.538591,-1.231283 1.218915,-1.231283c0.680325,0 1.218915,0.558372 1.218915,1.231283z" fill="#333333"/>
   <path stroke="null" id="svg_172" fill="#333333" d="m369.22958,221.829685a1.218915,1.231283 0 0 1 -1.218917,1.231283a1.218915,1.231283 0 0 1 -1.218915,-1.231283a1.218915,1.231283 0 0 1 1.218915,-1.231284a1.218915,1.231283 0 0 1 1.218917,1.231284z"/>
   <path stroke="null" id="svg_173" d="m370.19337,237.779093c0,0.67291 -0.538591,1.231283 -1.218915,1.231283c-0.666151,0 -1.218915,-0.544055 -1.218915,-1.231283c0,-0.67291 0.538591,-1.231283 1.218915,-1.231283c0.680325,0.014317 1.218915,0.558372 1.218915,1.231283z" fill="#333333"/>
   <path stroke="null" id="svg_174" fill="#333333" d="m371.171334,252.74061a1.218915,1.231283 0 0 1 -1.218915,1.231283a1.218915,1.231283 0 0 1 -1.218917,-1.231283a1.218915,1.231283 0 0 1 1.218917,-1.231283a1.218915,1.231283 0 0 1 1.218915,1.231283z"/>
   <path stroke="null" id="svg_175" d="m379.39193,207.626985c0.666151,0 1.218915,-0.229076 1.218915,-0.515421c0,-0.286345 -0.538591,-0.515421 -1.218915,-0.515421c-0.666151,0 -1.218915,0.229076 -1.218915,0.515421c0.014173,0.286345 0.552764,0.515421 1.218915,0.515421z" fill="#808080"/>
   <path stroke="null" id="svg_176" d="m378.569871,222.602818c0.666151,0 1.218915,-0.229076 1.218915,-0.515421c0,-0.286345 -0.538591,-0.515421 -1.218915,-0.515421c-0.666151,0 -1.218915,0.229076 -1.218915,0.515421c0,0.272028 0.538591,0.515421 1.218915,0.515421z" fill="#808080"/>
   <path stroke="null" id="svg_177" d="m378.158841,238.537907c0.666151,0 1.218915,-0.229076 1.218915,-0.515421c0,-0.286345 -0.538591,-0.515421 -1.218915,-0.515421c-0.666151,0 -1.218915,0.229076 -1.218915,0.515421c0,0.286345 0.538591,0.515421 1.218915,0.515421z" fill="#808080"/>
   <path stroke="null" id="svg_178" d="m377.747811,253.51374c0.666151,0 1.218915,-0.229076 1.218915,-0.515421c0,-0.286345 -0.538591,-0.515421 -1.218915,-0.515421c-0.666151,0 -1.218915,0.229076 -1.218915,0.515421c0,0.286345 0.552764,0.515421 1.218915,0.515421z" fill="#808080"/>
   <path stroke="null" id="svg_179" d="m385.061304,172.649967l5.896149,2.448248l0,16.679585c0,0 -6.321352,-7.602455 -8.985958,-6.628882l-1.459864,3.436138l-2.423658,2.448248l0.425203,-6.256634l6.548127,-12.126703z" fill="#E6E6E6"/>
   <path stroke="null" id="svg_180" d="m347.246577,251.580913c0,0 4.62054,5.583724 11.409616,1.159696l1.502384,-14.274289l0.439377,3.980193l-1.218915,12.026482c0,0 -8.433194,3.922924 -12.330889,-1.718069l0.198428,-1.174014z" fill="#E6E6E6"/>
   <path stroke="null" id="svg_181" d="m400.978073,251.208665c0,0 -4.322898,5.941655 -11.494657,1.531945l-1.587425,-14.274289l-0.467723,3.980193l1.275609,12.026482c0,0 8.461541,4.352441 12.557664,-1.288552l-0.283469,-1.975779z" fill="#E6E6E6"/>
   <path stroke="null" id="svg_182" d="m316.447701,198.277827c0,0 0.807886,2.018731 1.955934,2.018731c0,0 2.551218,-0.25771 3.21737,0.400883c0,0 2.012628,-0.400883 1.048834,-3.42182c0,0 1.629945,0.758814 0.04252,3.622262c0,0 -1.148048,1.059476 -3.018942,0.15749c0,0 -1.431517,0 -1.729159,0.601324c0.014173,0 -3.330757,-1.91851 -1.516558,-3.378869z" fill="#E6E6E6"/>
   <path stroke="null" id="svg_183" d="m431.81947,200.511317c0,0 -0.807886,2.018731 -1.955934,2.018731c0,0 -2.551218,-0.25771 -3.21737,0.400883c0,0 -2.012628,-0.400883 -1.048834,-3.42182c0,0 -1.629945,0.758814 -0.04252,3.622262c0,0 1.148048,1.059476 3.018942,0.15749c0,0 1.431517,0 1.729159,0.601324c-0.014173,-0.014317 3.330757,-1.91851 1.516558,-3.378869z" fill="#E6E6E6"/>
   <path stroke="null" id="svg_184" d="m376.911579,109.568206c-1.190569,-2.23349 -5.130784,-1.531945 -5.130784,-1.531945l0,0c-1.020487,0.057269 -1.998454,0.357931 -2.80634,1.073793c-0.425203,0.372248 -1.133875,2.104634 -0.581111,2.648689c0,0 0,0 0,0c2.508698,2.376662 8.971785,-0.300662 8.971785,-0.300662c0.467723,-0.186124 -0.141734,-1.40309 -0.45355,-1.889876z" fill="#F7394B"/>
   <path stroke="null" id="svg_185" d="m376.075346,110.327019l0,0c-12.217502,0 -22.11056,8.97691 -22.11056,20.058454l0,18.913075l44.235294,0l0,-18.913075c0,-11.081544 -9.907232,-20.058454 -22.124734,-20.058454z" fill="#BD4A03"/>
   <path stroke="null" id="svg_186" d="m389.483416,163.171954c0,0 10.14818,12.183972 0.240948,23.265516c0,0 -3.529186,3.00662 -2.097669,8.14651c0,0 -9.226907,-10.394317 -6.732382,-22.435116l0.566937,-3.450455c-0.014173,0 2.834687,-0.501103 8.022165,-5.526455z" fill="#BD4A03"/>
   <path stroke="null" id="svg_187" fill="#F5AC88" d="m399.12136,147.294134a6.321352,6.385489 0 0 1 -6.321352,6.385489a6.321352,6.385489 0 0 1 -6.321352,-6.385489a6.321352,6.385489 0 0 1 6.321352,-6.385489a6.321352,6.385489 0 0 1 6.321352,6.385489z"/>
   <path stroke="null" id="svg_188" fill="#F5AC88" d="m365.95552,147.294134a6.321352,6.385489 0 0 1 -6.321352,6.385489a6.321352,6.385489 0 0 1 -6.321352,-6.385489a6.321352,6.385489 0 0 1 6.321352,-6.385489a6.321352,6.385489 0 0 1 6.321352,6.385489z"/>
   <path stroke="null" id="svg_189" d="m376.21708,169.242464l0,0c-10.587557,0 -19.176659,-8.676248 -19.176659,-19.371226l0,-24.167502l38.367491,0l0,24.167502c-0.014173,10.694979 -8.603276,19.371226 -19.190832,19.371226z" fill="#F9BFA1"/>
   <path stroke="null" id="svg_190" d="m362.142858,140.221417c-0.085041,0.071586 1.785853,-1.961462 4.280378,-2.591421c2.395311,-0.8304 5.385906,-0.272028 5.229998,0.314979c-0.04252,0.644276 -0.212602,1.632165 -0.552764,1.474676c-0.113387,-0.057269 -2.154362,-0.859034 -4.308725,-0.529738c-2.154362,0.171807 -4.407939,1.488993 -4.904009,2.23349c0.070867,-0.314979 0.155908,-0.601324 0.255122,-0.901986z" fill="#B44003"/>
   <path stroke="null" id="svg_191" d="m389.965313,140.221417c0.085041,0.071586 -1.785853,-1.961462 -4.280378,-2.591421c-2.395311,-0.8304 -5.385906,-0.272028 -5.229998,0.314979c0.04252,0.644276 0.212602,1.632165 0.552764,1.474676c0.113387,-0.057269 2.154362,-0.859034 4.308725,-0.529738c2.154362,0.171807 4.407939,1.488993 4.904009,2.23349c-0.070867,-0.314979 -0.155908,-0.601324 -0.255122,-0.901986z" fill="#B44003"/>
   <path stroke="null" id="svg_192" d="m396.088237,128.22357c-1.970108,-7.15862 -3.458318,-10.122289 -10.771811,-12.570537c-2.777993,-0.930621 -6.02371,-1.388772 -9.212733,-1.460359c-3.189023,0.071586 -6.448913,0.529738 -9.212733,1.460359c-7.313493,2.448248 -9.255254,3.207062 -10.545036,10.523172c-2.423658,13.830454 0.666151,21.776523 0.666151,21.776523s4.507153,-7.344744 8.971785,-18.655364c-0.099214,0.701545 2.026801,2.448248 2.423658,2.834814c2.565392,2.390979 5.669374,4.152 8.900918,5.454869c6.519781,2.620055 16.512053,1.374455 17.858529,10.365682c0.014173,0 4.889835,-5.297379 0.921273,-19.729157z" fill="#BD4A03"/>
   <path stroke="null" id="svg_193" d="m370.306757,119.747764c0,0 21.515276,-5.039669 27.864975,17.323861c0.014173,0 -4.12447,-16.350289 -27.864975,-17.323861z" fill="#B44003"/>
   <path stroke="null" id="svg_194" d="m374.927298,124.100205c0,0 15.13723,-1.875558 23.074354,14.560633c0.014173,0 -11.778125,-14.617902 -23.074354,-14.560633z" fill="#B44003"/>
   <path stroke="null" id="svg_195" d="m369.598086,114.67946c0,0 21.57197,-5.053986 27.935842,17.366813c0,0 -4.152817,-16.378923 -27.935842,-17.366813z" fill="#B44003"/>
   <path stroke="null" id="svg_196" d="m364.694077,120.821557c0,0 -12.756092,5.211476 -8.064685,18.913075c0,0.014317 -3.685093,-9.821627 8.064685,-18.913075z" fill="#B44003"/>
   <path stroke="null" id="svg_197" d="m363.872017,124.715846c0,0 -8.376501,4.524248 -6.604821,15.763282c0.014173,0.014317 0.836233,-11.697185 6.604821,-15.763282z" fill="#B44003"/>
   <path stroke="null" id="svg_198" d="m363.26256,117.986743c0,0 -12.784439,5.225793 -8.078859,18.956026c0,0 -3.699267,-9.835944 8.078859,-18.956026z" fill="#B44003"/>
   <path stroke="null" id="svg_199" d="m364.75077,112.990026c0,0 -0.014173,11.582647 1.091355,12.856882c0,0 -0.056694,-11.811723 -1.091355,-12.856882z" fill="#B44003"/>
   <path stroke="null" id="svg_200" fill="#6F2702" d="m369.952419,144.373414a2.055148,2.076 0 0 1 -2.055148,2.076a2.055148,2.076 0 0 1 -2.055148,-2.076a2.055148,2.076 0 0 1 2.055148,-2.076a2.055148,2.076 0 0 1 2.055148,2.076z"/>
   <path stroke="null" id="svg_201" fill="#FFFFFF" d="m368.464204,143.843682a0.977967,0.98789 0 0 1 -0.977967,0.987891a0.977967,0.98789 0 0 1 -0.977967,-0.987891a0.977967,0.98789 0 0 1 0.977967,-0.98789a0.977967,0.98789 0 0 1 0.977967,0.98789z"/>
   <path stroke="null" id="svg_202" fill="#6F2702" d="m386.025098,144.373414a2.055148,2.076 0 0 1 -2.055148,2.076a2.055148,2.076 0 0 1 -2.055148,-2.076a2.055148,2.076 0 0 1 2.055148,-2.076a2.055148,2.076 0 0 1 2.055148,2.076z"/>
   <path stroke="null" id="svg_203" fill="#FFFFFF" d="m384.536884,143.843682a0.977967,0.98789 0 0 1 -0.977967,0.987891a0.977967,0.98789 0 0 1 -0.977969,-0.987891a0.977967,0.98789 0 0 1 0.977969,-0.98789a0.977967,0.98789 0 0 1 0.977967,0.98789z"/>
   <path stroke="null" id="svg_204" d="m376.429682,144.373417l0,0c-0.850406,0 -1.544905,0.558372 -1.544905,1.2456l0,4.681738c0,0.687228 0.694498,1.2456 1.544905,1.2456l0,0c0.850406,0 1.544905,-0.558372 1.544905,-1.2456l0,-4.681738c0,-0.701545 -0.694498,-1.2456 -1.544905,-1.2456z" fill="#F5AC88"/>
   <path stroke="null" id="svg_205" d="m382.878595,154.137775l-13.563978,0c-0.9071,0 -1.587425,0.844717 -1.388997,1.746703c0.793712,3.822703 4.152817,6.686151 8.178073,6.686151s7.38436,-2.863448 8.178073,-6.686151c0.184255,-0.901986 -0.481897,-1.746703 -1.40317,-1.746703z" fill="#8F212C"/>
   <path stroke="null" id="svg_206" d="m376.103693,157.84594c-2.593739,0 -4.918182,0.615641 -6.505607,1.589214c1.530731,1.91851 3.869348,3.135476 6.505607,3.135476s4.974876,-1.216965 6.505607,-3.135476c-1.587425,-0.973572 -3.911868,-1.589214 -6.505607,-1.589214z" fill="#F7394B"/>
   <path stroke="null" id="svg_207" fill="#BC2B39" d="m367.840572,365.345705l-17.688438,0.243386l1.403174,-10.451585l14.612808,0l1.672456,10.2082z"/>
   <path stroke="null" id="svg_208" d="m359.13809,356.955802c-4.960703,0 -8.985958,4.066096 -8.985958,9.07713l17.98609,0c-0.014173,-5.011034 -4.039429,-9.07713 -9.000132,-9.07713z" fill="#F7394B"/>
   <path stroke="null" id="svg_209" fill="#F65A5D" d="m358.528639,361.122119a2.296097,2.319393 0 0 1 -2.296097,2.319393a2.296097,2.319393 0 0 1 -2.296097,-2.319393a2.296097,2.319393 0 0 1 2.296097,-2.319393a2.296097,2.319393 0 0 1 2.296097,2.319393z"/>
   <path stroke="null" id="svg_210" d="m350.137958,366.032933l0,1.603531c0,0.787448 0.878753,1.431724 1.955934,1.431724l14.074222,0c1.077181,0 1.955934,-0.644276 1.955934,-1.431724l0,-1.603531l-17.98609,0z" fill="#BC2B39"/>
   <path stroke="null" id="svg_211" fill="#BC2B39" d="m392.091336,365.345705l-17.688455,0.243386l1.417344,-10.451585l14.598639,0l1.672473,10.2082z"/>
   <path stroke="null" id="svg_212" d="m383.388839,356.955802c-4.960703,0 -8.985958,4.066096 -8.985958,9.07713l17.98609,0c-0.014173,-5.011034 -4.039429,-9.07713 -9.000132,-9.07713z" fill="#F7394B"/>
   <path stroke="null" id="svg_213" fill="#F65A5D" d="m382.779384,361.122119a2.296097,2.319393 0 0 1 -2.296097,2.319393a2.296097,2.319393 0 0 1 -2.296097,-2.319393a2.296097,2.319393 0 0 1 2.296097,-2.319393a2.296097,2.319393 0 0 1 2.296097,2.319393z"/>
   <path stroke="null" id="svg_214" d="m374.388707,366.032933l0,1.603531c0,0.787448 0.878753,1.431724 1.955934,1.431724l14.074222,0c1.077181,0 1.955934,-0.644276 1.955934,-1.431724l0,-1.603531l-17.98609,0z" fill="#BC2B39"/>
   <path stroke="null" id="svg_215" d="m278.009342,135.969197l-1.332303,-1.059476c0.651978,-0.844717 1.332303,-1.703752 1.998454,-2.534152l1.31813,1.08811c-0.666151,0.816083 -1.332303,1.6608 -1.984281,2.505517z" fill="#FFFFFF"/>
   <path stroke="null" id="svg_216" d="m311.78464,320.947943c-0.921273,-0.544055 -1.842547,-1.116745 -2.749647,-1.689434l0.9071,-1.460359c0.892926,0.558372 1.800026,1.131062 2.707126,1.6608l-0.86458,1.488993z" fill="#FFFFFF"/>
   <path stroke="null" id="svg_217" d="m125.421622,124.035533l0,-3.063889l0.354336,0l0,2.74891l1.332303,0l0,0.329297l-1.686639,0l0,-0.014317z" fill="#FFFFFF"/>
   <path stroke="null" id="svg_218" d="m129.531918,122.890153c0,0.372248 -0.099214,0.67291 -0.283469,0.873352s-0.439377,0.314979 -0.779539,0.314979c-0.198428,0 -0.382683,-0.042952 -0.538591,-0.143172s-0.283469,-0.229076 -0.368509,-0.4152s-0.127561,-0.386565 -0.127561,-0.629959c0,-0.372248 0.099214,-0.67291 0.283469,-0.873352s0.439377,-0.314979 0.765366,-0.314979c0.311816,0 0.566937,0.100221 0.765366,0.314979c0.198428,0.214759 0.283469,0.501103 0.283469,0.873352zm-1.729159,0c0,0.300662 0.056694,0.515421 0.170081,0.67291s0.283469,0.229076 0.510244,0.229076s0.396856,-0.071586 0.510244,-0.229076s0.170081,-0.372248 0.170081,-0.67291c0,-0.286345 -0.056694,-0.515421 -0.170081,-0.67291s-0.283469,-0.229076 -0.524417,-0.229076c-0.226775,0 -0.396856,0.071586 -0.510244,0.229076s-0.155908,0.372248 -0.155908,0.67291z" fill="#FFFFFF"/>
   <path stroke="null" id="svg_219" d="m131.176037,121.701822c0.099214,0 0.198428,0.014317 0.269295,0.028634l-0.04252,0.329297c-0.099214,-0.014317 -0.184255,-0.028634 -0.255122,-0.028634c-0.184255,0 -0.340162,0.071586 -0.467723,0.229076c-0.127561,0.15749 -0.198428,0.343614 -0.198428,0.558372l0,1.231283l-0.340162,0l0,-2.305076l0.283469,0l0.04252,0.429517l0.014173,0c0.085041,-0.143172 0.184255,-0.272028 0.311816,-0.343614s0.240948,-0.128855 0.382683,-0.128855z" fill="#FFFFFF"/>
   <path stroke="null" id="svg_220" d="m132.834329,124.078484c-0.340162,0 -0.595284,-0.100221 -0.793712,-0.314979s-0.297642,-0.501103 -0.297642,-0.859034c0,-0.372248 0.085041,-0.658593 0.269295,-0.887669c0.184255,-0.214759 0.425203,-0.329297 0.722845,-0.329297c0.283469,0 0.510244,0.100221 0.680325,0.286345s0.255122,0.443834 0.255122,0.744497l0,0.214759l-1.573251,0c0,0.272028 0.070867,0.472469 0.198428,0.615641c0.127561,0.143172 0.311816,0.214759 0.538591,0.214759c0.240948,0 0.481897,-0.057269 0.722845,-0.15749l0,0.314979c-0.127561,0.057269 -0.240948,0.085903 -0.340162,0.114538c-0.099214,0.028634 -0.226775,0.042952 -0.382683,0.042952zm-0.085041,-2.090317c-0.184255,0 -0.325989,0.057269 -0.439377,0.186124s-0.170081,0.286345 -0.198428,0.501103l1.190569,0c0,-0.214759 -0.04252,-0.386565 -0.141734,-0.501103s-0.240948,-0.186124 -0.41103,-0.186124z" fill="#FFFFFF"/>
   <path stroke="null" id="svg_221" d="m137.157227,124.035533l0,-1.488993c0,-0.186124 -0.04252,-0.314979 -0.113387,-0.4152s-0.198428,-0.143172 -0.354336,-0.143172c-0.212602,0 -0.368509,0.057269 -0.481897,0.186124s-0.155908,0.314979 -0.155908,0.57269l0,1.288552l-0.340162,0l0,-1.488993c0,-0.186124 -0.04252,-0.314979 -0.113387,-0.4152s-0.198428,-0.143172 -0.368509,-0.143172c-0.212602,0 -0.368509,0.071586 -0.467723,0.200441c-0.099214,0.128855 -0.155908,0.343614 -0.155908,0.644276l0,1.202648l-0.340162,0l0,-2.305076l0.283469,0l0.056694,0.314979l0.014173,0c0.070867,-0.114538 0.155908,-0.200441 0.269295,-0.25771c0.113387,-0.057269 0.255122,-0.100221 0.396856,-0.100221c0.354336,0 0.595284,0.128855 0.694498,0.386565l0.014173,0c0.070867,-0.114538 0.170081,-0.214759 0.297642,-0.286345s0.269295,-0.100221 0.439377,-0.100221c0.255122,0 0.45355,0.071586 0.581111,0.200441c0.127561,0.128855 0.198428,0.343614 0.198428,0.644276l0,1.50331l-0.354336,0z" fill="#FFFFFF"/>
   <path stroke="null" id="svg_222" d="m139.297416,121.114816c0,-0.085903 0.014173,-0.143172 0.056694,-0.171807s0.085041,-0.057269 0.141734,-0.057269c0.056694,0 0.099214,0.014317 0.141734,0.057269s0.056694,0.100221 0.056694,0.171807s-0.014173,0.143172 -0.056694,0.171807s-0.085041,0.057269 -0.141734,0.057269c-0.056694,0 -0.113387,-0.014317 -0.141734,-0.057269s-0.056694,-0.085903 -0.056694,-0.171807zm0.368509,2.920717l-0.340162,0l0,-2.305076l0.340162,0l0,2.305076z" fill="#FFFFFF"/>
   <path stroke="null" id="svg_223" d="m141.451778,124.078484c-0.141734,0 -0.283469,-0.028634 -0.41103,-0.085903c-0.127561,-0.057269 -0.226775,-0.143172 -0.311816,-0.25771l-0.028347,0c0.014173,0.128855 0.028347,0.25771 0.028347,0.386565l0,0.944938l-0.325989,0l0,-3.335917l0.283469,0l0.04252,0.314979l0.014173,0c0.085041,-0.128855 0.198428,-0.214759 0.311816,-0.272028s0.255122,-0.085903 0.41103,-0.085903c0.297642,0 0.538591,0.100221 0.694498,0.314979c0.170081,0.214759 0.240948,0.501103 0.240948,0.873352c0,0.372248 -0.085041,0.67291 -0.255122,0.873352c-0.155908,0.229076 -0.396856,0.329297 -0.694498,0.329297zm-0.04252,-2.076c-0.226775,0 -0.396856,0.071586 -0.510244,0.200441s-0.155908,0.343614 -0.155908,0.615641l0,0.071586c0,0.329297 0.056694,0.558372 0.155908,0.687228s0.283469,0.214759 0.510244,0.214759c0.198428,0 0.354336,-0.085903 0.467723,-0.243393c0.113387,-0.15749 0.170081,-0.386565 0.170081,-0.658593c0,-0.286345 -0.056694,-0.501103 -0.170081,-0.658593c-0.113387,-0.15749 -0.269295,-0.229076 -0.467723,-0.229076z" fill="#FFFFFF"/>
   <path stroke="null" id="svg_224" d="m144.47072,123.419891c0,0.214759 -0.085041,0.372248 -0.240948,0.501103s-0.382683,0.171807 -0.666151,0.171807c-0.297642,0 -0.538591,-0.042952 -0.708672,-0.143172l0,-0.329297c0.113387,0.057269 0.226775,0.100221 0.354336,0.128855c0.127561,0.028634 0.240948,0.042952 0.368509,0.042952c0.184255,0 0.311816,-0.028634 0.41103,-0.085903s0.141734,-0.143172 0.141734,-0.272028c0,-0.085903 -0.04252,-0.171807 -0.113387,-0.229076c-0.070867,-0.057269 -0.226775,-0.143172 -0.45355,-0.229076c-0.212602,-0.085903 -0.368509,-0.143172 -0.45355,-0.214759c-0.085041,-0.057269 -0.155908,-0.128855 -0.198428,-0.200441c-0.04252,-0.071586 -0.070867,-0.171807 -0.070867,-0.272028c0,-0.186124 0.070867,-0.329297 0.226775,-0.443834s0.354336,-0.15749 0.623631,-0.15749c0.240948,0 0.481897,0.057269 0.722845,0.15749l-0.127561,0.286345c-0.226775,-0.100221 -0.439377,-0.143172 -0.623631,-0.143172c-0.170081,0 -0.283469,0.028634 -0.368509,0.071586s-0.127561,0.128855 -0.127561,0.214759c0,0.057269 0.014173,0.114538 0.04252,0.15749c0.028347,0.042952 0.085041,0.085903 0.155908,0.128855s0.198428,0.100221 0.396856,0.171807c0.269295,0.100221 0.45355,0.200441 0.552764,0.300662c0.113387,0.100221 0.155908,0.229076 0.155908,0.386565z" fill="#FFFFFF"/>
   <path stroke="null" id="svg_225" d="m241.385183,117.285198l0,1.488993c0,0.186124 0.04252,0.329297 0.127561,0.4152s0.212602,0.143172 0.396856,0.143172c0.240948,0 0.41103,-0.071586 0.524417,-0.200441c0.113387,-0.128855 0.170081,-0.343614 0.170081,-0.644276l0,-1.202648l0.340162,0l0,2.305076l-0.283469,0l-0.056694,-0.314979l-0.014173,0c-0.070867,0.114538 -0.170081,0.200441 -0.297642,0.25771s-0.269295,0.085903 -0.425203,0.085903c-0.283469,0 -0.481897,-0.071586 -0.623631,-0.200441s-0.212602,-0.343614 -0.212602,-0.644276l0,-1.50331l0.354336,0l0,0.014317z" fill="#FFFFFF"/>
   <path stroke="null" id="svg_226" d="m246.558487,119.575957l0,-1.488993c0,-0.186124 -0.04252,-0.314979 -0.113387,-0.4152s-0.198428,-0.143172 -0.354336,-0.143172c-0.212602,0 -0.368509,0.057269 -0.481897,0.186124s-0.155908,0.314979 -0.155908,0.57269l0,1.288552l-0.340162,0l0,-1.488993c0,-0.186124 -0.04252,-0.314979 -0.113387,-0.4152s-0.198428,-0.143172 -0.368509,-0.143172c-0.212602,0 -0.368509,0.071586 -0.467723,0.200441c-0.099214,0.128855 -0.155908,0.343614 -0.155908,0.644276l0,1.202648l-0.340162,0l0,-2.305076l0.283469,0l0.056694,0.314979l0.014173,0c0.070867,-0.114538 0.155908,-0.200441 0.269295,-0.25771c0.113387,-0.057269 0.255122,-0.100221 0.396856,-0.100221c0.354336,0 0.595284,0.128855 0.694498,0.386565l0.014173,0c0.070867,-0.114538 0.170081,-0.214759 0.297642,-0.286345s0.269295,-0.100221 0.439377,-0.100221c0.255122,0 0.45355,0.071586 0.581111,0.200441c0.127561,0.128855 0.198428,0.343614 0.198428,0.644276l0,1.50331l-0.354336,0z" fill="#FFFFFF"/>
   <path stroke="null" id="svg_227" d="m250.271928,119.275295l-0.014173,0c-0.155908,0.229076 -0.396856,0.343614 -0.708672,0.343614c-0.297642,0 -0.524417,-0.100221 -0.694498,-0.314979c-0.170081,-0.200441 -0.255122,-0.501103 -0.255122,-0.873352s0.085041,-0.67291 0.255122,-0.887669s0.396856,-0.314979 0.694498,-0.314979c0.311816,0 0.538591,0.114538 0.708672,0.343614l0.028347,0l-0.014173,-0.171807l-0.014173,-0.15749l0,-0.930621l0.340162,0l0,3.264331l-0.283469,0l-0.04252,-0.300662zm-0.694498,0.057269c0.240948,0 0.41103,-0.071586 0.510244,-0.200441c0.099214,-0.128855 0.155908,-0.343614 0.155908,-0.629959l0,-0.057269c0,-0.329297 -0.056694,-0.558372 -0.155908,-0.701545s-0.283469,-0.214759 -0.510244,-0.214759c-0.198428,0 -0.354336,0.085903 -0.467723,0.243393c-0.113387,0.15749 -0.155908,0.386565 -0.155908,0.67291c0,0.300662 0.056694,0.515421 0.155908,0.658593s0.269295,0.229076 0.467723,0.229076z" fill="#FFFFFF"/>
   <path stroke="null" id="svg_228" d="m253.29087,118.430577c0,0.372248 -0.099214,0.67291 -0.283469,0.873352s-0.439377,0.314979 -0.779539,0.314979c-0.198428,0 -0.382683,-0.042952 -0.538591,-0.143172s-0.283469,-0.229076 -0.368509,-0.4152s-0.127561,-0.386565 -0.127561,-0.629959c0,-0.372248 0.099214,-0.67291 0.283469,-0.873352s0.439377,-0.314979 0.765366,-0.314979c0.311816,0 0.566937,0.100221 0.765366,0.314979c0.198428,0.214759 0.283469,0.501103 0.283469,0.873352zm-1.729159,0c0,0.300662 0.056694,0.515421 0.170081,0.67291s0.283469,0.229076 0.510244,0.229076s0.396856,-0.071586 0.510244,-0.229076s0.170081,-0.372248 0.170081,-0.67291c0,-0.286345 -0.056694,-0.515421 -0.170081,-0.67291s-0.283469,-0.229076 -0.524417,-0.229076c-0.226775,0 -0.396856,0.071586 -0.510244,0.229076s-0.155908,0.372248 -0.155908,0.67291z" fill="#FFFFFF"/>
   <path stroke="null" id="svg_229" d="m254.24049,119.575957l-0.340162,0l0,-3.264331l0.340162,0l0,3.264331z" fill="#FFFFFF"/>
   <path stroke="null" id="svg_230" d="m129.687826,129.232691c-0.325989,0 -0.581111,-0.100221 -0.765366,-0.300662c-0.184255,-0.200441 -0.269295,-0.501103 -0.269295,-0.873352c0,-0.386565 0.085041,-0.687228 0.269295,-0.887669s0.439377,-0.314979 0.779539,-0.314979c0.113387,0 0.212602,0.014317 0.325989,0.028634s0.198428,0.057269 0.255122,0.085903l-0.099214,0.300662c-0.070867,-0.028634 -0.155908,-0.057269 -0.255122,-0.071586s-0.170081,-0.028634 -0.240948,-0.028634c-0.467723,0 -0.694498,0.300662 -0.694498,0.887669c0,0.286345 0.056694,0.501103 0.170081,0.644276c0.113387,0.15749 0.283469,0.229076 0.49607,0.229076c0.184255,0 0.382683,-0.042952 0.581111,-0.128855l0,0.314979c-0.141734,0.085903 -0.325989,0.114538 -0.552764,0.114538z" fill="#FFFFFF"/>
   <path stroke="null" id="svg_231" d="m132.763462,128.04436c0,0.372248 -0.099214,0.67291 -0.283469,0.873352s-0.439377,0.314979 -0.779539,0.314979c-0.198428,0 -0.382683,-0.042952 -0.538591,-0.143172s-0.283469,-0.229076 -0.368509,-0.4152s-0.127561,-0.386565 -0.127561,-0.629959c0,-0.372248 0.099214,-0.67291 0.283469,-0.873352s0.439377,-0.314979 0.765366,-0.314979c0.311816,0 0.566937,0.100221 0.765366,0.314979c0.184255,0.214759 0.283469,0.501103 0.283469,0.873352zm-1.743333,0c0,0.300662 0.056694,0.515421 0.170081,0.67291s0.283469,0.229076 0.510244,0.229076s0.396856,-0.071586 0.510244,-0.229076s0.170081,-0.372248 0.170081,-0.67291c0,-0.286345 -0.056694,-0.515421 -0.170081,-0.67291s-0.283469,-0.229076 -0.524417,-0.229076c-0.226775,0 -0.396856,0.071586 -0.510244,0.229076s-0.155908,0.372248 -0.155908,0.67291z" fill="#FFFFFF"/>
   <path stroke="null" id="svg_232" d="m134.917824,129.189739l0,-1.488993c0,-0.186124 -0.04252,-0.329297 -0.127561,-0.4152s-0.212602,-0.143172 -0.396856,-0.143172c-0.240948,0 -0.41103,0.071586 -0.524417,0.200441s-0.170081,0.343614 -0.170081,0.644276l0,1.202648l-0.340162,0l0,-2.305076l0.283469,0l0.056694,0.314979l0.014173,0c0.070867,-0.114538 0.170081,-0.200441 0.297642,-0.25771s0.269295,-0.100221 0.425203,-0.100221c0.269295,0 0.481897,0.071586 0.623631,0.200441s0.212602,0.343614 0.212602,0.644276l0,1.50331l-0.354336,0z" fill="#FFFFFF"/>
   <path stroke="null" id="svg_233" d="m137.440695,128.574098c0,0.214759 -0.085041,0.372248 -0.240948,0.501103s-0.382683,0.171807 -0.666151,0.171807c-0.297642,0 -0.538591,-0.042952 -0.708672,-0.143172l0,-0.329297c0.113387,0.057269 0.226775,0.100221 0.354336,0.128855c0.127561,0.028634 0.240948,0.042952 0.368509,0.042952c0.184255,0 0.311816,-0.028634 0.41103,-0.085903s0.141734,-0.143172 0.141734,-0.272028c0,-0.085903 -0.04252,-0.171807 -0.113387,-0.229076c-0.070867,-0.057269 -0.226775,-0.143172 -0.45355,-0.229076c-0.212602,-0.085903 -0.368509,-0.143172 -0.45355,-0.214759c-0.085041,-0.057269 -0.155908,-0.128855 -0.198428,-0.200441c-0.04252,-0.071586 -0.070867,-0.171807 -0.070867,-0.272028c0,-0.186124 0.070867,-0.329297 0.226775,-0.443834s0.354336,-0.15749 0.623631,-0.15749c0.240948,0 0.481897,0.057269 0.722845,0.15749l-0.127561,0.286345c-0.226775,-0.100221 -0.439377,-0.143172 -0.623631,-0.143172c-0.170081,0 -0.283469,0.028634 -0.368509,0.071586s-0.127561,0.128855 -0.127561,0.214759c0,0.057269 0.014173,0.114538 0.04252,0.15749c0.028347,0.042952 0.085041,0.085903 0.155908,0.128855s0.198428,0.100221 0.396856,0.171807c0.269295,0.100221 0.45355,0.200441 0.552764,0.300662c0.113387,0.100221 0.155908,0.229076 0.155908,0.386565z" fill="#FFFFFF"/>
   <path stroke="null" id="svg_234" d="m138.957253,129.232691c-0.340162,0 -0.595284,-0.100221 -0.793712,-0.314979s-0.297642,-0.501103 -0.297642,-0.859034c0,-0.372248 0.085041,-0.658593 0.269295,-0.887669c0.184255,-0.214759 0.425203,-0.329297 0.722845,-0.329297c0.283469,0 0.510244,0.100221 0.680325,0.286345s0.255122,0.443834 0.255122,0.744497l0,0.214759l-1.573251,0c0,0.272028 0.070867,0.472469 0.198428,0.615641c0.127561,0.143172 0.311816,0.214759 0.538591,0.214759c0.240948,0 0.481897,-0.057269 0.722845,-0.15749l0,0.314979c-0.127561,0.057269 -0.240948,0.085903 -0.340162,0.114538c-0.085041,0.028634 -0.226775,0.042952 -0.382683,0.042952zm-0.085041,-2.090317c-0.184255,0 -0.325989,0.057269 -0.439377,0.186124s-0.170081,0.286345 -0.198428,0.501103l1.190569,0c0,-0.214759 -0.04252,-0.386565 -0.141734,-0.501103s-0.226775,-0.186124 -0.41103,-0.186124z" fill="#FFFFFF"/>
   <path stroke="null" id="svg_235" d="m141.29587,129.232691c-0.325989,0 -0.581111,-0.100221 -0.765366,-0.300662c-0.184255,-0.200441 -0.269295,-0.501103 -0.269295,-0.873352c0,-0.386565 0.085041,-0.687228 0.269295,-0.887669s0.439377,-0.314979 0.779539,-0.314979c0.113387,0 0.212602,0.014317 0.325989,0.028634s0.198428,0.057269 0.255122,0.085903l-0.099214,0.300662c-0.070867,-0.028634 -0.155908,-0.057269 -0.255122,-0.071586s-0.170081,-0.028634 -0.240948,-0.028634c-0.467723,0 -0.694498,0.300662 -0.694498,0.887669c0,0.286345 0.056694,0.501103 0.170081,0.644276c0.113387,0.15749 0.283469,0.229076 0.49607,0.229076c0.184255,0 0.382683,-0.042952 0.581111,-0.128855l0,0.314979c-0.127561,0.085903 -0.325989,0.114538 -0.552764,0.114538z" fill="#FFFFFF"/>
   <path stroke="null" id="svg_236" d="m143.15259,128.946346c0.056694,0 0.113387,0 0.170081,-0.014317s0.099214,-0.014317 0.141734,-0.028634l0,0.272028c-0.04252,0.014317 -0.099214,0.028634 -0.170081,0.042952c-0.070867,0.014317 -0.141734,0.014317 -0.198428,0.014317c-0.439377,0 -0.666151,-0.229076 -0.666151,-0.701545l0,-1.374455l-0.325989,0l0,-0.171807l0.325989,-0.143172l0.141734,-0.486786l0.198428,0l0,0.529738l0.666151,0l0,0.272028l-0.666151,0l0,1.345821c0,0.143172 0.028347,0.243393 0.099214,0.314979s0.170081,0.128855 0.283469,0.128855z" fill="#FFFFFF"/>
   <path stroke="null" id="svg_237" d="m144.881749,129.232691c-0.340162,0 -0.595284,-0.100221 -0.793712,-0.314979s-0.297642,-0.501103 -0.297642,-0.859034c0,-0.372248 0.085041,-0.658593 0.269295,-0.887669c0.184255,-0.214759 0.425203,-0.329297 0.722845,-0.329297c0.283469,0 0.510244,0.100221 0.680325,0.286345s0.255122,0.443834 0.255122,0.744497l0,0.214759l-1.573251,0c0,0.272028 0.070867,0.472469 0.198428,0.615641c0.127561,0.143172 0.311816,0.214759 0.538591,0.214759c0.240948,0 0.481897,-0.057269 0.722845,-0.15749l0,0.314979c-0.127561,0.057269 -0.240948,0.085903 -0.340162,0.114538c-0.099214,0.028634 -0.240948,0.042952 -0.382683,0.042952zm-0.099214,-2.090317c-0.184255,0 -0.325989,0.057269 -0.439377,0.186124s-0.170081,0.286345 -0.198428,0.501103l1.190569,0c0,-0.214759 -0.04252,-0.386565 -0.141734,-0.501103s-0.226775,-0.186124 -0.41103,-0.186124z" fill="#FFFFFF"/>
   <path stroke="null" id="svg_238" d="m243.057649,124.48677c0.056694,0 0.113387,0 0.170081,-0.014317s0.099214,-0.014317 0.141734,-0.028634l0,0.272028c-0.04252,0.014317 -0.099214,0.028634 -0.170081,0.042952c-0.070867,0.014317 -0.141734,0.014317 -0.198428,0.014317c-0.439377,0 -0.666151,-0.229076 -0.666151,-0.701545l0,-1.374455l-0.325989,0l0,-0.171807l0.325989,-0.143172l0.141734,-0.486786l0.198428,0l0,0.529738l0.666151,0l0,0.272028l-0.666151,0l0,1.345821c0,0.143172 0.028347,0.243393 0.099214,0.314979s0.170081,0.128855 0.283469,0.128855z" fill="#FFFFFF"/>
   <path stroke="null" id="svg_239" d="m244.149003,122.439405l0,1.488993c0,0.186124 0.04252,0.329297 0.127561,0.4152s0.212602,0.143172 0.396856,0.143172c0.240948,0 0.41103,-0.071586 0.524417,-0.200441c0.113387,-0.128855 0.170081,-0.343614 0.170081,-0.644276l0,-1.202648l0.340162,0l0,2.305076l-0.283469,0l-0.056694,-0.314979l-0.014173,0c-0.070867,0.114538 -0.170081,0.200441 -0.297642,0.25771s-0.269295,0.085903 -0.425203,0.085903c-0.283469,0 -0.481897,-0.071586 -0.623631,-0.200441s-0.212602,-0.343614 -0.212602,-0.644276l0,-1.50331l0.354336,0l0,0.014317z" fill="#FFFFFF"/>
   <path stroke="null" id="svg_240" d="m247.465587,122.396453c0.099214,0 0.198428,0.014317 0.269295,0.028634l-0.04252,0.329297c-0.099214,-0.014317 -0.184255,-0.028634 -0.255122,-0.028634c-0.184255,0 -0.340162,0.071586 -0.467723,0.229076c-0.127561,0.15749 -0.198428,0.343614 -0.198428,0.558372l0,1.231283l-0.340162,0l0,-2.305076l0.283469,0l0.04252,0.429517l0.014173,0c0.085041,-0.143172 0.184255,-0.272028 0.311816,-0.343614s0.240948,-0.128855 0.382683,-0.128855z" fill="#FFFFFF"/>
   <path stroke="null" id="svg_241" d="m250.668784,124.730163l-0.070867,-0.329297l-0.014173,0c-0.113387,0.143172 -0.226775,0.243393 -0.340162,0.286345s-0.255122,0.071586 -0.425203,0.071586c-0.226775,0 -0.396856,-0.057269 -0.524417,-0.171807c-0.127561,-0.114538 -0.198428,-0.286345 -0.198428,-0.501103c0,-0.458152 0.368509,-0.701545 1.105528,-0.730179l0.382683,-0.014317l0,-0.143172c0,-0.186124 -0.04252,-0.314979 -0.113387,-0.400883c-0.070867,-0.085903 -0.198428,-0.128855 -0.368509,-0.128855c-0.184255,0 -0.41103,0.057269 -0.637805,0.171807l-0.099214,-0.272028c0.113387,-0.057269 0.240948,-0.114538 0.368509,-0.143172c0.127561,-0.028634 0.269295,-0.057269 0.396856,-0.057269c0.269295,0 0.467723,0.057269 0.609458,0.186124c0.127561,0.114538 0.198428,0.314979 0.198428,0.587007l0,1.574896l-0.269295,0l0,0.014317zm-0.779539,-0.243393c0.212602,0 0.382683,-0.057269 0.510244,-0.171807c0.127561,-0.114538 0.184255,-0.286345 0.184255,-0.501103l0,-0.214759l-0.340162,0.014317c-0.269295,0.014317 -0.467723,0.057269 -0.595284,0.128855s-0.184255,0.200441 -0.184255,0.357931c0,0.128855 0.04252,0.214759 0.113387,0.286345c0.070867,0.071586 0.184255,0.100221 0.311816,0.100221z" fill="#FFFFFF"/>
   <path stroke="null" id="svg_242" d="m253.191656,124.429501l-0.014173,0c-0.155908,0.229076 -0.396856,0.343614 -0.708672,0.343614c-0.297642,0 -0.524417,-0.100221 -0.694498,-0.314979c-0.170081,-0.200441 -0.255122,-0.501103 -0.255122,-0.873352s0.085041,-0.67291 0.255122,-0.887669s0.396856,-0.314979 0.694498,-0.314979c0.311816,0 0.538591,0.114538 0.708672,0.343614l0.028347,0l-0.014173,-0.171807l-0.014173,-0.15749l0,-0.930621l0.340162,0l0,3.264331l-0.283469,0l-0.04252,-0.300662zm-0.694498,0.057269c0.240948,0 0.41103,-0.071586 0.510244,-0.200441c0.099214,-0.128855 0.155908,-0.343614 0.155908,-0.629959l0,-0.057269c0,-0.329297 -0.056694,-0.558372 -0.155908,-0.701545s-0.283469,-0.214759 -0.510244,-0.214759c-0.198428,0 -0.354336,0.085903 -0.467723,0.243393c-0.113387,0.15749 -0.155908,0.386565 -0.155908,0.67291c0,0.300662 0.056694,0.515421 0.155908,0.658593s0.255122,0.229076 0.467723,0.229076z" fill="#FFFFFF"/>
   <path stroke="null" id="svg_243" d="m254.212143,121.809446c0,-0.085903 0.014173,-0.143172 0.056694,-0.171807s0.085041,-0.057269 0.141734,-0.057269c0.056694,0 0.099214,0.014317 0.141734,0.057269s0.056694,0.100221 0.056694,0.171807s-0.014173,0.143172 -0.056694,0.171807s-0.085041,0.057269 -0.141734,0.057269c-0.056694,0 -0.113387,-0.014317 -0.141734,-0.057269s-0.056694,-0.085903 -0.056694,-0.171807zm0.368509,2.920717l-0.340162,0l0,-2.305076l0.340162,0l0,2.305076z" fill="#FFFFFF"/>
   <path stroke="null" id="svg_244" d="m121.325499,312.63654l0,-3.063889l0.354336,0l0,2.74891l1.332303,0l0,0.329297l-1.686639,0l0,-0.014317z" fill="#FFFFFF"/>
   <path stroke="null" id="svg_245" d="m431.380093,324.985405l-0.765366,-1.531945c0.935447,-0.472469 1.885067,-0.973572 2.80634,-1.474676l0.807886,1.517627c-0.94962,0.501103 -1.89924,1.002207 -2.848861,1.488993z" fill="#FFFFFF"/>
  </g>
 </g>
</svg>