<?xml version="1.0" encoding="utf-8"?>
<svg id="master-artboard" viewBox="0 0 1390.6878662109375 442.9945983886719" version="1.1" xmlns="http://www.w3.org/2000/svg" x="0px" y="0px" style="enable-background:new 0 0 1400 980;" width="1390.6878662109375px" height="442.9945983886719px"><rect id="ee-background" x="0" y="0" width="1390.6878662109375" height="442.9945983886719" style="fill: white; fill-opacity: 0; pointer-events: none;"/>


<g id="Layer_2" transform="matrix(1, 0, 0, 1, -5.8201446533203125, -1.5520386695861816)">
	<g>
		<path d="M 0 0 H 1400 V 980 H 0 V 0 Z" class="st0" style="fill: rgb(40, 127, 185);"/>
		<path d="M 0 458.5 H 1400 V 482 H 0 V 458.5 Z" class="st1" style="fill: rgb(34, 108, 157);"/>
		<path d="M 0 904.299988 H 1400 V 927.799988 H 0 V 904.299988 Z" class="st1" style="fill: rgb(34, 108, 157);"/>
		<g>
			<g>
				<g>
					<path class="st2" d="M473.5,386.6c-3.7-33.5-23.3-63.2-52.8-79.6c-32.3-17.9-66.1-28.5-66.1-28.5l-41.5,23.3l-41.5-23.3&#10;&#9;&#9;&#9;&#9;&#9;&#9;c0,0-33.8,10.6-66.1,28.5c-29.5,16.3-49.1,46.1-52.8,79.6l-8,72h168.4h168.4L473.5,386.6z" style="fill: rgb(38, 172, 176);"/>
					<path class="st3" d="M313.1,301.7l-41.5-23.3c0,0-3.2,1-8.7,2.9l50.2,86.6l50.2-86.6c-5.4-1.9-8.6-2.9-8.6-2.9L313.1,301.7z" style="fill: rgb(33, 153, 157);"/>
					<path d="M 346.6000061035156 231.89999389648438 L 313.1000061035156 231.89999389648438 L 279.5 231.89999389648438 L 271.5 278.5 L 313.1000061035156 350.1000061035156 L 354.6000061035156 278.5 Z" class="st4" style="fill: rgb(248, 221, 178);"/>
					<path class="st5" d="M346.6,231.9h-33.6h-33.6l-3,22.7c12,12.2,23,16.7,36.5,16.7c13.6,0,24.6-4.5,36.5-16.7L346.6,231.9z" style="fill: rgb(206, 184, 141);"/>
					<path class="st4" d="M393,155.3c-6.3-6-9.7-6.1-11.6-4.7c-0.1-1.4-0.2-2.1-0.2-2.1c0-62.7-68.1-55.5-68.1-55.5&#10;&#9;&#9;&#9;&#9;&#9;&#9;S245,85.8,245,148.5c0,0-0.1,0.7-0.2,2.1c-1.9-1.4-5.4-1.3-11.6,4.7c-8.3,7.9,8.6,30.2,6.1,35.7c-2.4,5.3,1.6,14.6,9.9,11.1&#10;&#9;&#9;&#9;&#9;&#9;&#9;c2.3,7.8,5.5,15.4,10.2,21.7c19.7,26.9,34,35.8,53.8,35.8s34-9,53.8-35.8c4.7-6.4,7.9-13.9,10.2-21.7&#10;&#9;&#9;&#9;&#9;&#9;&#9;c8.3,3.5,12.3-5.8,9.9-11.1C384.4,185.5,401.2,163.2,393,155.3z" style="fill: rgb(248, 221, 178);"/>
					<path class="st6" d="M313.1,53.6c0,0-94.3-26.7-74.3,97.4l15.1,33.2l-8.9-35.7l19.7-29.3v-9c0,0,30.5,8.4,48.4,8.4&#10;&#9;&#9;&#9;&#9;&#9;&#9;c17.9,0,48.4-8.4,48.4-8.4v9l19.7,29.3l-8.9,35.7l15.1-33.2C407.4,26.9,313.1,53.6,313.1,53.6z" style="fill: rgb(175, 125, 92);"/>
				</g>
				<path d="M 416.5 419.3999938964844 L 403.6000061035156 419.3999938964844 L 403.6000061035156 406.6000061035156 L 386.8999938964844 406.6000061035156 L 386.8999938964844 419.3999938964844 L 374.1000061035156 419.3999938964844 L 374.1000061035156 436.1000061035156 L 386.8999938964844 436.1000061035156 L 386.8999938964844 449 L 403.6000061035156 449 L 403.6000061035156 436.1000061035156 L 416.5 436.1000061035156 Z" class="st7" style="fill: rgb(214, 63, 43);"/>
			</g>
			<g>
				<path class="st8" d="M860.4,386.6c-3.7-33.5-23.3-63.2-52.8-79.6c-32.3-17.9-66.1-28.5-66.1-28.5L700,301.7l-41.5-23.3&#10;&#9;&#9;&#9;&#9;&#9;c0,0-33.8,10.6-66.1,28.5c-29.5,16.3-49.1,46.1-52.8,79.6l-8,72H700h168.4L860.4,386.6z" style="fill: rgb(209, 211, 212);"/>
				<path class="st9" d="M700,301.7l-41.5-23.3c0,0-3.2,1-8.7,2.9L700,449l50.2-167.6c-5.4-1.9-8.7-2.9-8.7-2.9L700,301.7z" style="fill: rgb(64, 137, 183);"/>
				<path d="M 733.5999755859375 231.89999389648438 L 700 231.89999389648438 L 666.4000244140625 231.89999389648438 L 658.5 278.5 L 700 350.1000061035156 L 741.5 278.5 Z" class="st10" style="fill: rgb(229, 192, 168);"/>
				<path class="st11" d="M733.6,231.9H700h-33.6l-5.4,31.7c12.9,10.1,24.5,14.9,39,14.9c14.5,0,26.1-4.8,39-14.9L733.6,231.9z" style="fill: rgb(206, 173, 152);"/>
				<path class="st10" d="M779.9,155.3c-6.3-6-9.7-6.1-11.6-4.7c-0.1-1.4-0.2-2.1-0.2-2.1C768.1,85.8,700,93,700,93&#10;&#9;&#9;&#9;&#9;&#9;s-68.1-7.2-68.1,55.5c0,0-0.1,0.7-0.2,2.1c-1.9-1.4-5.4-1.3-11.6,4.7c-8.3,7.9,8.6,30.2,6.1,35.7c-2.4,5.3,1.6,14.6,9.9,11.1&#10;&#9;&#9;&#9;&#9;&#9;c2.3,7.8,5.5,28.5,10.2,34.9c19.7,26.9,34,22.7,53.8,22.7c19.7,0,34,4.2,53.8-22.7c4.7-6.4,7.9-27,10.2-34.9&#10;&#9;&#9;&#9;&#9;&#9;c8.3,3.5,12.3-5.8,9.9-11.1C771.3,185.5,788.2,163.2,779.9,155.3z" style="fill: rgb(229, 192, 168);"/>
				<path class="st12" d="M631.7,150.6c0,0,66.9,24.8,91.6-33.5c0,0-6.8,30.2-23.3,42.6c0,0,21.5-11.2,29.6-39.4&#10;&#9;&#9;&#9;&#9;&#9;c0,0,25.5,30.6,38.7,30.3c0,0,5.1-42.9,0-62.6c-5.1-19.7-41.4-14.8-50.4-9.9c-9,4.9-21.5-16.1-53.3-14.3&#10;&#9;&#9;&#9;&#9;&#9;C632.8,65.7,583.6,100.8,631.7,150.6z" style="fill: rgb(111, 62, 28);"/>
				<path d="M 649.7999877929688 281.3999938964844 L 700 449 L 633.7000122070312 376.70001220703125 L 642.2999877929688 342.5 L 625.2999877929688 291 Z" class="st13" style="fill: rgb(188, 190, 192);"/>
				<path d="M 750.2000122070312 281.3999938964844 L 700 449 L 766.2999877929688 376.70001220703125 L 757.7000122070312 342.5 L 774.7000122070312 291 Z" class="st13" style="fill: rgb(188, 190, 192);"/>
				<path d="M 765.099976 432.899994 H 810.499977 V 441.299994 H 765.099976 V 432.899994 Z" class="st13" style="fill: rgb(188, 190, 192);"/>
			</g>
			<g>
				<path class="st14" d="M1244.4,386.6c-3.7-33.5-23.3-63.2-52.8-79.6c-32.3-17.9-66.1-28.5-66.1-28.5l-41.5,23.3l-41.5-23.3&#10;&#9;&#9;&#9;&#9;&#9;c0,0-33.8,10.6-66.1,28.5c-29.5,16.3-49.1,46.1-52.8,79.6l-8,72H1084h168.4L1244.4,386.6z" style="fill: rgb(242, 127, 174);"/>
				<path class="st15" d="M1084,301.7l-41.5-23.3c0,0-3.2,1-8.7,2.9l50.2,107.3l50.2-107.3c-5.4-1.9-8.7-2.9-8.7-2.9L1084,301.7z" style="fill: rgb(240, 96, 159);"/>
				<path d="M 1117.5999755859375 231.89999389648438 L 1084 231.89999389648438 L 1050.4000244140625 231.89999389648438 L 1042.5 278.5 L 1084 350.1000061035156 L 1125.5 278.5 Z" class="st4" style="fill: rgb(248, 221, 178);"/>
				<path class="st5" d="M1117.6,231.9H1084h-33.6l-3,22.7c12,12.2,23,16.7,36.5,16.7c13.6,0,24.6-4.5,36.5-16.7L1117.6,231.9z" style="fill: rgb(206, 184, 141);"/>
				<path class="st4" d="M1163.9,155.3c-6.3-6-9.7-6.1-11.6-4.7c-0.1-1.4-0.2-2.1-0.2-2.1c0-62.7-68.1-55.5-68.1-55.5&#10;&#9;&#9;&#9;&#9;&#9;s-68.1-7.2-68.1,55.5c0,0-0.1,0.7-0.2,2.1c-1.9-1.4-5.4-1.3-11.6,4.7c-8.3,7.9,8.6,30.2,6.1,35.7c-2.4,5.3,1.6,14.6,9.9,11.1&#10;&#9;&#9;&#9;&#9;&#9;c2.3,7.8,5.5,15.4,10.2,21.7c19.7,26.9,34,35.8,53.8,35.8c19.7,0,34-9,53.8-35.8c4.7-6.4,7.9-13.9,10.2-21.7&#10;&#9;&#9;&#9;&#9;&#9;c8.3,3.5,12.3-5.8,9.9-11.1C1155.3,185.5,1172.2,163.2,1163.9,155.3z" style="fill: rgb(248, 221, 178);"/>
				<path d="M 1158.400024 432.899994 H 1203.800026 V 441.299994 H 1158.400024 V 432.899994 Z" class="st15" style="fill: rgb(240, 96, 159);"/>
				<path d="M 970.299988 432.899994 H 1015.699989 V 441.299994 H 970.299988 V 432.899994 Z" class="st15" style="fill: rgb(240, 96, 159);"/>
				<path class="st14" d="M1124.7,47.7H1084h-40.7c-15.2,0-27.6,12.4-27.6,27.6v75.3c0,0,27.6-19.6,68.3-19.6s68.3,19.6,68.3,19.6&#10;&#9;&#9;&#9;&#9;&#9;V75.4C1152.3,60.1,1139.9,47.7,1124.7,47.7z" style="fill: rgb(242, 127, 174);"/>
				<g>
					<path class="st8" d="M1030.2,223.8c19.7,26.9,34,35.8,53.8,35.8v-74.4c-46.1,0-63.9,16.8-63.9,16.8&#10;&#9;&#9;&#9;&#9;&#9;&#9;C1022.3,209.9,1025.6,217.5,1030.2,223.8z" style="fill: rgb(209, 211, 212);"/>
					<path class="st8" d="M1084,185.3v74.4c19.7,0,34-9,53.8-35.8c4.7-6.4,7.9-13.9,10.2-21.7C1147.9,202.1,1130.1,185.3,1084,185.3&#10;&#9;&#9;&#9;&#9;&#9;&#9;z" style="fill: rgb(209, 211, 212);"/>
				</g>
				<g>
					<path class="st8" d="M1027.2,203.2c-0.2,0-0.4,0-0.5-0.1c-1.3-0.3-2.2-1.5-2.2-2.8c-0.2-4-8.4-45.9-12.3-50.9&#10;&#9;&#9;&#9;&#9;&#9;&#9;c-0.9-1.2-0.7-2.9,0.5-3.8c1.2-0.9,2.9-0.7,3.8,0.5c5,6.4,14,51.9,13.4,54.9C1029.6,202.3,1028.4,203.2,1027.2,203.2z" style="fill: rgb(209, 211, 212);"/>
				</g>
				<g>
					<path class="st8" d="M1141.5,203.2c-1.3,0-2.4-0.9-2.6-2.2c-0.6-3,8.4-48.5,13.4-54.9c0.9-1.2,2.6-1.4,3.8-0.5&#10;&#9;&#9;&#9;&#9;&#9;&#9;c1.2,0.9,1.4,2.6,0.5,3.8c-3.9,5-12.1,46.9-12.3,50.9c0.1,1.3-0.8,2.5-2.2,2.8C1141.9,203.2,1141.7,203.2,1141.5,203.2z" style="fill: rgb(209, 211, 212);"/>
				</g>
			</g>
			<g>
				<path class="st8" d="M473.5,835.5c-3.7-33.5-23.3-63.2-52.8-79.6c-32.3-17.9-66.1-28.5-66.1-28.5l-41.5,23.3l-41.5-23.3&#10;&#9;&#9;&#9;&#9;&#9;c0,0-33.8,10.6-66.1,28.5c-29.5,16.3-49.1,46.1-52.8,79.6l-8,72h168.4h168.4L473.5,835.5z" style="fill: rgb(209, 211, 212);"/>
				<path d="M 346.6000061035156 680.7999877929688 L 313.1000061035156 680.7999877929688 L 279.5 680.7999877929688 L 271.5 727.4000244140625 L 313.1000061035156 764.2999877929688 L 354.6000061035156 727.4000244140625 Z" class="st6" style="fill: rgb(175, 125, 92);"/>
				<path class="st16" d="M346.6,680.8h-33.6h-33.6l-5.4,31.7c12.9,10.1,24.5,14.9,39,14.9c14.5,0,26.1-4.8,39-14.9L346.6,680.8z" style="fill: rgb(165, 111, 74);"/>
				<path class="st6" d="M393,604.3c-6.3-6-9.7-6.1-11.6-4.7c-0.1-1.4-0.2-2.1-0.2-2.1c0-62.7-68.1-55.5-68.1-55.5&#10;&#9;&#9;&#9;&#9;&#9;s-68.1-7.2-68.1,55.5c0,0-0.1,0.7-0.2,2.1c-1.9-1.4-5.4-1.3-11.6,4.7c-8.3,7.9,8.6,30.2,6.1,35.7c-2.4,5.3,1.6,14.6,9.9,11.1&#10;&#9;&#9;&#9;&#9;&#9;c2.3,7.8,5.5,28.5,10.2,34.9c19.7,26.9,34,37.8,53.8,37.8s34-10.9,53.8-37.8c4.7-6.4,7.9-27,10.2-34.9&#10;&#9;&#9;&#9;&#9;&#9;c8.3,3.5,12.3-5.8,9.9-11.1C384.4,634.5,401.2,612.1,393,604.3z" style="fill: rgb(175, 125, 92);"/>
				<path class="st17" d="M353.7,512.8c-23.3-1.5-34.5-1.2-42-0.1c-7.5-1.1-18.7-1.4-42,0.1c-27.1,1.8-68.9,36.9-28,86.8&#10;&#9;&#9;&#9;&#9;&#9;c0,0,45.3,19.7,70-17.4c24.7,37.1,70,17.4,70,17.4C422.6,549.7,380.8,514.6,353.7,512.8z" style="fill: rgb(48, 58, 74);"/>
				<path class="st17" d="M259.3,590c-1.3,0-4.5,60.5-4.5,60.5l-5.7,0.5L239,596.1L259.3,590z" style="fill: rgb(48, 58, 74);"/>
				<path class="st17" d="M363.3,590c1.3,0,4.5,60.5,4.5,60.5l5.7,0.5l10.1-54.9L363.3,590z" style="fill: rgb(48, 58, 74);"/>
				<path d="M 313.1000061035156 764.2999877929688 L 288.8999938964844 789.4000244140625 L 249.10000610351562 735.5 L 265 726 L 271.5 726 L 271.5 727.4000244140625 Z" class="st13" style="fill: rgb(188, 190, 192);"/>
				<path d="M 313.1000061035156 764.2999877929688 L 337.20001220703125 789.4000244140625 L 377 735.5 L 361.1000061035156 726 L 354.6000061035156 726 L 354.6000061035156 727.4000244140625 Z" class="st13" style="fill: rgb(188, 190, 192);"/>
				<path d="M 313.1000061035156 764.2999877929688 L 296.3999938964844 781.5999755859375 L 313.1000061035156 798.9000244140625 L 329.79998779296875 781.5999755859375 Z" class="st18" style="fill: rgb(199, 46, 39);"/>
				<path d="M 292.5 907.5 L 313.1000061035156 907.5 L 333.6000061035156 907.5 L 313.1000061035156 772.0999755859375 Z" class="st18" style="fill: rgb(199, 46, 39);"/>
				<g>
					<path d="M 213.199997 881.799988 H 258.599998 V 890.199987 H 213.199997 V 881.799988 Z" class="st13" style="fill: rgb(188, 190, 192);"/>
					<path class="st19" d="M254.3,855.6h-36.7c-2.6,0-4.7-2.1-4.7-4.7l0,0c0-2.6,2.1-4.7,4.7-4.7h36.7c2.6,0,4.7,2.1,4.7,4.7l0,0&#10;&#9;&#9;&#9;&#9;&#9;&#9;C259,853.5,256.9,855.6,254.3,855.6z" style="fill: rgb(255, 255, 255);"/>
					<path class="st19" d="M239.3,870.6h-8.5v-28.2c0-2.3,1.9-4.2,4.2-4.2l0,0c2.3,0,4.2,1.9,4.2,4.2V870.6z" style="fill: rgb(255, 255, 255);"/>
					<path class="st19" d="M254.7,932.3h-37.5c-3.9,0-7.1-3.2-7.1-7.1v-52.5c0-3.9,3.2-7.1,7.1-7.1h37.5c3.9,0,7.1,3.2,7.1,7.1v52.5&#10;&#9;&#9;&#9;&#9;&#9;&#9;C261.8,929.1,258.6,932.3,254.7,932.3z" style="fill: rgb(255, 255, 255);"/>
					<path d="M 245.000006 850.900024 A 9.9 9.9 0 0 1 235.100006 860.800024 A 9.9 9.9 0 0 1 225.200006 850.900024 A 9.9 9.9 0 0 1 235.100006 841.000025 A 9.9 9.9 0 0 1 245.000006 850.900024 Z" class="st18" style="fill: rgb(199, 46, 39);"/>
					<path d="M 240.900006 850.900024 A 5.8 5.8 0 0 1 235.100006 856.700025 A 5.8 5.8 0 0 1 229.300006 850.900024 A 5.8 5.8 0 0 1 235.100006 845.100024 A 5.8 5.8 0 0 1 240.900006 850.900024 Z" class="st19" style="fill: rgb(255, 255, 255);"/>
					<path d="M 253.5 889.9000244140625 L 242.8000030517578 889.9000244140625 L 242.8000030517578 879.2000122070312 L 227.39999389648438 879.2000122070312 L 227.39999389648438 889.9000244140625 L 216.6999969482422 889.9000244140625 L 216.6999969482422 905.2999877929688 L 227.39999389648438 905.2999877929688 L 227.39999389648438 916 L 242.8000030517578 916 L 242.8000030517578 905.2999877929688 L 253.5 905.2999877929688 Z" class="st18" style="fill: rgb(199, 46, 39);"/>
				</g>
				<g>
					<g>
						<path d="M 264.5 632.700012 H 308 V 648.900013 H 264.5 V 632.700012 Z" class="st17" style="fill: rgb(48, 58, 74);"/>
						<path d="M 266 632.700012 H 306.299999 V 646.500012 H 266 V 632.700012 Z" class="st20" style="fill: rgb(74, 193, 240);"/>
					</g>
					<g>
						<path d="M 318.200012 632.700012 H 361.700012 V 648.900013 H 318.200012 V 632.700012 Z" class="st17" style="fill: rgb(48, 58, 74);"/>
						<path d="M 319.799988 632.700012 H 360.099987 V 646.500012 H 319.799988 V 632.700012 Z" class="st20" style="fill: rgb(74, 193, 240);"/>
					</g>
					<path d="M 306.299988 635.5 H 319.699987 V 639.6 H 306.299988 V 635.5 Z" class="st17" style="fill: rgb(48, 58, 74);"/>
				</g>
			</g>
			<g>
				<path class="st8" d="M1244.4,834.5c-3.7-33.5-23.3-63.2-52.8-79.6c-32.3-17.9-66.1-28.5-66.1-28.5l-41.5,23.3l-41.5-23.3&#10;&#9;&#9;&#9;&#9;&#9;c0,0-33.8,10.6-66.1,28.5c-29.5,16.3-49.1,46.1-52.8,79.6l-8,72H1084h168.4L1244.4,834.5z" style="fill: rgb(209, 211, 212);"/>
				<path class="st9" d="M1084,749.7l-41.5-23.3c0,0-3.2,1-8.7,2.9L1084,897l50.2-167.6c-5.4-1.9-8.7-2.9-8.7-2.9L1084,749.7z" style="fill: rgb(64, 137, 183);"/>
				<path d="M 1117.5999755859375 679.9000244140625 L 1084 679.9000244140625 L 1050.4000244140625 679.9000244140625 L 1042.5 726.4000244140625 L 1084 789.4000244140625 L 1125.5 726.4000244140625 Z" class="st21" style="fill: rgb(87, 32, 0);"/>
				<path class="st22" d="M1117.6,679.9H1084h-33.6l-4.8,28.1c12.5,18.3,22.1,24.7,38.4,24.7c16.2,0,25.9-6.4,38.4-24.7&#10;&#9;&#9;&#9;&#9;&#9;L1117.6,679.9z" style="fill: rgb(74, 22, 0);"/>
				<path d="M 1033.800048828125 729.4000244140625 L 1084 897 L 1017.7000122070312 824.7000122070312 L 1026.300048828125 790.5 L 1009.2999877929688 739 Z" class="st13" style="fill: rgb(188, 190, 192);"/>
				<path d="M 1134.199951171875 729.4000244140625 L 1084 897 L 1150.300048828125 824.7000122070312 L 1141.699951171875 790.5 L 1158.699951171875 739 Z" class="st13" style="fill: rgb(188, 190, 192);"/>
				<path d="M 1149.099976 880.799988 H 1194.499977 V 889.199987 H 1149.099976 V 880.799988 Z" class="st13" style="fill: rgb(188, 190, 192);"/>
				<path class="st21" d="M1163.9,603.3c-6.3-6-9.7-6.1-11.6-4.7c-0.1-1.4-0.2-2.1-0.2-2.1c0-62.7-68.1-55.5-68.1-55.5&#10;&#9;&#9;&#9;&#9;&#9;s-68.1-7.2-68.1,55.5c0,0-0.1,0.7-0.2,2.1c-1.9-1.4-5.4-1.3-11.6,4.7c-8.3,7.9,8.6,30.2,6.1,35.7c-2.4,5.3,1.6,14.6,9.9,11.1&#10;&#9;&#9;&#9;&#9;&#9;c2.3,7.8,13,28.5,17,34.9c17.2,26.9,27.2,35.7,46.9,35.7c19.7,0,29.7-8.9,46.9-35.7c4.1-6.4,14.8-27,17-34.9&#10;&#9;&#9;&#9;&#9;&#9;c8.3,3.5,12.3-5.8,9.9-11.1C1155.3,633.5,1172.2,611.2,1163.9,603.3z" style="fill: rgb(87, 32, 0);"/>
				<path d="M1158.7,549.2c-3.3-26.9-30.3-55-74.7-33.4c-44.4-21.5-71.5,6.6-74.7,33.4c-2.1,17.3,6.6,47.3,6.4,49.4&#10;&#9;&#9;&#9;&#9;&#9;c-0.2,2.1,10,9.2,20.7,7.4c10.8-1.8,31.6-37.6,31.6-37.6c-1.3,11.3-16,37.6-16,37.6c16.8-10.8,32-52,32-52s15.2,41.2,32,52&#10;&#9;&#9;&#9;&#9;&#9;c0,0-14.7-26.3-16-37.6c0,0,20.8,35.8,31.6,37.6c10.8,1.8,20.9-5.3,20.7-7.4C1152.1,596.5,1160.8,566.6,1158.7,549.2z"/>
				<path d="M 1090.5 808.200012 A 6.5 6.5 0 0 1 1084 814.700012 A 6.5 6.5 0 0 1 1077.5 808.200012 A 6.5 6.5 0 0 1 1084 801.700012 A 6.5 6.5 0 0 1 1090.5 808.200012 Z" class="st8" style="fill: rgb(209, 211, 212);"/>
				<path d="M 1090.5 844 A 6.5 6.5 0 0 1 1084 850.5 A 6.5 6.5 0 0 1 1077.5 844 A 6.5 6.5 0 0 1 1084 837.5 A 6.5 6.5 0 0 1 1090.5 844 Z" class="st8" style="fill: rgb(209, 211, 212);"/>
				<g>
					<path d="M 1007.4 824.5 A 13.9 13.9 0 0 1 993.5 838.4 A 13.9 13.9 0 0 1 979.6 824.5 A 13.9 13.9 0 0 1 993.5 810.6 A 13.9 13.9 0 0 1 1007.4 824.5 Z" class="st23" style="fill: rgb(241, 242, 242);"/>
					<path class="st17" d="M993.5,841.6c-9.4,0-17-7.6-17-17c0-9.4,7.6-17,17-17c9.4,0,17,7.6,17,17&#10;&#9;&#9;&#9;&#9;&#9;&#9;C1010.5,833.9,1002.9,841.6,993.5,841.6z M993.5,813.8c-5.9,0-10.8,4.8-10.8,10.8c0,5.9,4.8,10.8,10.8,10.8s10.8-4.8,10.8-10.8&#10;&#9;&#9;&#9;&#9;&#9;&#9;C1004.2,818.6,999.4,813.8,993.5,813.8z" style="fill: rgb(48, 58, 74);"/>
				</g>
				<g>
					<g>
						<path class="st17" d="M1204.2,845.3h-6.3v-45.2c0-6.9-5.6-12.4-12.4-12.4h-15.6c-6.9,0-12.4,5.6-12.4,12.4v45.2h-6.3v-45.2&#10;&#9;&#9;&#9;&#9;&#9;&#9;&#9;c0-10.3,8.4-18.7,18.7-18.7h15.6c10.3,0,18.7,8.4,18.7,18.7V845.3z" style="fill: rgb(48, 58, 74);"/>
					</g>
					<path class="st17" d="M1154.4,859L1154.4,859c-3.4,0-6.2-2.8-6.2-6.2v-4.6c0-3.4,2.8-6.2,6.2-6.2l0,0c3.4,0,6.2,2.8,6.2,6.2&#10;&#9;&#9;&#9;&#9;&#9;&#9;v4.6C1160.6,856.2,1157.8,859,1154.4,859z" style="fill: rgb(48, 58, 74);"/>
					<path class="st17" d="M1201.1,859L1201.1,859c-3.4,0-6.2-2.8-6.2-6.2v-4.6c0-3.4,2.8-6.2,6.2-6.2l0,0c3.4,0,6.2,2.8,6.2,6.2&#10;&#9;&#9;&#9;&#9;&#9;&#9;v4.6C1207.3,856.2,1204.5,859,1201.1,859z" style="fill: rgb(48, 58, 74);"/>
				</g>
				<path class="st17" d="M1043.7,719.3c-17.5,5.4-35.1,12-39.2,17.9c-11,16-22.7,42.6-16.5,78l6.2-1.1&#10;&#9;&#9;&#9;&#9;&#9;c-5.9-33.4,5.2-58.3,15.5-73.4c2.7-4,16.6-9.4,32.8-14.5L1043.7,719.3z" style="fill: rgb(48, 58, 74);"/>
				<path class="st17" d="M1163.2,737.2c-4-5.9-21.5-12.5-38.9-17.9l1.2,7c16.1,5.1,29.8,10.5,32.5,14.4&#10;&#9;&#9;&#9;&#9;&#9;c9.2,13.4,14.8,28.3,16.5,44.1l6.2-0.7C1178.9,767.3,1173,751.5,1163.2,737.2z" style="fill: rgb(48, 58, 74);"/>
			</g>
			<g>
				<path class="st2" d="M867,906.5l-5.7-70.7c-3.7-33.5-23.3-78.6-52.8-95c-32.3-17.9-66.1-28.5-66.1-28.5l-41.5,23.3l-41.5-23.3&#10;&#9;&#9;&#9;&#9;&#9;c0,0-33.8,10.6-66.1,28.5c-29.5,16.3-49.1,46.1-52.8,79.6l-7.4,86.1H867z" style="fill: rgb(38, 172, 176);"/>
				<path class="st3" d="M700.9,735.6l-41.5-23.3c0,0-3.2,1-8.7,2.9l50.2,86.6l50.2-86.6c-5.4-1.9-8.7-2.9-8.7-2.9L700.9,735.6z" style="fill: rgb(33, 153, 157);"/>
				<path d="M 734.4000244140625 681.0999755859375 L 700.9000244140625 681.0999755859375 L 667.2999877929688 681.0999755859375 L 659.2999877929688 712.2999877929688 L 700.9000244140625 784 L 742.4000244140625 712.2999877929688 Z" class="st24" style="fill: rgb(236, 193, 156);"/>
				<path class="st25" d="M700.9,712.3c14.6,0,27.4-1.7,40-6l-6.4-25.2h-33.6l0,0h-33.6l-6.4,25.2&#10;&#9;&#9;&#9;&#9;&#9;C673.5,710.6,686.2,712.3,700.9,712.3z" style="fill: rgb(223, 178, 139);"/>
				<path class="st24" d="M780.8,604.6c-6.3-6-9.7-6.1-11.6-4.7c-0.1-1.4-0.2-2.1-0.2-2.1c0-62.7-68.1-55.5-68.1-55.5&#10;&#9;&#9;&#9;&#9;&#9;s-68.1-7.2-68.1,55.5c0,0-0.1,0.7-0.2,2.1c-1.9-1.4-5.4-1.3-11.6,4.7c-8.3,7.9,8.6,30.2,6.1,35.7c-2.4,5.3,1.6,14.6,9.9,11.1&#10;&#9;&#9;&#9;&#9;&#9;c2.3,7.8,5.5,15.4,10.2,21.7c19.7,26.9,34,25.4,53.8,25.4c19.7,0,34,1.5,53.8-25.4c4.7-6.4,7.9-13.9,10.2-21.7&#10;&#9;&#9;&#9;&#9;&#9;c8.3,3.5,12.3-5.8,9.9-11.1C772.2,634.8,789,612.5,780.8,604.6z" style="fill: rgb(236, 193, 156);"/>
				<path d="M 804.2999877929688 853.2999877929688 L 791.4000244140625 853.2999877929688 L 791.4000244140625 840.4000244140625 L 774.7000122070312 840.4000244140625 L 774.7000122070312 853.2999877929688 L 761.9000244140625 853.2999877929688 L 761.9000244140625 870 L 774.7000122070312 870 L 774.7000122070312 882.7999877929688 L 791.4000244140625 882.7999877929688 L 791.4000244140625 870 L 804.2999877929688 870 Z" class="st7" style="fill: rgb(214, 63, 43);"/>
				<path class="st8" d="M627.1,594.9c2.8,3,13.9,8.8,17.9,3.6c5-6.4-4.4-13.6-3.5-19.6c3.8,0.2,7.4,1.2,11.4,0.6&#10;&#9;&#9;&#9;&#9;&#9;c-2.3-10.4,7.3-9.9,14.5-8.9c4.4,0.6,6.1,2.3,10.7,0.9c3.3-1,3.6-4.9,7.2-5.2c1.7-0.1,7.4,3.1,9.9,3.5c5.5,0.7,8.8-1.2,13.5-2.5&#10;&#9;&#9;&#9;&#9;&#9;c1.7-0.4,3.7-2.7,5.4-2.7c2.9-0.1,3,2.8,5.4,3.2c3.9,0.7,7.5,1.3,11.7,1.1c1.4-0.1,2.9-2.7,4.4-2.6c1.9,0.1,2.7,2.4,4.4,2.6&#10;&#9;&#9;&#9;&#9;&#9;c5.1,0.5,7.8,1.2,11.5,3.5c0.4,0.2,1,3.9,2,4.8c1.2,1.2,3.4,0.2,4.5,1.5c3,3.6,3.2,4.3,4.5,9c1.2,4.2,2,16.6,10.8,11.5&#10;&#9;&#9;&#9;&#9;&#9;c2.9-1.7,3.1-7.3,4.5-9.5c1.9-3.1,8-5.1,7.2-10.8c-0.6-4.7-4.2-6.2-8.9-7.5c1.5-8.1,3.6-21.8-8-22.4c0.7-7.2-9.9-24.9-18.1-18.1&#10;&#9;&#9;&#9;&#9;&#9;c-0.1-9.2-16.7-21.3-24.4-13.3c-5.4-3.8-10.9-8.8-17.5-10.6c-8.2-2.3-9.4,2.3-15.2,3.6c-6.1,1.4-40.9-12.2-38,6.1&#10;&#9;&#9;&#9;&#9;&#9;c-10.5-0.2-20.6,4.7-14.5,16.3c-6.9,2.3-27.4,19.7-9.8,21.6c-9.9,5.2-5.9,7.6,0.4,12.3c-2.8,1.3-6.7,3.2-8.1,6.3&#10;&#9;&#9;&#9;&#9;&#9;c1.7,0.4,3.2,2.2,4.5,2.7C615.8,580.7,621.3,588.8,627.1,594.9z" style="fill: rgb(209, 211, 212);"/>
				<path class="st8" d="M635.2,594.9c1.3,9.2,2.1,18.7,5.7,27.3c1.7,4.1,2.9,8.2,3.6,12.6c0.6,4.4,2.3,7.4,3.3,11.6&#10;&#9;&#9;&#9;&#9;&#9;c1.7,7,3.6,14,6.2,20.6c2,5.1,9.6,12.1,13.8,15.7c12.6,10.7,28.3,9.3,43.9,8.5c7.1-0.3,15-1.3,21.5-4.5&#10;&#9;&#9;&#9;&#9;&#9;c7.3-3.5,8.4-7.9,11.1-14.8c3-7.5,7.4-13.8,8.6-22c1.1-7.2,6-13.3,6.7-20.6c0.8-7.3-0.2-14.9,0.4-22.4c0.5-6.4,8.5-13.8,9.9-4&#10;&#9;&#9;&#9;&#9;&#9;c1,6.8,0.6,15.9-0.9,22.4c-1.8,7.8-4.8,14.7-4.5,22.9c0.2,6.6,4,16.2-0.1,22.4c-1.2,1.8-3.2,2-4.4,3.6c-1.1,1.5-1.2,4.4-2.1,6.3&#10;&#9;&#9;&#9;&#9;&#9;c-2.1,4.3-6.2,7.2-8.7,11.2c-4.7,7.5-16.6,9-24.1,13.4c-6.4,3.8-5.6,15.3-15.3,14.2c-4.3-0.5-8.9-1.2-13.3-1.7&#10;&#9;&#9;&#9;&#9;&#9;c-4.3-0.5-10.7-1-14.8-2.4c-8.1-2.6-14.7-8.6-20.5-14.3c-2.7-2.7-5.4-5.4-8.2-8.3c-3.4-3.6-9.2-5.4-11.6-9.5&#10;&#9;&#9;&#9;&#9;&#9;c-1.7-2.8-1.9-7.5-3.6-10.8c-2-3.8-3.8-7-4.5-11.6c-1.2-8.6,3.5-14.3-0.7-22.8c-1.9-3.9-4.1-6.9-5.6-10.9&#10;&#9;&#9;&#9;&#9;&#9;c-2.1-5.8-0.5-8.7,0.8-14.7c1.5-7-0.2-13.9,2.3-20.1C632.5,592.3,634.9,592.9,635.2,594.9z" style="fill: rgb(209, 211, 212);"/>
				<g>
					<g>
						<path d="M 690.700024 618.200012 A 16.799999 16.799999 0 0 1 673.900024 635.000011 A 16.799999 16.799999 0 0 1 657.100025 618.200012 A 16.799999 16.799999 0 0 1 673.900024 601.400013 A 16.799999 16.799999 0 0 1 690.700024 618.200012 Z" class="st20" style="fill: rgb(74, 193, 240);"/>
						<path class="st17" d="M673.9,637.7c-10.7,0-19.5-8.7-19.5-19.5s8.7-19.5,19.5-19.5s19.5,8.7,19.5,19.5&#10;&#9;&#9;&#9;&#9;&#9;&#9;&#9;S684.6,637.7,673.9,637.7z M673.9,604.1c-7.8,0-14.1,6.3-14.1,14.1c0,7.8,6.3,14.1,14.1,14.1c7.8,0,14.1-6.3,14.1-14.1&#10;&#9;&#9;&#9;&#9;&#9;&#9;&#9;C688,610.5,681.6,604.1,673.9,604.1z" style="fill: rgb(48, 58, 74);"/>
					</g>
					<g>
						<path d="M 744.599987 618.200012 A 16.799999 16.799999 0 0 1 727.799988 635.000011 A 16.799999 16.799999 0 0 1 710.999989 618.200012 A 16.799999 16.799999 0 0 1 727.799988 601.400013 A 16.799999 16.799999 0 0 1 744.599987 618.200012 Z" class="st20" style="fill: rgb(74, 193, 240);"/>
						<path class="st17" d="M727.8,637.7c-10.7,0-19.5-8.7-19.5-19.5s8.7-19.5,19.5-19.5s19.5,8.7,19.5,19.5&#10;&#9;&#9;&#9;&#9;&#9;&#9;&#9;S738.6,637.7,727.8,637.7z M727.8,604.1c-7.8,0-14.1,6.3-14.1,14.1c0,7.8,6.3,14.1,14.1,14.1S742,626,742,618.2&#10;&#9;&#9;&#9;&#9;&#9;&#9;&#9;C742,610.5,735.6,604.1,727.8,604.1z" style="fill: rgb(48, 58, 74);"/>
					</g>
				</g>
				<g>
					<path d="M 690.700012 615.5 H 711.100012 V 620.9 H 690.700012 V 615.5 Z" class="st17" style="fill: rgb(48, 58, 74);"/>
				</g>
			</g>
		</g>
	</g>
</g>
</svg>