<svg width="580" height="400" xmlns="http://www.w3.org/2000/svg">
 <!-- Created with Method Draw - http://github.com/duopixel/Method-Draw/ -->

 <g>
  <title>background</title>
  <rect fill="#fff" id="canvas_background" height="402" width="582" y="-1" x="-1"/>
  <g display="none" overflow="visible" y="0" x="0" height="100%" width="100%" id="canvasGrid">
   <rect fill="url(#gridpattern)" stroke-width="0" y="0" x="0" height="100%" width="100%"/>
  </g>
 </g>
 <g>
  <title>Layer 1</title>
  <g stroke="null" id="svg_141">
   <path stroke="null" id="svg_5" d="m456.322686,126.712808c0.012233,-0.384722 0.599405,-20.618703 0,-24.730421c-0.599405,-4.147786 -3.902251,-5.4342 -3.902251,-5.4342l0,30.164621l3.902251,0z" fill="#E9F7FE"/>
   <g stroke="null" id="svg_6" transform="matrix(0.12232760384919916,0,0,0.1202256719500124,-8115.06405371393,-5504.665229555439) ">
    <path stroke="null" id="svg_7" d="m70161.512473,46459.161468c0,0 -12.7,53.4 -10.2,86.5s9.3,63.6 9.3,63.6l112,0c0,0 3.4,-87.4 -8.5,-128.1c-11.9,-40.6 -73.8,-70.3 -102.6,-22z" fill="#211316"/>
    <g stroke="null" id="svg_8">
     <path stroke="null" id="svg_9" d="m70125.612473,46840.061468l0,-235.5c0,0 -23.2,10 -27.5,42.4c-4.2,32.1 -0.1,190.1 0,193.1l27.5,0z" fill="#E9F7FE"/>
     <path stroke="null" id="svg_10" d="m70327.912473,46840.061468c0.1,-3 4.2,-161 0,-193.1c-4.2,-32.4 -27.5,-42.4 -27.5,-42.4l0,235.5l27.5,0z" fill="#E9F7FE"/>
    </g>
    <path stroke="null" id="svg_11" fill="#E9F7FE" d="m70300.412483,46840.061478l0,-235.5l-49.40002,-15.80002l-75.29999,0l-50.09998,15.80002l0,235.5l174.79999,0z"/>
    <path stroke="null" id="svg_12" fill="#FFFFFF" d="m70175.712473,46588.761458l-9.40002,2.9l-17.79999,60.6l23.60003,5.60001l-21,18.79999l31.89997,150.29999l30,0l30,0l31.90002,-150.29999l-21,-18.79999l23.59998,-5.60001l-17.79999,-60.79998l-8.70001,-2.70002l-75.29999,0z"/>
    <g stroke="null" id="svg_13">
     <path stroke="null" id="svg_14" d="m70306.312473,46655.061468l-45.6,0c-2.9,0 -5.3,2.4 -5.3,5.3l0,26.9c0,2.9 2.4,5.3 5.3,5.3l45.6,0c2.9,0 5.3,-2.4 5.3,-5.3l0,-26.9c0,-2.9 -2.4,-5.3 -5.3,-5.3z" fill="#FFFFFF"/>
     <g stroke="null" id="svg_15">
      <path stroke="null" id="svg_16" fill="#A9ACBA" d="m70260.712473,46661.661458l16.2,0l0,22.4l-16.2,0l0,-22.4z"/>
      <path stroke="null" id="svg_17" fill="#A9ACBA" d="m70278.812453,46661.861468l27.6,0l0,2.5l-27.6,0l0,-2.5z"/>
      <path stroke="null" id="svg_18" fill="#A9ACBA" d="m70278.812453,46669.161458l27.6,0l0,2.5l-27.6,0l0,-2.5z"/>
      <path stroke="null" id="svg_19" fill="#A9ACBA" d="m70278.812453,46676.361468l27.6,0l0,2.5l-27.6,0l0,-2.5z"/>
     </g>
     <path stroke="null" id="svg_20" d="m70283.512473,46645.461468c-1.5,0 -2.6,1.2 -2.6,2.6l0,7.5c0,1.5 1.2,2.6 2.6,2.6s2.6,-1.2 2.6,-2.6l0,-7.5c0.1,-1.4 -1.1,-2.6 -2.6,-2.6z" fill="#A9ACBA"/>
    </g>
    <g stroke="null" id="svg_21">
     <g stroke="null" id="svg_22">
      <g stroke="null" id="svg_23">
       <path stroke="null" id="svg_24" d="m70285.012473,46676.561468l-6.3,0l0,-42.3c0,-30.2 -24.6,-54.7 -54.7,-54.7l-20.1,0c-30.2,0 -54.7,24.6 -54.7,54.7l0,73.1l-6.3,0l0,-73.1c0,-33.7 27.4,-61.1 61.1,-61.1l20.1,0c33.7,0 61.1,27.4 61.1,61.1l0,42.3l-0.2,0z" fill="#305675"/>
      </g>
     </g>
     <path stroke="null" id="svg_25" fill="#87939B" d="m70156.112473,46716.161458a10.4,10.4 0 0 1 -10.4,10.4a10.4,10.4 0 0 1 -10.4,-10.4a10.4,10.4 0 0 1 10.4,-10.4a10.4,10.4 0 0 1 10.4,10.4z"/>
     <path stroke="null" id="svg_26" fill="#305675" d="m70151.012473,46716.161458a5.3,5.3 0 0 1 -5.3,5.3a5.3,5.3 0 0 1 -5.3,-5.3a5.3,5.3 0 0 1 5.3,-5.3a5.3,5.3 0 0 1 5.3,5.3z"/>
     <g stroke="null" id="svg_27">
      <path stroke="null" id="svg_28" d="m70295.712473,46752.761468l-1.8,0l0,-6.3l1.8,0c2.3,0 4.5,-0.7 6.4,-2.1c3.7,-2.7 5.3,-7.2 4.2,-11.7l-11.2,-43.2c-1.3,-4.8 -5.6,-8.2 -10.6,-8.2l-5,0c-5,0 -9.4,3.4 -10.6,8.2l-11.2,43.2c-1.1,4.4 0.5,9 4.2,11.7c1.9,1.4 4.1,2.1 6.4,2.1l1.8,0l0,6.3l-1.8,0c-3.7,0 -7.2,-1.1 -10.1,-3.3c-5.8,-4.2 -8.4,-11.4 -6.6,-18.4l11.2,-43.2c2,-7.6 8.9,-13 16.8,-13l5,0c7.9,0 14.8,5.3 16.8,13l11.2,43.2c1.8,7 -0.8,14.2 -6.6,18.4c-3.1,2.1 -6.6,3.3 -10.3,3.3z" fill="#87939B"/>
     </g>
     <path stroke="null" id="svg_29" d="m70278.112473,46749.861468c0,3.2 -1.6,5.8 -3.5,5.8s-7.2,-2.6 -7.2,-5.8s5.3,-5.8 7.2,-5.8s3.5,2.6 3.5,5.8z" fill="#305675"/>
     <path stroke="null" id="svg_30" d="m70287.112473,46749.861468c0,3.2 1.6,5.8 3.5,5.8s7.2,-2.6 7.2,-5.8s-5.3,-5.8 -7.2,-5.8s-3.5,2.6 -3.5,5.8z" fill="#305675"/>
    </g>
    <path stroke="null" id="svg_31" fill="#F49B7F" d="m70180.112493,46560.361468l65.90001,0l0,85.7l-65.90001,0l0,-85.7z"/>
    <g stroke="null" id="svg_32">
     <path stroke="null" id="svg_33" d="m70273.512473,46499.761468c-4.5,-6.1 -9,-2.4 -11.5,0.8c-2.9,-18.2 -7.4,-35.4 -13.6,-38.7c-11.3,-6.1 -35.3,-6.1 -35.3,-6.1s-24.1,0 -35.3,6.1c-6.2,3.4 -10.7,20.6 -13.6,38.7c-2.5,-3.2 -7,-6.9 -11.5,-0.8c-5.9,7.9 2.7,23.8 8.4,27.4c-0.4,5.5 6.8,35.9 21.4,49.8c8.2,7.8 16.1,11.3 22,15.4c5.2,3.6 12.1,3.6 17.4,0c6,-4.1 14.6,-6.8 22,-15.4c14.5,-16.9 21.8,-44.3 21.4,-49.8c5.5,-3.6 14.1,-19.5 8.2,-27.4z" fill="#F9AB90"/>
    </g>
    <g stroke="null" id="svg_34">
     <g stroke="null" id="svg_35">
      <g stroke="null" id="svg_36">
       <g stroke="null" id="svg_37">
        <path stroke="null" id="svg_38" d="m70193.612473,46535.061468c-1.8,0 -3.2,-1.4 -3.2,-3.2l0,-4.1c0,-1.8 1.4,-3.2 3.2,-3.2c1.8,0 3.2,1.4 3.2,3.2l0,4.1c0,1.8 -1.5,3.2 -3.2,3.2z" fill="#381218"/>
       </g>
       <g stroke="null" id="svg_39">
        <path stroke="null" id="svg_40" d="m70232.112473,46535.061468c-1.8,0 -3.2,-1.4 -3.2,-3.2l0,-4.1c0,-1.8 1.4,-3.2 3.2,-3.2c1.8,0 3.2,1.4 3.2,3.2l0,4.1c0,1.8 -1.4,3.2 -3.2,3.2z" fill="#381218"/>
       </g>
      </g>
      <g stroke="null" id="svg_41">
       <path stroke="null" id="svg_42" d="m70177.612473,46517.461468c0,0 9.4,-9.8 19.3,-9.8l0.4,4.3c0,0 -7.1,0 -19.7,5.5z" fill="#381218"/>
       <path stroke="null" id="svg_43" d="m70248.012473,46517.461468c0,0 -9.4,-9.8 -19.3,-9.8l-0.4,4.3c0.1,0 7.2,0 19.7,5.5z" fill="#381218"/>
      </g>
      <path stroke="null" id="svg_44" d="m70202.612473,46565.561468l20.8,0c0,0 -9.5,8.9 -20.8,0z" fill="#EF4136"/>
     </g>
    </g>
    <path stroke="null" id="svg_45" d="m70213.012473,46627.861468c-12.3,0 -23.7,-2.5 -32.9,-6.8l0,219.1l65.9,0l0,-219.1c-9.3,4.3 -20.7,6.8 -33,6.8z" fill="#017E82"/>
    <path stroke="null" id="svg_46" fill="#305675" d="m70180.112493,46812.061478l65.90001,0l0,28l-65.90001,0l0,-28z"/>
    <path stroke="null" id="svg_47" d="m70190.412473,46461.561468c0,0 15.5,20 40.6,37.5c25.1,17.6 29.5,46 32.4,69.2c3,23.2 5.9,74.2 -17,92.6c0,0 36.3,-3.1 42.2,-48.9c4.5,-34.6 -0.9,-98.7 -6.8,-129.9c-5.9,-31.1 -16.2,-50.3 -45,-64.7c-28.8,-14.4 -53.9,10.4 -53.9,10.4s-18.4,-4.8 -31.7,22.4c-13.3,27.1 -17.6,120.8 -10.2,157.6s23.8,53.4 44.9,54c0,0 -19.9,-18.4 -19.9,-83s2.3,-86.7 9.6,-99.5c7.5,-12.9 14.8,-17.7 14.8,-17.7z" fill="#331C21"/>
    <path stroke="null" id="svg_48" d="m70238.912473,46505.561468c-9.7,0 -17.7,7.2 -19.1,16.5l-13,0c-1.3,-9.3 -9.4,-16.5 -19.1,-16.5c-10.6,0 -19.3,8.6 -19.3,19.3s8.6,19.3 19.3,19.3c10.4,0 18.8,-8.2 19.2,-18.5l12.7,0c0.4,10.3 8.8,18.5 19.2,18.5c10.6,0 19.3,-8.6 19.3,-19.3s-8.5,-19.3 -19.2,-19.3zm-51.1,36.2c-9.3,0 -16.9,-7.6 -16.9,-16.9s7.6,-16.9 16.9,-16.9c9.3,0 16.9,7.6 16.9,16.9s-7.6,16.9 -16.9,16.9zm51.1,0c-9.3,0 -16.9,-7.6 -16.9,-16.9s7.6,-16.9 16.9,-16.9s16.9,7.6 16.9,16.9s-7.5,16.9 -16.9,16.9z" fill="#FFFFFF"/>
   </g>
   <path stroke="null" id="svg_49" d="m427.698027,126.712808l0,-30.152599c0,0 -3.302845,1.286415 -3.902251,5.4342c-0.599405,4.111718 -0.012233,24.345699 0,24.730421l3.902251,0l0,-0.012023z" fill="#E9F7FE"/>
   <path stroke="null" id="svg_50" fill="#E9F7FE" d="m452.542763,126.712809l0,-30.152601l-7.021607,-2.031813l-10.691429,0l-7.131702,2.031813l0,30.152601l24.844738,0z"/>
   <path stroke="null" id="svg_51" fill="#FFFFFF" d="m434.829727,94.528396l-1.345604,0.384723l-2.519949,7.754556l3.351775,0.709331l-2.984792,2.404513l4.526118,19.26015l4.269236,0l4.256999,0l4.538358,-19.26015l-2.997026,-2.404513l3.364009,-0.709331l-2.532183,-7.778602l-1.235512,-0.360677l-10.691429,0z"/>
   <path stroke="null" id="svg_52" d="m452.371505,104.471059l-5.578139,0c-0.35475,0 -0.648336,0.288542 -0.648336,0.637196l0,3.234071c0,0.348654 0.293586,0.637196 0.648336,0.637196l5.578139,0c0.35475,0 0.648336,-0.288542 0.648336,-0.637196l0,-3.234071c0,-0.348654 -0.293586,-0.637196 -0.648336,-0.637196z" fill="#FFFFFF"/>
   <path stroke="null" id="svg_53" fill="#A9ACBA" d="m446.793366,105.264547l1.981707,0l0,2.693055l-1.981707,0l0,-2.693055z"/>
   <path stroke="null" id="svg_54" fill="#A9ACBA" d="m448.995263,105.288594l3.376242,0l0,0.300564l-3.376242,0l0,-0.300564z"/>
   <path stroke="null" id="svg_55" fill="#A9ACBA" d="m448.995263,106.16624l3.376242,0l0,0.300564l-3.376242,0l0,-0.300564z"/>
   <path stroke="null" id="svg_56" fill="#A9ACBA" d="m448.995263,107.031866l3.376242,0l0,0.300564l-3.376242,0l0,-0.300564z"/>
   <path stroke="null" id="svg_57" d="m449.582435,103.316893c-0.183491,0 -0.318052,0.144271 -0.318052,0.312587l0,0.901693c0,0.180339 0.146793,0.312587 0.318052,0.312587s0.318052,-0.144271 0.318052,-0.312587l0,-0.901693c0,-0.168316 -0.13456,-0.312587 -0.318052,-0.312587z" fill="#A9ACBA"/>
   <g stroke="null" id="svg_58" transform="matrix(0.12232760384919916,0,0,0.1202256719500124,-8115.06405371393,-5504.665229555439) ">
    <path stroke="null" id="svg_59" d="m70007.812473,46655.861468l-6.3,0l0,-42.3c0,-30.2 -24.6,-54.7 -54.7,-54.7l-20.1,0c-30.2,0 -54.7,24.6 -54.7,54.7l0,73.1l-6.3,0l0,-73.1c0,-33.7 27.4,-61.1 61.1,-61.1l20.1,0c33.7,0 61.1,27.4 61.1,61.1l0,42.3l-0.2,0z" fill="#305675"/>
   </g>
   <path stroke="null" id="svg_60" fill="#F49B7F" d="m435.441365,90.885558l9.358062,0l0,7.646353l-9.358062,0l0,-7.646353z"/>
   <path stroke="null" id="svg_61" d="m448.395857,83.611905c-0.562707,-0.781467 -1.211043,-0.312587 -1.578026,0.096181c-0.269121,-2.356423 -0.795129,-4.676779 -1.651423,-5.133636c-1.578026,-0.853602 -5.027665,-0.853602 -5.027665,-0.853602s-3.449638,0 -5.027665,0.853602c-0.868526,0.46888 -1.382302,2.777213 -1.651423,5.133636c-0.366983,-0.408767 -1.015319,-0.877647 -1.578026,-0.096181c-0.721733,0.997873 0.562707,2.957552 1.357836,3.402387c-0.012233,0.661241 -0.012233,1.623047 0.012233,2.019791c0.146793,2.115972 2.446552,3.173958 3.021492,3.678906c1.871612,1.647092 3.877785,1.695182 3.877785,1.695182s2.006173,-0.04809 3.877785,-1.695182c0.57494,-0.504948 2.874699,-1.707205 3.021492,-3.823176c0.024466,-0.384722 0.036698,-1.214279 0.012233,-1.87552c0.770664,-0.444835 2.055104,-2.404513 1.333371,-3.402387z" fill="#F9AB90"/>
   <path stroke="null" id="svg_62" d="m433.325097,85.475403c0,0 -0.770664,-3.294183 -0.685035,-4.905207c0.085629,-1.611024 0.513776,-2.62092 0.513776,-2.62092s-1.113181,-0.757422 -0.856293,-2.705078c0.256888,-1.947656 1.113181,-1.947656 1.113181,-1.947656s-0.342517,1.35855 1.198811,1.526866c1.553561,0.168316 2.324224,-0.168316 2.324224,-0.168316l-0.856293,-0.925738c0,0 1.113181,0.757422 3.009259,0.504948c1.896078,-0.252474 3.009259,-0.925738 4.819708,-0.252474s2.238595,1.947656 2.324224,2.20013c0.085629,0.252474 1.113181,1.009896 1.467931,2.452604c0.342517,1.442708 -1.198811,6.432073 -1.198811,6.432073s-0.856293,-2.284288 -1.296673,-3.546657c-0.428147,-1.274392 -0.513776,-1.947656 -0.513776,-1.947656s-0.513776,0.252474 -3.351776,0.252474s-6.20201,-0.673264 -6.20201,-0.673264s0.256888,0.757422 -0.342517,1.947656c-0.611638,1.154166 -1.467931,4.376214 -1.467931,4.376214z" fill="#7F1327"/>
   <path stroke="null" id="svg_63" fill="#7AB7B2" d="m435.441365,98.53191l9.358062,0l0,28.19292l-9.358062,0l0,-28.19292z"/>
   <path stroke="null" id="svg_64" d="m440.126511,98.531911c0,0 -3.559733,-0.925738 -4.69738,-4.063628l0,7.093315l4.69738,-3.029687z" fill="#8EC9C5"/>
   <path stroke="null" id="svg_65" d="m440.126511,98.531911c0,0 3.559733,-0.925738 4.69738,-4.063628l0,7.093315l-4.69738,-3.029687z" fill="#8EC9C5"/>
   <path stroke="null" id="svg_66" fill="#87939B" d="m433.055975,109.328177a1.272207,1.250347 0 0 1 -1.272207,1.250347a1.272207,1.250347 0 0 1 -1.272207,-1.250347a1.272207,1.250347 0 0 1 1.272207,-1.250347a1.272207,1.250347 0 0 1 1.272207,1.250347z"/>
   <path stroke="null" id="svg_67" fill="#305675" d="m432.432104,109.328177a0.648336,0.637196 0 0 1 -0.648336,0.637196a0.648336,0.637196 0 0 1 -0.648336,-0.637196a0.648336,0.637196 0 0 1 0.648336,-0.637196a0.648336,0.637196 0 0 1 0.648336,0.637196z"/>
   <path stroke="null" id="svg_68" d="m450.132909,113.716413l-0.22019,0l0,-0.757422l0.22019,0c0.281353,0 0.550474,-0.084158 0.782897,-0.252474c0.452612,-0.324609 0.648336,-0.865625 0.513776,-1.40664l-1.370069,-5.193749c-0.159026,-0.577083 -0.685035,-0.985851 -1.296673,-0.985851l-0.611638,0c-0.611638,0 -1.149879,0.408767 -1.296673,0.985851l-1.370069,5.193749c-0.13456,0.528993 0.061164,1.082031 0.513776,1.40664c0.232422,0.168316 0.501543,0.252474 0.782897,0.252474l0.22019,0l0,0.757422l-0.22019,0c-0.452612,0 -0.880759,-0.132248 -1.235509,-0.396745c-0.7095,-0.504948 -1.027552,-1.370573 -0.807362,-2.212152l1.370069,-5.193749c0.244655,-0.913715 1.088716,-1.562934 2.055104,-1.562934l0.611638,0c0.966388,0 1.810449,0.637196 2.055104,1.562934l1.370069,5.193749c0.22019,0.84158 -0.097862,1.707205 -0.807362,2.212152c-0.379216,0.264496 -0.807362,0.396745 -1.259974,0.396745z" fill="#87939B"/>
   <path stroke="null" id="svg_69" d="m447.979944,113.367759c0,0.384722 -0.195724,0.697309 -0.428147,0.697309c-0.232422,0 -0.880759,-0.312587 -0.880759,-0.697309s0.648336,-0.697309 0.880759,-0.697309c0.244655,0.012023 0.428147,0.312587 0.428147,0.697309z" fill="#305675"/>
   <path stroke="null" id="svg_70" d="m449.080892,113.367759c0,0.384722 0.195724,0.697309 0.428147,0.697309s0.880759,-0.312587 0.880759,-0.697309s-0.648336,-0.697309 -0.880759,-0.697309s-0.428147,0.312587 -0.428147,0.697309z" fill="#305675"/>
   <path stroke="null" id="svg_71" fill="#305675" d="m438.499556,126.712809l3.253912,0l-1.100948,-26.317402l0.697269,-0.973826l-1.223276,-0.889672l-1.223276,0.889672l0.685032,0.973826l-1.088712,26.317402z"/>
   <g stroke="null" id="svg_72" transform="matrix(0.12232760384919916,0,0,0.1202256719500124,-8115.06405371393,-5504.665229555439) ">
    <g stroke="null" id="svg_73">
     <g stroke="null" id="svg_74">
      <path stroke="null" id="svg_75" d="m69914.212473,46507.861468c-1.8,0 -3.3,-1.5 -3.3,-3.3l0,-4.3c0,-1.8 1.5,-3.3 3.3,-3.3c1.8,0 3.3,1.5 3.3,3.3l0,4.3c0,1.8 -1.5,3.3 -3.3,3.3z" fill="#381218"/>
     </g>
     <g stroke="null" id="svg_76">
      <path stroke="null" id="svg_77" d="m69954.412473,46507.861468c-1.8,0 -3.3,-1.5 -3.3,-3.3l0,-4.3c0,-1.8 1.5,-3.3 3.3,-3.3c1.8,0 3.3,1.5 3.3,3.3l0,4.3c0,1.8 -1.5,3.3 -3.3,3.3z" fill="#381218"/>
     </g>
    </g>
    <g stroke="null" id="svg_78">
     <path stroke="null" id="svg_79" d="m69897.612473,46489.561468c0,0 9.8,-10.3 20.1,-10.3l0.4,4.5c0,0 -7.4,0 -20.5,5.8z" fill="#381218"/>
     <path stroke="null" id="svg_80" d="m69971.012473,46489.561468c0,0 -9.8,-10.3 -20.1,-10.3l-0.4,4.5c0,0 7.4,0 20.5,5.8z" fill="#381218"/>
    </g>
    <path stroke="null" id="svg_81" d="m69919.612473,46538.361468l32.8,0c0,0 -14.9,27.6 -32.8,0z" fill="#EF4136"/>
   </g>
   <path stroke="null" id="svg_82" fill="#F49B7F" d="m400.064221,90.885558l9.358062,0l0,9.545918l-9.358062,0l0,-9.545918z"/>
   <path stroke="null" id="svg_83" d="m413.018714,83.611905c-0.562707,-0.781467 -1.211043,-0.312587 -1.578026,0.096181c-0.269121,-2.356423 -0.795129,-4.676779 -1.651423,-5.133636c-1.578026,-0.853602 -5.027665,-0.853602 -5.027665,-0.853602s-3.449638,0 -5.027665,0.853602c-0.868526,0.46888 -1.382302,2.777213 -1.651423,5.133636c-0.366983,-0.408767 -1.015319,-0.877647 -1.578026,-0.096181c-0.721733,0.997873 0.562707,2.957552 1.357836,3.402387c-0.012233,0.661241 0.513776,2.512717 0.660569,2.873394c0.770664,1.911588 1.798216,2.320355 2.373156,2.825303c1.871612,1.647092 3.877785,1.695182 3.877785,1.695182s2.006173,-0.04809 3.877785,-1.695182c0.57494,-0.504948 1.431233,-0.961805 2.373156,-2.825303c0.171259,-0.348654 0.672802,-2.212152 0.660569,-2.873394c0.770664,-0.444835 2.055104,-2.404513 1.333371,-3.402387z" fill="#F9AB90"/>
   <path stroke="null" id="svg_84" d="m398.400566,85.46338c0,0 0.183491,-2.488671 0.550474,-3.883289c0.366983,-1.394618 1.235509,-2.753168 1.749285,-2.753168s1.333371,1.033941 3.816621,1.214279c2.48325,0.180339 4.734078,-0.408767 5.015432,0.04809c0.281353,0.456858 0.464845,1.178212 1.015319,2.392491c0.550474,1.214279 0.868526,3.570702 0.868526,3.570702s0.648336,-4.243966 0.648336,-5.470268c0,-1.214279 -0.183491,-3.258116 -2.34869,-4.700824c-2.165199,-1.442708 -6.385501,-1.538889 -7.816734,-1.178212c-1.419,0.360677 -2.018405,1.586979 -2.018405,1.586979s-1.333371,0.276519 -1.883845,1.35855c-0.550474,1.082031 -0.648336,3.883289 -0.464845,4.96532c0.183491,1.094054 0.868526,2.849348 0.868526,2.849348z" fill="#763618"/>
   <path stroke="null" id="svg_85" d="m389.06697,126.712808c-0.061164,-2.344401 -0.550474,-20.618703 0,-24.441879c0.452612,-3.149913 2.544414,-4.592621 3.388475,-5.061501l0,29.50338l-3.388475,0z" fill="#F49B7F"/>
   <path stroke="null" id="svg_86" d="m417.043293,126.712808l0,-29.491357c0.84406,0.456858 2.935862,1.911588 3.388475,5.061501c0.550474,3.823176 0.073397,22.097479 0,24.441879l-3.388475,0l0,-0.012023z" fill="#F49B7F"/>
   <path stroke="null" id="svg_87" d="m421.336991,109.893237c0,-3.51059 -0.073397,-6.564322 -0.269121,-7.898827c-0.587172,-4.063628 -3.76769,-5.374088 -3.902251,-5.4342l0,0l-7.033837,-2.031814l-5.443578,4.941275l-5.235621,-4.941275l-7.119467,2.031814l0,0c0,0 -3.302845,1.286415 -3.902251,5.4342c-0.195724,1.334505 -0.269121,4.388237 -0.269121,7.898827l4.171371,0l0,16.831594l24.844736,0l0,-16.831594l4.159139,0z" fill="#017E82"/>
   <path stroke="null" id="svg_88" fill="#026868" d="m398.131445,94.901097l6.520061,6.299824l6.91151,-6.263759l-1.419001,-0.408766l-5.443578,4.941276l-5.247853,-4.941276l-1.321138,0.372701z"/>
   <path stroke="null" id="svg_89" d="m414.621206,104.471059l-5.578139,0c-0.35475,0 -0.648336,0.288542 -0.648336,0.637196l0,3.234071c0,0.348654 0.293586,0.637196 0.648336,0.637196l5.578139,0c0.35475,0 0.648336,-0.288542 0.648336,-0.637196l0,-3.234071c0,-0.348654 -0.293586,-0.637196 -0.648336,-0.637196z" fill="#FFFFFF"/>
   <path stroke="null" id="svg_90" fill="#A9ACBA" d="m409.043066,105.264547l1.981707,0l0,2.693055l-1.981707,0l0,-2.693055z"/>
   <path stroke="null" id="svg_91" fill="#A9ACBA" d="m411.244963,105.288594l3.376242,0l0,0.300564l-3.376242,0l0,-0.300564z"/>
   <path stroke="null" id="svg_92" fill="#A9ACBA" d="m411.244963,106.16624l3.376242,0l0,0.300564l-3.376242,0l0,-0.300564z"/>
   <path stroke="null" id="svg_93" fill="#A9ACBA" d="m411.244963,107.031866l3.376242,0l0,0.300564l-3.376242,0l0,-0.300564z"/>
   <path stroke="null" id="svg_94" d="m411.832137,103.316893c-0.183491,0 -0.318052,0.144271 -0.318052,0.312587l0,0.901693c0,0.180339 0.146793,0.312587 0.318052,0.312587c0.183491,0 0.318052,-0.144271 0.318052,-0.312587l0,-0.901693c0,-0.168316 -0.13456,-0.312587 -0.318052,-0.312587z" fill="#A9ACBA"/>
   <g stroke="null" id="svg_95" transform="matrix(0.12232760384919916,0,0,0.1202256719500124,-8115.06405371393,-5504.665229555439) ">
    <g stroke="null" id="svg_96">
     <g stroke="null" id="svg_97">
      <path stroke="null" id="svg_98" d="m69627.412473,46507.861468c-1.8,0 -3.3,-1.5 -3.3,-3.3l0,-4.3c0,-1.8 1.5,-3.3 3.3,-3.3c1.8,0 3.3,1.5 3.3,3.3l0,4.3c0,1.8 -1.5,3.3 -3.3,3.3z" fill="#381218"/>
     </g>
     <g stroke="null" id="svg_99">
      <path stroke="null" id="svg_100" d="m69667.612473,46507.861468c-1.8,0 -3.3,-1.5 -3.3,-3.3l0,-4.3c0,-1.8 1.5,-3.3 3.3,-3.3c1.8,0 3.3,1.5 3.3,3.3l0,4.3c0,1.8 -1.5,3.3 -3.3,3.3z" fill="#381218"/>
     </g>
    </g>
    <g stroke="null" id="svg_101">
     <path stroke="null" id="svg_102" d="m69610.812473,46489.561468c0,0 9.8,-10.3 20.1,-10.3l0.4,4.5c0,0 -7.4,0 -20.5,5.8z" fill="#381218"/>
     <path stroke="null" id="svg_103" d="m69684.212473,46489.561468c0,0 -9.8,-10.3 -20.1,-10.3l-0.4,4.5c0,0 7.4,0 20.5,5.8z" fill="#381218"/>
    </g>
   </g>
   <path stroke="null" id="svg_104" d="m402.425144,89.346669l4.538354,0c0,0 -0.22019,1.971701 -2.34869,1.971701c-2.1285,-0.012023 -2.189664,-1.971701 -2.189664,-1.971701z" fill="#EF4136"/>
   <g stroke="null" id="svg_105" transform="matrix(0.12232760384919916,0,0,0.1202256719500124,-8115.06405371393,-5504.665229555439) ">
    <path stroke="null" id="svg_106" d="m70395.512473,46838.861468l0,-235.6c0,0 -23.2,10 -27.5,42.4c-4.2,32.1 -0.1,190.1 0,193.1l27.5,0l0,0.1z" fill="#F49B7F"/>
    <path stroke="null" id="svg_107" d="m70591.512473,46838.861468c0.1,-3 4.2,-161 0,-193.1c-4.2,-32.4 -27.5,-42.4 -27.5,-42.4l0,235.5l27.5,0z" fill="#F49B7F"/>
   </g>
   <path stroke="null" id="svg_108" fill="#F49B7F" d="m502.52582,92.929394l8.061389,0l0,10.303339l-8.061389,0l0,-10.303339z"/>
   <path stroke="null" id="svg_109" d="m520.618075,103.35296c-0.513776,-3.859244 -3.302845,-5.073523 -3.364009,-5.097568l0,0l-6.055216,-1.911588l-4.783009,5.277907l-4.428259,-5.277907l-6.128613,1.911588l0,0c-0.061164,0.024045 -2.850233,1.250347 -3.364009,5.097568c-0.183491,1.394618 -0.232422,4.748914 -0.232422,8.487932l3.584199,0l0,14.727645l21.407331,0l0,-14.739667l3.584199,0c0.012233,-3.739018 -0.036698,-7.093315 -0.22019,-8.47591z" fill="#017E82"/>
   <path stroke="null" id="svg_110" d="m515.419152,104.326788l-5.578139,0c-0.35475,0 -0.648336,0.288542 -0.648336,0.637196l0,3.234071c0,0.348654 0.293586,0.637196 0.648336,0.637196l5.578139,0c0.35475,0 0.648336,-0.288542 0.648336,-0.637196l0,-3.234071c-0.012233,-0.360677 -0.293586,-0.637196 -0.648336,-0.637196z" fill="#FFFFFF"/>
   <path stroke="null" id="svg_111" fill="#A9ACBA" d="m509.828786,105.120279l1.981707,0l0,2.693055l-1.981707,0l0,-2.693055z"/>
   <path stroke="null" id="svg_112" fill="#A9ACBA" d="m512.042912,105.144322l3.376243,0l0,0.300564l-3.376243,0l0,-0.300564z"/>
   <path stroke="null" id="svg_113" fill="#A9ACBA" d="m512.042912,106.009948l3.376243,0l0,0.300564l-3.376243,0l0,-0.300564z"/>
   <path stroke="null" id="svg_114" fill="#A9ACBA" d="m512.042912,106.875574l3.376243,0l0,0.300564l-3.376243,0l0,-0.300564z"/>
   <path stroke="null" id="svg_115" d="m512.630082,103.160599c-0.183491,0 -0.318052,0.144271 -0.318052,0.312587l0,0.901693c0,0.180339 0.146793,0.312587 0.318052,0.312587s0.318052,-0.144271 0.318052,-0.312587l0,-0.88967c0,-0.180339 -0.146793,-0.324609 -0.318052,-0.324609z" fill="#A9ACBA"/>
   <path stroke="null" id="svg_116" fill="#026868" d="m506.34245,103.220711l5.981808,-6.504206l-1.186572,-0.3727l-4.783007,5.277906l-4.428268,-5.277906l-1.125408,0.348653l5.541447,6.528253z"/>
   <path stroke="null" id="svg_117" d="m504.275107,105.685338l-11.535493,0c-0.807362,0 -1.467931,0.649219 -1.467931,1.442708l0,18.154076c0,0.793489 0.660569,1.442708 1.467931,1.442708l11.535493,0c0.807362,0 1.467931,-0.649219 1.467931,-1.442708l0,-18.154076c0,-0.805512 -0.660569,-1.442708 -1.467931,-1.442708z" fill="#913A1F"/>
   <path stroke="null" id="svg_118" d="m490.806838,114.702264l1.810449,-0.649219c0.379216,-0.132248 0.770664,0.132248 0.770664,0.528993l0,0c0,0.228429 -0.13456,0.432812 -0.342517,0.51697l-1.822681,0.781467c-0.391448,0.168316 -0.831828,-0.132248 -0.807362,-0.553038l0.012233,-0.132248c0.012233,-0.216406 0.159026,-0.42079 0.379216,-0.492925z" fill="#F49B7F"/>
   <path stroke="null" id="svg_119" d="m490.806838,116.120927l2.1285,-0.757422c0.379216,-0.132248 0.770664,0.132248 0.770664,0.528993l0,0c0,0.228429 -0.13456,0.432812 -0.342517,0.51697l-2.1285,0.88967c-0.391448,0.168316 -0.831828,-0.132248 -0.807362,-0.553038l0.012233,-0.132248c0,-0.216406 0.146793,-0.408767 0.366983,-0.492925z" fill="#F49B7F"/>
   <path stroke="null" id="svg_120" d="m490.806838,117.53959l2.1285,-0.757422c0.379216,-0.132248 0.770664,0.132248 0.770664,0.528993l0,0c0,0.228429 -0.13456,0.432812 -0.342517,0.51697l-2.1285,0.88967c-0.391448,0.168316 -0.831828,-0.132248 -0.807362,-0.553038l0.012233,-0.132248c0,-0.228429 0.146793,-0.42079 0.366983,-0.492925z" fill="#F49B7F"/>
   <path stroke="null" id="svg_121" d="m490.880234,118.922185l1.578026,-0.565061c0.330285,-0.120226 0.672802,0.120226 0.672802,0.46888l0,0c0,0.192361 -0.122328,0.3727 -0.305819,0.456858l-1.590259,0.685286c-0.342517,0.144271 -0.721733,-0.108203 -0.7095,-0.480903l0.012233,-0.120226c0.024466,-0.204384 0.146793,-0.3727 0.342517,-0.444835z" fill="#F49B7F"/>
   <g stroke="null" id="svg_122" transform="matrix(0.12232760384919916,0,0,0.1202256719500124,-8115.06405371393,-5504.665229555439) ">
    <path stroke="null" id="svg_123" d="m70540.312473,46498.561468c-4.5,-6.1 -9,-2.4 -11.5,0.8c-2.9,-18.2 -7.4,-35.4 -13.6,-38.7c-11.3,-6.1 -35.3,-6.1 -35.3,-6.1s-24.1,0 -35.3,6.1c-6.2,3.4 -10.7,20.6 -13.6,38.7c-2.5,-3.2 -7,-6.9 -11.5,-0.8c-5.9,7.9 2.7,23.8 8.4,27.4c-0.4,5.5 6.8,35.9 21.4,49.8c8.2,7.8 16.1,11.3 22,15.4c5.2,3.6 12.1,3.6 17.4,0c6,-4.1 14.6,-6.8 22,-15.4c14.5,-16.9 21.8,-44.3 21.4,-49.8c5.4,-3.6 14,-19.5 8.2,-27.4z" fill="#F9AB90"/>
   </g>
   <g stroke="null" id="svg_124" transform="matrix(0.12232760384919916,0,0,0.1202256719500124,-8115.06405371393,-5504.665229555439) ">
    <g stroke="null" id="svg_125">
     <g stroke="null" id="svg_126">
      <path stroke="null" id="svg_127" d="m70461.812473,46523.861468c-1.6,0 -3,-1.3 -3,-3l0,-3.8c0,-1.6 1.3,-3 3,-3c1.6,0 3,1.3 3,3l0,3.8c0,1.7 -1.4,3 -3,3z" fill="#381218"/>
     </g>
     <g stroke="null" id="svg_128">
      <path stroke="null" id="svg_129" d="m70497.712473,46523.861468c-1.6,0 -3,-1.3 -3,-3l0,-3.8c0,-1.6 1.3,-3 3,-3c1.6,0 3,1.3 3,3l0,3.8c0,1.7 -1.3,3 -3,3z" fill="#381218"/>
     </g>
    </g>
    <g stroke="null" id="svg_130">
     <path stroke="null" id="svg_131" d="m70446.912473,46510.561468c0,0 8.8,-9.2 18,-9.2l0.4,4c0,0.1 -6.6,0.1 -18.4,5.2z" fill="#381218"/>
     <path stroke="null" id="svg_132" d="m70512.612473,46510.561468c0,0 -8.8,-9.2 -18,-9.2l-0.4,4c0,0.1 6.6,0.1 18.4,5.2z" fill="#381218"/>
    </g>
   </g>
   <path stroke="null" id="svg_133" d="m501.486038,93.145801c0,0 4.648449,3.342274 10.067562,0.012023c0,0 0.35475,0.096181 -0.391448,0.565061c-0.733966,0.46888 -4.110207,2.536762 -9.223501,0.084158c-0.159026,-0.072135 -0.293586,-0.168316 -0.403681,-0.300564c-0.110095,-0.120226 -0.183491,-0.276519 -0.048931,-0.360677z" fill="#017E82"/>
   <path stroke="null" id="svg_134" d="m501.192451,90.128136c0.269121,1.166189 0.941923,3.714973 1.945009,4.724869c0.073397,0.072135 0.159026,0.108203 0.244655,0.132248c0.721733,0.108203 4.159139,0.565061 6.740251,0.024045c0.13456,-0.024045 0.244655,-0.120226 0.305819,-0.240451c0.281353,-0.589106 1.125414,-2.440581 1.492397,-4.592621c0.048931,-0.288542 -0.171259,-0.553038 -0.464845,-0.528993c-1.419,0.072135 -5.443578,0.240451 -9.822907,-0.060113c-0.281353,-0.04809 -0.513776,0.240451 -0.440379,0.541016z" fill="#017E82"/>
   <path stroke="null" id="svg_135" d="m500.56858,86.389118c0,0 0.770664,2.885416 0.978621,3.258116c0.207957,0.3727 -0.35475,0.480903 -0.35475,0.480903s-0.856293,-2.332378 -0.623871,-3.739018z" fill="#017E82"/>
   <path stroke="null" id="svg_136" d="m512.483289,86.389118c0,0 -0.770664,2.885416 -0.978621,3.258116c-0.207957,0.3727 0.35475,0.480903 0.35475,0.480903s0.856293,-2.332378 0.623871,-3.739018z" fill="#017E82"/>
   <path stroke="null" id="svg_137" d="m500.678675,86.966201c0,0 0.526009,-2.332378 0.990854,-2.933506c0.477078,-0.601128 7.351889,-1.166189 8.306044,-0.649219c0.954155,0.51697 1.565793,0.84158 1.565793,0.84158l0.954155,3.029687c0,0 0.660569,-1.538889 0.660569,-2.236197s-2.042871,-4.051605 -6.263173,-4.051605c-4.220302,0 -6.740251,2.560807 -6.82588,2.753168c-0.097862,0.192361 -0.097862,1.442708 -0.097862,1.442708s0.330285,1.202257 0.7095,1.803385z" fill="#381218"/>
   <path stroke="null" id="svg_138" d="m499.956942,85.150793c0,0 6.55676,-3.029687 13.235847,0.084158c0,0 1.272207,-5.686674 -2.324224,-7.730511c-4.171371,-2.368446 -9.247967,-0.88967 -10.483476,1.863498c-1.211043,2.693055 -0.428147,5.782855 -0.428147,5.782855z" fill="#017E82"/>
   <path stroke="null" id="svg_139" fill="#F2E29B" d="m380.467339,129.934856l148.065335,0l0,40.768527l-148.065335,0l0,-40.768527z"/>
   <path stroke="null" id="svg_140" d="m530.25749,126.760899l-151.51497,0c-0.770664,0 -1.394535,0.613151 -1.394535,1.370573l0,2.753168c0,0.757422 0.623871,1.370573 1.394535,1.370573l151.51497,0c0.770664,0 1.394535,-0.613151 1.394535,-1.370573l0,-2.753168c0,-0.757422 -0.623871,-1.370573 -1.394535,-1.370573z" fill="#FFF3B4"/>
  </g>
 </g>
</svg>