<svg width="580" height="400" xmlns="http://www.w3.org/2000/svg">
 <!-- Created with Method Draw - http://github.com/duopixel/Method-Draw/ -->

 <g>
  <title>background</title>
  <rect fill="#fff" id="canvas_background" height="402" width="582" y="-1" x="-1"/>
  <g display="none" overflow="visible" y="0" x="0" height="100%" width="100%" id="canvasGrid">
   <rect fill="url(#gridpattern)" stroke-width="0" y="0" x="0" height="100%" width="100%"/>
  </g>
 </g>
 <g>
  <title>Layer 1</title>
  <g stroke="null" id="svg_141">
   <path stroke="null" id="svg_5" d="m85.802944,121.29353c0.008745,-0.309679 0.428484,-16.596856 0,-19.906549c-0.428484,-3.338726 -2.789519,-4.374215 -2.789519,-4.374215l0,24.280764l2.789519,0z" fill="#E9F7FE"/>
   <g stroke="null" id="svg_6" transform="matrix(0.08744572354727508,0,0,0.09677466863142,-5795.572967286746,-4413.325572661363) ">
    <path stroke="null" id="svg_7" d="m67349.843692,46476.599254c0,0 -12.7,53.4 -10.2,86.5s9.3,63.6 9.3,63.6l112,0c0,0 3.4,-87.4 -8.5,-128.1c-11.9,-40.6 -73.8,-70.3 -102.6,-22z" fill="#211316"/>
    <g stroke="null" id="svg_8">
     <path stroke="null" id="svg_9" d="m67313.943692,46857.499254l0,-235.5c0,0 -23.2,10 -27.5,42.4c-4.2,32.1 -0.1,190.1 0,193.1l27.5,0z" fill="#E9F7FE"/>
     <path stroke="null" id="svg_10" d="m67516.243692,46857.499254c0.1,-3 4.2,-161 0,-193.1c-4.2,-32.4 -27.5,-42.4 -27.5,-42.4l0,235.5l27.5,0z" fill="#E9F7FE"/>
    </g>
    <path stroke="null" id="svg_11" fill="#E9F7FE" d="m67488.743702,46857.499264l0,-235.5l-49.40002,-15.80002l-75.29999,0l-50.09998,15.80002l0,235.5l174.79999,0z"/>
    <path stroke="null" id="svg_12" fill="#FFFFFF" d="m67364.043692,46606.199244l-9.40002,2.9l-17.79999,60.6l23.60003,5.60001l-21,18.79999l31.89997,150.29999l30,0l30,0l31.90002,-150.29999l-21,-18.79999l23.59998,-5.60001l-17.79999,-60.79998l-8.70001,-2.70002l-75.29999,0z"/>
    <g stroke="null" id="svg_13">
     <path stroke="null" id="svg_14" d="m67494.643692,46672.499254l-45.6,0c-2.9,0 -5.3,2.4 -5.3,5.3l0,26.9c0,2.9 2.4,5.3 5.3,5.3l45.6,0c2.9,0 5.3,-2.4 5.3,-5.3l0,-26.9c0,-2.9 -2.4,-5.3 -5.3,-5.3z" fill="#FFFFFF"/>
     <g stroke="null" id="svg_15">
      <path stroke="null" id="svg_16" fill="#A9ACBA" d="m67449.043692,46679.099244l16.2,0l0,22.4l-16.2,0l0,-22.4z"/>
      <path stroke="null" id="svg_17" fill="#A9ACBA" d="m67467.143672,46679.299254l27.6,0l0,2.5l-27.6,0l0,-2.5z"/>
      <path stroke="null" id="svg_18" fill="#A9ACBA" d="m67467.143672,46686.599244l27.6,0l0,2.5l-27.6,0l0,-2.5z"/>
      <path stroke="null" id="svg_19" fill="#A9ACBA" d="m67467.143672,46693.799254l27.6,0l0,2.5l-27.6,0l0,-2.5z"/>
     </g>
     <path stroke="null" id="svg_20" d="m67471.843692,46662.899254c-1.5,0 -2.6,1.2 -2.6,2.6l0,7.5c0,1.5 1.2,2.6 2.6,2.6s2.6,-1.2 2.6,-2.6l0,-7.5c0.1,-1.4 -1.1,-2.6 -2.6,-2.6z" fill="#A9ACBA"/>
    </g>
    <g stroke="null" id="svg_21">
     <g stroke="null" id="svg_22">
      <g stroke="null" id="svg_23">
       <path stroke="null" id="svg_24" d="m67473.343692,46693.999254l-6.3,0l0,-42.3c0,-30.2 -24.6,-54.7 -54.7,-54.7l-20.1,0c-30.2,0 -54.7,24.6 -54.7,54.7l0,73.1l-6.3,0l0,-73.1c0,-33.7 27.4,-61.1 61.1,-61.1l20.1,0c33.7,0 61.1,27.4 61.1,61.1l0,42.3l-0.2,0z" fill="#305675"/>
      </g>
     </g>
     <path stroke="null" id="svg_25" fill="#87939B" d="m67344.443692,46733.599244a10.4,10.4 0 0 1 -10.4,10.4a10.4,10.4 0 0 1 -10.4,-10.4a10.4,10.4 0 0 1 10.4,-10.4a10.4,10.4 0 0 1 10.4,10.4z"/>
     <path stroke="null" id="svg_26" fill="#305675" d="m67339.343692,46733.599244a5.3,5.3 0 0 1 -5.3,5.3a5.3,5.3 0 0 1 -5.3,-5.3a5.3,5.3 0 0 1 5.3,-5.3a5.3,5.3 0 0 1 5.3,5.3z"/>
     <g stroke="null" id="svg_27">
      <path stroke="null" id="svg_28" d="m67484.043692,46770.199254l-1.8,0l0,-6.3l1.8,0c2.3,0 4.5,-0.7 6.4,-2.1c3.7,-2.7 5.3,-7.2 4.2,-11.7l-11.2,-43.2c-1.3,-4.8 -5.6,-8.2 -10.6,-8.2l-5,0c-5,0 -9.4,3.4 -10.6,8.2l-11.2,43.2c-1.1,4.4 0.5,9 4.2,11.7c1.9,1.4 4.1,2.1 6.4,2.1l1.8,0l0,6.3l-1.8,0c-3.7,0 -7.2,-1.1 -10.1,-3.3c-5.8,-4.2 -8.4,-11.4 -6.6,-18.4l11.2,-43.2c2,-7.6 8.9,-13 16.8,-13l5,0c7.9,0 14.8,5.3 16.8,13l11.2,43.2c1.8,7 -0.8,14.2 -6.6,18.4c-3.1,2.1 -6.6,3.3 -10.3,3.3z" fill="#87939B"/>
     </g>
     <path stroke="null" id="svg_29" d="m67466.443692,46767.299254c0,3.2 -1.6,5.8 -3.5,5.8s-7.2,-2.6 -7.2,-5.8s5.3,-5.8 7.2,-5.8s3.5,2.6 3.5,5.8z" fill="#305675"/>
     <path stroke="null" id="svg_30" d="m67475.443692,46767.299254c0,3.2 1.6,5.8 3.5,5.8s7.2,-2.6 7.2,-5.8s-5.3,-5.8 -7.2,-5.8s-3.5,2.6 -3.5,5.8z" fill="#305675"/>
    </g>
    <path stroke="null" id="svg_31" fill="#F49B7F" d="m67368.443712,46577.799254l65.90001,0l0,85.7l-65.90001,0l0,-85.7z"/>
    <g stroke="null" id="svg_32">
     <path stroke="null" id="svg_33" d="m67461.843692,46517.199254c-4.5,-6.1 -9,-2.4 -11.5,0.8c-2.9,-18.2 -7.4,-35.4 -13.6,-38.7c-11.3,-6.1 -35.3,-6.1 -35.3,-6.1s-24.1,0 -35.3,6.1c-6.2,3.4 -10.7,20.6 -13.6,38.7c-2.5,-3.2 -7,-6.9 -11.5,-0.8c-5.9,7.9 2.7,23.8 8.4,27.4c-0.4,5.5 6.8,35.9 21.4,49.8c8.2,7.8 16.1,11.3 22,15.4c5.2,3.6 12.1,3.6 17.4,0c6,-4.1 14.6,-6.8 22,-15.4c14.5,-16.9 21.8,-44.3 21.4,-49.8c5.5,-3.6 14.1,-19.5 8.2,-27.4z" fill="#F9AB90"/>
    </g>
    <g stroke="null" id="svg_34">
     <g stroke="null" id="svg_35">
      <g stroke="null" id="svg_36">
       <g stroke="null" id="svg_37">
        <path stroke="null" id="svg_38" d="m67381.943692,46552.499254c-1.8,0 -3.2,-1.4 -3.2,-3.2l0,-4.1c0,-1.8 1.4,-3.2 3.2,-3.2c1.8,0 3.2,1.4 3.2,3.2l0,4.1c0,1.8 -1.5,3.2 -3.2,3.2z" fill="#381218"/>
       </g>
       <g stroke="null" id="svg_39">
        <path stroke="null" id="svg_40" d="m67420.443692,46552.499254c-1.8,0 -3.2,-1.4 -3.2,-3.2l0,-4.1c0,-1.8 1.4,-3.2 3.2,-3.2c1.8,0 3.2,1.4 3.2,3.2l0,4.1c0,1.8 -1.4,3.2 -3.2,3.2z" fill="#381218"/>
       </g>
      </g>
      <g stroke="null" id="svg_41">
       <path stroke="null" id="svg_42" d="m67365.943692,46534.899254c0,0 9.4,-9.8 19.3,-9.8l0.4,4.3c0,0 -7.1,0 -19.7,5.5z" fill="#381218"/>
       <path stroke="null" id="svg_43" d="m67436.343692,46534.899254c0,0 -9.4,-9.8 -19.3,-9.8l-0.4,4.3c0.1,0 7.2,0 19.7,5.5z" fill="#381218"/>
      </g>
      <path stroke="null" id="svg_44" d="m67390.943692,46582.999254l20.8,0c0,0 -9.5,8.9 -20.8,0z" fill="#EF4136"/>
     </g>
    </g>
    <path stroke="null" id="svg_45" d="m67401.343692,46645.299254c-12.3,0 -23.7,-2.5 -32.9,-6.8l0,219.1l65.9,0l0,-219.1c-9.3,4.3 -20.7,6.8 -33,6.8z" fill="#017E82"/>
    <path stroke="null" id="svg_46" fill="#305675" d="m67368.443712,46829.499264l65.90001,0l0,28l-65.90001,0l0,-28z"/>
    <path stroke="null" id="svg_47" d="m67378.743692,46478.999254c0,0 15.5,20 40.6,37.5c25.1,17.6 29.5,46 32.4,69.2c3,23.2 5.9,74.2 -17,92.6c0,0 36.3,-3.1 42.2,-48.9c4.5,-34.6 -0.9,-98.7 -6.8,-129.9c-5.9,-31.1 -16.2,-50.3 -45,-64.7c-28.8,-14.4 -53.9,10.4 -53.9,10.4s-18.4,-4.8 -31.7,22.4c-13.3,27.1 -17.6,120.8 -10.2,157.6s23.8,53.4 44.9,54c0,0 -19.9,-18.4 -19.9,-83s2.3,-86.7 9.6,-99.5c7.5,-12.9 14.8,-17.7 14.8,-17.7z" fill="#331C21"/>
    <path stroke="null" id="svg_48" d="m67427.243692,46522.999254c-9.7,0 -17.7,7.2 -19.1,16.5l-13,0c-1.3,-9.3 -9.4,-16.5 -19.1,-16.5c-10.6,0 -19.3,8.6 -19.3,19.3s8.6,19.3 19.3,19.3c10.4,0 18.8,-8.2 19.2,-18.5l12.7,0c0.4,10.3 8.8,18.5 19.2,18.5c10.6,0 19.3,-8.6 19.3,-19.3s-8.5,-19.3 -19.2,-19.3zm-51.1,36.2c-9.3,0 -16.9,-7.6 -16.9,-16.9s7.6,-16.9 16.9,-16.9c9.3,0 16.9,7.6 16.9,16.9s-7.6,16.9 -16.9,16.9zm51.1,0c-9.3,0 -16.9,-7.6 -16.9,-16.9s7.6,-16.9 16.9,-16.9s16.9,7.6 16.9,16.9s-7.5,16.9 -16.9,16.9z" fill="#FFFFFF"/>
   </g>
   <path stroke="null" id="svg_49" d="m65.340645,121.29353l0,-24.271087c0,0 -2.361035,1.035489 -2.789519,4.374215c-0.428484,3.309694 -0.008745,19.59687 0,19.906549l2.789519,0l0,-0.009677z" fill="#E9F7FE"/>
   <path stroke="null" id="svg_50" fill="#E9F7FE" d="m83.100871,121.293531l0,-24.271089l-5.019386,-1.635491l-7.642754,0l-5.098087,1.635491l0,24.271089l17.760227,0z"/>
   <path stroke="null" id="svg_51" fill="#FFFFFF" d="m70.438731,95.386951l-0.961903,0.30968l-1.801382,6.241966l2.396012,0.570971l-2.133675,1.935493l3.235489,15.5033l3.051858,0l3.04311,0l3.244239,-15.5033l-2.14242,-1.935493l2.404757,-0.570971l-1.810127,-6.261322l-0.883204,-0.290324l-7.642754,0z"/>
   <path stroke="null" id="svg_52" d="m82.978447,103.390216l-3.987525,0c-0.253593,0 -0.463462,0.232259 -0.463462,0.512906l0,2.603239c0,0.280647 0.20987,0.512906 0.463462,0.512906l3.987525,0c0.253593,0 0.463462,-0.232259 0.463462,-0.512906l0,-2.603239c0,-0.280647 -0.20987,-0.512906 -0.463462,-0.512906z" fill="#FFFFFF"/>
   <path stroke="null" id="svg_53" fill="#A9ACBA" d="m78.990922,104.028928l1.416621,0l0,2.167753l-1.416621,0l0,-2.167753z"/>
   <path stroke="null" id="svg_54" fill="#A9ACBA" d="m80.564945,104.048284l2.413502,0l0,0.241937l-2.413502,0l0,-0.241937z"/>
   <path stroke="null" id="svg_55" fill="#A9ACBA" d="m80.564945,104.754738l2.413502,0l0,0.241937l-2.413502,0l0,-0.241937z"/>
   <path stroke="null" id="svg_56" fill="#A9ACBA" d="m80.564945,105.451517l2.413502,0l0,0.241937l-2.413502,0l0,-0.241937z"/>
   <path stroke="null" id="svg_57" d="m80.984685,102.461179c-0.131169,0 -0.227359,0.11613 -0.227359,0.251614l0,0.72581c0,0.145162 0.104935,0.251614 0.227359,0.251614s0.227359,-0.11613 0.227359,-0.251614l0,-0.72581c0,-0.135485 -0.09619,-0.251614 -0.227359,-0.251614z" fill="#A9ACBA"/>
   <g stroke="null" id="svg_58" transform="matrix(0.08744572354727508,0,0,0.09677466863142,-5795.572967286746,-4413.325572661363) ">
    <path stroke="null" id="svg_59" d="m67196.143692,46673.299254l-6.3,0l0,-42.3c0,-30.2 -24.6,-54.7 -54.7,-54.7l-20.1,0c-30.2,0 -54.7,24.6 -54.7,54.7l0,73.1l-6.3,0l0,-73.1c0,-33.7 27.4,-61.1 61.1,-61.1l20.1,0c33.7,0 61.1,27.4 61.1,61.1l0,42.3l-0.2,0z" fill="#305675"/>
   </g>
   <path stroke="null" id="svg_60" fill="#F49B7F" d="m70.87596,92.454679l6.689598,0l0,6.154869l-6.689598,0l0,-6.154869z"/>
   <path stroke="null" id="svg_61" d="m80.136461,86.599811c-0.40225,-0.629035 -0.865713,-0.251614 -1.12805,0.07742c-0.192381,-1.896784 -0.568397,-3.764535 -1.180517,-4.132278c-1.12805,-0.6871 -3.594019,-0.6871 -3.594019,-0.6871s-2.465969,0 -3.594019,0.6871c-0.620865,0.377421 -0.988137,2.235495 -1.180517,4.132278c-0.262337,-0.329034 -0.7258,-0.706455 -1.12805,-0.07742c-0.51593,0.80323 0.40225,2.380657 0.970648,2.738723c-0.008745,0.532261 -0.008745,1.306458 0.008745,1.625814c0.104935,1.703234 1.748914,2.554851 2.159909,2.961305c1.33792,1.325813 2.772029,1.364523 2.772029,1.364523s1.43411,-0.03871 2.772029,-1.364523c0.410995,-0.406454 2.054975,-1.3742 2.159909,-3.077434c0.017489,-0.309679 0.026234,-0.977424 0.008745,-1.509685c0.550908,-0.358066 1.469088,-1.935493 0.953158,-2.738723z" fill="#F9AB90"/>
   <path stroke="null" id="svg_62" d="m69.363148,88.099819c0,0 -0.550908,-2.651626 -0.489696,-3.948406c0.061212,-1.296781 0.367272,-2.109688 0.367272,-2.109688s-0.795756,-0.60968 -0.61212,-2.17743c0.183636,-1.56775 0.795756,-1.56775 0.795756,-1.56775s-0.244848,1.093554 0.856968,1.229038c1.110561,0.135485 1.661469,-0.135485 1.661469,-0.135485l-0.61212,-0.745165c0,0 0.795756,0.60968 2.151165,0.406454c1.355409,-0.203227 2.151165,-0.745165 3.445362,-0.203227s1.600257,1.56775 1.661469,1.770976c0.061212,0.203227 0.795756,0.812907 1.049349,1.974203c0.244848,1.161296 -0.856968,5.177445 -0.856968,5.177445s-0.61212,-1.838719 -0.926925,-2.854853c-0.30606,-1.025811 -0.367272,-1.56775 -0.367272,-1.56775s-0.367272,0.203227 -2.396013,0.203227s-4.433498,-0.541938 -4.433498,-0.541938s0.183636,0.60968 -0.244848,1.56775c-0.437229,0.929037 -1.049349,3.522598 -1.049349,3.522598z" fill="#7F1327"/>
   <path stroke="null" id="svg_63" fill="#7AB7B2" d="m70.87596,98.609547l6.689598,0l0,22.69366l-6.689598,0l0,-22.69366z"/>
   <path stroke="null" id="svg_64" d="m74.22513,98.609548c0,0 -2.544671,-0.745165 -3.357916,-3.270984l0,5.709705l3.357916,-2.438722z" fill="#8EC9C5"/>
   <path stroke="null" id="svg_65" d="m74.22513,98.609548c0,0 2.544671,-0.745165 3.357916,-3.270984l0,5.709705l-3.357916,-2.438722z" fill="#8EC9C5"/>
   <path stroke="null" id="svg_66" fill="#87939B" d="m69.170767,107.299914a0.909436,1.006457 0 0 1 -0.909436,1.006457a0.909436,1.006457 0 0 1 -0.909436,-1.006457a0.909436,1.006457 0 0 1 0.909436,-1.006457a0.909436,1.006457 0 0 1 0.909436,1.006457z"/>
   <path stroke="null" id="svg_67" fill="#305675" d="m68.724793,107.299914a0.463462,0.512906 0 0 1 -0.463462,0.512906a0.463462,0.512906 0 0 1 -0.463462,-0.512906a0.463462,0.512906 0 0 1 0.463462,-0.512906a0.463462,0.512906 0 0 1 0.463462,0.512906z"/>
   <path stroke="null" id="svg_68" d="m81.37819,110.832188l-0.157402,0l0,-0.60968l0.157402,0c0.201125,0 0.393506,-0.067742 0.559653,-0.203227c0.323549,-0.261292 0.463462,-0.696778 0.367272,-1.132264l-0.979392,-4.180666c-0.113679,-0.464518 -0.489696,-0.793552 -0.926925,-0.793552l-0.437229,0c-0.437229,0 -0.82199,0.329034 -0.926925,0.793552l-0.979392,4.180666c-0.09619,0.425809 0.043723,0.870972 0.367272,1.132264c0.166147,0.135485 0.358527,0.203227 0.559653,0.203227l0.157402,0l0,0.60968l-0.157402,0c-0.323549,0 -0.629609,-0.106452 -0.883202,-0.319356c-0.507185,-0.406454 -0.734544,-1.103231 -0.577142,-1.780654l0.979392,-4.180666c0.174891,-0.735487 0.778267,-1.258071 1.469088,-1.258071l0.437229,0c0.690821,0 1.294197,0.512906 1.469088,1.258071l0.979392,4.180666c0.157402,0.677423 -0.069957,1.3742 -0.577142,1.780654c-0.271082,0.212904 -0.577142,0.319356 -0.900691,0.319356z" fill="#87939B"/>
   <path stroke="null" id="svg_69" d="m79.839146,110.551542c0,0.309679 -0.139913,0.561293 -0.30606,0.561293c-0.166147,0 -0.629609,-0.251614 -0.629609,-0.561293s0.463462,-0.561293 0.629609,-0.561293c0.174891,0.009677 0.30606,0.251614 0.30606,0.561293z" fill="#305675"/>
   <path stroke="null" id="svg_70" d="m80.626157,110.551542c0,0.309679 0.139913,0.561293 0.30606,0.561293s0.629609,-0.251614 0.629609,-0.561293s-0.463462,-0.561293 -0.629609,-0.561293s-0.30606,0.251614 -0.30606,0.561293z" fill="#305675"/>
   <path stroke="null" id="svg_71" fill="#305675" d="m73.062103,121.293531l2.326054,0l-0.787012,-21.183977l0.498441,-0.783873l-0.874457,-0.716134l-0.874457,0.716134l0.489694,0.783873l-0.778264,21.183977z"/>
   <g stroke="null" id="svg_72" transform="matrix(0.08744572354727508,0,0,0.09677466863142,-5795.572967286746,-4413.325572661363) ">
    <g stroke="null" id="svg_73">
     <g stroke="null" id="svg_74">
      <path stroke="null" id="svg_75" d="m67102.543692,46525.299254c-1.8,0 -3.3,-1.5 -3.3,-3.3l0,-4.3c0,-1.8 1.5,-3.3 3.3,-3.3c1.8,0 3.3,1.5 3.3,3.3l0,4.3c0,1.8 -1.5,3.3 -3.3,3.3z" fill="#381218"/>
     </g>
     <g stroke="null" id="svg_76">
      <path stroke="null" id="svg_77" d="m67142.743692,46525.299254c-1.8,0 -3.3,-1.5 -3.3,-3.3l0,-4.3c0,-1.8 1.5,-3.3 3.3,-3.3c1.8,0 3.3,1.5 3.3,3.3l0,4.3c0,1.8 -1.5,3.3 -3.3,3.3z" fill="#381218"/>
     </g>
    </g>
    <g stroke="null" id="svg_78">
     <path stroke="null" id="svg_79" d="m67085.943692,46506.999254c0,0 9.8,-10.3 20.1,-10.3l0.4,4.5c0,0 -7.4,0 -20.5,5.8z" fill="#381218"/>
     <path stroke="null" id="svg_80" d="m67159.343692,46506.999254c0,0 -9.8,-10.3 -20.1,-10.3l-0.4,4.5c0,0 7.4,0 20.5,5.8z" fill="#381218"/>
    </g>
    <path stroke="null" id="svg_81" d="m67107.943692,46555.799254l32.8,0c0,0 -14.9,27.6 -32.8,0z" fill="#EF4136"/>
   </g>
   <path stroke="null" id="svg_82" fill="#F49B7F" d="m45.586656,92.454679l6.689598,0l0,7.683909l-6.689598,0l0,-7.683909z"/>
   <path stroke="null" id="svg_83" d="m54.847158,86.599811c-0.40225,-0.629035 -0.865713,-0.251614 -1.12805,0.07742c-0.192381,-1.896784 -0.568397,-3.764535 -1.180517,-4.132278c-1.12805,-0.6871 -3.594019,-0.6871 -3.594019,-0.6871s-2.465969,0 -3.594019,0.6871c-0.620865,0.377421 -0.988137,2.235495 -1.180517,4.132278c-0.262337,-0.329034 -0.7258,-0.706455 -1.12805,-0.07742c-0.51593,0.80323 0.40225,2.380657 0.970648,2.738723c-0.008745,0.532261 0.367272,2.022591 0.472207,2.312915c0.550908,1.538717 1.285452,1.867751 1.696447,2.274205c1.33792,1.325813 2.772029,1.364523 2.772029,1.364523s1.43411,-0.03871 2.772029,-1.364523c0.410995,-0.406454 1.023115,-0.774197 1.696447,-2.274205c0.122424,-0.280647 0.480951,-1.780654 0.472207,-2.312915c0.550908,-0.358066 1.469088,-1.935493 0.953158,-2.738723z" fill="#F9AB90"/>
   <path stroke="null" id="svg_84" d="m44.397394,88.090141c0,0 0.131169,-2.003236 0.393506,-3.125822c0.262337,-1.122586 0.883202,-2.21614 1.250474,-2.21614s0.953158,0.832262 2.728307,0.977424c1.775148,0.145162 3.38415,-0.329034 3.585275,0.03871c0.201125,0.367744 0.332294,0.948392 0.7258,1.925816c0.393506,0.977424 0.620865,2.874208 0.620865,2.874208s0.463462,-3.416146 0.463462,-4.403247c0,-0.977424 -0.131169,-2.622594 -1.678958,-3.78389c-1.547789,-1.161296 -4.564667,-1.238716 -5.587782,-0.948392c-1.01437,0.290324 -1.442854,1.277426 -1.442854,1.277426s-0.953158,0.222582 -1.346664,1.093554c-0.393506,0.870972 -0.463462,3.125822 -0.332294,3.996794c0.131169,0.880649 0.620865,2.29356 0.620865,2.29356z" fill="#763618"/>
   <path stroke="null" id="svg_85" d="m37.725285,121.29353c-0.043723,-1.887106 -0.393506,-16.596856 0,-19.67429c0.323549,-2.535496 1.818871,-3.696792 2.422247,-4.074214l0,23.748504l-2.422247,0z" fill="#F49B7F"/>
   <path stroke="null" id="svg_86" d="m57.724122,121.29353l0,-23.738826c0.603375,0.367744 2.098697,1.538717 2.422247,4.074214c0.393506,3.077434 0.052467,17.787184 0,19.67429l-2.422247,0l0,-0.009677z" fill="#F49B7F"/>
   <path stroke="null" id="svg_87" d="m60.793467,107.754754c0,-2.82582 -0.052467,-5.283897 -0.192381,-6.358096c-0.419739,-3.270984 -2.693328,-4.325828 -2.789519,-4.374215l0,0l-5.028129,-1.635492l-3.891335,3.977439l-3.742677,-3.977439l-5.089341,1.635492l0,0c0,0 -2.361035,1.035489 -2.789519,4.374215c-0.139913,1.074199 -0.192381,3.532275 -0.192381,6.358096l2.981899,0l0,13.548454l17.760226,0l0,-13.548454l2.973155,0z" fill="#017E82"/>
   <path stroke="null" id="svg_88" fill="#026868" d="m44.205013,95.686954l4.660857,5.070992l4.940683,-5.041961l-1.014371,-0.329033l-3.891335,3.97744l-3.751421,-3.97744l-0.944414,0.300002z"/>
   <path stroke="null" id="svg_89" d="m55.992697,103.390216l-3.987525,0c-0.253593,0 -0.463462,0.232259 -0.463462,0.512906l0,2.603239c0,0.280647 0.20987,0.512906 0.463462,0.512906l3.987525,0c0.253593,0 0.463462,-0.232259 0.463462,-0.512906l0,-2.603239c0,-0.280647 -0.20987,-0.512906 -0.463462,-0.512906z" fill="#FFFFFF"/>
   <path stroke="null" id="svg_90" fill="#A9ACBA" d="m52.005171,104.028928l1.416621,0l0,2.167753l-1.416621,0l0,-2.167753z"/>
   <path stroke="null" id="svg_91" fill="#A9ACBA" d="m53.579194,104.048284l2.413502,0l0,0.241937l-2.413502,0l0,-0.241937z"/>
   <path stroke="null" id="svg_92" fill="#A9ACBA" d="m53.579194,104.754738l2.413502,0l0,0.241937l-2.413502,0l0,-0.241937z"/>
   <path stroke="null" id="svg_93" fill="#A9ACBA" d="m53.579194,105.451517l2.413502,0l0,0.241937l-2.413502,0l0,-0.241937z"/>
   <path stroke="null" id="svg_94" d="m53.998934,102.461179c-0.131169,0 -0.227359,0.11613 -0.227359,0.251614l0,0.72581c0,0.145162 0.104935,0.251614 0.227359,0.251614c0.131169,0 0.227359,-0.11613 0.227359,-0.251614l0,-0.72581c0,-0.135485 -0.09619,-0.251614 -0.227359,-0.251614z" fill="#A9ACBA"/>
   <g stroke="null" id="svg_95" transform="matrix(0.08744572354727508,0,0,0.09677466863142,-5795.572967286746,-4413.325572661363) ">
    <g stroke="null" id="svg_96">
     <g stroke="null" id="svg_97">
      <path stroke="null" id="svg_98" d="m66815.743692,46525.299254c-1.8,0 -3.3,-1.5 -3.3,-3.3l0,-4.3c0,-1.8 1.5,-3.3 3.3,-3.3c1.8,0 3.3,1.5 3.3,3.3l0,4.3c0,1.8 -1.5,3.3 -3.3,3.3z" fill="#381218"/>
     </g>
     <g stroke="null" id="svg_99">
      <path stroke="null" id="svg_100" d="m66855.943692,46525.299254c-1.8,0 -3.3,-1.5 -3.3,-3.3l0,-4.3c0,-1.8 1.5,-3.3 3.3,-3.3c1.8,0 3.3,1.5 3.3,3.3l0,4.3c0,1.8 -1.5,3.3 -3.3,3.3z" fill="#381218"/>
     </g>
    </g>
    <g stroke="null" id="svg_101">
     <path stroke="null" id="svg_102" d="m66799.143692,46506.999254c0,0 9.8,-10.3 20.1,-10.3l0.4,4.5c0,0 -7.4,0 -20.5,5.8z" fill="#381218"/>
     <path stroke="null" id="svg_103" d="m66872.543692,46506.999254c0,0 -9.8,-10.3 -20.1,-10.3l-0.4,4.5c0,0 7.4,0 20.5,5.8z" fill="#381218"/>
    </g>
   </g>
   <path stroke="null" id="svg_104" d="m47.274358,91.215963l3.244236,0c0,0 -0.157402,1.587105 -1.678958,1.587105c-1.521556,-0.009677 -1.565278,-1.587105 -1.565278,-1.587105z" fill="#EF4136"/>
   <g stroke="null" id="svg_105" transform="matrix(0.08744572354727508,0,0,0.09677466863142,-5795.572967286746,-4413.325572661363) ">
    <path stroke="null" id="svg_106" d="m67583.843692,46856.299254l0,-235.6c0,0 -23.2,10 -27.5,42.4c-4.2,32.1 -0.1,190.1 0,193.1l27.5,0l0,0.1z" fill="#F49B7F"/>
    <path stroke="null" id="svg_107" d="m67779.843692,46856.299254c0.1,-3 4.2,-161 0,-193.1c-4.2,-32.4 -27.5,-42.4 -27.5,-42.4l0,235.5l27.5,0z" fill="#F49B7F"/>
   </g>
   <path stroke="null" id="svg_108" fill="#F49B7F" d="m118.831192,94.099848l5.762673,0l0,8.293588l-5.762673,0l0,-8.293588z"/>
   <path stroke="null" id="svg_109" d="m131.764416,102.490212c-0.367272,-3.106467 -2.361035,-4.083891 -2.404757,-4.103246l0,0l-4.328563,-1.538717l-3.419128,4.248408l-3.165535,-4.248408l-4.381031,1.538717l0,0c-0.043723,0.019355 -2.037485,1.006457 -2.404757,4.103246c-0.131169,1.122586 -0.166147,3.822599 -0.166147,6.832292l2.56216,0l0,11.854897l15.303002,0l0,-11.864574l2.56216,0c0.008745,-3.009692 -0.026234,-5.709705 -0.157402,-6.822614z" fill="#017E82"/>
   <path stroke="null" id="svg_110" d="m128.047973,103.274087l-3.987525,0c-0.253593,0 -0.463462,0.232259 -0.463462,0.512906l0,2.603239c0,0.280647 0.20987,0.512906 0.463462,0.512906l3.987525,0c0.253593,0 0.463462,-0.232259 0.463462,-0.512906l0,-2.603239c-0.008745,-0.290324 -0.20987,-0.512906 -0.463462,-0.512906z" fill="#FFFFFF"/>
   <path stroke="null" id="svg_111" fill="#A9ACBA" d="m124.051708,103.9128l1.416621,0l0,2.167753l-1.416621,0l0,-2.167753z"/>
   <path stroke="null" id="svg_112" fill="#A9ACBA" d="m125.634473,103.932153l2.413503,0l0,0.241937l-2.413503,0l0,-0.241937z"/>
   <path stroke="null" id="svg_113" fill="#A9ACBA" d="m125.634473,104.628932l2.413503,0l0,0.241937l-2.413503,0l0,-0.241937z"/>
   <path stroke="null" id="svg_114" fill="#A9ACBA" d="m125.634473,105.325711l2.413503,0l0,0.241937l-2.413503,0l0,-0.241937z"/>
   <path stroke="null" id="svg_115" d="m126.054211,102.335372c-0.131169,0 -0.227359,0.11613 -0.227359,0.251614l0,0.72581c0,0.145162 0.104935,0.251614 0.227359,0.251614s0.227359,-0.11613 0.227359,-0.251614l0,-0.716133c0,-0.145162 -0.104935,-0.261292 -0.227359,-0.261292z" fill="#A9ACBA"/>
   <path stroke="null" id="svg_116" fill="#026868" d="m121.559505,102.383759l4.276087,-5.235508l-0.848219,-0.300001l-3.419126,4.248407l-3.165541,-4.248407l-0.804496,0.280646l3.961296,5.254864z"/>
   <path stroke="null" id="svg_117" d="m120.081668,104.36764l-8.246132,0c-0.577142,0 -1.049349,0.522583 -1.049349,1.161296l0,14.612975c0,0.638713 0.472207,1.161296 1.049349,1.161296l8.246132,0c0.577142,0 1.049349,-0.522583 1.049349,-1.161296l0,-14.612975c0,-0.64839 -0.472207,-1.161296 -1.049349,-1.161296z" fill="#913A1F"/>
   <path stroke="null" id="svg_118" d="m110.453893,111.625741l1.294197,-0.522583c0.271082,-0.106452 0.550908,0.106452 0.550908,0.425809l0,0c0,0.183872 -0.09619,0.348389 -0.244848,0.416131l-1.302941,0.629035c-0.279826,0.135485 -0.594631,-0.106452 -0.577142,-0.445163l0.008745,-0.106452c0.008745,-0.174194 0.113679,-0.338711 0.271082,-0.396776z" fill="#F49B7F"/>
   <path stroke="null" id="svg_119" d="m110.453893,112.767682l1.521556,-0.60968c0.271082,-0.106452 0.550908,0.106452 0.550908,0.425809l0,0c0,0.183872 -0.09619,0.348389 -0.244848,0.416131l-1.521556,0.716133c-0.279826,0.135485 -0.594631,-0.106452 -0.577142,-0.445163l0.008745,-0.106452c0,-0.174194 0.104935,-0.329034 0.262337,-0.396776z" fill="#F49B7F"/>
   <path stroke="null" id="svg_120" d="m110.453893,113.909623l1.521556,-0.60968c0.271082,-0.106452 0.550908,0.106452 0.550908,0.425809l0,0c0,0.183872 -0.09619,0.348389 -0.244848,0.416131l-1.521556,0.716133c-0.279826,0.135485 -0.594631,-0.106452 -0.577142,-0.445163l0.008745,-0.106452c0,-0.183872 0.104935,-0.338711 0.262337,-0.396776z" fill="#F49B7F"/>
   <path stroke="null" id="svg_121" d="m110.506361,115.022531l1.12805,-0.454841c0.236103,-0.096775 0.480951,0.096775 0.480951,0.377421l0,0c0,0.154839 -0.087446,0.300001 -0.218614,0.367744l-1.136794,0.551616c-0.244848,0.11613 -0.51593,-0.087097 -0.507185,-0.387099l0.008745,-0.096775c0.017489,-0.164517 0.104935,-0.300001 0.244848,-0.358066z" fill="#F49B7F"/>
   <g stroke="null" id="svg_122" transform="matrix(0.08744572354727508,0,0,0.09677466863142,-5795.572967286746,-4413.325572661363) ">
    <path stroke="null" id="svg_123" d="m67728.643692,46515.999254c-4.5,-6.1 -9,-2.4 -11.5,0.8c-2.9,-18.2 -7.4,-35.4 -13.6,-38.7c-11.3,-6.1 -35.3,-6.1 -35.3,-6.1s-24.1,0 -35.3,6.1c-6.2,3.4 -10.7,20.6 -13.6,38.7c-2.5,-3.2 -7,-6.9 -11.5,-0.8c-5.9,7.9 2.7,23.8 8.4,27.4c-0.4,5.5 6.8,35.9 21.4,49.8c8.2,7.8 16.1,11.3 22,15.4c5.2,3.6 12.1,3.6 17.4,0c6,-4.1 14.6,-6.8 22,-15.4c14.5,-16.9 21.8,-44.3 21.4,-49.8c5.4,-3.6 14,-19.5 8.2,-27.4z" fill="#F9AB90"/>
   </g>
   <g stroke="null" id="svg_124" transform="matrix(0.08744572354727508,0,0,0.09677466863142,-5795.572967286746,-4413.325572661363) ">
    <g stroke="null" id="svg_125">
     <g stroke="null" id="svg_126">
      <path stroke="null" id="svg_127" d="m67650.143692,46541.299254c-1.6,0 -3,-1.3 -3,-3l0,-3.8c0,-1.6 1.3,-3 3,-3c1.6,0 3,1.3 3,3l0,3.8c0,1.7 -1.4,3 -3,3z" fill="#381218"/>
     </g>
     <g stroke="null" id="svg_128">
      <path stroke="null" id="svg_129" d="m67686.043692,46541.299254c-1.6,0 -3,-1.3 -3,-3l0,-3.8c0,-1.6 1.3,-3 3,-3c1.6,0 3,1.3 3,3l0,3.8c0,1.7 -1.3,3 -3,3z" fill="#381218"/>
     </g>
    </g>
    <g stroke="null" id="svg_130">
     <path stroke="null" id="svg_131" d="m67635.243692,46527.999254c0,0 8.8,-9.2 18,-9.2l0.4,4c0,0.1 -6.6,0.1 -18.4,5.2z" fill="#381218"/>
     <path stroke="null" id="svg_132" d="m67700.943692,46527.999254c0,0 -8.8,-9.2 -18,-9.2l-0.4,4c0,0.1 6.6,0.1 18.4,5.2z" fill="#381218"/>
    </g>
   </g>
   <path stroke="null" id="svg_133" d="m118.087905,94.274043c0,0 3.322937,2.690336 7.196783,0.009677c0,0 0.253593,0.07742 -0.279826,0.454841c-0.524674,0.377421 -2.938176,2.041946 -6.593408,0.067742c-0.113679,-0.058065 -0.20987,-0.135485 -0.288571,-0.241937c-0.078701,-0.096775 -0.131169,-0.222582 -0.034978,-0.290324z" fill="#017E82"/>
   <path stroke="null" id="svg_134" d="m117.878035,91.844998c0.192381,0.938714 0.673332,2.990337 1.390387,3.803244c0.052467,0.058065 0.113679,0.087097 0.174891,0.106452c0.51593,0.087097 2.973155,0.454841 4.818259,0.019355c0.09619,-0.019355 0.174891,-0.096775 0.218614,-0.193549c0.201125,-0.474196 0.804501,-1.964526 1.066838,-3.696792c0.034978,-0.232259 -0.122424,-0.445163 -0.332294,-0.425809c-1.01437,0.058065 -3.891335,0.193549 -7.021892,-0.048387c-0.201125,-0.03871 -0.367272,0.193549 -0.314805,0.435486z" fill="#017E82"/>
   <path stroke="null" id="svg_135" d="m117.432062,88.835306c0,0 0.550908,2.322592 0.699566,2.622594c0.148658,0.300001 -0.253593,0.387099 -0.253593,0.387099s-0.61212,-1.877429 -0.445973,-3.009692z" fill="#017E82"/>
   <path stroke="null" id="svg_136" d="m125.949276,88.835306c0,0 -0.550908,2.322592 -0.699566,2.622594c-0.148658,0.300001 0.253593,0.387099 0.253593,0.387099s0.61212,-1.877429 0.445973,-3.009692z" fill="#017E82"/>
   <path stroke="null" id="svg_137" d="m117.510763,89.299825c0,0 0.376017,-1.877429 0.70831,-2.361302c0.341038,-0.483873 5.255488,-0.938714 5.937565,-0.522583c0.682077,0.416131 1.119305,0.677423 1.119305,0.677423l0.682077,2.438722c0,0 0.472207,-1.238716 0.472207,-1.800009s-1.460344,-3.261306 -4.477221,-3.261306c-3.016877,0 -4.818259,2.0613 -4.879471,2.21614c-0.069957,0.154839 -0.069957,1.161296 -0.069957,1.161296s0.236103,0.967747 0.507185,1.45162z" fill="#381218"/>
   <path stroke="null" id="svg_138" d="m116.994834,87.838527c0,0 4.687091,-2.438722 9.461627,0.067742c0,0 0.909436,-4.577442 -1.661469,-6.222611c-2.981899,-1.906461 -6.610897,-0.716133 -7.494099,1.500007c-0.865713,2.167753 -0.30606,4.654862 -0.30606,4.654862z" fill="#017E82"/>
   <path stroke="null" id="svg_139" fill="#F2E29B" d="m31.577851,123.887091l105.844306,0l0,32.816291l-105.844306,0l0,-32.816291z"/>
   <path stroke="null" id="svg_140" d="m138.655139,121.33224l-108.310273,0c-0.550908,0 -0.996881,0.493551 -0.996881,1.103231l0,2.21614c0,0.60968 0.445973,1.103231 0.996881,1.103231l108.310273,0c0.550908,0 0.996881,-0.493551 0.996881,-1.103231l0,-2.21614c0,-0.60968 -0.445973,-1.103231 -0.996881,-1.103231z" fill="#FFF3B4"/>
  </g>
 </g>
</svg>