<svg width="580" height="400" xmlns="http://www.w3.org/2000/svg">
 <!-- Created with Method Draw - http://github.com/duopixel/Method-Draw/ -->

 <g>
  <title>background</title>
  <rect fill="#fff" id="canvas_background" height="402" width="582" y="-1" x="-1"/>
  <g display="none" overflow="visible" y="0" x="0" height="100%" width="100%" id="canvasGrid">
   <rect fill="url(#gridpattern)" stroke-width="0" y="0" x="0" height="100%" width="100%"/>
  </g>
 </g>
 <g>
  <title>Layer 1</title>
  <g stroke="null" id="svg_141">
   <path stroke="null" id="svg_5" d="m427.212491,321.132077c0.014849,-0.459765 0.727596,-24.640553 0,-29.554296c-0.727596,-4.956846 -4.736799,-6.494187 -4.736799,-6.494187l0,36.048482l4.736799,0z" fill="#E9F7FE"/>
   <g stroke="null" id="svg_6" transform="matrix(0.14848899278990196,0,0,0.14367669328457727,-9894.475645732868,-6584.0451990241) ">
    <path stroke="null" id="svg_7" d="m69603.868916,47679.623375c0,0 -12.7,53.4 -10.2,86.5s9.3,63.6 9.3,63.6l112,0c0,0 3.4,-87.4 -8.5,-128.1c-11.9,-40.6 -73.8,-70.3 -102.6,-22z" fill="#211316"/>
    <g stroke="null" id="svg_8">
     <path stroke="null" id="svg_9" d="m69567.968916,48060.523375l0,-235.5c0,0 -23.2,10 -27.5,42.4c-4.2,32.1 -0.1,190.1 0,193.1l27.5,0z" fill="#E9F7FE"/>
     <path stroke="null" id="svg_10" d="m69770.268916,48060.523375c0.1,-3 4.2,-161 0,-193.1c-4.2,-32.4 -27.5,-42.4 -27.5,-42.4l0,235.5l27.5,0z" fill="#E9F7FE"/>
    </g>
    <path stroke="null" id="svg_11" fill="#E9F7FE" d="m69742.768926,48060.523385l0,-235.5l-49.40002,-15.80002l-75.29999,0l-50.09998,15.80002l0,235.5l174.79999,0z"/>
    <path stroke="null" id="svg_12" fill="#FFFFFF" d="m69618.068916,47809.223365l-9.40002,2.9l-17.79999,60.6l23.60003,5.60001l-21,18.79999l31.89997,150.29999l30,0l30,0l31.90002,-150.29999l-21,-18.79999l23.59998,-5.60001l-17.79999,-60.79998l-8.70001,-2.70002l-75.29999,0z"/>
    <g stroke="null" id="svg_13">
     <path stroke="null" id="svg_14" d="m69748.668916,47875.523375l-45.6,0c-2.9,0 -5.3,2.4 -5.3,5.3l0,26.9c0,2.9 2.4,5.3 5.3,5.3l45.6,0c2.9,0 5.3,-2.4 5.3,-5.3l0,-26.9c0,-2.9 -2.4,-5.3 -5.3,-5.3z" fill="#FFFFFF"/>
     <g stroke="null" id="svg_15">
      <path stroke="null" id="svg_16" fill="#A9ACBA" d="m69703.068916,47882.123365l16.2,0l0,22.4l-16.2,0l0,-22.4z"/>
      <path stroke="null" id="svg_17" fill="#A9ACBA" d="m69721.168896,47882.323375l27.6,0l0,2.5l-27.6,0l0,-2.5z"/>
      <path stroke="null" id="svg_18" fill="#A9ACBA" d="m69721.168896,47889.623365l27.6,0l0,2.5l-27.6,0l0,-2.5z"/>
      <path stroke="null" id="svg_19" fill="#A9ACBA" d="m69721.168896,47896.823375l27.6,0l0,2.5l-27.6,0l0,-2.5z"/>
     </g>
     <path stroke="null" id="svg_20" d="m69725.868916,47865.923375c-1.5,0 -2.6,1.2 -2.6,2.6l0,7.5c0,1.5 1.2,2.6 2.6,2.6s2.6,-1.2 2.6,-2.6l0,-7.5c0.1,-1.4 -1.1,-2.6 -2.6,-2.6z" fill="#A9ACBA"/>
    </g>
    <g stroke="null" id="svg_21">
     <g stroke="null" id="svg_22">
      <g stroke="null" id="svg_23">
       <path stroke="null" id="svg_24" d="m69727.368916,47897.023375l-6.3,0l0,-42.3c0,-30.2 -24.6,-54.7 -54.7,-54.7l-20.1,0c-30.2,0 -54.7,24.6 -54.7,54.7l0,73.1l-6.3,0l0,-73.1c0,-33.7 27.4,-61.1 61.1,-61.1l20.1,0c33.7,0 61.1,27.4 61.1,61.1l0,42.3l-0.2,0z" fill="#305675"/>
      </g>
     </g>
     <path stroke="null" id="svg_25" fill="#87939B" d="m69598.468916,47936.623365a10.4,10.4 0 0 1 -10.4,10.4a10.4,10.4 0 0 1 -10.4,-10.4a10.4,10.4 0 0 1 10.4,-10.4a10.4,10.4 0 0 1 10.4,10.4z"/>
     <path stroke="null" id="svg_26" fill="#305675" d="m69593.368916,47936.623365a5.3,5.3 0 0 1 -5.3,5.3a5.3,5.3 0 0 1 -5.3,-5.3a5.3,5.3 0 0 1 5.3,-5.3a5.3,5.3 0 0 1 5.3,5.3z"/>
     <g stroke="null" id="svg_27">
      <path stroke="null" id="svg_28" d="m69738.068916,47973.223375l-1.8,0l0,-6.3l1.8,0c2.3,0 4.5,-0.7 6.4,-2.1c3.7,-2.7 5.3,-7.2 4.2,-11.7l-11.2,-43.2c-1.3,-4.8 -5.6,-8.2 -10.6,-8.2l-5,0c-5,0 -9.4,3.4 -10.6,8.2l-11.2,43.2c-1.1,4.4 0.5,9 4.2,11.7c1.9,1.4 4.1,2.1 6.4,2.1l1.8,0l0,6.3l-1.8,0c-3.7,0 -7.2,-1.1 -10.1,-3.3c-5.8,-4.2 -8.4,-11.4 -6.6,-18.4l11.2,-43.2c2,-7.6 8.9,-13 16.8,-13l5,0c7.9,0 14.8,5.3 16.8,13l11.2,43.2c1.8,7 -0.8,14.2 -6.6,18.4c-3.1,2.1 -6.6,3.3 -10.3,3.3z" fill="#87939B"/>
     </g>
     <path stroke="null" id="svg_29" d="m69720.468916,47970.323375c0,3.2 -1.6,5.8 -3.5,5.8s-7.2,-2.6 -7.2,-5.8s5.3,-5.8 7.2,-5.8s3.5,2.6 3.5,5.8z" fill="#305675"/>
     <path stroke="null" id="svg_30" d="m69729.468916,47970.323375c0,3.2 1.6,5.8 3.5,5.8s7.2,-2.6 7.2,-5.8s-5.3,-5.8 -7.2,-5.8s-3.5,2.6 -3.5,5.8z" fill="#305675"/>
    </g>
    <path stroke="null" id="svg_31" fill="#F49B7F" d="m69622.468936,47780.823375l65.90001,0l0,85.7l-65.90001,0l0,-85.7z"/>
    <g stroke="null" id="svg_32">
     <path stroke="null" id="svg_33" d="m69715.868916,47720.223375c-4.5,-6.1 -9,-2.4 -11.5,0.8c-2.9,-18.2 -7.4,-35.4 -13.6,-38.7c-11.3,-6.1 -35.3,-6.1 -35.3,-6.1s-24.1,0 -35.3,6.1c-6.2,3.4 -10.7,20.6 -13.6,38.7c-2.5,-3.2 -7,-6.9 -11.5,-0.8c-5.9,7.9 2.7,23.8 8.4,27.4c-0.4,5.5 6.8,35.9 21.4,49.8c8.2,7.8 16.1,11.3 22,15.4c5.2,3.6 12.1,3.6 17.4,0c6,-4.1 14.6,-6.8 22,-15.4c14.5,-16.9 21.8,-44.3 21.4,-49.8c5.5,-3.6 14.1,-19.5 8.2,-27.4z" fill="#F9AB90"/>
    </g>
    <g stroke="null" id="svg_34">
     <g stroke="null" id="svg_35">
      <g stroke="null" id="svg_36">
       <g stroke="null" id="svg_37">
        <path stroke="null" id="svg_38" d="m69635.968916,47755.523375c-1.8,0 -3.2,-1.4 -3.2,-3.2l0,-4.1c0,-1.8 1.4,-3.2 3.2,-3.2c1.8,0 3.2,1.4 3.2,3.2l0,4.1c0,1.8 -1.5,3.2 -3.2,3.2z" fill="#381218"/>
       </g>
       <g stroke="null" id="svg_39">
        <path stroke="null" id="svg_40" d="m69674.468916,47755.523375c-1.8,0 -3.2,-1.4 -3.2,-3.2l0,-4.1c0,-1.8 1.4,-3.2 3.2,-3.2c1.8,0 3.2,1.4 3.2,3.2l0,4.1c0,1.8 -1.4,3.2 -3.2,3.2z" fill="#381218"/>
       </g>
      </g>
      <g stroke="null" id="svg_41">
       <path stroke="null" id="svg_42" d="m69619.968916,47737.923375c0,0 9.4,-9.8 19.3,-9.8l0.4,4.3c0,0 -7.1,0 -19.7,5.5z" fill="#381218"/>
       <path stroke="null" id="svg_43" d="m69690.368916,47737.923375c0,0 -9.4,-9.8 -19.3,-9.8l-0.4,4.3c0.1,0 7.2,0 19.7,5.5z" fill="#381218"/>
      </g>
      <path stroke="null" id="svg_44" d="m69644.968916,47786.023375l20.8,0c0,0 -9.5,8.9 -20.8,0z" fill="#EF4136"/>
     </g>
    </g>
    <path stroke="null" id="svg_45" d="m69655.368916,47848.323375c-12.3,0 -23.7,-2.5 -32.9,-6.8l0,219.1l65.9,0l0,-219.1c-9.3,4.3 -20.7,6.8 -33,6.8z" fill="#017E82"/>
    <path stroke="null" id="svg_46" fill="#305675" d="m69622.468936,48032.523385l65.90001,0l0,28l-65.90001,0l0,-28z"/>
    <path stroke="null" id="svg_47" d="m69632.768916,47682.023375c0,0 15.5,20 40.6,37.5c25.1,17.6 29.5,46 32.4,69.2c3,23.2 5.9,74.2 -17,92.6c0,0 36.3,-3.1 42.2,-48.9c4.5,-34.6 -0.9,-98.7 -6.8,-129.9c-5.9,-31.1 -16.2,-50.3 -45,-64.7c-28.8,-14.4 -53.9,10.4 -53.9,10.4s-18.4,-4.8 -31.7,22.4c-13.3,27.1 -17.6,120.8 -10.2,157.6s23.8,53.4 44.9,54c0,0 -19.9,-18.4 -19.9,-83s2.3,-86.7 9.6,-99.5c7.5,-12.9 14.8,-17.7 14.8,-17.7z" fill="#331C21"/>
    <path stroke="null" id="svg_48" d="m69681.268916,47726.023375c-9.7,0 -17.7,7.2 -19.1,16.5l-13,0c-1.3,-9.3 -9.4,-16.5 -19.1,-16.5c-10.6,0 -19.3,8.6 -19.3,19.3s8.6,19.3 19.3,19.3c10.4,0 18.8,-8.2 19.2,-18.5l12.7,0c0.4,10.3 8.8,18.5 19.2,18.5c10.6,0 19.3,-8.6 19.3,-19.3s-8.5,-19.3 -19.2,-19.3zm-51.1,36.2c-9.3,0 -16.9,-7.6 -16.9,-16.9s7.6,-16.9 16.9,-16.9c9.3,0 16.9,7.6 16.9,16.9s-7.6,16.9 -16.9,16.9zm51.1,0c-9.3,0 -16.9,-7.6 -16.9,-16.9s7.6,-16.9 16.9,-16.9s16.9,7.6 16.9,16.9s-7.5,16.9 -16.9,16.9z" fill="#FFFFFF"/>
   </g>
   <path stroke="null" id="svg_49" d="m392.466067,321.132077l0,-36.034115c0,0 -4.009203,1.537341 -4.736799,6.494187c-0.727596,4.913743 -0.014849,29.09453 0,29.554296l4.736799,0l0,-0.014368z" fill="#E9F7FE"/>
   <path stroke="null" id="svg_50" fill="#E9F7FE" d="m422.624182,321.132078l0,-36.034118l-8.523271,-2.428135l-12.977934,0l-8.656911,2.428135l0,36.034118l30.158116,0z"/>
   <path stroke="null" id="svg_51" fill="#FFFFFF" d="m401.122977,282.669826l-1.633379,0.459767l-3.058873,9.267147l4.068597,0.847692l-3.62313,2.873534l5.494088,23.017003l5.182269,0l5.167415,0l5.508946,-23.017003l-3.63798,-2.873534l4.083447,-0.847692l-3.073724,-9.295883l-1.499743,-0.43103l-12.977934,0z"/>
   <path stroke="null" id="svg_52" d="m422.416297,294.551889l-6.771098,0c-0.430618,0 -0.786992,0.344824 -0.786992,0.761486l0,3.864903c0,0.416662 0.356374,0.761486 0.786992,0.761486l6.771098,0c0.430618,0 0.786992,-0.344824 0.786992,-0.761486l0,-3.864903c0,-0.416662 -0.356374,-0.761486 -0.786992,-0.761486z" fill="#FFFFFF"/>
   <path stroke="null" id="svg_53" fill="#A9ACBA" d="m415.645199,295.500153l2.405522,0l0,3.218358l-2.405522,0l0,-3.218358z"/>
   <path stroke="null" id="svg_54" fill="#A9ACBA" d="m418.318001,295.52889l4.098296,0l0,0.359192l-4.098296,0l0,-0.359192z"/>
   <path stroke="null" id="svg_55" fill="#A9ACBA" d="m418.318001,296.577729l4.098296,0l0,0.359192l-4.098296,0l0,-0.359192z"/>
   <path stroke="null" id="svg_56" fill="#A9ACBA" d="m418.318001,297.612202l4.098296,0l0,0.359192l-4.098296,0l0,-0.359192z"/>
   <path stroke="null" id="svg_57" d="m419.030748,293.172592c-0.222733,0 -0.386071,0.172412 -0.386071,0.373559l0,1.077575c0,0.215515 0.178187,0.373559 0.386071,0.373559s0.386071,-0.172412 0.386071,-0.373559l0,-1.077575c0,-0.201147 -0.163338,-0.373559 -0.386071,-0.373559z" fill="#A9ACBA"/>
   <g stroke="null" id="svg_58" transform="matrix(0.14848899278990196,0,0,0.14367669328457727,-9894.475645732868,-6584.0451990241) ">
    <path stroke="null" id="svg_59" d="m69450.168916,47876.323375l-6.3,0l0,-42.3c0,-30.2 -24.6,-54.7 -54.7,-54.7l-20.1,0c-30.2,0 -54.7,24.6 -54.7,54.7l0,73.1l-6.3,0l0,-73.1c0,-33.7 27.4,-61.1 61.1,-61.1l20.1,0c33.7,0 61.1,27.4 61.1,61.1l0,42.3l-0.2,0z" fill="#305675"/>
   </g>
   <path stroke="null" id="svg_60" fill="#F49B7F" d="m401.865422,278.316422l11.359408,0l0,9.137838l-11.359408,0l0,-9.137838z"/>
   <path stroke="null" id="svg_61" d="m417.590405,269.623982c-0.683049,-0.933899 -1.470041,-0.373559 -1.915508,0.114941c-0.326676,-2.816063 -0.965178,-5.589023 -2.004601,-6.134995c-1.915508,-1.020105 -6.102898,-1.020105 -6.102898,-1.020105s-4.18739,0 -6.102898,1.020105c-1.054272,0.560339 -1.677926,3.318932 -2.004601,6.134995c-0.445467,-0.488501 -1.232459,-1.04884 -1.915508,-0.114941c-0.876085,1.192517 0.683049,3.534447 1.648228,4.06605c-0.014849,0.790222 -0.014849,1.939635 0.014849,2.413768c0.178187,2.52871 2.96978,3.793065 3.667678,4.396507c2.271882,1.968371 4.707101,2.025841 4.707101,2.025841s2.435219,-0.057471 4.707101,-2.025841c0.697898,-0.603442 3.489491,-2.040209 3.667678,-4.568919c0.029698,-0.459765 0.044547,-1.451135 0.014849,-2.241356c0.935481,-0.531604 2.494615,-2.873534 1.61853,-4.06605z" fill="#F9AB90"/>
   <path stroke="null" id="svg_62" d="m399.296561,271.850971c0,0 -0.935481,-3.936741 -0.831538,-5.862009c0.103942,-1.925268 0.623654,-3.132152 0.623654,-3.132152s-1.35125,-0.905163 -1.039423,-3.232726c0.311827,-2.327562 1.35125,-2.327562 1.35125,-2.327562s-0.415769,1.623547 1.455192,1.824694c1.88581,0.201147 2.821291,-0.201147 2.821291,-0.201147l-1.039423,-1.106311c0,0 1.35125,0.905163 3.652829,0.603442c2.301579,-0.301721 3.652829,-1.106311 5.850466,-0.301721s2.717349,2.327562 2.821291,2.629283c0.103942,0.301721 1.35125,1.206884 1.781868,2.931005c0.415769,1.72412 -1.455192,7.686703 -1.455192,7.686703s-1.039423,-2.729857 -1.573983,-4.238462c-0.519711,-1.522973 -0.623654,-2.327562 -0.623654,-2.327562s-0.623654,0.301721 -4.068598,0.301721s-7.528392,-0.804589 -7.528392,-0.804589s0.311827,0.905163 -0.415769,2.327562c-0.742445,1.379296 -1.781868,5.229832 -1.781868,5.229832z" fill="#7F1327"/>
   <path stroke="null" id="svg_63" fill="#7AB7B2" d="m401.865422,287.454259l11.359408,0l0,33.692185l-11.359408,0l0,-33.692185z"/>
   <path stroke="null" id="svg_64" d="m407.552549,287.45426c0,0 -4.32103,-1.106311 -5.701977,-4.856272l0,8.476925l5.701977,-3.620653z" fill="#8EC9C5"/>
   <path stroke="null" id="svg_65" d="m407.552549,287.45426c0,0 4.32103,-1.106311 5.701977,-4.856272l0,8.476925l-5.701977,-3.620653z" fill="#8EC9C5"/>
   <path stroke="null" id="svg_66" fill="#87939B" d="m398.969884,300.356428a1.544286,1.494238 0 0 1 -1.544286,1.494238a1.544286,1.494238 0 0 1 -1.544286,-1.494238a1.544286,1.494238 0 0 1 1.544286,-1.494238a1.544286,1.494238 0 0 1 1.544286,1.494238z"/>
   <path stroke="null" id="svg_67" fill="#305675" d="m398.21259,300.356428a0.786992,0.761486 0 0 1 -0.786992,0.761486a0.786992,0.761486 0 0 1 -0.786992,-0.761486a0.786992,0.761486 0 0 1 0.786992,-0.761486a0.786992,0.761486 0 0 1 0.786992,0.761486z"/>
   <path stroke="null" id="svg_68" d="m419.698948,305.600626l-0.26728,0l0,-0.905163l0.26728,0c0.341525,0 0.6682,-0.100574 0.95033,-0.301721c0.549409,-0.387927 0.786992,-1.034472 0.623654,-1.681017l-1.663077,-6.206833c-0.193036,-0.689648 -0.831538,-1.178149 -1.573983,-1.178149l-0.742445,0c-0.742445,0 -1.395797,0.488501 -1.573983,1.178149l-1.663077,6.206833c-0.163338,0.632177 0.074244,1.29309 0.623654,1.681017c0.282129,0.201147 0.608805,0.301721 0.95033,0.301721l0.26728,0l0,0.905163l-0.26728,0c-0.549409,0 -1.069121,-0.158044 -1.499739,-0.474133c-0.861236,-0.603442 -1.247308,-1.637914 -0.980027,-2.643651l1.663077,-6.206833c0.296978,-1.091943 1.321552,-1.867797 2.494615,-1.867797l0.742445,0c1.173063,0 2.197637,0.761486 2.494615,1.867797l1.663077,6.206833c0.26728,1.005737 -0.118791,2.040209 -0.980027,2.643651c-0.460316,0.316089 -0.980027,0.474133 -1.529437,0.474133z" fill="#87939B"/>
   <path stroke="null" id="svg_69" d="m417.085542,305.183964c0,0.459765 -0.237582,0.833325 -0.519711,0.833325c-0.282129,0 -1.069121,-0.373559 -1.069121,-0.833325s0.786992,-0.833325 1.069121,-0.833325c0.296978,0.014368 0.519711,0.373559 0.519711,0.833325z" fill="#305675"/>
   <path stroke="null" id="svg_70" d="m418.421943,305.183964c0,0.459765 0.237582,0.833325 0.519711,0.833325s1.069121,-0.373559 1.069121,-0.833325s-0.786992,-0.833325 -1.069121,-0.833325s-0.519711,0.373559 -0.519711,0.833325z" fill="#305675"/>
   <path stroke="null" id="svg_71" fill="#305675" d="m405.577647,321.132078l3.949804,0l-1.336401,-31.450831l0.846389,-1.163778l-1.48489,-1.06321l-1.48489,1.06321l0.831535,1.163778l-1.321548,31.450831z"/>
   <g stroke="null" id="svg_72" transform="matrix(0.14848899278990196,0,0,0.14367669328457727,-9894.475645732868,-6584.0451990241) ">
    <g stroke="null" id="svg_73">
     <g stroke="null" id="svg_74">
      <path stroke="null" id="svg_75" d="m69356.568916,47728.323375c-1.8,0 -3.3,-1.5 -3.3,-3.3l0,-4.3c0,-1.8 1.5,-3.3 3.3,-3.3c1.8,0 3.3,1.5 3.3,3.3l0,4.3c0,1.8 -1.5,3.3 -3.3,3.3z" fill="#381218"/>
     </g>
     <g stroke="null" id="svg_76">
      <path stroke="null" id="svg_77" d="m69396.768916,47728.323375c-1.8,0 -3.3,-1.5 -3.3,-3.3l0,-4.3c0,-1.8 1.5,-3.3 3.3,-3.3c1.8,0 3.3,1.5 3.3,3.3l0,4.3c0,1.8 -1.5,3.3 -3.3,3.3z" fill="#381218"/>
     </g>
    </g>
    <g stroke="null" id="svg_78">
     <path stroke="null" id="svg_79" d="m69339.968916,47710.023375c0,0 9.8,-10.3 20.1,-10.3l0.4,4.5c0,0 -7.4,0 -20.5,5.8z" fill="#381218"/>
     <path stroke="null" id="svg_80" d="m69413.368916,47710.023375c0,0 -9.8,-10.3 -20.1,-10.3l-0.4,4.5c0,0 7.4,0 20.5,5.8z" fill="#381218"/>
    </g>
    <path stroke="null" id="svg_81" d="m69361.968916,47758.823375l32.8,0c0,0 -14.9,27.6 -32.8,0z" fill="#EF4136"/>
   </g>
   <path stroke="null" id="svg_82" fill="#F49B7F" d="m358.922404,278.316422l11.359408,0l0,11.407929l-11.359408,0l0,-11.407929z"/>
   <path stroke="null" id="svg_83" d="m374.647388,269.623982c-0.683049,-0.933899 -1.470041,-0.373559 -1.915508,0.114941c-0.326676,-2.816063 -0.965178,-5.589023 -2.004601,-6.134995c-1.915508,-1.020105 -6.102898,-1.020105 -6.102898,-1.020105s-4.18739,0 -6.102898,1.020105c-1.054272,0.560339 -1.677926,3.318932 -2.004601,6.134995c-0.445467,-0.488501 -1.232459,-1.04884 -1.915508,-0.114941c-0.876085,1.192517 0.683049,3.534447 1.648228,4.06605c-0.014849,0.790222 0.623654,3.002843 0.801841,3.433873c0.935481,2.284459 2.182788,2.77296 2.880686,3.376402c2.271882,1.968371 4.707101,2.025841 4.707101,2.025841s2.435219,-0.057471 4.707101,-2.025841c0.697898,-0.603442 1.737321,-1.149414 2.880686,-3.376402c0.207885,-0.416662 0.816689,-2.643651 0.801841,-3.433873c0.935481,-0.531604 2.494615,-2.873534 1.61853,-4.06605z" fill="#F9AB90"/>
   <path stroke="null" id="svg_84" d="m356.902953,271.836603c0,0 0.222733,-2.974108 0.6682,-4.640757c0.445467,-1.66665 1.499739,-3.290196 2.123393,-3.290196s1.61853,1.23562 4.632857,1.451135c3.014327,0.215515 5.746524,-0.488501 6.088049,0.057471c0.341525,0.545971 0.564258,1.408032 1.232459,2.859166c0.6682,1.451135 1.054272,4.267198 1.054272,4.267198s0.786992,-5.071787 0.786992,-6.53729c0,-1.451135 -0.222733,-3.893638 -2.850989,-5.617759c-2.628255,-1.72412 -7.751125,-1.839062 -9.488447,-1.408032c-1.722472,0.43103 -2.450068,1.896532 -2.450068,1.896532s-1.61853,0.330456 -2.28673,1.623547c-0.6682,1.29309 -0.786992,4.640757 -0.564258,5.933847c0.222733,1.307458 1.054272,3.405138 1.054272,3.405138z" fill="#763618"/>
   <path stroke="null" id="svg_85" d="m345.573243,321.132077c-0.074244,-2.801696 -0.6682,-24.640553 0,-29.209472c0.549409,-3.764329 3.088571,-5.48845 4.113145,-6.048789l0,35.258261l-4.113145,0z" fill="#F49B7F"/>
   <path stroke="null" id="svg_86" d="m379.532676,321.132077l0,-35.243893c1.024574,0.545971 3.563736,2.284459 4.113145,6.048789c0.6682,4.568919 0.089093,26.407776 0,29.209472l-4.113145,0l0,-0.014368z" fill="#F49B7F"/>
   <path stroke="null" id="svg_87" d="m384.74464,301.031707c0,-4.195359 -0.089093,-7.844747 -0.326676,-9.439559c-0.712747,-4.856272 -4.573461,-6.422348 -4.736799,-6.494187l0,0l-8.538117,-2.428136l-6.60776,5.905112l-6.355329,-5.905112l-8.642059,2.428136l0,0c0,0 -4.009203,1.537341 -4.736799,6.494187c-0.237582,1.594811 -0.326676,5.244199 -0.326676,9.439559l5.063475,0l0,20.114737l30.158114,0l0,-20.114737l5.048626,0z" fill="#017E82"/>
   <path stroke="null" id="svg_88" fill="#026868" d="m356.576278,283.115225l7.914463,7.528657l8.389628,-7.485557l-1.722474,-0.488499l-6.60776,5.905114l-6.370176,-5.905114l-1.603681,0.445399z"/>
   <path stroke="null" id="svg_89" d="m376.592594,294.551889l-6.771098,0c-0.430618,0 -0.786992,0.344824 -0.786992,0.761486l0,3.864903c0,0.416662 0.356374,0.761486 0.786992,0.761486l6.771098,0c0.430618,0 0.786992,-0.344824 0.786992,-0.761486l0,-3.864903c0,-0.416662 -0.356374,-0.761486 -0.786992,-0.761486z" fill="#FFFFFF"/>
   <path stroke="null" id="svg_90" fill="#A9ACBA" d="m369.821494,295.500153l2.405522,0l0,3.218358l-2.405522,0l0,-3.218358z"/>
   <path stroke="null" id="svg_91" fill="#A9ACBA" d="m372.494296,295.52889l4.098296,0l0,0.359192l-4.098296,0l0,-0.359192z"/>
   <path stroke="null" id="svg_92" fill="#A9ACBA" d="m372.494296,296.577729l4.098296,0l0,0.359192l-4.098296,0l0,-0.359192z"/>
   <path stroke="null" id="svg_93" fill="#A9ACBA" d="m372.494296,297.612202l4.098296,0l0,0.359192l-4.098296,0l0,-0.359192z"/>
   <path stroke="null" id="svg_94" d="m373.207045,293.172592c-0.222733,0 -0.386071,0.172412 -0.386071,0.373559l0,1.077575c0,0.215515 0.178187,0.373559 0.386071,0.373559c0.222733,0 0.386071,-0.172412 0.386071,-0.373559l0,-1.077575c0,-0.201147 -0.163338,-0.373559 -0.386071,-0.373559z" fill="#A9ACBA"/>
   <g stroke="null" id="svg_95" transform="matrix(0.14848899278990196,0,0,0.14367669328457727,-9894.475645732868,-6584.0451990241) ">
    <g stroke="null" id="svg_96">
     <g stroke="null" id="svg_97">
      <path stroke="null" id="svg_98" d="m69069.768916,47728.323375c-1.8,0 -3.3,-1.5 -3.3,-3.3l0,-4.3c0,-1.8 1.5,-3.3 3.3,-3.3c1.8,0 3.3,1.5 3.3,3.3l0,4.3c0,1.8 -1.5,3.3 -3.3,3.3z" fill="#381218"/>
     </g>
     <g stroke="null" id="svg_99">
      <path stroke="null" id="svg_100" d="m69109.968916,47728.323375c-1.8,0 -3.3,-1.5 -3.3,-3.3l0,-4.3c0,-1.8 1.5,-3.3 3.3,-3.3c1.8,0 3.3,1.5 3.3,3.3l0,4.3c0,1.8 -1.5,3.3 -3.3,3.3z" fill="#381218"/>
     </g>
    </g>
    <g stroke="null" id="svg_101">
     <path stroke="null" id="svg_102" d="m69053.168916,47710.023375c0,0 9.8,-10.3 20.1,-10.3l0.4,4.5c0,0 -7.4,0 -20.5,5.8z" fill="#381218"/>
     <path stroke="null" id="svg_103" d="m69126.568916,47710.023375c0,0 -9.8,-10.3 -20.1,-10.3l-0.4,4.5c0,0 7.4,0 20.5,5.8z" fill="#381218"/>
    </g>
   </g>
   <path stroke="null" id="svg_104" d="m361.788241,276.477361l5.508942,0c0,0 -0.26728,2.356298 -2.850989,2.356298c-2.583708,-0.014368 -2.657953,-2.356298 -2.657953,-2.356298z" fill="#EF4136"/>
   <g stroke="null" id="svg_105" transform="matrix(0.14848899278990196,0,0,0.14367669328457727,-9894.475645732868,-6584.0451990241) ">
    <path stroke="null" id="svg_106" d="m69837.868916,48059.323375l0,-235.6c0,0 -23.2,10 -27.5,42.4c-4.2,32.1 -0.1,190.1 0,193.1l27.5,0l0,0.1z" fill="#F49B7F"/>
    <path stroke="null" id="svg_107" d="m70033.868916,48059.323375c0.1,-3 4.2,-161 0,-193.1c-4.2,-32.4 -27.5,-42.4 -27.5,-42.4l0,235.5l27.5,0z" fill="#F49B7F"/>
   </g>
   <path stroke="null" id="svg_108" fill="#F49B7F" d="m483.296781,280.758926l9.785425,0l0,12.313091l-9.785425,0l0,-12.313091z"/>
   <path stroke="null" id="svg_109" d="m505.258306,293.215695c-0.623654,-4.612022 -4.009203,-6.063156 -4.083447,-6.091892l0,0l-7.350205,-2.284459l-5.80592,6.307407l-5.375302,-6.307407l-7.439299,2.284459l0,0c-0.074244,0.028735 -3.459794,1.494238 -4.083447,6.091892c-0.222733,1.66665 -0.282129,5.675229 -0.282129,10.143575l4.350727,0l0,17.600395l25.985574,0l0,-17.614763l4.350727,0c0.014849,-4.468345 -0.044547,-8.476925 -0.26728,-10.129207z" fill="#017E82"/>
   <path stroke="null" id="svg_110" d="m498.947524,294.379477l-6.771098,0c-0.430618,0 -0.786992,0.344824 -0.786992,0.761486l0,3.864903c0,0.416662 0.356374,0.761486 0.786992,0.761486l6.771098,0c0.430618,0 0.786992,-0.344824 0.786992,-0.761486l0,-3.864903c-0.014849,-0.43103 -0.356374,-0.761486 -0.786992,-0.761486z" fill="#FFFFFF"/>
   <path stroke="null" id="svg_111" fill="#A9ACBA" d="m492.161584,295.327744l2.405522,0l0,3.218358l-2.405522,0l0,-3.218358z"/>
   <path stroke="null" id="svg_112" fill="#A9ACBA" d="m494.849231,295.356477l4.098298,0l0,0.359192l-4.098298,0l0,-0.359192z"/>
   <path stroke="null" id="svg_113" fill="#A9ACBA" d="m494.849231,296.39095l4.098298,0l0,0.359192l-4.098298,0l0,-0.359192z"/>
   <path stroke="null" id="svg_114" fill="#A9ACBA" d="m494.849231,297.425424l4.098298,0l0,0.359192l-4.098298,0l0,-0.359192z"/>
   <path stroke="null" id="svg_115" d="m495.561975,292.985813c-0.222733,0 -0.386071,0.172412 -0.386071,0.373559l0,1.077575c0,0.215515 0.178187,0.373559 0.386071,0.373559s0.386071,-0.172412 0.386071,-0.373559l0,-1.063208c0,-0.215515 -0.178187,-0.387927 -0.386071,-0.387927z" fill="#A9ACBA"/>
   <path stroke="null" id="svg_116" fill="#026868" d="m487.929648,293.05765l7.261097,-7.772906l-1.440336,-0.445398l-5.805917,6.307405l-5.375312,-6.307405l-1.366091,0.416661l6.726559,7.801643z"/>
   <path stroke="null" id="svg_117" d="m485.420177,296.003023l-14.002512,0c-0.980027,0 -1.781868,0.775854 -1.781868,1.72412l0,21.695181c0,0.948266 0.801841,1.72412 1.781868,1.72412l14.002512,0c0.980027,0 1.781868,-0.775854 1.781868,-1.72412l0,-21.695181c0,-0.962634 -0.801841,-1.72412 -1.781868,-1.72412z" fill="#913A1F"/>
   <path stroke="null" id="svg_118" d="m469.071539,306.778775l2.197637,-0.775854c0.460316,-0.158044 0.935481,0.158044 0.935481,0.632177l0,0c0,0.272986 -0.163338,0.517236 -0.415769,0.61781l-2.212486,0.933899c-0.475165,0.201147 -1.009725,-0.158044 -0.980027,-0.660913l0.014849,-0.158044c0.014849,-0.258618 0.193036,-0.502868 0.460316,-0.589074z" fill="#F49B7F"/>
   <path stroke="null" id="svg_119" d="m469.071539,308.47416l2.583708,-0.905163c0.460316,-0.158044 0.935481,0.158044 0.935481,0.632177l0,0c0,0.272986 -0.163338,0.517236 -0.415769,0.61781l-2.583708,1.063208c-0.475165,0.201147 -1.009725,-0.158044 -0.980027,-0.660913l0.014849,-0.158044c0,-0.258618 0.178187,-0.488501 0.445467,-0.589074z" fill="#F49B7F"/>
   <path stroke="null" id="svg_120" d="m469.071539,310.169545l2.583708,-0.905163c0.460316,-0.158044 0.935481,0.158044 0.935481,0.632177l0,0c0,0.272986 -0.163338,0.517236 -0.415769,0.61781l-2.583708,1.063208c-0.475165,0.201147 -1.009725,-0.158044 -0.980027,-0.660913l0.014849,-0.158044c0,-0.272986 0.178187,-0.502868 0.445467,-0.589074z" fill="#F49B7F"/>
   <path stroke="null" id="svg_121" d="m469.160632,311.821827l1.915508,-0.67528c0.40092,-0.143677 0.816689,0.143677 0.816689,0.560339l0,0c0,0.229883 -0.148489,0.445398 -0.371222,0.545971l-1.930357,0.818957c-0.415769,0.172412 -0.876085,-0.129309 -0.861236,-0.574707l0.014849,-0.143677c0.029698,-0.24425 0.178187,-0.445398 0.415769,-0.531604z" fill="#F49B7F"/>
   <g stroke="null" id="svg_122" transform="matrix(0.14848899278990196,0,0,0.14367669328457727,-9894.475645732868,-6584.0451990241) ">
    <path stroke="null" id="svg_123" d="m69982.668916,47719.023375c-4.5,-6.1 -9,-2.4 -11.5,0.8c-2.9,-18.2 -7.4,-35.4 -13.6,-38.7c-11.3,-6.1 -35.3,-6.1 -35.3,-6.1s-24.1,0 -35.3,6.1c-6.2,3.4 -10.7,20.6 -13.6,38.7c-2.5,-3.2 -7,-6.9 -11.5,-0.8c-5.9,7.9 2.7,23.8 8.4,27.4c-0.4,5.5 6.8,35.9 21.4,49.8c8.2,7.8 16.1,11.3 22,15.4c5.2,3.6 12.1,3.6 17.4,0c6,-4.1 14.6,-6.8 22,-15.4c14.5,-16.9 21.8,-44.3 21.4,-49.8c5.4,-3.6 14,-19.5 8.2,-27.4z" fill="#F9AB90"/>
   </g>
   <g stroke="null" id="svg_124" transform="matrix(0.14848899278990196,0,0,0.14367669328457727,-9894.475645732868,-6584.0451990241) ">
    <g stroke="null" id="svg_125">
     <g stroke="null" id="svg_126">
      <path stroke="null" id="svg_127" d="m69904.168916,47744.323375c-1.6,0 -3,-1.3 -3,-3l0,-3.8c0,-1.6 1.3,-3 3,-3c1.6,0 3,1.3 3,3l0,3.8c0,1.7 -1.4,3 -3,3z" fill="#381218"/>
     </g>
     <g stroke="null" id="svg_128">
      <path stroke="null" id="svg_129" d="m69940.068916,47744.323375c-1.6,0 -3,-1.3 -3,-3l0,-3.8c0,-1.6 1.3,-3 3,-3c1.6,0 3,1.3 3,3l0,3.8c0,1.7 -1.3,3 -3,3z" fill="#381218"/>
     </g>
    </g>
    <g stroke="null" id="svg_130">
     <path stroke="null" id="svg_131" d="m69889.268916,47731.023375c0,0 8.8,-9.2 18,-9.2l0.4,4c0,0.1 -6.6,0.1 -18.4,5.2z" fill="#381218"/>
     <path stroke="null" id="svg_132" d="m69954.968916,47731.023375c0,0 -8.8,-9.2 -18,-9.2l-0.4,4c0,0.1 6.6,0.1 18.4,5.2z" fill="#381218"/>
    </g>
   </g>
   <path stroke="null" id="svg_133" d="m482.034628,281.017544c0,0 5.642582,3.994212 12.220644,0.014368c0,0 0.430618,0.114941 -0.475165,0.67528c-0.890934,0.560339 -4.98923,3.031578 -11.19607,0.100574c-0.193036,-0.086206 -0.356374,-0.201147 -0.490014,-0.359192c-0.13364,-0.143677 -0.222733,-0.330456 -0.059396,-0.43103z" fill="#017E82"/>
   <path stroke="null" id="svg_134" d="m481.678254,277.411259c0.326676,1.393664 1.143365,4.43961 2.360975,5.646494c0.089093,0.086206 0.193036,0.129309 0.296978,0.158044c0.876085,0.129309 5.048626,0.67528 8.181744,0.028735c0.163338,-0.028735 0.296978,-0.143677 0.371222,-0.287353c0.341525,-0.704016 1.366099,-2.916637 1.811566,-5.48845c0.059396,-0.344824 -0.207885,-0.660913 -0.564258,-0.632177c-1.722472,0.086206 -6.60776,0.287353 -11.923666,-0.071838c-0.341525,-0.057471 -0.623654,0.287353 -0.53456,0.646545z" fill="#017E82"/>
   <path stroke="null" id="svg_135" d="m480.92096,272.942914c0,0 0.935481,3.448241 1.187912,3.893638c0.252431,0.445398 -0.430618,0.574707 -0.430618,0.574707s-1.039423,-2.787328 -0.757294,-4.468345z" fill="#017E82"/>
   <path stroke="null" id="svg_136" d="m495.383788,272.942914c0,0 -0.935481,3.448241 -1.187912,3.893638c-0.252431,0.445398 0.430618,0.574707 0.430618,0.574707s1.039423,-2.787328 0.757294,-4.468345z" fill="#017E82"/>
   <path stroke="null" id="svg_137" d="m481.0546,273.632562c0,0 0.638503,-2.787328 1.202761,-3.505711c0.579107,-0.718383 8.924188,-1.393664 10.082403,-0.775854c1.158214,0.61781 1.900659,1.005737 1.900659,1.005737l1.158214,3.620653c0,0 0.801841,-1.839062 0.801841,-2.672386s-2.479766,-4.841905 -7.602636,-4.841905c-5.12287,0 -8.181744,3.060314 -8.285686,3.290196c-0.118791,0.229883 -0.118791,1.72412 -0.118791,1.72412s0.40092,1.436767 0.861236,2.15515z" fill="#381218"/>
   <path stroke="null" id="svg_138" d="m480.178515,271.463044c0,0 7.95901,-3.620653 16.066509,0.100574c0,0 1.544286,-6.795908 -2.821291,-9.238411c-5.063475,-2.830431 -11.225768,-1.063208 -12.725507,2.226989c-1.470041,3.218358 -0.519711,6.910849 -0.519711,6.910849z" fill="#017E82"/>
   <path stroke="null" id="svg_139" fill="#F2E29B" d="m335.134467,324.982612l179.731081,0l0,48.720768l-179.731081,0l0,-48.720768z"/>
   <path stroke="null" id="svg_140" d="m516.959239,321.189548l-183.918466,0c-0.935481,0 -1.692775,0.732751 -1.692775,1.637914l0,3.290196c0,0.905163 0.757294,1.637914 1.692775,1.637914l183.918466,0c0.935481,0 1.692775,-0.732751 1.692775,-1.637914l0,-3.290196c0,-0.905163 -0.757294,-1.637914 -1.692775,-1.637914z" fill="#FFF3B4"/>
  </g>
 </g>
</svg>