<svg id="Layer_2" enable-background="new 0 0 512 512" height="512" viewBox="0 0 512 512" width="512" xmlns="http://www.w3.org/2000/svg"><g><g><path d="m102.617 450h368v52h-368z" fill="#edeff1"/></g><g><path d="m289.617 450v-50h41c49.706 0 90-40.294 90-90s-40.294-90-90-90v-50c77.32 0 140 62.68 140 140s-62.68 140-140 140z" fill="#d3d3d3"/></g><g><path d="m214.826 145.227h203.892v99.999h-203.892z" fill="#edeff1" transform="matrix(.707 -.707 .707 .707 -45.265 281.172)"/></g><g><path d="m449.57 2.429h20v99.999h-20z" fill="#6e83b7" transform="matrix(.707 -.707 .707 .707 97.532 340.321)"/></g><g><path d="m375.68 51.319h89.999v79.999h-89.999z" fill="#edeff1" transform="matrix(.707 -.707 .707 .707 58.642 324.212)"/></g><g><path d="m387.395 79.604h10v79.999h-10z" fill="#d3d3d3" transform="matrix(.707 -.707 .707 .707 30.357 312.496)"/></g><g><path d="m227.613 214.383h20v119.999h-20z" fill="#6e83b7" transform="matrix(.707 -.707 .707 .707 -124.423 248.383)"/></g><g><circle cx="370.617" cy="206" fill="#6e83b7" r="40"/></g><g><circle cx="370.617" cy="206" fill="#edeff1" r="24"/></g><g><path d="m203.483 235.324h20v223.609h-20z" fill="#466089" transform="matrix(.707 -.707 .707 .707 -182.929 252.627)"/></g><g><circle cx="289.617" cy="425" fill="#6e83b7" r="40"/></g><g><circle cx="289.617" cy="425" fill="#d3d3d3" r="24"/></g><path d="m220 39h-210v154h129.149l40.851 40v-40h40z" fill="#edeff1"/><g fill="#ffb0aa"><path d="m170 178h-10v-79c0-24.813-20.187-45-45-45s-45 20.187-45 45v79h-10v-79c0-30.327 24.673-55 55-55s55 24.673 55 55z"/><path d="m150 106h-10v-7c0-6.806-2.699-13.174-7.6-17.931-4.897-4.754-11.348-7.259-18.16-7.058l-.297-9.995c9.537-.29 18.568 3.225 25.422 9.877 6.858 6.657 10.635 15.574 10.635 25.107z"/><path d="m90 113.5h-10v-13.862c0-14.992 9.318-28.477 23.188-33.555l3.438 9.391c-9.944 3.64-16.626 13.352-16.626 24.164z"/><path d="m91.718 169.134c-7.447-6.639-11.718-16.164-11.718-26.134v-20.054h10v20.054c0 7.121 3.052 13.926 8.372 18.669z"/><path d="m115 178c-5.352 0-10.491-1.178-15.274-3.501l4.369-8.995c3.41 1.656 7.079 2.496 10.905 2.496 13.785 0 25-11.215 25-25v-30h10v30c0 19.299-15.701 35-35 35z"/><path d="m115 157c-8.271 0-15-6.729-15-15v-14.071h10v14.071c0 2.757 2.243 5 5 5s5-2.243 5-5v-22.398h10v22.398c0 8.271-6.729 15-15 15z"/><path d="m110 119.893h-10v-20.893c0-8.271 6.729-15 15-15s15 6.729 15 15v11.571h-10v-11.571c0-2.757-2.243-5-5-5s-5 2.243-5 5z"/></g></g></svg>