<?xml version="1.0"?>
<svg xmlns="http://www.w3.org/2000/svg" height="512px" viewBox="0 0 512 512" width="512px" class="hovered-paths"><g><path d="m511.953125 353.050781c.273437-3.921875-.972656-7.949219-3.816406-11.101562-23.578125-26.121094-57.125-41.953125-94.464844-44.578125-37.242187-2.617188-73.054687 8.273437-100.84375 30.667968l-11.121094 8.960938h-56.707031c-16.714844 0-31.320312 9.167969-39.078125 22.730469l-62.042969-34.707031c-11.402344-6.378907-24.570312-7.8125-37.078125-4.039063-12.503906 3.777344-22.679687 12.257813-28.648437 23.878906-11.773438 22.929688-3.386719 50.773438 19.085937 63.386719l181.417969 101.828125c2.242188 1.261719 4.773438 1.921875 7.34375 1.921875h211c8.285156 0 15-6.714844 15-15v-143c0-.320312-.027344-.632812-.046875-.949219zm0 0" fill="#ffbeaa" data-original="#FFBEAA"/><path d="m511.953125 353.050781c.273437-3.921875-.972656-7.949219-3.816406-11.101562-23.578125-26.121094-57.125-41.953125-94.464844-44.578125-37.242187-2.617188-73.054687 8.273437-100.84375 30.667968l-11.121094 8.960938h-9.292969v175h204.585938c8.285156 0 15-6.714844 15-15v-143c0-.320312-.027344-.632812-.046875-.949219zm0 0" fill="#faa68f" data-original="#FAA68F" class=""/><path d="m175 302c-3.820312 0-7.636719-1.449219-10.5625-4.351562l-136.566406-135.429688c-17.988282-17.988281-27.871094-41.84375-27.871094-67.21875s9.882812-49.230469 27.824219-67.175781c17.945312-17.941407 41.800781-27.824219 67.175781-27.824219s49.230469 9.882812 67.175781 27.824219l12.824219 12.824219 12.824219-12.824219c17.945312-17.941407 41.800781-27.824219 67.175781-27.824219s49.230469 9.882812 67.175781 27.824219c17.941407 17.945312 27.824219 41.800781 27.824219 67.175781s-9.882812 49.230469-27.824219 67.175781l-136.613281 135.472657c-2.925781 2.902343-6.742188 4.351562-10.5625 4.351562zm0 0" fill="#fc0023" data-original="#FC0023"/><path d="m322.175781 27.824219c-17.945312-17.941407-41.800781-27.824219-67.175781-27.824219s-49.230469 9.882812-67.175781 27.824219l-12.824219 12.824219v261.351562c3.820312 0 7.636719-1.449219 10.5625-4.351562l136.613281-135.472657c17.941407-17.945312 27.824219-41.800781 27.824219-67.175781s-9.882812-49.230469-27.824219-67.175781zm0 0" fill="#c9001c" data-original="#C9001C" class="active-path" style="fill:#C9001C"/><path d="m205 136h-15v-15c0-8.285156-6.714844-15-15-15s-15 6.714844-15 15v15h-15c-8.285156 0-15 6.714844-15 15s6.714844 15 15 15h15v15c0 8.285156 6.714844 15 15 15s15-6.714844 15-15v-15h15c8.285156 0 15-6.714844 15-15s-6.714844-15-15-15zm0 0" fill="#e1ebf0" data-original="#E1EBF0" class=""/><path d="m190 181v-15h15c8.285156 0 15-6.714844 15-15s-6.714844-15-15-15h-15v-15c0-8.285156-6.714844-15-15-15v90c8.285156 0 15-6.714844 15-15zm0 0" fill="#cde1e6" data-original="#CDE1E6"/><path d="m336 427h-90.21875c-24.558594 0-45.183594-19.355469-45.769531-43.910156-.203125-8.503906 1.976562-16.496094 5.902343-23.359375l-26.167968-14.640625c-6.15625 10.835937-9.699219 23.335937-9.746094 36.652344-.140625 41.394531 34.574219 75.257812 75.96875 75.257812h90.03125c8.285156 0 15-6.714844 15-15s-6.714844-15-15-15zm0 0" fill="#faa68f" data-original="#FAA68F" class=""/><path d="m292.417969 457h43.582031c8.285156 0 15-6.714844 15-15s-6.714844-15-15-15h-43.582031zm0 0" fill="#e09380" data-original="#E09380" class=""/></g> </svg>
