<?xml version="1.0" encoding="utf-8"?>
<svg id="master-artboard" viewBox="0 0 1400 980" version="1.1" xmlns="http://www.w3.org/2000/svg" x="0px" y="0px" width="1400px" height="980px" enable-background="new 0 0 1400 980" xmlns:xlink="http://www.w3.org/1999/xlink">
<path d="M -6.465 -7.225 H 1406.465054 V 987.225012 H -6.465 V -7.225 Z" fill="#B6F1B1" transform="matrix(1, 0, 0, 1, 0, -7.105427357601002e-15)" style="fill-opacity: 1;"/>
<g transform="matrix(1, 0, 0, 1, 0, -7.105427357601002e-15)">
		<defs>
			<path d="M -6.465 -7.225 H 1406.465054 V 987.225012 H -6.465 V -7.225 Z" id="SVGID_1_"/>
		</defs>
		<clipPath id="SVGID_2_">
			<use overflow="visible" xlink:href="#SVGID_1_"/>
		</clipPath>
		<path opacity="0.83" clip-path="url(#SVGID_2_)" fill="#95D68E" d="M1481.552,316.899&#10;&#9;&#9;&#9;c-0.315-104.527-0.761-210.181-25.213-311.809c-10.997-45.706-92.772-41.306-128.828-41.369&#10;&#9;&#9;&#9;c-67.601-0.118-135.176,1.962-202.755,3.393c-15.671,0.332-32.053-0.755-47.613,1.151c-12.374,1.516-15.135,5.793-21.389,15.87&#10;&#9;&#9;&#9;c-13.446,21.666-35.131,37.451-61.422,37.977c-2.003,0.04-4.102-0.028-5.851-1.006c-3.138-1.754-4.132-5.762-6.503-8.465&#10;&#9;&#9;&#9;c-3.553-4.052-9.565-4.61-14.953-4.726c-11.559-0.25-23.133,0.218-34.633,1.398c-2.837,0.291-6.203,1.02-7.209,3.687&#10;&#9;&#9;&#9;c-1.062,2.814,1.354,5.774,3.976,7.249s5.728,2.322,7.678,4.612c3.772,4.43,1.176,11.356,2.961,16.895&#10;&#9;&#9;&#9;c2.177,6.754,10.352,9.703,17.437,9.31c7.086-0.393,13.872-3.127,20.949-3.641c7.078-0.515,15.291,2.11,17.812,8.743&#10;&#9;&#9;&#9;c1.552,4.082,0.576,8.688,1.446,12.967c2.508,12.326,13.137,12.863,21.943,17.455c12.635,6.587,22.104,15.371,29.271,28.114&#10;&#9;&#9;&#9;c1.495,2.659,2.863,5.496,3.057,8.54c0.354,5.556-3.349,10.71-7.969,13.818c-13.36,8.99-31.645,3.526-45.437-4.787&#10;&#9;&#9;&#9;c-13.791-8.313-26.705-19.469-42.62-21.922c-4.475,8.798-3.137,20.224,3.25,27.75c3.504,4.128,8.535,7.49,9.646,12.789&#10;&#9;&#9;&#9;c1.524,7.269-5.004,13.424-10.463,18.458c-5.46,5.034-10.772,13.028-6.768,19.283c5.618,0.588,11.237,1.177,16.855,1.766&#10;&#9;&#9;&#9;c2.384,12.211-11.387,22.429-23.825,22.112c-12.438-0.317-23.537-7.318-34.778-12.651c-8.761-4.156-20.114-7.056-27.4-0.658&#10;&#9;&#9;&#9;c-3.767,3.308-5.436,8.369-8.484,12.349c-12.867,16.802-41.914,7.525-58.493,20.678c-11.118,8.821-13.794,25.712-25.645,33.523&#10;&#9;&#9;&#9;c-10.535,6.944-24.386,4.306-36.826,2.201c-18.462-3.124-61.688-15.079-68.967,9.547c-1.573,5.321,0.194,12.073,5.294,14.258&#10;&#9;&#9;&#9;c2.44,1.045,5.202,0.908,7.816,1.366c9.118,1.597,15.671,10.883,15.819,20.138c0.148,9.254-5.13,18.001-12.329,23.818&#10;&#9;&#9;&#9;c-4.09,3.305-9.032,6.098-11.13,10.92c-2.187,5.028-0.667,10.968-2.296,16.203c-2.297,7.377-10.328,11.557-17.995,12.508&#10;&#9;&#9;&#9;s-15.423-0.505-23.147-0.354c-12.899,0.253-25.657,5.171-35.389,13.642c-3.954,3.441-7.533,7.664-8.732,12.767&#10;&#9;&#9;&#9;c-1.07,4.557-0.142,9.327-0.42,13.999c-0.68,11.405-8.364,21.087-16.298,29.306c-19.678,20.383-43.228,36.976-68.939,48.852&#10;&#9;&#9;&#9;c-23.956,11.064-48.483,14.41-69.651,30.844c-24.272,18.842-37.649,44.049-66.751,58.406c-5.486,2.706-11.34,5.221-15.277,9.901&#10;&#9;&#9;&#9;s-5.148,12.358-0.811,16.672c3.848,3.825,10.222,3.533,14.779,6.479c8.524,5.51,7.089,19.195,14.408,26.227&#10;&#9;&#9;&#9;c4.37,4.198,12.035,6.604,12.05,12.663c0.006,2.563-1.542,4.854-3.187,6.821c-12.165,14.549-31.908,20.43-50.789,22.216&#10;&#9;&#9;&#9;s-38.054,0.246-56.747,3.445c-6.797,1.164-13.578,2.957-20.469,2.67c-7.471-0.312-14.59-3.045-21.722-5.291&#10;&#9;&#9;&#9;c-17.886-5.633-46.625-13.155-65.263-7.509c-10.535,3.191-11.244,0.157-8.848,11.445c1.628,7.671,12.571,10.25,13.409,12.669&#10;&#9;&#9;&#9;c1.682,4.856-1.77,10.289-6.355,12.613c-4.588,2.324-9.959,2.325-15.103,2.275c-20.788-0.201-41.575-0.402-62.363-0.604&#10;&#9;&#9;&#9;c-4.992-0.049-10.215-0.045-14.644,2.259c-2.57,1.337-4.699,3.365-6.846,5.31c-3.499,3.167-7.14,6.174-10.779,9.18&#10;&#9;&#9;&#9;c-3.432,2.834-6.864,5.669-10.297,8.503c-7.016,5.794-14.5,11.807-23.488,13.22c-4.516,0.71-9.187,0.204-13.641,1.23&#10;&#9;&#9;&#9;s-8.947,4.284-9.218,8.847c-0.292,4.922,4.489,8.817,9.298,9.903c4.809,1.086,9.831,0.277,14.745,0.672&#10;&#9;&#9;&#9;c18.066,1.451,31.393,17.854,49.879,17.457c6.816-0.146,17.634-8.006,23.714-5.362c9.804,4.263,7.628,18.219,3.125,25.304&#10;&#9;&#9;&#9;c-10.358,16.299-32.495,19.572-51.804,19.955c-9.356,0.186-18.874,0.05-27.82-2.694c-8.855-2.716-16.782-7.877-25.545-10.874&#10;&#9;&#9;&#9;c-23.462-8.025-49.185,0.367-71.848,10.432c-46.142,20.491-98.424,63.955-75.078,120.713&#10;&#9;&#9;&#9;c14.446,35.121,52.803,45.522,85.344,57.313c46.458,16.835,100.933,14.671,149.574,14.69&#10;&#9;&#9;&#9;c398.903,0.165,797.807,0.329,1196.71,0.493c47.65,0.02,95.854-0.024,142.126-11.402&#10;&#9;&#9;&#9;C1482.823,783.379,1482.255,549.352,1481.552,316.899z M180.599,811.23c0.161-0.959,0.224-1.935,0.178-2.912&#10;&#9;&#9;&#9;c-1.896-1.315-4.277-1.665-6.414-2.534c-2.136-0.869-4.25-2.67-4.166-4.975c0.141-3.859,5.454-4.709,9.305-4.431&#10;&#9;&#9;&#9;c14.625,1.058,30.228,0.848,42.696-6.869c5.313-3.288,10.033-7.92,16.117-9.346c5.436-1.273,11.243,0.221,16.666-1.106&#10;&#9;&#9;&#9;c7.657-1.875,13.314-9.049,21.088-10.359c0.688-0.116,1.499-0.143,1.967,0.374c0.37,0.408,0.39,1.016,0.381,1.566&#10;&#9;&#9;&#9;c-0.058,3.83-0.419,8.025,1.839,11.119c2.638,3.615,7.663,4.197,11.937,5.522s8.864,5.175,7.456,9.423&#10;&#9;&#9;&#9;c-1.597,4.821-8.693,4.486-12.591,7.742c-2.742,2.289-3.614,6.163-6.034,8.791c-4.192,4.553-11.39,4.045-17.229,6.093&#10;&#9;&#9;&#9;c-0.814,0.285-1.678,0.688-2.044,1.471c-0.348,0.744-0.147,1.624-0.298,2.432c-0.511,2.727-4.218,3.097-6.984,2.881&#10;&#9;&#9;&#9;c-6.793-0.531-15.149,0.264-18.047,6.431c-0.631,1.344-0.9,2.984-0.183,4.283c0.758,1.374,2.37,1.991,3.853,2.504&#10;&#9;&#9;&#9;c8.095,2.798,16.189,5.595,24.284,8.393c1.425,1.605,0.72,4.308-0.9,5.717c-1.62,1.41-3.836,1.863-5.945,2.268&#10;&#9;&#9;&#9;c-7.897,1.511-15.906,3.029-23.923,2.422c-10.966-0.83-21.365-7.51-29.559-14.483c-2.503-2.131-4.927-4.553-8.056-5.561&#10;&#9;&#9;&#9;c-1.918-0.617-3.969-0.654-5.984-0.685c-9.325-0.125-18.604,1.09-27.949,0.573c-3.485-0.192-9.775,0.007-12.646-2.445&#10;&#9;&#9;&#9;c-5.493-4.692,1.414-10.261,6.692-11.088c4.539-0.711,9.279,0.173,13.711-1.039C175.347,821.889,179.657,816.848,180.599,811.23z&#10;&#9;&#9;&#9; M299.166,970.872c-41.723,2.967-85.146,5.687-123.939-9.957c-3.735-1.507-7.427-3.184-11.341-4.135&#10;&#9;&#9;&#9;c-8.666-2.104-16.817,2.114-24.866,0.186c-3.381-0.811-6.537-3.7-6.427-7.175c0.111-3.527,3.34-6.119,6.514-7.663&#10;&#9;&#9;&#9;c16.083-7.823,31.787-16.272,49.06-21.605c11.345-3.503,50.201-15.993,60.959-10.125c12.287,6.702-1.779,24.68,8.88,33.751&#10;&#9;&#9;&#9;c1.913,1.628,4.376,2.424,6.763,3.207c7.243,2.375,14.413,4.974,21.496,7.79C293.25,957.922,301.554,963.744,299.166,970.872z&#10;&#9;&#9;&#9; M801.054,416.69c-7.043,8.151-9.382,20.106-5.929,30.311c7.598,0.124,15.195,0.249,22.794,0.373&#10;&#9;&#9;&#9;c1.071,5.958,0.921,12.133-0.44,18.032c-0.313,1.356-0.721,2.756-1.676,3.769c-1.02,1.082-2.514,1.562-3.961,1.904&#10;&#9;&#9;&#9;c-11.461,2.704-24.253-1.276-32.156-10.007c-2.669-2.948-4.883-6.444-8.276-8.518c-3.14-1.918-6.929-2.392-10.594-2.712&#10;&#9;&#9;&#9;c-15.077-1.319-94.546-0.821-62.48-29.832c20.881-18.892,57.622-0.833,82.732-14.23c5.022-2.679,9.518-6.258,14.521-8.969&#10;&#9;&#9;&#9;c9.874-5.35,21.647-7.103,32.651-4.862C822.588,402.93,809.13,407.344,801.054,416.69z M1270.951,140.393&#10;&#9;&#9;&#9;c9.915-6.846,23.352-8.783,30.91-18.167c7.447-9.267,6.995-26.277,20.774-28.724c21.944-3.896,8.842,27.858,4.024,38.624&#10;&#9;&#9;&#9;c12.986,0.249,26.009-1.488,38.476-5.133c3.92,6.835-1.513,15.809-8.65,19.145c-7.139,3.336-15.358,2.988-23.169,4.028&#10;&#9;&#9;&#9;c-20.156,2.684-39.743,14.923-59.506,10.134c-3.923-0.95-8.081-2.969-9.411-6.78&#10;&#9;&#9;&#9;C1262.665,148.549,1266.619,143.384,1270.951,140.393z M1077.013,42.637c3.825-1.673,8.254-2.101,11.554-4.655&#10;&#9;&#9;&#9;c1.732-1.341,3.013-3.171,4.556-4.728c4.352-4.389,9.721-4.823,15.271-6.462c7.83-2.312,15.511-5.64,23.231-8.329&#10;&#9;&#9;&#9;c16.356-5.697,36.675-16.717,53.231-7.906c9.824,5.228,29.813,27.154,26.521,39.484c-0.481,1.805-1.299,3.632-2.829,4.704&#10;&#9;&#9;&#9;c-0.961,0.673-2.123,0.991-3.271,1.231c-18.696,3.909-39.979-5.802-59.253-5.118c-9.13,0.325-18.261,0.649-27.392,0.974&#10;&#9;&#9;&#9;c-1.449,0.051-3.285,0.412-3.569,1.833c-0.13,0.646,0.14,1.297,0.261,1.945c0.529,2.823-1.924,5.51-4.688,6.293&#10;&#9;&#9;&#9;s-5.708,0.166-8.513-0.454c-8.194-1.809-16.389-3.619-24.583-5.428c-2.019-0.446-4.192-0.983-5.507-2.579&#10;&#9;&#9;&#9;c-2.792-3.388,0.434-8.629,4.388-10.535C1076.616,42.814,1076.813,42.724,1077.013,42.637z M991.512,173.789&#10;&#9;&#9;&#9;c9.294-10.898,60.604-31.548,57.683-1.305c-1.069,11.069-20.819,15.652-28.799,12.933&#10;&#9;&#9;&#9;C1012.882,182.857,1000.863,162.824,991.512,173.789z M1041.042,272.046c-8.032-1.631-14.459-4.321-15.215-7.4&#10;&#9;&#9;&#9;c-0.809-3.293,1.831-6.562,4.902-8.002c3.071-1.44,6.56-1.645,9.827-2.554c8.913-2.478,15.578-9.953,24.105-13.539&#10;&#9;&#9;&#9;c4.371-1.838,9.105-2.601,13.787-3.349c15.327-2.448,30.654-4.896,45.98-7.345c3.427-0.547,7.029-1.08,10.289,0.11&#10;&#9;&#9;&#9;c3.259,1.189,5.935,4.741,4.895,8.05c-0.938,2.984-4.535,5.821-2.826,8.442c0.636,0.976,1.822,1.407,2.927,1.777&#10;&#9;&#9;&#9;c7.47,2.502,14.938,5.004,22.408,7.506c3.05,1.021,6.75,3.016,6.316,6.202c-0.324,2.384-2.863,3.719-5.114,4.569&#10;&#9;&#9;&#9;c-11.311,4.268-23.487,6.222-35.565,5.708c-17.262-0.735-34.173-6.431-51.437-5.734&#10;&#9;&#9;&#9;C1075.413,274.479,1055.594,275.001,1041.042,272.046z M1300.543,712.687c-20.084,10.65-44.439,12.944-66.16,6.231&#10;&#9;&#9;&#9;c-9.933-3.07-19.388-7.944-29.684-9.385c12.975-7.965,27.64-13.16,42.734-15.142l4.014,1.494&#10;&#9;&#9;&#9;c2.744,9.051,14.268,11.801,23.711,11.283c9.443-0.517,19.717-2.554,27.758,2.425&#10;&#9;&#9;&#9;C1302.125,710.624,1301.334,711.655,1300.543,712.687z M1390.314,589.11c-2.049-1.497-4.071-3.11-6.454-3.983&#10;&#9;&#9;&#9;c-2.3-0.842-4.794-0.942-7.241-1.033c-14.92-0.557-29.84-1.112-44.76-1.668c10.267-2.209,20.533-4.417,30.8-6.626&#10;&#9;&#9;&#9;c13.427-2.889,36.717-19.061,48.388-6.609C1424.737,583.795,1405.701,600.36,1390.314,589.11z M1434.64,447.737&#10;&#9;&#9;&#9;c-1.02,3.173-2.231,6.604-5.053,8.378c-2.253,1.417-5.073,1.47-7.735,1.479c-20.427,0.071-40.856,0.053-61.283,0.212&#10;&#9;&#9;&#9;c-16.975,0.132-30.817,7.762-47.016,11.474c-19.349,4.433-39.5,0.034-58.858-4.358c-2.454-0.557-5.503-1.851-5.355-4.363&#10;&#9;&#9;&#9;c0.149-2.539,3.372-3.443,5.896-3.759c6.617-0.83,13.161-2.24,19.532-4.21c1.969-0.609,4.011-1.328,5.403-2.847&#10;&#9;&#9;&#9;s1.862-4.084,0.479-5.611c-1.191-1.314-3.178-1.397-4.936-1.63c-6.172-0.819-11.523-4.513-17.282-6.876&#10;&#9;&#9;&#9;c-16.012-6.571-34.133-2.616-51.435-3.062c-3.554-0.092-8.135-1.349-8.318-4.899c9.479-4.314,19.698-6.998,30.074-7.897&#10;&#9;&#9;&#9;c5.166-0.448,11.1-0.82,14.223-4.958c1.418-1.878,2.05-4.344,3.811-5.907c2.388-2.119,5.974-1.889,9.156-1.64&#10;&#9;&#9;&#9;c15.207,1.193,30.6-0.02,45.433-3.581c3.61-0.867,8.146-3.733,6.561-7.09c-0.538-1.139-1.683-1.853-2.8-2.437&#10;&#9;&#9;&#9;c-13.78-7.207-30.621-3.876-45.749-7.482c-4.204-1.002-8.259-2.539-12.3-4.072c-9.921-3.764-19.842-7.527-29.762-11.29&#10;&#9;&#9;&#9;c-2.094-0.794-4.271-1.644-5.773-3.305c-1.502-1.661-2.074-4.394-0.659-6.13c0.819-1.005,2.114-1.483,3.366-1.821&#10;&#9;&#9;&#9;c11.539-3.114,23.498,1.932,35.324,3.656c15.852,2.311,31.897-1.418,47.447-5.264c5.237-1.295,10.973-2.954,13.875-7.501&#10;&#9;&#9;&#9;c1.991-3.119,2.233-7.011,3.467-10.499c2.694-7.624,10.068-12.832,17.844-15.05c9.687-2.763,19.961-1.362,29.793-2.34&#10;&#9;&#9;&#9;c7.602-0.756,14.994-1.179,22.637-0.494c14.131,1.266,32.397,4.924,41.331,17.178c6.48,8.889,3.889,17.788,4.594,27.841&#10;&#9;&#9;&#9;c1.048,14.944,8.183,27.504,10.239,42.142C1442.61,422.551,1438.601,435.404,1434.64,447.737z"/>
		<g clip-path="url(#SVGID_2_)">
			<g>
				<g>
					<path fill="#ACE2A6" d="M537.378,99.631h-76.776c-11.382,0-20.608-9.227-20.608-20.608v0c0-11.381,9.227-20.608,20.608-20.608&#10;&#9;&#9;&#9;&#9;&#9;&#9;h76.776c11.381,0,20.608,9.227,20.608,20.608v0C557.986,90.405,548.759,99.631,537.378,99.631z"/>
					<path fill="#ACE2A6" d="M596.351,147.96h-76.776c-11.382,0-20.608-9.227-20.608-20.608l0,0&#10;&#9;&#9;&#9;&#9;&#9;&#9;c0-11.381,9.227-20.608,20.608-20.608h76.776c11.381,0,20.608,9.227,20.608,20.608l0,0&#10;&#9;&#9;&#9;&#9;&#9;&#9;C616.959,138.734,607.732,147.96,596.351,147.96z"/>
					<path fill="#ACE2A6" d="M467.853,147.96h-76.776c-11.381,0-20.608-9.227-20.608-20.608l0,0&#10;&#9;&#9;&#9;&#9;&#9;&#9;c0-11.381,9.227-20.608,20.608-20.608h76.776c11.382,0,20.608,9.227,20.608,20.608l0,0&#10;&#9;&#9;&#9;&#9;&#9;&#9;C488.461,138.734,479.234,147.96,467.853,147.96z"/>
				</g>
			</g>
			<g>
				<g>
					<path fill="#ACE2A6" d="M1281.341,404.583h-76.776c-11.381,0-20.608-9.227-20.608-20.608l0,0&#10;&#9;&#9;&#9;&#9;&#9;&#9;c0-11.381,9.228-20.608,20.608-20.608h76.776c11.382,0,20.608,9.227,20.608,20.608l0,0&#10;&#9;&#9;&#9;&#9;&#9;&#9;C1301.949,395.357,1292.723,404.583,1281.341,404.583z"/>
					<path fill="#ACE2A6" d="M1340.313,452.913h-76.775c-11.382,0-20.608-9.227-20.608-20.608l0,0&#10;&#9;&#9;&#9;&#9;&#9;&#9;c0-11.381,9.227-20.608,20.608-20.608h76.775c11.382,0,20.608,9.227,20.608,20.608l0,0&#10;&#9;&#9;&#9;&#9;&#9;&#9;C1360.922,443.686,1351.695,452.913,1340.313,452.913z"/>
					<path fill="#ACE2A6" d="M1211.815,452.913h-76.776c-11.381,0-20.607-9.227-20.607-20.608l0,0&#10;&#9;&#9;&#9;&#9;&#9;&#9;c0-11.381,9.227-20.608,20.607-20.608h76.776c11.382,0,20.608,9.227,20.608,20.608l0,0&#10;&#9;&#9;&#9;&#9;&#9;&#9;C1232.424,443.686,1223.197,452.913,1211.815,452.913z"/>
				</g>
			</g>
			<g>
				<g>
					<path fill="#ACE2A6" d="M445.333,821.555h-76.776c-11.381,0-20.608-9.227-20.608-20.607l0,0&#10;&#9;&#9;&#9;&#9;&#9;&#9;c0-11.382,9.227-20.608,20.608-20.608h76.776c11.382,0,20.608,9.227,20.608,20.608l0,0&#10;&#9;&#9;&#9;&#9;&#9;&#9;C465.942,812.328,456.715,821.555,445.333,821.555z"/>
					<path fill="#ACE2A6" d="M504.307,869.884h-76.775c-11.382,0-20.608-9.227-20.608-20.608l0,0&#10;&#9;&#9;&#9;&#9;&#9;&#9;c0-11.381,9.227-20.607,20.608-20.607h76.775c11.382,0,20.608,9.227,20.608,20.607l0,0&#10;&#9;&#9;&#9;&#9;&#9;&#9;C524.915,860.657,515.688,869.884,504.307,869.884z"/>
					<path fill="#ACE2A6" d="M375.809,869.884h-76.776c-11.382,0-20.608-9.227-20.608-20.608l0,0&#10;&#9;&#9;&#9;&#9;&#9;&#9;c0-11.381,9.227-20.607,20.608-20.607h76.776c11.381,0,20.608,9.227,20.608,20.607l0,0&#10;&#9;&#9;&#9;&#9;&#9;&#9;C396.417,860.657,387.19,869.884,375.809,869.884z"/>
				</g>
			</g>
			<g>
				<g>
					<path fill="#ACE2A6" d="M79.352,692.562H2.576c-11.382,0-20.608-9.227-20.608-20.608l0,0c0-11.382,9.227-20.608,20.608-20.608&#10;&#9;&#9;&#9;&#9;&#9;&#9;h76.776c11.381,0,20.608,9.227,20.608,20.608l0,0C99.96,683.335,90.733,692.562,79.352,692.562z"/>
					<path fill="#ACE2A6" d="M138.325,740.891H61.549c-11.382,0-20.608-9.227-20.608-20.608l0,0&#10;&#9;&#9;&#9;&#9;&#9;&#9;c0-11.382,9.227-20.608,20.608-20.608h76.776c11.382,0,20.608,9.227,20.608,20.608l0,0&#10;&#9;&#9;&#9;&#9;&#9;&#9;C158.934,731.664,149.707,740.891,138.325,740.891z"/>
					<path fill="#ACE2A6" d="M9.827,740.891h-76.776c-11.381,0-20.608-9.227-20.608-20.608l0,0c0-11.382,9.227-20.608,20.608-20.608&#10;&#9;&#9;&#9;&#9;&#9;&#9;H9.827c11.382,0,20.608,9.227,20.608,20.608l0,0C30.435,731.664,21.208,740.891,9.827,740.891z"/>
				</g>
			</g>
			<g>
				<g>
					<path fill="#ACE2A6" d="M1402.285,849.452h-76.775c-11.382,0-20.608-9.228-20.608-20.608l0,0&#10;&#9;&#9;&#9;&#9;&#9;&#9;c0-11.382,9.227-20.608,20.608-20.608h76.775c11.382,0,20.608,9.227,20.608,20.608l0,0&#10;&#9;&#9;&#9;&#9;&#9;&#9;C1422.894,840.225,1413.667,849.452,1402.285,849.452z"/>
					<path fill="#ACE2A6" d="M1461.259,897.781h-76.775c-11.382,0-20.608-9.228-20.608-20.608l0,0&#10;&#9;&#9;&#9;&#9;&#9;&#9;c0-11.382,9.227-20.608,20.608-20.608h76.775c11.382,0,20.608,9.227,20.608,20.608l0,0&#10;&#9;&#9;&#9;&#9;&#9;&#9;C1481.867,888.554,1472.641,897.781,1461.259,897.781z"/>
					<path fill="#ACE2A6" d="M1332.761,897.781h-76.776c-11.381,0-20.607-9.228-20.607-20.608l0,0&#10;&#9;&#9;&#9;&#9;&#9;&#9;c0-11.382,9.227-20.608,20.607-20.608h76.776c11.382,0,20.608,9.227,20.608,20.608l0,0&#10;&#9;&#9;&#9;&#9;&#9;&#9;C1353.369,888.554,1344.143,897.781,1332.761,897.781z"/>
				</g>
			</g>
			<g>
				<g>
					<path fill="#ACE2A6" d="M1402.285,213.707h-76.775c-11.382,0-20.608-9.227-20.608-20.608l0,0&#10;&#9;&#9;&#9;&#9;&#9;&#9;c0-11.382,9.227-20.608,20.608-20.608h76.775c11.382,0,20.608,9.227,20.608,20.608l0,0&#10;&#9;&#9;&#9;&#9;&#9;&#9;C1422.894,204.48,1413.667,213.707,1402.285,213.707z"/>
					<path fill="#ACE2A6" d="M1461.259,262.036h-76.775c-11.382,0-20.608-9.227-20.608-20.608l0,0&#10;&#9;&#9;&#9;&#9;&#9;&#9;c0-11.382,9.227-20.608,20.608-20.608h76.775c11.382,0,20.608,9.227,20.608,20.608l0,0&#10;&#9;&#9;&#9;&#9;&#9;&#9;C1481.867,252.81,1472.641,262.036,1461.259,262.036z"/>
					<path fill="#ACE2A6" d="M1332.761,262.036h-76.776c-11.381,0-20.607-9.227-20.607-20.608l0,0&#10;&#9;&#9;&#9;&#9;&#9;&#9;c0-11.382,9.227-20.608,20.607-20.608h76.776c11.382,0,20.608,9.227,20.608,20.608l0,0&#10;&#9;&#9;&#9;&#9;&#9;&#9;C1353.369,252.81,1344.143,262.036,1332.761,262.036z"/>
				</g>
			</g>
		</g>
		<g clip-path="url(#SVGID_2_)">
			<path d="M -32.23 80.417 H 260.424999 V 568.656013 H -32.23 V 80.417 Z" opacity="0.48" fill="#FFFFFF"/>
			
				<path d="M 59.594002 86.952003 L 59.594002 571.419983" opacity="0.36" fill="#1B5E3B" stroke="#1B5E3B" stroke-width="3" stroke-miterlimit="10"/>
			
				<path d="M 166.722 86.952003 L 166.722 571.419983" opacity="0.36" fill="#1B5E3B" stroke="#1B5E3B" stroke-width="3" stroke-miterlimit="10"/>
			
				<path d="M -18.316999 161.578003 L 262.718994 161.578003" opacity="0.36" fill="#1B5E3B" stroke="#1B5E3B" stroke-width="3" stroke-miterlimit="10"/>
			
				<path d="M -18.316999 271.46701 L 262.718994 271.46701" opacity="0.36" fill="#1B5E3B" stroke="#1B5E3B" stroke-width="3" stroke-miterlimit="10"/>
			
				<path d="M -18.316999 381.356995 L 262.718994 381.356995" opacity="0.36" fill="#1B5E3B" stroke="#1B5E3B" stroke-width="3" stroke-miterlimit="10"/>
			
				<path d="M -18.316999 491.246002 L 262.718994 491.246002" opacity="0.36" fill="#1B5E3B" stroke="#1B5E3B" stroke-width="3" stroke-miterlimit="10"/>
			<path d="M 254.371994 86.952003 H 282.197994 V 571.419991 H 254.371994 V 86.952003 Z" fill="#34938D"/>
			<path d="M -46.143002 86.952003 H -18.318001 V 571.419991 H -46.143002 V 86.952003 Z" fill="#34938D"/>
			<path d="M -82.315002 560.323975 H 304.274994 V 609.407974 H -82.315002 V 560.323975 Z" fill="#34938D"/>
			<path d="M -82.315002 43.160999 H 304.274994 V 92.243999 H -82.315002 V 43.160999 Z" fill="#34938D"/>
		</g>
		<g clip-path="url(#SVGID_2_)">
			<path fill="#2B6D68" d="M133.405,258.872c-5.97,11.735-10.563,27.091-2.008,37.099c5.307,6.208,14.104,8.149,20.375,13.38&#10;&#9;&#9;&#9;&#9;c9.48,7.909,11.458,21.815,9.951,34.069s-5.78,24.14-6.148,36.481s4.473,26.12,15.759,31.127&#10;&#9;&#9;&#9;&#9;c3.599,1.596,7.619,2.196,11.038,4.147c12.137,6.93,10.153,25.456,18.576,36.609c5.903,7.815,17.256,10.965,26.341,7.308&#10;&#9;&#9;&#9;&#9;c9.086-3.658,15.09-13.795,13.931-23.521c-1.374-11.526-11.165-20.12-15.527-30.877c-7.534-18.579,2.073-40.491-4.287-59.503&#10;&#9;&#9;&#9;&#9;c-0.688-2.06-1.63-4.151-3.358-5.467c-2.373-1.808-5.623-1.744-8.502-2.525c-10.06-2.729-13.884-14.756-15.729-25.016&#10;&#9;&#9;&#9;&#9;c-1.844-10.259-4.59-22.265-14.186-26.334c-4.001-1.697-8.709-1.684-12.302-4.129c-8.043-5.474-4.92-17.62-4.331-27.332&#10;&#9;&#9;&#9;&#9;c0.442-7.281-2.409-29.309-13.351-27.071C141.422,229.001,136.792,252.215,133.405,258.872z"/>
			<path fill="none" stroke="#FFFFFF" stroke-miterlimit="10" d="M148.744,256.963c-3.121,11.952,0.378,25.415,8.925,34.334&#10;&#9;&#9;&#9;&#9;c5.215,5.443,12.12,9.271,16.41,15.469c10.826,15.64,0.685,38.772,10.074,55.313c5.696,10.036,17.859,16.079,20.831,27.229&#10;&#9;&#9;&#9;&#9;c0.722,2.709,0.829,5.538,1.017,8.335c1.945,28.996,13.265,57.29,31.858,79.625"/>
			<path fill="#2E7A76" d="M223.418,262.181c-5.751,7.902-12.305,15.855-11.481,25.343c1.115,12.833,15.75,22.728,13.5,35.414&#10;&#9;&#9;&#9;&#9;c-2.009,11.312-13.1,19.045-16.559,29.758c-5.222,16.172,7.224,23.084,11.52,36.739c5.408,17.189-13.796,35.901-6.501,52.378&#10;&#9;&#9;&#9;&#9;c4.188,9.456,15.625,13.501,25.964,13.71c15.632,0.315,33.309-8.588,35.412-24.081c1.347-9.921-3.996-20.008-1.917-29.802&#10;&#9;&#9;&#9;&#9;c1.759-8.289,8.403-14.51,12.814-21.746c5.524-9.062,7.563-20.191,5.609-30.623c-0.539-2.877-1.439-5.824-3.482-7.92&#10;&#9;&#9;&#9;&#9;c-3.315-3.402-8.663-3.692-12.759-6.098c-10.294-6.046-8.409-21.473-3.736-32.459c2.821-6.633,5.727-15.445,0.193-20.088&#10;&#9;&#9;&#9;&#9;c-13.812-11.543-8.669-34.172-3.623-50.774c1.933-6.36,4.483-12.72,4.326-19.365s-3.963-13.808-10.448-15.267&#10;&#9;&#9;&#9;&#9;c-5.313-1.195-10.866,1.825-14.218,6.117c-3.352,4.292-4.945,9.663-6.417,14.907c-3.888,13.852-7.549,28.094-15.533,40.063&#10;&#9;&#9;&#9;&#9;C225.238,259.655,224.338,260.917,223.418,262.181z"/>
			<path fill="none" stroke="#FFFFFF" stroke-miterlimit="10" d="M259.216,216.189c-3.952,12.045-10.168,23.252-14.094,35.307&#10;&#9;&#9;&#9;&#9;c-3.925,12.054-5.371,25.693,0.191,37.085c1.369,2.803,3.142,5.43,4.089,8.401c0.902,2.827,1.015,5.836,1.12,8.802&#10;&#9;&#9;&#9;&#9;c0.325,9.129,0.491,18.883-4.37,26.618c-3.32,5.282-8.917,9.535-9.743,15.719c-0.896,6.702,4.166,12.529,6.872,18.726&#10;&#9;&#9;&#9;&#9;c3.885,8.895,2.925,19.046,2.183,28.724c-1.793,23.385-1.886,46.901-0.277,70.3"/>
			<path fill="#36928F" d="M315.868,236.241c-2.711,6.516-2.251,13.842-2.195,20.899c0.12,15.267-2.514,31.862-13.593,42.365&#10;&#9;&#9;&#9;&#9;c-10.333,9.796-27.243,13.659-32.125,27.034c-4.436,12.154,3.841,25.466,2.371,38.321c-1.248,10.905-9.175,19.631-15.114,28.862&#10;&#9;&#9;&#9;&#9;c-5.472,8.505-9.452,17.967-11.706,27.826c-2.641,11.555-2.193,25.373,6.782,33.116c9.152,7.896,24.222,5.669,32.926-2.717&#10;&#9;&#9;&#9;&#9;s11.832-21.228,11.338-33.305c-0.344-8.407-2.161-17.247,1.23-24.947c3.886-8.827,13.365-13.472,21.654-18.402&#10;&#9;&#9;&#9;&#9;c8.289-4.931,16.838-12.406,16.463-22.043c-0.506-13.015-16.999-21.452-16.708-34.474c0.372-16.632,27.283-24.154,25.654-40.711&#10;&#9;&#9;&#9;&#9;c-0.896-9.104-10.778-16.282-9.31-25.312c1.316-8.094,13.536-16.809,4.746-25.074&#10;&#9;&#9;&#9;&#9;C330.94,220.777,319.007,228.697,315.868,236.241z"/>
			<path fill="none" stroke="#FFFFFF" stroke-miterlimit="10" d="M327.757,242.858c-7.315,11.259-0.097,26.695-4.174,39.487&#10;&#9;&#9;&#9;&#9;c-1.338,4.199-3.843,7.912-6.315,11.56c-7.001,10.328-14.002,20.655-21.003,30.983c-2.167,3.196-4.364,6.455-5.498,10.146&#10;&#9;&#9;&#9;&#9;c-3.205,10.43,2.662,21.495,2.124,32.392c-0.509,10.302-6.606,19.329-11.221,28.553c-9.087,18.16-12.837,38.95-10.667,59.14"/>
			<path d="M 272.6059875488281 562.072021484375 L 197.47799682617188 562.072021484375 L 171.04400634765625 440.5820007324219 L 299.0409851074219 440.5820007324219 Z" fill="#CE691B"/>
		</g>
		<g clip-path="url(#SVGID_2_)">
			
				<path d="M 801.878021 303.906006 A 60.766998 64.285004 0 0 1 741.111023 368.19101 A 60.766998 64.285004 0 0 1 680.344025 303.906006 A 60.766998 64.285004 0 0 1 741.111023 239.621002 A 60.766998 64.285004 0 0 1 801.878021 303.906006 Z" transform="matrix(0.9986 0.0532 -0.0532 0.9986 17.2042 -38.9691)" fill="#31847E"/>
			<path fill="#24706C" d="M667.562,374.621c0,0-3.338-63.568,84.158-114.762c87.495-51.193,131.462-4.65,138.664,7.382&#10;&#9;&#9;&#9;&#9;c7.203,12.032,28.309,115.858-83.487,130.669c-59.482,7.881-41.815,34.622-95.054,34.089&#10;&#9;&#9;&#9;&#9;C658.604,431.466,667.562,374.621,667.562,374.621z"/>
			<path fill="#1A5450" d="M718.39,362.468c0,0-1.695-32.295,42.755-58.303c44.451-26.008,66.787-2.363,70.447,3.75&#10;&#9;&#9;&#9;&#9;c3.659,6.113,14.381,58.86-42.415,66.384c-30.219,4.004-21.243,17.589-48.291,17.318&#10;&#9;&#9;&#9;&#9;C713.839,391.348,718.39,362.468,718.39,362.468z"/>
			<path fill="#462737" d="M723.75,355.867c0,0-44.947,82.894-136.21,55.691S470.833,496.42,470.833,496.42&#10;&#9;&#9;&#9;&#9;s-56.978,148.366,166.484,140.998c251.791-8.304,194.5-229.914,184.762-260.703C812.343,345.927,754.943,319.934,723.75,355.867z&#10;&#9;&#9;&#9;&#9;"/>
			<path fill="#24706C" d="M875.921,698.61c0,0,78.035,76.208,123.033,297.282c0,0-199.175,55.294-317.355,3.51&#10;&#9;&#9;&#9;&#9;c0,0,27.865-177.555,40.271-290.695C721.87,708.707,780.229,684.45,875.921,698.61z"/>
			<path fill="#E09D70" d="M710.141,470.487L710.141,470.487c-17.846,9.776-28.826,27.447-43.084,41.677&#10;&#9;&#9;&#9;&#9;c-15.928,15.896-27.614,42.526-38.907,42.902c-19.418,0.647-28.713,50.837-5.411,55.072c23.302,4.234,69-32.081,87.402-58.956&#10;&#9;&#9;&#9;&#9;C733.487,517.085,710.141,470.487,710.141,470.487z"/>
			<path d="M 773.1500244140625 424.7449951171875 L 765.572021484375 474.77899169921875 L 820.6500244140625 467.7170104980469 L 811.114990234375 413.739990234375 Z" fill="#E09D70"/>
			<path fill="#ECAA76" d="M821.787,350.765c0,0,22.343,78.025-12.854,81.779c-35.195,3.755-57.569-23.271-68.377-56.943&#10;&#9;&#9;&#9;&#9;c-10.809-33.671-6.277-42.416,22.165-49.586C791.163,318.846,816.279,323.834,821.787,350.765z"/>
			<path fill="#36928F" d="M710.141,470.487c0,0,137.227-12.946,178.653-25.029c0,0,19.172,112.468-13.456,201.44&#10;&#9;&#9;&#9;&#9;c-9.619,26.229,0.583,51.712,0.583,51.712s-66.019,65.332-154.051,10.097C721.87,708.707,681.659,567.149,710.141,470.487z"/>
			<path fill="#44A09C" d="M871.867,661.087c-0.146,0.129-0.292,0.258-0.422,0.406c-1.634,1.863-2.084,4.895-4.369,5.853&#10;&#9;&#9;&#9;&#9;c-1.513,0.634-3.227,0.062-4.865-0.01c-6.836-0.299-10.959,7.725-17.349,10.174c-2.698,1.034-5.677,1.012-8.488,1.68&#10;&#9;&#9;&#9;&#9;c-2.811,0.667-5.729,2.379-6.36,5.199c7.407,5.9,19.042,0.688,27.484,4.98c4.024,2.047,7.142,6.183,11.633,6.642&#10;&#9;&#9;&#9;&#9;c1.928,0.197,3.866-0.331,5.798-0.294C873.15,690.029,869.795,676.566,871.867,661.087z"/>
			<path fill="#E09D70" d="M888.794,445.458h12.746c15.664,0,34.498,8.18,35.922,23.78c5.776,63.294,10.513,95.035,24.036,159.466&#10;&#9;&#9;&#9;&#9;c16.511,78.67-58.015,45.028-63.211,2.111S880.163,538.668,888.794,445.458z"/>
			<path fill="#ECAA76" d="M821.607,627.977c0,0,101.561-9.291,118.14,3.592c19.512,15.163,28.127,30.037,15.991,44.526&#10;&#9;&#9;&#9;&#9;c-12.814,15.302-121.787-11.312-129.798-14.834C817.744,657.655,820.231,654.641,821.607,627.977z"/>
			<path fill="#E09D70" d="M832.193,467.757c0.354-3.974,0.354-7.851,0.111-11.619c-24.572,3.588-51.752,6.851-74.229,9.356&#10;&#9;&#9;&#9;&#9;c-14.751,21.511-18.678,50.821-0.234,52.466C777.479,519.711,829.605,496.778,832.193,467.757z"/>
			<path fill="#ECAA76" d="M676.049,401.409c0,0-5.139,90.621-4.531,114.087c1.005,38.822,1.329,101.982-50.792,94.643&#10;&#9;&#9;&#9;&#9;c-19.987-2.815-12.862-48.726-4.987-82.322c7.5-31.998,30.535-133.279,30.535-133.279L676.049,401.409z"/>
			<path fill="#ECAA76" d="M680.586,393.505c1.071-7.656,1.738-16.583-3.809-21.967c-1.253-1.216-2.768-2.171-3.845-3.545&#10;&#9;&#9;&#9;&#9;c-3.405-4.343-1.215-10.561-0.677-16.053c0.512-5.222-0.698-10.598-3.398-15.097c-0.473-0.787-1.064-1.604-1.951-1.844&#10;&#9;&#9;&#9;&#9;c-2.116-0.571-3.355,2.26-3.847,4.396c-1.585,6.886-5.181,13.297-10.231,18.24c-3.521,3.447-7.812,6.299-10.176,10.623&#10;&#9;&#9;&#9;&#9;c-2.459,4.499-2.447,9.95-1.616,15.009c1.055,6.425,3.445,12.826,7.983,17.495c4.161,4.281,13.655,8.572,19.801,8.617&#10;&#9;&#9;&#9;&#9;C677.116,409.44,679.66,400.123,680.586,393.505z"/>
			<path fill="#462737" d="M821.016,349.568c0,0-12.923,17.88-47.527,20.5c0,0,39.233,113.404-37.25,93.267&#10;&#9;&#9;&#9;&#9;c-64.704-17.035-0.634-128.463-0.634-128.463s18.621-34.919,66.782-18.701C802.387,316.171,830.244,328.347,821.016,349.568z"/>
			<path fill="#36928F" d="M701.131,515.496c0,0-9.695,22.384-19.816,32.549s-13.033,51.221,15.286,62.094&#10;&#9;&#9;&#9;&#9;C724.92,621.011,732.475,543.939,701.131,515.496z"/>
			<path fill="none" stroke="#231F20" stroke-miterlimit="10" d="M818.007,377.977c0,0-1.7,17.298,7.719,20.784&#10;&#9;&#9;&#9;&#9;c0,0-5.504,5.661-14.302,0.417"/>
			<path fill="none" stroke="#231F20" stroke-miterlimit="10" d="M811.726,414.623c0,0,3.577,4.341,9.29,0.339"/>
			<path fill="#348C85" d="M831.492,236.493c1.554,1.336,3.108,2.672,4.662,4.008c1.049,0.902,2.147,1.876,2.548,3.2&#10;&#9;&#9;&#9;&#9;c0.294,0.974,0.172,2.02,0.298,3.03c0.57,4.569,5.68,6.901,10.089,8.229c2.514,0.757,5.097,1.473,7.719,1.346&#10;&#9;&#9;&#9;&#9;c3.962-0.192,7.554-2.269,10.968-4.29c1.358-0.805,2.763-1.669,3.749-2.871C861.853,242.905,848.572,237.448,831.492,236.493z"/>
			<path fill="#348C85" d="M872.085,306.238c-0.234,1.711,0.249,3.427,0.654,5.105c1.786,7.389,2.124,15.124,0.989,22.64&#10;&#9;&#9;&#9;&#9;c-0.178,1.184-0.392,2.406-0.087,3.564c0.661,2.515,4.075,3.817,6.243,2.379c2.679-4.33,5.357-8.66,8.036-12.989&#10;&#9;&#9;&#9;&#9;c1.025-1.658,2.074-3.378,2.345-5.314c0.449-3.25-5.602-9.037-7.254-11.915C881.417,306.933,873.353,296.961,872.085,306.238z"/>
			<path fill="#3FAA9F" d="M755.971,241.491c-3.686-0.955-7.507-1.57-11.442-1.779c-17.281-0.92-33.27,5.905-44.974,17.581&#10;&#9;&#9;&#9;&#9;c1.192,0.097,2.403,0.081,3.568-0.034c3.768-0.37,7.442-1.392,11.197-1.876c5.86-0.757,11.8-0.194,17.697,0.177&#10;&#9;&#9;&#9;&#9;c5.783,0.364,11.887,0.477,17.006-2.237C753.312,251.049,756.497,246.116,755.971,241.491z"/>
			<path fill="#F4B68C" d="M937.462,469.238c-1.174-12.864-14.187-20.677-27.499-23.023c0.997,0.756,2.172,1.319,3.302,1.542&#10;&#9;&#9;&#9;&#9;c2.179,0.431,3.613,2.567,4.261,4.692c0.646,2.125,0.758,4.399,1.567,6.467c1.256,3.213,4.039,5.567,5.785,8.542&#10;&#9;&#9;&#9;&#9;c2.735,4.663,3.562,11.431,8.71,13.079c1.633,0.522,3.399,0.183,4.862-0.686C938.123,476.406,937.794,472.879,937.462,469.238z"/>
			<path fill="#F4B68C" d="M939.747,631.568c-3.212-2.495-9.621-4.156-17.855-5.217c2.62,1.521,5.837,3.092,6.434,5.455&#10;&#9;&#9;&#9;&#9;c0.292,1.155,0.888,2.211,1.532,3.214c3.076,4.782,7.457,8.715,12.543,11.258c3.348,1.675,6.96,2.744,10.55,3.806&#10;&#9;&#9;&#9;&#9;c1.703,0.503,3.498,0.984,5.262,1.104C954.659,644.707,948.236,638.165,939.747,631.568z"/>
			<path fill="#F4B68C" d="M630.167,476.038c3.417-6.549,8.961-12.06,10.925-19.181c2.32-8.413-0.79-16.906-3.208-25.494&#10;&#9;&#9;&#9;&#9;c-3.813,16.718-8.392,36.763-12.553,54.908C627.218,483.021,628.421,479.383,630.167,476.038z"/>
			<path fill="#F4B68C" d="M671.98,487.469c0.266-7.864,0.614-16.482,0.996-25.134c-0.468,0.843-0.941,1.683-1.414,2.517&#10;&#9;&#9;&#9;&#9;c-3.595,6.336-8.024,13.304-15.165,14.747c-3.791,0.766-8.086-0.123-11.287,2.048c-3.832,2.599-4.03,8.07-3.829,12.696&#10;&#9;&#9;&#9;&#9;c2.317-0.091,4.646,0.119,6.909,0.624c-0.181,3.775-0.362,7.551-0.543,11.326c4.542,2.366,10.442,1.829,14.482-1.319&#10;&#9;&#9;&#9;&#9;c0.967,4.694,4.797,8.605,9.376,9.918c-0.074-3.557-0.031-8.487,0.099-14.327c-1.063-3.182-1.841-6.371-1.117-9.539&#10;&#9;&#9;&#9;&#9;C670.783,489.733,671.316,488.567,671.98,487.469z"/>
			<path fill="#663B53" d="M506.385,436.551c5.291-3.858,12.597-1.71,19.144-1.631c13.361,0.161,25.167-9.112,32.993-19.942&#10;&#9;&#9;&#9;&#9;c1.624-2.247,3.069-4.896,4.045-7.625c-34.109-1.001-56.621,19.489-70.798,41.076c1.326-0.026,2.632-0.158,3.864-0.634&#10;&#9;&#9;&#9;&#9;C500.53,445.903,502.144,439.645,506.385,436.551z"/>
			<path fill="#663B53" d="M506.566,495.48c-1.215,0.539-2.435,1.182-3.27,2.216c-0.729,0.902-1.105,2.03-1.624,3.067&#10;&#9;&#9;&#9;&#9;c-2.603,5.216-8.452,7.786-13.786,10.137s-11.089,5.412-12.983,10.924c-0.262,0.761-0.377,1.749,0.261,2.239&#10;&#9;&#9;&#9;&#9;c0.349,0.27,0.823,0.295,1.264,0.3c6.1,0.07,12.209-1.765,17.262-5.184c2.814-1.904,5.475-4.357,8.829-4.902&#10;&#9;&#9;&#9;&#9;c2.421-0.394,4.923,0.275,7.342-0.128c4.694-0.784,7.808-5.261,12.066-7.386c2.402-1.198,5.244-1.689,7.162-3.567&#10;&#9;&#9;&#9;&#9;c2.819-2.761,2.316-7.936-0.677-10.507C523.328,488.319,511.83,493.146,506.566,495.48z"/>
			<path fill="#663B53" d="M466.753,557.916c3.868,17.112,13.042,34.949,32.068,49.407c-0.193-1.771-1.061-3.582-2.124-5.053&#10;&#9;&#9;&#9;&#9;c-1.793-2.481-4.155-4.708-4.927-7.671s1.188-6.893,4.232-6.562c1.277,0.139,2.36,0.979,3.578,1.388&#10;&#9;&#9;&#9;&#9;c1.218,0.407,2.914,0.12,3.243-1.122c-0.3-5.332-5.388-9.079-10.33-11.104c-4.942-2.025-10.467-3.292-14.217-7.095&#10;&#9;&#9;&#9;&#9;c-3.473-3.521-5.083-8.923-9.427-11.286C468.188,558.459,467.473,558.183,466.753,557.916z"/>
			<path fill="#44A09C" d="M693.798,536.272c0.875-2.644,1.207-5.55,1.296-8.456c-3.697,6.896-8.683,15.11-13.779,20.229&#10;&#9;&#9;&#9;&#9;c-2.589,2.601-4.7,7.229-5.943,12.85c3.697-0.59,6.788-5.419,10.901-5.798c1.466-0.136,2.939,0.327,4.405,0.186&#10;&#9;&#9;&#9;&#9;c2.965-0.287,5.32-3.429,4.764-6.354c-2.513-0.069-4.085-2.984-3.915-5.493S693.008,538.66,693.798,536.272z"/>
			<path fill="#44A09C" d="M742.664,532.057c-4.248,0.74-8.433,2.173-12.741,2.023c-2.963-0.103-6.513-0.735-8.396,1.555&#10;&#9;&#9;&#9;&#9;c4.037-1.457,8.003,2.08,10.914,5.233c3.628,3.93,7.365,7.758,11.205,11.479c1.159,1.124,2.359,2.259,3.835,2.914&#10;&#9;&#9;&#9;&#9;c1.546,0.686,3.277,0.793,4.966,0.891c5.702,0.329,11.404,0.657,17.106,0.986c0.632,0.036,1.318,0.058,1.837-0.307&#10;&#9;&#9;&#9;&#9;c0.739-0.52,0.812-1.57,0.812-2.475c0.002-4.842-0.591-10.694-4.943-12.813c-0.923-0.45-1.955-0.683-2.802-1.263&#10;&#9;&#9;&#9;&#9;c-0.826-0.567-1.405-1.416-2.039-2.191C757.954,532.633,749.341,530.893,742.664,532.057z"/>
			<path fill="#44A09C" d="M803.635,583.945c3.807-0.984,7.734-1.978,11.628-1.432c1.747,0.245,3.443,0.797,5.197,0.993&#10;&#9;&#9;&#9;&#9;c7.319,0.818,25.532-12.231,12.811-15.08c-4.594-1.028-10.414,1.827-14.823,2.754&#10;&#9;&#9;&#9;&#9;C809.171,573.131,808.47,575.567,803.635,583.945z"/>
			<path fill="#44A09C" d="M743.492,677.954c-1.483-1.169-3.37-1.664-5.174-2.228c-7.966-2.49-15.328-6.902-21.305-12.726&#10;&#9;&#9;&#9;&#9;c-2.412-2.35-4.672-6.553-7.373-9.748c3.263,18.37,6.673,33.442,9.062,43.212c3.46,0.747,7.04,0.759,10.472-0.179&#10;&#9;&#9;&#9;&#9;c0.905-0.248,1.846-0.592,2.429-1.328c1.402-1.775-0.073-4.505,0.758-6.608c1.816-4.595,10.916-0.866,12.849-5.413&#10;&#9;&#9;&#9;&#9;C745.947,681.198,744.977,679.123,743.492,677.954z"/>
			<path fill="#30827C" d="M897.253,798.763c4.238-0.239,8.169,2.1,11.59,4.613c6.559,4.82,12.399,10.615,17.271,17.135&#10;&#9;&#9;&#9;&#9;c7.724,0.148,15.415,1.609,22.666,4.272c-10.468-25.751-20.831-47.03-30.316-64.291c-1.524,4.617-2.809,8.692-3.973,10.748&#10;&#9;&#9;&#9;&#9;c-3.548,6.263-9.156,11.105-15.073,15.204c-4.996,3.46-10.491,6.689-13.579,11.923&#10;&#9;&#9;&#9;&#9;C888.594,801.227,893.289,798.986,897.253,798.763z"/>
			<path fill="#30827C" d="M916.893,874.762c6.108,4.271,11.289,9.861,15.083,16.277c-8.997,0.285-14.396,10.188-16.22,19.003&#10;&#9;&#9;&#9;&#9;c-0.578,2.798-0.986,5.727-0.259,8.489c1.614,6.137,8.103,9.5,14.075,11.643c11.063,3.969,22.747,6.374,33.209,11.731&#10;&#9;&#9;&#9;&#9;c9.021,4.619,17.983,11.538,27.368,14.185c-10.162-42.409-21.461-78.675-32.887-109.464&#10;&#9;&#9;&#9;&#9;c-2.132,1.944-13.859,17.481-14.308,17.455c-9.836-0.586-19.812,1.357-28.709,5.592&#10;&#9;&#9;&#9;&#9;C913.08,871.456,915.146,873.542,916.893,874.762z"/>
			<g>
				<path d="M 809.653992 581.484009 H 823.086991 V 649.647011 H 809.653992 V 581.484009 Z" fill="#462737"/>
				<path fill="#FFB210" d="M816.37,486.072L816.37,486.072c-15.134,0-27.402,12.269-27.402,27.402v76.834&#10;&#9;&#9;&#9;&#9;&#9;c0,4.747,3.85,8.596,8.597,8.596h37.611c4.748,0,8.597-3.849,8.597-8.596v-76.834&#10;&#9;&#9;&#9;&#9;&#9;C843.772,498.341,831.504,486.072,816.37,486.072z"/>
				<path fill="#FFC050" d="M816.37,503.582L816.37,503.582c-12.166,0-22.028,9.863-22.028,22.029v61.768&#10;&#9;&#9;&#9;&#9;&#9;c0,3.817,3.094,6.911,6.91,6.911h30.236c3.816,0,6.911-3.094,6.911-6.911v-61.768&#10;&#9;&#9;&#9;&#9;&#9;C838.399,513.445,828.537,503.582,816.37,503.582z"/>
				<path opacity="0.48" fill="#FFFFFF" d="M816.37,486.072c-15.134,0-27.401,12.269-27.401,27.402v34.357&#10;&#9;&#9;&#9;&#9;&#9;c0.957-1.255,1.302-3.298,1.271-4.858c-0.041-2.182-0.209-4.399,0.303-6.521c0.963-3.994,4.266-5.59,8.137-4.198&#10;&#9;&#9;&#9;&#9;&#9;c2.429,0.873,4.803,2.964,7.236,2.104c1.795-0.634,2.663-2.6,3.557-4.28c0.894-1.68,2.427-3.45,4.307-3.151&#10;&#9;&#9;&#9;&#9;&#9;c2.099,0.333,2.898,2.912,3.07,5.03c0.476,5.865-0.152,12.625,4.079,16.713c0.302,0.291,0.655,0.575,1.073,0.601&#10;&#9;&#9;&#9;&#9;&#9;c0.738,0.044,1.252-0.698,1.586-1.357c3.221-6.346,4.424-13.534,7.342-20.024c0.443-0.986,1.146-2.101,2.229-2.092&#10;&#9;&#9;&#9;&#9;&#9;c0.904,0.007,1.578,0.819,2.047,1.593c4.035,6.652,0.856,14.246,6.078,20.62c0.484,0.591,1.059,1.182,1.808,1.336&#10;&#9;&#9;&#9;&#9;&#9;c0.238,0.05,0.466,0.051,0.682,0.018v-35.888C843.772,498.341,831.504,486.072,816.37,486.072z"/>
				<path opacity="0.48" fill="#FFFFFF" d="M813.722,493.108c0.329,0.746,1.155,1.123,1.924,1.394&#10;&#9;&#9;&#9;&#9;&#9;c3.86,1.358,8.052,1.701,11.789,3.366c4.182,1.863,7.473,5.232,10.655,8.523c0.938-2.956-0.127-6.29-2.142-8.648&#10;&#9;&#9;&#9;&#9;&#9;c-2.014-2.358-4.854-3.866-7.761-4.944C827.076,492.387,811.176,487.333,813.722,493.108z"/>
			</g>
			<path fill="#ECAA76" d="M798.633,610.902c-3.195,0.265-6.375,0.675-9.529,1.286c-3.284,0.638-7.195,2.229-7.471,5.563&#10;&#9;&#9;&#9;&#9;c-0.238,2.891,2.462,5.056,3.859,7.597c3.034,5.517-0.275,12.276-0.146,18.57c0.202,9.87,10.71,18.435,19.315,21.53&#10;&#9;&#9;&#9;&#9;c7.088,2.55,14.163,3.893,21.135,0.896c8.567-3.683,17.562-11.318,20.247-20.543c3.505-12.049-8.471-18.628-12.484-28.728&#10;&#9;&#9;&#9;&#9;c-1.067-2.686-1.916-5.498-3.522-7.899c-1.607-2.401-4.186-4.389-7.075-4.376c-0.037,1.977-0.074,3.954-0.111,5.931&#10;&#9;&#9;&#9;&#9;C814.782,610.48,806.658,610.235,798.633,610.902z"/>
		</g>
		<g clip-path="url(#SVGID_2_)">
			<path d="M 1155.14501953125 868.1190185546875 L 1176.4649658203125 1005.3460083007812 L 1254.2530517578125 1005.3460083007812 L 1240.8380126953125 830.5759887695312 Z" fill="#ECAA76"/>
			<path fill="#ECAA76" d="M1048.909,849.452l80.869,7.768l10.247,148.877h-70.548&#10;&#9;&#9;&#9;&#9;C1069.478,1006.097,1050.558,901.235,1048.909,849.452z"/>
			<path fill="#ECAA76" d="M1059.837,385.943L1059.837,385.943c-9.828,0-18.081,7.416-19.069,17.194&#10;&#9;&#9;&#9;&#9;c-4.029,39.845-17.739,137.479-57.225,168.796c0,0,5.971,19.283,38.767,17.557c32.797-1.726,56.705-71.93,57.732-124.576&#10;&#9;&#9;&#9;&#9;C1081.068,412.267,1059.837,385.943,1059.837,385.943z"/>
			<path fill="#ECAA76" d="M942.988,514.498c0,0,19.999-11.389,31.266,1.329c26.394,29.794,56.629,11.468,61.944,54.339&#10;&#9;&#9;&#9;&#9;c3.749,30.239-28.33,23.337-41.612,15.993C983.543,580.055,953.659,566.257,942.988,514.498z"/>
			<g>
				<path fill="#5E3A4D" d="M995.164,509.629h-39.828l-8.365-84.14h41.429c4.135,0,7.596,3.134,8.005,7.249l6.766,68.05&#10;&#9;&#9;&#9;&#9;&#9;C1003.64,505.522,999.922,509.629,995.164,509.629z"/>
				<path fill="#462737" d="M994.586,509.629h-42.381c-3.594,0-6.603-2.726-6.958-6.302l-6.975-70.153&#10;&#9;&#9;&#9;&#9;&#9;c-0.409-4.115,2.823-7.685,6.959-7.685h40.989L994.586,509.629z"/>
				<path d="M 980.803022 440.488007 A 4.83 4.83 0 0 1 975.973022 445.318007 A 4.83 4.83 0 0 1 971.143023 440.488007 A 4.83 4.83 0 0 1 975.973022 435.658007 A 4.83 4.83 0 0 1 980.803022 440.488007 Z" opacity="0.48" fill="#FFFFFF"/>
				<path fill="#5B384D" d="M949.014,434.327c1.778-0.014,3.557-0.027,5.335-0.041c1.968,0,1.468-2.09,2.561-3.154&#10;&#9;&#9;&#9;&#9;&#9;c1.497-1.458,2.656-1.328,4.328-2.172c2.347-1.184,3.968-1.537,2.748-3.471h-18.754c-3.269,0-5.965,2.233-6.753,5.2&#10;&#9;&#9;&#9;&#9;&#9;c0.729,0.112,1.457,0.223,2.186,0.334c1.447,0.222,2.97,0.475,4.108,1.396c0.595,0.481,1.06,1.128,1.729,1.496&#10;&#9;&#9;&#9;&#9;&#9;C947.255,434.329,948.156,434.333,949.014,434.327z"/>
			</g>
			<path fill="#185A58" d="M1048.138,615.707c0,0-22.895,51.786-24.729,249.452c0,0,85.771,70.833,244.261-5&#10;&#9;&#9;&#9;&#9;c0,0,11.519-190.33-56.396-242.282C1211.274,617.877,1098.73,600.721,1048.138,615.707z"/>
			<path fill="#F8CCBF" d="M1057.729,386.022c0,0,18.018-5.255,152.218-6.499c0,0,30.502,106.799-5.247,159.912&#10;&#9;&#9;&#9;&#9;c0,0-10.508,35.607,6.575,78.441c0,0-27.318,11.063-85.925,11.063c-68.812,0-77.212-13.233-77.212-13.233&#10;&#9;&#9;&#9;&#9;s12.954-39.83,12.888-65.994c-0.065-26.163-19.209-30.546-22.678-49.303C1029.821,454.301,1060.18,452.292,1057.729,386.022z"/>
			<path fill="#E2A074" d="M1060.437,560.595c-2.522,25.047-12.299,55.112-12.299,55.112s8.399,13.233,77.212,13.233&#10;&#9;&#9;&#9;&#9;c58.606,0,85.925-11.064,85.925-11.064c-7.316-18.345-9.564-35.353-9.753-48.816&#10;&#9;&#9;&#9;&#9;C1153.796,584.079,1084.335,582.055,1060.437,560.595z"/>
			<path fill="#E09D70" d="M1084.181,383.194c-4.103,28.502-0.554,52.026,12.896,53.499c14.773,1.617,39.622-22.817,45.305-56.01&#10;&#9;&#9;&#9;&#9;C1115.467,381.412,1096.9,382.328,1084.181,383.194z"/>
			<path fill="#ECAA76" d="M1216.514,377.885L1216.514,377.885c14.331,0,27.142,8.935,32.093,22.382l50.431,136.958&#10;&#9;&#9;&#9;&#9;c10.107,27.448-8.707,46.854-37.957,46.854l-8.272-30.939l-52.192-110.154c-3.92-13.848-4.688-28.272-2.395-42.249&#10;&#9;&#9;&#9;&#9;C1200.817,384.908,1201.068,382.215,1216.514,377.885L1216.514,377.885z"/>
			<path fill="#ECAA76" d="M1173.733,546.11v30.239c0,0,47.339,22.31,112.433,1.568c0,0,28.045-45.079-23.843-52.447&#10;&#9;&#9;&#9;&#9;C1239.881,522.284,1230.521,555.197,1173.733,546.11z"/>
			<g>
				<path d="M 1142.011963 497.795013 H 1153.795963 V 557.597012 H 1142.011963 V 497.795013 Z" fill="#462737"/>
				<path fill="#FFB210" d="M1147.903,414.088L1147.903,414.088c-13.277,0-24.04,10.763-24.04,24.041v67.407&#10;&#9;&#9;&#9;&#9;&#9;c0,4.166,3.377,7.542,7.542,7.542h32.997c4.165,0,7.542-3.376,7.542-7.542v-67.407&#10;&#9;&#9;&#9;&#9;&#9;C1171.944,424.852,1161.181,414.088,1147.903,414.088z"/>
				<path fill="#FFC050" d="M1147.903,429.45L1147.903,429.45c-10.674,0-19.326,8.653-19.326,19.327v54.19&#10;&#9;&#9;&#9;&#9;&#9;c0,3.349,2.715,6.063,6.062,6.063h26.527c3.349,0,6.063-2.715,6.063-6.063v-54.19&#10;&#9;&#9;&#9;&#9;&#9;C1167.23,438.103,1158.577,429.45,1147.903,429.45z"/>
				<path opacity="0.48" fill="#FFFFFF" d="M1147.903,414.088L1147.903,414.088c-13.277,0-24.04,10.764-24.04,24.041v30.143&#10;&#9;&#9;&#9;&#9;&#9;c0.84-1.101,1.142-2.893,1.116-4.262c-0.036-1.915-0.185-3.86,0.265-5.722s1.631-3.676,3.444-4.293&#10;&#9;&#9;&#9;&#9;&#9;c0.784-0.267,1.634-0.294,2.423-0.547c2.201-0.705,3.495-2.98,4.19-5.184c0.696-2.204,1.035-4.574,2.292-6.514&#10;&#9;&#9;&#9;&#9;&#9;c1.256-1.939,3.875-3.295,5.906-2.193c1.344,0.729,2.126,2.353,3.593,2.785c3.891,1.146,5.888-6.795,9.823-5.815&#10;&#9;&#9;&#9;&#9;&#9;c1.619,0.403,2.446,2.238,2.6,3.899c0.204,2.209-0.367,4.425-0.273,6.641c0.093,2.217,1.148,4.676,3.28,5.291&#10;&#9;&#9;&#9;&#9;&#9;c0.672,0.193,1.403,0.187,2.035,0.487c1.824,0.867,1.69,3.433,1.662,5.452c-0.051,3.651,1.227,7.306,3.541,10.13&#10;&#9;&#9;&#9;&#9;&#9;c0.425,0.519,0.929,1.037,1.585,1.172c0.209,0.043,0.408,0.044,0.599,0.015v-31.485&#10;&#9;&#9;&#9;&#9;&#9;C1171.944,424.852,1161.181,414.088,1147.903,414.088z"/>
				<path opacity="0.48" fill="#FFFFFF" d="M1145.58,420.261c0.288,0.654,1.013,0.985,1.688,1.222&#10;&#9;&#9;&#9;&#9;&#9;c3.387,1.192,7.063,1.492,10.343,2.954c3.669,1.635,6.557,4.59,9.349,7.478c0.822-2.594-0.112-5.518-1.879-7.587&#10;&#9;&#9;&#9;&#9;&#9;c-1.768-2.069-4.259-3.392-6.81-4.338C1157.296,419.627,1143.347,415.194,1145.58,420.261z"/>
			</g>
			<path fill="#ECAA76" d="M932.864,500.496c-0.57-1.266-1.129-2.614-0.979-3.995c0.144-1.318,0.915-2.474,1.677-3.561&#10;&#9;&#9;&#9;&#9;c6.025-8.599,12.864-16.629,20.395-23.948c1.222-1.188,2.521-2.392,4.144-2.914c1.352-0.434,2.808-0.354,4.226-0.268&#10;&#9;&#9;&#9;&#9;c7.057,0.425,14.113,0.85,21.17,1.274c2.367,0.142,5.044,0.443,6.471,2.337c1.647,2.188,0.575,5.627-1.722,7.12&#10;&#9;&#9;&#9;&#9;s-5.339,1.359-7.916,0.43c-0.781,1.737,1.757,2.899,3.258,4.071c1.962,1.531,2.396,4.68,0.92,6.685&#10;&#9;&#9;&#9;&#9;c-0.529,0.719-1.277,1.33-1.496,2.196c-0.361,1.428,0.84,2.712,1.741,3.877c4.776,6.174,2.079,15.739-3.75,20.931&#10;&#9;&#9;&#9;&#9;c-5.829,5.19-13.804,7.087-21.443,8.686c-6.13,1.282-11.985,1.561-16.038-3.527C939.213,514.481,935.722,506.839,932.864,500.496&#10;&#9;&#9;&#9;&#9;z"/>
			<path fill="#ECAA76" d="M1166.147,528.918c-3.412-1.371-7.265-0.575-10.851,0.238c-7.208,1.635-14.416,3.271-21.625,4.905&#10;&#9;&#9;&#9;&#9;c-1.627,0.369-3.349,0.79-4.518,1.981c-1.826,1.861-1.64,4.89-0.925,7.396c0.715,2.508,1.844,5.028,1.487,7.611&#10;&#9;&#9;&#9;&#9;c-0.53,3.838-4.203,7.749-2.095,10.998c0.596,0.917,1.565,1.531,2.213,2.411c2.655,3.609-1.104,9.702,2.073,12.862&#10;&#9;&#9;&#9;&#9;c1.174,1.168,2.934,1.465,4.573,1.704c4.353,0.634,8.706,1.269,13.06,1.902c7.313,1.066,15.004,2.095,21.914-0.529&#10;&#9;&#9;&#9;&#9;c7.059-2.681,12.422-9.12,14.354-16.419c1.905-7.201,0.876-17.284-4.008-23.252&#10;&#9;&#9;&#9;&#9;C1178.627,536.85,1170.707,530.751,1166.147,528.918z"/>
			<path fill="#462737" d="M1056.537,271.208c0,0-23.956-31.924-57.261-32.489s-82.415,105.071-12.983,124.507&#10;&#9;&#9;&#9;&#9;c0,0,45.496,19.437,82.301-14.433C1105.399,314.925,1056.537,271.208,1056.537,271.208z"/>
			<path d="M 1082.781005859375 333.9169921875 L 1090.4649658203125 392.1700134277344 L 1141.0860595703125 382.0459899902344 L 1124.1109619140625 337.385009765625 Z" fill="#E09D70"/>
			<path fill="#ECAA76" d="M1137.011,292.318c0,0,16.935,71.151-7.903,78.843c-23.442,7.26-55.451-14.178-60-30.937&#10;&#9;&#9;&#9;&#9;c-12.002-44.215,17.574-60.009,26.131-63.29C1108.611,271.807,1132.494,269.883,1137.011,292.318z"/>
			<path fill="#462737" d="M1119.512,289.523c0,0-58.788-16.519-48.627,42.752c0,0,4.924,21.073,11.436,25.991&#10;&#9;&#9;&#9;&#9;c0,0-20.387,6.333-33.369-26.407c-12.983-32.74,4.516-72.818,38.385-73.383s42.988,4.852,48.182,27.195&#10;&#9;&#9;&#9;&#9;C1135.518,285.672,1124.027,278.798,1119.512,289.523z"/>
			<path fill="#31847E" d="M1067.139,264.33c0,0-18.898,22.308-14.098,43.225l-11.287,5.676&#10;&#9;&#9;&#9;&#9;C1041.754,313.231,1032.83,281.896,1067.139,264.33z"/>
			
				<path d="M 1074.847988 332.274994 A 18.311001 25.280001 0 0 1 1056.536987 357.554995 A 18.311001 25.280001 0 0 1 1038.225986 332.274994 A 18.311001 25.280001 0 0 1 1056.536987 306.994993 A 18.311001 25.280001 0 0 1 1074.847988 332.274994 Z" transform="matrix(0.9536 -0.3009 0.3009 0.9536 -51.0171 333.3521)" fill="#185A58"/>
			<path fill="#24706C" d="M1067.007,329.229c-3.736-11.841-13.026-19.714-21.82-19.176c-6.961,4.915-9.722,16.294-6.112,27.732&#10;&#9;&#9;&#9;&#9;c3.737,11.841,13.026,19.714,21.82,19.177C1067.855,352.048,1070.616,340.668,1067.007,329.229z"/>
			<path fill="none" stroke="#231F20" stroke-miterlimit="10" d="M1122.719,349.772c0.415,0.282,5.637,5.222,10.435,2.258"/>
			<path fill="none" stroke="#231F20" stroke-miterlimit="10" d="M1128.92,318.438c0,0,4.233,9.314,10.16,11.007&#10;&#9;&#9;&#9;&#9;c0,0-3.104,7.605-11.854,5.214"/>
			<path fill="#5B384D" d="M1022.84,251.591c0.262-0.301,0.544-0.646,0.939-0.688c0.355-0.038,0.68,0.182,0.979,0.377&#10;&#9;&#9;&#9;&#9;c0.929,0.606,12.124,3.611,13.821,2.491c-8.65-6.538-19.988-12.815-33.028-14.573c-0.012,0.546-0.023,1.092-0.035,1.638&#10;&#9;&#9;&#9;&#9;c-0.012,0.512-0.009,1.07,0.306,1.475c0.258,0.333,0.675,0.492,1.07,0.637c2.007,0.735,4.015,1.47,6.022,2.205&#10;&#9;&#9;&#9;&#9;c-0.181,2.586-0.624,5.154-1.322,7.651C1014.917,255.286,1020.122,254.724,1022.84,251.591z"/>
			<path fill="#5B384D" d="M1004.76,272.415c0.465,0.912,0.896,1.954,1.818,2.399c0.523,0.253,1.126,0.269,1.707,0.278&#10;&#9;&#9;&#9;&#9;c3.499,0.061,6.997,0.121,10.495,0.182c1.521,0.026,3.567,0.575,3.479,2.094c-0.059,0.996-1.125,1.635-2.112,1.771&#10;&#9;&#9;&#9;&#9;c-0.988,0.136-2.01-0.044-2.979,0.188c-0.828,0.198-1.554,0.681-2.282,1.12c-5.372,3.239-11.919,4.479-18.104,3.43&#10;&#9;&#9;&#9;&#9;c-0.555-0.869-0.18-2.053,0.468-2.854c0.648-0.802,1.532-1.388,2.177-2.192c1.714-2.137,1.14-5.709-1.157-7.202&#10;&#9;&#9;&#9;&#9;c-1.263-0.821-2.814-1.017-4.291-1.316c-4.738-0.961-6.301-5.27-0.569-5.193C998.028,265.181,1002.698,268.372,1004.76,272.415z"/>
			<path fill="#5B384D" d="M967.53,309.52c0.406-0.493,0.701-1.077,1.157-1.523c1.755-1.721,5.203-0.871,6.605-2.889&#10;&#9;&#9;&#9;&#9;c1.086-1.563,0.042-3.832-1.546-4.882c-1.589-1.05-3.552-1.312-5.351-1.937c-3.844-1.337-5.684-3.998-7.856-7.168&#10;&#9;&#9;&#9;&#9;c-1.604-2.34-2.481-3.38-4.48-3.588c-2.736,8.186-4.501,16.717-4.878,25.018c3.931,0.276,7.898,0.01,11.755-0.801&#10;&#9;&#9;&#9;&#9;C964.635,311.391,966.426,310.859,967.53,309.52z"/>
			<path fill="#5B384D" d="M1087.336,258.477c-2.135,0.035-4.203,0.229-6.204,0.566c0.016,0.194,0.036,0.387,0.063,0.57&#10;&#9;&#9;&#9;&#9;c1.243,0.753,2.869,0.046,4.287,0.364c1.134,0.254,2.011,1.13,3.041,1.667c1.555,0.811,3.39,0.82,5.144,0.811&#10;&#9;&#9;&#9;&#9;c3.147-0.017,6.296-0.034,9.443-0.051c2.501-0.013,5.341-0.177,6.947-2.095c0.163-0.195,0.307-0.417,0.416-0.651&#10;&#9;&#9;&#9;&#9;C1104.405,258.631,1096.847,258.318,1087.336,258.477z"/>
			<path fill="#5B384D" d="M1077.218,272.199c-0.607,0.433-1.254,0.959-2.19,1.481c0.537,0.731,1.312,0.687,2.194,0.626&#10;&#9;&#9;&#9;&#9;c3.788-0.261,7.21,2.153,10.927,2.929c1.099,0.229,2.282,0.306,3.308-0.15c3.105-1.38-0.131-3.953,1.616-5.511&#10;&#9;&#9;&#9;&#9;c0.172-0.153,0.391-0.261,0.51-0.457c0.092-0.151,0.111-0.334,0.12-0.511c0.038-0.714-0.275-1.652-0.989-1.614&#10;&#9;&#9;&#9;&#9;c-0.58,0.031-0.87,0.687-1.238,1.136c-0.754,0.923-2.082,1.081-3.271,1.17c-2.27,0.17-4.562,0.339-6.812,0&#10;&#9;&#9;&#9;&#9;C1079.222,270.971,1078.278,271.443,1077.218,272.199z"/>
			<path fill="#3FA59B" d="M1048.763,279.297c0.188-0.14,0.376-0.277,0.573-0.401c1.123-0.707,2.46-0.961,3.728-1.354&#10;&#9;&#9;&#9;&#9;c1.267-0.393,2.565-1.002,3.245-2.141c0.368-0.615,0.529-1.346,0.957-1.92c0.592-0.793,1.596-1.164,2.3-1.86&#10;&#9;&#9;&#9;&#9;s0.92-2.115,0.015-2.517c-0.066-0.03-0.139-0.049-0.21-0.071C1054.862,272.252,1051.4,275.739,1048.763,279.297z"/>
			<path fill="#F4B68C" d="M1137.393,297.615c0.455-0.03,0.896-0.142,1.324-0.288c-0.954-4.453-1.706-7.24-1.706-7.24&#10;&#9;&#9;&#9;&#9;c-0.196-0.856-0.44-1.657-0.706-2.435c-0.358,0.215-0.703,0.503-1.024,0.878c-0.395,0.46-0.703,1.012-1.207,1.349&#10;&#9;&#9;&#9;&#9;c-0.396,0.265-0.875,0.37-1.339,0.481c-3.239,0.776-6.349,2.09-9.162,3.872c-0.221,0.14-0.451,0.296-0.555,0.535&#10;&#9;&#9;&#9;&#9;c-0.201,0.465,0.199,1.008,0.683,1.162c0.483,0.153,1.004,0.037,1.502-0.053c2.005-0.358,4.089-0.264,6.053,0.275&#10;&#9;&#9;&#9;&#9;C1133.297,296.712,1135.281,297.755,1137.393,297.615z"/>
			<path fill="#F4B68C" d="M1248.606,400.267c-3.399-9.232-10.503-16.335-19.259-19.883c-3.558-1.062-7.304-1.633-11.147-1.633&#10;&#9;&#9;&#9;&#9;c-0.115,0.032-0.229,0.07-0.343,0.103c-0.667,0.551-1.173,1.233-1.296,2.083c-0.282,1.942,1.582,3.537,3.419,4.229&#10;&#9;&#9;&#9;&#9;c1.836,0.693,3.912,0.962,5.398,2.245c1.711,1.477,2.18,3.883,2.854,6.041c1.538,4.925,4.668,9.34,8.807,12.421&#10;&#9;&#9;&#9;&#9;c3.27,2.434,7.196,4.108,9.774,7.265c1.198,1.468,2.046,3.194,3.231,4.671c1.754,2.185,4.167,3.709,6.78,4.775L1248.606,400.267z&#10;&#9;&#9;&#9;&#9;"/>
			<path fill="#F4B68C" d="M1269.048,455.781c-0.614,1.254-1.074,2.716-1.322,4.423c-0.163,1.119-0.169,2.262-0.435,3.36&#10;&#9;&#9;&#9;&#9;c-0.323,1.337-1.016,2.55-1.7,3.742c-1.706,2.972-3.411,5.943-5.117,8.914c-0.897,1.565-1.819,3.206-1.906,5.008&#10;&#9;&#9;&#9;&#9;c-0.087,1.802,0.953,3.797,2.722,4.155c0.868,0.176,1.76-0.058,2.634-0.199c4.944-0.795,9.952,1.384,14.938,0.93&#10;&#9;&#9;&#9;&#9;c0.433-0.039,0.861-0.107,1.287-0.188L1269.048,455.781z"/>
			<path fill="#F4B68C" d="M1232.595,510.479c0.059-0.106,0.112-0.217,0.176-0.32c2.453-3.934,8.268-3.514,12.374-5.665&#10;&#9;&#9;&#9;&#9;c0.496-0.26,0.995-0.588,1.232-1.095c0.412-0.876-0.152-1.96-0.979-2.463c-0.827-0.504-1.836-0.578-2.801-0.654&#10;&#9;&#9;&#9;&#9;c-5.403-0.424-10.772-1.277-16.042-2.548L1232.595,510.479z"/>
			<path fill="#F4B68C" d="M1247.502,528.381c-3.85,1.898-7.758,4.455-12.179,7.09l0.898,2.18c0.245-0.06,0.493-0.11,0.745-0.145&#10;&#9;&#9;&#9;&#9;c1.824-0.244,3.651,0.288,5.43,0.759c5.074,1.344,10.482,2.221,15.535,0.799c4.146-1.166,7.96-4.246,9.362-8.209&#10;&#9;&#9;&#9;&#9;C1258.855,528.776,1252.591,528.144,1247.502,528.381z"/>
			<path fill="#E5FFE1" d="M1180.078,384.399c1.173,0.42,2.279,1.108,3.522,1.2c1.349,0.1,2.638-0.52,3.826-1.165&#10;&#9;&#9;&#9;&#9;c2.774-1.505,5.433-3.237,8.194-4.757c-11.163,0.135-21.456,0.299-30.914,0.486c1.42,1.756,2.734,3.008,5.69,3.464&#10;&#9;&#9;&#9;&#9;C1173.618,384.124,1176.928,383.269,1180.078,384.399z"/>
			<path fill="#E5FFE1" d="M1045.231,456.018c1.605,1.233,2.545,3.121,3.824,4.69c1.279,1.569,3.267,2.913,5.219,2.375&#10;&#9;&#9;&#9;&#9;c2.319-0.639,3.208-3.576,2.804-5.947c-0.405-2.371-1.677-4.523-2.123-6.887c-0.786-4.168,1.136-8.646-0.417-12.698&#10;&#9;&#9;&#9;&#9;c-0.315-0.823-1.171-2.395-2.209-4.037c-2.593,8.364-5.705,15.158-8.462,21.707&#10;&#9;&#9;&#9;&#9;C1044.343,455.439,1044.805,455.689,1045.231,456.018z"/>
			<path fill="#F4B68C" d="M1202.531,583.752c-4.788,3.171-1.992,7.568-4.822,12.121c-0.424,0.682-0.998,1.252-1.528,1.854&#10;&#9;&#9;&#9;&#9;c-2.751,3.122-4.32,7.084-5.837,10.959c-0.764,1.951-1.528,3.902-2.292,5.854c3.163,1.437,7.246,0.446,9.399-2.28&#10;&#9;&#9;&#9;&#9;c1.361-1.723,1.984-3.992,3.58-5.5c1.58-1.493,3.604-1.881,5.792-1.909C1204.692,597.426,1203.339,590.342,1202.531,583.752z"/>
			<path fill="#F4B68C" d="M956.339,466.958c-0.859,0.579-1.636,1.309-2.382,2.034c-7.466,7.257-14.25,15.214-20.238,23.731&#10;&#9;&#9;&#9;&#9;c1.134,0.961,2.531,1.598,4.015,1.688c2.409,0.147,4.7-1.022,6.705-2.367c2.12-1.422,4.158-3.178,5.114-5.545&#10;&#9;&#9;&#9;&#9;c1.294-3.206,0.487-7.219,2.658-9.909c1.156-1.433,3.045-2.297,3.743-4.001C956.358,471.601,956.491,469.293,956.339,466.958z"/>
			<path fill="#F4B68C" d="M1043.215,444.186c0.066-1.865-0.833-3.606-1.391-5.388c-0.619-1.978-0.823-4.058-1.023-6.121&#10;&#9;&#9;&#9;&#9;c-0.34-3.51,0.311-11.206-1.545-16.02c-1.932,15.826-4.988,36.172-9.676,57.146c4.121-2.071,7.25-6.192,8.178-10.764&#10;&#9;&#9;&#9;&#9;c0.744-3.669,0.267-7.622,1.798-11.038C1040.744,449.349,1043.11,447.091,1043.215,444.186z"/>
			<path fill="#F4B68C" d="M1008.02,543.283c1.792,1.301,4.185,1.371,6.389,1.166c2.528-0.234,5.029-0.764,7.436-1.574&#10;&#9;&#9;&#9;&#9;c0.155-0.052,0.311-0.118,0.466-0.18c-7.165-4.842-16.324-6.667-26.035-10.947c-0.922-0.214-1.845-0.43-2.757-0.625&#10;&#9;&#9;&#9;&#9;c1.199,1.475,3.139,2.554,4.749,2.785c0.772,0.11,1.566,0.1,2.318,0.309C1004.44,535.292,1004.779,540.932,1008.02,543.283z"/>
			<path fill="#F4B68C" d="M1058.541,584.909c-0.122-1.862-0.648-3.078-1.285-4.184c-1.912,9.365-4.202,18.146-6.012,24.571&#10;&#9;&#9;&#9;&#9;c0.023,0.021,0.051,0.035,0.074,0.058c1.148,1.085,1.599,2.707,2.51,3.999c0.89,1.261,2.237,2.19,3.732,2.574&#10;&#9;&#9;&#9;&#9;c3.459,0.889,6.937-1.103,9.955-3.013c0.802-0.508,1.663-1.09,1.937-1.999c0.286-0.948-0.159-1.951-0.64-2.817&#10;&#9;&#9;&#9;&#9;C1065.246,597.674,1058.953,592.247,1058.541,584.909z"/>
			<path fill="#206D69" d="M1242.391,661.102c-1.212,3.209-2.591,6.325-4.574,9.113c-3.268,4.592-7.952,7.964-12.719,10.972&#10;&#9;&#9;&#9;&#9;c-6.159,3.887-12.607,7.315-19.274,10.248c-6.094,2.681-12.967,5.501-15.647,11.595c6.815,3.369,14.647,4.647,22.18,3.621&#10;&#9;&#9;&#9;&#9;c-0.736,3.697-1.474,7.395-2.21,11.092c-0.298,1.494-0.629,3.06-1.616,4.221c-0.748,0.879-1.798,1.435-2.822,1.969&#10;&#9;&#9;&#9;&#9;c-10.777,5.626-21.014,9.462-32.249,13.793c-2.104,0.811-4.661,2.92-3.352,4.756c2.767,0.094,5.533,0.188,8.3,0.28&#10;&#9;&#9;&#9;&#9;c0.391,0.014,0.801,0.032,1.134,0.237c0.659,0.405,0.725,1.311,0.94,2.054c0.93,3.2,5.065,3.928,8.396,4.026&#10;&#9;&#9;&#9;&#9;c8.861,0.26,17.731,0.245,26.592-0.046c-1.568-2.34,0.063-5.71,2.531-7.068c2.468-1.357,5.427-1.322,8.24-1.463&#10;&#9;&#9;&#9;&#9;c2.813-0.14,5.855-0.603,7.814-2.626c0.323-0.333,0.619-0.728,0.673-1.188c0.131-1.126-1.139-1.844-2.199-2.243&#10;&#9;&#9;&#9;&#9;c-2.533-0.954-7.158-1.401-6.919-4.71c0.198-2.75,4.298-4.298,6.496-4.924c5.829-1.657,11.929,1.347,17.684-0.852&#10;&#9;&#9;&#9;&#9;c1.123,3.991,6.145,5.137,10.276,5.478c0.351,0.029,0.702,0.052,1.053,0.079C1257.199,705.42,1251.274,681.472,1242.391,661.102z&#10;&#9;&#9;&#9;&#9;"/>
			<path fill="#206D69" d="M1061.557,681.111c1.62,0.055,3.433,0.222,4.672-0.824c0.642-0.541,1.019-1.334,1.602-1.938&#10;&#9;&#9;&#9;&#9;c2.188-2.267,5.914-1.057,8.959-0.251c3.046,0.807,7.488,0.021,7.546-3.129c0.053-2.952-3.77-4.055-6.688-4.501&#10;&#9;&#9;&#9;&#9;c-9.198-1.404-17.998-5.337-25.18-11.254c-1.358-1.119-2.709-2.335-4.379-2.89c-2.994-0.995-6.929,0.107-8.935-2.328&#10;&#9;&#9;&#9;&#9;c-0.337-0.409-0.669-0.841-0.999-1.283c-1.759,10.528-3.479,22.151-4.963,34.501&#10;&#9;&#9;&#9;&#9;C1042.409,686.351,1051.964,680.786,1061.557,681.111z"/>
			<path fill="#206D69" d="M1036.707,789.982c2.016,0.587,4.201,0.642,6.08,1.578c1.88,0.937,3.352,3.278,2.35,5.124&#10;&#9;&#9;&#9;&#9;c-0.491,0.905-1.438,1.448-2.198,2.142c-1.929,1.756-2.652,4.716-1.754,7.164c3.807,0.335,7.688-0.208,11.256-1.575&#10;&#9;&#9;&#9;&#9;c0.352-2.078,0.703-4.156,1.055-6.233c3.182,0.128,6.374-0.01,9.533-0.412c1.866-0.237,4.188-1.07,4.227-2.951&#10;&#9;&#9;&#9;&#9;c0.048-2.358-3.214-2.85-5.513-3.378c-6.58-1.51-10.119-9.169-16.511-11.341c-2.062-0.701-5.034-2.347-3.712-4.076&#10;&#9;&#9;&#9;&#9;c0.317-0.416,0.824-0.633,1.308-0.832c4.095-1.689,8.401-3.411,12.808-2.96c3.783,0.389,7.25,2.354,11.015,2.896&#10;&#9;&#9;&#9;&#9;c3.765,0.542,8.448-1.179,8.981-4.944c-7.935-2.443-15.868-4.887-23.803-7.331c-2.896-0.892-5.847-1.81-8.329-3.548&#10;&#9;&#9;&#9;&#9;c-1.512-1.059-2.845-2.417-4.547-3.128c-3.659-1.528-8.13,0.27-11.752-1.142c-0.356,5.493-0.693,11.204-1.011,17.101&#10;&#9;&#9;&#9;&#9;c1.33,0.003,2.659,0.006,3.988,0.009C1026.109,778.278,1029.639,787.924,1036.707,789.982z"/>
		</g>
		<path d="M -6.465 -7.225 H 1406.465054 V 987.225012 H -6.465 V -7.225 Z" clip-path="url(#SVGID_2_)" fill="none"/>
		<path clip-path="url(#SVGID_2_)" fill="#563B4A" d="M1436.451-21.323c0,0-159.209,53.016-212.48,39.563&#10;&#9;&#9;&#9;c-53.271-13.453-145.994,26.325-145.994,26.325l1.814,7.396c0,0,91.746-27.776,120.967-17.232s104.398-1,104.398-1&#10;&#9;&#9;&#9;s-35.27,67.868-80.034,86.554c-44.764,18.686-81.896,54.158-81.896,54.158l9.407,4.182c0,0,47.311-46.891,78.908-48.151&#10;&#9;&#9;&#9;c31.598-1.261,94.047-79.581,94.047-79.581l111.41,4.986L1436.451-21.323z"/>
		<path clip-path="url(#SVGID_2_)" fill="#563B4A" d="M895.333-58.491c0,0-125.395,68.458-201.016,74.433l4.4,10.604&#10;&#9;&#9;&#9;c0,0,53.84-12.215,84.621-25.157c30.78-12.941,16.13,33.296,16.13,33.296l9.929,1.199c0,0,1.412-28.375,29.376-34.728&#10;&#9;&#9;&#9;S880.215-25.062,895.333-58.491z"/>
		<path clip-path="url(#SVGID_2_)" fill="#563B4A" d="M1429.288,323.83c0,0-60-66-111-89l-6,10c0,0,27,10,40,27&#10;&#9;&#9;&#9;s-54.37,24.01-54.37,24.01l-2.276,9.89c0,0,63.646-2.9,67.646-13.9c0,0,60,66,59,140&#10;&#9;&#9;&#9;C1422.288,431.83,1427.199,355.805,1429.288,323.83z"/>
		<path clip-path="url(#SVGID_2_)" fill="#185A58" d="M827.398,4.436c0,0,53,4.5,70,53C897.398,57.436,863.898,74.936,827.398,4.436&#10;&#9;&#9;&#9;z"/>
		<path clip-path="url(#SVGID_2_)" fill="#185A58" d="M754.455,11.616c0,0-58.057,5.819-68.057,68.819&#10;&#9;&#9;&#9;C686.398,80.436,747.512,80.796,754.455,11.616z"/>
		<path clip-path="url(#SVGID_2_)" fill="#185A58" d="M1152.355,33.623c0,0-71.775,12.738-89.009,99.571&#10;&#9;&#9;&#9;C1063.347,133.194,1151.889,102.824,1152.355,33.623z"/>
		<path clip-path="url(#SVGID_2_)" fill="#185A58" d="M1200.812-41.67c0,0,11.506,55.178,64.128,66.877&#10;&#9;&#9;&#9;C1264.939,25.207,1263.049-22.19,1200.812-41.67z"/>
		<path clip-path="url(#SVGID_2_)" fill="#185A58" d="M1244.323,120.847c0,0-45.337,32.887-18.427,90.235&#10;&#9;&#9;&#9;C1225.896,211.082,1272.605,163.392,1244.323,120.847z"/>
		<path clip-path="url(#SVGID_2_)" fill="#185A58" d="M1183.852,83.763c0,0,28.874,38.344,73.234,17.459&#10;&#9;&#9;&#9;C1257.086,101.222,1246.634,74.042,1183.852,83.763z"/>
		<path clip-path="url(#SVGID_2_)" fill="#185A58" d="M1359.398,193.436c0,0-11,53,16,84&#10;&#9;&#9;&#9;C1375.398,277.436,1402.398,251.436,1359.398,193.436z"/>
		<path clip-path="url(#SVGID_2_)" fill="#185A58" d="M1292.398,246.436c0,0,40.324,7.246,38.162,43.623&#10;&#9;&#9;&#9;C1330.561,290.059,1295.398,282.436,1292.398,246.436z"/>
		<path clip-path="url(#SVGID_2_)" fill="#185A58" d="M1307.398,340.436c0,0,41-38,83-15&#10;&#9;&#9;&#9;C1390.398,325.436,1372.365,368.495,1307.398,340.436z"/>
	</g>
</svg>