<svg height="511pt" viewBox="0 0 511.99933 511" width="511pt" xmlns="http://www.w3.org/2000/svg"><path d="m7.613281 511.453125c-1.949219 0-3.898437-.742187-5.382812-2.230469-2.972657-2.972656-2.972657-7.792968 0-10.765625l97.175781-97.175781c2.972656-2.972656 7.792969-2.972656 10.765625 0s2.972656 7.792969 0 10.765625l-97.175781 97.175781c-1.488282 1.488282-3.433594 2.230469-5.382813 2.230469zm0 0" fill="#00c3ff"/><path d="m101.554688 360.085938-10.167969 29.550781c-1.375 3.996093-.351563 8.425781 2.636719 11.414062l18.027343 18.027344c2.988281 2.988281 7.421875 4.011719 11.417969 2.636719l29.550781-10.164063zm0 0" fill="#00c3ff"/><path d="m124.476562 401.054688c-2.988281-2.992188-4.011718-7.421876-2.636718-11.417969l2.371094-6.894531-22.65625-22.65625-10.167969 29.550781c-1.375 3.996093-.351563 8.425781 2.636719 11.414062l18.027343 18.027344c2.988281 2.988281 7.421875 4.011719 11.417969 2.636719l16.125-5.546875zm0 0" fill="#00aaf0"/><path d="m291.894531 132.238281-191.136719 191.136719c-10.394531 10.394531-10.425781 27.21875-.070312 37.574219l50.859375 50.859375c10.355469 10.355468 27.179687 10.324218 37.574219-.070313l191.136718-191.136719c-26.1875-26.191406-62.738281-62.738281-88.363281-88.363281zm0 0" fill="#00aaf0"/><path d="m181.59375 411.808594-50.859375-50.859375c-10.355469-10.355469-10.324219-27.179688.070313-37.574219l176.113281-176.113281c-5.285157-5.285157-10.335938-10.339844-15.019531-15.023438l-191.140626 191.136719c-10.394531 10.394531-10.425781 27.21875-.070312 37.574219l50.859375 50.859375c9.167969 9.167968 23.40625 10.1875 33.765625 3.089844-1.308594-.902344-2.558594-1.925782-3.71875-3.089844zm0 0" fill="#059adb"/><g fill="#00c3ff"><path d="m211.710938 389.152344-18.859376-18.863282c-2.976562-2.972656-7.792968-2.972656-10.769531 0-2.972656 2.976563-2.972656 7.792969 0 10.769532l18.863281 18.859375zm0 0"/><path d="m211.015625 341.359375c-2.972656 2.976563-2.972656 7.792969 0 10.769531l18.859375 18.859375 10.765625-10.765625-18.859375-18.863281c-2.972656-2.972656-7.792969-2.972656-10.765625 0zm0 0"/><path d="m250.710938 312.429688c-2.972657-2.972657-7.792969-2.972657-10.765626 0-2.972656 2.972656-2.972656 7.792968 0 10.765624l18.859376 18.859376 10.765624-10.765626zm0 0"/><path d="m268.875 283.5c-2.972656 2.972656-2.972656 7.792969 0 10.765625l18.859375 18.859375 10.765625-10.765625-18.859375-18.859375c-2.972656-2.972656-7.792969-2.972656-10.765625 0zm0 0"/><path d="m326.734375 225.640625c-2.972656 2.972656-2.972656 7.792969 0 10.765625l18.863281 18.859375 10.765625-10.765625-18.863281-18.859375c-2.96875-2.972656-7.792969-2.972656-10.765625 0zm0 0"/><path d="m297.804688 254.570312c-2.972657 2.972657-2.972657 7.792969 0 10.765626l18.859374 18.859374 10.769532-10.765624-18.863282-18.859376c-2.972656-2.972656-7.792968-2.972656-10.765624 0zm0 0"/></g><path d="m379.246094 221.617188 25.191406-25.191407c-19.757812-19.757812-68.660156-68.660156-88.363281-88.363281l-25.191407 25.191406c19.710938 19.710938 68.621094 68.625 88.363282 88.363282zm0 0" fill="#ffc850"/><path d="m305.96875 148.339844 25.191406-25.191406c-3.375-3.371094-11.722656-11.71875-15.085937-15.085938l-25.191407 25.191406c3.363282 3.367188 11.714844 11.714844 15.085938 15.085938zm0 0" fill="#feb644"/><path d="m475.179688 89.390625-35.335938-35.339844-16.734375-16.734375-66.746094 66.746094 52.070313 52.070312zm0 0" fill="#d8dce5"/><path d="m410.785156 130.097656-16.332031-16.332031c-5.359375-5.359375-5.359375-14.046875 0-19.40625l42.851563-42.847656-14.195313-14.195313-66.746094 66.746094 52.070313 52.070312 14.191406-14.191406zm0 0" fill="#c3c8d1"/><path d="m508.558594 75.429688-71.488282-71.488282c-4.660156-4.660156-12.296874-4.578125-17.0625.1875l-6.941406 6.941406c-4.761718 4.761719-4.84375 12.398438-.183594 17.058594l71.488282 71.488282c4.660156 4.660156 12.296875 4.578124 17.0625-.1875l6.941406-6.941407c4.757812-4.761719 4.84375-12.398437.183594-17.058593zm0 0" fill="#c3c8d1"/><path d="m441.265625 28.128906c-4.660156-4.660156-4.574219-12.296875.1875-17.058594l1.371094-1.375-5.753907-5.753906c-4.660156-4.660156-12.296874-4.578125-17.0625.1875l-6.941406 6.941406c-4.761718 4.761719-4.84375 12.398438-.183594 17.058594l71.488282 71.488282c4.660156 4.660156 12.296875 4.578124 17.0625-.1875l5.566406-5.566407zm0 0" fill="#b3bac6"/><path d="m435.347656 182.171875c-4.417968-4.421875-101.371094-101.371094-105.019531-105.019531-4.660156-4.660156-12.285156-4.589844-17.03125.15625l-6.917969 6.917968c-4.746094 4.746094-4.816406 12.371094-.15625 17.03125 3.738282 3.738282 100.863282 100.863282 105.019532 105.019532 4.660156 4.660156 12.285156 4.589844 17.03125-.15625l6.917968-6.917969c4.746094-4.746094 4.816406-12.375.15625-17.03125zm0 0" fill="#e4eaf8"/><path d="m334.609375 101.257812c-4.660156-4.660156-4.589844-12.285156.15625-17.03125l1.316406-1.320312c-3.21875-3.21875-5.28125-5.28125-5.753906-5.753906-4.660156-4.660156-12.285156-4.589844-17.03125.15625l-6.917969 6.917968c-4.75 4.746094-4.816406 12.371094-.15625 17.03125 3.738282 3.742188 100.863282 100.867188 105.019532 105.019532 4.660156 4.660156 12.285156 4.589844 17.03125-.15625l5.597656-5.597656c-21.679688-21.683594-96-96.003907-99.261719-99.265626zm0 0" fill="#d8dce5"/></svg>