<?xml version="1.0" encoding="utf-8"?>
<svg id="master-artboard" viewBox="0 0 1097 778" version="1.1" xmlns="http://www.w3.org/2000/svg" x="0px" y="0px" style="enable-background:new 0 0 1097 778;" width="1097px" height="778px">

<g transform="matrix(1, 0, 0, 1, 0, 0)">
					<path d="M 0 746.799988 H 1097.199951 V 748.299988 H 0 V 746.799988 Z" class="st1" style="fill: rgb(28, 117, 188);"/>
				</g><path d="M 0 173.100006 H 1097.199951 V 174.600006 H 0 V 173.100006 Z" class="st1" style="fill: rgb(182, 218, 250);" transform="matrix(1, 0, 0, 1, -2.6392596344931576, 407.32572842081316)"/><g transform="matrix(1, 0, 0, 1, -2.6392595767974854, 202.34321958641027)">
			<path class="st1" d="M133,213.7C132.9,213.7,132.9,213.7,133,213.7c-2.8,0-5-1.9-5.4-4.7L112.2,105c-0.2-1.5-1.4-2.1-2.4-2.1&#10;&#9;&#9;&#9;&#9;c-1-0.1-2.2,0.5-2.5,2l-15,83.9c-0.5,2.6-2.6,4.4-5.2,4.5c-2.6,0.1-4.8-1.6-5.5-4.2l-15.4-63.3c-0.3-1.3-1.3-1.8-2.2-1.9&#10;&#9;&#9;&#9;&#9;c-0.9-0.1-1.9,0.3-2.5,1.4L45,163.4c-0.9,2-2.8,3.2-5,3.2H0v-3h40c1,0,1.8-0.6,2.2-1.5L59,124.3c1-2.2,3.1-3.4,5.5-3.2&#10;&#9;&#9;&#9;&#9;c2.4,0.2,4.3,1.8,4.8,4.1l15.4,63.3c0.3,1.4,1.5,1.9,2.5,1.9c1,0,2.1-0.6,2.3-2l15-83.9c0.5-2.7,2.7-4.6,5.4-4.5&#10;&#9;&#9;&#9;&#9;c2.7,0,4.9,2,5.3,4.7l15.4,104.1c0.2,1.5,1.4,2.1,2.4,2.1c1,0,2.2-0.5,2.4-2l15.8-93.5c0.4-2.5,2.4-4.3,4.9-4.5&#10;&#9;&#9;&#9;&#9;c2.5-0.2,4.8,1.3,5.6,3.6l16.6,47.6c0.3,1,1.3,1.6,2.3,1.6h78.9c1,0,1.8-0.6,2.2-1.5l16.8-37.9c1-2.2,3.1-3.4,5.5-3.2&#10;&#9;&#9;&#9;&#9;c2.4,0.2,4.3,1.8,4.8,4.1l15.4,63.3c0.3,1.4,1.5,1.9,2.5,1.9c1,0,2.1-0.6,2.3-2l15-83.9c0.5-2.7,2.7-4.5,5.4-4.5c0,0,0.1,0,0.1,0&#10;&#9;&#9;&#9;&#9;c2.7,0,4.9,2,5.3,4.7L350,208.6c0.2,1.5,1.4,2.1,2.4,2.1c1,0,2.2-0.5,2.4-2l15.8-93.5c0.4-2.5,2.4-4.3,4.9-4.5&#10;&#9;&#9;&#9;&#9;c2.5-0.2,4.8,1.3,5.6,3.6l16.6,47.6c0.3,1,1.3,1.6,2.3,1.6H479c1,0,1.8-0.6,2.2-1.5l16.8-37.9c1-2.2,3.1-3.4,5.5-3.2&#10;&#9;&#9;&#9;&#9;c2.4,0.2,4.3,1.8,4.8,4.1l15.4,63.3c0.3,1.4,1.5,1.9,2.5,1.9c1,0,2.1-0.6,2.3-2l15-83.9c0.5-2.7,2.7-4.5,5.4-4.5c0,0,0.1,0,0.1,0&#10;&#9;&#9;&#9;&#9;c2.7,0,4.9,2,5.3,4.7l15.4,104.1c0.2,1.5,1.4,2.1,2.4,2.1c1,0,2.2-0.5,2.4-2l15.8-93.5c0.4-2.5,2.4-4.3,4.9-4.5&#10;&#9;&#9;&#9;&#9;c2.5-0.2,4.8,1.3,5.6,3.6l16.6,47.6c0.3,1,1.3,1.6,2.3,1.6h78.9c1,0,1.8-0.6,2.2-1.5l16.8-37.9c1-2.2,3.1-3.4,5.5-3.2&#10;&#9;&#9;&#9;&#9;c2.4,0.2,4.3,1.8,4.8,4.1l15.4,63.3c0.3,1.4,1.5,1.9,2.5,1.9c1,0,2.1-0.6,2.3-2l15-83.9c0.5-2.7,2.7-4.5,5.4-4.5c0,0,0.1,0,0.1,0&#10;&#9;&#9;&#9;&#9;c2.7,0,4.9,2,5.3,4.7L789,208.6c0.2,1.5,1.4,2.1,2.4,2.1c1,0,2.2-0.5,2.4-2l15.8-93.5c0.4-2.5,2.4-4.3,4.9-4.5&#10;&#9;&#9;&#9;&#9;c2.5-0.2,4.8,1.3,5.6,3.6l16.6,47.6c0.3,1,1.3,1.6,2.3,1.6h78.9c1,0,1.8-0.6,2.2-1.5l16.8-37.9c1-2.2,3.1-3.4,5.5-3.2&#10;&#9;&#9;&#9;&#9;c2.4,0.2,4.3,1.8,4.8,4.1l15.4,63.3c0.3,1.4,1.5,1.9,2.5,1.9c1,0,2.1-0.6,2.3-2l15-83.9c0.5-2.7,2.7-4.5,5.4-4.5c0,0,0.1,0,0.1,0&#10;&#9;&#9;&#9;&#9;c2.7,0,4.9,2,5.3,4.7l15.4,104.1c0.2,1.5,1.4,2.1,2.4,2.1c1,0,2.2-0.5,2.4-2l15.8-93.5c0.4-2.5,2.4-4.3,4.9-4.5&#10;&#9;&#9;&#9;&#9;c2.5-0.2,4.8,1.3,5.6,3.6l16.6,47.6c0.3,1,1.3,1.6,2.3,1.6h38.6v3h-38.6c-2.3,0-4.4-1.5-5.1-3.7l-16.6-47.6&#10;&#9;&#9;&#9;&#9;c-0.5-1.3-1.6-1.7-2.5-1.6c-0.9,0.1-2,0.7-2.2,2l-15.8,93.5c-0.5,2.7-2.7,4.5-5.4,4.5c-2.7,0-4.9-1.9-5.3-4.7L990.2,105&#10;&#9;&#9;&#9;&#9;c-0.2-1.5-1.4-2.1-2.4-2.1c-1-0.1-2.2,0.5-2.4,2l-15,83.9c-0.5,2.6-2.6,4.4-5.2,4.5c-2.6,0.1-4.8-1.6-5.5-4.2l-15.4-63.3&#10;&#9;&#9;&#9;&#9;c-0.3-1.3-1.3-1.8-2.2-1.9c-0.8-0.1-1.9,0.3-2.5,1.4l-16.8,37.9c-0.9,2-2.8,3.2-5,3.2H839c-2.3,0-4.4-1.5-5.1-3.7l-16.6-47.6&#10;&#9;&#9;&#9;&#9;c-0.5-1.3-1.6-1.7-2.5-1.6c-0.9,0.1-2,0.7-2.2,2l-15.8,93.5c-0.5,2.7-2.7,4.5-5.4,4.5c-2.7,0-4.9-1.9-5.3-4.7L770.7,105&#10;&#9;&#9;&#9;&#9;c-0.2-1.5-1.4-2.1-2.4-2.1c-1-0.1-2.2,0.5-2.4,2l-15,83.9c-0.5,2.6-2.6,4.4-5.2,4.5c-2.6,0.1-4.8-1.6-5.5-4.2l-15.4-63.3&#10;&#9;&#9;&#9;&#9;c-0.3-1.3-1.3-1.8-2.2-1.9c-0.8-0.1-1.9,0.3-2.5,1.4l-16.8,37.9c-0.9,2-2.8,3.2-5,3.2h-78.9c-2.3,0-4.4-1.5-5.1-3.7l-16.6-47.6&#10;&#9;&#9;&#9;&#9;c-0.5-1.3-1.6-1.7-2.5-1.6c-0.9,0.1-2,0.7-2.2,2l-15.8,93.5c-0.5,2.7-2.7,4.5-5.4,4.5c-2.7,0-4.9-1.9-5.3-4.7L551.2,105&#10;&#9;&#9;&#9;&#9;c-0.2-1.5-1.4-2.1-2.4-2.1c-1-0.1-2.2,0.5-2.4,2l-15,83.9c-0.5,2.6-2.6,4.4-5.2,4.5c-2.7,0.1-4.8-1.6-5.5-4.2l-15.4-63.3&#10;&#9;&#9;&#9;&#9;c-0.3-1.3-1.3-1.8-2.2-1.9c-0.9-0.1-1.9,0.3-2.5,1.4l-16.8,37.9c-0.9,2-2.8,3.2-5,3.2H400c-2.3,0-4.4-1.5-5.1-3.7l-16.6-47.6&#10;&#9;&#9;&#9;&#9;c-0.5-1.3-1.6-1.7-2.5-1.6c-0.9,0.1-2,0.7-2.2,2l-15.8,93.5c-0.5,2.7-2.7,4.5-5.4,4.5c0,0,0,0-0.1,0c-2.7,0-4.9-1.9-5.3-4.7&#10;&#9;&#9;&#9;&#9;L331.7,105c-0.2-1.5-1.4-2.1-2.4-2.1c-1-0.1-2.2,0.5-2.4,2l-15,83.9c-0.5,2.6-2.6,4.4-5.2,4.5c-2.7,0.1-4.8-1.6-5.5-4.2&#10;&#9;&#9;&#9;&#9;l-15.4-63.3c-0.3-1.3-1.3-1.8-2.2-1.9c-0.9-0.1-1.9,0.3-2.5,1.4l-16.8,37.9c-0.9,2-2.8,3.2-5,3.2h-78.9c-2.3,0-4.4-1.5-5.1-3.7&#10;&#9;&#9;&#9;&#9;l-16.6-47.6c-0.5-1.3-1.6-1.7-2.5-1.6c-0.9,0.1-2,0.7-2.2,2l-15.8,93.5C137.9,211.9,135.7,213.7,133,213.7z" style="fill: rgb(182, 218, 250);"/>
		</g>
</svg>