<svg id="Capa_1" enable-background="new 0 0 512.013 512.013" height="512" viewBox="0 0 512.013 512.013" width="512" xmlns="http://www.w3.org/2000/svg"><g><path d="m347.709 27.995h-194.365c-25 0-45.266 20.266-45.266 45.266v37.897c0 12.934 10.485 23.419 23.419 23.419h238.058c12.934 0 23.419-10.485 23.419-23.419v-37.897c.001-25-20.266-45.266-45.265-45.266z" fill="#7ca1dc"/><circle cx="442.259" cy="232.844" fill="#fbf1cf" r="62.254"/><path d="m479.604 282.653c-49.852-15.081-70.446-67.82-59.53-107.977-23.424 8.939-40.069 31.604-40.069 58.169 0 34.382 27.872 62.254 62.254 62.254 14.012-.001 26.942-4.633 37.345-12.446z" fill="#f5e2a2"/><path d="m326.416 484.017h-151.78c-50.587 0-91.596-41.009-91.596-91.596v-112.919c0-26.917 6.907-53.384 20.06-76.868l38.118-68.056h218.617l38.117 68.056c13.153 23.484 20.06 49.951 20.06 76.868v112.919c.001 50.587-41.009 91.596-91.596 91.596z" fill="#cde9fa"/><path d="m377.886 166.806-18.051-32.229h-218.617l-38.118 68.057c-13.153 23.484-20.06 49.951-20.06 76.868v112.919c0 50.587 41.009 91.596 91.596 91.596h53.253c-63.944-61.511-58.913-199.3-44.3-293.209 2.152-13.827 14.094-24.002 28.088-24.002z" fill="#a2ddfd"/><path d="m325.217 295.224h-149.381c-13.901 0-25.17 11.269-25.17 25.17v80.45c0 13.901 11.269 25.17 25.17 25.17h149.381c13.901 0 25.17-11.269 25.17-25.17v-80.45c0-13.901-11.269-25.17-25.17-25.17z" fill="#fbf1cf"/><path d="m174.37 295.269c-13.219.759-23.704 11.716-23.704 25.125v80.45c0 13.901 11.269 25.17 25.17 25.17h16.307c-13.942-38.395-18.424-84.889-17.773-130.745z" fill="#f5e2a2"/><g><g fill="#fff"><ellipse cx="163.15" cy="235.558" rx="32.24" ry="25.674"/><ellipse cx="337.902" cy="235.558" rx="32.24" ry="25.674"/></g></g><path d="m21.648 336.4c-18.847-18.847-18.847-49.404 0-68.25s49.404-18.847 68.25 0l59.117 59.117c18.847 18.847 18.847 49.403 0 68.25s-49.404 18.847-68.25 0z" fill="#f6ee86"/><path d="m51.206 365.958 29.559 29.559c18.847 18.847 49.404 18.847 68.25 0 18.847-18.847 18.847-49.403 0-68.25l-29.558-29.559z" fill="#e58996"/><path d="m159.094 207.62c0 4.142 3.358 7.5 7.5 7.5s7.5-3.358 7.5-7.5c0-4.326 3.52-7.846 7.846-7.846s7.845 3.52 7.845 7.846c0 4.142 3.358 7.5 7.5 7.5s7.5-3.358 7.5-7.5c0-12.597-10.249-22.846-22.845-22.846-12.597 0-22.846 10.249-22.846 22.846zm50.116 160.499h40.638c4.142 0 7.5-3.358 7.5-7.5s-3.358-7.5-7.5-7.5h-40.638c-4.142 0-7.5 3.358-7.5 7.5s3.358 7.5 7.5 7.5zm51.94-147.491c-2.682 3.078-6.554 4.843-10.624 4.843-4.069 0-7.941-1.765-10.624-4.843-2.723-3.123-7.459-3.447-10.582-.727-3.123 2.722-3.448 7.46-.727 10.582 5.532 6.347 13.526 9.988 21.932 9.988s16.4-3.641 21.932-9.988c2.721-3.122 2.396-7.86-.727-10.582-3.122-2.72-7.859-2.395-10.58.727zm231.001-36.464c-.177-.222-.364-.438-.569-.643s-.421-.392-.642-.568c-26.721-26.079-69.029-26.467-96.109-1.242l-22.281-39.781c15.649-1.511 27.926-14.733 27.926-30.772v-37.897c0-29.095-23.671-52.766-52.766-52.766h-175.53c-4.142 0-7.5 3.358-7.5 7.5s3.358 7.5 7.5 7.5h175.53c20.824 0 37.766 16.942 37.766 37.766v37.897c0 8.778-7.142 15.919-15.919 15.919-12.931 0-27.721 0-40.713 0v-45.791c0-4.142-3.358-7.5-7.5-7.5s-7.5 3.358-7.5 7.5v45.791h-55.816v-45.791c0-4.142-3.358-7.5-7.5-7.5s-7.5 3.358-7.5 7.5v45.791h-55.818v-45.791c0-4.142-3.358-7.5-7.5-7.5s-7.5 3.358-7.5 7.5v45.791c-.103 0-40.816 0-40.712 0-8.778 0-15.919-7.142-15.919-15.919v-37.897c0-15.653 9.414-29.459 23.983-35.174 3.856-1.512 5.756-5.864 4.243-9.721-1.512-3.856-5.864-5.757-9.721-4.243-20.354 7.983-33.505 27.271-33.505 49.138v37.897c0 16.039 12.277 29.261 27.926 30.772l-31.947 57.039c-9.144 16.326-15.352 33.828-18.536 52.161-20.028-8.718-44.71-5.25-61.677 11.717-21.792 21.792-21.794 57.063 0 78.857.78.78 58.176 58.185 59.597 59.574 4.504 50.847 47.27 90.24 98.695 90.24h151.78c19.636 0 38.619-5.734 54.895-16.583 3.447-2.297 4.378-6.954 2.081-10.4s-6.954-4.378-10.4-2.081c-13.805 9.201-29.911 14.064-46.576 14.064h-151.78c-39.243 0-72.532-27.033-81.625-63.852 16.822 7.152 35.904 5.579 51.147-3.825 3.577 14.161 16.42 24.674 31.677 24.674h149.381c18.015 0 32.67-14.656 32.67-32.67v-80.45c0-18.015-14.656-32.67-32.67-32.67h-149.381c-15.087 0-27.813 10.282-31.552 24.205-52.086-51.977-48.965-49.2-52.423-52.146 2.496-18.879 8.467-36.853 17.783-53.484l35.969-64.221h209.826c8.48 15.14 28.456 50.807 35.969 64.221 12.498 22.314 19.104 47.627 19.104 73.203v112.919c0 16.757-4.913 32.937-14.207 46.79-2.308 3.44-1.39 8.099 2.049 10.407s8.098 1.391 10.407-2.049c10.958-16.333 16.751-35.403 16.751-55.147v-91.855c44.072 10.88 86.5-22.653 86.5-67.721.001-18.926-7.585-36.104-19.861-48.683zm-188.743 118.56h21.809c9.744 0 17.67 7.927 17.67 17.67v80.45c0 9.744-7.927 17.67-17.67 17.67h-21.809zm-145.243 93.834c16.61-20.41 16.61-49.923 0-70.332v-5.832c0-9.744 7.927-17.67 17.67-17.67h112.572v115.791h-112.571c-9.744 0-17.67-7.927-17.67-17.67v-4.287zm-14.453-63.988c15.892 15.893 15.892 41.751 0 57.644-15.893 15.893-41.751 15.893-57.644 0l-24.255-24.255 57.644-57.644zm-34.862-34.862-57.644 57.644-24.255-24.255c-15.929-15.929-15.931-41.713 0-57.644 16.123-16.121 41.913-15.729 57.644 0zm293.595-102.4c19.312-20.536 50.722-22.883 72.842-6.098l-53.864 53.864c-6.104-26.91-18.227-46.197-18.978-47.766zm23.067 89.673c-.074-3.608.33-11.491-1.042-23.742l61.423-61.423c6.972 9.188 11.119 20.631 11.119 33.028 0 36.994-36.183 63.488-71.5 52.137zm-129.245-77.361c0 4.142 3.358 7.5 7.5 7.5s7.5-3.358 7.5-7.5c0-4.326 3.52-7.846 7.846-7.846s7.846 3.52 7.846 7.846c0 4.142 3.358 7.5 7.5 7.5s7.5-3.358 7.5-7.5c0-12.597-10.249-22.846-22.846-22.846s-22.846 10.249-22.846 22.846z"/></g></svg>