<?xml version="1.0"?>
<svg xmlns="http://www.w3.org/2000/svg" height="512px" viewBox="0 0 512 512" width="512px" class=""><g><path d="m420.328125 7.605469h-328.65625c-46.429687 0-84.066406 37.636719-84.066406 84.066406v328.65625c0 46.429687 37.636719 84.066406 84.066406 84.066406h328.65625c46.429687 0 84.066406-37.636719 84.066406-84.066406v-328.65625c0-46.429687-37.636719-84.066406-84.066406-84.066406zm0 0" fill="#ccc" data-original="#CCC"/><path d="m91.671875 483.105469c-34.613281 0-62.777344-28.164063-62.777344-62.777344v-328.65625c0-34.613281 28.164063-62.777344 62.777344-62.777344h328.65625c34.617187 0 62.777344 28.164063 62.777344 62.777344v328.65625c0 34.613281-28.164063 62.777344-62.777344 62.777344zm0 0" fill="#e6e6e6" data-original="#E6E6E6" class=""/><path d="m418.074219 201.828125h-85.667969c-12.28125 0-22.234375-9.953125-22.234375-22.234375v-85.667969c0-12.28125-9.957031-22.238281-22.238281-22.238281h-63.867188c-12.28125 0-22.238281 9.957031-22.238281 22.238281v85.667969c0 12.28125-9.953125 22.234375-22.234375 22.234375h-85.667969c-12.28125 0-22.238281 9.957031-22.238281 22.238281v63.867188c0 12.28125 9.957031 22.238281 22.238281 22.238281h85.667969c12.28125 0 22.234375 9.953125 22.234375 22.234375v85.667969c0 12.28125 9.957031 22.238281 22.238281 22.238281h63.867188c12.28125 0 22.238281-9.957031 22.238281-22.238281v-85.667969c0-12.28125 9.953125-22.234375 22.234375-22.234375h85.667969c12.28125 0 22.238281-9.957031 22.238281-22.238281v-63.867188c0-12.28125-9.957031-22.238281-22.238281-22.238281zm0 0" fill="#ff5a73" data-original="#FF5A73" class="active-path" style="fill:#4B8CC5" data-old_color="#ff5a73"/><path d="m420.328125 0h-328.65625c-50.546875 0-91.671875 41.125-91.671875 91.671875v277.769531c0 4.199219 3.402344 7.605469 7.605469 7.605469 4.199219 0 7.601562-3.40625 7.601562-7.605469v-277.769531c0-42.160156 34.304688-76.464844 76.464844-76.464844h328.65625c42.160156 0 76.464844 34.304688 76.464844 76.464844v328.65625c0 42.160156-34.304688 76.464844-76.464844 76.464844h-328.65625c-42.160156 0-76.464844-34.304688-76.464844-76.464844v-20.46875c0-4.199219-3.402343-7.601563-7.601562-7.601563-4.203125 0-7.605469 3.402344-7.605469 7.601563v20.46875c0 50.546875 41.125 91.671875 91.671875 91.671875h328.65625c50.546875 0 91.671875-41.125 91.671875-91.671875v-328.65625c0-50.546875-41.125-91.671875-91.671875-91.671875zm0 0" data-original="#000000" class=""/><path d="m287.933594 64.085938h-63.867188c-16.453125 0-29.839844 13.382812-29.839844 29.839843v85.667969c0 8.070312-6.566406 14.632812-14.632812 14.632812h-85.667969c-16.453125 0-29.839843 13.386719-29.839843 29.839844v63.871094c0 16.453125 13.382812 29.839844 29.839843 29.839844h85.667969c8.070312 0 14.632812 6.5625 14.632812 14.628906v85.671875c0 16.453125 13.386719 29.839844 29.839844 29.839844h63.871094c16.453125 0 29.839844-13.386719 29.839844-29.839844v-85.671875c0-8.066406 6.5625-14.628906 14.628906-14.628906h85.671875c16.453125 0 29.839844-13.386719 29.839844-29.839844v-63.871094c0-16.453125-13.386719-29.839844-29.839844-29.839844h-49.074219c-4.199218 0-7.601562 3.40625-7.601562 7.605469s3.402344 7.601563 7.601562 7.601563h49.070313c8.070312 0 14.632812 6.566406 14.632812 14.632812v63.871094c0 8.066406-6.5625 14.628906-14.632812 14.628906h-85.667969c-16.453125 0-29.839844 13.386719-29.839844 29.839844v85.671875c0 8.066406-6.566406 14.632813-14.632812 14.632813h-63.871094c-8.066406 0-14.628906-6.566407-14.628906-14.632813v-85.671875c0-16.453125-13.386719-29.839844-29.839844-29.839844h-85.667969c-8.070312 0-14.632812-6.5625-14.632812-14.628906v-63.871094c0-8.066406 6.5625-14.632812 14.632812-14.632812h85.667969c16.453125 0 29.839844-13.386719 29.839844-29.839844v-85.667969c0-8.070312 6.566406-14.632812 14.632812-14.632812h63.871094c8.066406 0 14.628906 6.5625 14.628906 14.632812v85.667969c0 16.453125 13.386719 29.839844 29.839844 29.839844h6.183594c4.199218 0 7.601562-3.402344 7.601562-7.601563s-3.402344-7.605469-7.601562-7.605469h-6.183594c-8.066406 0-14.628906-6.5625-14.628906-14.632812v-85.667969c-.003906-16.453125-13.390625-29.839843-29.84375-29.839843zm0 0" data-original="#000000" class=""/></g> </svg>
