<?xml version="1.0"?>
<svg xmlns="http://www.w3.org/2000/svg" id="Layer_1" data-name="Layer 1" viewBox="0 0 512 512" width="512px" height="512px" class=""><g><title>medical care</title><path d="M347,235v44a4,4,0,0,1-4,4H282a4,4,0,0,0-4,4v63a4,4,0,0,1-4,4H229a4,4,0,0,1-4-4V287a4,4,0,0,0-4-4H159a4,4,0,0,1-4-4V235a4,4,0,0,1,4-4h62a4,4,0,0,0,4-4V166a4,4,0,0,1,4-4h45a4,4,0,0,1,4,4v61a4,4,0,0,0,4,4h61A4,4,0,0,1,347,235Z" style="fill:#e48e66" data-original="#E48E66" class=""/><path d="M107.05,401.02a6.984,6.984,0,0,1-4.985-2.085A206.9,206.9,0,0,1,333.644,64.778a7,7,0,0,1-5.708,12.784A192.906,192.906,0,0,0,112.034,389.1a7,7,0,0,1-4.984,11.916Z" style="fill:#3fa9f5" data-original="#3FA9F5" class=""/><path d="M256.363,465.082A206.04,206.04,0,0,1,173.1,447.554a7,7,0,1,1,5.658-12.807,192.9,192.9,0,0,0,215.159-311.89,7,7,0,0,1,9.965-9.834,206.9,206.9,0,0,1-147.52,352.059Z" style="fill:#3fa9f5" data-original="#3FA9F5" class=""/><polygon points="352.61 26 378.32 96.88 307.43 122.58 352.61 26" style="fill:#A4A6A9" data-original="#F8EC7D" class="active-path" data-old_color="#F8EC7D"/><polygon points="198.57 389.42 175 439.79 153.38 486 127.68 415.12 198.57 389.42" style="fill:#A4A6A9" data-original="#F8EC7D" class="active-path" data-old_color="#F8EC7D"/></g> </svg>
