<svg width="580" height="400" xmlns="http://www.w3.org/2000/svg">
 <!-- Created with Method Draw - http://github.com/duopixel/Method-Draw/ -->

 <g>
  <title>background</title>
  <rect fill="#fff" id="canvas_background" height="402" width="582" y="-1" x="-1"/>
  <g display="none" overflow="visible" y="0" x="0" height="100%" width="100%" id="canvasGrid">
   <rect fill="url(#gridpattern)" stroke-width="0" y="0" x="0" height="100%" width="100%"/>
  </g>
 </g>
 <g>
  <title>Layer 1</title>
  <g stroke="null" id="svg_141">
   <path stroke="null" id="svg_5" d="m454.464433,306.099864c0.013184,-0.416319 0.64602,-22.312114 0,-26.761527c-0.64602,-4.488443 -4.205723,-5.880511 -4.205723,-5.880511l0,32.642038l4.205723,0z" fill="#E9F7FE"/>
   <g stroke="null" id="svg_6" transform="matrix(0.13184083078445177,0,0,0.13009979127864332,-8727.658197217366,-5929.115773892068) ">
    <path stroke="null" id="svg_7" d="m69737.9147,47545.506279c0,0 -12.7,53.4 -10.2,86.5s9.3,63.6 9.3,63.6l112,0c0,0 3.4,-87.4 -8.5,-128.1c-11.9,-40.6 -73.8,-70.3 -102.6,-22z" fill="#211316"/>
    <g stroke="null" id="svg_8">
     <path stroke="null" id="svg_9" d="m69702.0147,47926.406279l0,-235.5c0,0 -23.2,10 -27.5,42.4c-4.2,32.1 -0.1,190.1 0,193.1l27.5,0z" fill="#E9F7FE"/>
     <path stroke="null" id="svg_10" d="m69904.3147,47926.406279c0.1,-3 4.2,-161 0,-193.1c-4.2,-32.4 -27.5,-42.4 -27.5,-42.4l0,235.5l27.5,0z" fill="#E9F7FE"/>
    </g>
    <path stroke="null" id="svg_11" fill="#E9F7FE" d="m69876.81471,47926.406289l0,-235.5l-49.40002,-15.80002l-75.29999,0l-50.09998,15.80002l0,235.5l174.79999,0z"/>
    <path stroke="null" id="svg_12" fill="#FFFFFF" d="m69752.1147,47675.106269l-9.40002,2.9l-17.79999,60.6l23.60003,5.60001l-21,18.79999l31.89997,150.29999l30,0l30,0l31.90002,-150.29999l-21,-18.79999l23.59998,-5.60001l-17.79999,-60.79998l-8.70001,-2.70002l-75.29999,0z"/>
    <g stroke="null" id="svg_13">
     <path stroke="null" id="svg_14" d="m69882.7147,47741.406279l-45.6,0c-2.9,0 -5.3,2.4 -5.3,5.3l0,26.9c0,2.9 2.4,5.3 5.3,5.3l45.6,0c2.9,0 5.3,-2.4 5.3,-5.3l0,-26.9c0,-2.9 -2.4,-5.3 -5.3,-5.3z" fill="#FFFFFF"/>
     <g stroke="null" id="svg_15">
      <path stroke="null" id="svg_16" fill="#A9ACBA" d="m69837.1147,47748.006269l16.2,0l0,22.4l-16.2,0l0,-22.4z"/>
      <path stroke="null" id="svg_17" fill="#A9ACBA" d="m69855.21468,47748.206279l27.6,0l0,2.5l-27.6,0l0,-2.5z"/>
      <path stroke="null" id="svg_18" fill="#A9ACBA" d="m69855.21468,47755.506269l27.6,0l0,2.5l-27.6,0l0,-2.5z"/>
      <path stroke="null" id="svg_19" fill="#A9ACBA" d="m69855.21468,47762.706279l27.6,0l0,2.5l-27.6,0l0,-2.5z"/>
     </g>
     <path stroke="null" id="svg_20" d="m69859.9147,47731.806279c-1.5,0 -2.6,1.2 -2.6,2.6l0,7.5c0,1.5 1.2,2.6 2.6,2.6s2.6,-1.2 2.6,-2.6l0,-7.5c0.1,-1.4 -1.1,-2.6 -2.6,-2.6z" fill="#A9ACBA"/>
    </g>
    <g stroke="null" id="svg_21">
     <g stroke="null" id="svg_22">
      <g stroke="null" id="svg_23">
       <path stroke="null" id="svg_24" d="m69861.4147,47762.906279l-6.3,0l0,-42.3c0,-30.2 -24.6,-54.7 -54.7,-54.7l-20.1,0c-30.2,0 -54.7,24.6 -54.7,54.7l0,73.1l-6.3,0l0,-73.1c0,-33.7 27.4,-61.1 61.1,-61.1l20.1,0c33.7,0 61.1,27.4 61.1,61.1l0,42.3l-0.2,0z" fill="#305675"/>
      </g>
     </g>
     <path stroke="null" id="svg_25" fill="#87939B" d="m69732.5147,47802.506269a10.4,10.4 0 0 1 -10.4,10.4a10.4,10.4 0 0 1 -10.4,-10.4a10.4,10.4 0 0 1 10.4,-10.4a10.4,10.4 0 0 1 10.4,10.4z"/>
     <path stroke="null" id="svg_26" fill="#305675" d="m69727.4147,47802.506269a5.3,5.3 0 0 1 -5.3,5.3a5.3,5.3 0 0 1 -5.3,-5.3a5.3,5.3 0 0 1 5.3,-5.3a5.3,5.3 0 0 1 5.3,5.3z"/>
     <g stroke="null" id="svg_27">
      <path stroke="null" id="svg_28" d="m69872.1147,47839.106279l-1.8,0l0,-6.3l1.8,0c2.3,0 4.5,-0.7 6.4,-2.1c3.7,-2.7 5.3,-7.2 4.2,-11.7l-11.2,-43.2c-1.3,-4.8 -5.6,-8.2 -10.6,-8.2l-5,0c-5,0 -9.4,3.4 -10.6,8.2l-11.2,43.2c-1.1,4.4 0.5,9 4.2,11.7c1.9,1.4 4.1,2.1 6.4,2.1l1.8,0l0,6.3l-1.8,0c-3.7,0 -7.2,-1.1 -10.1,-3.3c-5.8,-4.2 -8.4,-11.4 -6.6,-18.4l11.2,-43.2c2,-7.6 8.9,-13 16.8,-13l5,0c7.9,0 14.8,5.3 16.8,13l11.2,43.2c1.8,7 -0.8,14.2 -6.6,18.4c-3.1,2.1 -6.6,3.3 -10.3,3.3z" fill="#87939B"/>
     </g>
     <path stroke="null" id="svg_29" d="m69854.5147,47836.206279c0,3.2 -1.6,5.8 -3.5,5.8s-7.2,-2.6 -7.2,-5.8s5.3,-5.8 7.2,-5.8s3.5,2.6 3.5,5.8z" fill="#305675"/>
     <path stroke="null" id="svg_30" d="m69863.5147,47836.206279c0,3.2 1.6,5.8 3.5,5.8s7.2,-2.6 7.2,-5.8s-5.3,-5.8 -7.2,-5.8s-3.5,2.6 -3.5,5.8z" fill="#305675"/>
    </g>
    <path stroke="null" id="svg_31" fill="#F49B7F" d="m69756.51472,47646.706279l65.90001,0l0,85.7l-65.90001,0l0,-85.7z"/>
    <g stroke="null" id="svg_32">
     <path stroke="null" id="svg_33" d="m69849.9147,47586.106279c-4.5,-6.1 -9,-2.4 -11.5,0.8c-2.9,-18.2 -7.4,-35.4 -13.6,-38.7c-11.3,-6.1 -35.3,-6.1 -35.3,-6.1s-24.1,0 -35.3,6.1c-6.2,3.4 -10.7,20.6 -13.6,38.7c-2.5,-3.2 -7,-6.9 -11.5,-0.8c-5.9,7.9 2.7,23.8 8.4,27.4c-0.4,5.5 6.8,35.9 21.4,49.8c8.2,7.8 16.1,11.3 22,15.4c5.2,3.6 12.1,3.6 17.4,0c6,-4.1 14.6,-6.8 22,-15.4c14.5,-16.9 21.8,-44.3 21.4,-49.8c5.5,-3.6 14.1,-19.5 8.2,-27.4z" fill="#F9AB90"/>
    </g>
    <g stroke="null" id="svg_34">
     <g stroke="null" id="svg_35">
      <g stroke="null" id="svg_36">
       <g stroke="null" id="svg_37">
        <path stroke="null" id="svg_38" d="m69770.0147,47621.406279c-1.8,0 -3.2,-1.4 -3.2,-3.2l0,-4.1c0,-1.8 1.4,-3.2 3.2,-3.2c1.8,0 3.2,1.4 3.2,3.2l0,4.1c0,1.8 -1.5,3.2 -3.2,3.2z" fill="#381218"/>
       </g>
       <g stroke="null" id="svg_39">
        <path stroke="null" id="svg_40" d="m69808.5147,47621.406279c-1.8,0 -3.2,-1.4 -3.2,-3.2l0,-4.1c0,-1.8 1.4,-3.2 3.2,-3.2c1.8,0 3.2,1.4 3.2,3.2l0,4.1c0,1.8 -1.4,3.2 -3.2,3.2z" fill="#381218"/>
       </g>
      </g>
      <g stroke="null" id="svg_41">
       <path stroke="null" id="svg_42" d="m69754.0147,47603.806279c0,0 9.4,-9.8 19.3,-9.8l0.4,4.3c0,0 -7.1,0 -19.7,5.5z" fill="#381218"/>
       <path stroke="null" id="svg_43" d="m69824.4147,47603.806279c0,0 -9.4,-9.8 -19.3,-9.8l-0.4,4.3c0.1,0 7.2,0 19.7,5.5z" fill="#381218"/>
      </g>
      <path stroke="null" id="svg_44" d="m69779.0147,47651.906279l20.8,0c0,0 -9.5,8.9 -20.8,0z" fill="#EF4136"/>
     </g>
    </g>
    <path stroke="null" id="svg_45" d="m69789.4147,47714.206279c-12.3,0 -23.7,-2.5 -32.9,-6.8l0,219.1l65.9,0l0,-219.1c-9.3,4.3 -20.7,6.8 -33,6.8z" fill="#017E82"/>
    <path stroke="null" id="svg_46" fill="#305675" d="m69756.51472,47898.406289l65.90001,0l0,28l-65.90001,0l0,-28z"/>
    <path stroke="null" id="svg_47" d="m69766.8147,47547.906279c0,0 15.5,20 40.6,37.5c25.1,17.6 29.5,46 32.4,69.2c3,23.2 5.9,74.2 -17,92.6c0,0 36.3,-3.1 42.2,-48.9c4.5,-34.6 -0.9,-98.7 -6.8,-129.9c-5.9,-31.1 -16.2,-50.3 -45,-64.7c-28.8,-14.4 -53.9,10.4 -53.9,10.4s-18.4,-4.8 -31.7,22.4c-13.3,27.1 -17.6,120.8 -10.2,157.6s23.8,53.4 44.9,54c0,0 -19.9,-18.4 -19.9,-83s2.3,-86.7 9.6,-99.5c7.5,-12.9 14.8,-17.7 14.8,-17.7z" fill="#331C21"/>
    <path stroke="null" id="svg_48" d="m69815.3147,47591.906279c-9.7,0 -17.7,7.2 -19.1,16.5l-13,0c-1.3,-9.3 -9.4,-16.5 -19.1,-16.5c-10.6,0 -19.3,8.6 -19.3,19.3s8.6,19.3 19.3,19.3c10.4,0 18.8,-8.2 19.2,-18.5l12.7,0c0.4,10.3 8.8,18.5 19.2,18.5c10.6,0 19.3,-8.6 19.3,-19.3s-8.5,-19.3 -19.2,-19.3zm-51.1,36.2c-9.3,0 -16.9,-7.6 -16.9,-16.9s7.6,-16.9 16.9,-16.9c9.3,0 16.9,7.6 16.9,16.9s-7.6,16.9 -16.9,16.9zm51.1,0c-9.3,0 -16.9,-7.6 -16.9,-16.9s7.6,-16.9 16.9,-16.9s16.9,7.6 16.9,16.9s-7.5,16.9 -16.9,16.9z" fill="#FFFFFF"/>
   </g>
   <path stroke="null" id="svg_49" d="m423.613678,306.099864l0,-32.629028c0,0 -3.559702,1.392068 -4.205723,5.880511c-0.64602,4.449413 -0.013184,26.345208 0,26.761527l4.205723,0l0,-0.01301z" fill="#E9F7FE"/>
   <path stroke="null" id="svg_50" fill="#E9F7FE" d="m450.390551,306.099866l0,-32.62903l-7.567666,-2.198685l-11.522885,0l-7.686323,2.198685l0,32.62903l26.776874,0z"/>
   <path stroke="null" id="svg_51" fill="#FFFFFF" d="m431.3,271.27215l-1.450249,0.416321l-2.715921,8.391437l3.612437,0.767589l-3.216915,2.601996l4.878107,20.841984l4.601248,0l4.58806,0l4.891299,-20.841984l-3.2301,-2.601996l3.625623,-0.767589l-2.729107,-8.417458l-1.331596,-0.390299l-11.522885,0z"/>
   <path stroke="null" id="svg_52" d="m450.205974,282.031403l-6.011942,0c-0.382338,0 -0.698756,0.312239 -0.698756,0.689529l0,3.499684c0,0.377289 0.316418,0.689529 0.698756,0.689529l6.011942,0c0.382338,0 0.698756,-0.312239 0.698756,-0.689529l0,-3.499684c0,-0.377289 -0.316418,-0.689529 -0.698756,-0.689529z" fill="#FFFFFF"/>
   <path stroke="null" id="svg_53" fill="#A9ACBA" d="m444.194032,282.89006l2.135821,0l0,2.914235l-2.135821,0l0,-2.914235z"/>
   <path stroke="null" id="svg_54" fill="#A9ACBA" d="m446.567167,282.916082l3.638807,0l0,0.325249l-3.638807,0l0,-0.325249z"/>
   <path stroke="null" id="svg_55" fill="#A9ACBA" d="m446.567167,283.865809l3.638807,0l0,0.325249l-3.638807,0l0,-0.325249z"/>
   <path stroke="null" id="svg_56" fill="#A9ACBA" d="m446.567167,284.802529l3.638807,0l0,0.325249l-3.638807,0l0,-0.325249z"/>
   <path stroke="null" id="svg_57" d="m447.200003,280.782445c-0.197761,0 -0.342786,0.15612 -0.342786,0.338259l0,0.975748c0,0.19515 0.158209,0.338259 0.342786,0.338259s0.342786,-0.15612 0.342786,-0.338259l0,-0.975748c0,-0.18214 -0.145025,-0.338259 -0.342786,-0.338259z" fill="#A9ACBA"/>
   <g stroke="null" id="svg_58" transform="matrix(0.13184083078445177,0,0,0.13009979127864332,-8727.658197217366,-5929.115773892068) ">
    <path stroke="null" id="svg_59" d="m69584.2147,47742.206279l-6.3,0l0,-42.3c0,-30.2 -24.6,-54.7 -54.7,-54.7l-20.1,0c-30.2,0 -54.7,24.6 -54.7,54.7l0,73.1l-6.3,0l0,-73.1c0,-33.7 27.4,-61.1 61.1,-61.1l20.1,0c33.7,0 61.1,27.4 61.1,61.1l0,42.3l-0.2,0z" fill="#305675"/>
   </g>
   <path stroke="null" id="svg_60" fill="#F49B7F" d="m431.959204,267.330127l10.085824,0l0,8.274347l-10.085824,0l0,-8.274347z"/>
   <path stroke="null" id="svg_61" d="m445.921147,259.459089c-0.606468,-0.845649 -1.305224,-0.338259 -1.700747,0.10408c-0.29005,-2.549956 -0.856965,-5.060882 -1.779851,-5.555261c-1.700747,-0.923709 -5.418658,-0.923709 -5.418658,-0.923709s-3.717911,0 -5.418658,0.923709c-0.93607,0.507389 -1.489801,3.005305 -1.779851,5.555261c-0.395522,-0.442339 -1.094279,-0.949728 -1.700747,-0.10408c-0.777861,1.079828 0.606468,3.200455 1.463433,3.681824c-0.013184,0.715549 -0.013184,1.756347 0.013184,2.185676c0.158209,2.289756 2.636817,3.434634 3.256469,3.981054c2.017165,1.782367 4.179354,1.834407 4.179354,1.834407s2.16219,-0.05204 4.179354,-1.834407c0.619652,-0.546419 3.09826,-1.847417 3.256469,-4.137173c0.026368,-0.416319 0.039552,-1.314008 0.013184,-2.029557c0.830597,-0.481369 2.214926,-2.601996 1.437065,-3.681824z" fill="#F9AB90"/>
   <path stroke="null" id="svg_62" d="m429.678356,261.475636c0,0 -0.830597,-3.564734 -0.738309,-5.308071c0.092289,-1.743337 0.553731,-2.836175 0.553731,-2.836175s-1.199752,-0.819629 -0.922886,-2.927245c0.276866,-2.107617 1.199752,-2.107617 1.199752,-2.107617s-0.369154,1.470128 1.29204,1.652267c1.674379,0.18214 2.504976,-0.18214 2.504976,-0.18214l-0.922886,-1.001768c0,0 1.199752,0.819629 3.243284,0.546419c2.043533,-0.27321 3.243284,-1.001768 5.194529,-0.27321s2.412687,2.107617 2.504976,2.380826c0.092289,0.27321 1.199752,1.092838 1.58209,2.654036c0.369154,1.561197 -1.29204,6.960339 -1.29204,6.960339s-0.922886,-2.471896 -1.397513,-3.837944c-0.461443,-1.379058 -0.553731,-2.107617 -0.553731,-2.107617s-0.553731,0.27321 -3.612439,0.27321s-6.68433,-0.728559 -6.68433,-0.728559s0.276866,0.819629 -0.369154,2.107617c-0.659204,1.248958 -1.58209,4.735632 -1.58209,4.735632z" fill="#7F1327"/>
   <path stroke="null" id="svg_63" fill="#7AB7B2" d="m431.959204,275.604472l10.085824,0l0,30.508401l-10.085824,0l0,-30.508401z"/>
   <path stroke="null" id="svg_64" d="m437.008707,275.604473c0,0 -3.836568,-1.001768 -5.062688,-4.397373l0,7.675888l5.062688,-3.278515z" fill="#8EC9C5"/>
   <path stroke="null" id="svg_65" d="m437.008707,275.604473c0,0 3.836568,-1.001768 5.062688,-4.397373l0,7.675888l-5.062688,-3.278515z" fill="#8EC9C5"/>
   <path stroke="null" id="svg_66" fill="#87939B" d="m429.388305,287.287436a1.371145,1.353038 0 0 1 -1.371145,1.353038a1.371145,1.353038 0 0 1 -1.371145,-1.353038a1.371145,1.353038 0 0 1 1.371145,-1.353038a1.371145,1.353038 0 0 1 1.371145,1.353038z"/>
   <path stroke="null" id="svg_67" fill="#305675" d="m428.715917,287.287436a0.698756,0.689529 0 0 1 -0.698756,0.689529a0.698756,0.689529 0 0 1 -0.698756,-0.689529a0.698756,0.689529 0 0 1 0.698756,-0.689529a0.698756,0.689529 0 0 1 0.698756,0.689529z"/>
   <path stroke="null" id="svg_68" d="m447.793286,292.036077l-0.237313,0l0,-0.819629l0.237313,0c0.303234,0 0.593284,-0.09107 0.843781,-0.27321c0.487811,-0.351269 0.698756,-0.936718 0.553731,-1.522168l-1.476617,-5.620311c-0.171393,-0.624479 -0.738309,-1.066818 -1.397513,-1.066818l-0.659204,0c-0.659204,0 -1.239304,0.442339 -1.397513,1.066818l-1.476617,5.620311c-0.145025,0.572439 0.06592,1.170898 0.553731,1.522168c0.250498,0.18214 0.540547,0.27321 0.843781,0.27321l0.237313,0l0,0.819629l-0.237313,0c-0.487811,0 -0.949254,-0.14311 -1.331592,-0.429329c-0.764677,-0.546419 -1.107463,-1.483138 -0.870149,-2.393836l1.476617,-5.620311c0.263682,-0.988758 1.173383,-1.691297 2.214926,-1.691297l0.659204,0c1.041543,0 1.951244,0.689529 2.214926,1.691297l1.476617,5.620311c0.237313,0.910699 -0.105473,1.847417 -0.870149,2.393836c-0.408707,0.28622 -0.870149,0.429329 -1.357961,0.429329z" fill="#87939B"/>
   <path stroke="null" id="svg_69" d="m445.472888,291.658788c0,0.416319 -0.210945,0.754579 -0.461443,0.754579c-0.250498,0 -0.949254,-0.338259 -0.949254,-0.754579s0.698756,-0.754579 0.949254,-0.754579c0.263682,0.01301 0.461443,0.338259 0.461443,0.754579z" fill="#305675"/>
   <path stroke="null" id="svg_70" d="m446.659455,291.658788c0,0.416319 0.210945,0.754579 0.461443,0.754579s0.949254,-0.338259 0.949254,-0.754579s-0.698756,-0.754579 -0.949254,-0.754579s-0.461443,0.338259 -0.461443,0.754579z" fill="#305675"/>
   <path stroke="null" id="svg_71" fill="#305675" d="m435.255225,306.099866l3.506963,0l-1.186567,-28.478847l0.751494,-1.053806l-1.318408,-0.962741l-1.318408,0.962741l0.738306,1.053806l-1.173379,28.478847z"/>
   <g stroke="null" id="svg_72" transform="matrix(0.13184083078445177,0,0,0.13009979127864332,-8727.658197217366,-5929.115773892068) ">
    <g stroke="null" id="svg_73">
     <g stroke="null" id="svg_74">
      <path stroke="null" id="svg_75" d="m69490.6147,47594.206279c-1.8,0 -3.3,-1.5 -3.3,-3.3l0,-4.3c0,-1.8 1.5,-3.3 3.3,-3.3c1.8,0 3.3,1.5 3.3,3.3l0,4.3c0,1.8 -1.5,3.3 -3.3,3.3z" fill="#381218"/>
     </g>
     <g stroke="null" id="svg_76">
      <path stroke="null" id="svg_77" d="m69530.8147,47594.206279c-1.8,0 -3.3,-1.5 -3.3,-3.3l0,-4.3c0,-1.8 1.5,-3.3 3.3,-3.3c1.8,0 3.3,1.5 3.3,3.3l0,4.3c0,1.8 -1.5,3.3 -3.3,3.3z" fill="#381218"/>
     </g>
    </g>
    <g stroke="null" id="svg_78">
     <path stroke="null" id="svg_79" d="m69474.0147,47575.906279c0,0 9.8,-10.3 20.1,-10.3l0.4,4.5c0,0 -7.4,0 -20.5,5.8z" fill="#381218"/>
     <path stroke="null" id="svg_80" d="m69547.4147,47575.906279c0,0 -9.8,-10.3 -20.1,-10.3l-0.4,4.5c0,0 7.4,0 20.5,5.8z" fill="#381218"/>
    </g>
    <path stroke="null" id="svg_81" d="m69496.0147,47624.706279l32.8,0c0,0 -14.9,27.6 -32.8,0z" fill="#EF4136"/>
   </g>
   <path stroke="null" id="svg_82" fill="#F49B7F" d="m393.830834,267.330127l10.085824,0l0,10.329923l-10.085824,0l0,-10.329923z"/>
   <path stroke="null" id="svg_83" d="m407.792778,259.459089c-0.606468,-0.845649 -1.305224,-0.338259 -1.700747,0.10408c-0.29005,-2.549956 -0.856965,-5.060882 -1.779851,-5.555261c-1.700747,-0.923709 -5.418658,-0.923709 -5.418658,-0.923709s-3.717911,0 -5.418658,0.923709c-0.93607,0.507389 -1.489801,3.005305 -1.779851,5.555261c-0.395522,-0.442339 -1.094279,-0.949728 -1.700747,-0.10408c-0.777861,1.079828 0.606468,3.200455 1.463433,3.681824c-0.013184,0.715549 0.553731,2.719086 0.71194,3.109385c0.830597,2.068587 1.93806,2.510926 2.557712,3.057345c2.017165,1.782367 4.179354,1.834407 4.179354,1.834407s2.16219,-0.05204 4.179354,-1.834407c0.619652,-0.546419 1.542538,-1.040798 2.557712,-3.057345c0.184577,-0.377289 0.725125,-2.393836 0.71194,-3.109385c0.830597,-0.481369 2.214926,-2.601996 1.437065,-3.681824z" fill="#F9AB90"/>
   <path stroke="null" id="svg_84" d="m392.037799,261.462626c0,0 0.197761,-2.693066 0.593284,-4.202223c0.395522,-1.509158 1.331592,-2.979285 1.885324,-2.979285s1.437065,1.118858 4.113434,1.314008c2.676369,0.19515 5.10224,-0.442339 5.405474,0.05204c0.303234,0.494379 0.500995,1.274978 1.094279,2.588986c0.593284,1.314008 0.93607,3.863964 0.93607,3.863964s0.698756,-4.592523 0.698756,-5.919541c0,-1.314008 -0.197761,-3.525704 -2.531344,-5.086902c-2.333583,-1.561197 -6.882091,-1.665277 -8.424629,-1.274978c-1.529354,0.390299 -2.175374,1.717317 -2.175374,1.717317s-1.437065,0.29923 -2.030349,1.470128c-0.593284,1.170898 -0.698756,4.202223 -0.500995,5.373121c0.197761,1.183908 0.93607,3.083365 0.93607,3.083365z" fill="#763618"/>
   <path stroke="null" id="svg_85" d="m381.978344,306.099864c-0.06592,-2.536946 -0.593284,-22.312114 0,-26.449288c0.487811,-3.408615 2.742289,-4.969812 3.651991,-5.477201l0,31.926489l-3.651991,0z" fill="#F49B7F"/>
   <path stroke="null" id="svg_86" d="m412.130342,306.099864l0,-31.913479c0.909702,0.494379 3.16418,2.068587 3.651991,5.477201c0.593284,4.137173 0.079104,23.912342 0,26.449288l-3.651991,0l0,-0.01301z" fill="#F49B7F"/>
   <path stroke="null" id="svg_87" d="m416.757955,287.898904c0,-3.798914 -0.079104,-7.103449 -0.29005,-8.547556c-0.632836,-4.397373 -4.060698,-5.815461 -4.205723,-5.880511l0,0l-7.580848,-2.198686l-5.866917,5.347101l-5.642788,-5.347101l-7.673136,2.198686l0,0c0,0 -3.559702,1.392068 -4.205723,5.880511c-0.210945,1.444108 -0.29005,4.748642 -0.29005,8.547556l4.495772,0l0,18.213971l26.776873,0l0,-18.213971l4.482588,0z" fill="#017E82"/>
   <path stroke="null" id="svg_88" fill="#026868" d="m391.747749,271.675461l7.027116,6.817228l7.449007,-6.7782l-1.529355,-0.442338l-5.866917,5.347103l-5.65597,-5.347103l-1.423881,0.403311z"/>
   <path stroke="null" id="svg_89" d="m409.519893,282.031403l-6.011942,0c-0.382338,0 -0.698756,0.312239 -0.698756,0.689529l0,3.499684c0,0.377289 0.316418,0.689529 0.698756,0.689529l6.011942,0c0.382338,0 0.698756,-0.312239 0.698756,-0.689529l0,-3.499684c0,-0.377289 -0.316418,-0.689529 -0.698756,-0.689529z" fill="#FFFFFF"/>
   <path stroke="null" id="svg_90" fill="#A9ACBA" d="m403.50795,282.89006l2.135821,0l0,2.914235l-2.135821,0l0,-2.914235z"/>
   <path stroke="null" id="svg_91" fill="#A9ACBA" d="m405.881085,282.916082l3.638807,0l0,0.325249l-3.638807,0l0,-0.325249z"/>
   <path stroke="null" id="svg_92" fill="#A9ACBA" d="m405.881085,283.865809l3.638807,0l0,0.325249l-3.638807,0l0,-0.325249z"/>
   <path stroke="null" id="svg_93" fill="#A9ACBA" d="m405.881085,284.802529l3.638807,0l0,0.325249l-3.638807,0l0,-0.325249z"/>
   <path stroke="null" id="svg_94" d="m406.513922,280.782445c-0.197761,0 -0.342786,0.15612 -0.342786,0.338259l0,0.975748c0,0.19515 0.158209,0.338259 0.342786,0.338259c0.197761,0 0.342786,-0.15612 0.342786,-0.338259l0,-0.975748c0,-0.18214 -0.145025,-0.338259 -0.342786,-0.338259z" fill="#A9ACBA"/>
   <g stroke="null" id="svg_95" transform="matrix(0.13184083078445177,0,0,0.13009979127864332,-8727.658197217366,-5929.115773892068) ">
    <g stroke="null" id="svg_96">
     <g stroke="null" id="svg_97">
      <path stroke="null" id="svg_98" d="m69203.8147,47594.206279c-1.8,0 -3.3,-1.5 -3.3,-3.3l0,-4.3c0,-1.8 1.5,-3.3 3.3,-3.3c1.8,0 3.3,1.5 3.3,3.3l0,4.3c0,1.8 -1.5,3.3 -3.3,3.3z" fill="#381218"/>
     </g>
     <g stroke="null" id="svg_99">
      <path stroke="null" id="svg_100" d="m69244.0147,47594.206279c-1.8,0 -3.3,-1.5 -3.3,-3.3l0,-4.3c0,-1.8 1.5,-3.3 3.3,-3.3c1.8,0 3.3,1.5 3.3,3.3l0,4.3c0,1.8 -1.5,3.3 -3.3,3.3z" fill="#381218"/>
     </g>
    </g>
    <g stroke="null" id="svg_101">
     <path stroke="null" id="svg_102" d="m69187.2147,47575.906279c0,0 9.8,-10.3 20.1,-10.3l0.4,4.5c0,0 -7.4,0 -20.5,5.8z" fill="#381218"/>
     <path stroke="null" id="svg_103" d="m69260.6147,47575.906279c0,0 -9.8,-10.3 -20.1,-10.3l-0.4,4.5c0,0 7.4,0 20.5,5.8z" fill="#381218"/>
    </g>
   </g>
   <path stroke="null" id="svg_104" d="m396.375362,265.664849l4.891295,0c0,0 -0.237313,2.133637 -2.531344,2.133637c-2.29403,-0.01301 -2.359951,-2.133637 -2.359951,-2.133637z" fill="#EF4136"/>
   <g stroke="null" id="svg_105" transform="matrix(0.13184083078445177,0,0,0.13009979127864332,-8727.658197217366,-5929.115773892068) ">
    <path stroke="null" id="svg_106" d="m69971.9147,47925.206279l0,-235.6c0,0 -23.2,10 -27.5,42.4c-4.2,32.1 -0.1,190.1 0,193.1l27.5,0l0,0.1z" fill="#F49B7F"/>
    <path stroke="null" id="svg_107" d="m70167.9147,47925.206279c0.1,-3 4.2,-161 0,-193.1c-4.2,-32.4 -27.5,-42.4 -27.5,-42.4l0,235.5l27.5,0z" fill="#F49B7F"/>
   </g>
   <path stroke="null" id="svg_108" fill="#F49B7F" d="m504.260712,269.541823l8.688311,0l0,11.149551l-8.688311,0l0,-11.149551z"/>
   <path stroke="null" id="svg_109" d="m523.759973,280.821475c-0.553731,-4.176203 -3.559702,-5.490211 -3.625623,-5.516231l0,0l-6.526121,-2.068587l-5.154976,5.711381l-4.772638,-5.711381l-6.605226,2.068587l0,0c-0.06592,0.02602 -3.071891,1.353038 -3.625623,5.516231c-0.197761,1.509158 -0.250498,5.138942 -0.250498,9.185045l3.862936,0l0,15.937224l23.072145,0l0,-15.950234l3.862936,0c0.013184,-4.046104 -0.039552,-7.675888 -0.237313,-9.172035z" fill="#017E82"/>
   <path stroke="null" id="svg_110" d="m518.156738,281.875283l-6.011942,0c-0.382338,0 -0.698756,0.312239 -0.698756,0.689529l0,3.499684c0,0.377289 0.316418,0.689529 0.698756,0.689529l6.011942,0c0.382338,0 0.698756,-0.312239 0.698756,-0.689529l0,-3.499684c-0.013184,-0.390299 -0.316418,-0.689529 -0.698756,-0.689529z" fill="#FFFFFF"/>
   <path stroke="null" id="svg_111" fill="#A9ACBA" d="m512.131618,282.733943l2.135821,0l0,2.914235l-2.135821,0l0,-2.914235z"/>
   <path stroke="null" id="svg_112" fill="#A9ACBA" d="m514.517934,282.759961l3.638808,0l0,0.325249l-3.638808,0l0,-0.325249z"/>
   <path stroke="null" id="svg_113" fill="#A9ACBA" d="m514.517934,283.69668l3.638808,0l0,0.325249l-3.638808,0l0,-0.325249z"/>
   <path stroke="null" id="svg_114" fill="#A9ACBA" d="m514.517934,284.6334l3.638808,0l0,0.325249l-3.638808,0l0,-0.325249z"/>
   <path stroke="null" id="svg_115" d="m515.150767,280.613315c-0.197761,0 -0.342786,0.15612 -0.342786,0.338259l0,0.975748c0,0.19515 0.158209,0.338259 0.342786,0.338259s0.342786,-0.15612 0.342786,-0.338259l0,-0.962738c0,-0.19515 -0.158209,-0.351269 -0.342786,-0.351269z" fill="#A9ACBA"/>
   <path stroke="null" id="svg_116" fill="#026868" d="m508.374155,280.678364l6.447003,-7.038396l-1.278849,-0.403309l-5.154974,5.71138l-4.772647,-5.71138l-1.212929,0.377288l5.972396,7.064417z"/>
   <path stroke="null" id="svg_117" d="m506.146038,283.345411l-12.43259,0c-0.870149,0 -1.58209,0.702539 -1.58209,1.561197l0,19.645068c0,0.858659 0.71194,1.561197 1.58209,1.561197l12.43259,0c0.870149,0 1.58209,-0.702539 1.58209,-1.561197l0,-19.645068c0,-0.871669 -0.71194,-1.561197 -1.58209,-1.561197z" fill="#913A1F"/>
   <path stroke="null" id="svg_118" d="m491.630363,293.102895l1.951244,-0.702539c0.408707,-0.14311 0.830597,0.14311 0.830597,0.572439l0,0c0,0.24719 -0.145025,0.468359 -0.369154,0.559429l-1.964428,0.845649c-0.421891,0.18214 -0.896518,-0.14311 -0.870149,-0.598459l0.013184,-0.14311c0.013184,-0.23418 0.171393,-0.455349 0.408707,-0.533409z" fill="#F49B7F"/>
   <path stroke="null" id="svg_119" d="m491.630363,294.638073l2.29403,-0.819629c0.408707,-0.14311 0.830597,0.14311 0.830597,0.572439l0,0c0,0.24719 -0.145025,0.468359 -0.369154,0.559429l-2.29403,0.962738c-0.421891,0.18214 -0.896518,-0.14311 -0.870149,-0.598459l0.013184,-0.14311c0,-0.23418 0.158209,-0.442339 0.395522,-0.533409z" fill="#F49B7F"/>
   <path stroke="null" id="svg_120" d="m491.630363,296.17325l2.29403,-0.819629c0.408707,-0.14311 0.830597,0.14311 0.830597,0.572439l0,0c0,0.24719 -0.145025,0.468359 -0.369154,0.559429l-2.29403,0.962738c-0.421891,0.18214 -0.896518,-0.14311 -0.870149,-0.598459l0.013184,-0.14311c0,-0.24719 0.158209,-0.455349 0.395522,-0.533409z" fill="#F49B7F"/>
   <path stroke="null" id="svg_121" d="m491.709467,297.669398l1.700747,-0.611469c0.35597,-0.1301 0.725125,0.1301 0.725125,0.507389l0,0c0,0.20816 -0.131841,0.403309 -0.329602,0.494379l-1.713931,0.741569c-0.369154,0.15612 -0.777861,-0.11709 -0.764677,-0.520399l0.013184,-0.1301c0.026368,-0.22117 0.158209,-0.403309 0.369154,-0.481369z" fill="#F49B7F"/>
   <g stroke="null" id="svg_122" transform="matrix(0.13184083078445177,0,0,0.13009979127864332,-8727.658197217366,-5929.115773892068) ">
    <path stroke="null" id="svg_123" d="m70116.7147,47584.906279c-4.5,-6.1 -9,-2.4 -11.5,0.8c-2.9,-18.2 -7.4,-35.4 -13.6,-38.7c-11.3,-6.1 -35.3,-6.1 -35.3,-6.1s-24.1,0 -35.3,6.1c-6.2,3.4 -10.7,20.6 -13.6,38.7c-2.5,-3.2 -7,-6.9 -11.5,-0.8c-5.9,7.9 2.7,23.8 8.4,27.4c-0.4,5.5 6.8,35.9 21.4,49.8c8.2,7.8 16.1,11.3 22,15.4c5.2,3.6 12.1,3.6 17.4,0c6,-4.1 14.6,-6.8 22,-15.4c14.5,-16.9 21.8,-44.3 21.4,-49.8c5.4,-3.6 14,-19.5 8.2,-27.4z" fill="#F9AB90"/>
   </g>
   <g stroke="null" id="svg_124" transform="matrix(0.13184083078445177,0,0,0.13009979127864332,-8727.658197217366,-5929.115773892068) ">
    <g stroke="null" id="svg_125">
     <g stroke="null" id="svg_126">
      <path stroke="null" id="svg_127" d="m70038.2147,47610.206279c-1.6,0 -3,-1.3 -3,-3l0,-3.8c0,-1.6 1.3,-3 3,-3c1.6,0 3,1.3 3,3l0,3.8c0,1.7 -1.4,3 -3,3z" fill="#381218"/>
     </g>
     <g stroke="null" id="svg_128">
      <path stroke="null" id="svg_129" d="m70074.1147,47610.206279c-1.6,0 -3,-1.3 -3,-3l0,-3.8c0,-1.6 1.3,-3 3,-3c1.6,0 3,1.3 3,3l0,3.8c0,1.7 -1.3,3 -3,3z" fill="#381218"/>
     </g>
    </g>
    <g stroke="null" id="svg_130">
     <path stroke="null" id="svg_131" d="m70023.3147,47596.906279c0,0 8.8,-9.2 18,-9.2l0.4,4c0,0.1 -6.6,0.1 -18.4,5.2z" fill="#381218"/>
     <path stroke="null" id="svg_132" d="m70089.0147,47596.906279c0,0 -8.8,-9.2 -18,-9.2l-0.4,4c0,0.1 6.6,0.1 18.4,5.2z" fill="#381218"/>
    </g>
   </g>
   <path stroke="null" id="svg_133" d="m503.140067,269.776003c0,0 5.009952,3.616774 10.8505,0.01301c0,0 0.382338,0.10408 -0.421891,0.611469c-0.791045,0.507389 -4.429852,2.745106 -9.940799,0.09107c-0.171393,-0.07806 -0.316418,-0.18214 -0.435075,-0.325249c-0.118657,-0.1301 -0.197761,-0.29923 -0.052736,-0.390299z" fill="#017E82"/>
   <path stroke="null" id="svg_134" d="m502.823649,266.510498c0.29005,1.261968 1.015174,4.020084 2.096269,5.112922c0.079104,0.07806 0.171393,0.11709 0.263682,0.14311c0.777861,0.11709 4.482588,0.611469 7.26443,0.02602c0.145025,-0.02602 0.263682,-0.1301 0.329602,-0.2602c0.303234,-0.637489 1.212936,-2.641026 1.608458,-4.969812c0.052736,-0.312239 -0.184577,-0.598459 -0.500995,-0.572439c-1.529354,0.07806 -5.866917,0.2602 -10.586819,-0.06505c-0.303234,-0.05204 -0.553731,0.2602 -0.474627,0.585449z" fill="#017E82"/>
   <path stroke="null" id="svg_135" d="m502.151261,262.464394c0,0 0.830597,3.122395 1.054727,3.525704c0.224129,0.403309 -0.382338,0.520399 -0.382338,0.520399s-0.922886,-2.523936 -0.672388,-4.046104z" fill="#017E82"/>
   <path stroke="null" id="svg_136" d="m514.992558,262.464394c0,0 -0.830597,3.122395 -1.054727,3.525704c-0.224129,0.403309 0.382338,0.520399 0.382338,0.520399s0.922886,-2.523936 0.672388,-4.046104z" fill="#017E82"/>
   <path stroke="null" id="svg_137" d="m502.269918,263.088873c0,0 0.566916,-2.523936 1.067911,-3.174435c0.514179,-0.650499 7.923634,-1.261968 8.951992,-0.702539c1.028358,0.559429 1.687563,0.910699 1.687563,0.910699l1.028358,3.278515c0,0 0.71194,-1.665277 0.71194,-2.419856s-2.201742,-4.384363 -6.750251,-4.384363c-4.548509,0 -7.26443,2.771126 -7.356718,2.979285c-0.105473,0.20816 -0.105473,1.561197 -0.105473,1.561197s0.35597,1.300998 0.764677,1.951497z" fill="#381218"/>
   <path stroke="null" id="svg_138" d="m501.492057,261.124367c0,0 7.066669,-3.278515 14.265178,0.09107c0,0 1.371145,-6.15372 -2.504976,-8.365417c-4.495772,-2.562966 -9.967167,-0.962738 -11.298759,2.016547c-1.305224,2.914235 -0.461443,6.2578 -0.461443,6.2578z" fill="#017E82"/>
   <path stroke="null" id="svg_139" fill="#F2E29B" d="m372.709933,309.586539l159.580146,0l0,44.116841l-159.580146,0l0,-44.116841z"/>
   <path stroke="null" id="svg_140" d="m534.149031,306.151904l-163.298053,0c-0.830597,0 -1.502985,0.663509 -1.502985,1.483138l0,2.979285c0,0.819629 0.672388,1.483138 1.502985,1.483138l163.298053,0c0.830597,0 1.502985,-0.663509 1.502985,-1.483138l0,-2.979285c0,-0.819629 -0.672388,-1.483138 -1.502985,-1.483138z" fill="#FFF3B4"/>
  </g>
 </g>
</svg>