<?xml version="1.0"?>
<svg xmlns="http://www.w3.org/2000/svg" id="Layer_1" height="512px" viewBox="0 0 512 512" width="512px" data-name="Layer 1" class=""><g><path d="m85.647 397.711a8.015 8.015 0 0 0 7.464 2.965l117.723-17.523a8.021 8.021 0 0 0 6.267-4.986l43.8-111.449a8.028 8.028 0 0 0 -1.16-7.874l-73.941-93.916a8.008 8.008 0 0 0 -7.466-2.963l-117.72 17.521a8.023 8.023 0 0 0 -6.267 4.987l-43.8 111.448a8.028 8.028 0 0 0 1.161 7.875zm-20.978-206.7 113.139-16.84 71.092 90.293-42.121 107.161-113.138 16.84-71.088-90.29z" data-original="#000000" class="active-path" data-old_color="#000000" fill="#258EC3"/><path d="m426.351 266.162a8.015 8.015 0 0 0 -7.465-2.962l-117.72 17.521a8.022 8.022 0 0 0 -6.267 4.987l-43.799 111.448a8.03 8.03 0 0 0 1.16 7.875l73.94 93.916a8.015 8.015 0 0 0 7.463 2.964l117.723-17.522a8.023 8.023 0 0 0 6.267-4.987l43.8-111.448a8.03 8.03 0 0 0 -1.16-7.875zm20.98 206.7-113.139 16.838-71.087-90.29 42.116-107.16 113.139-16.84 71.087 90.29z" data-original="#000000" class="active-path" data-old_color="#000000" fill="#258EC3"/><path d="m288.349 245.838a8 8 0 0 0 7.462 2.963l117.723-17.522a8.024 8.024 0 0 0 6.267-4.987l43.8-111.447a8.025 8.025 0 0 0 -1.16-7.876l-73.941-93.915a8.017 8.017 0 0 0 -7.463-2.965l-117.723 17.522a8.021 8.021 0 0 0 -6.267 4.987l-43.8 111.447a8.027 8.027 0 0 0 1.159 7.876zm94.451-223.88h-.013zm-115.431 17.182 113.138-16.84 71.093 90.29-42.121 107.16-113.139 16.84-71.087-90.29z" data-original="#000000" class="active-path" data-old_color="#000000" fill="#258EC3"/><path d="m98.542 368.6a6 6 0 0 0 1-8.427l-34.242-43.417a6 6 0 1 0 -9.423 7.431l34.239 43.413a6 6 0 0 0 8.426 1z" data-original="#000000" class="active-path" data-old_color="#000000" fill="#258EC3"/><path d="m54.45 301.605-3.127-4.582a6 6 0 0 0 -9.911 6.765l3.127 4.582a6 6 0 0 0 9.911-6.765z" data-original="#000000" class="active-path" data-old_color="#000000" fill="#258EC3"/><path d="m302.161 211.731a6 6 0 0 0 1-8.426l-34.239-43.416a6 6 0 0 0 -9.423 7.43l34.24 43.416a6 6 0 0 0 8.427 1z" data-original="#000000" class="active-path" data-old_color="#000000" fill="#258EC3"/><path d="m258.069 144.738-3.127-4.582a6 6 0 0 0 -9.912 6.763l3.126 4.582a6 6 0 0 0 9.913-6.763z" data-original="#000000" class="active-path" data-old_color="#000000" fill="#258EC3"/><path d="m432.4 461.149a5.993 5.993 0 0 0 7.818-3.3l3.682-9.059a6 6 0 0 0 -11.116-4.519l-3.683 9.059a6 6 0 0 0 3.299 7.819z" data-original="#000000" class="active-path" data-old_color="#000000" fill="#258EC3"/><path d="m442.976 435.141a6 6 0 0 0 7.817-3.3l22.907-56.341a6 6 0 0 0 -11.116-4.519l-22.9 56.341a6 6 0 0 0 3.292 7.819z" data-original="#000000" class="active-path" data-old_color="#000000" fill="#258EC3"/></g> </svg>
