<?xml version="1.0" encoding="iso-8859-1"?>
<!-- Generator: Adobe Illustrator 19.0.0, SVG Export Plug-In . SVG Version: 6.00 Build 0)  -->
<svg version="1.1" id="Capa_1" xmlns="http://www.w3.org/2000/svg" xmlns:xlink="http://www.w3.org/1999/xlink" x="0px" y="0px"
	 viewBox="0 0 512 512" style="enable-background:new 0 0 512 512;" xml:space="preserve">
<path style="fill:#F9F6ED;" d="M403.503,81.115c-9.862,0-289.142,0-296.156,0c-8.151,0-14.76,6.608-14.76,14.76
	c0,13.713,0,377.38,0,393.865c0,8.801,7.32,14.76,14.76,14.76c317.464,0,296.634,0.28,299.97-0.516l0,0
	c6.299-1.684,10.946-7.413,10.946-14.244c0-22.681,0-378.669,0-393.865C418.263,87.723,411.655,81.115,403.503,81.115z"/>
<path style="fill:#EFECE4;" d="M137.6,504.5c-7.439,0-14.76-5.959-14.76-14.76c0-16.484,0-380.152,0-393.865
	c0-8.151,6.608-14.76,14.76-14.76c-17.545,0-28.907,0-30.252,0c-8.151,0-14.76,6.608-14.76,14.76c0,13.713,0,377.38,0,393.865
	c0,8.801,7.32,14.76,14.76,14.76c146.312,0,220.767,0.059,258.85,0.046C322.715,504.536,252.203,504.5,137.6,504.5z"/>
<path style="fill:#BF9541;" d="M403.503,81.115c-9.862,0-289.142,0-296.156,0c-8.151,0-14.76,6.608-14.76,14.76v34.905h325.675
	V95.875C418.263,87.723,411.655,81.115,403.503,81.115z"/>
<path style="fill:#966D2A;" d="M122.84,95.875c0-8.151,6.608-14.76,14.76-14.76c-17.545,0-28.907,0-30.252,0
	c-8.151,0-14.76,6.608-14.76,14.76c0,2.371,0,15.211,0,34.905h30.252C122.84,111.086,122.84,98.246,122.84,95.875z"/>
<g>
	<path style="fill:#E2D9C7;" d="M255.425,329.309c-7.456,0-13.501-6.044-13.501-13.501v-77.689c0-7.456,6.044-13.501,13.501-13.501
		s13.501,6.044,13.501,13.501v77.689C268.926,323.265,262.882,329.309,255.425,329.309z"/>
	<path style="fill:#E2D9C7;" d="M255.428,384.434c-0.439,0-0.89-0.02-1.33-0.059c-0.439-0.05-0.88-0.11-1.31-0.2
		c-0.86-0.17-1.71-0.43-2.53-0.77c-0.809-0.34-1.59-0.76-2.33-1.24c-0.359-0.25-0.72-0.51-1.06-0.789
		c-0.34-0.28-0.681-0.58-0.99-0.89c-0.309-0.31-0.61-0.64-0.89-0.99c-0.28-0.34-0.54-0.7-0.79-1.06c-0.48-0.73-0.9-1.52-1.24-2.329
		c-0.34-0.82-0.59-1.671-0.771-2.53c-0.079-0.43-0.149-0.87-0.199-1.31c-0.04-0.44-0.061-0.89-0.061-1.33
		c0-0.44,0.021-0.89,0.061-1.329c0.05-0.43,0.12-0.87,0.199-1.31c0.181-0.86,0.431-1.71,0.771-2.52c0.34-0.82,0.76-1.6,1.24-2.33
		c0.25-0.37,0.51-0.73,0.79-1.07c0.279-0.34,0.58-0.67,0.89-0.98c0.31-0.32,0.65-0.62,0.99-0.9c0.34-0.27,0.7-0.54,1.06-0.78
		c0.74-0.49,1.521-0.91,2.33-1.24c0.82-0.34,1.67-0.6,2.53-0.77c0.43-0.09,0.87-0.16,1.31-0.2c0.88-0.09,1.77-0.09,2.66,0
		c0.43,0.04,0.87,0.11,1.3,0.2c0.87,0.17,1.721,0.43,2.53,0.77c0.811,0.33,1.6,0.75,2.33,1.24c0.37,0.24,0.73,0.51,1.07,0.78
		c0.34,0.28,0.67,0.58,0.979,0.9c0.31,0.31,0.61,0.64,0.891,0.98c0.279,0.34,0.55,0.7,0.79,1.07c0.489,0.73,0.899,1.51,1.239,2.33
		c0.34,0.81,0.601,1.66,0.771,2.52c0.09,0.44,0.16,0.88,0.2,1.31c0.04,0.44,0.069,0.89,0.069,1.329c0,0.441-0.029,0.89-0.069,1.33
		c-0.04,0.44-0.11,0.88-0.2,1.31c-0.17,0.86-0.431,1.71-0.771,2.53c-0.34,0.81-0.75,1.6-1.239,2.329
		c-0.24,0.36-0.511,0.72-0.79,1.06c-0.28,0.35-0.58,0.68-0.891,0.99c-0.31,0.31-0.64,0.61-0.979,0.89
		c-0.34,0.28-0.7,0.539-1.07,0.789c-0.73,0.48-1.52,0.9-2.33,1.24c-0.81,0.34-1.66,0.59-2.53,0.77c-0.43,0.09-0.87,0.15-1.3,0.2
		C256.32,384.414,255.87,384.434,255.428,384.434z"/>
</g>
<path d="M236.618,379.008c8.227,19.617,36.088,15.743,39.959-3.902c2.041-9.753-3.326-19.812-12.51-23.548
	C246.976,344.375,229.404,361.613,236.618,379.008z M256.638,364.971c6.97,0.651,7.25,11.073-0.06,11.94
	c-2.781,0.227-5.125-1.33-6.115-3.677C248.734,369.051,252.071,364.505,256.638,364.971z"/>
<path d="M107.924,512h231.76c4.143,0,7.5-3.357,7.5-7.5s-3.357-7.5-7.5-7.5h-231.76c-0.197,0-0.392-0.017-0.615-0.036l-0.431-0.055
	c-0.011-0.002-0.093-0.016-0.104-0.018c-0.255-0.04-0.493-0.09-0.729-0.153c-3.169-0.847-5.382-3.724-5.382-6.997v-351.46h31.165
	c4.143,0,7.5-3.357,7.5-7.5c0-4.142-3.357-7.5-7.5-7.5h-31.165V95.875c0-4.003,3.257-7.259,7.26-7.259h103.824v34.663h-44.918
	c-4.143,0-7.5,3.357-7.5,7.5s3.357,7.5,7.5,7.5h45.945c3.579,13.761,16.109,23.95,30.975,23.95c14.866,0,27.396-10.19,30.975-23.95
	h136.613v351.46c0,3.273-2.214,6.15-5.389,6.999c-0.229,0.062-0.472,0.112-0.817,0.167l-0.471,0.06
	c-0.192,0.017-0.386,0.033-0.583,0.033h-29.393c-4.142,0-7.5,3.357-7.5,7.5s3.358,7.5,7.5,7.5h29.393
	c0.602,0,1.215-0.029,1.89-0.091c0.27-0.022,0.534-0.051,0.857-0.09c0.239-0.03,0.478-0.067,0.748-0.111
	c0.762-0.121,1.52-0.281,2.256-0.478c9.721-2.599,16.51-11.436,16.51-21.49c0-23.082,0-370.84,0-393.865
	c0-12.274-9.986-22.26-22.261-22.26H300.253V44.253c0-24.4-19.852-44.253-44.253-44.253s-44.253,19.852-44.253,44.253v29.362
	H107.924c-12.275,0-22.261,9.986-22.261,22.26c0,23.023,0,370.782,0,393.865C85.662,502.191,95.868,512,107.924,512z
	 M226.749,88.615h9.501v34.663h-9.501V88.615z M260.751,73.614h-9.501V44.718c0-2.619,2.131-4.75,4.75-4.75
	c2.619,0,4.75,2.131,4.75,4.75V73.614z M260.751,88.615v34.663h-9.501V88.615H260.751z M228.782,138.279h29.937
	C252.289,150.183,235.229,150.217,228.782,138.279z M411.338,95.875v27.404H275.752V88.615h128.326
	C408.082,88.615,411.338,91.872,411.338,95.875z M226.749,44.253c0-16.13,13.122-29.252,29.252-29.252
	c16.13,0,29.252,13.122,29.252,29.252v29.362h-9.501V44.718c0-10.892-8.86-19.751-19.751-19.751
	c-10.892,0-19.751,8.86-19.751,19.751v28.897h-9.501L226.749,44.253L226.749,44.253z"/>
<path d="M269.501,267.837c4.143,0,7.5-3.357,7.5-7.5v-22.217c0-11.58-9.422-21.001-21.001-21.001s-21.001,9.422-21.001,21.001
	v77.689c0,11.58,9.422,21.001,21.001,21.001c11.58,0,21.001-9.422,21.001-21.001v-20.469c0-4.142-3.357-7.5-7.5-7.5
	s-7.5,3.358-7.5,7.5v20.469c0,3.309-2.691,6-6,6c-3.309,0-6-2.691-6-6v-77.689c0-3.309,2.691-6,6-6c3.309,0,6,2.691,6,6v22.217
	C262.001,264.48,265.359,267.837,269.501,267.837z"/>
<g>
</g>
<g>
</g>
<g>
</g>
<g>
</g>
<g>
</g>
<g>
</g>
<g>
</g>
<g>
</g>
<g>
</g>
<g>
</g>
<g>
</g>
<g>
</g>
<g>
</g>
<g>
</g>
<g>
</g>
</svg>
