<?xml version="1.0" encoding="iso-8859-1"?>
<!-- Generator: Adobe Illustrator 19.0.0, SVG Export Plug-In . SVG Version: 6.00 Build 0)  -->
<svg version="1.1" id="Capa_1" xmlns="http://www.w3.org/2000/svg" xmlns:xlink="http://www.w3.org/1999/xlink" x="0px" y="0px"
	 viewBox="0 0 409.6 409.6" style="enable-background:new 0 0 409.6 409.6;" xml:space="preserve">
<path style="fill:#EBF0F3;" d="M1.077,163.307l46.574,121.12h314.299l46.574-121.12c3.259-8.476-1.141-17.934-9.68-21.021
	c-131.927-47.694-255.908-47.784-388.084,0C2.218,145.373-2.183,154.831,1.077,163.307z"/>
<rect x="47.652" y="284.419" style="fill:#D5D6DB;" width="314.317" height="18.698"/>
<path style="fill:#E56353;" d="M270.479,192.134c5.461,43.32-30.97,79.751-74.29,74.291c-29.514-3.72-53.348-27.553-57.069-57.068
	c-5.46-43.319,30.968-79.751,74.288-74.292C242.923,138.784,266.758,162.619,270.479,192.134z"/>
<polygon style="fill:#FFFFFF;" points="250.64,183.198 222.348,183.198 222.348,154.906 187.252,154.906 187.252,183.198 
	158.96,183.198 158.96,218.293 187.252,218.293 187.252,246.585 222.348,246.585 222.348,218.293 250.64,218.293 "/>
<g>
</g>
<g>
</g>
<g>
</g>
<g>
</g>
<g>
</g>
<g>
</g>
<g>
</g>
<g>
</g>
<g>
</g>
<g>
</g>
<g>
</g>
<g>
</g>
<g>
</g>
<g>
</g>
<g>
</g>
</svg>
