<?xml version="1.0" encoding="utf-8"?>
<svg id="master-artboard" viewBox="0 0 1400 980" version="1.1" xmlns="http://www.w3.org/2000/svg" x="0px" y="0px" style="enable-background:new 0 0 1400 980;" width="1400px" height="980px"><rect id="ee-background" x="0" y="0" width="1400" height="980" style="fill: rgb(232, 232, 232); fill-opacity: 1; pointer-events: none;"/>


<g transform="matrix(0.6291328072547913, 0, 0, 0.6291328072547913, 594.2579522659578, 369.3119977871343)">
	<path class="st1" d="M529.3,239.7c0,0,115-14.3,74.7-29.7c-40.3-15.4-30.8-41.4,24.9-43.9" style="fill: none; stroke: rgb(255, 255, 255); stroke-width: 6; stroke-miterlimit: 10;"/>
	<path class="st1" d="M539.8,317.7c0,0,11.2-37.6,79.2-27.4c67.9,10.3,50.8-50.6,50.8-50.6" style="fill: none; stroke: rgb(255, 255, 255); stroke-width: 6; stroke-miterlimit: 10;"/>
	<path class="st1" d="M347.3,239.7c0,0-115-14.3-74.7-29.7c40.3-15.4,30.8-41.4-24.9-43.9" style="fill: none; stroke: rgb(255, 255, 255); stroke-width: 6; stroke-miterlimit: 10;"/>
	<path class="st1" d="M336.7,317.7c0,0-11.2-37.6-79.2-27.4c-67.9,10.3-50.8-50.6-50.8-50.6" style="fill: none; stroke: rgb(255, 255, 255); stroke-width: 6; stroke-miterlimit: 10;"/>
	<path class="st2" d="M535.8,235.2c0,0-19.1,5.3-55-4.9c-16.2-4.6-29.4-6.8-42-7c-12.6,0.2-25.7,2.4-42,7c-35.9,10.1-55,4.9-55,4.9&#10;&#9;&#9;s-17.2,33.6-12.1,84.7c0,0,44.6,38.3,109.1,37.3c64.4,0.9,109.1-37.3,109.1-37.3C553,268.9,535.8,235.2,535.8,235.2z" style="fill: rgb(197, 229, 234);"/>
	<path class="st3" d="M535.8,235.2c0,0-19.1,5.3-55-4.9c-16.2-4.6-29.4-6.8-42-7c-12.6,0.2-25.7,2.4-42,7c-35.9,10.1-55,4.9-55,4.9&#10;&#9;&#9;s-17.2,33.6-12.1,84.7c0,0,44.6,38.3,109.1,37.3c64.4,0.9,109.1-37.3,109.1-37.3C553,268.9,535.8,235.2,535.8,235.2z" style="fill: none; stroke: rgb(255, 255, 255); stroke-width: 3; stroke-linejoin: round; stroke-miterlimit: 10;"/>
	<path class="st3" d="M335.8,251.2c0,0,84,21.8,205.4,0" style="fill: none; stroke: rgb(255, 255, 255); stroke-width: 3; stroke-linejoin: round; stroke-miterlimit: 10;"/>
	<path class="st3" d="M328.8,303.6c0,0,105.5,59.4,220,0" style="fill: none; stroke: rgb(255, 255, 255); stroke-width: 3; stroke-linejoin: round; stroke-miterlimit: 10;"/>
</g>
<g transform="matrix(0.6291327476501465, 0, 0, 0.6291327476501465, 759.8620782425203, 398.88417185939994)">
	<g>
		<path class="st4" d="M456.2,746c0,0-4.4-6.4,1.8-9.3c0,0-1.6-8.1,1.5-11.8c3.1-3.7,10.2-4.9,16.4,0c6.3,4.9,2,11.6-4.7,14.5&#10;&#9;&#9;&#9;c0,0,2.7,14.2-10.9,10.3C460.4,749.6,457.5,748.7,456.2,746z" style="fill: rgb(104, 82, 82);"/>
		<g>
			<path class="st5" d="M440.8,767.4c-17.9,0-53.7-20.7-65.6-27.9c-34.5-20.9-82.4-61.7-82.9-62.1c-1.5-1.3-1.6-3.5-0.4-4.9&#10;&#9;&#9;&#9;&#9;c1.3-1.5,3.5-1.6,4.9-0.4c0.5,0.4,47.9,40.8,82,61.4c40.4,24.4,61.4,29.1,65.2,26.3c6.4-4.7,14-16.3,14-16.4&#10;&#9;&#9;&#9;&#9;c1.1-1.6,3.2-2.1,4.8-1c1.6,1.1,2.1,3.2,1,4.8c-0.3,0.5-8.3,12.8-15.8,18.2C446.4,766.8,443.9,767.4,440.8,767.4z" style="fill: rgb(237, 244, 244);"/>
		</g>
		<g>
			<path class="st5" d="M377.8,812.5c-1.5,0-2.8-0.9-3.3-2.4c-0.6-1.8,0.3-3.8,2.2-4.4c0.1,0,14-4.9,23.7-11.7&#10;&#9;&#9;&#9;&#9;c7.8-5.5,9.1-26.7-5.8-61.7c-14.5-34.3-50.2-96.4-50.6-97c-1-1.7-0.4-3.8,1.3-4.8c1.7-1,3.8-0.4,4.8,1.3&#10;&#9;&#9;&#9;&#9;c0.4,0.6,36.3,63.1,51,97.8c14.8,35,16.1,61.2,3.3,70.2c-10.5,7.4-24.8,12.4-25.4,12.6C378.6,812.4,378.2,812.5,377.8,812.5z" style="fill: rgb(237, 244, 244);"/>
		</g>
		<path class="st4" d="M383.6,811.8c0,0-4,7.5-10.5,5.1c0,0-2.2,6.1-6.8,7.5c-7.5,2.3-10.7-3.7-11.6-11.6s6.8-9.6,13.6-7&#10;&#9;&#9;&#9;c0,0,8.1-12,15,0.5C383.3,806.2,384.7,808.9,383.6,811.8z" style="fill: rgb(104, 82, 82);"/>
		<path class="st4" d="M290.7,681.4c0,0,5.3-1.7,8.7-9.7c0,0-27.4-26.3-33.7-32.7c-6.3-6.4-5.8-20.7,9-31.2&#10;&#9;&#9;&#9;c14.8-10.4,28.4-14.7,40.3-6.2c11.8,8.5,26.7,38.3,26.7,38.3s6.5,1.1,11.5-7.1c0,0-19.8-37.5-35.5-46.1&#10;&#9;&#9;&#9;c-15.8-8.5-36.3,0.5-38.5-0.4s-26.6-11.8-33.2-32c-6.7-20.2,15.2-54.2,53.6-54s73.9-8,93.7-30.5s41.5-51.2,71-53.2&#10;&#9;&#9;&#9;s76.2,21.4,61.2,81.2C510.3,557.7,447,636,447,636l10.7,8.3c0,0,37.3-49.7,63.7-99.7c26.3-50,30.7-107-17.3-132.3&#10;&#9;&#9;&#9;s-91.3,16.7-108.3,39.3S351.3,486.4,317,488c-34.3,1.7-59.7,2.3-78.7,31.7c-19,29.3,19.3,70.3,15.3,83.3s-13,31.3,1,48.7&#10;&#9;&#9;&#9;C268.7,669,290.7,681.4,290.7,681.4z" style="fill: rgb(104, 82, 82);"/>
		<g>
			<path d="M 470 664.599976 A 33.5 33.5 0 0 1 436.5 698.099976 A 33.5 33.5 0 0 1 403 664.599976 A 33.5 33.5 0 0 1 436.5 631.099976 A 33.5 33.5 0 0 1 470 664.599976 Z" class="st6" style="fill: rgb(215, 223, 226);"/>
			<path d="M 461.799994 653.099976 A 24.9 24.9 0 0 1 436.899994 677.999975 A 24.9 24.9 0 0 1 411.999994 653.099976 A 24.9 24.9 0 0 1 436.899994 628.199976 A 24.9 24.9 0 0 1 461.799994 653.099976 Z" class="st7" style="fill: rgb(238, 242, 244);"/>
			<path d="M 455.899994 653.099976 A 19 19 0 0 1 436.899994 672.099976 A 19 19 0 0 1 417.899994 653.099976 A 19 19 0 0 1 436.899994 634.099976 A 19 19 0 0 1 455.899994 653.099976 Z" class="st8" style="fill: rgb(255, 255, 255);"/>
		</g>
	</g>
	<path class="st9" d="M258.5,493.6c0,0,46.3-86,64.3-112.7c0,0,3.7-1.7,6.7,0s166.7,74.3,166.7,74.3s4.3,3,2,6.3&#10;&#9;&#9;c-2.3,3.3-53.3,102-62,118.3c0,0-4.3,5.3-10.7,2c-6.3-3.3-116-59.3-164.7-81.3C260.9,500.6,255.8,498.6,258.5,493.6z" style="fill: rgb(237, 59, 72);"/>
	<g>
		
			<path d="M 371.600006 443.700012 H 384.100006 V 502.400013 H 371.600006 V 443.700012 Z" transform="matrix(0.8941 0.4478 -0.4478 0.8941 251.836 -119.0966)" class="st8" style="fill: rgb(255, 255, 255);"/>
		
			<path d="M 371.600006 443.700012 H 384.100006 V 502.400013 H 371.600006 V 443.700012 Z" transform="matrix(-0.4478 0.8941 -0.8941 -0.4478 970.0013 347.1281)" class="st8" style="fill: rgb(255, 255, 255);"/>
	</g>
</g>
<g transform="matrix(0.6291328072547913, 0, 0, 0.6291328072547913, 594.2579522659578, 369.3119977871343)">
	<path class="st2" d="M686,270.2l110.7-120l28.7,25.1L714.7,295.6C714.7,295.6,695.7,291.9,686,270.2z" style="fill: rgb(197, 229, 234);"/>
	<path class="st8" d="M800.8,153.8L693.4,270.1c0,0,5.2,16,20.2,19.5l108.4-117.2L800.8,153.8z" style="fill: rgb(255, 255, 255);"/>
	<path class="st4" d="M668.6,313.8c0,0-41.5,47-39.7,46.8c1.8-0.2,40.7-43.8,40.7-43.8L668.6,313.8z" style="fill: rgb(104, 82, 82);"/>
	<path class="st4" d="M725.7,276.5c-13.6-5.9-18.5-14.7-20.7-18.9l-11.5,12.5c0,0,5.2,16,20.2,19.5L725.7,276.5L725.7,276.5z" style="fill: rgb(104, 82, 82);"/>
	<path class="st2" d="M691.9,280.1l-24.2,28.6c0,0-2.3,3.5,0,6.2c2.3,2.7,5,4.6,8.1,3.2c3.1-1.4,26.6-28.1,26.6-28.1&#10;&#9;&#9;S694.7,284.3,691.9,280.1z" style="fill: rgb(197, 229, 234);"/>
	<path d="M 809.5999755859375 149.5 L 827.7999877929688 129.89999389648438 L 841.7000122070312 141.8000030517578 L 822.7000122070312 161.89999389648438 Z" class="st8" style="fill: rgb(255, 255, 255);"/>
	<path class="st2" d="M838,170.8c2.5,2.2,2.8,5.9,0.6,8.4l0,0c-2.2,2.5-5.9,2.8-8.4,0.6l-41.3-35.6c-2.5-2.2-2.8-5.9-0.6-8.4l0,0&#10;&#9;&#9;c2.2-2.5,5.9-2.8,8.4-0.6L838,170.8z" style="fill: rgb(197, 229, 234);"/>
	<path class="st2" d="M850.7,140.8c1.5,1.3,1.5,3.7,0,5.5l0,0c-1.5,1.7-3.9,2.1-5.4,0.8l-24.6-21.2c-1.5-1.3-1.5-3.7,0-5.5l0,0&#10;&#9;&#9;c1.5-1.7,3.9-2.1,5.4-0.8L850.7,140.8z" style="fill: rgb(197, 229, 234);"/>
	<g>
		<path class="st2" d="M738.7,228.3c-0.3-0.5-0.9-0.6-1.4-0.3c-0.5,0.3-0.6,0.9-0.3,1.4c0.3,0.5,6.2,9.3,18.2,15.2l1.4-1.6&#10;&#9;&#9;&#9;C744.8,237.3,738.8,228.4,738.7,228.3z" style="fill: rgb(197, 229, 234);"/>
		<path class="st2" d="M718.8,250.5c-0.3-0.5-0.9-0.6-1.4-0.3c-0.5,0.3-0.6,0.9-0.3,1.4c0.3,0.5,6,9.1,17.8,15l1.4-1.5&#10;&#9;&#9;&#9;C724.7,259.3,718.9,250.6,718.8,250.5z" style="fill: rgb(197, 229, 234);"/>
		<path class="st2" d="M749,216.7c-0.3-0.5-0.9-0.6-1.4-0.3c-0.5,0.3-0.6,0.9-0.3,1.4c0.3,0.5,6.3,9.4,18.5,15.3l1.4-1.5&#10;&#9;&#9;&#9;C755.1,225.8,749.1,216.8,749,216.7z" style="fill: rgb(197, 229, 234);"/>
		<path class="st2" d="M729.4,240c-0.3-0.5-0.9-0.6-1.4-0.3c-0.5,0.3-0.6,0.9-0.3,1.4c0.3,0.4,5.9,8.8,17.2,14.7l1.4-1.5&#10;&#9;&#9;&#9;C735.1,248.5,729.4,240.1,729.4,240z" style="fill: rgb(197, 229, 234);"/>
		<path class="st2" d="M780.6,183.1c-0.4,0.4-0.3,1,0.1,1.4l16.5,14.7l1.4-1.5L782,183.1C781.6,182.7,781,182.7,780.6,183.1z" style="fill: rgb(197, 229, 234);"/>
		<path class="st2" d="M759.5,206.7c-0.3-0.5-0.9-0.6-1.4-0.3c-0.5,0.3-0.6,0.9-0.3,1.4c0.3,0.4,6,9,17.7,14.9l1.4-1.5&#10;&#9;&#9;&#9;C765.3,215.4,759.6,206.8,759.5,206.7z" style="fill: rgb(197, 229, 234);"/>
		<path class="st2" d="M769.9,195.1c-0.3-0.5-0.9-0.6-1.4-0.3c-0.5,0.3-0.6,0.9-0.3,1.4c0.3,0.5,6.1,9.1,17.9,15l1.4-1.5&#10;&#9;&#9;&#9;C775.8,203.9,769.9,195.2,769.9,195.1z" style="fill: rgb(197, 229, 234);"/>
	</g>
</g>
<g transform="matrix(0.6291328072547913, 0, 0, 0.6291328072547913, 594.2579522659578, 369.3119977871343)">
	<path class="st2" d="M797.2,298.6l-5.4,0.4c0,0-33.7,27.4-45.4,40.1c-11.6,12.8-20.5,27.8-20.5,27.8s19,1.4,39-16.3&#10;&#9;&#9;c20-17.6,36.9-41.7,36.9-41.7L797.2,298.6z" style="fill: rgb(197, 229, 234);"/>
	<path class="st8" d="M790.2,299l11.7,11.6c0,0,7.5-16.7,14.9-20.3s15.4-7.7,23.1-16.7c7.6-8.9,70.9-73.1,84.8-87.3s31.4-26,31.4-26&#10;&#9;&#9;s1.7-17.3-17.2-15.6c0,0-21.5,27.2-29.8,36.1c-8.3,9-50.3,47.3-72.6,68.7c-22.3,21.4-24.1,33.3-29.8,37.5&#10;&#9;&#9;C800.9,291.4,790.2,299,790.2,299z" style="fill: rgb(255, 255, 255);"/>
	<path class="st8" d="M750.4,360.7c2.7-1.4,5.6-3.1,8.5-5.2l5.8-33.5c-3,2.7-6,5.3-8.8,7.9L750.4,360.7z" style="fill: rgb(255, 255, 255);"/>
	<path class="st8" d="M768,319l-6.1,34.2c1-0.8,2.1-1.7,3.1-2.6c0.2-0.2,0.4-0.4,0.6-0.6l5.9-34.1C770.3,317,769.2,318,768,319z" style="fill: rgb(255, 255, 255);"/>
</g>
<g transform="matrix(0.6291328072547913, 0, 0, 0.6291328072547913, 594.2579522659578, 369.3119977871343)">
	<path class="st8" d="M1054.5,96.7c-2.4,3-48.6,81.8-48.6,81.8s-3.3,4-1.8,8.8c1.5,4.7,2.3,9,2.3,9s1.6,6.8-1.4,13.5&#10;&#9;&#9;c-3,6.7-37.7,93.5-37.7,93.5l-15.6-3c0,0-4.7-0.7-4.5,1.3c0.2,2,3.6,4.2,3.6,4.2l12.5,6.3l-12.8,39.7c0,0-1.3,7.5,2.7,15.3&#10;&#9;&#9;c3.2,6.1,14.9,14,26.2,8.6c11.3-5.4,22.3-25.4,18.7-39.8c-3.6-14.5-15.4-18.1-20.5-19.8c-5.1-1.8-7-7-4.8-12.9&#10;&#9;&#9;c2.2-5.8,53.2-131.3,53.2-131.3s1.6-3.8,0.5-7c-1.1-3.2-1.6-4.6-1.6-4.6c0.6-0.3,35.8-65.2,35.8-65.2S1057,93.7,1054.5,96.7z&#10;&#9;&#9; M986.9,326.1c3.8,3.2,8,10.8,6.8,18.6c-1.5,9.7-10.9,24.8-20.2,27.2c-9.3,2.3-19.4-7.8-18.8-17.4c0.6-9.6,8.7-24.6,15.4-29.2&#10;&#9;&#9;C976.8,320.8,983.7,323.4,986.9,326.1z" style="fill: rgb(255, 255, 255);"/>
	<path class="st2" d="M1026.7,167.4c-0.5,1-0.8,1.5-0.8,1.6c0,0-1.4,0.2-4.7,0.9c-3.4,0.7-5.8,4-5.8,4s-4.3,5.7-11,14.4&#10;&#9;&#9;c1.3,4.3,1.9,8,1.9,8s0.6,2.5,0.4,5.9c1.6-0.5,4-1.3,6.5-1.8c0.4-0.1,0.8-0.2,1.2-0.4c6.7-16.4,11.4-28.1,11.4-28.1&#10;&#9;&#9;S1026.8,169.8,1026.7,167.4z" style="fill: rgb(197, 229, 234);"/>
	<path class="st8" d="M1062.4,97.9c0,0-37.8,63.4-37.8,64.1c0,0-1.4,0.3-4.7,0.9c-3.4,0.7-5.8,4-5.8,4s-81.9,107.9-85.8,112.7&#10;&#9;&#9;c-3.9,4.9-9.4,5.9-13.5,2.4c-4.1-3.5-13.2-11.8-27.5-7.5c-14.3,4.3-25.8,23.9-24.7,36.4c1.1,12.5,13.9,18.5,20.7,18.1&#10;&#9;&#9;c8.8-0.5,14.6-5.5,14.6-5.5l27.6-31.2l11.8,7.5c0,0,3.6,1.8,5.5,1c1.8-0.9-1.2-4.5-1.2-4.5l-10.5-11.9c0,0,57-74.2,61.2-80.1&#10;&#9;&#9;c4.2-6,10.9-8.1,10.9-8.1s4.1-1.6,8.9-2.7c4.8-1.1,6.6-6,6.6-6s44.2-79.9,45.6-83.6C1065.5,100.2,1062.4,97.9,1062.4,97.9z&#10;&#9;&#9; M910.6,293.2c-0.5,8.1-9.3,22.7-17.2,28.1c-7.9,5.4-21.8,2-24.5-7.3c-2.7-9.2,5.5-25,13-31.3c6.1-5.1,14.8-5.4,19.5-3.7&#10;&#9;&#9;C905.3,280.5,911.1,285.1,910.6,293.2z" style="fill: rgb(255, 255, 255);"/>
</g>
<g transform="matrix(0.6291328072547913, 0, 0, 0.6291328072547913, 594.2579522659578, 369.3119977871343)">
	<path class="st8" d="M1004.5,383.7l2.4,1.9c0,0,0.3,1.9,5.4-2.5c5.1-4.4,15.9-20.5,43.6-42.1c27.7-21.6,48.3-35.7,55-42.3&#10;&#9;&#9;c6.7-6.6,105.7-115.9,105.7-115.9s12.2-13.5,4.5-24.8c-6.3-9.2-18.5-16.9-35.6-4.8c-17.1,12.1-82.5,96.3-93.1,107.7&#10;&#9;&#9;c-10.5,11.5-29.3,42.2-39.4,59c-10,16.9-15,24.5-22.1,31.8c-7,7.3-25.9,27.9-25.9,27.9S1002.8,382.4,1004.5,383.7z" style="fill: rgb(255, 255, 255);"/>
	<path class="st2" d="M1121.5,287.4c0,0-20.1,0.4-24.3-3.7c-4.2-4-6.5-20.5-6.5-20.6c-10.8,12.8-28,41-37.5,56.9&#10;&#9;&#9;c-10,16.9-15,24.5-22.1,31.8c-7,7.3-25.9,27.9-25.9,27.9s-0.9,1-1.2,2.1l4,4.1c0.8-0.2,2.1-0.9,4.3-2.8&#10;&#9;&#9;c5.1-4.4,15.9-20.5,43.6-42.1c27.7-21.6,48.3-35.7,55-42.3C1112.1,297.6,1115.9,293.5,1121.5,287.4L1121.5,287.4z" style="fill: rgb(197, 229, 234);"/>
	<path class="st4" d="M1019.2,375.6l-5.6-5.1c-4.9,5.2-8.5,9.2-8.5,9.2s-2.4,2.7-0.8,4l2.4,1.9c0,0,0.3,1.9,5.4-2.5&#10;&#9;&#9;C1013.9,381.7,1016.1,379.1,1019.2,375.6z" style="fill: rgb(104, 82, 82);"/>
	<path class="st4" d="M1221.2,158.1c-6.3-9.2-18.5-16.9-35.6-4.8c-3.9,2.8-10.4,9.4-18.2,18l33.7,28.7c9.3-10.3,15.5-17.1,15.5-17.1&#10;&#9;&#9;S1228.8,169.3,1221.2,158.1z" style="fill: rgb(104, 82, 82);"/>
	<g>
		<path class="st2" d="M1143.2,231.1c4.4,3.8,4.8,10.4,1,14.8l-22.2,25.5c-3.8,4.4-10.4,4.8-14.8,1l0,0c-4.4-3.8-4.8-10.4-1-14.8&#10;&#9;&#9;&#9;l22.2-25.5C1132.3,227.7,1138.9,227.3,1143.2,231.1L1143.2,231.1z" style="fill: rgb(197, 229, 234);"/>
		<g>
			<text transform="matrix(0.657 -0.7539 0.7539 0.657 1118.9137 269.7425)" class="st10 st11" style="white-space: pre;  font-family: 'Norwester';  font-size: 18.2306px; ;  font-weight: Norwester">37.0</text>
			<path d="M 1130.8 238 A 1.3 1.3 0 0 1 1129.5 239.3 A 1.3 1.3 0 0 1 1128.2 238 A 1.3 1.3 0 0 1 1129.5 236.7 A 1.3 1.3 0 0 1 1130.8 238 Z" class="st12" style="fill: none; stroke: rgb(0, 0, 0); stroke-width: 0.5; stroke-miterlimit: 10;"/>
			<text transform="matrix(0.657 -0.7539 0.7539 0.657 1135.2336 240.3642)" class="st10 st13" style="white-space: pre;  font-family: 'Norwester';  font-size: 9.9196px; ;  font-weight: Norwester">C</text>
		</g>
	</g>
	
		<path d="M 1163.6 215.100006 A 5.6 10.2 0 0 1 1158 225.300006 A 5.6 10.2 0 0 1 1152.4 215.100006 A 5.6 10.2 0 0 1 1158 204.900006 A 5.6 10.2 0 0 1 1163.6 215.100006 Z" transform="matrix(0.8147 0.5799 -0.5799 0.8147 339.3294 -631.7001)" class="st2" style="fill: rgb(197, 229, 234);"/>
</g>
<g transform="matrix(0.6291328072547913, 0, 0, 0.6291328072547913, 594.2579522659578, 369.3119977871343)">
	<path d="M 1058.199951171875 429.29998779296875 L 1060 427.3999938964844 L 1064 431.3999938964844 L 1067.5 427.8999938964844 L 1069.800048828125 430.20001220703125 L 1115.300048828125 384.70001220703125 L 1113.300048828125 382.70001220703125 L 1115.0999755859375 380.8999938964844 L 1136.699951171875 402.5 L 1135.199951171875 403.8999938964844 L 1133.5 402.20001220703125 L 1088.9000244140625 446.70001220703125 L 1092 449.79998779296875 L 1087.800048828125 454 L 1091.199951171875 457.3999938964844 L 1089.0999755859375 459.6000061035156 L 1065.300048828125 453.5 Z" class="st4" style="fill: rgb(104, 82, 82);"/>
	<path d="M 940.2000122070312 635.4000244140625 L 927.5999755859375 622.7999877929688 L 935.9000244140625 614.5 L 871.2000122070312 550.0999755859375 L 885.9000244140625 535.2000122070312 L 974.7000122070312 624.5999755859375 L 982.0999755859375 617.2000122070312 L 986.2999877929688 621.5 L 979.2000122070312 628.5999755859375 L 984.2000122070312 633.7000122070312 L 969.4000244140625 649.2000122070312 L 945.7999877929688 645.0999755859375 Z" class="st4" style="fill: rgb(104, 82, 82);"/>
	<path class="st8" d="M957.9,523.4l35.2,35.5l7.7-7.4l7.4,5.6l12.7-10.5l40.1,39.4c0,0,11.2,16.5,0,28.5c-11.2,12-45,46.4-45,46.4&#10;&#9;&#9;s-20.7,12.7-34.1,0c-13.4-12.7-34.5-32.7-34.5-32.7l-51.7,52c0,0,34.1,25,72.4,31.3c38.3,6.3,105.5-29.9,132.5-82.3&#10;&#9;&#9;c27.1-52.4,4.9-101.6,0-111.4l-23.2-25l12.3-12.3l-8.1-8.4l10.5-9.5l-36.9-36.2L957.9,523.4z" style="fill: rgb(255, 255, 255);"/>
	<path class="st2" d="M947.4,654.6c-12,0.7-12.3,16.5-12.3,16.5l-0.3,30.6c10.1,4.2,21.5,7.9,33.2,9.8c6,1,12.7,0.9,19.9-0.1&#10;&#9;&#9;c-9.3-18.3-19.8-38.9-23.6-46C956.9,651.8,947.4,654.6,947.4,654.6z" style="fill: rgb(197, 229, 234);"/>
	<path class="st8" d="M952.9,654.6c0,0,9.5-2.8,16.9,10.9c7.4,13.7,40.1,78.4,40.1,78.4h23.9l11.6,26H851l13.4-25.7h75.6l0.7-73.1&#10;&#9;&#9;C940.6,671.1,941,655.3,952.9,654.6z" style="fill: rgb(255, 255, 255);"/>
	<path d="M 965.399988 670.099976 A 8.6 8.6 0 0 1 956.799988 678.699976 A 8.6 8.6 0 0 1 948.199987 670.099976 A 8.6 8.6 0 0 1 956.799988 661.499975 A 8.6 8.6 0 0 1 965.399988 670.099976 Z" class="st4" style="fill: rgb(104, 82, 82);"/>
	<path d="M 965.2000122070312 530.9000244140625 L 961.2999877929688 534.9000244140625 L 958.5999755859375 532.0999755859375 L 954.4000244140625 536.2999877929688 L 958.4000244140625 540.4000244140625 L 934.0999755859375 564.5999755859375 L 952.9000244140625 583.4000244140625 L 976.9000244140625 559.4000244140625 L 981.0999755859375 563.5999755859375 L 985.4000244140625 559.2999877929688 L 983.2999877929688 557.0999755859375 L 987.2999877929688 553.0999755859375 Z" class="st4" style="fill: rgb(104, 82, 82);"/>
	
		<path d="M 903.800013 633.700012 A 21.6 34.5 0 0 1 882.200012 668.200012 A 21.6 34.5 0 0 1 860.600012 633.700012 A 21.6 34.5 0 0 1 882.200012 599.200012 A 21.6 34.5 0 0 1 903.800013 633.700012 Z" transform="matrix(0.7369 -0.676 0.676 0.7369 -196.2891 763.0753)" class="st8" style="fill: rgb(255, 255, 255);"/>
	<path class="st2" d="M870.4,644.6c-11.9-13-15.6-29.3-9.2-38c-0.8,0.5-1.6,1-2.3,1.7c-8.8,8.1-5.5,26,7.4,40&#10;&#9;&#9;c12.9,14,30.4,18.9,39.2,10.8c0.7-0.6,1.2-1.3,1.8-2C898,662.6,882.2,657.5,870.4,644.6z" style="fill: rgb(197, 229, 234);"/>
	<path class="st4" d="M860.4,643.2c0,0,2.9-3.6,7.7-1.3c4.7,2.3,26,18.7,38.1,14.1c12-4.7-0.4-31.3-9.9-38.8c0,0,9.9,5.6,14.8,17.6&#10;&#9;&#9;c4.9,12,0.9,20.8,0.9,20.8l5.6,2.7l-12.4,12.4l-2.7-7.6C902.4,663,882.5,674,860.4,643.2z" style="fill: rgb(104, 82, 82);"/>
	<path d="M 1079.999975 518.799988 A 22.4 22.4 0 0 1 1057.599976 541.199987 A 22.4 22.4 0 0 1 1035.199976 518.799988 A 22.4 22.4 0 0 1 1057.599976 496.399988 A 22.4 22.4 0 0 1 1079.999975 518.799988 Z" class="st4" style="fill: rgb(104, 82, 82);"/>
	<path d="M 1064.9 559.400024 A 8.9 8.9 0 0 1 1056 568.300024 A 8.9 8.9 0 0 1 1047.1 559.400024 A 8.9 8.9 0 0 1 1056 550.500025 A 8.9 8.9 0 0 1 1064.9 559.400024 Z" class="st4" style="fill: rgb(104, 82, 82);"/>
	<path d="M 939.9000244140625 744.2000122070312 L 864.2999877929688 744.2000122070312 L 851 769.9000244140625 L 1045.4000244140625 769.9000244140625 L 1033.9000244140625 744 L 939.9000244140625 744 Z" class="st4" style="fill: rgb(104, 82, 82);"/>
	<path class="st2" d="M1020.8,546.6l-25.3-25.3c0,0-5.1,1.8-1.7,5.2c3.4,3.4,23.1,23.1,23.1,23.1L1020.8,546.6z" style="fill: rgb(197, 229, 234);"/>
</g>

</svg>