<?xml version="1.0" encoding="utf-8"?>
<svg id="master-artboard" viewBox="0 0 1400 980" version="1.0" xmlns="http://www.w3.org/2000/svg" x="0px" y="0px" enable-background="new 0 0 1400 980" width="1400px" height="980px">
<linearGradient id="SVGID_1_" gradientUnits="userSpaceOnUse" x1="346.1045" y1="306.6232" x2="346.1045" y2="251.925">
		<stop offset="0" style="stop-color:#FFFFFF"/>
		<stop offset="0.1724" style="stop-color:#FCFEFE"/>
		<stop offset="0.3071" style="stop-color:#F2FAF9"/>
		<stop offset="0.429" style="stop-color:#E1F3F2"/>
		<stop offset="0.5434" style="stop-color:#CAEAE8"/>
		<stop offset="0.6516" style="stop-color:#ACDEDB"/>
		<stop offset="0.7092" style="stop-color:#99D6D3"/>
		<stop offset="0.7511" style="stop-color:#8AD1D4"/>
		<stop offset="0.8316" style="stop-color:#63C4D7"/>
		<stop offset="0.9416" style="stop-color:#24B0DC"/>
		<stop offset="1" style="stop-color:#00A4DF"/>
	</linearGradient>
<linearGradient id="SVGID_2_" gradientUnits="userSpaceOnUse" x1="714.7169" y1="232.6264" x2="714.7169" y2="177.9282">
		<stop offset="0" style="stop-color:#FFFFFF"/>
		<stop offset="0.1724" style="stop-color:#FCFEFE"/>
		<stop offset="0.3071" style="stop-color:#F2FAF9"/>
		<stop offset="0.429" style="stop-color:#E1F3F2"/>
		<stop offset="0.5434" style="stop-color:#CAEAE8"/>
		<stop offset="0.6516" style="stop-color:#ACDEDB"/>
		<stop offset="0.7092" style="stop-color:#99D6D3"/>
		<stop offset="0.7511" style="stop-color:#8AD1D4"/>
		<stop offset="0.8316" style="stop-color:#63C4D7"/>
		<stop offset="0.9416" style="stop-color:#24B0DC"/>
		<stop offset="1" style="stop-color:#00A4DF"/>
	</linearGradient>
<linearGradient id="SVGID_3_" gradientUnits="userSpaceOnUse" x1="1044.5544" y1="232.6264" x2="1044.5544" y2="177.9282">
		<stop offset="0" style="stop-color:#FFFFFF"/>
		<stop offset="0.1389" style="stop-color:#FFFEFC"/>
		<stop offset="0.2474" style="stop-color:#FFFBF2"/>
		<stop offset="0.3457" style="stop-color:#FFF7E1"/>
		<stop offset="0.4379" style="stop-color:#FFF1CA"/>
		<stop offset="0.5259" style="stop-color:#FFE8AC"/>
		<stop offset="0.6107" style="stop-color:#FFDE87"/>
		<stop offset="0.6914" style="stop-color:#FFD35C"/>
		<stop offset="0.7653" style="stop-color:#FFC62D"/>
		<stop offset="0.8333" style="stop-color:#FDBC3A"/>
		<stop offset="0.9598" style="stop-color:#F9A15D"/>
		<stop offset="1" style="stop-color:#F7986A"/>
	</linearGradient>
<linearGradient id="SVGID_4_" gradientUnits="userSpaceOnUse" x1="334.6754" y1="503.4375" x2="334.6754" y2="438.9074">
		<stop offset="0" style="stop-color:#FFFFFF"/>
		<stop offset="0.1767" style="stop-color:#FDFEFC"/>
		<stop offset="0.3148" style="stop-color:#F6FAF2"/>
		<stop offset="0.4398" style="stop-color:#EBF5E1"/>
		<stop offset="0.557" style="stop-color:#DCECCA"/>
		<stop offset="0.6679" style="stop-color:#C8E2AC"/>
		<stop offset="0.7092" style="stop-color:#BFDD9F"/>
		<stop offset="0.744" style="stop-color:#B0D9A4"/>
		<stop offset="0.811" style="stop-color:#89CDB1"/>
		<stop offset="0.9034" style="stop-color:#49BAC6"/>
		<stop offset="1" style="stop-color:#00A4DF"/>
	</linearGradient><path fill="url(#SVGID_4_)" d="M270.1,503.4c0-35.6,28.9-64.5,64.5-64.5s64.5,28.9,64.5,64.5" transform="matrix(2.7535531520843506, 0, 0, 2.753553152084351, -213.7068270812677, -944.2182101722951)"/><path fill="#3777BC" d="M334.7,589.1c-22.3,0-43.4-8.6-59.3-24.3c-2.6-2.6-2.6-6.7-0.1-9.3c2.6-2.6,6.7-2.6,9.3-0.1&#10;&#9;&#9;&#9;c13.4,13.2,31.2,20.5,50,20.5c39.3,0,71.2-31.9,71.2-71.2s-32-71.2-71.2-71.2s-71.2,32-71.2,71.2c0,3.6-3,6.6-6.6,6.6&#10;&#9;&#9;&#9;c-3.6,0-6.6-3-6.6-6.6c0-46.6,37.9-84.4,84.4-84.4s84.4,37.9,84.4,84.4C419.1,551.2,381.2,589.1,334.7,589.1z" transform="matrix(2.7535531520843506, 0, 0, 2.753553152084351, -213.7068270812677, -944.2182101722951)"/><path fill="#3777BC" d="M256.8,541c-1.8,0-3.4-0.7-4.7-1.9l-29.5-29.7c-2.6-2.6-2.6-6.8,0-9.3c2.6-2.6,6.8-2.6,9.3,0l24.4,24.5&#10;&#9;&#9;&#9;l19.6-24c2.3-2.8,6.5-3.3,9.3-0.9c2.8,2.3,3.3,6.5,0.9,9.3L262,538.6c-1.2,1.5-2.9,2.3-4.8,2.4C257.1,541,257,541,256.8,541z" transform="matrix(2.7535531520843506, 0, 0, 2.753553152084351, -213.7068270812677, -944.2182101722951)"/><path fill="#3777BC" d="M362.9,547.8c-1.6,0-3.2-0.6-4.5-1.8l-28.2-26.5c-1.3-1.2-2.1-3-2.1-4.8v-55.9c0-3.6,3-6.6,6.6-6.6&#10;&#9;&#9;&#9;s6.6,3,6.6,6.6v53l26.1,24.5c2.7,2.5,2.8,6.7,0.3,9.3C366.4,547.1,364.6,547.8,362.9,547.8z" transform="matrix(2.7535531520843506, 0, 0, 2.753553152084351, -213.7068270812677, -944.2182101722951)"/><path fill="#3777BC" d="M276,496.4c-0.2,0-0.4,0-0.7,0c-2.5-0.4-4.3-2.7-3.9-5.2c0.9-6,3.4-12.4,7.6-19.7c1.3-2.2,4.1-2.9,6.3-1.6&#10;&#9;&#9;&#9;c2.2,1.3,2.9,4.1,1.6,6.3c-3.7,6.2-5.8,11.5-6.4,16.3C280.2,494.7,278.2,496.4,276,496.4z" transform="matrix(2.7535531520843506, 0, 0, 2.753553152084351, -213.7068270812677, -944.2182101722951)"/><path fill="#3777BC" d="M294.3,464.5c-1.2,0-2.4-0.5-3.3-1.4c-1.8-1.8-1.8-4.8,0.1-6.5c13.3-13.1,29.3-16,30-16.2&#10;&#9;&#9;&#9;c2.5-0.4,4.9,1.2,5.4,3.8c0.4,2.5-1.2,4.9-3.7,5.4c-0.3,0-14,2.7-25.1,13.7C296.6,464.1,295.4,464.5,294.3,464.5z" transform="matrix(2.7535531520843506, 0, 0, 2.753553152084351, -213.7068270812677, -944.2182101722951)"/>
<linearGradient id="SVGID_5_" gradientUnits="userSpaceOnUse" x1="577.6667" y1="501.0412" x2="577.6667" y2="446.343">
		<stop offset="0" style="stop-color:#FFFFFF"/>
		<stop offset="0.1724" style="stop-color:#FCFEFE"/>
		<stop offset="0.3071" style="stop-color:#F2FAF9"/>
		<stop offset="0.429" style="stop-color:#E1F3F2"/>
		<stop offset="0.5434" style="stop-color:#CAEAE8"/>
		<stop offset="0.6516" style="stop-color:#ACDEDB"/>
		<stop offset="0.7092" style="stop-color:#99D6D3"/>
		<stop offset="0.7511" style="stop-color:#8AD1D4"/>
		<stop offset="0.8316" style="stop-color:#63C4D7"/>
		<stop offset="0.9416" style="stop-color:#24B0DC"/>
		<stop offset="1" style="stop-color:#00A4DF"/>
	</linearGradient>
<linearGradient id="SVGID_6_" gradientUnits="userSpaceOnUse" x1="829.7006" y1="540.9901" x2="829.7006" y2="486.2919">
		<stop offset="0" style="stop-color:#FFFFFF"/>
		<stop offset="0.1767" style="stop-color:#FDFEFC"/>
		<stop offset="0.3148" style="stop-color:#F6FAF2"/>
		<stop offset="0.4398" style="stop-color:#EBF5E1"/>
		<stop offset="0.557" style="stop-color:#DCECCA"/>
		<stop offset="0.6679" style="stop-color:#C8E2AC"/>
		<stop offset="0.7092" style="stop-color:#BFDD9F"/>
		<stop offset="0.744" style="stop-color:#B0D9A4"/>
		<stop offset="0.811" style="stop-color:#89CDB1"/>
		<stop offset="0.9034" style="stop-color:#49BAC6"/>
		<stop offset="1" style="stop-color:#00A4DF"/>
	</linearGradient>
<linearGradient id="SVGID_7_" gradientUnits="userSpaceOnUse" x1="1082.9393" y1="504.4467" x2="1082.9393" y2="449.7485">
		<stop offset="0" style="stop-color:#FFFFFF"/>
		<stop offset="0.1767" style="stop-color:#FDFEFC"/>
		<stop offset="0.3148" style="stop-color:#F6FAF2"/>
		<stop offset="0.4398" style="stop-color:#EBF5E1"/>
		<stop offset="0.557" style="stop-color:#DCECCA"/>
		<stop offset="0.6679" style="stop-color:#C8E2AC"/>
		<stop offset="0.7092" style="stop-color:#BFDD9F"/>
		<stop offset="0.744" style="stop-color:#B0D9A4"/>
		<stop offset="0.811" style="stop-color:#89CDB1"/>
		<stop offset="0.9034" style="stop-color:#49BAC6"/>
		<stop offset="1" style="stop-color:#00A4DF"/>
	</linearGradient>
<linearGradient id="SVGID_8_" gradientUnits="userSpaceOnUse" x1="357.8719" y1="753.5483" x2="357.8719" y2="699.8411">
		<stop offset="0" style="stop-color:#FFFFFF"/>
		<stop offset="0.1389" style="stop-color:#FFFEFC"/>
		<stop offset="0.2474" style="stop-color:#FFFBF2"/>
		<stop offset="0.3457" style="stop-color:#FFF7E1"/>
		<stop offset="0.4379" style="stop-color:#FFF1CA"/>
		<stop offset="0.5259" style="stop-color:#FFE8AC"/>
		<stop offset="0.6107" style="stop-color:#FFDE87"/>
		<stop offset="0.6914" style="stop-color:#FFD35C"/>
		<stop offset="0.7653" style="stop-color:#FFC62D"/>
		<stop offset="0.8333" style="stop-color:#FDBC3A"/>
		<stop offset="0.9598" style="stop-color:#F9A15D"/>
		<stop offset="1" style="stop-color:#F7986A"/>
	</linearGradient>
<linearGradient id="SVGID_9_" gradientUnits="userSpaceOnUse" x1="601.6755" y1="818.131" x2="601.6755" y2="764.4238">
		<stop offset="0" style="stop-color:#FFFFFF"/>
		<stop offset="0.1389" style="stop-color:#FFFEFC"/>
		<stop offset="0.2474" style="stop-color:#FFFBF2"/>
		<stop offset="0.3457" style="stop-color:#FFF7E1"/>
		<stop offset="0.4379" style="stop-color:#FFF1CA"/>
		<stop offset="0.5259" style="stop-color:#FFE8AC"/>
		<stop offset="0.6107" style="stop-color:#FFDE87"/>
		<stop offset="0.6914" style="stop-color:#FFD35C"/>
		<stop offset="0.7653" style="stop-color:#FFC62D"/>
		<stop offset="0.8333" style="stop-color:#FDBC3A"/>
		<stop offset="0.9598" style="stop-color:#F9A15D"/>
		<stop offset="1" style="stop-color:#F7986A"/>
	</linearGradient>
<linearGradient id="SVGID_10_" gradientUnits="userSpaceOnUse" x1="855.4673" y1="818.131" x2="855.4673" y2="764.4238">
		<stop offset="0" style="stop-color:#FFFFFF"/>
		<stop offset="0.1724" style="stop-color:#FCFEFE"/>
		<stop offset="0.3071" style="stop-color:#F2FAF9"/>
		<stop offset="0.429" style="stop-color:#E1F3F2"/>
		<stop offset="0.5434" style="stop-color:#CAEAE8"/>
		<stop offset="0.6516" style="stop-color:#ACDEDB"/>
		<stop offset="0.7092" style="stop-color:#99D6D3"/>
		<stop offset="0.7511" style="stop-color:#8AD1D4"/>
		<stop offset="0.8316" style="stop-color:#63C4D7"/>
		<stop offset="0.9416" style="stop-color:#24B0DC"/>
		<stop offset="1" style="stop-color:#00A4DF"/>
	</linearGradient>
<linearGradient id="SVGID_11_" gradientUnits="userSpaceOnUse" x1="1096.1537" y1="741.4247" x2="1096.1537" y2="696.4386">
		<stop offset="0" style="stop-color:#FFFFFF"/>
		<stop offset="0.1767" style="stop-color:#FDFEFC"/>
		<stop offset="0.3148" style="stop-color:#F6FAF2"/>
		<stop offset="0.4398" style="stop-color:#EBF5E1"/>
		<stop offset="0.557" style="stop-color:#DCECCA"/>
		<stop offset="0.6679" style="stop-color:#C8E2AC"/>
		<stop offset="0.7092" style="stop-color:#BFDD9F"/>
		<stop offset="0.744" style="stop-color:#B0D9A4"/>
		<stop offset="0.811" style="stop-color:#89CDB1"/>
		<stop offset="0.9034" style="stop-color:#49BAC6"/>
		<stop offset="1" style="stop-color:#00A4DF"/>
	</linearGradient>
</svg>