<?xml version="1.0" encoding="utf-8"?>
<svg id="master-artboard" viewBox="0 0 1400 980" version="1.1" xmlns="http://www.w3.org/2000/svg" x="0px" y="0px" width="1400px" height="980px" enable-background="new 0 0 1400 980" xmlns:xlink="http://www.w3.org/1999/xlink">
<defs>
			<path d="M 99 91 H 499 V 980 H 99 V 91 Z" id="XMLID_36_"/>
		</defs><clipPath id="XMLID_100_">
			<use overflow="visible" xlink:href="#XMLID_36_"/>
		</clipPath><path id="XMLID_280_" fill="#EBA29B" d="M339.2,412.4h-16.1l-18.1,0l-29,0h-16.9l1.6-5.9l1.8-6.8c0,0-0.1-0.4,0-1.1v0&#10;&#9;&#9;&#9;&#9;c0.4-1.8,2.6-5,13.6-5.3c0.9,0,1.8,0,2.8,0c3.8,0.1,8.4-0.2,13.3-0.4c3-0.2,6.1-0.4,9.3-0.6c5.4-0.3,10.8-0.5,15.7-0.3&#10;&#9;&#9;&#9;&#9;c1,0.1,2,0.1,3,0.2c1.4,0.1,2.8,0.3,4.1,0.5c0,0,0,0,0,0c2.3,0.4,4.3,0.9,6,1.7c2.8,1.2,4.7,3,5.4,5.5l2.4,9L339.2,412.4z" transform="matrix(0.5381771326065063, 0, 0, 0.5381771326065063, 887.5357465881852, 234.2205470816973)"/><path id="XMLID_248_" fill="#003B5E" d="M206,834.8c-4.6-35.8-5.9-96.4-5.9-96.4s60.5-9.5,195,0c-4.6,86.2-13.4,204.7-15.6,303.6&#10;&#9;&#9;&#9;&#9;c-14.7,10.8-29.6,21.2-45.1,30c1-95.5,0.7-211.1-6-224.4c-9.6-19.2-46.4-25.7-56.9,10.1c-6.5,22-2.4,147.9,1.8,241.9&#10;&#9;&#9;&#9;&#9;c-14.7,6.1-29.5,11.9-44.3,17.6C224.8,1016.4,209.4,861.3,206,834.8z" transform="matrix(0.5381771326065063, 0, 0, 0.5381771326065063, 887.5357465881852, 234.2205470816973)"/><path id="XMLID_226_" fill="#EBA29B" d="M399.6,617.6c0.2,18.6,0.7,38,1.2,55.6c-51.4,30.3-104.9,55.6-160.3,75.1&#10;&#9;&#9;&#9;&#9;c-24.7-2.4-43.8-6.8-49.2-13.2c-0.3-0.4-0.6-0.8-0.9-1.2c0,0,2.9-58.1,4.7-109.1C263.6,624.9,331.8,625.4,399.6,617.6z" transform="matrix(0.5381771326065063, 0, 0, 0.5381771326065063, 887.5357465881852, 234.2205470816973)"/><path id="XMLID_237_" fill="#FAC1B7" d="M196.2,554.4c-1.1-18.1-7.9-63.8-10.1-90.9c-0.5-5.9-0.7-10.9-0.6-14.6&#10;&#9;&#9;&#9;&#9;c0.1-6.8,4.4-12.7,10.7-14.9l68.5-23.6l69.2,0.8l60.2,15.2c6.6,1.4,11.6,6.9,12.4,13.8c0.5,3.7,2.4,8,2,16.2&#10;&#9;&#9;&#9;&#9;c-1.4,27.5-6.7,74.3-8.1,101.5c-0.7,12.3-0.8,29-0.7,47.2c0,4.1,0.1,8.3,0.1,12.5c-67.8,7.9-136,7.3-204.4,7.1&#10;&#9;&#9;&#9;&#9;c0.6-17.3,1.1-33.8,1.2-47C196.6,567.5,196.5,559.3,196.2,554.4z" transform="matrix(0.5381771326065063, 0, 0, 0.5381771326065063, 887.5357465881852, 234.2205470816973)"/><path id="XMLID_206_" fill="#FAC1B7" d="M400.8,673.1c1,33.9,2.2,60.7,2.2,60.7c-0.2,0.3-0.5,0.5-0.7,0.8&#10;&#9;&#9;&#9;&#9;c-14.1,14.1-103.5,19.3-161.7,13.6C295.9,728.8,349.4,703.5,400.8,673.1z" transform="matrix(0.5381771326065063, 0, 0, 0.5381771326065063, 887.5357465881852, 234.2205470816973)"/><path id="XMLID_277_" fill="#414042" d="M403,752.6c-7,9.1-44.9,14.7-86.9,16.3c-12.8,0.5-26,0.6-38.8,0.3&#10;&#9;&#9;&#9;&#9;c-42.8-1-81.2-6.3-86.9-16.5c0,0,0.3-6.7,0.9-17.6c7.9,9.4,45,14.4,86,15.3c12.8,0.3,26,0.2,38.8-0.3&#10;&#9;&#9;&#9;&#9;c40.7-1.5,77.6-6.8,86.1-15.5C402.7,745.7,403,752.6,403,752.6z" transform="matrix(0.5381771326065063, 0, 0, 0.5381771326065063, 887.5357465881852, 234.2205470816973)"/><path id="XMLID_276_" fill="#EBA29B" d="M347.3,414.1l-13.5-2.9l-69.2-0.9l-68.5,24.4c-6.3,2.2-10.5,8.4-10.7,15.4&#10;&#9;&#9;&#9;&#9;c-0.4,21.4,9.4,86.3,10.7,109.2c0.9,14.5-0.4,57.2-2,98C262.2,591.1,307.4,501.6,347.3,414.1z" transform="matrix(0.5381771326065063, 0, 0, 0.5381771326065063, 887.5357465881852, 234.2205470816973)"/><path id="XMLID_275_" fill="#FCBA7C" d="M339.2,412.4c0,0-23.9,27.7-39.7,26.5c-0.7-0.1-1.3-0.1-1.9-0.3&#10;&#9;&#9;&#9;&#9;c-2.8-0.7-5.6-1.6-8.2-2.8l-1.6-0.7c-1-0.5-2-1-3-1.5c-0.6-0.3-1.2-0.6-1.7-1c-0.9-0.5-1.8-1.1-2.7-1.6c0,0,0,0,0,0&#10;&#9;&#9;&#9;&#9;c-0.1-0.1-0.2-0.1-0.2-0.2c-0.5-0.3-0.9-0.6-1.4-0.9c-2.4-1.6-4.6-3.2-6.6-4.8c-0.4-0.3-0.8-0.6-1.2-1c-1.5-1.3-3-2.5-4.2-3.8&#10;&#9;&#9;&#9;&#9;c-4.3-4.1-7-7.4-7.4-7.9l0,0c0,0,0,0,0,0c0,0,0,0,0,0s4-1.8,8.8-6.9c0.1-0.2,0.3-0.3,0.5-0.5c0.4-0.5,0.9-1,1.3-1.5&#10;&#9;&#9;&#9;&#9;c1.8-2.1,3.6-4.7,5.3-7.8c0.4-0.7,0.8-1.5,1.1-2.4c0.3-0.6,0.5-1.3,0.7-2c4.4-14.5,2.2-42.6,2.2-42.6l40.1-5.9&#10;&#9;&#9;&#9;&#9;c0,0-0.2,15.6,0,29.7c0,0.6,0,1.3,0,1.9c0,0.6,0,1.3,0,2c0,0.6,0,1.2,0.1,1.7c0,1.1,0.1,2.1,0.1,3.1c0,0.5,0,1,0.1,1.5&#10;&#9;&#9;&#9;&#9;c0,0.1,0,0.2,0,0.3c0,0.3,0,0.6,0,0.9c0.1,1.4,0.1,2.7,0.2,3.8c0.1,0.8,0.1,1.6,0.2,2.3c0.1,0.7,0.2,1.5,0.4,2.2&#10;&#9;&#9;&#9;&#9;C323.2,403.5,339.2,412.4,339.2,412.4z" transform="matrix(0.5381771326065063, 0, 0, 0.5381771326065063, 887.5357465881852, 234.2205470816973)"/><path id="XMLID_274_" fill="#EEB78F" d="M319.7,387.5c-0.8,1.4-1.6,2.9-2.4,4.3c-3.9,7-8.1,13.8-12.3,20.6&#10;&#9;&#9;&#9;&#9;c-3.6,5.7-7.3,11.2-11,16.8c-1.5,2.2-3.1,4.5-4.6,6.7l-1.6-0.7c-1-0.5-2-1-3-1.5c-0.6-0.3-1.2-0.6-1.7-1&#10;&#9;&#9;&#9;&#9;c-0.9-0.5-1.8-1.1-2.7-1.7c-0.1-0.1-0.2-0.1-0.2-0.2c-0.5-0.3-0.9-0.6-1.4-0.9c-2.4-1.6-4.5-3.2-6.6-4.8c-0.4-0.3-0.8-0.6-1.2-1&#10;&#9;&#9;&#9;&#9;c-1.5-1.3-2.9-2.5-4.2-3.8c-4.3-4.1-7-7.4-7.4-7.9l0,0c0,0,0,0,0,0c0,0,0,0,0,0s4-1.8,8.8-6.9c0.1-0.2,0.3-0.3,0.5-0.5&#10;&#9;&#9;&#9;&#9;c0.4-0.5,0.9-1,1.3-1.5c1.8-2.1,3.6-4.7,5.3-7.8c0.4-0.7,0.8-1.5,1.1-2.4c0.3-0.6,0.5-1.3,0.7-2c4.4-14.5,2.2-42.6,2.2-42.6&#10;&#9;&#9;&#9;&#9;l40.1-5.9c0,0-0.2,15.6,0,29.7c0,0.6,0,1.3,0,1.9c0,0.6,0,1.3,0,2c0,0.6,0,1.2,0.1,1.7c0,1.1,0.1,2.1,0.1,3.1c0,0.5,0,1,0.1,1.5&#10;&#9;&#9;&#9;&#9;c0,0.1,0,0.2,0,0.3c0,0.3,0,0.6,0,0.9C319.5,385,319.6,386.3,319.7,387.5z" transform="matrix(0.5381771326065063, 0, 0, 0.5381771326065063, 887.5357465881852, 234.2205470816973)"/><path id="XMLID_273_" fill="#F0CDB6" d="M319.9,389.8c-0.1-0.7-0.1-1.5-0.2-2.3c-9.3,16.8-19.6,32.8-30.4,48.3&#10;&#9;&#9;&#9;&#9;c2.6,1.1,5.3,2.7,8.2,2.8c17.5,0.5,41.7-26.2,41.7-26.2S321.1,402.4,319.9,389.8z" transform="matrix(0.5381771326065063, 0, 0, 0.5381771326065063, 887.5357465881852, 234.2205470816973)"/><path id="XMLID_272_" fill="#FDC07D" d="M291.2,362.1c1.9,0.1,3.9,0.2,5.9,0.2C295.9,362.3,293.9,362.2,291.2,362.1z" transform="matrix(0.5381771326065063, 0, 0, 0.5381771326065063, 887.5357465881852, 234.2205470816973)"/><path id="XMLID_271_" fill="#4B361B" d="M298.1,362.3L298.1,362.3c0,0-0.2,0-0.6,0C297.7,362.3,297.9,362.3,298.1,362.3z" transform="matrix(0.5381771326065063, 0, 0, 0.5381771326065063, 887.5357465881852, 234.2205470816973)"/><path id="XMLID_270_" fill="#EBA29B" d="M259.1,412.3l3.4-12.8c0,0,12.5,14.2,22.2,20.4c9.7,6.1,14.8,19,14.8,19&#10;&#9;&#9;&#9;&#9;C293.6,439.1,277.8,439.5,259.1,412.3z" transform="matrix(0.5381771326065063, 0, 0, 0.5381771326065063, 887.5357465881852, 234.2205470816973)"/><path id="XMLID_269_" fill="#EBA29B" d="M339.2,412.4C339.2,412.4,339.2,412.4,339.2,412.4c-6.9,10.9-13.9,17.4-20.1,21.2&#10;&#9;&#9;&#9;&#9;c-11.2,7-19.6,5.4-19.6,5.4s0,0,0,0c0-0.1,0.1-0.2,0.1-0.4c0.8-2.2,5.4-13.1,14-18.6c0,0,0.1,0,0.2-0.1c3-1.9,6.4-4.7,9.5-7.5&#10;&#9;&#9;&#9;&#9;c1.5-1.4,2.9-2.7,4.3-4l0.3-0.3c0.8-0.8,1.5-1.5,2.2-2.2c0.2-0.2,0.4-0.4,0.5-0.6c2.4-2.5,4.2-4.5,4.9-5.3&#10;&#9;&#9;&#9;&#9;c0.1-0.1,0.2-0.2,0.3-0.4l2.4,9L339.2,412.4z" transform="matrix(0.5381771326065063, 0, 0, 0.5381771326065063, 887.5357465881852, 234.2205470816973)"/><path id="XMLID_268_" fill="#E6E7E8" d="M259.1,410.4l-64.2,22.5c-6.4,2.2-10.8,8.4-10.9,15.5c-0.4,21.4,9.6,86.6,10.9,109.5&#10;&#9;&#9;&#9;&#9;c0.6,9.3-1.5,53.6-4.7,110.9c24.6-25.9,47.3-53.7,68.8-82.1V410.4z" transform="matrix(0.5381771326065063, 0, 0, 0.5381771326065063, 887.5357465881852, 234.2205470816973)"/><path id="XMLID_207_" fill="#E6E7E8" d="M190.3,668.7c24.6-25.9,47.3-53.7,68.8-82.1v154.9c-24.5,9.2-49.3,17.4-74.4,24.3&#10;&#9;&#9;&#9;&#9;C186.7,731.9,188.6,698.6,190.3,668.7z" transform="matrix(0.5381771326065063, 0, 0, 0.5381771326065063, 887.5357465881852, 234.2205470816973)"/><path id="XMLID_212_" fill="#EFEFF0" d="M259.1,741.5v275.7c-45.8-1.5-84-6.7-89.1-16c0,0,7.8-120,14.7-235.5&#10;&#9;&#9;&#9;&#9;C209.8,758.8,234.6,750.7,259.1,741.5z" transform="matrix(0.5381771326065063, 0, 0, 0.5381771326065063, 887.5357465881852, 234.2205470816973)"/><path id="XMLID_221_" fill="#EFEFF0" d="M339.2,411.3l57.5,14.8c6.7,1.4,11.8,7.2,12.6,14.3c2,17.1-6.2,80.6-8.1,117.3&#10;&#9;&#9;&#9;&#9;c-0.8,15.3,1.4,58.5,4.9,112.3c-22.3,13.4-45.1,25.8-68.2,37.2L339.2,411.3z" transform="matrix(0.5381771326065063, 0, 0, 0.5381771326065063, 887.5357465881852, 234.2205470816973)"/><path id="XMLID_224_" fill="#FFFFFF" d="M406.1,670c8.6,132.1,25.1,327.7,25.1,327.7c-6.5,8.6-45.7,14.5-94.6,21.7l1.3-312.2&#10;&#9;&#9;&#9;&#9;C361,695.8,383.8,683.4,406.1,670z" transform="matrix(0.5381771326065063, 0, 0, 0.5381771326065063, 887.5357465881852, 234.2205470816973)"/><path id="XMLID_265_" fill="#FAC1B7" d="M284.6,419.9c0,0-2.2,5.3-4.4,11.1c0,0,0,0,0,0c-0.3,0.7-0.6,1.5-0.9,2.2&#10;&#9;&#9;&#9;&#9;c-1,2.5-1.9,5-2.6,7c-12.2-14.7-17.3-27.1-17.7-27.8c0,0,0,0,0,0l1.4-5.9l1.9-8v0c1.6,1.9,3.3,3.7,5,5.6c0.3,0.3,0.6,0.6,0.9,0.9&#10;&#9;&#9;&#9;&#9;c2.6,2.7,5.3,5.3,7.6,7.4C280.6,416.6,284.2,419.6,284.6,419.9C284.6,419.9,284.6,419.9,284.6,419.9z" transform="matrix(0.5381771326065063, 0, 0, 0.5381771326065063, 887.5357465881852, 234.2205470816973)"/><path id="XMLID_264_" fill="#FAC1B7" d="M339.2,412.4C339.2,412.4,339.2,412.4,339.2,412.4c-0.3,0.8-5.5,13.2-17.7,27.9&#10;&#9;&#9;&#9;&#9;c-0.6-1.9-1.5-4.3-2.4-6.7c-0.3-0.7-0.5-1.4-0.8-2.1c-0.1-0.2-0.2-0.5-0.3-0.7c-2.2-5.6-4.4-10.8-4.4-10.8s0.1,0,0.2-0.1&#10;&#9;&#9;&#9;&#9;c0.8-0.6,4.6-3.4,9.3-7.5c1.4-1.2,3-2.6,4.5-4l0.3-0.3c0.7-0.7,1.5-1.4,2.2-2.2c0.2-0.2,0.4-0.4,0.6-0.6c1.7-1.7,3.3-3.5,4.9-5.3&#10;&#9;&#9;&#9;&#9;c0.1-0.1,0.2-0.2,0.3-0.4l2.4,9L339.2,412.4z" transform="matrix(0.5381771326065063, 0, 0, 0.5381771326065063, 887.5357465881852, 234.2205470816973)"/><path id="XMLID_263_" fill="#003D61" d="M309.4,432.6c-6.4-1.7-13.3-1.7-20.6,0l-2.1,5.6l5.6,9.8h13.5l5.7-9.8L309.4,432.6z" transform="matrix(0.5381771326065063, 0, 0, 0.5381771326065063, 887.5357465881852, 234.2205470816973)"/><path d="M 288.79998779296875 432.6000061035156 L 281.8999938964844 426.6000061035156 L 279.29998779296875 433.20001220703125 L 286.70001220703125 438.1000061035156 Z" id="XMLID_262_" fill="#003050" transform="matrix(0.5381771326065063, 0, 0, 0.5381771326065063, 887.5357465881852, 234.2205470816973)"/><path d="M 309.399994 432.600006 L 316.700012 427.399994 L 319.399994 434.299988 L 311.600006 438.100006" id="XMLID_261_" fill="#003050" transform="matrix(0.5381771326065063, 0, 0, 0.5381771326065063, 887.5357465881852, 234.2205470816973)"/><path id="XMLID_260_" fill="#003050" d="M305.8,448h-6.7h-6.8l-5.9,92.1c7.9-12.2,16.2-24.5,22.9-37.5L305.8,448z" transform="matrix(0.5381771326065063, 0, 0, 0.5381771326065063, 887.5357465881852, 234.2205470816973)"/><path id="XMLID_259_" fill="#003D61" d="M309.4,502.6c-6.7,13.1-15,25.3-22.9,37.5l-9,139.5l21.7,29.1l21.7-29.1L309.4,502.6z" transform="matrix(0.5381771326065063, 0, 0, 0.5381771326065063, 887.5357465881852, 234.2205470816973)"/><path id="XMLID_43_" fill="#D1D3D4" d="M293.5,770.3c-3,0-6,0-8.9-0.1c-1.8,0-3.3-1.9-3.3-4.2v-12.4c0-1.3,0.5-2.5,1.3-3.3&#10;&#9;&#9;&#9;&#9;&#9;c0.6-0.6,1.4-0.9,2.1-0.9c7.8,0.2,15.8,0.1,23.9-0.2c0.8,0,1.5,0.3,2.2,0.9c0.8,0.8,1.3,2,1.3,3.3v12.4c0,2.3-1.4,4.1-3.2,4.2&#10;&#9;&#9;&#9;&#9;&#9;C303.8,770.1,298.7,770.3,293.5,770.3z M284.7,751.4c-0.3,0-0.5,0.2-0.7,0.3c-0.4,0.4-0.7,1.1-0.7,1.8V766&#10;&#9;&#9;&#9;&#9;&#9;c0,1.3,0.7,2.1,1.3,2.2c8,0.2,16.1,0.1,24.2-0.2c0.6,0,1.3-0.9,1.3-2.2v-12.4c0-0.8-0.3-1.4-0.7-1.8c-0.2-0.2-0.4-0.3-0.7-0.3&#10;&#9;&#9;&#9;&#9;&#9;C300.6,751.5,292.5,751.6,284.7,751.4C284.7,751.4,284.7,751.4,284.7,751.4z" transform="matrix(0.5381771326065063, 0, 0, 0.5381771326065063, 887.5357465881852, 234.2205470816973)"/><path d="M 282.299988 759.200012 H 294.099988 V 760.200012 H 282.299988 V 759.200012 Z" id="XMLID_39_" fill="#D1D3D4" transform="matrix(0.5381771326065063, 0, 0, 0.5381771326065063, 887.5357465881852, 234.2205470816973)"/><path id="XMLID_256_" fill="#F0CDB6" d="M374.3,251.7c0,10.1,1.2,73.8-4.3,91.6c-5.4,17.8-42.8,39.6-69.9,39.9&#10;&#9;&#9;&#9;&#9;c-0.7,0-1.4,0-2.1,0v-69.3c0,0-17-1.5-9-14.2c8-12.7,9.8-28.7,9.8-28.7L298,204l-20.7-19.6L228,195.7c0,0,0,0,0,0&#10;&#9;&#9;&#9;&#9;c16.2-23.8,51.3-25.8,73.3-26.2c22-0.4,63.7,19.5,68.2,25.5C381.1,210.2,374.3,241.6,374.3,251.7z" transform="matrix(0.5381771326065063, 0, 0, 0.5381771326065063, 887.5357465881852, 234.2205470816973)"/><path id="XMLID_255_" fill="#EEB78F" d="M298,313.9v69.3c-0.1,0-0.3,0-0.4,0c-0.1,0-0.2,0-0.3,0c-29.3-2.7-68.2-15.3-72.8-39.9&#10;&#9;&#9;&#9;&#9;c-5.3-28.6-4.4-94.9-4.4-94.9c-2.3-37.8,5.6-49.7,7.8-52.8l49.3-11.3L298,204l0.7,67.1c0,0-1.8,16-9.8,28.7&#10;&#9;&#9;&#9;&#9;C281,312.4,298,313.9,298,313.9z" transform="matrix(0.5381771326065063, 0, 0, 0.5381771326065063, 887.5357465881852, 234.2205470816973)"/><path id="XMLID_254_" fill="#EEB78F" d="M370.2,280.8c0,0-0.4-19.1,14.3-20.2c14.7-1.1,13.4,15.9,9.1,27.3&#10;&#9;&#9;&#9;&#9;c-4.3,11.4-24.1,15.5-24.1,15.5L370.2,280.8z" transform="matrix(0.5381771326065063, 0, 0, 0.5381771326065063, 887.5357465881852, 234.2205470816973)"/><path id="XMLID_253_" fill="#EEB78F" d="M225.5,275.7c0,0,0.4-19.1-14.3-20.2c-14.7-1.1-13.4,15.9-9.1,27.3&#10;&#9;&#9;&#9;&#9;c4.3,11.4,24.1,15.5,24.1,15.5L225.5,275.7z" transform="matrix(0.5381771326065063, 0, 0, 0.5381771326065063, 887.5357465881852, 234.2205470816973)"/><path d="M 268.100012 279.399994 A 6.9 8.3 0 0 1 261.200012 287.699994 A 6.9 8.3 0 0 1 254.300012 279.399994 A 6.9 8.3 0 0 1 261.200012 271.099994 A 6.9 8.3 0 0 1 268.100012 279.399994 Z" id="XMLID_252_" transform="matrix(0.5381771326065063, 0, 0, 0.5381771326065063, 887.5357465881852, 234.2205470816973)"/><path d="M 265.999988 274.700012 A 2.2 2.7 0 0 1 263.799988 277.400012 A 2.2 2.7 0 0 1 261.599988 274.700012 A 2.2 2.7 0 0 1 263.799988 272.000012 A 2.2 2.7 0 0 1 265.999988 274.700012 Z" id="XMLID_251_" fill="#FFFFFF" transform="matrix(0.5381771326065063, 0, 0, 0.5381771326065063, 887.5357465881852, 234.2205470816973)"/><path d="M 344.600012 279.399994 A 6.9 8.3 0 0 1 337.700012 287.699994 A 6.9 8.3 0 0 1 330.800012 279.399994 A 6.9 8.3 0 0 1 337.700012 271.099994 A 6.9 8.3 0 0 1 344.600012 279.399994 Z" id="XMLID_250_" transform="matrix(0.5381771326065063, 0, 0, 0.5381771326065063, 887.5357465881852, 234.2205470816973)"/><path d="M 342.499988 274.700012 A 2.2 2.7 0 0 1 340.299988 277.400012 A 2.2 2.7 0 0 1 338.099988 274.700012 A 2.2 2.7 0 0 1 340.299988 272.000012 A 2.2 2.7 0 0 1 342.499988 274.700012 Z" id="XMLID_249_" fill="#FFFFFF" transform="matrix(0.5381771326065063, 0, 0, 0.5381771326065063, 887.5357465881852, 234.2205470816973)"/><path id="XMLID_247_" fill="#CFA07E" d="M298.8,271c0,0,0.8,10.9-5,25.2c-2.8,6.9-3.5,14.4-0.9,15.4s8,1.8,8,1.8&#10;&#9;&#9;&#9;&#9;s-15,2.7-14.2-5.4C287.7,298.3,294.9,291.7,298.8,271z" transform="matrix(0.5381771326065063, 0, 0, 0.5381771326065063, 887.5357465881852, 234.2205470816973)"/><path id="XMLID_246_" d="M274.3,247.7c-5.9,0.1-20.1,1.2-37.7,7.5c-1.6,0.6-3.4-0.3-3.9-1.9l0,0c-0.4-1.3,0.1-2.8,1.4-3.5&#10;&#9;&#9;&#9;&#9;c4.8-2.8,18.3-9.5,39.9-11.1c1.8-0.1,3.3,1.3,3.3,3v2.9C277.3,246.4,276,247.7,274.3,247.7z" transform="matrix(0.5381771326065063, 0, 0, 0.5381771326065063, 887.5357465881852, 234.2205470816973)"/><path id="XMLID_245_" d="M320.9,247.7c5.9,0.1,20.1,1.2,37.7,7.5c1.6,0.6,3.4-0.3,3.9-1.9l0,0c0.4-1.3-0.1-2.8-1.4-3.5&#10;&#9;&#9;&#9;&#9;c-4.8-2.8-18.3-9.5-39.9-11.1c-1.8-0.1-3.3,1.3-3.3,3v2.9C318,246.4,319.3,247.7,320.9,247.7z" transform="matrix(0.5381771326065063, 0, 0, 0.5381771326065063, 887.5357465881852, 234.2205470816973)"/><path id="XMLID_38_" d="M210.1,189.3c12.1-39.7,95.7-47.5,116.6-48.1c59.9-1.8,45.2,40.7,45.2,40.7s0.8,0.2,2.1,0.6&#10;&#9;&#9;&#9;&#9;c-1,0.4-2,0.4-2.8-0.4c0.8,0.8,11.7,9.9,15.3,17.1c0,14.7-12.5,96.8-12.5,96.8l-3.7-68.7c-0.7-13.1-11.9-23.2-25-22.5&#10;&#9;&#9;&#9;&#9;c-16.6,0.9-32.8,10-47.9,9.8c-16.9-0.2-31.7-7.9-47.3-9.7c-13.6-1.6-25.7,8.9-26.3,22.6l-3.1,68.5c0,0-12.1-85.9-12.1-96.8&#10;&#9;&#9;&#9;&#9;C208.6,195.8,209.2,192.4,210.1,189.3z" transform="matrix(0.5381771326065063, 0, 0, 0.5381771326065063, 887.5357465881852, 234.2205470816973)"/><path id="XMLID_242_" fill="#F1F2F2" d="M259.1,410.4c0,2-26.1,48.2-26.1,48.2l13.1,13.3l-17.3,16.4l27,113.8&#10;&#9;&#9;&#9;&#9;c1.1-1.8,2.2-3.7,3.4-5.5L259.1,410.4z" transform="matrix(0.5381771326065063, 0, 0, 0.5381771326065063, 887.5357465881852, 234.2205470816973)"/><path id="XMLID_241_" fill="#FFFFFF" d="M259.1,596.5c-1.2,1.8-2.3,3.7-3.4,5.5l3.4,14.2L259.1,596.5z" transform="matrix(0.5381771326065063, 0, 0, 0.5381771326065063, 887.5357465881852, 234.2205470816973)"/><path id="XMLID_240_" fill="#FFFFFF" d="M339.2,410.4c0,2,26.1,48.2,26.1,48.2l-13.1,13.3l17.3,16.4l-30.3,128L339.2,410.4z" transform="matrix(0.5381771326065063, 0, 0, 0.5381771326065063, 887.5357465881852, 234.2205470816973)"/><path id="XMLID_232_" fill="#BCBEC0" d="M234.1,632.2l-1.2-6.9l4.4-0.7c13.4-2.2,24.4-14.9,27.6-31.4&#10;&#9;&#9;&#9;&#9;&#9;c4.1-21.5,7.9-52.5,2.9-77.6l6.9-1.4c5.2,26.2,1.3,58.1-2.9,80.3c-3.7,19.7-16.8,34.3-33.3,37.1L234.1,632.2z" transform="matrix(0.5381771326065063, 0, 0, 0.5381771326065063, 887.5357465881852, 234.2205470816973)"/><path id="XMLID_228_" fill="#003050" d="M228,635.2l12.9-2.2c0.9-0.2,1.5-1,1.3-1.9l-1.3-7.4c-0.2-0.9-1-1.5-1.9-1.3l-12.9,2.2&#10;&#9;&#9;&#9;&#9;&#9;c-0.9,0.2-1.5,1-1.3,1.9l1.3,7.4C226.2,634.7,227.1,635.3,228,635.2z" transform="matrix(0.5381771326065063, 0, 0, 0.5381771326065063, 887.5357465881852, 234.2205470816973)"/><path id="XMLID_225_" fill="#003050" d="M276.8,391.1c-0.2,0.7-0.4,1.4-0.7,2c-11,0.3-13.2,3.5-13.6,5.3v0l-1.9,8&#10;&#9;&#9;&#9;&#9;c-8.2,3.4-14.9,8.2-20.2,14.3c-17.3,20-13.6,47.9-13.5,48.1c0.4,2.9-1.6,5.6-4.5,6c-0.2,0-0.5,0.1-0.8,0.1&#10;&#9;&#9;&#9;&#9;c-2.6,0-4.8-1.9-5.2-4.5c-0.2-1.3-4.4-33,16-56.5C242.9,401.7,257.7,394.1,276.8,391.1z" transform="matrix(0.5381771326065063, 0, 0, 0.5381771326065063, 887.5357465881852, 234.2205470816973)"/><path id="XMLID_223_" fill="#003050" d="M377.8,470.3c-0.4,2.6-2.6,4.5-5.2,4.5c-0.2,0-0.5,0-0.7-0.1c-2.9-0.4-4.9-3.1-4.5-6&#10;&#9;&#9;&#9;&#9;c0.1-0.4,3.6-28.4-13.6-48.2c-4.3-4.9-9.5-8.9-15.6-12.1l-2.4-9c-0.7-2.5-2.6-4.3-5.4-5.5c12.9,4,23.4,10.5,31.4,19.7&#10;&#9;&#9;&#9;&#9;C382.2,437.4,378,469,377.8,470.3z" transform="matrix(0.5381771326065063, 0, 0, 0.5381771326065063, 887.5357465881852, 234.2205470816973)"/><path d="M 377.79998779296875 470.29998779296875 L 372.79998779296875 521.9000244140625 L 361.6000061035156 521.9000244140625 L 367.3999938964844 468.8999938964844 Z" id="XMLID_222_" fill="#003050" transform="matrix(0.5381771326065063, 0, 0, 0.5381771326065063, 887.5357465881852, 234.2205470816973)"/><path d="M 385.299988 527.299988 A 19 19 0 0 1 366.299988 546.299988 A 19 19 0 0 1 347.299988 527.299988 A 19 19 0 0 1 366.299988 508.299988 A 19 19 0 0 1 385.299988 527.299988 Z" id="XMLID_220_" fill="#BCBEC0" transform="matrix(0.5381771326065063, 0, 0, 0.5381771326065063, 887.5357465881852, 234.2205470816973)"/><path d="M 375.899988 527.299988 A 9.6 9.6 0 0 1 366.299988 536.899988 A 9.6 9.6 0 0 1 356.699987 527.299988 A 9.6 9.6 0 0 1 366.299988 517.699987 A 9.6 9.6 0 0 1 375.899988 527.299988 Z" id="XMLID_219_" fill="#E6E7E8" transform="matrix(0.5381771326065063, 0, 0, 0.5381771326065063, 887.5357465881852, 234.2205470816973)"/><path id="XMLID_210_" fill="#FFFFFF" d="M234.1,632.2c0,0,2.4,0.4,6.5,1.1c16,2.6,58.6,9.2,97.6,13.7c27.7,3.1,53.5,5.2,66.7,3.8&#10;&#9;&#9;&#9;&#9;c1.3-0.1,2.5-0.3,3.6-0.5c16.8-3.3,27.4-7.2,32.2-17c2.2-4.4,3.2-9.9,3-17.1c-0.5-21.7-4.8-131.6-34.2-172.7&#10;&#9;&#9;&#9;&#9;c1,20.5-6.5,79.5-8.3,114.4c0,0.5,0,1.1-0.1,1.7c0,0.3,0,0.6,0,0.9c0,0-2,7.7,1.2,45.1v0.1c-16.6,2-40.1,1.6-64,0.1&#10;&#9;&#9;&#9;&#9;c-46.6-2.9-94.4-9.6-94.4-9.6L234.1,632.2z" transform="matrix(0.5381771326065063, 0, 0, 0.5381771326065063, 887.5357465881852, 234.2205470816973)"/><path id="XMLID_198_" fill="#CA5C67" d="M328.8,330.4c-9.8,34.6-50.8,32-62.7,0C287.5,336.3,308.4,336.2,328.8,330.4z" transform="matrix(0.5381771326065063, 0, 0, 0.5381771326065063, 887.5357465881852, 234.2205470816973)"/><path id="XMLID_217_" fill="#CFA07E" d="M306.6,360.8h-17.2C289.4,360.8,294.8,367.6,306.6,360.8z" transform="matrix(0.5381771326065063, 0, 0, 0.5381771326065063, 887.5357465881852, 234.2205470816973)"/><path id="XMLID_317_" fill="#EFEFF0" d="M402.3,605.5c-1-20.3-1.5-36.1-1.2-45.1C401.1,560.4,399.1,568.1,402.3,605.5z" transform="matrix(0.5381771326065063, 0, 0, 0.5381771326065063, 887.5357465881852, 234.2205470816973)"/><path id="XMLID_213_" fill="#EEB78F" d="M338.1,605.2c0,0.2,0.1,0.4,0.1,0.6h0.1c12.7,0.8,25.3,1.3,36.8,1.2&#10;&#9;&#9;&#9;&#9;c-1-0.3-1.9-0.7-2.9-1.1c-5.9-2.2-11.7-4.6-17.7-6.6c-0.6-0.2-1.2-0.4-1.8-0.6c-0.6-0.2-1.2-0.4-1.8-0.6&#10;&#9;&#9;&#9;&#9;c-2.9-0.8-5.8-1.6-8.7-2.1l-0.4,7.2C340.6,604,339.3,604.6,338.1,605.2z" transform="matrix(0.5381771326065063, 0, 0, 0.5381771326065063, 887.5357465881852, 234.2205470816973)"/><path id="XMLID_214_" fill="#F0CDB6" d="M332.6,588.9c1.4,3.1,3.4,8.2,5.5,16.3c1.3-0.6,2.5-1.2,3.8-1.8c3.1-1.5,6.2-3,9.3-4.6&#10;&#9;&#9;&#9;&#9;c0,0,0-0.1,0-0.1c0-0.1-0.1-0.2-0.1-0.4c0.6,0.2,1.2,0.4,1.8,0.6c0.6,0.2,1.2,0.4,1.8,0.6c6,2,11.9,4.4,17.7,6.6&#10;&#9;&#9;&#9;&#9;c1,0.4,1.9,0.7,2.9,1.1c0,0,0,0,0,0c0.1,0,0.2,0.1,0.4,0.1c1.2,0.4,2.3,0.8,3.5,1.2c-0.4-0.4-0.8-0.9-1.2-1.3&#10;&#9;&#9;&#9;&#9;c-6.8-7.2-15.3-14.9-22.8-18.6c-7-3.4-12.1-3.6-12.1-3.6C339.3,586.2,335.9,587.6,332.6,588.9z" transform="matrix(0.5381771326065063, 0, 0, 0.5381771326065063, 887.5357465881852, 234.2205470816973)"/><path id="XMLID_211_" fill="#FFFFFF" d="M375.1,607c0.1,0,0.2,0.1,0.4,0.1c1.2,0.4,2.3,0.8,3.5,1.2c-0.4-0.4-0.8-0.9-1.2-1.3&#10;&#9;&#9;&#9;&#9;C376.9,607,376,607,375.1,607z" transform="matrix(0.5381771326065063, 0, 0, 0.5381771326065063, 887.5357465881852, 234.2205470816973)"/><path id="XMLID_208_" fill="#E6E7E8" d="M240.6,633.3c16,2.6,58.6,9.2,97.6,13.7c27.7,3.1,53.5,5.2,66.7,3.8&#10;&#9;&#9;&#9;&#9;c1.3-0.1,2.5-0.3,3.6-0.5c16.8-3.3,27.4-7.2,32.2-17c-21.8,2.1-76.9,6.2-110.3-1c8.2-1.7,8.8-3.5,8.8-3.5l-2.6-14.1L240.6,633.3z&#10;&#9;&#9;&#9;&#9;" transform="matrix(0.5381771326065063, 0, 0, 0.5381771326065063, 887.5357465881852, 234.2205470816973)"/><path id="XMLID_218_" fill="#FFFFFF" d="M148.6,619.9c3,17.6,13.5,25.1,42.9,25.5c3,0,6.1,0,9.5-0.1c3.3-0.1,7.1-0.3,11.1-0.6&#10;&#9;&#9;&#9;&#9;c40.1-3.2,109.8-16.7,129.2-24.7c-1-5.5-2.1-10.1-3.1-14.1c-4.2-16.3-7.8-21-7.8-21s-36.1,8.5-80.3,13.6&#10;&#9;&#9;&#9;&#9;c-18.1,2.1-37.5,3.5-56.4,3.6c1-23.1,1.5-39,1.2-44.2c-1.4-22.9-11.4-88.1-10.9-109.5C155.1,474.1,145.4,600.5,148.6,619.9z" transform="matrix(0.5381771326065063, 0, 0, 0.5381771326065063, 887.5357465881852, 234.2205470816973)"/><path id="XMLID_209_" fill="#EFEFF0" d="M148.6,619.9c3,17.6,13.5,25.1,42.9,25.5c3,0,6.1,0,9.5-0.1c3.3-0.1,7.1-0.3,11.1-0.6&#10;&#9;&#9;&#9;&#9;c40.1-3.2,109.8-16.7,129.2-24.7c-1-5.5-2.1-10.1-3.1-14.1c-4,0.8-116,22.5-150.2,18.1c5.7-21.9,5.7-21.9,5.7-21.9&#10;&#9;&#9;&#9;&#9;c1-23.1,1.5-39,1.2-44.2c-1.4-22.9-11.4-88.1-10.9-109.5C155.1,474.1,145.4,600.5,148.6,619.9z" transform="matrix(0.5381771326065063, 0, 0, 0.5381771326065063, 887.5357465881852, 234.2205470816973)"/><path id="XMLID_234_" fill="#003050" d="M271.2,520.1c-2.5,0-4.7-1.7-5.2-4.2c-5.5-27.6-20.1-41-44.5-41&#10;&#9;&#9;&#9;&#9;&#9;c-24.5,0-39,13.4-44.5,41c-0.6,2.9-3.3,4.7-6.2,4.1c-2.9-0.6-4.7-3.3-4.1-6.2c6.5-32.3,25.4-49.4,54.9-49.4s48.4,17.1,54.9,49.4&#10;&#9;&#9;&#9;&#9;&#9;c0.6,2.9-1.3,5.6-4.1,6.2C271.9,520.1,271.6,520.1,271.2,520.1z" transform="matrix(0.5381771326065063, 0, 0, 0.5381771326065063, 887.5357465881852, 234.2205470816973)"/><path id="XMLID_236_" fill="#BCBEC0" d="M209,632.2l-4.4-0.7c-16.5-2.8-29.6-17.3-33.3-37.1c-4.2-22.2-8.1-54.1-2.9-80.3&#10;&#9;&#9;&#9;&#9;&#9;l6.9,1.4c-5,25.1-1.2,56,2.9,77.6c3.1,16.5,14.2,29.2,27.6,31.4l4.4,0.7L209,632.2z" transform="matrix(0.5381771326065063, 0, 0, 0.5381771326065063, 887.5357465881852, 234.2205470816973)"/><path id="XMLID_230_" fill="#003050" d="M215.1,635.2l-12.9-2.2c-0.9-0.2-1.5-1-1.3-1.9l1.3-7.4c0.2-0.9,1-1.5,1.9-1.3l12.9,2.2&#10;&#9;&#9;&#9;&#9;&#9;c0.9,0.2,1.5,1,1.3,1.9l-1.3,7.4C216.8,634.7,216,635.3,215.1,635.2z" transform="matrix(0.5381771326065063, 0, 0, 0.5381771326065063, 887.5357465881852, 234.2205470816973)"/><path id="XMLID_322_" fill="#EEB78F" d="M167.8,596.5l23.9,0.3l2.1,3l1.6,2.2c6.7-0.1,13.4-0.3,20.2-0.7c-4-1.4-7.9-3.2-11.5-5.6&#10;&#9;&#9;&#9;&#9;c-3.1-2.3-6.5-3.7-9.9-4.3c-8.2-1.4-17.2,1.1-26.4,3.2L167.8,596.5z" transform="matrix(0.5381771326065063, 0, 0, 0.5381771326065063, 887.5357465881852, 234.2205470816973)"/><path id="XMLID_320_" fill="#F0CDB6" d="M180.1,572.6l-16.7,5.2l0.2,5.5l15.2-1.2l11.9,3.4l0,0.9l-22.8,4.7l0,3.6&#10;&#9;&#9;&#9;&#9;c9.2-2.1,18.2-4.6,26.4-3.2c3.5,0.6,6.8,1.9,9.9,4.3c3.6,2.4,7.5,4.2,11.5,5.6c8.7-0.5,17.4-1.2,25.8-2c-2.8-1-5.6-2-8.4-3.2&#10;&#9;&#9;&#9;&#9;l-14.8-26l-5.9-9.6l-16-8.1l-1.9-0.5l-17.1-4.5l-2,5.1l11.6,6l4.1,4.1v0.2l-10.7-3l-19.1-0.6l-1.8,5.2l20,4.7l9.2,3.9&#10;&#9;&#9;&#9;&#9;L180.1,572.6z" transform="matrix(0.5381771326065063, 0, 0, 0.5381771326065063, 887.5357465881852, 234.2205470816973)"/>
</svg>