<?xml version="1.0"?>
<svg xmlns="http://www.w3.org/2000/svg" xmlns:xlink="http://www.w3.org/1999/xlink" version="1.1" id="Layer_1" x="0px" y="0px" viewBox="0 0 512 512" style="enable-background:new 0 0 512 512;" xml:space="preserve" width="512px" height="512px" class=""><g><path style="fill:#FC7F59" d="M352.183,368.614l-83.467,83.467c-57.656,57.656-151.136,57.656-208.794-0.002  C2.267,394.424,2.265,300.941,59.921,243.286l83.467-83.467L352.183,368.614z" data-original="#F4B2B0" class="active-path" data-old_color="#F4B2B0"/><g>
	<path style="fill:#000000" d="M164.32,511.064c-43.641,0-84.668-16.994-115.527-47.853   C-14.91,399.507-14.91,295.857,48.79,232.156l83.469-83.467c6.146-6.145,16.113-6.145,22.259,0l208.795,208.795   c2.951,2.951,4.61,6.955,4.61,11.129s-1.659,8.178-4.61,11.129l-83.467,83.467C248.986,494.068,207.96,511.064,164.32,511.064z    M143.388,182.079L71.05,254.417c-51.426,51.426-51.426,135.106,0.002,186.535c24.913,24.913,58.037,38.633,93.268,38.633   s68.354-13.72,93.265-38.633l72.338-72.336L143.388,182.079z" data-original="#B3404A" class="" data-old_color="#B3404A"/>
	<path style="fill:#000000" d="M163.382,512C163.38,512,163.385,512,163.382,512c-43.641,0-84.668-16.994-115.527-47.853   C16.997,433.289,0.002,392.261,0.002,348.62s16.992-84.668,47.85-115.526L233.17,47.776c63.7-63.701,167.35-63.701,231.053,0   c63.701,63.703,63.701,167.353,0,231.054l-47.014,47.014c-6.146,6.146-16.114,6.146-22.259,0c-6.146-6.146-6.146-16.113,0-22.259   l47.013-47.014c24.913-24.913,38.633-58.035,38.633-93.267s-13.72-68.354-38.633-93.267c-51.428-51.428-135.106-51.428-186.536,0   L70.107,255.356c-51.426,51.428-51.426,135.106,0.002,186.535c51.428,51.428,135.109,51.428,186.533,0   c6.146-6.146,16.113-6.146,22.261,0c6.146,6.146,6.146,16.113,0,22.261C248.052,495.004,207.02,512,163.382,512z" data-original="#B3404A" class="" data-old_color="#B3404A"/>
	<path style="fill:#000000" d="M122.102,306.42c-4.028,0-8.057-1.536-11.129-4.61c-6.146-6.146-6.146-16.113,0-22.261   l168.656-168.656c6.146-6.146,16.113-6.146,22.261,0c6.148,6.146,6.146,16.113,0,22.261L133.231,301.81   C130.157,304.884,126.129,306.42,122.102,306.42z" data-original="#B3404A" class="" data-old_color="#B3404A"/>
</g></g> </svg>
