<?xml version="1.0" encoding="utf-8"?>
<svg id="master-artboard" viewBox="0 0 1400 1400" version="1.1" xmlns="http://www.w3.org/2000/svg" x="0px" y="0px" style="enable-background:new 0 0 1400 1400;" width="1400px" height="1400px"><rect id="ee-background" x="0" y="0" width="1400" height="1400" style="fill: white; fill-opacity: 0; pointer-events: none;"/>
<metadata><!--?xpacket begin="﻿" id="W5M0MpCehiHzreSzNTczkc9d"?-->

                                                                                                    
                                                                                                    
                                                                                                    
                                                                                                    
                                                                                                    
                                                                                                    
                                                                                                    
                                                                                                    
                                                                                                    
                                                                                                    
                                                                                                    
                                                                                                    
                                                                                                    
                                                                                                    
                                                                                                    
                                                                                                    
                                                                                                    
                                                                                                    
                                                                                                    
                                                                                                    
                           
<!--?xpacket end="w"?-->
	</metadata>
<g transform="matrix(0.6388295292854309, 0, 0, 0.6388295292854309, 646.2238105717995, 300.6973620781142)">
				<g>
					<path d="M 435.299995 1285.599976 A 83.400002 12.4 0 0 1 351.899994 1297.999975 A 83.400002 12.4 0 0 1 268.499992 1285.599976 A 83.400002 12.4 0 0 1 351.899994 1273.199976 A 83.400002 12.4 0 0 1 435.299995 1285.599976 Z" style="fill:#AEC4C2;"/>
				</g>
				<g>
					<g>
						<path style="fill:#F5843F;" d="M490.1,839.5c-4.8,3.9-11.5,7.1-16.2,11c-1.8-2.8-3.3-5.8-4.5-8.9c5.9-3,10.1-8.9,11-15.5&#10;&#9;&#9;&#9;&#9;&#9;&#9;&#9;c0.2-1.5,0.3-3.1,1-4.3c0.9-1.4,4.1-3.7,5.6-4.4c6.6-3.1,8.5-3,15.3-1c0.2,0.1,4.4,1.6,4.5,1.8c0.1,0.3-0.4,1.3-0.7,1.4&#10;&#9;&#9;&#9;&#9;&#9;&#9;&#9;c-2.6,1-5.3,0.5-8,0.7c-1.3,0.1-2.8,0-3.8,0.9c-0.5,0.5-0.7,1.2-0.9,1.9c-0.5,2,0.3,5.1,0.2,7.1c-0.1,1.8,1,3.4,0.3,5&#10;&#9;&#9;&#9;&#9;&#9;&#9;&#9;C493.1,837,491.6,838.3,490.1,839.5z"/>
					</g>
				</g>
				<g>
					<path style="fill:#1D1D1D;" d="M334.6,1281.1c0.1-1,0.3-2.1,1-2.8c0.7-0.7,1.7-0.8,2.7-0.8c3.2-0.3,6.4-0.5,9.6-0.8&#10;&#9;&#9;&#9;&#9;&#9;&#9;c1.6-0.1,3.3-0.3,4.9,0.3c1.9,0.7,3.2,2.3,4.9,3.4c2.6,1.7,5.8,2.2,8.9,2.6c3.1,0.4,6.3,0.9,8.9,2.6s4.3,5.2,3,8.1&#10;&#9;&#9;&#9;&#9;&#9;&#9;c-6.8,2.3-14.1,3.2-21.3,3.6c-4.1,0.3-8.3,0.4-12.4-0.2c-4.1-0.6-8.2-2-11.4-4.6C333.7,1288.8,334.1,1284.9,334.6,1281.1z"/>
				</g>
				<g>
					<path style="fill:#1D1D1D;" d="M287.2,1274.4c0.1-1,0.3-2.1,1-2.8c0.7-0.7,1.7-0.8,2.7-0.8c3.2-0.3,6.4-0.5,9.6-0.8&#10;&#9;&#9;&#9;&#9;&#9;&#9;c1.6-0.1,3.3-0.3,4.9,0.3c1.9,0.7,3.2,2.3,4.9,3.4c2.6,1.7,5.8,2.2,8.9,2.6c3.1,0.4,6.3,0.9,8.9,2.6s4.3,5.2,3,8.1&#10;&#9;&#9;&#9;&#9;&#9;&#9;c-6.8,2.3-14.1,3.2-21.3,3.6c-4.1,0.3-8.3,0.4-12.4-0.2c-4.1-0.6-8.2-2-11.4-4.6C286.4,1282.1,286.8,1278.2,287.2,1274.4z"/>
				</g>
				<g>
					<path style="fill:#F5843F;" d="M347,759.6c-2.8-6.1-6.9-9.8-10.7-15.3c-4.8-6.9-18.9-5-25.5-2.7c-7,2.5-13.2,7.9-15.9,14.9&#10;&#9;&#9;&#9;&#9;&#9;&#9;c-2.3,6-2.1,12.8-0.1,18.9c1.8,5.5,4.9,10.5,8.6,15c-0.2,12.9-1.4,25.7-3.6,38.4c9.1-1.3,24.8-0.3,33.9-1.6&#10;&#9;&#9;&#9;&#9;&#9;&#9;c-1.4-8.3-3.8-15.9-5.8-23.6c5.2,1.1,10.5,1.8,15.7,0.5c2.9-0.7,5.9-1.5,7.3-4.2c0.7-1.3,1-3.5,0.9-5&#10;&#9;&#9;&#9;&#9;&#9;&#9;c-0.6-11.5,0.4-23.1-4.8-28.2C345.4,765.2,347.9,761.6,347,759.6z"/>
				</g>
				<g>
					<path style="fill:#EE3253;" d="M325.3,1088.9c8.2,63.3,16.3,127.4,8,190.7c8.8,5.7,17.7,4.8,26.5,2.2&#10;&#9;&#9;&#9;&#9;&#9;&#9;c6.3-49.1,12.6-98.6,9.2-148c-1.6-22.8-5.2-45.4-8.9-68c-10.3,3.7-21.3,5.4-32.3,4.9L325.3,1088.9z"/>
				</g>
				<g>
					<path style="fill:#EE3253;" d="M279.7,1090.1c5.7,62.4,11.3,125.2,6.1,187.6c7,5.3,18.2,2.6,25.3-1.3&#10;&#9;&#9;&#9;&#9;&#9;&#9;c11.8-70.8,13.4-141.8,13-213.6c-12.5,1-25,0.9-37.5-0.4L279.7,1090.1z"/>
				</g>
				<g>
					<path style="fill:#F5843F;" d="M422.3,811.9c-1.1,0.3-2,1.2-2.8,2c-0.8,0.9-1.6,1.8-2.5,2.4c-1.2,0.7-2.6,1-4,1.2&#10;&#9;&#9;&#9;&#9;&#9;&#9;c0.2-0.5,0.3-1,0.5-1.5c0.6-2.2,0.9-4.5,2.3-6.3c1.5-2,4.1-2.9,6.6-3.6c0.8-0.2,1.7-0.4,2.4-0.9c0.7-0.5,1.2-1.3,1.1-2.2&#10;&#9;&#9;&#9;&#9;&#9;&#9;c-4.1,0.5-8.3,0.1-12.5,0.5c-4.1,0.4-8.5,2-10.7,5.5c-2.6,4-1.8,9.2-2.4,13.9c-0.5,3.7-2,7.2-4.2,10.1c2.1,1.7,4.3,3.4,6.4,5.3&#10;&#9;&#9;&#9;&#9;&#9;&#9;c1.7-2.2,5.7-7.6,6-8c1.6-2.5,3.8-4.5,6.4-5.9c1.6-0.9,3.3-1.5,4.6-2.8c1.3-1.3,2-3,2.7-4.7c0.8-1.6,1.8-3.3,3.5-4.1&#10;&#9;&#9;&#9;&#9;&#9;&#9;C424.9,811.8,423.5,811.5,422.3,811.9z"/>
				</g>
				<g>
					<path style="fill:#727374;" d="M397.6,821c-3.4,4.4-8.1,9-11.1,12.4c-9.9,11.6-20.6,20.2-34.5,30.2c-0.6,0.5-1.3,0.9-2.1,0.9&#10;&#9;&#9;&#9;&#9;&#9;&#9;c-1.1,0-2-0.9-2.7-1.7c-10.4-11.6-30.1-26-44-32.9c-4.1-2-8.4-3.9-13-3.7c-4.5,0.2-9.3,3-10.3,7.4c-0.7-0.5-1.5-0.8-2.4-0.8&#10;&#9;&#9;&#9;&#9;&#9;&#9;c-2.4,5.2-1.4,11.5,1.6,16.4c3,4.9,7.6,8.6,12.5,11.6c4.6,2.9,9.5,5.4,14.4,7.9c18.1,9.2,36.2,18.4,54.3,27.6&#10;&#9;&#9;&#9;&#9;&#9;&#9;c16.7-20.6,33.5-41.3,50.2-61.9C406.4,830,402.1,825.4,397.6,821z"/>
				</g>
				<g>
					<path style="fill:#A9593B;" d="M328,736.7c-12-1.5-24.5,2.9-33,11.5c-2.4,2.4-4.5,5.2-5.5,8.5c-1.2,3.9-0.6,8.2,0.4,12.2&#10;&#9;&#9;&#9;&#9;&#9;&#9;c1.3,5,3.2,9.8,5.2,14.6c1.5,3.6,2.9,7.2,4.4,10.8c0.5,1.1,1,2.3,2,2.9c1.7,1,3.9-0.1,5.6-1.2c3.9-2.5,7.8-5.1,10.8-8.7&#10;&#9;&#9;&#9;&#9;&#9;&#9;c3-3.6,4.9-8.3,4.1-12.8c-0.3-1.8-1-3.9,0.2-5.3c0.8-0.9,2-1.1,3.1-1.3c2.8-0.4,5.6-0.9,8.4-1.3c0.7-0.1,1.5-0.3,2-0.8&#10;&#9;&#9;&#9;&#9;&#9;&#9;c1.2-1.3,0-3.3-0.4-5.1c-0.5-2.5,1.1-4.9,2.7-6.9c1.7-2,3.5-4,3.8-6.5c0.3-2.9-1.5-5.5-3.6-7.5c-3.9-3.6-9.1-5.8-14.5-6.1&#10;&#9;&#9;&#9;&#9;&#9;&#9;L328,736.7z"/>
				</g>
				<g>
					<path style="fill:#E0E2E2;" d="M294,830.4c11.8-9.1,25.9-15.3,40.7-17.9c-12.2-6.9-28-6.9-40.3,0&#10;&#9;&#9;&#9;&#9;&#9;&#9;C293.8,818.5,293.7,824.4,294,830.4z"/>
				</g>
				<g>
					<path style="fill:#D3D3D3;" d="M365.9,832.5c-0.5-6.2-1.4-13-5.9-17.4c-4-3.8-9.9-4.8-15.4-5.1c-21.4-1.2-43,4.6-61,16.2&#10;&#9;&#9;&#9;&#9;&#9;&#9;c-2.5,1.6-5,3.5-6.5,6c-1.7,2.9-1.9,6.3-2.1,9.7c-5.5,96.5,0.2,193.7-9.9,289.8c9.7,3.1,20.3,5.1,31.4,6.1l3.5-61.5l8.3,62.2&#10;&#9;&#9;&#9;&#9;&#9;&#9;c27.4,0.8,56.4-4,79.4-12.5C380.6,1027.3,374.4,931.2,365.9,832.5z"/>
				</g>
				<g>
					<path style="fill:#E0E2E2;" d="M356.8,813.9c-4.4-2.4-10.1,0.4-13.2,4.5c-3.2,4.3-4.7,9.9-3.9,15.2c0.7,4.7,2.4,9.4,5.4,13&#10;&#9;&#9;&#9;&#9;&#9;&#9;c22,26.3,33.9,40,62.1,61.3c30.1-17.3,52.5-35,78.2-58.2c-3.4-5.2-6.9-10.5-10.3-15.7c-24.4,16.6-40.1,28-68.2,37.3&#10;&#9;&#9;&#9;&#9;&#9;&#9;c-17.7-22.4-27.2-33.6-46.7-54.4C359.2,815.7,358.1,814.6,356.8,813.9z"/>
				</g>
				<g>
					<path style="fill:#FFFFFF;" d="M384.6,1100.2c-0.3,0-0.5-0.2-0.5-0.5l-24-229.3c0-0.3,0.2-0.5,0.5-0.6c0.3,0,0.5,0.2,0.6,0.5&#10;&#9;&#9;&#9;&#9;&#9;&#9;l24,229.3C385.1,1099.9,384.9,1100.1,384.6,1100.2C384.6,1100.2,384.6,1100.2,384.6,1100.2z"/>
				</g>
				<g>
					<path style="fill:#FFFFFF;" d="M297.2,1067.9c-0.3,0-0.5-0.2-0.5-0.5l-0.5-14.9c0-0.3,0.2-0.5,0.5-0.5c0.3,0,0.5,0.2,0.5,0.5&#10;&#9;&#9;&#9;&#9;&#9;&#9;l0.5,14.9C297.7,1067.6,297.5,1067.9,297.2,1067.9C297.2,1067.9,297.2,1067.9,297.2,1067.9z"/>
				</g>
				<g>
					<path style="fill:#FFFFFF;" d="M281.4,832.6c-0.2,0-0.4-0.1-0.5-0.3c-0.1-0.3,0-0.6,0.2-0.7c19.7-10.2,41.8-15.6,64-15.6&#10;&#9;&#9;&#9;&#9;&#9;&#9;c0.3,0,0.6,0,0.9,0c0.3,0,0.5,0.2,0.5,0.5c0,0.3-0.2,0.5-0.5,0.5c-22.3-0.2-44.6,5.2-64.4,15.5&#10;&#9;&#9;&#9;&#9;&#9;&#9;C281.5,832.6,281.4,832.6,281.4,832.6z"/>
				</g>
				<g>
					<path style="fill:#FFFFFF;" d="M478.8,856.9c-0.2,0-0.3-0.1-0.4-0.2l-10.8-15c-0.2-0.2-0.1-0.6,0.1-0.7&#10;&#9;&#9;&#9;&#9;&#9;&#9;c0.2-0.2,0.6-0.1,0.7,0.1l10.8,15c0.2,0.2,0.1,0.6-0.1,0.7C479,856.8,478.9,856.9,478.8,856.9z"/>
				</g>
				<g>
					<path style="fill:#FFFFFF;" d="M299.3,1031.9c-0.2,0-0.5-0.2-0.5-0.4c-10.4-68.2-10.2-137.3,0.8-205.3c0-0.3,0.3-0.5,0.6-0.4&#10;&#9;&#9;&#9;&#9;&#9;&#9;c0.3,0,0.5,0.3,0.4,0.6c-11,68-11.2,137-0.8,205C299.8,1031.6,299.6,1031.9,299.3,1031.9&#10;&#9;&#9;&#9;&#9;&#9;&#9;C299.3,1031.9,299.3,1031.9,299.3,1031.9z"/>
				</g>
			</g><g transform="matrix(0.6505202651023865, 0, 0, 0.6505202651023865, 572.3652290288308, 291.38345826952036)">
				<path d="M 788.900002 1285.599976 A 83.400002 12.4 0 0 1 705.5 1297.999975 A 83.400002 12.4 0 0 1 622.099998 1285.599976 A 83.400002 12.4 0 0 1 705.5 1273.199976 A 83.400002 12.4 0 0 1 788.900002 1285.599976 Z" style="fill:#AEC4C2;"/>
			</g><path style="fill:#5656A3;" d="M711.2,1278.5c0.2,1.6,0.6,3.3,1.8,4.3c1.5,1.2,3.7,0.9,5.6,1c3.7,0.1,7.1,1.8,10.7,2.9&#10;&#9;&#9;&#9;&#9;&#9;c6.9,2.2,14.6,2,21.3-0.8c1.8-0.8,3.8-2.1,3.7-4.1c-0.1-1.1-0.9-2.1-1.8-2.7s-2.1-0.8-3.2-1.1c-3.4-0.8-6.9-1.6-10.1-3&#10;&#9;&#9;&#9;&#9;&#9;c-3.2-1.4-6.2-3.6-8.1-6.6c-0.9-1.4-1.6-3-3-3.8c-1.2-0.7-2.7-0.5-4.1-0.4c-2.7,0.3-5.4,0.6-8.1,0.9c-1.1,0.1-2.3,0.3-3.2,1&#10;&#9;&#9;&#9;&#9;&#9;c-1.2,1-1.5,2.7-1.6,4.3C710.8,1273.2,710.9,1275.8,711.2,1278.5z" transform="matrix(0.6505202651023865, 0, 0, 0.6505202651023865, 572.3652290288308, 291.38345826952036)"/><path style="fill:#5656A3;" d="M649.3,1252.3c-0.8,1.4-1.5,3-1,4.6c0.5,1.9,2.4,2.9,4,4c2.9,2.3,4.8,5.6,7,8.6&#10;&#9;&#9;&#9;&#9;&#9;c4.4,5.8,10.7,10.1,17.8,11.7c1.9,0.4,4.3,0.5,5.4-1.2c0.6-1,0.5-2.2,0.1-3.3c-0.5-1-1.2-1.9-2-2.7c-2.4-2.6-4.7-5.3-6.5-8.3&#10;&#9;&#9;&#9;&#9;&#9;c-1.8-3-3-6.5-2.8-10c0.1-1.6,0.5-3.4-0.3-4.9c-0.6-1.3-1.9-2-3.1-2.7c-2.4-1.3-4.8-2.7-7.1-4c-1-0.5-2-1.1-3.1-1.1&#10;&#9;&#9;&#9;&#9;&#9;c-1.6,0.1-2.8,1.4-3.8,2.6C652.1,1247.8,650.6,1250,649.3,1252.3z" transform="matrix(0.6505202651023865, 0, 0, 0.6505202651023865, 572.3652290288308, 291.38345826952036)"/><path style="fill:#F5843F;" d="M712.5,1268.5c5.8,3.7,9.1,3.9,16.4-0.7c-0.2-7.1-0.3-14.2-0.5-21.3c-5.7,0.6-11.4,0.6-17.1-0.1&#10;&#9;&#9;&#9;&#9;&#9;C712,1253.4,712.7,1261.3,712.5,1268.5z" transform="matrix(0.6505202651023865, 0, 0, 0.6505202651023865, 572.3652290288308, 291.38345826952036)"/><path style="fill:#F5843F;" d="M670,1253.7c2.8-7.2,5.5-14.4,8.3-21.5c-5.1-1-10-3.4-13.9-6.8c-3.2,6.7-5.9,13.6-8.3,20.6&#10;&#9;&#9;&#9;&#9;&#9;C658.8,1252.4,664.3,1255.6,670,1253.7z" transform="matrix(0.6505202651023865, 0, 0, 0.6505202651023865, 572.3652290288308, 291.38345826952036)"/><path style="fill:#E27130;" d="M706.3,814.8c-0.1-13.9-0.3-27.9-0.4-41.8c5.8-0.5,11.7-0.9,17.5-1.4c2.8,14,8.3,27.6,16.2,40.3&#10;&#9;&#9;&#9;&#9;&#9;C728.4,812,717.2,813,706.3,814.8z" transform="matrix(0.6505202651023865, 0, 0, 0.6505202651023865, 572.3652290288308, 291.38345826952036)"/><path style="fill:#F5843F;" d="M741.5,753.6c-1.4-3,0.1-3.4,0.2-6.7c0.1-4.2-1.5-10.8-5-14.5c-0.7-0.8,0-1.4-0.9-1.8&#10;&#9;&#9;&#9;&#9;&#9;c-7.8-3-17-2.7-24.4,1.3c-6.8,3.7-12,10.5-13.2,18.2c-1.2,7.7,1.8,16,7.9,20.7l0,0.1c0.8,4.3,4,7.7,8.3,8.8&#10;&#9;&#9;&#9;&#9;&#9;c5.8,1.5,11.7,2.6,17.6,3.5c3.2,0.4,7-0.6,9.2-2.9c1.6-1.7,1.5-5.4,1.7-7.7C743.5,765.3,744.4,760.2,741.5,753.6z" transform="matrix(0.6505202651023865, 0, 0, 0.6505202651023865, 572.3652290288308, 291.38345826952036)"/><g transform="matrix(0.6505202651023865, 0, 0, 0.6505202651023865, 442.1700996342995, 291.38345826952036)">
					<path style="fill:#B14D9B;" d="M889.3,820.7c-4.8,3.9-9.5,7.9-14.3,11.8c-1.8-2.8-3.3-5.8-4.5-8.9c5.9-3,10.1-8.9,11-15.5&#10;&#9;&#9;&#9;&#9;&#9;&#9;c0.2-1.5,0.3-3.1,1-4.3c0.9-1.4,2.5-2.3,4.1-2.9c6.6-2.5,14-2.9,20.8-1.1c0.2,0.1,0.4,0.1,0.5,0.3c0.1,0.3-0.3,0.6-0.6,0.7&#10;&#9;&#9;&#9;&#9;&#9;&#9;c-2.6,1-5.4,1.4-8.1,1.4c-1.3,0-2.9-0.1-3.8,0.9c-0.5,0.5-0.7,1.2-0.9,1.9c-0.5,2-0.8,4-0.9,6.1c-0.1,1.8,0,3.6-0.7,5.3&#10;&#9;&#9;&#9;&#9;&#9;&#9;C892.3,818.2,890.8,819.5,889.3,820.7z"/>
				</g><path style="fill:#B14D9B;" d="M905.2,806.7c0.5,0.3,1,0.8,0.9,1.4c-0.2,0.6-1.1,0.6-1.8,0.4c-4.2-1.2-8.4-2.3-12.7-3.5&#10;&#9;&#9;&#9;&#9;&#9;&#9;c0.8-0.3,1.3-1.1,1.8-1.8c0.5-0.7,1.1-1.5,2-1.6c0.5,0,1,0.2,1.5,0.4C899.7,803.4,902.5,805,905.2,806.7z" transform="matrix(0.6505202651023865, 0, 0, 0.6505202651023865, 442.1700996342995, 291.38345826952036)"/><path style="fill:#B14D9B;" d="M901.3,812.9c0.5-0.3,1.3-0.7,1.3-1.3c0.1-0.6-0.6-1.1-1.2-1.3c-1.2-0.2-2.3,0.3-3.3,1&#10;&#9;&#9;&#9;&#9;&#9;&#9;s-1.8,1.6-2.9,2c-1.7,0.7-3.6,0.4-5.3,0.7c-2.3,0.3-4.4,1.6-5.7,3.5c-1.3,1.9-1.8,4.3-1.3,6.5c4-3.8,11.3-2.6,14.9-6.8&#10;&#9;&#9;&#9;&#9;&#9;&#9;C899,815.9,899.7,813.9,901.3,812.9z" transform="matrix(0.6505202651023865, 0, 0, 0.6505202651023865, 442.1700996342995, 291.38345826952036)"/><path style="fill:#D3D3D3;" d="M741.9,814.9c0.7-2.9,2.1-5.9,4.8-7.1c2.7-1.2,5.8-0.3,8.4,1c5.8,2.7,10.7,7.1,16,10.7&#10;&#9;&#9;&#9;&#9;&#9;c15.2,10.6,34,16.1,52.6,15.3s36.8-7.9,51-19.9c3.2,6.2,6.4,12.5,9.6,18.7c-16.5,10.1-34.1,18.6-52.9,23.2&#10;&#9;&#9;&#9;&#9;&#9;c-18.8,4.6-38.8,5-57.2-0.7c-9.2-2.9-18-7.4-24.5-14.5C743.3,834.4,739.7,824.3,741.9,814.9z" transform="matrix(0.6505202651023865, 0, 0, 0.6505202651023865, 572.3652290288308, 291.38345826952036)"/><path style="fill:#727374;" d="M757,810.9c8.3,11.3,10.1,26.2,11.8,40.3c8.8,72.9,21.6,145.2,38.4,216.5&#10;&#9;&#9;&#9;&#9;&#9;c-19.5,7.6-39.6,13.6-60.1,17.8c-7.4-84.6-14.9-169.2-22.3-253.8c-0.5-5.4-1-10.9,0.1-16.3c1-5.3,3.9-10.6,8.5-13.1&#10;&#9;&#9;&#9;&#9;&#9;C741.4,798,751.5,803.4,757,810.9z" transform="matrix(0.6505202651023865, 0, 0, 0.6505202651023865, 572.3652290288308, 291.38345826952036)"/><path style="fill:#EE3253;" d="M774.2,850.2c1.9,9.2-2.7,24.7-4.4,34c-6.3,35.5,2.5,75.3,10.5,110.4&#10;&#9;&#9;&#9;&#9;&#9;c-14.2,6.6-28.3,13.2-42.5,19.8c-17.9-68.2-5.3-141.1-18.7-210.4c9.7-2.4,9.7-3,17.2,3.7c7.5,6.7,14.7,16.5,25,23.9&#10;&#9;&#9;&#9;&#9;&#9;C768.2,836.6,772.2,840.1,774.2,850.2z" transform="matrix(0.6505202651023865, 0, 0, 0.6505202651023865, 572.3652290288308, 291.38345826952036)"/><path style="fill:#1D1D1D;" d="M724.4,1019.9c4.9,23.9,9.8,49.4,1.9,72.4c-5.3,15.3-15.7,27.8-24.8,40.9&#10;&#9;&#9;&#9;&#9;&#9;c-19.2,27.7-33.1,59.7-40.5,93.3c3.8,11.2,11.4,11.3,18.3,11.9c13.4-34.9,32.6-67.1,56.6-94.6c11.6-13.3,24.6-25.9,31.7-42.5&#10;&#9;&#9;&#9;&#9;&#9;c6.5-15,7.5-32.1,7.3-48.6c-0.3-16.6-3.9-42.1-2.1-58.5c-14.8,3.3-31.3,6.1-43,12.9L724.4,1019.9z" transform="matrix(0.6505202651023865, 0, 0, 0.6505202651023865, 572.3652290288308, 291.38345826952036)"/><path style="fill:#1D1D1D;" d="M704,1030c6.6,22.3,3.4,46.4,1.3,69.7c-4.4,49.2-3.4,98.9,3.2,147.8c7.7,7,16.5,5.5,25.6,2.7&#10;&#9;&#9;&#9;&#9;&#9;c-4.6-25.3-2.6-51.4,0.3-77c2.7-23.8,6.2-47.4,9.6-71c4-27.2,8-54.4,11.9-81.6c-14.8,1.3-29.7,0.1-44.2-3.7L704,1030z" transform="matrix(0.6505202651023865, 0, 0, 0.6505202651023865, 572.3652290288308, 291.38345826952036)"/><path style="fill:#D3D3D3;" d="M746.1,821.5c-1.4-8.8-6.4-19.9-14.9-23.1c-8.8-3.3-19.5,0.3-27.6,4.2&#10;&#9;&#9;&#9;&#9;&#9;c-7.9,3.8-13.3,6.2-16.2,15.6c-4.4,14,1.2,35.5,5.7,49.4c4.6,13.9,10.2,28,9.9,43.1c-0.3,14.6-6.2,27.9-11,41.1&#10;&#9;&#9;&#9;&#9;&#9;c-13,35.7-11,82.1-9.6,121.5l89,1.5c-2.5-29.3-5.9-69.6-8.3-99C758.6,924.2,754.4,872.3,746.1,821.5z" transform="matrix(0.6505202651023865, 0, 0, 0.6505202651023865, 574.1579536382058, 291.38345826952036)"/><path style="fill:#3C415A;" d="M860,859l-132.5,50.5l-3.1-8.2c-1.2-3.2,0.4-6.7,3.5-7.9l120.9-46.1c3.3-1.2,6.9,0.4,8.2,3.7&#10;&#9;&#9;&#9;&#9;&#9;L860,859z" transform="matrix(0.6505202651023865, 0, 0, 0.6505202651023865, 572.3652290288308, 291.38345826952036)"/><path style="fill:#B14D9B;" d="M786.9,899.7c6.3-4.1,15-3.5,20.5-8.5c1.3-1.2,4.3-6,5.5-7.4c3.6-4.2,6.5-7.2,11.4-9.8&#10;&#9;&#9;&#9;&#9;&#9;c1-0.5,2-1.2,2.1-2.3c-3.6,0.2-7.2,1.2-10.7,2.2c-3.6,1-7.2,2.2-10.4,4.2c-1.5,0.9-2.8,2-4.4,2.7c-0.8,0.3-1.6,0.6-2.3,1&#10;&#9;&#9;&#9;&#9;&#9;c-2.5,1.5-3.3,4.9-5.5,6.8c-1.2,1.1-2.8,1.6-4.4,2.1c-2.6,0.8-5.2,1.7-7.8,2.5c0.6,2,1.3,6.8,2.7,8.3L786.9,899.7z" transform="matrix(0.6505202651023865, 0, 0, 0.6505202651023865, 572.3652290288308, 291.38345826952036)"/><path style="fill:#E0E2E2;" d="M711.4,904.1c7.7-36.1,12.1-48.3,15.6-75.5c1.3-9.5-3.3-20.7-11.6-24.4c-6.8-3.1-15,0.6-19.8,6.6&#10;&#9;&#9;&#9;&#9;&#9;c-4.8,6.1-6.8,14-8.3,21.8c-6.3,32.9-5.2,66.7-4.1,100.3c0.1,1.8,0.2,3.7,1.2,5.1c1.7,2.3,4.9,2.3,7.6,2&#10;&#9;&#9;&#9;&#9;&#9;c36.4-4.1,72.1-15.1,105-32.3c-1.6-6.6-3.3-13.2-4.9-19.8C765.6,895.4,738.6,900.8,711.4,904.1z" transform="matrix(0.6505202651023865, 0, 0, 0.6505202651023865, 572.3652290288308, 291.38345826952036)"/><path style="fill:#3C415A;" d="M686.6,757.7c2.9,8.4,4.3,13.2,11.9,17.8c2.1,1.3,4.7,2.3,6.9,1.2c1.6-0.8,2.5-2.4,3.3-4&#10;&#9;&#9;&#9;&#9;&#9;c2.8-5.5,9.5-8.1,11.1-14c1-3.7,1.6-7.4,2.7-11.1c1.1-3.6,2.8-7.2,5.7-9.7c2.9-2.5,7.1-3.6,10.6-2.2c0.7-6.2-4.5-11.9-10.4-13.7&#10;&#9;&#9;&#9;&#9;&#9;c-6-1.8-12.4-0.7-18.4,0.9c-4.8,1.3-9.7,2.8-14,5.3c-4.3,2.6-8,6.3-9.9,10.9C683.7,745,684.6,751.7,686.6,757.7z" transform="matrix(0.6505202651023865, 0, 0, 0.6505202651023865, 572.3652290288308, 291.38345826952036)"/><path style="fill:#3C415A;" d="M695.6,729.4c2.1-3.9,0.3-9.1-3.3-11.7c-3.6-2.6-8.5-2.7-12.7-1.4c-4.2,1.4-7.8,4.1-11.2,7&#10;&#9;&#9;&#9;&#9;&#9;c-3.2,2.8-6.3,6-8.1,9.9s-2.3,8.6-0.2,12.4c1.6,2.9,4.3,5,6.6,7.4c2.3,2.4,4.2,5.8,3.2,9c-1.2,3.9-6.1,6.1-6.6,10.2&#10;&#9;&#9;&#9;&#9;&#9;c-0.3,2.5,1.4,4.9,3.5,6.3c2.1,1.4,4.7,1.9,7.2,2.3c-3.1-1-3.7-5.4-2.1-8.2c1.6-2.8,4.7-4.3,7.6-5.8s5.9-3.1,7.4-6&#10;&#9;&#9;&#9;&#9;&#9;c1.9-3.7,0.7-8.1,0.9-12.3c0.4-6.8,5.2-13.1,11.7-15.1c1.2-0.4,2.5-0.7,3.2-1.6c1.3-1.7,0.2-4.1-1.2-5.7&#10;&#9;&#9;&#9;&#9;&#9;c-1.4-1.6-3.2-3.1-3.4-5.2L695.6,729.4z" transform="matrix(0.6505202651023865, 0, 0, 0.6505202651023865, 572.3652290288308, 291.38345826952036)"/><path d="M 716.200012 1004.599976 H 756.700012 V 1013.899976 H 716.200012 V 1004.599976 Z" style="fill:#E0E2E2;" transform="matrix(0.6505202651023865, 0, 0, 0.6505202651023865, 572.3652290288308, 291.38345826952036)"/><path style="fill:#FFFFFF;" d="M876.1,837.3c-0.2,0-0.3-0.1-0.4-0.2l-8.2-12.9c-0.2-0.2-0.1-0.6,0.2-0.7&#10;&#9;&#9;&#9;&#9;&#9;c0.2-0.2,0.6-0.1,0.7,0.2l8.2,12.9c0.2,0.2,0.1,0.6-0.2,0.7C876.3,837.3,876.2,837.3,876.1,837.3z" transform="matrix(0.6505202651023865, 0, 0, 0.6505202651023865, 572.3652290288308, 291.38345826952036)"/><path style="fill:#FFFFFF;" d="M785.1,912.4c-0.2,0-0.4-0.1-0.5-0.3c-2.2-5.8-3.4-11.9-3.7-18.2c0-0.3,0.2-0.5,0.5-0.5&#10;&#9;&#9;&#9;&#9;&#9;c0.3,0,0.5,0.2,0.5,0.5c0.3,6.1,1.5,12.1,3.7,17.8c0.1,0.3,0,0.6-0.3,0.7C785.2,912.4,785.2,912.4,785.1,912.4z" transform="matrix(0.6505202651023865, 0, 0, 0.6505202651023865, 572.3652290288308, 291.38345826952036)"/><path style="fill:#FFFFFF;" d="M885.3,827.1c-0.2,0-0.3-0.1-0.4-0.2l-4.5-6.8c-0.2-0.2-0.1-0.6,0.1-0.7c0.2-0.2,0.6-0.1,0.7,0.1&#10;&#9;&#9;&#9;&#9;&#9;l4.5,6.8c0.2,0.2,0.1,0.6-0.1,0.7C885.5,827.1,885.4,827.1,885.3,827.1z" transform="matrix(0.6505202651023865, 0, 0, 0.6505202651023865, 442.1700996342995, 291.38345826952036)"/><path style="fill:#FFFFFF;" d="M801.4,895c-0.2,0-0.3-0.1-0.4-0.2l-2.6-4.1c-0.2-0.2-0.1-0.6,0.2-0.7c0.2-0.2,0.6-0.1,0.7,0.2&#10;&#9;&#9;&#9;&#9;&#9;l2.6,4.1c0.2,0.2,0.1,0.6-0.2,0.7C801.6,895,801.5,895,801.4,895z" transform="matrix(0.6505202651023865, 0, 0, 0.6505202651023865, 572.3652290288308, 291.38345826952036)"/><path style="fill:#FFFFFF;" d="M738,884.5c-0.1,0-0.2,0-0.3-0.1c-0.2-0.2-0.3-0.5-0.2-0.7l8.1-12.8l-8.5,1.8&#10;&#9;&#9;&#9;&#9;&#9;c-0.2,0-0.3,0-0.4-0.1c-0.1-0.1-0.2-0.2-0.2-0.4c0.4-22.8,0.9-48.6-8.1-71.3c-0.1-0.3,0-0.6,0.3-0.7c0.3-0.1,0.6,0,0.7,0.3&#10;&#9;&#9;&#9;&#9;&#9;c8.9,22.7,8.6,48.3,8.1,71l9-2c0.2,0,0.4,0,0.5,0.2c0.1,0.2,0.1,0.4,0,0.6l-8.8,13.9C738.4,884.5,738.2,884.5,738,884.5z" transform="matrix(0.6505202651023865, 0, 0, 0.6505202651023865, 572.3652290288308, 291.38345826952036)"/><path style="fill:#FFFFFF;" d="M764,1058.1c-0.3,0-0.5-0.2-0.5-0.5c-1.1-42.1-6-84.3-14.8-125.5c-0.1-0.3,0.1-0.6,0.4-0.6&#10;&#9;&#9;&#9;&#9;&#9;c0.3-0.1,0.6,0.1,0.6,0.4c8.8,41.3,13.7,83.6,14.8,125.7C764.5,1057.9,764.3,1058.1,764,1058.1&#10;&#9;&#9;&#9;&#9;&#9;C764,1058.1,764,1058.1,764,1058.1z" transform="matrix(0.6505202651023865, 0, 0, 0.6505202651023865, 572.3652290288308, 291.38345826952036)"/><g transform="matrix(0.6505202651023865, 0, 0, 0.6505202651023865, 442.1700996342995, 291.38345826952036)">
				<path d="M 1110.099953 1285.599976 A 83.400002 12.4 0 0 1 1026.699951 1297.999975 A 83.400002 12.4 0 0 1 943.29995 1285.599976 A 83.400002 12.4 0 0 1 1026.699951 1273.199976 A 83.400002 12.4 0 0 1 1110.099953 1285.599976 Z" style="fill:#AEC4C2;"/>
			</g><path d="M 1295.400002 1285.599976 A 83.400002 12.4 0 0 1 1212 1297.999975 A 83.400002 12.4 0 0 1 1128.599998 1285.599976 A 83.400002 12.4 0 0 1 1212 1273.199976 A 83.400002 12.4 0 0 1 1295.400002 1285.599976 Z" style="fill:#AEC4C2;" transform="matrix(0.6505202651023865, 0, 0, 0.6505202651023865, 442.1700996342995, 291.38345826952036)"/><g transform="matrix(0.650520384311676, 0, 0, 0.650520384311676, 509.026972192893, 284.34573854295775)">
					<g>
						<path style="fill:#5656A3;" d="M1205.2,1247.4c3.2-3.3,7.8-4.8,12.2-6.2c3.4-1.1,7.2-2.2,10.4-0.8c3.1,1.3,4.8,4.5,6.4,7.4&#10;&#9;&#9;&#9;&#9;&#9;&#9;&#9;c1.3,2.4,2.7,5,2.5,7.8c-0.2,2.8-1.9,5.2-3.7,7.4c-9.1,10.8-22.3,18.1-36.3,20c-3.2,0.4-6.9,0.4-8.9-2.1&#10;&#9;&#9;&#9;&#9;&#9;&#9;&#9;c-2.1-2.6-1.2-6.6,0.8-9.2s4.8-4.6,6.9-7.2C1199.7,1259.4,1200.6,1252.1,1205.2,1247.4z"/>
					</g>
					<g>
						<path style="fill:#B14D9B;" d="M1109.8,1039.7c4.9,48.9,10.4,99.7,36.3,141.5c4.6,7.4,9.8,14.5,15.1,21.4&#10;&#9;&#9;&#9;&#9;&#9;&#9;&#9;c14.8,19.5,30.5,38.6,50.4,52.8c10.4-1.8,17.6-5.7,16.5-15.4c-13.8-18-27.6-36.1-38.9-55.8s-20.2-41-23.3-63.5&#10;&#9;&#9;&#9;&#9;&#9;&#9;&#9;c-2.9-21-0.7-42.4-2.3-63.6c-0.7-9.5-2.5-19.5-9.2-26.2c-7.6-7.6-19.8-8.8-30.3-6.3L1109.8,1039.7z"/>
					</g>
					<g>
						<g>
							<path style="fill:#5656A3;" d="M1010.1,1267.2c-5.2,1.2-8.8,2.2-15.6,3.7c-2.9,0.6-6.2,2.1-7.8,4.6c-1.6,2.5-2.1,5.7-1.1,8.4&#10;&#9;&#9;&#9;&#9;&#9;&#9;&#9;&#9;c1.6,3.9,6,5.8,10,7.1c13.2,4.3,27.2,6.5,41,4.7c2.9-0.4,7.5-1.2,9.3-3.5c1.2-1.5,1.2-6.9,0.8-10.7c-0.4-4.3-1-8.8-3.4-12.3&#10;&#9;&#9;&#9;&#9;&#9;&#9;&#9;&#9;c-3.5-5.1-10.1-7.2-16.3-7.1S1016.1,1265.8,1010.1,1267.2z"/>
						</g>
						<g>
							<path style="fill:#B14D9B;" d="M1084.5,1012.5c-4.1,7.8-7.9,15.8-11.6,23.7c-34.6,73.9-61,154-57.9,235.6&#10;&#9;&#9;&#9;&#9;&#9;&#9;&#9;&#9;c5.9,8.2,24.6,5.8,31.4,3.9c-0.7-9.6,1.9-51.2,3.7-60.7c10.2-54.1,21.2-71.6,49-106c12.1-14.9,13.4-31.4,24-47.4&#10;&#9;&#9;&#9;&#9;&#9;&#9;&#9;&#9;c6.5-9.8,12.8-20.3,13.8-32c0.5-5.9-0.4-12.2-3.9-17.1c-2.7-3.7-6.6-6.2-10.7-8.1c-6.7-3.2-14.1-5.1-21.5-5.5L1084.5,1012.5z&#10;&#9;&#9;&#9;&#9;&#9;&#9;&#9;&#9;"/>
						</g>
					</g>
					<g>
						<path style="fill:#E27130;" d="M1038.1,890.4c-1.9,2.4-3.8,4.7-5.7,7.1c-5.8-4.6-14.3-4.4-20.5-8.6c-5-3.4-7.7-9.2-10.1-14.7&#10;&#9;&#9;&#9;&#9;&#9;&#9;&#9;c5.7-2.5,11.5-5,17.2-7.4c4.5,8.3,10.8,15.5,18.5,20.9c0.6,0.4,1.2,0.9,1.2,1.6C1038.7,889.6,1038.4,890,1038.1,890.4z"/>
					</g>
					<g>
						<path style="fill:#5656A3;" d="M1023.9,880.9l-15.8,7.5c-0.7,0.3-1.6,0-2-0.7l-14.6-30.6c-0.3-0.7,0-1.6,0.7-2l15.8-7.5&#10;&#9;&#9;&#9;&#9;&#9;&#9;&#9;c0.7-0.3,1.6,0,2,0.7l14.6,30.6C1025,879.7,1024.7,880.6,1023.9,880.9z"/>
					</g>
					<g>
						<path style="fill:#E27130;" d="M1032.9,890.7c1.2-0.3,2.3-0.8,3.1-1.7s1.2-2.2,0.7-3.3c-0.5-1-1.5-1.6-2.4-2.2&#10;&#9;&#9;&#9;&#9;&#9;&#9;&#9;c-1.9-1.4-3.4-3.4-4.2-5.7c-0.7-2.2-0.8-4.7-2.4-6.3c-1-1-2.4-1.6-3.6-2.3c-3-1.8-5-5.2-5.2-8.7c-2,0.7-2.6,3.2-2.3,5.2&#10;&#9;&#9;&#9;&#9;&#9;&#9;&#9;c0.4,2,1.4,3.9,1.7,6c0.3,2.5-0.4,5-0.4,7.5c0,3.6,1.8,7.2,4.6,9.5C1025.5,890.8,1029.4,891.6,1032.9,890.7z"/>
					</g>
					<g>
						<path style="fill:#727374;" d="M1167.7,837.6c-0.1-5.9-1-12.1-4.6-16.8c-3.5-4.7-10.3-7.4-15.6-4.9c-5,2.4-7,8.2-8.8,13.5&#10;&#9;&#9;&#9;&#9;&#9;&#9;&#9;c-4.7,14.2-10.4,28-17.1,41.4c-2.5,5-5.3,10.2-9.9,13.4c-5.9,4.1-13.7,4.2-20.9,3.8c-18-1-37.5-2.8-54.8-7.8&#10;&#9;&#9;&#9;&#9;&#9;&#9;&#9;c-6.4,3.2-8,11.7-7.2,20.3c24.3,7.2,52.8,18.9,80.3,22.9c6.2,0.9,12.7,1.7,18.4-0.7c6.5-2.8,10.5-9.1,14.1-15.2&#10;&#9;&#9;&#9;&#9;&#9;&#9;&#9;C1154.8,886,1168,862.8,1167.7,837.6z"/>
					</g>
					<g>
						<path style="fill:#E27130;" d="M1129.8,788.3c5.9-9.2,4.6-18,0.7-28.3c-1.7-4.5-4.4-8.7-8.3-11.6c-4.8-3.6-11.1-4.9-17-4&#10;&#9;&#9;&#9;&#9;&#9;&#9;&#9;c-5.9,0.9-12.9,6.2-12.9,6.2c-3.2,2.2-5.3,5.9-6.2,9.7c-1.1,4.7-0.6,9.5-0.1,14.3c0.9,8.9,1.8,17.7,2.8,26.6&#10;&#9;&#9;&#9;&#9;&#9;&#9;&#9;c0.2,1.5,0.3,3,1.2,4.1c1.2,1.6,3.4,2,5.4,2.1c4.7,0.3,9.4-0.4,13.8-1.9c0.1,7.8-0.6,15.6-2.1,23.3&#10;&#9;&#9;&#9;&#9;&#9;&#9;&#9;c12.6-2.1,25.5-2.4,38.2-0.9C1138,816.4,1134.5,801,1129.8,788.3z"/>
					</g>
					<g>
						<path style="fill:#E0E2E2;" d="M1139,810.2c1.8,0.9,2.6,3.1,2.9,5.2c0.3,2,0.4,4.2,1.5,5.9c-13.1-1.3-26.3-1.7-39.4-1.1&#10;&#9;&#9;&#9;&#9;&#9;&#9;&#9;c3.9-4.1,9.1-6.8,14.5-8.3c5.4-1.5,11.1-2,16.8-2.2C1136.6,809.6,1137.9,809.6,1139,810.2z"/>
					</g>
					<g>
						<path style="fill:#D3D3D3;" d="M1074.4,951.5c-4.2,18.9-10.1,37.5-16,56c-10.3,32.6-20.7,65.2-31,97.8&#10;&#9;&#9;&#9;&#9;&#9;&#9;&#9;c34.6,4.1,59.5,40.9,94.3,42c12.2-33.9,20.2-69.4,23.6-105.4c0,33.5,0,67.2,6.5,100c12.6-8.9,27-15.3,42.1-18.5&#10;&#9;&#9;&#9;&#9;&#9;&#9;&#9;c-16-66.5-19.1-135.4-20.5-203.9c-0.7-34.5-1.2-69.6-11.4-102.5c-0.9-2.9-3.9-4.7-6.9-4.1c-23.2,4.5-47,5.6-70.4,3.4&#10;&#9;&#9;&#9;&#9;&#9;&#9;&#9;c-4.3-0.4-7.8,3.3-7.1,7.6C1084.8,866.1,1083.7,909.7,1074.4,951.5z"/>
					</g>
					<g>
						<path style="fill:#1D1D1D;" d="M999.3,1059.8c-1.2,0.3-2.2-1.1-1.9-2.3c0.3-1.2,1.3-2,2.2-2.7c1-0.7,2-1.5,2.3-2.7&#10;&#9;&#9;&#9;&#9;&#9;&#9;&#9;c0.5-1.6-0.6-3.2-1.6-4.5c-4.7-6.2-10.1-11.9-15.9-17c-0.5-0.5-1.2-1-1.9-0.9c-0.7,0.1-1.2,0.7-1.3,1.4&#10;&#9;&#9;&#9;&#9;&#9;&#9;&#9;c-0.2,0.7-0.1,1.4,0.1,2c0.3,1.9,0.6,3.8,0.9,5.8c0.1,0.5,0.1,1.2-0.3,1.5c-0.6,0.5-1.4-0.1-1.8-0.7c-0.4-0.6-0.7-1.4-1.4-1.7&#10;&#9;&#9;&#9;&#9;&#9;&#9;&#9;c0.2-2.6,0.5-5.3,0.7-7.9c0.1-1.6,0.4-3.4,1.7-4.3c1.1-0.8,2.7-0.7,4-0.1s2.2,1.6,3.2,2.6c5.8,6.1,11.6,12.1,17.4,18.2&#10;&#9;&#9;&#9;&#9;&#9;&#9;&#9;c0.7,0.8,1.5,1.6,2,2.5c0.5,1,0.6,2.1,0.2,3.1c-0.9,1.9-3.6,2-5.6,3C1000.5,1056,999.4,1057.9,999.3,1059.8z"/>
					</g>
					<g>
						<path style="fill:#F5843F;" d="M983.7,1025.7c-1.9,2.5-3.3,5.9-2.1,8.8c0.6,1.7,2,2.9,3.3,4.1c1.9,1.8,3.9,3.6,5.8,5.3&#10;&#9;&#9;&#9;&#9;&#9;&#9;&#9;c2.4,2.2,5.2,4.6,8.5,4.6c3.6,0,6.5-2.9,8.9-5.6c2.5-2.7,4.9-5.4,6.9-8.5c4.3-6.7,6.4-15.1,12.6-20.1c-3.1-2.7-6.1-5.3-9.2-8&#10;&#9;&#9;&#9;&#9;&#9;&#9;&#9;c-0.5-0.4-0.9-0.8-1.5-0.9c-1.7-0.4-2.8,1.7-3.7,3.3c-1.9,3.2-5.4,5-8.9,6.2c-3.5,1.1-7.2,1.7-10.6,3.1&#10;&#9;&#9;&#9;&#9;&#9;&#9;&#9;C989.8,1019.5,986.3,1022.2,983.7,1025.7z"/>
					</g>
					<g>
						<path style="fill:#E0E2E2;" d="M1093.6,821.1c-3.8-4.1-9.4-7.2-14.8-6c-5.1,1.1-8.9,5.5-10.7,10.4c-1.8,4.9-1.9,10.2-2,15.4&#10;&#9;&#9;&#9;&#9;&#9;&#9;&#9;c-0.9,30.4-4.6,61-13.9,90c-9.3,29-24.4,56.5-46.1,77.9c5.8,5.6,11.7,11.2,17.5,16.8c19.7-25.8,39.5-51.7,54.7-80.4&#10;&#9;&#9;&#9;&#9;&#9;&#9;&#9;c15.1-28.7,25.5-60.6,24.9-93.1C1102.9,841.1,1101,829.3,1093.6,821.1z"/>
					</g>
					<g>
						<path style="fill:#3C415A;" d="M1093,778c3,0.9,5.6,3,8.3,4.8c7.2,4.9,17.2,9.7,25.6,10.9c3.8-3.4,5.8-9,7.5-13.9&#10;&#9;&#9;&#9;&#9;&#9;&#9;&#9;c2.5-6.9,0.8-14.7-0.9-21.8c-0.8-3.5-1.7-7.1-3.9-9.9c-1.7-2.1-4-3.6-6.4-4.5c-6.6-2.5-13.8-1.4-20.6,0.2c-4,1-8,2.1-11.6,4.3&#10;&#9;&#9;&#9;&#9;&#9;&#9;&#9;c-3.6,2.2-6.6,5.6-7.8,9.8c-1.1,3.9-1.5,5.6,0.2,9.3c1.3,2.9,4.7,3.9,5.5,4.5C1090.5,772.7,1091.2,777.5,1093,778z"/>
					</g>
					<g>
						<path style="fill:#E27130;" d="M1097.4,781.9c-0.3-1.5-0.6-3.1-0.5-4.6c0.1-1.5,0.6-3.1,1.8-4.2c1.1-1,3-1.4,4.3-0.6&#10;&#9;&#9;&#9;&#9;&#9;&#9;&#9;c1.4,0.8,1.8,2.6,2.1,4.2c0.3,2.2,0.4,4.4,0.3,6.5c-0.1,2-0.5,4.2-2,5.7c-1.4,1.5-4.2,1.8-5.4,0.2&#10;&#9;&#9;&#9;&#9;&#9;&#9;&#9;C1097.2,787.9,1097.6,783.2,1097.4,781.9z"/>
					</g>
					<g>
						<path d="M 1054.5999755859375 1039.9000244140625 L 1052.5 1050.199951171875 L 1088.9000244140625 1066.699951171875 L 1095.0999755859375 1055.699951171875 Z" style="fill:#E0E2E2;"/>
					</g>
					<g>
						<path style="fill:#1D1D1D;" d="M1020.8,1080.8l-57.6-60c-20.1,12.1-35.7,28.1-46.9,48.2l58.9,75&#10;&#9;&#9;&#9;&#9;&#9;&#9;&#9;C994.6,1128.5,1009.6,1107.2,1020.8,1080.8z"/>
					</g>
				</g><path style="fill:#FFFFFF;" d="M1144.9,1000.9C1144.9,1000.9,1144.9,1000.9,1144.9,1000.9c-0.3,0-0.5-0.3-0.5-0.6&#10;&#9;&#9;&#9;&#9;&#9;c5.8-56.9,12.3-121.4-5.6-180c-0.1-0.3,0.1-0.6,0.3-0.6c0.3-0.1,0.6,0.1,0.6,0.3c18,58.9,11.4,123.5,5.7,180.4&#10;&#9;&#9;&#9;&#9;&#9;C1145.4,1000.7,1145.2,1000.9,1144.9,1000.9z" transform="matrix(0.6505202651023865, 0, 0, 0.6505202651023865, 442.1700996342995, 291.38345826952036)"/><path style="fill:#FFFFFF;" d="M1021.8,1018c-0.1,0-0.2,0-0.3-0.1c-4.1-3.6-7.5-8.1-9.8-13.1c-0.1-0.3,0-0.6,0.3-0.7&#10;&#9;&#9;&#9;&#9;&#9;c0.3-0.1,0.6,0,0.7,0.3c2.2,4.8,5.5,9.3,9.5,12.8c0.2,0.2,0.2,0.5,0,0.7C1022.1,1018,1021.9,1018,1021.8,1018z" transform="matrix(0.6505202651023865, 0, 0, 0.6505202651023865, 442.1700996342995, 291.38345826952036)"/><path style="fill:#FFFFFF;" d="M1016.3,878.5c-0.2,0-0.4-0.1-0.5-0.3c-3.5-8.9-7.6-17.7-12.3-26.1c-0.1-0.2,0-0.6,0.2-0.7&#10;&#9;&#9;&#9;&#9;&#9;c0.2-0.1,0.6,0,0.7,0.2c4.7,8.4,8.8,17.2,12.3,26.2c0.1,0.3,0,0.6-0.3,0.7C1016.5,878.5,1016.4,878.5,1016.3,878.5z" transform="matrix(0.6505202651023865, 0, 0, 0.6505202651023865, 442.1700996342995, 291.38345826952036)"/><path style="fill:#FFFFFF;" d="M1037,904c-0.2,0-0.5-0.2-0.5-0.4c-1.4-6.8-0.4-13.8,2.8-19.9c0.1-0.3,0.4-0.3,0.7-0.2&#10;&#9;&#9;&#9;&#9;&#9;c0.3,0.1,0.3,0.4,0.2,0.7c-3.1,5.8-4,12.8-2.7,19.3c0.1,0.3-0.1,0.6-0.4,0.6C1037.1,904,1037,904,1037,904z" transform="matrix(0.6505202651023865, 0, 0, 0.6505202651023865, 442.1700996342995, 291.38345826952036)"/><path style="fill:#FFFFFF;" d="M1095.7,1055.7c-0.1,0-0.1,0-0.2,0l-43.5-15.9c-0.3-0.1-0.4-0.4-0.3-0.7c0.1-0.3,0.4-0.4,0.7-0.3&#10;&#9;&#9;&#9;&#9;&#9;l43.5,15.9c0.3,0.1,0.4,0.4,0.3,0.7C1096.1,1055.6,1095.9,1055.7,1095.7,1055.7z" transform="matrix(0.6505202651023865, 0, 0, 0.6505202651023865, 442.1700996342995, 291.38345826952036)"/><path style="fill:#FFFFFF;" d="M996.4,1104.3c-0.1,0-0.3-0.1-0.4-0.2c-17.2-20.8-35.3-41.5-53.6-61.3c-0.2-0.2-0.2-0.5,0-0.7&#10;&#9;&#9;&#9;&#9;&#9;c0.2-0.2,0.5-0.2,0.7,0c18.4,19.9,36.4,40.5,53.7,61.4c0.2,0.2,0.2,0.5-0.1,0.7C996.6,1104.3,996.5,1104.3,996.4,1104.3z" transform="matrix(0.6505202651023865, 0, 0, 0.6505202651023865, 442.1700996342995, 291.38345826952036)"/><path style="fill:#FFFFFF;" d="M950.7,1057.5C950.7,1057.5,950.6,1057.5,950.7,1057.5c-0.2,0-0.3-0.1-0.4-0.2l-4.4-5.4&#10;&#9;&#9;&#9;&#9;&#9;c-0.2-0.2-0.1-0.5,0.1-0.7l5.4-4.4c0.2-0.2,0.5-0.1,0.7,0.1l4.4,5.4c0.1,0.1,0.1,0.2,0.1,0.4c0,0.1-0.1,0.3-0.2,0.3l-5.4,4.4&#10;&#9;&#9;&#9;&#9;&#9;C950.9,1057.4,950.8,1057.5,950.7,1057.5z M947,1051.6l3.7,4.6l4.6-3.7l-3.7-4.6L947,1051.6z" transform="matrix(0.6505202651023865, 0, 0, 0.6505202651023865, 442.1700996342995, 291.38345826952036)"/><path style="fill:#FFFFFF;" d="M990.3,1102.3C990.3,1102.3,990.3,1102.3,990.3,1102.3c-0.2,0-0.3-0.1-0.4-0.2l-4.8-5&#10;&#9;&#9;&#9;&#9;&#9;c-0.2-0.2-0.2-0.5,0-0.7l5-4.8c0.1-0.1,0.2-0.1,0.4-0.1c0.1,0,0.3,0.1,0.4,0.2l4.8,5c0.2,0.2,0.2,0.5,0,0.7l-5,4.8&#10;&#9;&#9;&#9;&#9;&#9;C990.6,1102.2,990.4,1102.3,990.3,1102.3z M986.3,1096.7l4.1,4.3l4.3-4.1l-4.1-4.3L986.3,1096.7z" transform="matrix(0.6505202651023865, 0, 0, 0.6505202651023865, 442.1700996342995, 291.38345826952036)"/><path style="fill:#FFFFFF;" d="M980.9,1132.1c-0.1,0-0.2,0-0.3-0.1c-0.2-0.1-0.3-0.5-0.2-0.7c9.6-16.8,20.4-33.1,32.2-48.4&#10;&#9;&#9;&#9;&#9;&#9;c0.2-0.2,0.5-0.3,0.7-0.1c0.2,0.2,0.3,0.5,0.1,0.7c-11.7,15.3-22.5,31.6-32.1,48.3C981.3,1132,981.1,1132.1,980.9,1132.1z" transform="matrix(0.6505202651023865, 0, 0, 0.6505202651023865, 442.1700996342995, 291.38345826952036)"/>
</svg>