<?xml version="1.0"?>
<svg xmlns="http://www.w3.org/2000/svg" height="512px" viewBox="0 0 64 64" width="512px" class=""><g><g id="Barcode-price-products"><path d="m16 21h32v40h-32z" fill="#ffc477" data-original="#FFC477" class="" data-old_color="#ffc477" style="fill:#497CA1"/><path d="m20 45h24v12h-24z" fill="#e0e0e2" data-original="#E0E0E2" class="" style="fill:#E0E0E2"/><path d="m48 13v8h-32v-8l13.88-8.68a4 4 0 0 1 4.24 0zm-13.66-3.87a2.964 2.964 0 0 0 -2.34-1.13 3.011 3.011 0 1 0 2.34 1.13z" fill="#ffdaaa" data-original="#FFDAAA" class=""/><circle cx="32" cy="33" fill="#ffda44" r="8" data-original="#FFDA44" class="active-path" data-old_color="#ffda44" style="fill:#8D8D8D"/><path d="m57 2h-13.6a5.036 5.036 0 0 0 -3.13 1.1l-2.73 2.19-2.89-1.81a5.014 5.014 0 0 0 -5.3 0l-13.88 8.67a1.012 1.012 0 0 0 -.47.85v48a1 1 0 0 0 1 1h32a1 1 0 0 0 1-1v-48a1.012 1.012 0 0 0 -.47-.85l-3.44-2.15h11.91a4 4 0 0 0 0-8zm-10 58h-30v-38h30zm0-46.45v6.45h-30v-6.45l13.41-8.38a3.034 3.034 0 0 1 3.18 0l2.3 1.44-1.5 1.2a3.988 3.988 0 1 0 1.61 3.19 3.885 3.885 0 0 0 -.36-1.63l2.05-1.64zm-14.38-1.77 1.35-1.08c.01.1.03.2.03.3a2 2 0 1 1 -2-2 1.886 1.886 0 0 1 .72.14l-1.34 1.08zm25.79-4.37a1.983 1.983 0 0 1 -1.41.59h-15.11l-2.55-1.59 2.19-1.75a2.964 2.964 0 0 1 1.87-.66h13.6a2.006 2.006 0 0 1 2 2 1.983 1.983 0 0 1 -.59 1.41z" data-original="#000000" class=""/><path d="m32 24a9 9 0 1 0 9 9 9.014 9.014 0 0 0 -9-9zm0 16a7 7 0 1 1 7-7 7.008 7.008 0 0 1 -7 7z" data-original="#000000" class=""/><path d="m36 35a3.009 3.009 0 0 1 -3 3v1h-2v-1a3.009 3.009 0 0 1 -3-3h2a1 1 0 0 0 1 1h2a1 1 0 0 0 0-2h-2a3 3 0 0 1 0-6v-1h2v1a3.009 3.009 0 0 1 3 3h-2a1 1 0 0 0 -1-1h-2a1 1 0 0 0 0 2h2a3.009 3.009 0 0 1 3 3z" data-original="#000000" class=""/><path d="m20 58h24a1 1 0 0 0 1-1v-12a1 1 0 0 0 -1-1h-24a1 1 0 0 0 -1 1v12a1 1 0 0 0 1 1zm1-12h22v10h-22z" data-original="#000000" class=""/><path d="m22 47h2v8h-2z" data-original="#000000" class=""/><path d="m25 47h2v8h-2z" data-original="#000000" class=""/><path d="m28 47h2v8h-2z" data-original="#000000" class=""/><path d="m31 47h2v8h-2z" data-original="#000000" class=""/><path d="m34 47h2v8h-2z" data-original="#000000" class=""/><path d="m37 47h2v8h-2z" data-original="#000000" class=""/><path d="m40 47h2v8h-2z" data-original="#000000" class=""/></g></g> </svg>
