<?xml version="1.0" encoding="utf-8"?>
<svg id="master-artboard" viewBox="0 0 700 980" version="1.1" xmlns="http://www.w3.org/2000/svg" x="0px" y="0px" style="enable-background:new 0 0 700 980;" width="700px" height="980px" xmlns:xlink="http://www.w3.org/1999/xlink"><rect id="ee-background" x="0" y="0" width="700" height="980" style="fill: white; fill-opacity: 0; pointer-events: none;"/>

<g id="XMLID_2_" transform="matrix(1.0011407136917114, 0.006879016757011414, -0.006879016757011413, 1.0011407136917114, 5.008212637604402, -20.824332039773054)">
		<defs>
			<path d="M 0 0 H 700 V 980 H 0 V 0 Z" id="XMLID_3_"/>
		</defs>
		<radialGradient id="XMLID_19_" cx="350" cy="490" r="425.7934" gradientUnits="userSpaceOnUse">
			<stop offset="0" style="stop-color:#FFFFFF"/>
			<stop offset="1" style="stop-color:#E9F7FE"/>
		</radialGradient>
		<use style="overflow: visible; fill: url('#XMLID_19_'); fill-opacity: 0.28;" xlink:href="#XMLID_3_"/>
		<clipPath id="XMLID_20_">
			<use style="overflow:visible;" xlink:href="#XMLID_3_"/>
		</clipPath>
		<g id="XMLID_4_" class="st0" style="clip-path: url('#XMLID_20_');">
			<path id="XMLID_241_" class="st1" d="M620.3,1014.8c0-5.2-4.3-9.5-9.5-9.5c-2,0-3.9,0.6-5.4,1.7l-35.4-42.7&#10;&#9;&#9;&#9;&#9;c3.5-3.2,5.8-7.9,5.8-13c0-4.6-1.7-8.7-4.6-11.8l14.7-14.6c1.7,1.4,3.8,2.3,6.1,2.3c5.2,0,9.5-4.3,9.5-9.5c0-5.2-4.3-9.5-9.5-9.5&#10;&#9;&#9;&#9;&#9;c-5.2,0-9.5,4.3-9.5,9.5c0,2.3,0.8,4.5,2.2,6.1l-14.7,14.6c-3.1-2.9-7.3-4.6-11.9-4.6c-1.2,0-2.3,0.1-3.4,0.3L540,874.4&#10;&#9;&#9;&#9;&#9;c3.8-1.3,6.5-4.8,6.5-9c0-5.2-4.3-9.5-9.5-9.5c-0.5,0-1,0.1-1.5,0.1l-20.5-83.8c3.7-1.1,6.9-3.4,9.2-6.4l27.2,18.4&#10;&#9;&#9;&#9;&#9;c-0.8,1.4-1.2,2.9-1.2,4.6c0,5.2,4.3,9.5,9.5,9.5c5.2,0,9.5-4.3,9.5-9.5s-4.3-9.5-9.5-9.5c-3,0-5.7,1.4-7.4,3.5L525,764.5&#10;&#9;&#9;&#9;&#9;c1.6-2.7,2.6-5.8,2.6-9.2c0-1.8-0.3-3.5-0.8-5.1l24.2-8.6c1.5,3.3,4.8,5.6,8.7,5.6c5.2,0,9.5-4.3,9.5-9.5c0-1.8-0.5-3.4-1.3-4.9&#10;&#9;&#9;&#9;&#9;l37.9-27.2c1.3,1.4,3.1,2.2,5.1,2.2c0.9,0,1.7-0.2,2.5-0.5l33.8,62.7c-5.1,3.1-8.5,8.7-8.5,15.1c0,4.8,1.9,9.1,5,12.3l-21.4,22.9&#10;&#9;&#9;&#9;&#9;c-1.6-1.3-3.7-2-5.9-2c-5.2,0-9.5,4.3-9.5,9.5c0,5.2,4.3,9.5,9.5,9.5c5.2,0,9.5-4.3,9.5-9.5c0-2.4-0.9-4.7-2.4-6.4l21.4-22.9&#10;&#9;&#9;&#9;&#9;c2.8,2.4,6.3,3.9,10.2,4.2l-1.7,68.2c-5,0.3-8.9,4.4-8.9,9.5c0,5.2,4.3,9.5,9.5,9.5c1.2,0,2.4-0.2,3.5-0.7l23.2,46.7&#10;&#9;&#9;&#9;&#9;c-5.4,3-9.1,8.8-9.1,15.4c0,9.7,7.9,17.6,17.6,17.6s17.6-7.9,17.6-17.6s-7.9-17.6-17.6-17.6c-2.5,0-4.9,0.5-7.1,1.5l-23.2-46.7&#10;&#9;&#9;&#9;&#9;c2.7-1.7,4.6-4.7,4.6-8.1c0-4.9-3.7-8.9-8.5-9.4l1.7-68.2c4.5-0.1,8.6-1.9,11.6-4.7l28.6,27.9c-1.4,1.6-2.2,3.7-2.2,6&#10;&#9;&#9;&#9;&#9;c0,5.2,4.3,9.5,9.5,9.5c5.2,0,9.5-4.3,9.5-9.5c0-5.2-4.3-9.5-9.5-9.5c-2.4,0-4.5,0.9-6.2,2.3L669.3,797c2.8-3.1,4.5-7.2,4.5-11.7&#10;&#9;&#9;&#9;&#9;c0-7.5-4.7-14-11.4-16.5l8.3-25.7c0.7,0.2,1.4,0.3,2.2,0.3c5.2,0,9.5-4.3,9.5-9.5c0-5.2-4.3-9.5-9.5-9.5c-5.2,0-9.5,4.3-9.5,9.5&#10;&#9;&#9;&#9;&#9;c0,3.9,2.4,7.3,5.8,8.8l-8.3,25.7c-1.5-0.4-3-0.6-4.7-0.6c-2.7,0-5.3,0.6-7.7,1.7l-33.8-62.7c1.8-1.2,2.9-3.3,2.9-5.6&#10;&#9;&#9;&#9;&#9;c0-3.8-3.1-6.8-6.8-6.8c-0.9,0-1.7,0.2-2.5,0.5l-33.9-62.8c2-1.3,3.5-3.4,4.1-5.9l75.6,10.4c0,0.5-0.1,1.1-0.1,1.6&#10;&#9;&#9;&#9;&#9;c0,6,3,11.2,7.5,14.4L651,668.8c-1.3-0.7-2.8-1.1-4.4-1.1c-5.2,0-9.5,4.3-9.5,9.5c0,5.2,4.3,9.5,9.5,9.5c5.2,0,9.5-4.3,9.5-9.5&#10;&#9;&#9;&#9;&#9;c0-3.1-1.5-5.8-3.8-7.6l10.3-16.3c2.6,1.5,5.6,2.3,8.7,2.3c2.7,0,5.2-0.6,7.4-1.6l16.6,31.9c-2.7,1.7-4.4,4.6-4.4,8&#10;&#9;&#9;&#9;&#9;c0,5.2,4.3,9.5,9.5,9.5c5.2,0,9.5-4.3,9.5-9.5c0-5.2-4.3-9.5-9.5-9.5c-1.3,0-2.5,0.3-3.7,0.7l-16.6-31.9c5.2-3,8.8-8.7,8.8-15.2&#10;&#9;&#9;&#9;&#9;c0-4.5-1.7-8.6-4.4-11.7l19.2-18.7c1.7,1.4,3.8,2.3,6.2,2.3c5.2,0,9.5-4.3,9.5-9.5c0-5.2-4.3-9.5-9.5-9.5c-5.2,0-9.5,4.3-9.5,9.5&#10;&#9;&#9;&#9;&#9;c0,2.3,0.8,4.4,2.2,6l-19.2,18.7c-3.2-3-7.4-4.8-12.1-4.8c-0.2,0-0.4,0-0.6,0l-6-76.3c4.5-0.7,8-4.6,8-9.4c0-5.2-4.3-9.5-9.5-9.5&#10;&#9;&#9;&#9;&#9;c-4.5,0-8.2,3.1-9.2,7.2l-67.6-10.8c0.1-0.6,0.1-1.3,0.1-2c0-3.5-1-6.7-2.8-9.4l50.5-35.5c1.7,2.1,4.4,3.4,7.3,3.4&#10;&#9;&#9;&#9;&#9;c5.2,0,9.5-4.3,9.5-9.5c0-5.2-4.3-9.5-9.5-9.5c-0.7,0-1.3,0.1-1.9,0.2L626,412.3c6.7-2.3,11.5-8.5,11.9-15.8h18.9&#10;&#9;&#9;&#9;&#9;c0.4,4.9,4.5,8.7,9.5,8.7c5.2,0,9.5-4.3,9.5-9.5c0-5.2-4.3-9.5-9.5-9.5c-5,0-9.1,3.8-9.5,8.7h-18.9c-0.4-9.4-8.1-16.8-17.6-16.8&#10;&#9;&#9;&#9;&#9;c-2.3,0-4.5,0.4-6.5,1.2l-19.1-42.5c2.9-1.6,4.9-4.7,4.9-8.3c0-2.6-1.1-5-2.8-6.8l46.2-55.3c1.1,0.7,2.4,1.1,3.7,1.1&#10;&#9;&#9;&#9;&#9;c3.8,0,6.8-3.1,6.8-6.8c0-3.8-3.1-6.8-6.8-6.8c-3.8,0-6.8,3.1-6.8,6.8c0,1.8,0.7,3.5,1.9,4.7l-46.2,55.3c-1.4-1-3.1-1.6-4.9-1.7&#10;&#9;&#9;&#9;&#9;l-3-120.3c3.3-0.5,5.9-3.3,5.9-6.8c0-3.8-3.1-6.8-6.8-6.8s-6.8,3.1-6.8,6.8c0,3.6,2.7,6.5,6.2,6.8l3,120.3&#10;&#9;&#9;&#9;&#9;c-4.8,0.5-8.5,4.5-8.5,9.4c0,1.7,0.4,3.2,1.2,4.6l-16.9,11.2c-1.3-1.5-3.1-2.4-5.2-2.4c-3.8,0-6.8,3.1-6.8,6.8&#10;&#9;&#9;&#9;&#9;c0,3.8,3.1,6.8,6.8,6.8c3.8,0,6.8-3.1,6.8-6.8c0-1.1-0.3-2.2-0.7-3.1l16.9-11.2c1.7,2.2,4.4,3.6,7.4,3.6c1.1,0,2.2-0.2,3.1-0.5&#10;&#9;&#9;&#9;&#9;l19.1,42.5c-5.7,2.9-9.7,8.8-9.7,15.7c0,5.4,2.5,10.3,6.3,13.5l-13.8,18.3c-1.5-0.9-3.2-1.5-5.1-1.5c-5.2,0-9.5,4.3-9.5,9.5&#10;&#9;&#9;&#9;&#9;s4.3,9.5,9.5,9.5s9.5-4.3,9.5-9.5c0-2.8-1.2-5.3-3.1-7.1l13.8-18.3c2.8,2,6.3,3.1,10,3.1c1.4,0,2.9-0.2,4.2-0.5l13.9,47.1&#10;&#9;&#9;&#9;&#9;c-3.5,1.4-6.1,4.8-6.1,8.9c0,1.7,0.5,3.4,1.3,4.8L583,508.9c-3.2-4.2-8.3-6.8-13.9-6.8c-4.3,0-8.2,1.5-11.2,4.1l-10.9-12&#10;&#9;&#9;&#9;&#9;c1.6-1.7,2.5-4,2.5-6.5c0-5.2-4.3-9.5-9.5-9.5c-3.3,0-6.2,1.7-7.9,4.2l-45.3-24.9c1.2-2.3,1.8-5,1.8-7.8c0-2.6-0.6-5-1.6-7.2&#10;&#9;&#9;&#9;&#9;l14.8-7.5c1.7,2.7,4.7,4.5,8.1,4.5c5.2,0,9.5-4.3,9.5-9.5c0-5.2-4.3-9.5-9.5-9.5c-5.2,0-9.5,4.3-9.5,9.5c0,1.3,0.3,2.5,0.7,3.6&#10;&#9;&#9;&#9;&#9;l-14.8,7.5c-2.9-5.1-8.3-8.6-14.5-8.9v-55.6c4.9-0.4,8.7-4.5,8.7-9.5c0-3.2-1.6-6.1-4.1-7.8l33.5-57.9c0.8,0.4,1.7,0.6,2.7,0.6&#10;&#9;&#9;&#9;&#9;c3.8,0,6.8-3.1,6.8-6.8s-3.1-6.8-6.8-6.8c-3.8,0-6.8,3.1-6.8,6.8c0,2.2,1.1,4.2,2.8,5.5L475,358.5c-1.2-0.6-2.6-0.9-4-0.9&#10;&#9;&#9;&#9;&#9;c-2.9,0-5.5,1.3-7.2,3.4l-22.1-15.6c0.5-1,0.8-2.1,0.8-3.3c0-3.8-3.1-6.8-6.8-6.8c-3.8,0-6.8,3.1-6.8,6.8c0,3.8,3.1,6.8,6.8,6.8&#10;&#9;&#9;&#9;&#9;c2,0,3.8-0.9,5.1-2.3l22.1,15.6c-0.8,1.4-1.3,3.1-1.3,4.8c0,5,3.8,9.1,8.7,9.5v55.6c-6.2,0.3-11.6,3.8-14.5,8.9l-22.6-11.5&#10;&#9;&#9;&#9;&#9;c0.5-1.1,0.7-2.3,0.7-3.6c0-5.2-4.3-9.5-9.5-9.5c-0.8,0-1.5,0.1-2.2,0.3l-28.1-85c2.3-1.1,4-3.5,4-6.2c0-3.8-3.1-6.8-6.8-6.8&#10;&#9;&#9;&#9;&#9;c-3.8,0-6.8,3.1-6.8,6.8c0,3.8,3.1,6.8,6.8,6.8c0.5,0,0.9,0,1.4-0.1l28.1,84.9c-3.4,1.5-5.8,4.8-5.8,8.7c0,4.8,3.5,8.7,8.2,9.4&#10;&#9;&#9;&#9;&#9;l-2.8,48.2c-3.6,0.2-6.4,3.2-6.4,6.8c0,3.8,3.1,6.8,6.8,6.8s6.8-3.1,6.8-6.8c0-3.4-2.4-6.2-5.7-6.7l2.8-48.2&#10;&#9;&#9;&#9;&#9;c3.3-0.1,6.2-1.9,7.8-4.5l22.6,11.5c-1,2.2-1.6,4.7-1.6,7.3c0,9.7,7.9,17.6,17.6,17.6c6.4,0,11.9-3.4,15-8.4l45.3,24.9&#10;&#9;&#9;&#9;&#9;c-0.5,1.2-0.8,2.5-0.8,3.9c0,5.2,4.3,9.5,9.5,9.5c2.2,0,4.2-0.7,5.8-2l10.9,12c-3.2,3.2-5.2,7.6-5.2,12.5c0,4.4,1.6,8.5,4.4,11.6&#10;&#9;&#9;&#9;&#9;l-11.8,11.3c-1.7-1.5-3.9-2.4-6.3-2.4c-5.2,0-9.5,4.3-9.5,9.5c0,5.2,4.3,9.5,9.5,9.5c5.2,0,9.5-4.3,9.5-9.5c0-2.3-0.8-4.3-2.1-6&#10;&#9;&#9;&#9;&#9;l11.8-11.3c3,2.8,6.9,4.6,11.3,4.8v77.2c-4.2,0.4-7.7,3.5-8.5,7.6l-53.6-6.3c0-0.4,0.1-0.8,0.1-1.3c0-9.7-7.9-17.6-17.6-17.6&#10;&#9;&#9;&#9;&#9;c-1,0-1.9,0.1-2.9,0.2l-6.7-31.4c3.9-1.2,6.7-4.8,6.7-9.1c0-5.2-4.3-9.5-9.5-9.5c-5.2,0-9.5,4.3-9.5,9.5c0,5.2,4.3,9.5,9.5,9.5&#10;&#9;&#9;&#9;&#9;c0.4,0,0.8,0,1.2-0.1l6.7,31.4c-7.6,2-13.2,8.9-13.2,17c0,1.8,0.3,3.5,0.8,5.2l-27.5,9.9c-1.5-3.3-4.8-5.6-8.6-5.6&#10;&#9;&#9;&#9;&#9;c-5.2,0-9.5,4.3-9.5,9.5c0,5.2,4.3,9.5,9.5,9.5s9.5-4.3,9.5-9.5c0-0.8-0.1-1.7-0.3-2.4l27.5-9.9c2.6,6.4,8.9,10.9,16.2,10.9&#10;&#9;&#9;&#9;&#9;l2.7,71.5c-4.7,0.6-8.3,4.6-8.3,9.4c0,5.2,4.3,9.5,9.5,9.5c1,0,2-0.2,2.9-0.5l7.2,17.4c-5.3,2.5-9.1,7.5-9.9,13.5l-69.3-6.3&#10;&#9;&#9;&#9;&#9;c0,0,0,0,0-0.1c0-5.2-4.3-9.5-9.5-9.5c-0.9,0-1.8,0.1-2.6,0.4l-27.8-72.5c3.2-1.5,5.4-4.8,5.4-8.5c0-5.2-4.3-9.5-9.5-9.5&#10;&#9;&#9;&#9;&#9;c-0.9,0-1.8,0.1-2.6,0.4l-24.9-64.9c6.2-2.7,10.6-8.9,10.6-16.1c0-3.4-1-6.6-2.7-9.3l24.2-16.7c1.7,2.1,4.4,3.5,7.3,3.5&#10;&#9;&#9;&#9;&#9;c5.2,0,9.5-4.3,9.5-9.5c0-5.2-4.3-9.5-9.5-9.5c-5.2,0-9.5,4.3-9.5,9.5c0,1.7,0.5,3.3,1.3,4.7l-24.2,16.7c-3.2-4.2-8.3-7-14-7&#10;&#9;&#9;&#9;&#9;c-4.7,0-9,1.9-12.2,4.9l-34.1-32.5c1.3-1.6,2.1-3.7,2.1-5.9c0-3-1.4-5.6-3.5-7.4l51.4-75.6c0.9,0.5,2,0.8,3.2,0.8&#10;&#9;&#9;&#9;&#9;c3.8,0,6.8-3.1,6.8-6.8c0-3.8-3.1-6.8-6.8-6.8c-3.8,0-6.8,3.1-6.8,6.8c0,2.1,0.9,3.9,2.4,5.2l-51.4,75.6c-1.4-0.8-3-1.2-4.7-1.2&#10;&#9;&#9;&#9;&#9;c-0.4,0-0.7,0-1.1,0.1l-19.3-94c2.7-0.9,4.7-3.5,4.7-6.5c0-3.8-3.1-6.8-6.8-6.8c-3.8,0-6.8,3.1-6.8,6.8c0,3.8,3.1,6.8,6.8,6.8&#10;&#9;&#9;&#9;&#9;c0.2,0,0.4,0,0.6,0l19.3,94c-3.8,1.1-6.6,4.5-6.8,8.6l-63.3,2.1c-0.5-3.3-3.3-5.8-6.8-5.8c-3.8,0-6.8,3.1-6.8,6.8&#10;&#9;&#9;&#9;&#9;c0,3.8,3.1,6.8,6.8,6.8c3.6,0,6.5-2.8,6.8-6.3l63.2-2.1c0.4,3.2,2.3,5.8,5,7.3l-23,53.8c-0.6-0.2-1.3-0.3-1.9-0.3&#10;&#9;&#9;&#9;&#9;c-3.8,0-6.8,3.1-6.8,6.8s3.1,6.8,6.8,6.8c3.8,0,6.8-3.1,6.8-6.8c0-2.5-1.4-4.8-3.4-5.9l23-53.8c0.9,0.3,1.9,0.5,3,0.5&#10;&#9;&#9;&#9;&#9;c2.4,0,4.6-0.9,6.3-2.4l34.1,32.5c-2.7,3.1-4.3,7.1-4.3,11.5c0,5.2,2.3,10,5.9,13.2l-10.1,12.5c-1.5-1-3.3-1.6-5.3-1.6&#10;&#9;&#9;&#9;&#9;c-5.2,0-9.5,4.3-9.5,9.5c0,5.2,4.3,9.5,9.5,9.5s9.5-4.3,9.5-9.5c0-2.7-1.1-5.1-2.9-6.9l10.1-12.6c2.9,2.1,6.5,3.4,10.4,3.4&#10;&#9;&#9;&#9;&#9;c1.9,0,3.8-0.3,5.5-0.9l24.9,64.9c-3.2,1.5-5.4,4.8-5.4,8.5c0,5.2,4.3,9.5,9.5,9.5c0.9,0,1.8-0.1,2.6-0.4l27.8,72.5&#10;&#9;&#9;&#9;&#9;c-3.2,1.5-5.4,4.8-5.4,8.5c0,1.8,0.5,3.5,1.4,4.9l-55.4,40.4c-1.7-2.1-3.8-3.8-6.2-4.9l7.2-17.4c0.9,0.3,1.9,0.4,2.9,0.4&#10;&#9;&#9;&#9;&#9;c5.2,0,9.5-4.3,9.5-9.5c0-5.2-4.3-9.5-9.5-9.5s-9.5,4.3-9.5,9.5c0,3.7,2.1,6.9,5.1,8.4l-7.2,17.4c-1.9-0.7-3.9-1.1-6-1.1&#10;&#9;&#9;&#9;&#9;c-4.6,0-8.7,1.7-11.9,4.6L292,757.1c1.4-1.7,2.3-3.8,2.3-6.1c0-5.2-4.3-9.5-9.5-9.5c-0.3,0-0.6,0-0.9,0l-13.4-71.8&#10;&#9;&#9;&#9;&#9;c2.8-0.9,4.8-3.5,4.8-6.5c0-3.8-3.1-6.8-6.8-6.8c-3.8,0-6.8,3.1-6.8,6.8c0,3.8,3.1,6.8,6.8,6.8c0.2,0,0.3,0,0.5,0l13.4,71.8&#10;&#9;&#9;&#9;&#9;c-1.5,0.4-2.8,1.2-3.9,2.2l-47.6-43.6c0.8-1.1,1.3-2.5,1.3-4c0-3.8-3.1-6.8-6.8-6.8c-3.8,0-6.8,3.1-6.8,6.8s3.1,6.8,6.8,6.8&#10;&#9;&#9;&#9;&#9;c1.7,0,3.3-0.6,4.5-1.7l47.6,43.6c-1.2,1.6-2,3.6-2,5.8c0,2.2,0.7,4.1,1.9,5.7l-40.7,36.6c-1.2-1.1-2.8-1.7-4.5-1.7&#10;&#9;&#9;&#9;&#9;c-3.8,0-6.8,3.1-6.8,6.8c0,3.8,3.1,6.8,6.8,6.8c3.8,0,6.8-3.1,6.8-6.8c0-1.5-0.5-2.8-1.3-3.9l40.7-36.6c1.7,1.6,4,2.6,6.5,2.6&#10;&#9;&#9;&#9;&#9;c2.3,0,4.5-0.8,6.1-2.2l32.7,32.8c-2.9,3.1-4.6,7.3-4.6,11.9c0,9.5,7.5,17.2,16.8,17.6v20.7c-4.9,0.4-8.7,4.5-8.7,9.5&#10;&#9;&#9;&#9;&#9;c0,5.2,4.3,9.5,9.5,9.5s9.5-4.3,9.5-9.5c0-5-3.8-9.1-8.7-9.5v-20.7c9.4-0.4,16.8-8.1,16.8-17.6c0-3.6-1.1-6.9-2.9-9.7l55.4-40.4&#10;&#9;&#9;&#9;&#9;c1.7,2,4.3,3.3,7.2,3.3c4.7,0,8.6-3.4,9.3-7.8l69.3,6.3c0,0.3,0,0.5,0,0.8c0,5.6,2.6,10.6,6.7,13.8L484,790.2&#10;&#9;&#9;&#9;&#9;c-1.4-0.8-3.1-1.3-4.9-1.3c-5.2,0-9.5,4.3-9.5,9.5c0,3.4,1.8,6.4,4.5,8.1L422,909.7c-2.2-1-4.6-1.5-7.2-1.5c-0.7,0-1.4,0-2.1,0.1&#10;&#9;&#9;&#9;&#9;l-5-29.4c4.1-1.1,7.1-4.8,7.1-9.2c0-5.2-4.3-9.5-9.5-9.5c-5.2,0-9.5,4.3-9.5,9.5c0,5.2,4.3,9.5,9.5,9.5c0.3,0,0.5,0,0.8,0l5,29.4&#10;&#9;&#9;&#9;&#9;c-7.9,1.7-13.9,8.8-13.9,17.2c0,6.2,3.2,11.6,7.9,14.7L379.3,984c-1.3-0.6-2.7-1-4.1-1c-5.2,0-9.5,4.3-9.5,9.5s4.3,9.5,9.5,9.5&#10;&#9;&#9;&#9;&#9;c5.2,0,9.5-4.3,9.5-9.5c0-3.2-1.6-6-4-7.7l25.9-43.6c2.5,1.3,5.3,2.1,8.3,2.1c9.7,0,17.6-7.9,17.6-17.6c0-2.5-0.5-4.8-1.4-6.9&#10;&#9;&#9;&#9;&#9;l12.1-5.8c1.7,2.8,4.7,4.7,8.2,4.7c5.2,0,9.5-4.3,9.5-9.5c0-5.2-4.3-9.5-9.5-9.5c-5.2,0-9.5,4.3-9.5,9.5c0,1.2,0.2,2.3,0.6,3.4&#10;&#9;&#9;&#9;&#9;l-12.1,5.8c-1.6-2.9-4-5.3-6.9-7l52.1-103.2c1.1,0.4,2.3,0.7,3.5,0.7c5.2,0,9.5-4.3,9.5-9.5c0-2.9-1.3-5.5-3.3-7.2l15.1-21.1&#10;&#9;&#9;&#9;&#9;c2.8,1.8,6.1,2.8,9.6,2.8c1.2,0,2.3-0.1,3.4-0.3l20.5,83.7c-3.8,1.3-6.5,4.8-6.5,9c0,5.2,4.3,9.5,9.5,9.5c0.5,0,1-0.1,1.5-0.1&#10;&#9;&#9;&#9;&#9;l14.6,59.7c-7.1,2.1-12.3,8.4-12.6,16.1h-21c-0.4-4.9-4.5-8.7-9.5-8.7c-5.2,0-9.5,4.3-9.5,9.5c0,5.2,4.3,9.5,9.5,9.5&#10;&#9;&#9;&#9;&#9;c5,0,9.1-3.8,9.5-8.7h21c0.4,9.4,8.1,16.8,17.6,16.8c4,0,7.7-1.3,10.6-3.6l35.4,42.7c-1.7,1.7-2.8,4.1-2.8,6.8&#10;&#9;&#9;&#9;&#9;c0,5.2,4.3,9.5,9.5,9.5C616,1024.3,620.3,1020.1,620.3,1014.8z M501.8,713c0-5.1-4-9.2-9.1-9.5l-2.7-71.5&#10;&#9;&#9;&#9;&#9;c3.1-0.3,5.9-1.3,8.4-2.9l13.3,18c-2,1.7-3.2,4.3-3.2,7.1c0,5.2,4.3,9.5,9.5,9.5c5.2,0,9.5-4.3,9.5-9.5s-4.3-9.5-9.5-9.5&#10;&#9;&#9;&#9;&#9;c-1.8,0-3.5,0.5-5,1.4l-13.3-18c3.3-2.7,5.6-6.5,6.3-10.8l53.6,6.3c0,0.1,0,0.2,0,0.3c0,5.2,4.3,9.5,9.5,9.5&#10;&#9;&#9;&#9;&#9;c1.3,0,2.6-0.3,3.8-0.8l33.9,62.8c-1.8,1.2-2.9,3.3-2.9,5.6c0,1.2,0.3,2.3,0.9,3.3l-37.9,27.1c-1.7-2-4.3-3.3-7.2-3.3&#10;&#9;&#9;&#9;&#9;c-5.2,0-9.5,4.3-9.5,9.5c0,0.8,0.1,1.6,0.3,2.4l-24.2,8.6c-2.6-6.4-8.9-11-16.3-11c-2.1,0-4.1,0.4-6,1.1l-7.2-17.4&#10;&#9;&#9;&#9;&#9;C499.8,719.8,501.8,716.6,501.8,713z M578.1,534.9l26.8,40.9c-2.2,1.7-3.6,4.4-3.6,7.5c0,5.2,4.3,9.5,9.5,9.5&#10;&#9;&#9;&#9;&#9;c5.2,0,9.5-4.3,9.5-9.5c0-5.2-4.3-9.5-9.5-9.5c-1.6,0-3.2,0.4-4.5,1.1L579.4,534c3.5-2.5,6-6.3,6.9-10.7l67.5,10.8&#10;&#9;&#9;&#9;&#9;c0,0.2,0,0.5,0,0.7c0,5.2,4.2,9.5,9.4,9.5l6,76.3c-7.6,0.9-13.8,6.8-15.1,14.3l-75.6-10.4c0-0.2,0-0.3,0-0.5c0-5-3.8-9.1-8.7-9.5&#10;&#9;&#9;&#9;&#9;v-77.2C572.9,537.2,575.7,536.3,578.1,534.9z" style="opacity: 0.2; fill: rgb(62, 163, 219); fill-opacity: 0.28;"/>
			<path class="st2" d="M120.1,788.2c0-3.6-2.7-6.5-6.2-6.8l-3-120.3c4.8-0.5,8.5-4.5,8.5-9.4c0-1.7-0.4-3.2-1.2-4.6l16.9-11.2&#10;&#9;&#9;&#9;&#9;c1.3,1.5,3.1,2.4,5.2,2.4c3.8,0,6.8-3.1,6.8-6.8c0-3.8-3.1-6.8-6.8-6.8s-6.8,3.1-6.8,6.8c0,1.1,0.3,2.1,0.8,3.1l-16.9,11.2&#10;&#9;&#9;&#9;&#9;c-1.7-2.2-4.4-3.6-7.4-3.6c-1.1,0-2.2,0.2-3.1,0.5l-19.1-42.6c5.7-2.9,9.7-8.8,9.7-15.7c0-5.4-2.5-10.3-6.3-13.5l13.8-18.3&#10;&#9;&#9;&#9;&#9;c1.5,0.9,3.2,1.5,5.1,1.5c5.2,0,9.5-4.3,9.5-9.5c0-5.2-4.3-9.5-9.5-9.5c-5.2,0-9.5,4.3-9.5,9.5c0,2.8,1.2,5.3,3.1,7.1l-13.9,18.3&#10;&#9;&#9;&#9;&#9;c-2.8-2-6.3-3.1-10-3.1c-1.4,0-2.8,0.2-4.2,0.5l-13.9-47.1c3.5-1.4,6.1-4.8,6.1-8.9c0-1.7-0.5-3.4-1.3-4.8L117,471&#10;&#9;&#9;&#9;&#9;c3.2,4.2,8.3,6.9,13.9,6.9c4.3,0,8.2-1.5,11.2-4.1l10.9,12c-1.6,1.7-2.5,4-2.5,6.5c0,5.2,4.3,9.5,9.5,9.5c3.3,0,6.2-1.7,7.9-4.2&#10;&#9;&#9;&#9;&#9;l45.3,24.9c-1.2,2.3-1.8,5-1.8,7.8c0,2.6,0.6,5,1.6,7.2l-14.8,7.5c-1.7-2.7-4.7-4.5-8.1-4.5c-5.2,0-9.5,4.3-9.5,9.5&#10;&#9;&#9;&#9;&#9;c0,5.2,4.3,9.5,9.5,9.5c5.2,0,9.5-4.3,9.5-9.5c0-1.3-0.3-2.5-0.7-3.6l14.8-7.5c2.9,5.1,8.3,8.6,14.5,8.9v55.6&#10;&#9;&#9;&#9;&#9;c-4.9,0.4-8.7,4.5-8.7,9.5c0,3.2,1.6,6.1,4.1,7.8l-33.5,57.9c-0.8-0.4-1.7-0.6-2.7-0.6c-3.8,0-6.8,3.1-6.8,6.8&#10;&#9;&#9;&#9;&#9;c0,3.8,3.1,6.8,6.8,6.8c3.8,0,6.8-3.1,6.8-6.8c0-2.2-1.1-4.2-2.8-5.5l33.5-57.9c1.2,0.6,2.6,0.9,4,0.9c2.9,0,5.5-1.3,7.2-3.4&#10;&#9;&#9;&#9;&#9;l22.2,15.6c-0.5,1-0.9,2.1-0.9,3.2c0,3.8,3.1,6.8,6.8,6.8c3.8,0,6.8-3.1,6.8-6.8c0-3.8-3.1-6.8-6.8-6.8c-2,0-3.8,0.9-5.1,2.3&#10;&#9;&#9;&#9;&#9;l-22.1-15.6c0.8-1.4,1.3-3.1,1.3-4.8c0-5-3.8-9.1-8.7-9.5v-55.6c6.2-0.3,11.6-3.8,14.5-8.9l22.6,11.5c-0.5,1.1-0.7,2.3-0.7,3.6&#10;&#9;&#9;&#9;&#9;c0,5.2,4.3,9.5,9.5,9.5c0.8,0,1.5-0.1,2.2-0.3l28.1,85c-2.3,1.1-4,3.4-4,6.2c0,3.8,3.1,6.8,6.8,6.8c3.8,0,6.8-3.1,6.8-6.8&#10;&#9;&#9;&#9;&#9;c0-3.8-3.1-6.8-6.8-6.8c-0.5,0-0.9,0-1.4,0.1l-28.1-84.9c3.4-1.5,5.8-4.8,5.8-8.7c0-4.8-3.5-8.7-8.2-9.4l2.8-48.2&#10;&#9;&#9;&#9;&#9;c3.6-0.2,6.4-3.2,6.4-6.8c0-3.8-3.1-6.8-6.8-6.8s-6.8,3.1-6.8,6.8c0,3.4,2.4,6.2,5.7,6.7l-2.8,48.2c-3.3,0.1-6.2,1.9-7.8,4.5&#10;&#9;&#9;&#9;&#9;L245,537.5c1-2.2,1.6-4.7,1.6-7.3c0-9.7-7.9-17.6-17.6-17.6c-6.4,0-11.9,3.4-15,8.4l-45.3-24.9c0.5-1.2,0.8-2.5,0.8-3.9&#10;&#9;&#9;&#9;&#9;c0-5.2-4.3-9.5-9.5-9.5c-2.2,0-4.2,0.7-5.8,2l-10.9-12c3.2-3.2,5.2-7.6,5.2-12.5c0-4.4-1.7-8.5-4.4-11.6l11.8-11.3&#10;&#9;&#9;&#9;&#9;c1.7,1.5,3.9,2.4,6.3,2.4c5.2,0,9.5-4.3,9.5-9.5s-4.3-9.5-9.5-9.5c-5.2,0-9.5,4.3-9.5,9.5c0,2.3,0.8,4.3,2.1,6L143,447.5&#10;&#9;&#9;&#9;&#9;c-3-2.8-6.9-4.6-11.3-4.8v-77.2c4.2-0.4,7.7-3.5,8.5-7.6l53.6,6.3c0,0.4-0.1,0.8-0.1,1.3c0,9.7,7.9,17.6,17.6,17.6&#10;&#9;&#9;&#9;&#9;c1,0,1.9-0.1,2.9-0.3l6.7,31.4c-3.9,1.2-6.7,4.8-6.7,9.1c0,5.2,4.3,9.5,9.5,9.5c5.2,0,9.5-4.3,9.5-9.5c0-5.2-4.3-9.5-9.5-9.5&#10;&#9;&#9;&#9;&#9;c-0.4,0-0.8,0-1.2,0.1l-6.7-31.4c7.6-2,13.2-8.8,13.2-17c0-1.8-0.3-3.5-0.8-5.2l27.5-9.9c1.5,3.3,4.8,5.6,8.6,5.6&#10;&#9;&#9;&#9;&#9;c5.2,0,9.5-4.3,9.5-9.5c0-5.2-4.3-9.5-9.5-9.5s-9.5,4.3-9.5,9.5c0,0.8,0.1,1.7,0.3,2.4l-27.5,9.9c-2.6-6.4-8.9-10.9-16.1-10.9&#10;&#9;&#9;&#9;&#9;l-2.7-71.5c4.7-0.6,8.3-4.6,8.3-9.4c0-5.2-4.3-9.5-9.5-9.5c-1,0-2,0.2-2.9,0.5l-7.2-17.4c5.3-2.5,9.1-7.5,9.9-13.5l69.3,6.3&#10;&#9;&#9;&#9;&#9;c0,0,0,0,0,0.1c0,5.2,4.3,9.5,9.5,9.5c0.9,0,1.8-0.1,2.6-0.4l27.8,72.5c-3.2,1.5-5.4,4.8-5.4,8.5c0,5.2,4.3,9.5,9.5,9.5&#10;&#9;&#9;&#9;&#9;c0.9,0,1.8-0.1,2.6-0.4l24.9,64.9c-6.2,2.7-10.6,8.9-10.6,16.1c0,3.4,1,6.6,2.7,9.3L316.2,440c-1.7-2.1-4.4-3.5-7.3-3.5&#10;&#9;&#9;&#9;&#9;c-5.2,0-9.5,4.3-9.5,9.5c0,5.2,4.3,9.5,9.5,9.5c5.2,0,9.5-4.3,9.5-9.5c0-1.7-0.5-3.3-1.3-4.7l24.2-16.7c3.2,4.2,8.3,7,14,7&#10;&#9;&#9;&#9;&#9;c4.7,0,9-1.9,12.2-4.9l34.1,32.5c-1.3,1.6-2.1,3.7-2.1,5.9c0,3,1.4,5.6,3.5,7.4L351.6,548c-0.9-0.5-2-0.8-3.1-0.8&#10;&#9;&#9;&#9;&#9;c-3.8,0-6.8,3.1-6.8,6.8c0,3.8,3.1,6.8,6.8,6.8c3.8,0,6.8-3.1,6.8-6.8c0-2.1-0.9-3.9-2.4-5.1l51.5-75.6c1.4,0.8,3,1.2,4.7,1.2&#10;&#9;&#9;&#9;&#9;c0.4,0,0.7,0,1.1-0.1l19.3,94c-2.7,0.9-4.7,3.4-4.7,6.5c0,3.8,3.1,6.8,6.8,6.8c3.8,0,6.8-3.1,6.8-6.8c0-3.8-3.1-6.8-6.8-6.8&#10;&#9;&#9;&#9;&#9;c-0.2,0-0.4,0-0.6,0.1l-19.3-94c3.8-1.1,6.6-4.5,6.8-8.6l63.3-2.1c0.5,3.3,3.3,5.8,6.7,5.8c3.8,0,6.8-3.1,6.8-6.8&#10;&#9;&#9;&#9;&#9;c0-3.8-3.1-6.8-6.8-6.8c-3.6,0-6.5,2.8-6.8,6.3l-63.3,2.1c-0.4-3.2-2.3-5.8-5-7.3l23-53.8c0.6,0.2,1.2,0.3,1.9,0.3&#10;&#9;&#9;&#9;&#9;c3.8,0,6.8-3.1,6.8-6.8c0-3.8-3.1-6.8-6.8-6.8c-3.8,0-6.8,3.1-6.8,6.8c0,2.5,1.4,4.7,3.4,5.9l-23,53.8c-0.9-0.3-1.9-0.5-3-0.5&#10;&#9;&#9;&#9;&#9;c-2.4,0-4.6,0.9-6.3,2.4l-34.1-32.5c2.7-3.1,4.3-7.1,4.3-11.5c0-5.2-2.3-9.9-6-13.2l10.1-12.6c1.5,1,3.3,1.6,5.3,1.6&#10;&#9;&#9;&#9;&#9;c5.2,0,9.5-4.3,9.5-9.5s-4.3-9.5-9.5-9.5s-9.5,4.3-9.5,9.5c0,2.7,1.1,5.1,2.9,6.9l-10.1,12.6c-2.9-2.1-6.5-3.4-10.4-3.4&#10;&#9;&#9;&#9;&#9;c-1.9,0-3.8,0.3-5.5,0.9l-24.9-65c3.2-1.5,5.4-4.8,5.4-8.5c0-5.2-4.3-9.5-9.5-9.5c-0.9,0-1.8,0.1-2.6,0.4L290.4,242&#10;&#9;&#9;&#9;&#9;c3.2-1.5,5.4-4.8,5.4-8.5c0-1.8-0.5-3.5-1.4-4.9l55.4-40.4c1.7,2.1,3.8,3.8,6.3,4.9l-7.2,17.4c-0.9-0.3-1.9-0.4-2.9-0.4&#10;&#9;&#9;&#9;&#9;c-5.2,0-9.5,4.3-9.5,9.5c0,5.2,4.3,9.5,9.5,9.5s9.5-4.3,9.5-9.5c0-3.7-2.1-6.9-5.1-8.4l7.2-17.5c1.9,0.7,3.9,1.1,6,1.1&#10;&#9;&#9;&#9;&#9;c4.6,0,8.7-1.8,11.8-4.6l32.7,32.8c-1.4,1.7-2.3,3.8-2.3,6.1c0,5.2,4.3,9.5,9.5,9.5c0.3,0,0.6,0,0.9,0l13.4,71.8&#10;&#9;&#9;&#9;&#9;c-2.8,0.9-4.8,3.4-4.8,6.5c0,3.8,3.1,6.8,6.8,6.8c3.8,0,6.8-3.1,6.8-6.8c0-3.8-3.1-6.8-6.8-6.8c-0.2,0-0.3,0-0.5,0l-13.4-71.8&#10;&#9;&#9;&#9;&#9;c1.5-0.4,2.8-1.2,3.9-2.2l47.7,43.6c-0.8,1.1-1.3,2.5-1.3,4c0,3.8,3.1,6.8,6.8,6.8c3.8,0,6.8-3.1,6.8-6.8c0-3.8-3.1-6.8-6.8-6.8&#10;&#9;&#9;&#9;&#9;c-1.7,0-3.3,0.6-4.5,1.7l-47.7-43.6c1.2-1.6,2-3.6,2-5.8c0-2.2-0.7-4.1-1.9-5.7l40.7-36.6c1.2,1.1,2.8,1.7,4.5,1.7&#10;&#9;&#9;&#9;&#9;c3.8,0,6.8-3.1,6.8-6.8c0-3.8-3.1-6.8-6.8-6.8c-3.8,0-6.8,3.1-6.8,6.8c0,1.5,0.5,2.8,1.3,3.9l-40.7,36.6c-1.7-1.6-4-2.6-6.5-2.6&#10;&#9;&#9;&#9;&#9;c-2.3,0-4.5,0.8-6.1,2.2L376.4,189c2.9-3.1,4.6-7.3,4.6-11.9c0-9.5-7.5-17.1-16.8-17.6v-20.8c4.9-0.4,8.7-4.5,8.7-9.5&#10;&#9;&#9;&#9;&#9;c0-5.2-4.3-9.5-9.5-9.5c-5.2,0-9.5,4.3-9.5,9.5c0,5,3.8,9.1,8.7,9.5v20.8c-9.3,0.4-16.8,8.1-16.8,17.6c0,3.6,1.1,6.9,2.9,9.7&#10;&#9;&#9;&#9;&#9;l-55.4,40.4c-1.7-2-4.3-3.3-7.2-3.3c-4.7,0-8.6,3.4-9.3,7.8l-69.3-6.3c0-0.3,0-0.5,0-0.8c0-5.6-2.6-10.6-6.7-13.8l15.1-21.1&#10;&#9;&#9;&#9;&#9;c1.4,0.8,3.1,1.3,4.9,1.3c5.2,0,9.5-4.3,9.5-9.5c0-3.4-1.8-6.4-4.5-8.1L278,70.3c2.2,1,4.6,1.6,7.2,1.6c0.7,0,1.4-0.1,2.1-0.1&#10;&#9;&#9;&#9;&#9;l5,29.4c-4.1,1.1-7.1,4.8-7.1,9.2c0,5.2,4.3,9.5,9.5,9.5c5.2,0,9.5-4.3,9.5-9.5c0-5.2-4.3-9.5-9.5-9.5c-0.3,0-0.5,0-0.8,0&#10;&#9;&#9;&#9;&#9;l-5-29.4c7.9-1.7,13.9-8.8,13.9-17.2c0-6.2-3.2-11.6-7.9-14.7L320.7-4c1.3,0.6,2.7,1,4.1,1c5.2,0,9.5-4.3,9.5-9.5&#10;&#9;&#9;&#9;&#9;s-4.3-9.5-9.5-9.5c-5.2,0-9.5,4.3-9.5,9.5c0,3.2,1.6,6,4,7.7l-25.9,43.6c-2.5-1.3-5.3-2.1-8.3-2.1c-9.7,0-17.6,7.9-17.6,17.6&#10;&#9;&#9;&#9;&#9;c0,2.5,0.5,4.8,1.4,6.9L256.9,67c-1.7-2.8-4.7-4.7-8.2-4.7c-5.2,0-9.5,4.3-9.5,9.5c0,5.2,4.3,9.5,9.5,9.5c5.2,0,9.5-4.3,9.5-9.5&#10;&#9;&#9;&#9;&#9;c0-1.2-0.2-2.3-0.6-3.4l12.1-5.8c1.6,2.9,4,5.3,6.9,7l-52.1,103.2c-1.1-0.4-2.3-0.7-3.5-0.7c-5.2,0-9.5,4.3-9.5,9.5&#10;&#9;&#9;&#9;&#9;c0,2.9,1.3,5.5,3.3,7.2l-15.1,21.1c-2.8-1.8-6-2.9-9.6-2.9c-1.2,0-2.3,0.1-3.4,0.3l-20.5-83.8c3.8-1.3,6.5-4.8,6.5-9&#10;&#9;&#9;&#9;&#9;c0-5.2-4.3-9.5-9.5-9.5c-0.5,0-1,0.1-1.5,0.1L147,45.5c7.1-2.1,12.3-8.4,12.6-16.1h21c0.4,4.9,4.5,8.7,9.5,8.7&#10;&#9;&#9;&#9;&#9;c5.2,0,9.5-4.3,9.5-9.5c0-5.2-4.3-9.5-9.5-9.5c-5,0-9.1,3.8-9.5,8.7h-21C159.1,18.5,151.4,11,142,11c-4,0-7.7,1.3-10.6,3.6&#10;&#9;&#9;&#9;&#9;L95.9-28.1c1.7-1.7,2.8-4.1,2.8-6.8c0-5.2-4.3-9.5-9.5-9.5c-5.2,0-9.5,4.3-9.5,9.5s4.3,9.5,9.5,9.5c2,0,3.9-0.6,5.4-1.7&#10;&#9;&#9;&#9;&#9;l35.5,42.7c-3.5,3.2-5.8,7.8-5.8,13c0,4.6,1.7,8.7,4.6,11.8l-14.7,14.6c-1.7-1.4-3.8-2.3-6.1-2.3c-5.2,0-9.5,4.3-9.5,9.5&#10;&#9;&#9;&#9;&#9;c0,5.2,4.3,9.5,9.5,9.5c5.2,0,9.5-4.3,9.5-9.5c0-2.3-0.8-4.5-2.2-6.1l14.7-14.6c3.1,2.9,7.3,4.6,11.9,4.6c1.2,0,2.3-0.1,3.4-0.3&#10;&#9;&#9;&#9;&#9;l14.6,59.7c-3.8,1.3-6.5,4.8-6.5,9c0,5.2,4.3,9.5,9.5,9.5c0.5,0,1-0.1,1.5-0.1l20.5,83.8c-3.7,1.1-6.9,3.4-9.1,6.4l-27.2-18.4&#10;&#9;&#9;&#9;&#9;c0.8-1.4,1.2-2.9,1.2-4.6c0-5.2-4.3-9.5-9.5-9.5c-5.2,0-9.5,4.3-9.5,9.5c0,5.2,4.3,9.5,9.5,9.5c3,0,5.7-1.4,7.4-3.5l27.2,18.4&#10;&#9;&#9;&#9;&#9;c-1.6,2.7-2.6,5.8-2.6,9.2c0,1.8,0.3,3.5,0.8,5.1l-24.2,8.6c-1.5-3.3-4.8-5.6-8.6-5.6c-5.2,0-9.5,4.3-9.5,9.5&#10;&#9;&#9;&#9;&#9;c0,1.8,0.5,3.4,1.3,4.9l-37.9,27.2c-1.3-1.4-3-2.2-5-2.2c-0.9,0-1.7,0.2-2.5,0.5l-33.8-62.7c5.1-3.1,8.6-8.7,8.6-15.1&#10;&#9;&#9;&#9;&#9;c0-4.8-1.9-9.1-5-12.3l21.4-22.9c1.6,1.3,3.7,2,5.9,2c5.2,0,9.5-4.3,9.5-9.5c0-5.2-4.3-9.5-9.5-9.5c-5.2,0-9.5,4.3-9.5,9.5&#10;&#9;&#9;&#9;&#9;c0,2.4,0.9,4.7,2.4,6.4l-21.4,22.9c-2.8-2.4-6.3-3.9-10.2-4.2l1.7-68.2c5-0.3,8.9-4.4,8.9-9.5c0-5.2-4.3-9.5-9.5-9.5&#10;&#9;&#9;&#9;&#9;c-1.2,0-2.4,0.2-3.5,0.7L19.5,44c5.4-3,9.1-8.8,9.1-15.4c0-9.7-7.9-17.6-17.6-17.6C1.2,11-6.7,18.9-6.7,28.6&#10;&#9;&#9;&#9;&#9;c0,9.7,7.9,17.6,17.6,17.6c2.5,0,4.9-0.5,7.1-1.5l23.2,46.7c-2.7,1.7-4.6,4.7-4.6,8.1c0,4.9,3.7,8.9,8.5,9.4l-1.7,68.2&#10;&#9;&#9;&#9;&#9;c-4.5,0.1-8.6,1.9-11.6,4.7L3.2,154c1.4-1.6,2.2-3.7,2.2-6c0-5.2-4.3-9.5-9.5-9.5s-9.5,4.3-9.5,9.5c0,5.2,4.3,9.5,9.5,9.5&#10;&#9;&#9;&#9;&#9;c2.4,0,4.5-0.9,6.2-2.3L30.7,183c-2.8,3.1-4.5,7.2-4.5,11.7c0,7.5,4.8,14,11.4,16.5L29.3,237c-0.7-0.2-1.4-0.3-2.2-0.3&#10;&#9;&#9;&#9;&#9;c-5.2,0-9.5,4.3-9.5,9.5c0,5.2,4.3,9.5,9.5,9.5c5.2,0,9.5-4.3,9.5-9.5c0-3.9-2.4-7.3-5.8-8.8l8.4-25.7c1.5,0.4,3,0.6,4.7,0.6&#10;&#9;&#9;&#9;&#9;c2.7,0,5.3-0.6,7.6-1.8l33.8,62.7c-1.8,1.2-2.9,3.3-2.9,5.6c0,3.8,3.1,6.8,6.8,6.8c0.9,0,1.7-0.2,2.5-0.5l33.9,62.9&#10;&#9;&#9;&#9;&#9;c-2,1.3-3.5,3.4-4.1,5.9l-75.6-10.4c0-0.5,0.1-1.1,0.1-1.6c0-6-3-11.2-7.5-14.4L49,311.2c1.3,0.7,2.8,1.1,4.4,1.1&#10;&#9;&#9;&#9;&#9;c5.2,0,9.5-4.3,9.5-9.5c0-5.2-4.3-9.5-9.5-9.5s-9.5,4.3-9.5,9.5c0,3.1,1.5,5.8,3.8,7.6l-10.3,16.3c-2.6-1.5-5.5-2.3-8.7-2.3&#10;&#9;&#9;&#9;&#9;c-2.7,0-5.2,0.6-7.4,1.7L4.5,294.1c2.7-1.7,4.4-4.6,4.4-8c0-5.2-4.3-9.5-9.5-9.5s-9.5,4.3-9.5,9.5s4.3,9.5,9.5,9.5&#10;&#9;&#9;&#9;&#9;c1.3,0,2.5-0.3,3.7-0.7l16.6,31.9c-5.2,3.1-8.8,8.7-8.8,15.2c0,4.5,1.7,8.6,4.4,11.7l-19.3,18.7c-1.7-1.4-3.8-2.3-6.2-2.3&#10;&#9;&#9;&#9;&#9;c-5.2,0-9.5,4.3-9.5,9.5c0,5.2,4.3,9.5,9.5,9.5c5.2,0,9.5-4.3,9.5-9.5c0-2.3-0.8-4.4-2.2-6l19.3-18.7c3.2,3,7.4,4.8,12,4.8&#10;&#9;&#9;&#9;&#9;c0.2,0,0.4,0,0.6,0l6,76.4c-4.5,0.7-8,4.6-8,9.4c0,5.2,4.3,9.5,9.5,9.5c4.5,0,8.2-3.1,9.2-7.2l67.6,10.8c-0.1,0.6-0.1,1.3-0.1,2&#10;&#9;&#9;&#9;&#9;c0,3.5,1,6.7,2.8,9.4l-50.5,35.5c-1.7-2.1-4.4-3.4-7.3-3.4c-5.2,0-9.5,4.3-9.5,9.5c0,5.2,4.3,9.5,9.5,9.5c0.7,0,1.3-0.1,1.9-0.2&#10;&#9;&#9;&#9;&#9;L74,567.8c-6.7,2.3-11.5,8.5-11.8,15.8H43.2c-0.4-4.9-4.5-8.7-9.5-8.7c-5.2,0-9.5,4.3-9.5,9.5c0,5.2,4.3,9.5,9.5,9.5&#10;&#9;&#9;&#9;&#9;c5,0,9.1-3.8,9.5-8.7h18.9c0.4,9.3,8.1,16.8,17.6,16.8c2.3,0,4.5-0.4,6.5-1.2l19.1,42.5c-2.9,1.6-4.9,4.7-4.9,8.3&#10;&#9;&#9;&#9;&#9;c0,2.6,1.1,5,2.8,6.8l-46.2,55.3c-1.1-0.7-2.4-1.1-3.7-1.1c-3.8,0-6.8,3.1-6.8,6.8c0,3.8,3.1,6.8,6.8,6.8c3.8,0,6.8-3.1,6.8-6.8&#10;&#9;&#9;&#9;&#9;c0-1.8-0.7-3.5-1.9-4.7l46.2-55.4c1.4,1,3.1,1.6,4.9,1.7l3,120.3c-3.3,0.5-5.9,3.3-5.9,6.8c0,3.8,3.1,6.8,6.8,6.8&#10;&#9;&#9;&#9;&#9;C117.1,795,120.1,792,120.1,788.2z M93.2,284.5c1.8-1.2,2.9-3.3,2.9-5.6c0-1.2-0.3-2.3-0.9-3.3l38-27.2c1.7,2,4.3,3.3,7.2,3.3&#10;&#9;&#9;&#9;&#9;c5.2,0,9.5-4.3,9.5-9.5c0-0.8-0.1-1.6-0.3-2.4l24.2-8.6c2.6,6.4,8.9,11,16.3,11c2.1,0,4.1-0.4,6-1.1l7.2,17.4&#10;&#9;&#9;&#9;&#9;c-3,1.6-5.1,4.8-5.1,8.4c0,5.1,4,9.2,9.1,9.5l2.7,71.5c-3.1,0.3-5.9,1.3-8.4,2.9l-13.3-18c2-1.7,3.2-4.3,3.2-7.1&#10;&#9;&#9;&#9;&#9;c0-5.2-4.3-9.5-9.5-9.5c-5.2,0-9.5,4.3-9.5,9.5c0,5.2,4.3,9.5,9.5,9.5c1.8,0,3.5-0.5,5-1.4l13.3,18c-3.3,2.7-5.5,6.5-6.2,10.8&#10;&#9;&#9;&#9;&#9;l-53.7-6.3c0-0.1,0-0.2,0-0.3c0-5.2-4.3-9.5-9.5-9.5c-1.3,0-2.6,0.3-3.8,0.8L93.2,284.5z M46.1,446c0-0.2,0-0.5,0-0.7&#10;&#9;&#9;&#9;&#9;c0-5.2-4.2-9.5-9.4-9.5l-6-76.3c7.6-0.9,13.8-6.8,15.1-14.3l75.6,10.4c0,0.2,0,0.3,0,0.5c0,5,3.8,9.1,8.7,9.5v77.2&#10;&#9;&#9;&#9;&#9;c-3,0.1-5.7,1-8.2,2.4l-26.8-41c2.2-1.7,3.6-4.4,3.6-7.5c0-5.2-4.3-9.5-9.5-9.5c-5.2,0-9.5,4.3-9.5,9.5c0,5.2,4.3,9.5,9.5,9.5&#10;&#9;&#9;&#9;&#9;c1.6,0,3.2-0.4,4.5-1.1l26.8,41c-3.5,2.5-6,6.3-6.9,10.7L46.1,446z" style="fill: rgb(62, 163, 219); fill-opacity: 0.28;"/>
		</g>
	</g>
</svg>