<svg height="512pt" viewBox="0 0 512 512" width="512pt" xmlns="http://www.w3.org/2000/svg"><path d="m504.394531 256c0 137.1875-111.210937 248.398438-248.398437 248.398438-137.183594 0-248.394532-111.210938-248.394532-248.398438 0-137.183594 111.210938-248.394531 248.394532-248.394531 137.1875 0 248.398437 111.210937 248.398437 248.394531zm0 0" fill="#1a94ba"/><path d="m255.996094 488.175781c-62.015625 0-120.320313-24.152343-164.171875-68.003906-43.851563-43.851563-68-102.152344-68-164.171875 0-62.015625 24.148437-120.320312 68-164.171875 43.851562-43.851563 102.15625-68 164.171875-68s120.320312 24.148437 164.171875 68c43.851562 43.855469 68.003906 102.15625 68.003906 164.171875s-24.152344 120.320312-68.003906 164.171875c-43.851563 43.851563-102.15625 68.003906-164.171875 68.003906zm0 0" fill="#6dccf2"/><path d="m298.804688 246.566406c-25.316407 19.789063-25.777344 33.597656-25.777344 57.535156 0 8.742188-4.601563 18.871094-27.15625 18.871094-18.871094 0-25.316406-6.90625-25.316406-30.839844 0-39.585937 17.492187-58.453124 30.839843-69.960937 15.1875-12.886719 40.964844-27.15625 40.964844-52.011719 0-21.175781-18.410156-31.300781-41.425781-31.300781-46.949219 0-36.824219 35.441406-61.675782 35.441406-12.429687 0-27.617187-8.285156-27.617187-26.238281 0-24.851562 28.535156-61.675781 90.675781-61.675781 58.914063 0 98.039063 32.679687 98.039063 75.945312 0 43.269531-39.125 74.566407-51.550781 84.234375zm-17.03125 143.605469c0 18.871094-15.648438 35.441406-35.441407 35.441406s-34.980469-16.570312-34.980469-35.441406c0-19.332031 15.648438-35.441406 34.980469-35.441406 19.328125 0 35.441407 16.109375 35.441407 35.441406zm0 0" fill="#e6e6e6"/><path d="m437.019531 74.980469c-48.351562-48.351563-112.640625-74.980469-181.019531-74.980469-61.554688 0-121.039062 22.160156-167.5 62.402344-3.175781 2.75-3.519531 7.554687-.769531 10.726562 2.75 3.175782 7.550781 3.519532 10.726562.769532 43.695313-37.847657 99.644531-58.691407 157.542969-58.691407 64.316406 0 124.785156 25.046875 170.265625 70.527344s70.527344 105.949219 70.527344 170.265625-25.046875 124.785156-70.527344 170.265625-105.949219 70.527344-170.265625 70.527344-124.785156-25.046875-170.265625-70.527344-70.527344-105.949219-70.527344-170.265625c0-59.824219 22.082031-117.175781 62.183594-161.484375 2.816406-3.113281 2.574219-7.921875-.539063-10.742187-3.113281-2.816407-7.921874-2.578126-10.738281.539062-42.632812 47.109375-66.113281 108.082031-66.113281 171.6875 0 68.378906 26.628906 132.667969 74.980469 181.019531 48.351562 48.351563 112.640625 74.980469 181.019531 74.980469s132.667969-26.628906 181.019531-74.980469c48.351563-48.351562 74.980469-112.640625 74.980469-181.019531s-26.628906-132.667969-74.980469-181.019531zm0 0"/><path d="m246.332031 347.125c-23.480469 0-42.585937 19.3125-42.585937 43.046875s19.105468 43.046875 42.585937 43.046875c11.527344 0 22.382813-4.585938 30.566407-12.917969 7.929687-8.074219 12.480468-19.054687 12.480468-30.128906 0-11.378906-4.511718-22.15625-12.699218-30.347656-8.191407-8.1875-18.96875-12.699219-30.347657-12.699219zm0 70.886719c-15.097656 0-27.378906-12.488281-27.378906-27.839844s12.28125-27.839844 27.378906-27.839844c15.089844 0 27.835938 12.75 27.835938 27.839844s-12.746094 27.839844-27.835938 27.839844zm0 0"/><path d="m319.605469 228.371094c3.167969 2.765625 7.96875 2.4375 10.730469-.726563 18.324218-20.992187 27.617187-42.96875 27.617187-65.316406 0-23.566406-10.585937-44.929687-29.804687-60.152344-19.320313-15.300781-45.539063-23.386719-75.828126-23.386719-37.46875 0-60.644531 12.648438-73.484374 23.257813-15.527344 12.828125-24.800782 30.03125-24.800782 46.015625 0 10.390625 4.253906 19.542969 11.980469 25.773438 6.359375 5.128906 14.828125 8.070312 23.242187 8.070312 14.496094 0 20.851563-9.371094 25.957032-16.902344 6.46875-9.535156 12.574218-18.542968 35.71875-18.542968 7.933594 0 33.820312 1.710937 33.820312 23.695312 0 16.59375-15.339844 28.371094-28.875 38.761719-3.34375 2.5625-6.5 4.988281-9.445312 7.488281-15.585938 13.433594-33.480469 34.183594-33.480469 75.726562 0 23.074219 5.597656 38.445313 32.921875 38.445313 12.101562 0 21.238281-2.742187 27.15625-8.148437 4.96875-4.539063 7.597656-10.878907 7.597656-18.335938 0-22.414062 0-33.664062 22.859375-51.542969l.390625-.304687c1.007813-.785156 2.171875-1.695313 3.453125-2.730469 3.269531-2.636719 3.78125-7.421875 1.144531-10.691406-2.636718-3.269531-7.421874-3.78125-10.691406-1.144531-1.214844.980468-2.3125 1.835937-3.261718 2.578124l-.402344.3125c-27.367188 21.40625-28.699219 37.292969-28.699219 63.527344 0 3.371094 0 11.273438-19.546875 11.273438-9.546875 0-12.453125-1.996094-13.917969-3.738282-2.554687-3.035156-3.796875-9.414062-3.796875-19.5 0-35.160156 14.257813-52.1875 28.15625-64.167968 2.621094-2.222656 5.632813-4.535156 8.824219-6.984375 15.511719-11.910157 34.824219-26.734375 34.824219-50.824219 0-23.632812-19.246094-38.902344-49.03125-38.902344-31.203125 0-41.085938 14.574219-48.304688 25.214844-4.933594 7.277344-7.183594 10.230469-13.371094 10.230469-8.042968 0-20.011718-4.964844-20.011718-18.636719 0-8.878906 5.0625-22.550781 19.277344-34.292969 10.921874-9.019531 30.851562-19.777343 63.800781-19.777343 53.242187 0 90.421875 28.101562 90.421875 68.335937 0 18.5625-8.027344 37.171875-23.863282 55.316406-2.765624 3.164063-2.4375 7.964844.722657 10.726563zm0 0"/></svg>