<?xml version="1.0"?>
<svg xmlns="http://www.w3.org/2000/svg" xmlns:xlink="http://www.w3.org/1999/xlink" version="1.1" id="Layer_1" x="0px" y="0px" viewBox="0 0 451.32 451.32" style="enable-background:new 0 0 451.32 451.32;" xml:space="preserve" width="512px" height="512px" class=""><g><g>
	<path style="fill:#CBA1FF" d="M394.13,38.361v390.236c0,12.528-10.195,22.723-22.723,22.723H79.915   c-6.322,0-12.044-2.594-16.169-6.777c-4.057-4.105-6.555-9.74-6.555-15.946V38.361c0-12.528,10.195-22.724,22.723-22.724h291.491   c6.196,0,11.822,2.489,15.927,6.535C391.526,26.297,394.13,32.029,394.13,38.361" data-original="#EA4262" class="" data-old_color="#EA4262"/>
	<path style="fill:#E5DBF2" d="M387.33,22.174l-6.83,6.83l-302,399.74l-14.75,15.8c-4.06-4.11-6.56-9.74-6.56-15.95V38.364   c0-12.53,10.2-22.73,22.73-22.73h291.49C377.6,15.634,383.23,18.124,387.33,22.174" data-original="#FFCACF" class="" data-old_color="#FFCACF"/>
	<path style="fill:#A188A8" d="M66.877,428.167V38.785c0-7.439,6.03-13.468,13.468-13.468H370.98   c7.438,0,13.468,6.03,13.468,13.468v389.382c0,7.439-6.03,13.468-13.468,13.468H80.346   C72.907,441.636,66.877,435.606,66.877,428.167" data-original="#FF5069" class="" data-old_color="#FF5069"/>
	<polyline style="fill:#CBA1FF" points="84.039,428.081 367.287,428.081 367.287,67.917 84.039,67.917 84.039,428.081  " data-original="#EA4262" class="" data-old_color="#EA4262"/>
	<polyline style="fill:#E6E6E6;" points="84.039,413.558 367.287,413.558 367.287,53.394 84.039,53.394 84.039,413.558  " data-original="#E6E6E6" class=""/>
	<rect x="144.336" y="120.506" style="fill:#666666;" width="162.655" height="19.364" data-original="#666666" class=""/>
	<rect x="144.336" y="161.821" style="fill:#666666;" width="162.655" height="19.364" data-original="#666666" class=""/>
	<rect x="144.336" y="203.137" style="fill:#666666;" width="162.655" height="19.364" data-original="#666666" class=""/>
	<rect x="144.336" y="244.452" style="fill:#666666;" width="162.655" height="19.364" data-original="#666666" class=""/>
	<rect x="144.336" y="285.767" style="fill:#666666;" width="162.655" height="19.364" data-original="#666666" class=""/>
	<polyline style="fill:#AC9496;" points="295.17,15.634 166.17,15.634 166.17,25.317 295.17,25.317 295.17,15.634  " data-original="#AC9496" class=""/>
	<polyline style="fill:#8A8A8A" points="295.17,25.317 166.17,25.317 166.17,53.394 295.17,53.394 295.17,25.317  " data-original="#AC5C67" class="active-path" data-old_color="#AC5C67"/>
	<path style="fill:#A1A1A1;" d="M295.17,53.394h-129v18.36c0,5.29,2.44,10.02,6.26,13.12c2.9,2.34,6.6,3.75,10.62,3.75h95.23   c9.33,0,16.89-7.56,16.89-16.87L295.17,53.394" data-original="#A1A1A1" class=""/>
	<path style="fill:#969696" d="M290.166,0v67.12c0,9.32-7.56,16.88-16.89,16.88h-95.23c-4.02,0-7.72-1.41-10.62-3.76   c-3.82-3.09-6.26-7.82-6.26-13.12V0H290.166z" data-original="#4FD3A7" class="" data-old_color="#4FD3A7"/>
	<path style="fill:#E2E2E2" d="M290.166,0l-10,10l-96.5,54l-16.24,16.24c-3.82-3.09-6.26-7.82-6.26-13.12V0H290.166z" data-original="#C3FCE7" class="" data-old_color="#C3FCE7"/>
	<path style="fill:#CECECE" d="M178.045,74c-3.795,0-6.882-3.087-6.882-6.883V10h108.999v57.117c0,3.795-3.087,6.883-6.882,6.883   C273.28,74,178.045,74,178.045,74z" data-original="#60E8BE" class="" data-old_color="#60E8BE"/>
	<path style="fill:#969696" d="M277.666,42c0,5.89-2.3,11.43-6.46,15.58c-4.14,4.13-9.66,6.42-15.54,6.42h-60   c-3.46,0-6.91-0.83-9.98-2.39c-3.42-1.74-6.24-4.28-8.3-7.33c-2.38-3.55-3.72-7.8-3.72-12.28c0-5.88,2.29-11.41,6.44-15.56   c4.15-4.15,9.68-6.44,15.56-6.44h60c6.82,0,13.1,3.09,17.21,8.29c0.91,1.15,1.72,2.39,2.4,3.73   C276.836,35.09,277.666,38.54,277.666,42z" data-original="#4FD3A7" class="" data-old_color="#4FD3A7"/>
	<path style="fill:#E2E2E2" d="M277.666,42c0,5.89-2.3,11.43-6.46,15.58c-4.14,4.13-9.66,6.42-15.54,6.42h-60   c-3.46,0-6.91-0.83-9.98-2.39c-3.42-1.74-6.24-4.28-8.3-7.33L191.666,40h69.5l11.71-11.71c0.91,1.15,1.72,2.39,2.4,3.73   C276.836,35.09,277.666,38.54,277.666,42z" data-original="#C3FCE7" class="" data-old_color="#C3FCE7"/>
	<path style="fill:#CCB1FF" d="M267.666,42c0,3.32-1.34,6.32-3.52,8.49c-2.17,2.17-5.17,3.51-8.48,3.51h-60   c-1.96,0-3.81-0.47-5.44-1.3c-3.89-1.98-6.56-6.03-6.56-10.7c0-3.32,1.34-6.32,3.51-8.49s5.17-3.51,8.49-3.51h60   c4.67,0,8.72,2.67,10.7,6.56C267.196,38.19,267.666,40.04,267.666,42z" data-original="#C14456" class="" data-old_color="#C14456"/>
	<path style="fill:#A188A8" d="M267.666,42c0,3.32-1.34,6.32-3.52,8.49c-2.17,2.17-5.17,3.51-8.48,3.51h-60   c-1.96,0-3.81-0.47-5.44-1.3c-0.84-1.64-1.31-3.49-1.31-5.45c0-3.31,1.34-6.31,3.51-8.49c2.18-2.17,5.18-3.51,8.49-3.51h60   c1.96,0,3.81,0.47,5.45,1.31C267.196,38.19,267.666,40.04,267.666,42z" data-original="#FF5069" class="" data-old_color="#FF5069"/>
	<polygon style="fill:#A188A8" points="343.771,352.155 343.771,375.111 322.248,375.111 322.248,396.636 299.29,396.636    299.29,375.111 277.767,375.111 277.767,352.155 299.29,352.155 299.29,330.632 322.248,330.632 322.248,352.155  " data-original="#FF5069" class="" data-old_color="#FF5069"/>
</g></g> </svg>
