<?xml version="1.0" encoding="utf-8"?>
<svg id="master-artboard" viewBox="0 0 1400 980" version="1.1" xmlns="http://www.w3.org/2000/svg" x="0px" y="0px" style="enable-background:new 0 0 1400 980;" width="1400px" height="980px" xmlns:xlink="http://www.w3.org/1999/xlink">

<g transform="matrix(1, 0, 0, 1, 0, 0)">
		<path d="M 92 94.800003 H 455.799988 V 458.599991 H 92 V 94.800003 Z" class="st0" style="fill: rgb(83, 187, 253);"/>
		<g class="st1" style="opacity: 0.15;">
			<g>
				<defs>
					<path d="M 157.300003 102.900002 H 455.800003 V 458.600014 H 157.300003 V 102.900002 Z" id="SVGID_1_"/>
				</defs>
				<clipPath id="SVGID_2_">
					<use style="overflow:visible;" xlink:href="#SVGID_1_"/>
				</clipPath>
				<path class="st2" d="M169.9,426.1l37.2,32.5h248.7V199.9l-135.5-97l-3,10.4c0,0,20.8,17.7,22.5,29.6c1.7,12-28.3-26.3-87.3,34.3&#10;&#9;&#9;&#9;&#9;&#9;c0,0-51.3,24.8-11,76.6C241.4,253.8,118.3,351.3,169.9,426.1" style="clip-path: url('#SVGID_2_'); fill: rgb(35, 31, 32);"/>
			</g>
		</g>
		<g class="st1" style="opacity: 0.15;">
			<g>
				<defs>
					<path d="M 171.300003 261.299988 H 455.800003 V 458.599991 H 171.300003 V 261.299988 Z" id="SVGID_3_"/>
				</defs>
				<clipPath id="SVGID_4_">
					<use style="overflow:visible;" xlink:href="#SVGID_3_"/>
				</clipPath>
				<path class="st3" d="M455.8,458.6V338.7l-89.7-77.4c0,0-55.9,98.7-99.1,142.3c-59,59.6-95.8,19.4-95.8,19.4l2.3,6.4l33.6,29.3&#10;&#9;&#9;&#9;&#9;&#9;H455.8z" style="clip-path: url('#SVGID_4_'); fill: rgb(35, 31, 32);"/>
			</g>
		</g>
		<path class="st4" d="M169.9,426.1c-11.1-10-17-22.7-17.5-37.8c-0.4-14,3.9-30.3,12.8-48.2c7-14.2,16.9-29.5,29.4-45.5&#10;&#9;&#9;&#9;c21.2-27.2,42.9-47.4,43.2-47.6c1.5-1.4,3.9-1.3,5.3,0.2c1.4,1.5,1.3,3.9-0.2,5.3c-0.2,0.2-21.6,20.1-42.4,46.8&#10;&#9;&#9;&#9;c-27.2,34.9-41.3,65.6-40.6,88.8c0.4,14,5.9,25.1,16.8,34.1c12.3,10.1,25.4,13.4,40,10.1c26.8-6.1,58.4-35.3,91.2-84.5&#10;&#9;&#9;&#9;c25.1-37.6,42.2-73.8,42.3-74.2c0.9-1.9,3.1-2.7,5-1.8c1.9,0.9,2.7,3.1,1.8,5c-0.2,0.4-17.4,37-42.8,75.1&#10;&#9;&#9;&#9;c-15,22.4-29.8,41-44.1,55.1c-18.1,18-35.6,28.9-51.8,32.6c-16.8,3.8-32.4-0.1-46.4-11.6C171.3,427.3,170.6,426.7,169.9,426.1" style="fill: rgb(59, 7, 9); stroke: rgb(59, 7, 9); stroke-miterlimit: 10;"/>
		<path class="st5" d="M367.5,287.5c-6.9,7.6-18.6,8.3-26.2,1.4c-7.6-6.9-8.3-18.6-1.4-26.2c6.9-7.6,18.6-8.3,26.2-1.4&#10;&#9;&#9;&#9;C373.8,268.1,374.4,279.9,367.5,287.5" style="fill: rgb(178, 21, 27); stroke: rgb(59, 7, 9); stroke-miterlimit: 10;"/>
		<path class="st6" d="M360.7,281.4c-3.5,3.9-9.5,4.2-13.3,0.7c-3.9-3.5-4.2-9.5-0.7-13.3c3.5-3.9,9.5-4.2,13.3-0.7&#10;&#9;&#9;&#9;C363.9,271.6,364.2,277.5,360.7,281.4" style="fill: rgb(239, 239, 239); stroke: rgb(59, 7, 9); stroke-miterlimit: 10;"/>
		<path class="st6" d="M235,192.9c-1.4-1.3-1.7-3.4-0.5-5c6.5-8.9,17.6-21.7,33.3-32.7c14.8-10.3,30.1-16.3,45.4-17.9&#10;&#9;&#9;&#9;c23.1-2.4,44.9,5.5,64.9,23.4c1.5,1.4,1.7,3.8,0.3,5.3c-1.4,1.5-3.8,1.7-5.3,0.3c-18.3-16.5-38.2-23.7-59.1-21.6&#10;&#9;&#9;&#9;c-38.7,4-66,37.4-73.4,47.6c-1.2,1.7-3.6,2-5.2,0.8C235.2,193.1,235.1,193,235,192.9" style="fill: rgb(239, 239, 239); stroke: rgb(59, 7, 9); stroke-miterlimit: 10;"/>
		<path class="st5" d="M370.3,170.9L370.3,170.9c-2.6-2.3-2.8-6.3-0.5-8.9l3.1-3.4c2.3-2.6,6.3-2.8,8.9-0.5c2.6,2.3,2.8,6.3,0.5,8.9&#10;&#9;&#9;&#9;l-3.1,3.4C376.9,173,372.9,173.3,370.3,170.9" style="fill: rgb(178, 21, 27); stroke: rgb(59, 7, 9); stroke-miterlimit: 10;"/>
		<path class="st6" d="M302.2,253.4c-0.1-0.1-0.2-0.2-0.3-0.3c-1.4-1.5-1.3-3.9,0.2-5.3c9.3-8.5,39.6-39.2,39.4-78.1&#10;&#9;&#9;&#9;c-0.1-21-9.4-40-27.8-56.5c-1.5-1.4-1.7-3.8-0.3-5.3c1.4-1.5,3.8-1.7,5.3-0.3c20,17.9,30.2,38.8,30.3,62&#10;&#9;&#9;&#9;c0.1,15.4-4.3,31.2-12.9,47c-9.2,16.8-20.8,29.2-28.9,36.6C305.8,254.7,303.6,254.7,302.2,253.4" style="fill: rgb(239, 239, 239); stroke: rgb(59, 7, 9); stroke-miterlimit: 10;"/>
		<path class="st5" d="M308.8,115.7L308.8,115.7c2.6,2.3,6.6,2.1,8.9-0.5l3.1-3.4c2.3-2.6,2.1-6.6-0.5-8.9c-2.6-2.3-6.6-2.1-8.9,0.5&#10;&#9;&#9;&#9;l-3.1,3.4C306,109.4,306.2,113.4,308.8,115.7" style="fill: rgb(178, 21, 27); stroke: rgb(59, 7, 9); stroke-miterlimit: 10;"/>
		<path class="st5" d="M310.5,243.9c-2.3-2.1-5.9-1.9-8,0.4c-14.7,16.4-40,17.7-56.4,3c-16.4-14.7-17.7-40-3-56.4&#10;&#9;&#9;&#9;c2.1-2.3,1.9-5.9-0.4-8c-2.3-2.1-5.9-1.9-7.9,0.4c-17.3,19.2-17.3,48.1-1,67.3c-1.2,1.2-2.6,2.6-4.2,4.2l5.6,5&#10;&#9;&#9;&#9;c1.5-1.5,2.8-2.8,3.9-3.9c21,18.5,53.1,16.6,71.9-4.2C313.1,249.6,312.9,246,310.5,243.9z" style="fill: rgb(178, 21, 27); stroke: rgb(59, 7, 9); stroke-miterlimit: 10;"/>
	</g><path d="M 944.200012 94.800003 H 1308 V 458.599991 H 944.200012 V 94.800003 Z" class="st0" style="fill: rgb(83, 187, 253);" transform="matrix(1, 0, 0, 1, 0, 0)"/><g transform="matrix(1, 0, 0, 1, 0, 0)" style="opacity: 0.15;">
				<defs>
					<path d="M 1019.200012 146.899994 H 1308.100006 V 458.699982 H 1019.200012 V 146.899994 Z" id="SVGID_5_"/>
				</defs>
				<clipPath id="SVGID_6_">
					<use style="overflow:visible;" xlink:href="#SVGID_5_"/>
				</clipPath>
				<path d="M 1187.300048828125 146.8000030517578 L 1019.0999755859375 419.20001220703125 L 1076.800048828125 458.6000061035156 L 1308 458.6000061035156 L 1308 232.39999389648438 Z" class="st7" style="clip-path: url('#SVGID_6_'); fill: rgb(35, 31, 32);"/>
			</g><path class="st4" d="M1019.1,419.2l-9.5-5.6c-1.8-1.1-2.4-3.5-1.3-5.3l5.2-8.7c1.1-1.8,3.5-2.4,5.3-1.3l9.5,5.6&#10;&#9;&#9;&#9;c1.8,1.1,2.4,3.5,1.3,5.3l-5.2,8.7C1023.3,419.7,1021,420.3,1019.1,419.2" style="fill: rgb(59, 7, 9); stroke: rgb(59, 7, 9); stroke-miterlimit: 10;" transform="matrix(1, 0, 0, 1, 0, 0)"/><path d="M 1171.199951 178.600006 H 1176.299951 V 179.200006 H 1171.199951 V 178.600006 Z" transform="matrix(0.8600000143051147, 0.5103999972343445, -0.5103999972343445, 0.8600000143051147, 255.6488075204015, -573.9943933188079)" class="st8" style="fill: rgb(183, 184, 186);"/><path d="M 1163.599976 191.399994 H 1168.699975 V 191.999994 H 1163.599976 V 191.399994 Z" transform="matrix(0.8597000241279602, 0.5108000040054321, -0.5108000040054321, 0.8597000241279602, 261.5213051665023, -568.7783898231146)" class="st8" style="fill: rgb(183, 184, 186);"/><path d="M 1165.599976 185.699997 H 1173.399976 V 186.299997 H 1165.599976 V 185.699997 Z" transform="matrix(0.8598000407218933, 0.510699987411499, -0.510699987411499, 0.8598000407218933, 258.9584999525322, -571.1854943511707)" class="st8" style="fill: rgb(183, 184, 186);"/><path d="M 1159 196.800003 H 1166.8 V 197.400003 H 1159 V 196.800003 Z" transform="matrix(0.8597000241279602, 0.5108000040054321, -0.5108000040054321, 0.8597000241279602, 263.8469887949077, -566.3485802165951)" class="st8" style="fill: rgb(183, 184, 186);"/><path d="M 1155.5 205 H 1160.6 V 205.6 H 1155.5 V 205 Z" transform="matrix(0.8597000241279602, 0.510699987411499, -0.510699987411499, 0.8597000241279602, 267.28989045753906, -562.6519859232303)" class="st8" style="fill: rgb(183, 184, 186);"/><path d="M 1086.800049 320.700012 H 1091.900049 V 321.300012 H 1086.800049 V 320.700012 Z" transform="matrix(0.8595000505447388, 0.511199951171875, -0.511199951171875, 0.8595000505447388, 317.1265916396169, -511.7330093344004)" class="st8" style="fill: rgb(183, 184, 186);"/><path d="M 1082.199951 326.100006 H 1089.999951 V 326.700006 H 1082.199951 V 326.100006 Z" transform="matrix(0.8596000075340271, 0.5108999609947205, -0.5108999609947205, 0.8596000075340271, 319.2336168174984, -509.10071559400427)" class="st8" style="fill: rgb(183, 184, 186);"/><path d="M 1078.699951 334.299988 H 1083.799951 V 334.899988 H 1078.699951 V 334.299988 Z" transform="matrix(0.8595000505447388, 0.511199951171875, -0.511199951171875, 0.8595000505447388, 322.96509270317983, -505.67600240820644)" class="st8" style="fill: rgb(183, 184, 186);"/><path d="M 1071.099976 347.100006 H 1076.199975 V 347.700006 H 1071.099976 V 347.100006 Z" transform="matrix(0.8597000241279602, 0.5108000040054321, -0.5108000040054321, 0.8597000241279602, 328.1011096254156, -499.6730115960986)" class="st8" style="fill: rgb(183, 184, 186);"/><path d="M 1073.099976 341.399994 H 1080.899976 V 341.999994 H 1073.099976 V 341.399994 Z" transform="matrix(0.8597000241279602, 0.5108000040054321, -0.5108000040054321, 0.8597000241279602, 325.6825915229706, -502.2430189586135)" class="st8" style="fill: rgb(183, 184, 186);"/><path d="M 1066.400024 352.600006 H 1074.200025 V 353.200006 H 1066.400024 V 352.600006 Z" transform="matrix(0.8597000241279602, 0.5108000040054321, -0.5108000040054321, 0.8597000241279602, 330.371892129956, -497.19669319982364)" class="st8" style="fill: rgb(183, 184, 186);"/><path d="M 1063 360.799988 H 1068.1 V 361.399988 H 1063 V 360.799988 Z" transform="matrix(0.8598999977111816, 0.5105000138282776, -0.5105000138282776, 0.8598999977111816, 333.56781502914146, -493.30579348364154)" class="st8" style="fill: rgb(183, 184, 186);"/><path d="M 1055.300049 373.600006 H 1060.400049 V 374.200006 H 1055.300049 V 373.600006 Z" transform="matrix(0.8597000241279602, 0.5108000040054321, -0.5108000040054321, 0.8597000241279602, 339.43549089782664, -487.94370233928703)" class="st8" style="fill: rgb(183, 184, 186);"/><path d="M 1057.400024 367.899994 H 1065.200025 V 368.499994 H 1057.400024 V 367.899994 Z" transform="matrix(0.8598000407218933, 0.510699987411499, -0.510699987411499, 0.8598000407218933, 336.7999012589439, -490.3295055974945)" class="st8" style="fill: rgb(183, 184, 186);"/><path d="M 1050.699951 379.100006 H 1058.499951 V 379.700006 H 1050.699951 V 379.100006 Z" transform="matrix(0.8597000241279602, 0.5108000040054321, -0.5108000040054321, 0.8597000241279602, 341.77921041517266, -485.53070791856504)" class="st8" style="fill: rgb(183, 184, 186);"/><path class="st6" d="M1187.3,146.8l-18.4-10.9c-7.7-4.6-17.6-2-22.2,5.7l-130.9,220.3c-4.6,7.7-2,17.6,5.7,22.2l2.2,1.3&#10;&#9;&#9;&#9;&#9;l-12.2,20.5l14,8.3l12.2-20.5l2.2,1.3c7.7,4.6,17.6,2,22.2-5.7L1193,169C1197.6,161.3,1195,151.4,1187.3,146.8z" style="fill: rgb(239, 239, 239); stroke: rgb(59, 7, 9); stroke-miterlimit: 10;" transform="matrix(1, 0, 0, 1, 0, 0)"/><path class="st5" d="M1019.1,419.2l-9.5-5.6c-1.8-1.1-2.4-3.5-1.3-5.3l5.2-8.7c1.1-1.8,3.5-2.4,5.3-1.3l9.5,5.6&#10;&#9;&#9;&#9;&#9;c1.8,1.1,2.4,3.5,1.3,5.3l-5.2,8.7C1023.3,419.7,1021,420.3,1019.1,419.2" style="fill: rgb(178, 21, 27); stroke: rgb(59, 7, 9); stroke-miterlimit: 10;" transform="matrix(1, 0, 0, 1, 0, 0)"/><path d="M 1171.199951 178.5 H 1176.299951 V 179.1 H 1171.199951 V 178.5 Z" transform="matrix(0.8600000143051147, 0.5103999972343445, -0.5103999972343445, 0.8600000143051147, 255.63310622622222, -573.9987268149662)" class="st9" style="fill: rgb(178, 21, 27);"/><path d="M 1163.599976 191.399994 H 1168.699975 V 191.999994 H 1163.599976 V 191.399994 Z" transform="matrix(0.8597000241279602, 0.510699987411499, -0.510699987411499, 0.8597000241279602, 261.4440041399598, -568.7094811306815)" class="st9" style="fill: rgb(178, 21, 27);"/><path d="M 1165.599976 185.600006 H 1173.499976 V 186.200006 H 1165.599976 V 185.600006 Z" transform="matrix(0.8597000241279602, 0.5108000040054321, -0.5108000040054321, 0.8597000241279602, 259.0671120146976, -571.339425017527)" class="st9" style="fill: rgb(178, 21, 27);"/><path d="M 1159 196.800003 H 1166.8 V 197.400003 H 1159 V 196.800003 Z" transform="matrix(0.8597000241279602, 0.5108000040054321, -0.5108000040054321, 0.8597000241279602, 263.78979885264926, -566.3035973057686)" class="st9" style="fill: rgb(178, 21, 27);"/><path d="M 1155.5 205 H 1160.6 V 205.6 H 1155.5 V 205 Z" transform="matrix(0.8597000241279602, 0.5108000040054321, -0.5108000040054321, 0.8597000241279602, 267.33920686452393, -562.7313316275377)" class="st9" style="fill: rgb(178, 21, 27);"/><path d="M 1147.900024 217.800003 H 1153.000024 V 218.400003 H 1147.900024 V 217.800003 Z" transform="matrix(0.8600000143051147, 0.5103999972343445, -0.5103999972343445, 0.8600000143051147, 272.4081156314628, -556.5728232349875)" class="st9" style="fill: rgb(178, 21, 27);"/><path d="M 1149.900024 212.100006 H 1157.700025 V 212.700006 H 1149.900024 V 212.100006 Z" transform="matrix(0.8597000241279602, 0.5108000040054321, -0.5108000040054321, 0.8597000241279602, 270.317814086643, -559.5206992554768)" class="st9" style="fill: rgb(178, 21, 27);"/><path d="M 1143.199951 223.300003 H 1151.099951 V 223.900003 H 1143.199951 V 223.300003 Z" transform="matrix(0.8598000407218933, 0.5105999708175659, -0.5105999708175659, 0.8598000407218933, 274.9906962363525, -554.4343954687474)" class="st9" style="fill: rgb(178, 21, 27);"/><path d="M 1139.800049 231.5 H 1144.900049 V 232.1 H 1139.800049 V 231.5 Z" transform="matrix(0.8597000241279602, 0.5108000040054321, -0.5108000040054321, 0.8597000241279602, 278.6433146989839, -550.9743124093757)" class="st9" style="fill: rgb(178, 21, 27);"/><path d="M 1132.099976 244.300003 H 1137.199975 V 244.900003 H 1132.099976 V 244.300003 Z" transform="matrix(0.8598999977111816, 0.5105000138282776, -0.5105000138282776, 0.8598999977111816, 283.85269588012534, -544.9899983553587)" class="st9" style="fill: rgb(178, 21, 27);"/><path d="M 1134.199951 238.600006 H 1141.999951 V 239.200006 H 1134.199951 V 238.600006 Z" transform="matrix(0.8598000407218933, 0.5105999708175659, -0.5105999708175659, 0.8598000407218933, 281.5281108845488, -547.6655355046023)" class="st9" style="fill: rgb(178, 21, 27);"/><path d="M 1127.5 249.699997 H 1135.3 V 250.299997 H 1127.5 V 249.699997 Z" transform="matrix(0.8598999977111816, 0.5105000138282776, -0.5105000138282776, 0.8598999977111816, 286.2224163744213, -542.6102986128672)" class="st9" style="fill: rgb(178, 21, 27);"/><path d="M 1124 257.899994 H 1129.1 V 258.499994 H 1124 V 257.899994 Z" transform="matrix(0.8598999977111816, 0.5105000138282776, -0.5105000138282776, 0.8598999977111816, 289.67361881842635, -538.9321369369645)" class="st9" style="fill: rgb(178, 21, 27);"/><path d="M 1116.400024 270.799988 H 1121.500024 V 271.399988 H 1116.400024 V 270.799988 Z" transform="matrix(0.8598000407218933, 0.5105999708175659, -0.5105999708175659, 0.8598000407218933, 295.253117192583, -533.3474810920279)" class="st9" style="fill: rgb(178, 21, 27);"/><path d="M 1118.400024 265 H 1126.200025 V 265.6 H 1118.400024 V 265 Z" transform="matrix(0.8596000075340271, 0.5108999609947205, -0.5108999609947205, 0.8596000075340271, 293.1272016335606, -536.2219928536115)" class="st9" style="fill: rgb(178, 21, 27);"/><path d="M 1111.800049 276.200012 H 1119.600049 V 276.800012 H 1111.800049 V 276.200012 Z" transform="matrix(0.8598000407218933, 0.5105999708175659, -0.5105999708175659, 0.8598000407218933, 297.5762983795448, -530.9182208019229)" class="st9" style="fill: rgb(178, 21, 27);"/><path d="M 1110.099976 281.299988 H 1115.199975 V 281.899988 H 1110.099976 V 281.299988 Z" transform="matrix(0.8597000241279602, 0.510699987411499, -0.510699987411499, 0.8597000241279602, 299.9071089611516, -528.791328680386)" class="st9" style="fill: rgb(178, 21, 27);"/><path d="M 1102.5 294.200012 H 1107.6 V 294.800012 H 1102.5 V 294.200012 Z" transform="matrix(0.8596000075340271, 0.5109999775886536, -0.5109999775886536, 0.8596000075340271, 305.5903060673222, -523.2977372899313)" class="st9" style="fill: rgb(178, 21, 27);"/><path d="M 1104.5 288.399994 H 1112.3 V 288.999994 H 1104.5 V 288.399994 Z" transform="matrix(0.8596000075340271, 0.5109999775886536, -0.5109999775886536, 0.8596000075340271, 303.1720015879273, -525.8723222892331)" class="st9" style="fill: rgb(178, 21, 27);"/><path d="M 1097.900024 299.600006 H 1105.700025 V 300.200006 H 1097.900024 V 299.600006 Z" transform="matrix(0.8598000407218933, 0.510699987411499, -0.510699987411499, 0.8598000407218933, 307.6413009709313, -520.6023026794537)" class="st9" style="fill: rgb(178, 21, 27);"/><path d="M 1094.400024 307.799988 H 1099.500024 V 308.399988 H 1094.400024 V 307.799988 Z" transform="matrix(0.8598000407218933, 0.5105999708175659, -0.5105999708175659, 0.8598000407218933, 311.0867966277418, -516.92029578865)" class="st9" style="fill: rgb(178, 21, 27);"/><path d="M 1086.800049 320.600006 H 1091.900049 V 321.200006 H 1086.800049 V 320.600006 Z" transform="matrix(0.8596000075340271, 0.5108999609947205, -0.5108999609947205, 0.8596000075340271, 316.89850325731186, -511.53989409714774)" class="st9" style="fill: rgb(178, 21, 27);"/><path d="M 1088.800049 314.899994 H 1096.600049 V 315.499994 H 1088.800049 V 314.899994 Z" transform="matrix(0.8597000241279602, 0.5108000040054321, -0.5108000040054321, 0.8597000241279602, 314.3528184049251, -513.9932937919093)" class="st9" style="fill: rgb(178, 21, 27);"/><path d="M 1082.199951 326.100006 H 1089.999951 V 326.700006 H 1082.199951 V 326.100006 Z" transform="matrix(0.8597000241279602, 0.5108000040054321, -0.5108000040054321, 0.8597000241279602, 319.0806932312353, -508.97901149062824)" class="st9" style="fill: rgb(178, 21, 27);"/><path d="M 1078.699951 334.299988 H 1083.799951 V 334.899988 H 1078.699951 V 334.299988 Z" transform="matrix(0.8596000075340271, 0.5109999775886536, -0.5109999775886536, 0.8596000075340271, 322.73981193810414, -505.49069967107016)" class="st9" style="fill: rgb(178, 21, 27);"/><path d="M 1071.099976 347.100006 H 1076.199975 V 347.700006 H 1071.099976 V 347.100006 Z" transform="matrix(0.8597000241279602, 0.510699987411499, -0.510699987411499, 0.8597000241279602, 328.0024157762887, -499.60379772787974)" class="st9" style="fill: rgb(178, 21, 27);"/><path d="M 1073.099976 341.399994 H 1080.899976 V 341.999994 H 1073.099976 V 341.399994 Z" transform="matrix(0.8597000241279602, 0.5108000040054321, -0.5108000040054321, 0.8597000241279602, 325.66730221610214, -502.24732193719325)" class="st9" style="fill: rgb(178, 21, 27);"/><path d="M 1066.400024 352.600006 H 1074.200025 V 353.200006 H 1066.400024 V 352.600006 Z" transform="matrix(0.8598000407218933, 0.510699987411499, -0.510699987411499, 0.8598000407218933, 330.31000248059627, -497.16040779889227)" class="st9" style="fill: rgb(178, 21, 27);"/><path d="M 1063 360.700012 H 1068.1 V 361.300012 H 1063 V 360.700012 Z" transform="matrix(0.8598999977111816, 0.5105000138282776, -0.5105000138282776, 0.8598999977111816, 333.5521900289086, -493.3100964622213)" class="st9" style="fill: rgb(178, 21, 27);"/><path d="M 1055.300049 373.600006 H 1060.400049 V 374.200006 H 1055.300049 V 373.600006 Z" transform="matrix(0.8595000505447388, 0.5110999941825867, -0.5110999941825867, 0.8595000505447388, 339.6402943676753, -488.13141596513105)" class="st9" style="fill: rgb(178, 21, 27);"/><path d="M 1057.400024 367.799988 H 1065.200025 V 368.399988 H 1057.400024 V 367.799988 Z" transform="matrix(0.8596000075340271, 0.5108999609947205, -0.5108999609947205, 0.8596000075340271, 337.06671644846665, -490.5716931011034)" class="st9" style="fill: rgb(178, 21, 27);"/><path d="M 1050.699951 379 H 1058.499951 V 379.6 H 1050.699951 V 379 Z" transform="matrix(0.8596000075340271, 0.5108999609947205, -0.5108999609947205, 0.8596000075340271, 341.8590138831587, -485.6129222752588)" class="st9" style="fill: rgb(178, 21, 27);"/><path class="st10" d="M1168.5,149.8c-7.1-4.2-16.4-1.9-20.6,5.2c-3,5.1-2.7,11.2,0.3,15.8l-118,196.1l12.7,7.5l118.4-196.7&#10;&#9;&#9;&#9;&#9;c5-0.1,9.8-2.7,12.6-7.3C1178,163.3,1175.6,154,1168.5,149.8z" style="fill: rgb(255, 255, 255); stroke: rgb(59, 7, 9); stroke-miterlimit: 10;" transform="matrix(1, 0, 0, 1, 0, 0)"/><path class="st11" d="M1106.5,253.2c-1.9-1.2-4.5-0.5-5.6,1.4c-0.8,1.4-0.7,3,0.1,4.3l-66.1,110.7l3.5,2.1l66.2-110.9&#10;&#9;&#9;&#9;&#9;c1.4,0,2.7-0.7,3.4-2C1109.1,256.9,1108.4,254.4,1106.5,253.2z" style="fill: rgb(59, 7, 9); stroke: rgb(59, 7, 9); stroke-linecap: round; stroke-linejoin: round; stroke-miterlimit: 10;" transform="matrix(1, 0, 0, 1, 0, 0)"/><path d="M 92 521.400024 H 455.799988 V 885.200012 H 92 V 521.400024 Z" class="st0" style="fill: rgb(83, 187, 253);" transform="matrix(1, 0, 0, 1, 0, 0)"/><g transform="matrix(1, 0, 0, 1, 0, 0)" style="opacity: 0.15;">
				<defs>
					<path d="M 123.699997 567.799988 H 455.800003 V 885.199982 H 123.699997 V 567.799988 Z" id="SVGID_7_"/>
				</defs>
				<clipPath id="SVGID_8_">
					<use style="overflow:visible;" xlink:href="#SVGID_7_"/>
				</clipPath>
				<path d="M 455.79998779296875 639.9000244140625 L 373.1000061035156 567.7999877929688 L 203.1999969482422 772.7999877929688 L 146.6999969482422 756.9000244140625 L 174.6999969482422 804.4000244140625 L 147.5 833.7999877929688 L 123.69999694824219 816.0999755859375 L 171.39999389648438 885.2000122070312 L 455.79998779296875 885.2000122070312 Z" class="st12" style="clip-path: url('#SVGID_8_'); fill: rgb(35, 31, 32);"/>
			</g><path d="M 373.1000061035156 567.7999877929688 L 368.6000061035156 580.7999877929688 L 260.79998779296875 705.5999755859375 L 256.8999938964844 702.2999877929688 Z" class="st13" style="fill: rgb(216, 216, 216); stroke: rgb(59, 7, 9); stroke-miterlimit: 10;" transform="matrix(1, 0, 0, 1, 0, 0)"/><path class="st14" d="M300.7,652.5l3,2.6c1.6,1.4,1.7,3.7,0.4,5.3l-11.8,13.7l-8.7-7.5l11.8-13.7&#10;&#9;&#9;&#9;C296.7,651.4,299.1,651.2,300.7,652.5z" style="fill: rgb(209, 115, 118); stroke: rgb(59, 7, 9); stroke-miterlimit: 10;" transform="matrix(1, 0, 0, 1, 0, 0)"/><path class="st5" d="M292.1,655.6l9.7,8.4c2.6,2.3,2.9,6.2,0.7,8.8l-14.7,17.1l-19.2-16.6l14.7-17.1&#10;&#9;&#9;&#9;C285.5,653.6,289.5,653.3,292.1,655.6z" style="fill: rgb(178, 21, 27); stroke: rgb(59, 7, 9); stroke-miterlimit: 10;" transform="matrix(1, 0, 0, 1, 0, 0)"/><path class="st13" d="M275,650.6l35.4,30.5c2.6,2.3,2.9,6.2,0.6,8.8L207.6,809.6l-44.8-38.7l103.4-119.6&#10;&#9;&#9;&#9;C268.4,648.6,272.4,648.3,275,650.6z" style="fill: rgb(216, 216, 216); stroke: rgb(59, 7, 9); stroke-miterlimit: 10;" transform="matrix(1, 0, 0, 1, 0, 0)"/><path class="st14" d="M275,650.6l35.4,30.5c2.6,2.3,2.9,6.2,0.6,8.8l-32.7,37.9l-44.8-38.8l32.7-37.9&#10;&#9;&#9;&#9;C268.4,648.6,272.4,648.3,275,650.6z" style="fill: rgb(209, 115, 118); stroke: rgb(59, 7, 9); stroke-miterlimit: 10;" transform="matrix(1, 0, 0, 1, 0, 0)"/><path d="M 190.699997 689.5 H 211.799997 V 853.899994 H 190.699997 V 689.5 Z" transform="matrix(-0.7565999627113342, -0.6538000702857971, 0.6538000702857971, -0.7565999627113342, -150.98610149303227, 1487.0953590735098)" class="st15" style="fill: rgb(242, 242, 242);"/><path class="st13" d="M131.3,816.9l35.4,30.5c2.6,2.3,4.1,4.8,3.3,5.7l-1.4,1.6l-44.8-38.7c0,0,0.6-0.7,1.4-1.6&#10;&#9;&#9;&#9;C125.9,813.5,128.7,814.6,131.3,816.9z" style="fill: rgb(216, 216, 216); stroke: rgb(59, 7, 9); stroke-miterlimit: 10;" transform="matrix(1, 0, 0, 1, 0, 0)"/><path class="st4" d="M245.3,685.3l35.2,30.5c2.6,2.3,3,6.1,0.7,8.7l-5.7,6.6l-44.8-38.7l5.6-6.5&#10;&#9;&#9;&#9;C238.6,683.2,242.7,683,245.3,685.3z" style="fill: rgb(59, 7, 9); stroke: rgb(59, 7, 9); stroke-miterlimit: 10;" transform="matrix(1, 0, 0, 1, 0, 0)"/><path class="st13" d="M158,753.3l67.6,58.4c2.6,2.3,3.3,5.8,1.4,7.9l-3.3,3.8l-77.1-66.6c0,0,1.5-1.7,3.3-3.8&#10;&#9;&#9;&#9;C151.8,751,155.4,751.1,158,753.3z" style="fill: rgb(216, 216, 216); stroke: rgb(59, 7, 9); stroke-miterlimit: 10;" transform="matrix(1, 0, 0, 1, 0, 0)"/><path d="M 186.899994 761.400024 H 192.799994 V 762.000024 H 186.899994 V 761.400024 Z" transform="matrix(-0.7563999891281128, -0.6541000604629517, 0.6541000604629517, -0.7563999891281128, -164.667604992801, 1462.0660618255442)" class="st9" style="fill: rgb(178, 21, 27);"/><path d="M 198 748.599976 H 203.9 V 749.199976 H 198 V 748.599976 Z" transform="matrix(-0.7565999627113342, -0.6539000272750854, 0.6539000272750854, -0.7565999627113342, -136.6123982759177, 1446.9100557403272)" class="st9" style="fill: rgb(178, 21, 27);"/><path d="M 191.5 754.299988 H 200.6 V 754.899988 H 191.5 V 754.299988 Z" transform="matrix(-0.7565999627113342, -0.6538000702857971, 0.6538000702857971, -0.7565999627113342, -149.03080971584927, 1453.7411105296176)" class="st9" style="fill: rgb(178, 21, 27);"/><path d="M 201.100006 743.099976 H 210.200006 V 743.699976 H 201.100006 V 743.099976 Z" transform="matrix(-0.7566999793052673, -0.6538000702857971, 0.6538000702857971, -0.7566999793052673, -124.70160097929238, 1440.4444794721076)" class="st9" style="fill: rgb(178, 21, 27);"/><path d="M 209.800003 734.900024 H 215.700003 V 735.500024 H 209.800003 V 734.900024 Z" transform="matrix(-0.7565999627113342, -0.6539000272750854, 0.6539000272750854, -0.7565999627113342, -107.00760047149062, 1430.6640838185558)" class="st9" style="fill: rgb(178, 21, 27);"/><path d="M 220.899994 722.099976 H 226.799994 V 722.699976 H 220.899994 V 722.099976 Z" transform="matrix(-0.7565999627113342, -0.6538000702857971, 0.6538000702857971, -0.7565999627113342, -79.17109798149909, 1415.397237887937)" class="st9" style="fill: rgb(178, 21, 27);"/><path d="M 214.300003 727.799988 H 223.400003 V 728.399988 H 214.300003 V 727.799988 Z" transform="matrix(-0.7565999627113342, -0.6538000702857971, 0.6538000702857971, -0.7565999627113342, -91.60090010763554, 1422.2251188490552)" class="st9" style="fill: rgb(178, 21, 27);"/><path d="M 224 716.700012 H 233.1 V 717.300012 H 224 V 716.700012 Z" transform="matrix(-0.7566999793052673, -0.653700053691864, 0.653700053691864, -0.7566999793052673, -67.21469979308097, 1408.9497280262367)" class="st9" style="fill: rgb(178, 21, 27);"/><path d="M 232.600006 708.5 H 238.500006 V 709.1 H 232.600006 V 708.5 Z" transform="matrix(-0.7565000057220459, -0.6540000438690186, 0.6540000438690186, -0.7565000057220459, -49.70790174168202, 1399.092550144978)" class="st9" style="fill: rgb(178, 21, 27);"/><path d="M 243.699997 695.700012 H 249.599997 V 696.300012 H 243.699997 V 695.700012 Z" transform="matrix(-0.7568999528884888, -0.6536000370979309, 0.6536000370979309, -0.7568999528884888, -21.491300903131076, 1383.9824424979452)" class="st9" style="fill: rgb(178, 21, 27);"/><path d="M 237.199997 701.400024 H 246.299997 V 702.000024 H 237.199997 V 701.400024 Z" transform="matrix(-0.7566999793052673, -0.653700053691864, 0.653700053691864, -0.7566999793052673, -34.04639867017268, 1390.7585656457923)" class="st9" style="fill: rgb(178, 21, 27);"/><path d="M 246.800003 690.200012 H 255.900003 V 690.800012 H 246.800003 V 690.200012 Z" transform="matrix(-0.7565000057220459, -0.6539000272750854, 0.6539000272750854, -0.7565000057220459, -9.980799823713312, 1377.354512711681)" class="st9" style="fill: rgb(178, 21, 27);"/><path d="M 255.5 682 H 261.4 V 682.6 H 255.5 V 682 Z" transform="matrix(-0.7565999627113342, -0.6538000702857971, 0.6538000702857971, -0.7565999627113342, 7.8976002916336085, 1367.6513875670933)" class="st9" style="fill: rgb(178, 21, 27);"/><path d="M 266.600006 669.200012 H 272.500006 V 669.800012 H 266.600006 V 669.200012 Z" transform="matrix(-0.7566999793052673, -0.6538000702857971, 0.6538000702857971, -0.7566999793052673, 35.775501784317214, 1352.3969928085353)" class="st9" style="fill: rgb(178, 21, 27);"/><path d="M 260 674.900024 H 269.1 V 675.500024 H 260 V 674.900024 Z" transform="matrix(-0.7566999793052673, -0.6538000702857971, 0.6538000702857971, -0.7566999793052673, 23.31740032609403, 1359.211323964764)" class="st9" style="fill: rgb(178, 21, 27);"/><path d="M 269.700012 663.799988 H 278.800013 V 664.399988 H 269.700012 V 663.799988 Z" transform="matrix(-0.7566999793052673, -0.6538000702857971, 0.6538000702857971, -0.7566999793052673, 47.594898933096204, 1345.88942435219)" class="st9" style="fill: rgb(178, 21, 27);"/><path d="M 516.599976 521.400024 H 880.399963 V 885.200012 H 516.599976 V 521.400024 Z" class="st0" style="fill: rgb(83, 187, 253);" transform="matrix(1, 0, 0, 1, 0, 0)"/><g transform="matrix(1, 0, 0, 1, 0, 0)" style="opacity: 0.15;">
				<defs>
					<path d="M 647.200012 669 H 689.500011 V 737.900002 H 647.200012 V 669 Z" id="SVGID_9_"/>
				</defs>
				<clipPath id="SVGID_10_">
					<use style="overflow:visible;" xlink:href="#SVGID_9_"/>
				</clipPath>
				<path d="M 647.200012 669 L 668.200012 725.5 L 662.700012 725.5 L 669.900024 737.900024 L 689.599976 678.700012" class="st16" style="clip-path: url('#SVGID_10_'); fill: rgb(35, 31, 32);"/>
			</g><g transform="matrix(1, 0, 0, 1, 0, 0)" style="opacity: 0.15;">
				<defs>
					<path d="M 574.099976 541.799988 H 880.399963 V 885.199982 H 574.099976 V 541.799988 Z" id="SVGID_11_"/>
				</defs>
				<clipPath id="SVGID_12_">
					<use style="overflow:visible;" xlink:href="#SVGID_11_"/>
				</clipPath>
				<path class="st17" d="M880.4,628.9l-131-87.1c0,0-40.6,17.8-50.9,35.7c-18.3,31.8-13.2,108.6-24.3,144.6&#10;&#9;&#9;&#9;&#9;&#9;c-17.5,57.2-38,68.2-85.4,94.8c-27.7,15.5-7.9,44.8-7.9,44.8l23.3,23.6h276.2V628.9z" style="clip-path: url('#SVGID_12_'); fill: rgb(35, 31, 32);"/>
			</g><path class="st6" d="M773.3,566.1l-16.9-6.9c2.7-6.7-0.5-14.3-7.1-17c-6.7-2.7-14.3,0.5-17,7.1l-12.4-5.1&#10;&#9;&#9;&#9;c-13.7-5.6-29.3,0.9-34.9,14.6l-38.5,93.9c-5.6,13.7,7.1,31.8,20.7,37.4c0,0-2,34.3-0.9,34.6c3.2,0.9,11.8,5.7,14.5,6.4l23.5-25.8&#10;&#9;&#9;&#9;c13.7,5.6,39.4,3.2,45-10.4l38.5-93.9C793.5,587.3,787,571.7,773.3,566.1 M747.4,546.9c4,1.7,6,6.3,4.3,10.3l-14.6-6&#10;&#9;&#9;&#9;C738.7,547.2,743.4,545.2,747.4,546.9" style="fill: rgb(239, 239, 239); stroke: rgb(59, 7, 9); stroke-miterlimit: 10;" transform="matrix(1, 0, 0, 1, 0, 0)"/><path class="st14" d="M656.3,629.4l-9.7,23.4c-5.6,13.7,7.1,31.8,20.7,37.4c0,0-2,34.3-0.9,34.6c3.2,0.9,11.8,5.7,14.5,6.4&#10;&#9;&#9;&#9;l23.5-25.8c13.7,5.6,39.4,3.2,45-10.4l9.6-23.3C687.7,682.4,687.1,613.7,656.3,629.4z" style="fill: rgb(209, 115, 118); stroke: rgb(59, 7, 9); stroke-miterlimit: 10;" transform="matrix(1, 0, 0, 1, 0, 0)"/><path d="M 747.400024 574.400024 H 771.100025 V 574.700024 H 747.400024 V 574.400024 Z" transform="matrix(0.9251999855041504, 0.37940001487731934, -0.37940001487731934, 0.9251999855041504, 274.7262919355376, -245.097202138561)" class="st9" style="fill: rgb(178, 21, 27);"/><path d="M 744.299988 581.900024 H 767.999989 V 582.200024 H 744.299988 V 581.900024 Z" transform="matrix(0.9253000020980835, 0.37929999828338623, -0.37929999828338623, 0.9253000020980835, 277.290012676865, -243.32410030549906)" class="st9" style="fill: rgb(178, 21, 27);"/><path d="M 739.400024 578.5 H 775.800026 V 578.8 H 739.400024 V 578.5 Z" transform="matrix(0.9253000020980835, 0.37929999828338623, -0.37929999828338623, 0.9253000020980835, 276.14621383169606, -244.11770993646542)" class="st9" style="fill: rgb(178, 21, 27);"/><path d="M 736.700012 585.099976 H 773.100014 V 585.399976 H 736.700012 V 585.099976 Z" transform="matrix(0.9253000020980835, 0.37929999828338623, -0.37929999828338623, 0.9253000020980835, 278.41370043774987, -242.58960322424173)" class="st9" style="fill: rgb(178, 21, 27);"/><path d="M 741.099976 589.900024 H 764.799976 V 590.200024 H 741.099976 V 589.900024 Z" transform="matrix(0.9253000020980835, 0.3792000114917755, -0.3792000114917755, 0.9253000020980835, 279.9937175511377, -241.42670037488185)" class="st9" style="fill: rgb(178, 21, 27);"/><path d="M 738 597.5 H 761.700001 V 597.8 H 738 V 597.5 Z" transform="matrix(0.9253000020980835, 0.37929999828338623, -0.37929999828338623, 0.9253000020980835, 282.68259088222067, -239.72690176556853)" class="st9" style="fill: rgb(178, 21, 27);"/><path d="M 733 594.099976 H 769.400002 V 594.399976 H 733 V 594.099976 Z" transform="matrix(0.9251999855041504, 0.37940001487731934, -0.37940001487731934, 0.9251999855041504, 281.66009941190623, -240.58710075299587)" class="st9" style="fill: rgb(178, 21, 27);"/><path d="M 730.299988 600.700012 H 766.699989 V 601.000012 H 730.299988 V 600.700012 Z" transform="matrix(0.9253000020980835, 0.37929999828338623, -0.37929999828338623, 0.9253000020980835, 283.83700984473535, -239.00880788279778)" class="st9" style="fill: rgb(178, 21, 27);"/><path d="M 734.700012 605.5 H 758.400013 V 605.8 H 734.700012 V 605.5 Z" transform="matrix(0.9253000020980835, 0.3792000114917755, -0.3792000114917755, 0.9253000020980835, 285.45459409735486, -237.86799976032964)" class="st9" style="fill: rgb(178, 21, 27);"/><path d="M 731.599976 613 H 755.299976 V 613.3 H 731.599976 V 613 Z" transform="matrix(0.9253000020980835, 0.37929999828338623, -0.37929999828338623, 0.9253000020980835, 288.1364178677859, -236.16209763530037)" class="st9" style="fill: rgb(178, 21, 27);"/><path d="M 726.599976 609.700012 H 762.999977 V 610.000012 H 726.599976 V 609.700012 Z" transform="matrix(0.9251999855041504, 0.37940001487731934, -0.37940001487731934, 0.9251999855041504, 287.06570862331546, -236.9933964758127)" class="st9" style="fill: rgb(178, 21, 27);"/><path d="M 723.900024 616.200012 H 760.300026 V 616.500012 H 723.900024 V 616.200012 Z" transform="matrix(0.9253000020980835, 0.37929999828338623, -0.37929999828338623, 0.9253000020980835, 289.2608075329781, -235.4272038255215)" class="st9" style="fill: rgb(178, 21, 27);"/><path d="M 728.299988 621 H 751.999989 V 621.3 H 728.299988 V 621 Z" transform="matrix(0.9253000020980835, 0.37929999828338623, -0.37929999828338623, 0.9253000020980835, 290.9570966207548, -234.32980695858305)" class="st9" style="fill: rgb(178, 21, 27);"/><path d="M 725.200012 628.599976 H 748.900013 V 628.899976 H 725.200012 V 628.599976 Z" transform="matrix(0.9253000020980835, 0.37929999828338623, -0.37929999828338623, 0.9253000020980835, 293.5591169231998, -232.58160746964222)" class="st9" style="fill: rgb(178, 21, 27);"/><path d="M 720.200012 625.200012 H 756.600014 V 625.500012 H 720.200012 V 625.200012 Z" transform="matrix(0.9253000020980835, 0.37929999828338623, -0.37929999828338623, 0.9253000020980835, 292.3829999623149, -233.3560062848926)" class="st9" style="fill: rgb(178, 21, 27);"/><path d="M 717.5 631.799988 H 753.900002 V 632.099988 H 717.5 V 631.799988 Z" transform="matrix(0.9253000020980835, 0.37929999828338623, -0.37929999828338623, 0.9253000020980835, 294.66571484008, -231.83749735113224)" class="st9" style="fill: rgb(178, 21, 27);"/><path d="M 722.700012 634.799988 H 746.400013 V 635.099988 H 722.700012 V 634.799988 Z" transform="matrix(0.9253000020980835, 0.37929999828338623, -0.37929999828338623, 0.9253000020980835, 295.72989332273437, -231.1515995137631)" class="st9" style="fill: rgb(178, 21, 27);"/><path d="M 719.599976 642.299988 H 743.299976 V 642.599988 H 719.599976 V 642.299988 Z" transform="matrix(0.9251999855041504, 0.37940001487731934, -0.37940001487731934, 0.9251999855041504, 298.4628035197079, -229.4686008314579)" class="st9" style="fill: rgb(178, 21, 27);"/><path d="M 714.599976 639 H 750.999977 V 639.3 H 714.599976 V 639 Z" transform="matrix(0.9251999855041504, 0.37940001487731934, -0.37940001487731934, 0.9251999855041504, 297.23541702680905, -230.218402478373)" class="st9" style="fill: rgb(178, 21, 27);"/><path d="M 711.900024 645.5 H 748.300026 V 645.8 H 711.900024 V 645.5 Z" transform="matrix(0.9251999855041504, 0.37940001487731934, -0.37940001487731934, 0.9251999855041504, 299.57089679793853, -228.724704335998)" class="st9" style="fill: rgb(178, 21, 27);"/><path d="M 716.299988 650.299988 H 739.999989 V 650.599988 H 716.299988 V 650.299988 Z" transform="matrix(0.9253000020980835, 0.37929999828338623, -0.37929999828338623, 0.9253000020980835, 301.1525008254125, -227.57020907953688)" class="st9" style="fill: rgb(178, 21, 27);"/><path d="M 713.200012 657.900024 H 736.900013 V 658.200024 H 713.200012 V 657.900024 Z" transform="matrix(0.9253000020980835, 0.37929999828338623, -0.37929999828338623, 0.9253000020980835, 303.73941492646054, -225.8159060748801)" class="st9" style="fill: rgb(178, 21, 27);"/><path d="M 708.200012 654.5 H 744.600014 V 654.8 H 708.200012 V 654.5 Z" transform="matrix(0.9251999855041504, 0.37940001487731934, -0.37940001487731934, 0.9251999855041504, 302.66800377768277, -226.64100984694073)" class="st9" style="fill: rgb(178, 21, 27);"/><path d="M 705.5 661.099976 H 741.900002 V 661.399976 H 705.5 V 661.099976 Z" transform="matrix(0.9253000020980835, 0.37929999828338623, -0.37929999828338623, 0.9253000020980835, 304.856816066158, -225.07820464787184)" class="st9" style="fill: rgb(178, 21, 27);"/><path d="M 709.900024 665.900024 H 733.600025 V 666.200024 H 709.900024 V 665.900024 Z" transform="matrix(0.9253000020980835, 0.37929999828338623, -0.37929999828338623, 0.9253000020980835, 306.6032150179626, -224.00230741504285)" class="st9" style="fill: rgb(178, 21, 27);"/><path d="M 706.799988 673.400024 H 730.399988 V 673.700024 H 706.799988 V 673.400024 Z" transform="matrix(0.9253000020980835, 0.37929999828338623, -0.37929999828338623, 0.9253000020980835, 309.1689194018977, -222.23900172470508)" class="st9" style="fill: rgb(178, 21, 27);"/><path d="M 701.799988 670.099976 H 738.199989 V 670.399976 H 701.799988 V 670.099976 Z" transform="matrix(0.9253000020980835, 0.37929999828338623, -0.37929999828338623, 0.9253000020980835, 308.0444076663912, -223.03680752272612)" class="st9" style="fill: rgb(178, 21, 27);"/><path d="M 699.099976 676.599976 H 735.499977 V 676.899976 H 699.099976 V 676.599976 Z" transform="matrix(0.9253000020980835, 0.37929999828338623, -0.37929999828338623, 0.9253000020980835, 310.28589329549504, -221.50000330060723)" class="st9" style="fill: rgb(178, 21, 27);"/><path d="M 703.5 681.5 H 727.200001 V 681.8 H 703.5 V 681.5 Z" transform="matrix(0.9253000020980835, 0.37929999828338623, -0.37929999828338623, 0.9253000020980835, 312.03741920050095, -220.42590660491442)" class="st9" style="fill: rgb(178, 21, 27);"/><path d="M 700.5 689 H 724.200001 V 689.3 H 700.5 V 689 Z" transform="matrix(0.9253000020980835, 0.37929999828338623, -0.37929999828338623, 0.9253000020980835, 314.6654099623174, -218.69009725287697)" class="st9" style="fill: rgb(178, 21, 27);"/><path d="M 695.5 685.599976 H 731.900002 V 685.899976 H 695.5 V 685.599976 Z" transform="matrix(0.9253000020980835, 0.37929999828338623, -0.37929999828338623, 0.9253000020980835, 313.44061746359785, -219.4436067855895)" class="st9" style="fill: rgb(178, 21, 27);"/><path d="M 692.799988 692.200012 H 729.199989 V 692.500012 H 692.799988 V 692.200012 Z" transform="matrix(0.9251999855041504, 0.37940001487731934, -0.37940001487731934, 0.9251999855041504, 315.80890363170056, -217.96339741294673)" class="st9" style="fill: rgb(178, 21, 27);"/><path class="st14" d="M600,873.1c-17.5-7.2-27.8-18.1-28.2-30c-0.6-15.1,14-30.2,43.4-44.9c22.6-11.3,36.8-30.5,44.7-44.7&#10;&#9;&#9;&#9;c8.7-15.5,12-28.5,12-28.6l4.7,1.2c-0.1,0.5-3.5,13.6-12.4,29.6c-8.3,14.8-23.1,35-46.9,46.8c-27.1,13.5-41.2,27.5-40.7,40.4&#10;&#9;&#9;&#9;c0.4,9.9,9.6,19.3,25.2,25.7L600,873.1z" style="fill: rgb(209, 115, 118); stroke: rgb(59, 7, 9); stroke-miterlimit: 10;" transform="matrix(1, 0, 0, 1, 0, 0)"/><path class="st11" d="M678.4,733.5l-12.8-5.3c-3-1.2-4.4-4.6-3.2-7.5c1.2-3,4.6-4.4,7.5-3.2l12.8,5.3c3,1.2,4.4,4.6,3.2,7.5&#10;&#9;&#9;&#9;C684.8,733.3,681.4,734.7,678.4,733.5" style="fill: rgb(59, 7, 9); stroke: rgb(59, 7, 9); stroke-linecap: round; stroke-linejoin: round; stroke-miterlimit: 10;" transform="matrix(1, 0, 0, 1, 0, 0)"/><path d="M 943.099976 521.400024 H 1306.899963 V 885.200012 H 943.099976 V 521.400024 Z" class="st0" style="fill: rgb(83, 187, 253);" transform="matrix(1, 0, 0, 1, 0, 0)"/><g transform="matrix(1, 0, 0, 1, 0, 0)" style="opacity: 0.15;">
				<defs>
					<path d="M 1017.799988 593.799988 H 1306.899994 V 885.199982 H 1017.799988 V 593.799988 Z" id="SVGID_13_"/>
				</defs>
				<clipPath id="SVGID_14_">
					<use style="overflow:visible;" xlink:href="#SVGID_13_"/>
				</clipPath>
				<path d="M 1306.9000244140625 661.2999877929688 L 1217.0999755859375 600 L 1212.5999755859375 606.5 L 1191.0999755859375 593.7999877929688 L 1129.4000244140625 603 L 1068.5 603.4000244140625 L 1029.300048828125 742.9000244140625 L 1017.7999877929688 808.5 L 1166.300048828125 885.2000122070312 L 1306.9000244140625 885.2000122070312 Z" class="st18" style="clip-path: url('#SVGID_14_'); fill: rgb(35, 31, 32);"/>
			</g><path class="st6" d="M1076.1,815.7h-34.8c-4,0-7.2-3.2-7.2-7.2v-11.5c0-4,3.2-7.2,7.2-7.2h34.8c4,0,7.2,3.2,7.2,7.2v11.5&#10;&#9;&#9;&#9;C1083.3,812.4,1080.1,815.7,1076.1,815.7" style="fill: rgb(239, 239, 239); stroke: rgb(59, 7, 9); stroke-miterlimit: 10;" transform="matrix(1, 0, 0, 1, 0, 0)"/><path class="st6" d="M1247.7,815.7h-34.8c-4,0-7.2-3.2-7.2-7.2v-11.5c0-4,3.2-7.2,7.2-7.2h34.8c4,0,7.2,3.2,7.2,7.2v11.5&#10;&#9;&#9;&#9;C1255,812.4,1251.7,815.7,1247.7,815.7" style="fill: rgb(239, 239, 239); stroke: rgb(59, 7, 9); stroke-miterlimit: 10;" transform="matrix(1, 0, 0, 1, 0, 0)"/><path class="st6" d="M1231.4,635.3l-11.7-32.7c-0.3-1.8-1.8-3.1-3.6-3.1h-149.3c-1.8,0-3.3,1.3-3.6,3l-12.2,34.2&#10;&#9;&#9;&#9;c-0.7,2.1,0.3,4.3,2.3,5.1l0.7,0.3c2,0.8,4.2-0.3,4.9-2.3l11.4-31.8h143l10.8,30.3c0.7,2,2.8,3,4.7,2.2l0.6-0.2&#10;&#9;&#9;&#9;C1231.2,639.4,1232.1,637.2,1231.4,635.3z" style="fill: rgb(239, 239, 239); stroke: rgb(59, 7, 9); stroke-miterlimit: 10;" transform="matrix(1, 0, 0, 1, 0, 0)"/><path class="st6" d="M1060.3,643.7h-19c-2,0-3.7-1.6-3.7-3.7v-0.7c0-2,1.6-3.7,3.7-3.7h19c2,0,3.7,1.6,3.7,3.7v0.7&#10;&#9;&#9;&#9;&#9;C1064,642,1062.3,643.7,1060.3,643.7" style="fill: rgb(239, 239, 239); stroke: rgb(59, 7, 9); stroke-miterlimit: 10;" transform="matrix(1, 0, 0, 1, 0, 0)"/><path class="st6" d="M1222.1,643.9h19c2,0,3.7-1.6,3.7-3.7v-0.7c0-2-1.6-3.7-3.7-3.7h-19c-2,0-3.7,1.6-3.7,3.7v0.7&#10;&#9;&#9;&#9;&#9;C1218.4,642.2,1220.1,643.9,1222.1,643.9" style="fill: rgb(239, 239, 239); stroke: rgb(59, 7, 9); stroke-miterlimit: 10;" transform="matrix(1, 0, 0, 1, 0, 0)"/><path class="st5" d="M1187.5,610.7h-92.5c-2,0-3.7-1.6-3.7-3.7v-9.6c0-2,1.6-3.7,3.7-3.7h92.5c2,0,3.7,1.6,3.7,3.7v9.6&#10;&#9;&#9;&#9;C1191.1,609.1,1189.5,610.7,1187.5,610.7" style="fill: rgb(178, 21, 27); stroke: rgb(59, 7, 9); stroke-miterlimit: 10;" transform="matrix(1, 0, 0, 1, 0, 0)"/><path class="st5" d="M1260.4,809.2H1022c-6.6,0-11.9-5.3-11.9-11.9V652.9c0-6.6,5.3-11.9,11.9-11.9h238.4&#10;&#9;&#9;&#9;c6.6,0,11.9,5.3,11.9,11.9v144.4C1272.2,803.9,1266.9,809.2,1260.4,809.2" style="fill: rgb(178, 21, 27); stroke: rgb(59, 7, 9); stroke-miterlimit: 10;" transform="matrix(1, 0, 0, 1, 0, 0)"/><path class="st15" d="M1141.2,791.3c-36.5,0-66.2-29.7-66.2-66.2c0-36.5,29.7-66.2,66.2-66.2c36.5,0,66.2,29.7,66.2,66.2&#10;&#9;&#9;&#9;C1207.3,761.6,1177.7,791.3,1141.2,791.3 M1141.2,664.6c-33.4,0-60.6,27.2-60.6,60.6c0,33.4,27.2,60.6,60.6,60.6&#10;&#9;&#9;&#9;c33.4,0,60.6-27.2,60.6-60.6C1201.7,691.7,1174.6,664.6,1141.2,664.6" style="fill: rgb(242, 242, 242);" transform="matrix(1, 0, 0, 1, 0, 0)"/><path d="M 1183.300048828125 713.4000244140625 L 1152.9000244140625 713.4000244140625 L 1152.9000244140625 683 L 1129.4000244140625 683 L 1129.4000244140625 713.4000244140625 L 1099 713.4000244140625 L 1099 736.9000244140625 L 1129.4000244140625 736.9000244140625 L 1129.4000244140625 767.2999877929688 L 1152.9000244140625 767.2999877929688 L 1152.9000244140625 736.9000244140625 L 1183.300048828125 736.9000244140625 Z" class="st15" style="fill: rgb(242, 242, 242);" transform="matrix(1, 0, 0, 1, 0, 0)"/><path d="M 518.5 94.800003 H 882.299988 V 458.599991 H 518.5 V 94.800003 Z" class="st0" style="fill: rgb(83, 187, 253);" transform="matrix(1, 0, 0, 1, 0, 0)"/><g transform="matrix(1, 0, 0, 1, 0, 0)" style="opacity: 0.15;">
				<defs>
					<path d="M 555 130.399994 H 882.299988 V 458.600006 H 555 V 130.399994 Z" id="SVGID_15_"/>
				</defs>
				<clipPath id="SVGID_16_">
					<use style="overflow:visible;" xlink:href="#SVGID_15_"/>
				</clipPath>
				<path d="M 882.4000244140625 240.39999389648438 L 647.2000122070312 130.39999389648438 L 555 414.29998779296875 L 610.4000244140625 458.6000061035156 L 882.4000244140625 458.6000061035156 Z" class="st19" style="clip-path: url('#SVGID_16_'); fill: rgb(35, 31, 32);"/>
			</g><path class="st5" d="M564.4,380.2v-37V156.7c0-17,13.8-30.9,30.9-30.9h35.8c17.1,0,30.9,13.8,30.9,30.9v186.5v32.2L564.4,380.2z" style="fill: rgb(178, 21, 27); stroke: rgb(59, 7, 9); stroke-miterlimit: 10;" transform="matrix(1, 0, 0, 1, 0, 0)"/><path class="st6" d="M597.9,390.6c-14.6,0-26.4-11.8-26.4-26.4V159c0-14.6,11.8-26.4,26.4-26.4h30.6c14.6,0,26.4,11.8,26.4,26.4&#10;&#9;&#9;&#9;v205.1c0,14.6-11.8,26.4-26.4,26.4H597.9z" style="fill: rgb(239, 239, 239); stroke: rgb(59, 7, 9); stroke-miterlimit: 10;" transform="matrix(1, 0, 0, 1, 0, 0)"/><path class="st10" d="M598.7,382.2V152c0-2.4,1.9-4.3,4.3-4.3h11.3c2.4,0,4.3,1.9,4.3,4.3v230.1H598.7z" style="fill: rgb(255, 255, 255); stroke: rgb(59, 7, 9); stroke-miterlimit: 10;" transform="matrix(1, 0, 0, 1, 0, 0)"/><path class="st4" d="M605.3,382.2V263.5c0-1.4,1.1-2.6,2.6-2.6h1.4c1.4,0,2.6,1.1,2.6,2.6v118.6H605.3z" style="fill: rgb(59, 7, 9); stroke: rgb(59, 7, 9); stroke-miterlimit: 10;" transform="matrix(1, 0, 0, 1, 0, 0)"/><path d="M 634.700012 150.5 H 643.500012 V 150.7 H 634.700012 V 150.5 Z" class="st8" style="fill: rgb(183, 184, 186);" transform="matrix(1, 0, 0, 1, 0, 0)"/><path d="M 634.700012 156.899994 H 643.500012 V 157.099994 H 634.700012 V 156.899994 Z" class="st8" style="fill: rgb(183, 184, 186);" transform="matrix(1, 0, 0, 1, 0, 0)"/><path d="M 632.299988 154 H 645.899988 V 154.2 H 632.299988 V 154 Z" class="st8" style="fill: rgb(183, 184, 186);" transform="matrix(1, 0, 0, 1, 0, 0)"/><path d="M 632.299988 159.600006 H 645.899988 V 159.800006 H 632.299988 V 159.600006 Z" class="st8" style="fill: rgb(183, 184, 186);" transform="matrix(1, 0, 0, 1, 0, 0)"/><path d="M 634.700012 163.699997 H 643.500012 V 163.899997 H 634.700012 V 163.699997 Z" class="st8" style="fill: rgb(183, 184, 186);" transform="matrix(1, 0, 0, 1, 0, 0)"/><path d="M 634.700012 170.100006 H 643.500012 V 170.300006 H 634.700012 V 170.100006 Z" class="st8" style="fill: rgb(183, 184, 186);" transform="matrix(1, 0, 0, 1, 0, 0)"/><path d="M 632.299988 167.300003 H 645.899988 V 167.500003 H 632.299988 V 167.300003 Z" class="st8" style="fill: rgb(183, 184, 186);" transform="matrix(1, 0, 0, 1, 0, 0)"/><path d="M 632.299988 172.899994 H 645.899988 V 173.099994 H 632.299988 V 172.899994 Z" class="st8" style="fill: rgb(183, 184, 186);" transform="matrix(1, 0, 0, 1, 0, 0)"/><path d="M 634.700012 176.899994 H 643.500012 V 177.099994 H 634.700012 V 176.899994 Z" class="st8" style="fill: rgb(183, 184, 186);" transform="matrix(1, 0, 0, 1, 0, 0)"/><path d="M 634.700012 183.399994 H 643.500012 V 183.599994 H 634.700012 V 183.399994 Z" class="st8" style="fill: rgb(183, 184, 186);" transform="matrix(1, 0, 0, 1, 0, 0)"/><path d="M 632.299988 180.5 H 645.899988 V 180.7 H 632.299988 V 180.5 Z" class="st8" style="fill: rgb(183, 184, 186);" transform="matrix(1, 0, 0, 1, 0, 0)"/><path d="M 632.299988 186.100006 H 645.899988 V 186.300006 H 632.299988 V 186.100006 Z" class="st8" style="fill: rgb(183, 184, 186);" transform="matrix(1, 0, 0, 1, 0, 0)"/><path d="M 634.700012 190.199997 H 643.500012 V 190.399997 H 634.700012 V 190.199997 Z" class="st8" style="fill: rgb(183, 184, 186);" transform="matrix(1, 0, 0, 1, 0, 0)"/><path d="M 634.700012 196.600006 H 643.500012 V 196.800006 H 634.700012 V 196.600006 Z" class="st8" style="fill: rgb(183, 184, 186);" transform="matrix(1, 0, 0, 1, 0, 0)"/><path d="M 632.299988 193.699997 H 645.899988 V 193.899997 H 632.299988 V 193.699997 Z" class="st8" style="fill: rgb(183, 184, 186);" transform="matrix(1, 0, 0, 1, 0, 0)"/><path d="M 632.299988 199.300003 H 645.899988 V 199.500003 H 632.299988 V 199.300003 Z" class="st8" style="fill: rgb(183, 184, 186);" transform="matrix(1, 0, 0, 1, 0, 0)"/><path d="M 634.700012 201.899994 H 643.500012 V 202.099994 H 634.700012 V 201.899994 Z" class="st8" style="fill: rgb(183, 184, 186);" transform="matrix(1, 0, 0, 1, 0, 0)"/><path d="M 634.700012 208.300003 H 643.500012 V 208.500003 H 634.700012 V 208.300003 Z" class="st8" style="fill: rgb(183, 184, 186);" transform="matrix(1, 0, 0, 1, 0, 0)"/><path d="M 632.299988 205.399994 H 645.899988 V 205.599994 H 632.299988 V 205.399994 Z" class="st8" style="fill: rgb(183, 184, 186);" transform="matrix(1, 0, 0, 1, 0, 0)"/><path d="M 632.299988 211 H 645.899988 V 211.2 H 632.299988 V 211 Z" class="st8" style="fill: rgb(183, 184, 186);" transform="matrix(1, 0, 0, 1, 0, 0)"/><path d="M 634.700012 215.100006 H 643.500012 V 215.300006 H 634.700012 V 215.100006 Z" class="st8" style="fill: rgb(183, 184, 186);" transform="matrix(1, 0, 0, 1, 0, 0)"/><path d="M 634.700012 221.5 H 643.500012 V 221.7 H 634.700012 V 221.5 Z" class="st8" style="fill: rgb(183, 184, 186);" transform="matrix(1, 0, 0, 1, 0, 0)"/><path d="M 632.299988 218.699997 H 645.899988 V 218.899997 H 632.299988 V 218.699997 Z" class="st8" style="fill: rgb(183, 184, 186);" transform="matrix(1, 0, 0, 1, 0, 0)"/><path d="M 632.299988 224.300003 H 645.899988 V 224.500003 H 632.299988 V 224.300003 Z" class="st8" style="fill: rgb(183, 184, 186);" transform="matrix(1, 0, 0, 1, 0, 0)"/><path d="M 634.700012 228.399994 H 643.500012 V 228.599994 H 634.700012 V 228.399994 Z" class="st8" style="fill: rgb(183, 184, 186);" transform="matrix(1, 0, 0, 1, 0, 0)"/><path d="M 634.700012 234.800003 H 643.500012 V 235.000003 H 634.700012 V 234.800003 Z" class="st8" style="fill: rgb(183, 184, 186);" transform="matrix(1, 0, 0, 1, 0, 0)"/><path d="M 632.299988 231.899994 H 645.899988 V 232.099994 H 632.299988 V 231.899994 Z" class="st8" style="fill: rgb(183, 184, 186);" transform="matrix(1, 0, 0, 1, 0, 0)"/><path d="M 632.299988 237.5 H 645.899988 V 237.7 H 632.299988 V 237.5 Z" class="st8" style="fill: rgb(183, 184, 186);" transform="matrix(1, 0, 0, 1, 0, 0)"/><path d="M 634.700012 241.600006 H 643.500012 V 241.800006 H 634.700012 V 241.600006 Z" class="st8" style="fill: rgb(183, 184, 186);" transform="matrix(1, 0, 0, 1, 0, 0)"/><path d="M 634.700012 248 H 643.500012 V 248.2 H 634.700012 V 248 Z" class="st8" style="fill: rgb(183, 184, 186);" transform="matrix(1, 0, 0, 1, 0, 0)"/><path d="M 632.299988 245.100006 H 645.899988 V 245.300006 H 632.299988 V 245.100006 Z" class="st8" style="fill: rgb(183, 184, 186);" transform="matrix(1, 0, 0, 1, 0, 0)"/><path d="M 632.299988 250.699997 H 645.899988 V 250.899997 H 632.299988 V 250.699997 Z" class="st8" style="fill: rgb(183, 184, 186);" transform="matrix(1, 0, 0, 1, 0, 0)"/><path d="M 634.700012 253.5 H 643.500012 V 253.7 H 634.700012 V 253.5 Z" class="st8" style="fill: rgb(183, 184, 186);" transform="matrix(1, 0, 0, 1, 0, 0)"/><path d="M 634.700012 260 H 643.500012 V 260.2 H 634.700012 V 260 Z" class="st8" style="fill: rgb(183, 184, 186);" transform="matrix(1, 0, 0, 1, 0, 0)"/><path d="M 632.299988 257.100006 H 645.899988 V 257.300006 H 632.299988 V 257.100006 Z" class="st8" style="fill: rgb(183, 184, 186);" transform="matrix(1, 0, 0, 1, 0, 0)"/><path d="M 632.299988 262.700012 H 645.899988 V 262.900012 H 632.299988 V 262.700012 Z" class="st8" style="fill: rgb(183, 184, 186);" transform="matrix(1, 0, 0, 1, 0, 0)"/><path d="M 634.700012 266.799988 H 643.500012 V 266.999988 H 634.700012 V 266.799988 Z" class="st8" style="fill: rgb(183, 184, 186);" transform="matrix(1, 0, 0, 1, 0, 0)"/><path d="M 634.700012 273.200012 H 643.500012 V 273.400012 H 634.700012 V 273.200012 Z" class="st8" style="fill: rgb(183, 184, 186);" transform="matrix(1, 0, 0, 1, 0, 0)"/><path d="M 632.299988 270.299988 H 645.899988 V 270.499988 H 632.299988 V 270.299988 Z" class="st8" style="fill: rgb(183, 184, 186);" transform="matrix(1, 0, 0, 1, 0, 0)"/><path d="M 632.299988 275.899994 H 645.899988 V 276.099994 H 632.299988 V 275.899994 Z" class="st8" style="fill: rgb(183, 184, 186);" transform="matrix(1, 0, 0, 1, 0, 0)"/><path d="M 634.700012 280 H 643.500012 V 280.2 H 634.700012 V 280 Z" class="st8" style="fill: rgb(183, 184, 186);" transform="matrix(1, 0, 0, 1, 0, 0)"/><path d="M 634.700012 286.399994 H 643.500012 V 286.599994 H 634.700012 V 286.399994 Z" class="st8" style="fill: rgb(183, 184, 186);" transform="matrix(1, 0, 0, 1, 0, 0)"/><path d="M 632.299988 283.600006 H 645.899988 V 283.800006 H 632.299988 V 283.600006 Z" class="st8" style="fill: rgb(183, 184, 186);" transform="matrix(1, 0, 0, 1, 0, 0)"/><path d="M 632.299988 289.200012 H 645.899988 V 289.400012 H 632.299988 V 289.200012 Z" class="st8" style="fill: rgb(183, 184, 186);" transform="matrix(1, 0, 0, 1, 0, 0)"/><path d="M 634.700012 293.200012 H 643.500012 V 293.400012 H 634.700012 V 293.200012 Z" class="st8" style="fill: rgb(183, 184, 186);" transform="matrix(1, 0, 0, 1, 0, 0)"/><path d="M 634.700012 299.700012 H 643.500012 V 299.900012 H 634.700012 V 299.700012 Z" class="st8" style="fill: rgb(183, 184, 186);" transform="matrix(1, 0, 0, 1, 0, 0)"/><path d="M 632.299988 296.799988 H 645.899988 V 296.999988 H 632.299988 V 296.799988 Z" class="st8" style="fill: rgb(183, 184, 186);" transform="matrix(1, 0, 0, 1, 0, 0)"/><path d="M 632.299988 302.399994 H 645.899988 V 302.599994 H 632.299988 V 302.399994 Z" class="st8" style="fill: rgb(183, 184, 186);" transform="matrix(1, 0, 0, 1, 0, 0)"/><path d="M 634.700012 305 H 643.500012 V 305.2 H 634.700012 V 305 Z" class="st8" style="fill: rgb(183, 184, 186);" transform="matrix(1, 0, 0, 1, 0, 0)"/><path d="M 634.700012 311.399994 H 643.500012 V 311.599994 H 634.700012 V 311.399994 Z" class="st8" style="fill: rgb(183, 184, 186);" transform="matrix(1, 0, 0, 1, 0, 0)"/><path d="M 632.299988 308.5 H 645.899988 V 308.7 H 632.299988 V 308.5 Z" class="st8" style="fill: rgb(183, 184, 186);" transform="matrix(1, 0, 0, 1, 0, 0)"/><path d="M 632.299988 314.100006 H 645.899988 V 314.300006 H 632.299988 V 314.100006 Z" class="st8" style="fill: rgb(183, 184, 186);" transform="matrix(1, 0, 0, 1, 0, 0)"/><path d="M 634.700012 318.200012 H 643.500012 V 318.400012 H 634.700012 V 318.200012 Z" class="st8" style="fill: rgb(183, 184, 186);" transform="matrix(1, 0, 0, 1, 0, 0)"/><path d="M 634.700012 324.600006 H 643.500012 V 324.800006 H 634.700012 V 324.600006 Z" class="st8" style="fill: rgb(183, 184, 186);" transform="matrix(1, 0, 0, 1, 0, 0)"/><path d="M 632.299988 321.700012 H 645.899988 V 321.900012 H 632.299988 V 321.700012 Z" class="st8" style="fill: rgb(183, 184, 186);" transform="matrix(1, 0, 0, 1, 0, 0)"/><path d="M 632.299988 327.299988 H 645.899988 V 327.499988 H 632.299988 V 327.299988 Z" class="st8" style="fill: rgb(183, 184, 186);" transform="matrix(1, 0, 0, 1, 0, 0)"/><path d="M 634.700012 331.399994 H 643.500012 V 331.599994 H 634.700012 V 331.399994 Z" class="st8" style="fill: rgb(183, 184, 186);" transform="matrix(1, 0, 0, 1, 0, 0)"/><path d="M 634.700012 337.799988 H 643.500012 V 337.999988 H 634.700012 V 337.799988 Z" class="st8" style="fill: rgb(183, 184, 186);" transform="matrix(1, 0, 0, 1, 0, 0)"/><path d="M 632.299988 335 H 645.899988 V 335.2 H 632.299988 V 335 Z" class="st8" style="fill: rgb(183, 184, 186);" transform="matrix(1, 0, 0, 1, 0, 0)"/><path d="M 632.299988 340.600006 H 645.899988 V 340.800006 H 632.299988 V 340.600006 Z" class="st8" style="fill: rgb(183, 184, 186);" transform="matrix(1, 0, 0, 1, 0, 0)"/><path d="M 634.700012 344.700012 H 643.500012 V 344.900012 H 634.700012 V 344.700012 Z" class="st8" style="fill: rgb(183, 184, 186);" transform="matrix(1, 0, 0, 1, 0, 0)"/><path d="M 634.700012 351.100006 H 643.500012 V 351.300006 H 634.700012 V 351.100006 Z" class="st8" style="fill: rgb(183, 184, 186);" transform="matrix(1, 0, 0, 1, 0, 0)"/><path d="M 632.299988 348.200012 H 645.899988 V 348.400012 H 632.299988 V 348.200012 Z" class="st8" style="fill: rgb(183, 184, 186);" transform="matrix(1, 0, 0, 1, 0, 0)"/><path d="M 632.299988 353.799988 H 645.899988 V 353.999988 H 632.299988 V 353.799988 Z" class="st8" style="fill: rgb(183, 184, 186);" transform="matrix(1, 0, 0, 1, 0, 0)"/><path class="st6" d="M861.4,394.7c-16.5,6.3-73,3.8-80.6-0.6c-4.9-2.8-6.5-17.9-1-22.5c8-6.6,31.4,1.4,41.8,1.3&#10;&#9;&#9;&#9;c21-0.2,32.9-11.7,41.1-5.4C868.4,371.9,867.5,392.3,861.4,394.7" style="fill: rgb(239, 239, 239); stroke: rgb(59, 7, 9); stroke-miterlimit: 10;" transform="matrix(1, 0, 0, 1, 0, 0)"/><path class="st4" d="M762.8,388.9c-20.4,0-40.4-12.8-58.4-24.4c-7.6-4.9-14.8-9.5-21.4-12.7c-5.7-2.8-10.4-3.1-14.3-1.1&#10;&#9;&#9;&#9;c-7.5,4-10.8,16.3-11.4,20.7c-0.3,2.2-2.3,3.7-4.5,3.4c-2.2-0.3-3.7-2.3-3.4-4.5c0.1-0.8,3-20,15.5-26.6c6.2-3.3,13.4-3,21.5,1&#10;&#9;&#9;&#9;c7,3.4,14.4,8.1,22.2,13.2c21.3,13.7,45.4,29.1,67.7,20.6c2.1-0.8,4.3,0.2,5.1,2.3c0.8,2.1-0.2,4.4-2.3,5.1&#10;&#9;&#9;&#9;C773.8,388,768.3,388.9,762.8,388.9" style="fill: rgb(59, 7, 9); stroke: rgb(59, 7, 9); stroke-miterlimit: 10;" transform="matrix(1, 0, 0, 1, 0, 0)"/><path class="st5" d="M662.4,416.8H564c-9.3,0-16.9-7.6-16.9-16.9v-37.9c0-2.4,1.9-4.3,4.3-4.3H675c2.4,0,4.3,1.9,4.3,4.3v38&#10;&#9;&#9;&#9;C679.2,409.3,671.7,416.8,662.4,416.8" style="fill: rgb(178, 21, 27); stroke: rgb(59, 7, 9); stroke-miterlimit: 10;" transform="matrix(1, 0, 0, 1, 0, 0)"/><path class="st4" d="M723,432.8c-12.8,0-22.4-1.5-27.1-6.4c-2.2-2.3-3.2-5.2-2.9-8.5c0.6-6.1,3.8-10.2,9.6-12.6&#10;&#9;&#9;&#9;c4.7-1.9,10.7-2.6,18.3-3.4c13.9-1.6,30.8-10.4,52.9-21.8c2-1,4.3-0.2,5.4,1.7c1,2,0.2,4.3-1.7,5.4c-23.4,12.1-41.1,21-55.7,22.6&#10;&#9;&#9;&#9;c-16.1,1.8-20.2,2.9-20.9,8.9c-0.1,1.1,0.2,1.6,0.7,2.1c5.5,5.6,30.9,3.9,46.2,2.8c6.4-0.4,11.9-0.8,16-0.8c2.2,0,4,1.8,4,4&#10;&#9;&#9;&#9;c0,2.2-1.8,4-4,4c-3.9,0-9.2,0.4-15.4,0.8C739,432.3,730.5,432.8,723,432.8" style="fill: rgb(59, 7, 9); stroke: rgb(59, 7, 9); stroke-miterlimit: 10;" transform="matrix(1, 0, 0, 1, 0, 0)"/><path class="st6" d="M832.7,426.3c0,11.2-9.1,20.2-20.2,20.2c-11.2,0-49.5-8.5-49.5-19.7c0-11.2,38.3-20.8,49.5-20.8&#10;&#9;&#9;&#9;C823.6,406.1,832.7,415.2,832.7,426.3" style="fill: rgb(239, 239, 239); stroke: rgb(59, 7, 9); stroke-miterlimit: 10;" transform="matrix(1, 0, 0, 1, 0, 0)"/><path class="st20" d="M765.3,425.3c0,0,3.6-6.8,13.9-7.4c0,0-6.5,2.4-8.3,3.4C769.2,422.2,765.3,425.3,765.3,425.3z" style="fill: rgb(59, 7, 9);" transform="matrix(1, 0, 0, 1, 0, 0)"/><path class="st20" d="M764.5,428.2c0,0,3.7,6.8,14,7.2c0,0-6.5-2.3-8.3-3.3C768.4,431.2,764.5,428.2,764.5,428.2z" style="fill: rgb(59, 7, 9);" transform="matrix(1, 0, 0, 1, 0, 0)"/><path class="st20" d="M767.5,426.3c0,0-0.5-1.1,0-1.6c0.7-0.7,2-1.7,3.5-2.1c1.1-0.3,2.3-0.2,3-0.2c0,0-2.1,0.5-3.5,1.5&#10;&#9;&#9;&#9;C769,424.9,767.5,426.3,767.5,426.3z" style="fill: rgb(59, 7, 9);" transform="matrix(1, 0, 0, 1, 0, 0)"/><path class="st20" d="M767.1,427.8c0,0-0.2-1.2,0.3-1.6c0.8-0.6,2.2-0.3,3.8-0.3c1.1-0.1,2.8,0.5,3.4,0.6c0,0-2.7-0.2-4.2,0.5&#10;&#9;&#9;&#9;C768.8,427.7,767.1,427.8,767.1,427.8z" style="fill: rgb(59, 7, 9);" transform="matrix(1, 0, 0, 1, 0, 0)"/><path class="st20" d="M767.5,428.1c0,0-0.3,1.2,0.3,1.6c0.8,0.6,2.3,1.3,3.8,1.4c1.1,0.1,2.3-0.3,3-0.3c0,0-2.2-0.1-3.7-0.8&#10;&#9;&#9;&#9;C769.2,429.2,767.5,428.1,767.5,428.1z" style="fill: rgb(59, 7, 9);" transform="matrix(1, 0, 0, 1, 0, 0)"/><path class="st5" d="M763.6,433.9h-4c-2.6,0-4.7-2.1-4.7-4.7v-4c0-2.6,2.1-4.7,4.7-4.7h4c2.6,0,4.7,2.1,4.7,4.7v4&#10;&#9;&#9;&#9;C768.3,431.8,766.2,433.9,763.6,433.9" style="fill: rgb(178, 21, 27); stroke: rgb(59, 7, 9); stroke-miterlimit: 10;" transform="matrix(1, 0, 0, 1, 0, 0)"/><path class="st5" d="M779.8,389.5h-4c-2.6,0-4.7-2.1-4.7-4.7v-4c0-2.6,2.1-4.7,4.7-4.7h4c2.6,0,4.7,2.1,4.7,4.7v4&#10;&#9;&#9;&#9;C784.5,387.4,782.4,389.5,779.8,389.5" style="fill: rgb(178, 21, 27); stroke: rgb(59, 7, 9); stroke-miterlimit: 10;" transform="matrix(1, 0, 0, 1, 0, 0)"/><path class="st20" d="M777.8,375.8c0,0,0.2-3.5,3.3-4.1c3.8-0.7,11.5,3.9,28.3,6.7c29.1,4.8,45.4-4.1,47.3-5.6c0,0-11,8.1-38.3,8.1&#10;&#9;&#9;c-11.7,0-28.1-6.2-37-6.9C778.3,373.9,777.8,375.8,777.8,375.8z" style="fill: rgb(59, 7, 9);" transform="matrix(1, 0, 0, 1, 0, 0)"/><path class="st20" d="M865.8,383.7c0,0,1.2,8.2-3.8,10.5c-7.2,3.2-22.9,1.2-42.5-0.7c-27.4-2.6-31.2-6.8-31.2-6.8&#10;&#9;&#9;s20.7,7.8,56.1,7.8C871.2,394.5,865.8,383.7,865.8,383.7z" style="fill: rgb(59, 7, 9);" transform="matrix(1, 0, 0, 1, 0, 0)"/>
</svg>