<?xml version="1.0" encoding="utf-8"?>
<svg id="master-artboard" viewBox="0 0 1400 980" version="1.1" xmlns="http://www.w3.org/2000/svg" x="0px" y="0px" enable-background="new 0 0 1400 980" width="1400px" height="980px">
<path d="M 0 0 H 1400 V 980 H 0 V 0 Z" fill="#9DAEC2" transform="matrix(1, 0, 0, 1, 0, 0)"/><path d="M 310.299988 456.200012 H 773.899994 V 725.200012 H 310.299988 V 456.200012 Z" fill="#FDFEFF" transform="matrix(1, 0, 0, 1, 0, 0)"/><path fill="#51AEA4" d="M789.8,439.5H294.3c-4.6,0-8.4,3.7-8.4,8.4c0,4.6,3.7,8.4,8.4,8.4h495.5c4.6,0,8.4-3.7,8.4-8.4&#10;&#9;&#9;&#9;C798.2,443.2,794.4,439.5,789.8,439.5z" transform="matrix(1, 0, 0, 1, 0, 0)"/><path fill="#CBCBCA" d="M529.3,541.7H321.9v-76.8h207.5V541.7z M324.1,539.4h202.9v-72.2H324.1V539.4z" transform="matrix(1, 0, 0, 1, 0, 0)"/><path d="M 425.599994 501.399994 A 5.7 5.7 0 0 1 419.899994 507.099994 A 5.7 5.7 0 0 1 414.199994 501.399994 A 5.7 5.7 0 0 1 419.899994 495.699994 A 5.7 5.7 0 0 1 425.599994 501.399994 Z" fill="#466777" transform="matrix(1, 0, 0, 1, 0, 0)"/><path fill="#CBCBCA" d="M529.3,623H321.9v-76.8h207.5V623z M324.1,620.7h202.9v-72.2H324.1V620.7z" transform="matrix(1, 0, 0, 1, 0, 0)"/><path d="M 425.599994 582.700012 A 5.7 5.7 0 0 1 419.899994 588.400012 A 5.7 5.7 0 0 1 414.199994 582.700012 A 5.7 5.7 0 0 1 419.899994 577.000012 A 5.7 5.7 0 0 1 425.599994 582.700012 Z" fill="#466777" transform="matrix(1, 0, 0, 1, 0, 0)"/><path d="M 575.299975 540.599976 A 5.7 5.7 0 0 1 569.599976 546.299975 A 5.7 5.7 0 0 1 563.899976 540.599976 A 5.7 5.7 0 0 1 569.599976 534.899976 A 5.7 5.7 0 0 1 575.299975 540.599976 Z" fill="#466777" transform="matrix(1, 0, 0, 1, 0, 0)"/><path fill="#CBCBCA" d="M529.3,704.3H321.9v-76.8h207.5V704.3z M324.1,702h202.9v-72.2H324.1V702z" transform="matrix(1, 0, 0, 1, 0, 0)"/><path d="M 425.599994 664 A 5.7 5.7 0 0 1 419.899994 669.7 A 5.7 5.7 0 0 1 414.199994 664 A 5.7 5.7 0 0 1 419.899994 658.3 A 5.7 5.7 0 0 1 425.599994 664 Z" fill="#466777" transform="matrix(1, 0, 0, 1, 0, 0)"/><path fill="#CBCBCA" d="M760.4,704.3H540.9v-76.8h219.4V704.3z M543.2,702h214.9v-72.2H543.2V702z" transform="matrix(1, 0, 0, 1, 0, 0)"/><path d="M 650.599976 664 A 6 5.7 0 0 1 644.599976 669.7 A 6 5.7 0 0 1 638.599976 664 A 6 5.7 0 0 1 644.599976 658.3 A 6 5.7 0 0 1 650.599976 664 Z" fill="#466777" transform="matrix(1, 0, 0, 1, 0, 0)"/><path fill="#CBCBCA" d="M760.4,623H540.9V464.9h219.4V623z M543.2,620.7h214.9V467.2H543.2V620.7z" transform="matrix(1, 0, 0, 1, 0, 0)"/><path d="M 825.200012 300 H 1122.200012 V 318.6 H 825.200012 V 300 Z" fill="#D1ECE8" transform="matrix(1, 0, 0, 1, 0, 0)"/><g transform="matrix(1, 0, 0, 1, 0, 0)">
			<path d="M 265 161.199997 H 591.100006 V 386 H 265 V 161.199997 Z" fill="#B6E3EF"/>
			<path fill="#3FA3BF" d="M597.6,392.5H258.5V154.7h339.1V392.5z M271.5,379.5h313.1V167.7H271.5V379.5z"/>
		</g><path fill="#FFF5F1" d="M485.8,241c-17.4-26.1-57.8-11.9-57.8-11.9s-40.4-14.3-57.8,11.9c-12,18-2.2,48.3,5,65.5&#10;&#9;&#9;&#9;&#9;c3.3,7.9,5.5,16.3,6.1,24.9c0.6,8.7,2.8,20.9,9.2,32.4c1.6,2.8,5.8,1.9,6-1.4c1.1-18.4,6.4-55.7,31.5-55.7&#10;&#9;&#9;&#9;&#9;c25.1,0,30.4,37.4,31.5,55.7c0.2,3.2,4.4,4.2,6,1.4c6.4-11.6,8.6-23.8,9.2-32.4c0.6-8.6,2.7-17,6.1-24.9&#10;&#9;&#9;&#9;&#9;C488.1,289.3,497.8,259,485.8,241z" transform="matrix(1, 0, 0, 1, 0, 0)"/><path fill="#F8A178" d="M469.2,272.3c0,0-5.3-5.5-1.7-18.2c2.7-9.2-19.3-7.3-31.6-5.6c-5.2,0.7-10.5,0.7-15.8,0&#10;&#9;&#9;&#9;&#9;c-12.3-1.7-34.3-3.6-31.6,5.6c3.7,12.7-1.7,18.2-1.7,18.2c-10.9,30.6,2.5,77.4,6.5,90c0.2,0.5,0.9,0.4,0.9-0.2&#10;&#9;&#9;&#9;&#9;c-1.8-62.9,33.8-62.5,33.8-62.5s35.6-0.4,33.8,62.5c0,0.5,0.8,0.7,0.9,0.2C466.7,349.7,480.1,302.9,469.2,272.3z" transform="matrix(1, 0, 0, 1, 0, 0)"/><g transform="matrix(1, 0, 0, 1, 0, 0)">
				<path d="M 506.700012 276.299988 H 565.700012 V 278.299988 H 506.700012 V 276.299988 Z" fill="#576A76"/>
				<path d="M 506.700012 280.799988 H 565.700012 V 282.799988 H 506.700012 V 280.799988 Z" fill="#576A76"/>
				<path d="M 506.700012 285.299988 H 565.700012 V 287.299988 H 506.700012 V 285.299988 Z" fill="#576A76"/>
				<path d="M 506.700012 289.799988 H 565.700012 V 291.799988 H 506.700012 V 289.799988 Z" fill="#576A76"/>
				<path d="M 506.700012 294.299988 H 565.700012 V 296.299988 H 506.700012 V 294.299988 Z" fill="#576A76"/>
				<path d="M 506.700012 298.799988 H 565.700012 V 300.799988 H 506.700012 V 298.799988 Z" fill="#576A76"/>
			</g><g transform="matrix(1, 0, 0, 1, 0, 0)">
				<path d="M 287.299988 241 H 346.299988 V 243 H 287.299988 V 241 Z" fill="#576A76"/>
				<path d="M 287.299988 245.5 H 346.299988 V 247.5 H 287.299988 V 245.5 Z" fill="#576A76"/>
				<path d="M 287.299988 250 H 346.299988 V 252 H 287.299988 V 250 Z" fill="#576A76"/>
				<path d="M 287.299988 254.5 H 346.299988 V 256.5 H 287.299988 V 254.5 Z" fill="#576A76"/>
				<path d="M 287.299988 259 H 346.299988 V 261 H 287.299988 V 259 Z" fill="#576A76"/>
				<path d="M 287.299988 263.5 H 346.299988 V 265.5 H 287.299988 V 263.5 Z" fill="#576A76"/>
			</g><g transform="matrix(1, 0, 0, 1, 0, 0)">
				<path d="M 299.399994 334.799988 H 358.399994 V 336.799988 H 299.399994 V 334.799988 Z" fill="#576A76"/>
				<path d="M 299.399994 339.299988 H 358.399994 V 341.299988 H 299.399994 V 339.299988 Z" fill="#576A76"/>
				<path d="M 299.399994 343.799988 H 358.399994 V 345.799988 H 299.399994 V 343.799988 Z" fill="#576A76"/>
				<path d="M 299.399994 348.299988 H 358.399994 V 350.299988 H 299.399994 V 348.299988 Z" fill="#576A76"/>
				<path d="M 299.399994 352.799988 H 358.399994 V 354.799988 H 299.399994 V 352.799988 Z" fill="#576A76"/>
				<path d="M 299.399994 357.299988 H 358.399994 V 359.299988 H 299.399994 V 357.299988 Z" fill="#576A76"/>
			</g><g transform="matrix(1, 0, 0, 1, 0, 0)">
				<path fill="#576A76" d="M331.4,202.4v-24.3h3.2v21.5h12v2.9H331.4z"/>
				<path fill="#576A76" d="M348.9,193.6c0-3.3,0.9-5.7,2.7-7.3c1.5-1.3,3.4-2,5.5-2c2.4,0,4.4,0.8,5.9,2.4c1.5,1.6,2.3,3.8,2.3,6.6&#10;&#9;&#9;&#9;&#9;&#9;c0,2.3-0.3,4.1-1,5.4c-0.7,1.3-1.7,2.3-3,3c-1.3,0.7-2.7,1.1-4.3,1.1c-2.5,0-4.5-0.8-6-2.4C349.7,198.8,348.9,196.5,348.9,193.6&#10;&#9;&#9;&#9;&#9;&#9;z M352,193.6c0,2.3,0.5,3.9,1.5,5.1c1,1.1,2.2,1.7,3.7,1.7c1.5,0,2.7-0.6,3.7-1.7c1-1.1,1.5-2.8,1.5-5.2c0-2.2-0.5-3.8-1.5-5&#10;&#9;&#9;&#9;&#9;&#9;c-1-1.1-2.2-1.7-3.7-1.7c-1.5,0-2.7,0.6-3.7,1.7C352.5,189.6,352,191.3,352,193.6z"/>
				<path fill="#576A76" d="M368.9,202.4v-17.6h2.7v2.7c0.7-1.2,1.3-2.1,1.9-2.5c0.6-0.4,1.2-0.6,1.9-0.6c1,0,2,0.3,3.1,1l-1,2.8&#10;&#9;&#9;&#9;&#9;&#9;c-0.7-0.4-1.5-0.6-2.2-0.6c-0.7,0-1.2,0.2-1.8,0.6s-0.9,0.9-1.1,1.6c-0.3,1.1-0.5,2.2-0.5,3.5v9.2H368.9z"/>
				<path fill="#576A76" d="M392.3,196.7l3.1,0.4c-0.5,1.8-1.4,3.2-2.7,4.2c-1.3,1-3,1.5-5,1.5c-2.6,0-4.6-0.8-6.1-2.4&#10;&#9;&#9;&#9;&#9;&#9;c-1.5-1.6-2.3-3.8-2.3-6.7c0-3,0.8-5.3,2.3-6.9c1.5-1.6,3.5-2.5,5.9-2.5c2.4,0,4.3,0.8,5.8,2.4c1.5,1.6,2.2,3.9,2.2,6.8&#10;&#9;&#9;&#9;&#9;&#9;c0,0.2,0,0.4,0,0.8h-13.1c0.1,1.9,0.7,3.4,1.6,4.4c1,1,2.2,1.5,3.7,1.5c1.1,0,2-0.3,2.8-0.9C391.2,198.9,391.8,198,392.3,196.7z&#10;&#9;&#9;&#9;&#9;&#9; M382.5,191.9h9.8c-0.1-1.5-0.5-2.6-1.1-3.3c-1-1.2-2.2-1.7-3.7-1.7c-1.4,0-2.5,0.5-3.5,1.4&#10;&#9;&#9;&#9;&#9;&#9;C383.1,189.1,382.6,190.3,382.5,191.9z"/>
				<path fill="#576A76" d="M399.1,202.4v-17.6h2.7v2.5c0.6-0.9,1.3-1.6,2.2-2.1c0.9-0.5,2-0.8,3.1-0.8c1.3,0,2.4,0.3,3.2,0.8&#10;&#9;&#9;&#9;&#9;&#9;s1.4,1.3,1.8,2.3c1.4-2.1,3.2-3.1,5.4-3.1c1.7,0,3.1,0.5,4,1.5c0.9,1,1.4,2.5,1.4,4.5v12.1h-3v-11.1c0-1.2-0.1-2.1-0.3-2.6&#10;&#9;&#9;&#9;&#9;&#9;s-0.5-0.9-1.1-1.3c-0.5-0.3-1.1-0.5-1.8-0.5c-1.2,0-2.3,0.4-3.1,1.2c-0.8,0.8-1.2,2.1-1.2,4v10.2h-3v-11.4c0-1.3-0.2-2.3-0.7-3&#10;&#9;&#9;&#9;&#9;&#9;s-1.3-1-2.4-1c-0.8,0-1.6,0.2-2.3,0.7c-0.7,0.4-1.2,1.1-1.6,1.9c-0.3,0.9-0.5,2.1-0.5,3.7v9.1H399.1z"/>
				<path fill="#576A76" d="M437.8,202.4v-24.3h3.2v24.3H437.8z"/>
				<path fill="#576A76" d="M446.3,209.1v-24.4h2.7v2.3c0.6-0.9,1.4-1.6,2.2-2c0.8-0.4,1.8-0.7,2.9-0.7c1.5,0,2.8,0.4,4,1.2&#10;&#9;&#9;&#9;&#9;&#9;c1.1,0.8,2,1.9,2.6,3.3c0.6,1.4,0.9,3,0.9,4.6c0,1.8-0.3,3.4-1,4.9c-0.6,1.4-1.6,2.5-2.8,3.3s-2.5,1.2-3.9,1.2&#10;&#9;&#9;&#9;&#9;&#9;c-1,0-1.9-0.2-2.7-0.6c-0.8-0.4-1.4-1-1.9-1.6v8.6H446.3z M449,193.7c0,2.3,0.5,3.9,1.4,5c0.9,1.1,2,1.6,3.3,1.6&#10;&#9;&#9;&#9;&#9;&#9;c1.3,0,2.5-0.6,3.4-1.7c0.9-1.1,1.4-2.9,1.4-5.2c0-2.2-0.5-3.9-1.4-5c-0.9-1.1-2-1.7-3.3-1.7c-1.3,0-2.4,0.6-3.4,1.8&#10;&#9;&#9;&#9;&#9;&#9;C449.5,189.7,449,191.4,449,193.7z"/>
				<path fill="#576A76" d="M464,197.1l3-0.5c0.2,1.2,0.6,2.1,1.4,2.7c0.8,0.6,1.8,0.9,3.2,0.9c1.4,0,2.4-0.3,3.1-0.8&#10;&#9;&#9;&#9;&#9;&#9;c0.7-0.6,1-1.2,1-2c0-0.7-0.3-1.2-0.9-1.6c-0.4-0.3-1.4-0.6-3.1-1c-2.2-0.6-3.7-1-4.6-1.4c-0.8-0.4-1.5-1-1.9-1.7&#10;&#9;&#9;&#9;&#9;&#9;c-0.4-0.7-0.7-1.5-0.7-2.4c0-0.8,0.2-1.5,0.5-2.2c0.4-0.7,0.8-1.2,1.5-1.7c0.5-0.3,1.1-0.6,1.9-0.9c0.8-0.2,1.7-0.4,2.6-0.4&#10;&#9;&#9;&#9;&#9;&#9;c1.4,0,2.6,0.2,3.6,0.6c1,0.4,1.8,0.9,2.3,1.6c0.5,0.7,0.8,1.6,1,2.7l-2.9,0.4c-0.1-0.9-0.5-1.6-1.2-2.1&#10;&#9;&#9;&#9;&#9;&#9;c-0.6-0.5-1.5-0.8-2.7-0.8c-1.4,0-2.4,0.2-2.9,0.7c-0.6,0.5-0.9,1-0.9,1.6c0,0.4,0.1,0.7,0.4,1c0.2,0.3,0.6,0.6,1.1,0.8&#10;&#9;&#9;&#9;&#9;&#9;c0.3,0.1,1.2,0.4,2.6,0.8c2.1,0.6,3.6,1,4.4,1.4c0.8,0.4,1.5,0.9,2,1.6c0.5,0.7,0.7,1.5,0.7,2.6c0,1-0.3,1.9-0.9,2.8&#10;&#9;&#9;&#9;&#9;&#9;c-0.6,0.9-1.4,1.6-2.5,2c-1.1,0.5-2.3,0.7-3.7,0.7c-2.3,0-4-0.5-5.2-1.4C465.1,200.4,464.4,199,464,197.1z"/>
				<path fill="#576A76" d="M493.8,202.4v-2.6c-1.4,2-3.2,3-5.6,3c-1,0-2-0.2-2.9-0.6c-0.9-0.4-1.6-0.9-2-1.5&#10;&#9;&#9;&#9;&#9;&#9;c-0.4-0.6-0.7-1.3-0.9-2.2c-0.1-0.6-0.2-1.5-0.2-2.8v-10.9h3v9.8c0,1.6,0.1,2.6,0.2,3.2c0.2,0.8,0.6,1.4,1.2,1.9&#10;&#9;&#9;&#9;&#9;&#9;c0.6,0.4,1.4,0.7,2.3,0.7s1.7-0.2,2.5-0.7c0.8-0.5,1.3-1.1,1.7-1.9c0.3-0.8,0.5-1.9,0.5-3.4v-9.4h3v17.6H493.8z"/>
				<path fill="#576A76" d="M501.1,202.4v-17.6h2.7v2.5c0.6-0.9,1.3-1.6,2.2-2.1c0.9-0.5,2-0.8,3.1-0.8c1.3,0,2.4,0.3,3.2,0.8&#10;&#9;&#9;&#9;&#9;&#9;s1.4,1.3,1.8,2.3c1.4-2.1,3.2-3.1,5.4-3.1c1.7,0,3.1,0.5,4,1.5c0.9,1,1.4,2.5,1.4,4.5v12.1h-3v-11.1c0-1.2-0.1-2.1-0.3-2.6&#10;&#9;&#9;&#9;&#9;&#9;s-0.5-0.9-1.1-1.3c-0.5-0.3-1.1-0.5-1.8-0.5c-1.2,0-2.3,0.4-3.1,1.2c-0.8,0.8-1.2,2.1-1.2,4v10.2h-3v-11.4c0-1.3-0.2-2.3-0.7-3&#10;&#9;&#9;&#9;&#9;&#9;s-1.3-1-2.4-1c-0.8,0-1.6,0.2-2.3,0.7c-0.7,0.4-1.2,1.1-1.6,1.9c-0.3,0.9-0.5,2.1-0.5,3.7v9.1H501.1z"/>
			</g><g transform="matrix(1, 0, 0, 1, 0, 0)">
			<path fill="#89C658" d="M1012,684.5c0,0,20.2-13.2,23.2-43.6c3-30.4,18-70.5,18-70.5s-27.1,20.8-31.9,45.8&#10;&#9;&#9;&#9;&#9;c-4.8,25.1-6.1,53.9-17.4,61.4L1012,684.5z"/>
			<path fill="#448C4E" d="M999.3,676.5c0,0-22.4-19.4-21-56.9s-10.2-88.9-10.2-88.9s29.5,29.8,31.2,61.1&#10;&#9;&#9;&#9;&#9;c1.7,31.3-1.5,66.6,10.9,77.7L999.3,676.5z"/>
			<path fill="#89C658" d="M999.4,655.8c0,0-15.3-12.5,0-47.2c15.3-34.7,8.6-83.2-6.8-134.6c0,0,58.1,30.5,44.2,90.9&#10;&#9;&#9;&#9;&#9;c-13.9,60.4-33.8,56.2-21.1,104.8L999.4,655.8z"/>
			<path fill="#448C4E" d="M1027.9,663.9c0,0,12.5-20.6,2.2-49.3c-10.3-28.7-14-71.4-14-71.4s-15.5,30.4-9.1,55.1&#10;&#9;&#9;&#9;&#9;c6.4,24.7,17.6,51.3,10.7,62.9L1027.9,663.9z"/>
		</g><path d="M 1010.5 663.5999755859375 L 973.2000122070312 663.5999755859375 L 985.5999755859375 724.2000122070312 L 1010.5 724.2000122070312 L 1038.0999755859375 724.2000122070312 L 1047.699951171875 663.5999755859375 Z" fill="#835A44" transform="matrix(1, 0, 0, 1, 0, 0)"/><path d="M 966.599976 650.799988 H 1054.299973 V 663.599988 H 966.599976 V 650.799988 Z" fill="#835A44" transform="matrix(1, 0, 0, 1, 0, 0)"/><path d="M 973.2000122070312 663.5999755859375 L 973.5999755859375 667.7000122070312 L 1047.4000244140625 667.7000122070312 L 1047.699951171875 663.5999755859375 L 1010.5 663.5999755859375 Z" fill="#684734" transform="matrix(1, 0, 0, 1, 0, 0)"/><g transform="matrix(1, 0, 0, 1, 0, 0)">
			<g>
				<path fill="#83BDC0" d="M575.3,881.9h0.2C575.5,881.9,575.4,881.9,575.3,881.9L575.3,881.9z"/>
				<g>
					<path fill="#768D9F" d="M351.6,815.4h-58.5c-10.5,0-19,7.1-19,15.8v0c0,8.7,8.5,15.8,19,15.8h58.5c10.5,0,19-7.1,19-15.8v0&#10;&#9;&#9;&#9;&#9;&#9;&#9;C370.6,822.5,362.1,815.4,351.6,815.4z"/>
				</g>
				<g>
					<path fill="#768D9F" d="M308.2,723.8h315.4h218.3h283.1c22.8,0,41.3,15.4,41.3,34.3c0,19-18.5,34.3-41.3,34.3H953.1v0.1&#10;&#9;&#9;&#9;&#9;&#9;&#9;c-9.1,0-16.4,6.1-16.4,13.6c0,7.5,7.3,13.6,16.4,13.6h9.8c2.6,0,5.2,0.3,7.6,0.9c16.4,3.3,28.6,15.5,28.6,30.2&#10;&#9;&#9;&#9;&#9;&#9;&#9;c0,15.8-14.3,28.9-32.7,30.8H885c7,0,12.6,5.7,12.6,12.6S892,907,885,907H567c-7,0-12.6-5.7-12.6-12.6s5.7-12.6,12.6-12.6h9&#10;&#9;&#9;&#9;&#9;&#9;&#9;c0.5,0,1.1,0,1.6,0h0.3c3.7-0.9,6.4-3.7,6.4-7c0-3.1-2.3-5.8-5.6-6.8H431.8c-15.9,0-28.8-10.7-28.8-24l0,0&#10;&#9;&#9;&#9;&#9;&#9;&#9;c0-13.2,12.9-24,28.8-24h40.5c-0.2,0-0.5,0-0.7,0c12.7-0.3,22.9-9,22.9-19.6l0,0c0-10.6-10.2-19.3-22.9-19.6c0.2,0,0.5,0,0.7,0&#10;&#9;&#9;&#9;&#9;&#9;&#9;h-164c-18.8,0-34.1-12.7-34.1-28.4C274.1,736.5,289.4,723.8,308.2,723.8z"/>
				</g>
			</g>
		</g><path fill="#6F8496" d="M510.5,758.9h494.1c9.6,0,17.4,7.8,17.4,17.4c0,9.6-7.8,17.4-17.4,17.4H735c18.2,0,33,14.8,33,33l0,0&#10;&#9;&#9;&#9;c0,9.9-4.4,18.8-11.3,24.9c-4.1,4.9-10.2,8.1-17.1,8.1H735h-21.5H549.2c-12.2,0-22.1-9.9-22.1-22.1v0c0-12.2,9.9-22.1,22.1-22.1&#10;&#9;&#9;&#9;h19.1c-0.4,0-0.9,0-1.3-0.1c5.4-0.6,9.5-5.2,9.5-10.8c0-5.5-4.2-10.1-9.5-10.8c0.4-0.1,0.9-0.1,1.3-0.1h-57.8&#10;&#9;&#9;&#9;c-9.6,0-17.4-7.8-17.4-17.4C493.1,766.7,500.9,758.9,510.5,758.9z" transform="matrix(1, 0, 0, 1, 0, 0)"/><g transform="matrix(1, 0, 0, 1, 0, 0)">
				<path fill="#6F8496" d="M847.5,841.8h62.2c4.8,0,8.7,3.9,8.7,8.7s-3.9,8.7-8.7,8.7h-62.2c-4.8,0-8.7-3.9-8.7-8.7&#10;&#9;&#9;&#9;&#9;&#9;S842.7,841.8,847.5,841.8z"/>
				<path d="M 812.000025 849.799988 A 8.6 8.6 0 0 1 803.400024 858.399988 A 8.6 8.6 0 0 1 794.800024 849.799988 A 8.6 8.6 0 0 1 803.400024 841.199987 A 8.6 8.6 0 0 1 812.000025 849.799988 Z" fill="#6F8496"/>
			</g><path fill="#6F8496" d="M1010.9,738.3h75.3c4.6,0,8.3,3.7,8.3,8.3c0,4.6-3.7,8.3-8.3,8.3h-75.3c-4.6,0-8.3-3.7-8.3-8.3&#10;&#9;&#9;&#9;C1002.6,742,1006.3,738.3,1010.9,738.3z" transform="matrix(1, 0, 0, 1, 0, 0)"/><path fill="#6F8496" d="M336.9,738.3h75.3c4.6,0,8.3,3.7,8.3,8.3c0,4.6-3.7,8.3-8.3,8.3h-75.3c-4.6,0-8.3-3.7-8.3-8.3&#10;&#9;&#9;&#9;C328.6,742,332.3,738.3,336.9,738.3z" transform="matrix(1, 0, 0, 1, 0, 0)"/><g transform="matrix(1, 0, 0, 1, 0, 0)">
				<path fill="#768D9F" d="M1051.4,833.7h-33.8c-6.1,0-11-4.1-11-9.2l0,0c0-5.1,4.9-9.2,11-9.2h33.8c6.1,0,11,4.1,11,9.2l0,0&#10;&#9;&#9;&#9;&#9;&#9;C1062.4,829.6,1057.5,833.7,1051.4,833.7z"/>
				<path fill="#768D9F" d="M1103.9,833.7h-11.4c-6.1,0-11-4.1-11-9.2l0,0c0-5.1,4.9-9.2,11-9.2h11.4c6.1,0,11,4.1,11,9.2l0,0&#10;&#9;&#9;&#9;&#9;&#9;C1114.9,829.6,1110,833.7,1103.9,833.7z"/>
			</g><g transform="matrix(1, 0, 0, 1, 0, 0)">
				<g>
					<path d="M 532.299975 918.900024 A 13.2 5.8 0 0 1 519.099976 924.700025 A 13.2 5.8 0 0 1 505.899976 918.900024 A 13.2 5.8 0 0 1 519.099976 913.100024 A 13.2 5.8 0 0 1 532.299975 918.900024 Z" fill="#6F8496"/>
				</g>
				<g>
					<path d="M 503.8 899.799988 A 6.8 3 0 0 1 497 902.799988 A 6.8 3 0 0 1 490.2 899.799988 A 6.8 3 0 0 1 497 896.799988 A 6.8 3 0 0 1 503.8 899.799988 Z" fill="#6F8496"/>
				</g>
			</g><g transform="matrix(1, 0, 0, 1, 0, 0)">
			<path fill="#FCBD74" d="M541.7,374.5l-8.9,7.3c0,0,0.3,1.3,2.6,1.3c2.3,0,7.9-4.3,7.9-4.3l-3.5,4.3c0,0,1.8,1.3,4.3,0&#10;&#9;&#9;&#9;&#9;c2.5-1.3,4.5-3.3,4.5-3.3l6.6,0.7l-1-4.5L541.7,374.5z"/>
			<path fill="#E5E0D7" d="M529.6,382.6c0,0.8-0.7,1.5-1.5,1.5h-24.2c-0.8,0-1.5-0.7-1.5-1.5l0,0c0-0.8,0.7-1.5,1.5-1.5h24.2&#10;&#9;&#9;&#9;&#9;C528.9,381.2,529.6,381.8,529.6,382.6L529.6,382.6z"/>
			<path fill="#C4C1BC" d="M550.4,383.1c0,1.4-1.2,2.6-2.6,2.6h-19.9c-1.4,0-2.6-1.2-2.6-2.6l0,0c0-1.4,1.2-2.6,2.6-2.6h19.9&#10;&#9;&#9;&#9;&#9;C549.2,380.5,550.4,381.7,550.4,383.1L550.4,383.1z"/>
			<path fill="#FFD391" d="M579.1,385.3c-5.1-3.1-14.1-12.2-18-13.9c-4-1.7-17.7,0-19.8,0.3c-2.1,0.3-12.4,7.4-12.4,7.4&#10;&#9;&#9;&#9;&#9;s0.7,2.1,3.1,2c2.5-0.2,10.9-4.1,10.9-4.1l8.1,0.8c0,0,4.1,4.3,5.3,6.1c1.2,1.8-7.6,6.9-11.4,6.1c-3.8-0.8-8.8-5.3-11.9-5.1&#10;&#9;&#9;&#9;&#9;c-3.1,0.2-2.5,2.8-2.5,2.8s11.2,8.9,13.7,9.6c2.5,0.7,17.4-1.5,19.2-1c1.8,0.5,8.4,2.3,8.4,2.3S579.1,386.3,579.1,385.3z"/>
			<path fill="#028993" d="M583.7,386c0,0-4.9-3.1-7.4-1.5c-2.5,1.5-6.4,12.6-5.5,15c0.9,2.5,4.6,2.5,4.6,2.5L583.7,386z"/>
			<path fill="#EEEFE9" d="M713,344.1c0,0-5.3,0.4-9.8,7.8s-58.4,49.5-68.2,49.5c-9.8,0-46.2-17.2-50.3-18.4&#10;&#9;&#9;&#9;&#9;c-4.1-1.2-11.4,11.4-11.4,18.4c0,6.9,58,29,80.1,27c22.1-2,57.6-32.3,57.6-32.3L713,344.1z"/>
			<g>
				<path d="M 780 659.200012 H 803.299999 V 789.600006 H 780 V 659.200012 Z" fill="#FFD391"/>
				<path d="M 798.099976 792.299988 H 804.399976 V 798.699988 H 798.099976 V 792.299988 Z" fill="#369FB0"/>
				<path fill="#FFD391" d="M753.1,804.9c0,0,6.1-5.3,16.6-7.8c10.4-2.5,10.4-7.6,10.4-7.6h23.3v7.2l-12.5,10.6l-13.3,0.4&#10;&#9;&#9;&#9;&#9;&#9;L753.1,804.9z"/>
				<path fill="#369FB0" d="M756.9,802c0,0,14.7,0.2,26.2,0.2c11.4,0,21.3-9.2,21.3-9.2v21.3h-9v-5.7c0,0-7.2,5.9-16.8,5.9&#10;&#9;&#9;&#9;&#9;&#9;s-34.9,0-34.9,0S746.9,802,756.9,802z"/>
			</g>
			<g>
				<path d="M 733 659.200012 H 756.299999 V 789.600006 H 733 V 659.200012 Z" fill="#FFD391"/>
				<path d="M 751.099976 792.299988 H 757.399976 V 798.699988 H 751.099976 V 792.299988 Z" fill="#369FB0"/>
				<path fill="#FFD391" d="M706.1,804.9c0,0,6.1-5.3,16.6-7.8c10.4-2.5,10.4-7.6,10.4-7.6h23.3v7.2l-12.5,10.6l-13.3,0.4&#10;&#9;&#9;&#9;&#9;&#9;L706.1,804.9z"/>
				<path fill="#369FB0" d="M709.9,802c0,0,14.7,0.2,26.2,0.2c11.4,0,21.3-9.2,21.3-9.2v21.3h-9v-5.7c0,0-7.2,5.9-16.8,5.9&#10;&#9;&#9;&#9;&#9;&#9;c-9.6,0-34.9,0-34.9,0S699.9,802,709.9,802z"/>
			</g>
			<path d="M 718.5 567.7000122070312 L 719.0999755859375 701.7000122070312 L 812.9000244140625 701.7000122070312 L 805.5999755859375 552.0999755859375 Z" fill="#369FB0"/>
			<g>
				<path fill="#EEEFE9" d="M820.3,348c0,0-9.2,125.7-9.2,134.9c0,9.2,6.1,157.5,6.1,157.5s-31.9,4.9-55.8,4.9&#10;&#9;&#9;&#9;&#9;&#9;c-23.9,0-27-5.5-27-5.5l-8.6-66.2L724,641c0,0-9.8,1.8-11.6-0.6c-1.8-2.5-1.2-153.3-1.2-153.3l-5.5-61.3c0,0-8.6-6.1-9.8-19.6&#10;&#9;&#9;&#9;&#9;&#9;c-1.2-13.5,13.5-62.5,13.5-62.5s17.2-5.5,54.6-7.4C801.3,334.5,811.7,337.6,820.3,348z"/>
			</g>
			<path fill="#C9C9C5" d="M811.1,482.9c0-5.7,3.6-56.8,6.3-94.4l-10.4-8l-9.4,29.4c0,0-18.8,6.9-60.5,6.1&#10;&#9;&#9;&#9;&#9;c-31.5-0.6-38.7-3.3-40.4-4.6c2.6,9.9,8.9,14.4,8.9,14.4l0.2,1.8c23,2.9,90.2,1.9,90.2,1.9l5.4,213c9.4-1.1,15.9-2.1,15.9-2.1&#10;&#9;&#9;&#9;&#9;S811.1,492.1,811.1,482.9z"/>
			<path fill="#FFD391" d="M810.2,544.2c0,0-10,10-12.6,14.3c-2.6,4.3-1.3,7.2-1.3,7.2s0.4,4.3,1.7,6c1.3,1.7,11.9,7.2,14.7,7.5&#10;&#9;&#9;&#9;&#9;c2.8,0.2,7.7-3.4,9.4-6.6c1.7-3.2-0.6-4.3-0.6-4.3s3.8-1.9,5.1-8.1c1.3-6.2-1.1-9.4-1.1-9.4L810.2,544.2z"/>
			<path fill="#028993" d="M812.9,535.1l-3.8,8.7c0,0,6.6,8.7,18.6,8.7l3.3-6.6L812.9,535.1z"/>
			<path fill="#EEEFE9" d="M810.3,340c9,1.6,68.8,71.2,69.8,106.6c1,35.5-42.7,97.7-46.8,101.3c-4.1,3.6-18-1.5-22.1-7.7&#10;&#9;&#9;&#9;&#9;c-4.1-6.2,37.5-67.9,37.5-81.2c0-13.4-35-59.6-35-59.6S801.3,338.4,810.3,340z"/>
			<path fill="#028993" d="M763.9,336.4c-15.4,0.8-27.3,2.1-36,3.5c-1.1,12.3-3.1,39.4-0.9,63.9c0,0,38.8-50.7,53.2-67.9&#10;&#9;&#9;&#9;&#9;C775.3,335.9,770,336.1,763.9,336.4z"/>
			<g>
				<path d="M 728.299988 557.900024 A 2 2 0 0 1 726.299988 559.900024 A 2 2 0 0 1 724.299988 557.900024 A 2 2 0 0 1 726.299988 555.900024 A 2 2 0 0 1 728.299988 557.900024 Z" fill="#369FB0"/>
				<path d="M 728.299988 534.200012 A 2 2 0 0 1 726.299988 536.200012 A 2 2 0 0 1 724.299988 534.200012 A 2 2 0 0 1 726.299988 532.200012 A 2 2 0 0 1 728.299988 534.200012 Z" fill="#369FB0"/>
				<path d="M 728.299988 510.5 A 2 2 0 0 1 726.299988 512.5 A 2 2 0 0 1 724.299988 510.5 A 2 2 0 0 1 726.299988 508.5 A 2 2 0 0 1 728.299988 510.5 Z" fill="#369FB0"/>
				<path d="M 728.299988 486.799988 A 2 2 0 0 1 726.299988 488.799988 A 2 2 0 0 1 724.299988 486.799988 A 2 2 0 0 1 726.299988 484.799988 A 2 2 0 0 1 728.299988 486.799988 Z" fill="#369FB0"/>
				<path d="M 728.299988 463.100006 A 2 2 0 0 1 726.299988 465.100006 A 2 2 0 0 1 724.299988 463.100006 A 2 2 0 0 1 726.299988 461.100006 A 2 2 0 0 1 728.299988 463.100006 Z" fill="#369FB0"/>
				<path d="M 728.299988 439.299988 A 2 2 0 0 1 726.299988 441.299988 A 2 2 0 0 1 724.299988 439.299988 A 2 2 0 0 1 726.299988 437.299988 A 2 2 0 0 1 728.299988 439.299988 Z" fill="#369FB0"/>
			</g>
			<path fill="#E5E0D7" d="M511.6,384.1l-17.9-7.5c-0.8-0.3-1.6,0-1.9,0.8c-0.3,0.8,0,1.6,0.8,1.9l11.4,4.8H511.6z"/>
			<path fill="#C4C1BC" d="M498.3,377.2c-0.2,0.4-0.7,0.7-1.1,0.5l-6.7-2.4c-0.4-0.2-0.7-0.7-0.5-1.1l0,0c0.2-0.4,0.7-0.7,1.1-0.5&#10;&#9;&#9;&#9;&#9;l6.7,2.4C498.2,376.3,498.5,376.8,498.3,377.2L498.3,377.2z"/>
			<path fill="#E5E0D7" d="M500.5,376.2c-0.2,0.6-0.9,1-1.6,0.7l-9.5-3.5c-0.6-0.2-1-0.9-0.7-1.6l0,0c0.2-0.6,0.9-1,1.6-0.7l9.5,3.5&#10;&#9;&#9;&#9;&#9;C500.4,374.9,500.7,375.6,500.5,376.2L500.5,376.2z"/>
			<path d="M 751.4000244140625 558.2999877929688 L 789.4000244140625 558.2999877929688 L 789.4000244140625 600.4000244140625 L 772.9000244140625 616.9000244140625 L 782.9000244140625 599.0999755859375 L 782.9000244140625 564.4000244140625 L 756.7000122070312 564.4000244140625 L 756.7000122070312 571.7999877929688 L 751.4000244140625 561.9000244140625 Z" fill="#D8D4D3"/>
			<path fill="#FFD391" d="M742.6,325.7l0.4,19.4c0,0,1,6.3,3.9,6.1c2.9-0.2,15.7-8.4,17.6-14.1c1.8-5.7,2.5-26.4,2.5-26.4&#10;&#9;&#9;&#9;&#9;L742.6,325.7z"/>
			<path fill="#FCBD72" d="M742.7,327l0.2,8.8c2.9-0.9,6-2.6,11.7-4c5.7-1.3,8.1-0.1,10.6,0.9c0.9-8.2,1.8-21.9,1.8-21.9L745,324.3&#10;&#9;&#9;&#9;&#9;C744.2,325.2,743.4,326.1,742.7,327z"/>
			<path fill="#433C35" d="M779.7,236.9c0,0,0.4-18.6,22.5-18.9s26.3,48.9-5.3,46.6S779.7,236.9,779.7,236.9z"/>
			<path fill="#E54145" d="M773.9,236.4c0,0,0.2-5.5,5.9-5.7c5.7-0.2,24.2,19.8,23.2,33.5c-1,13.7-12.9-1.1-12.9-1.1L773.9,236.4z"/>
			<path fill="#433C35" d="M713.2,282c0,0-8.1-3.2-9.5-21c-1.3-17.8,17.6-20.1,21-18.9c0,0,22-16.9,47.9-10.6c26,6.3,46,60.2,5.1,76&#10;&#9;&#9;&#9;&#9;C736.9,323.1,713.2,282,713.2,282z"/>
			<path fill="#FFD391" d="M710.4,271.4c0,0-0.1,27.2,2,37.8c2,10.6,21.7,25.7,21.7,25.7s30.7-2,36-24.5c0,0,13.3,4.7,16.1-5.7&#10;&#9;&#9;&#9;&#9;c2.9-10.4-4.7-19.8-13.3-14.7c0,0-44.5-2.9-47.8-26.4C725.1,263.6,715.1,273.1,710.4,271.4z"/>
			<path d="M 720.100012 295.5 A 1.4 2.7 0 0 1 718.700012 298.2 A 1.4 2.7 0 0 1 717.300012 295.5 A 1.4 2.7 0 0 1 718.700012 292.8 A 1.4 2.7 0 0 1 720.100012 295.5 Z" fill="#433C35"/>
			<path d="M 741.600012 295.5 A 1.4 2.7 0 0 1 740.200012 298.2 A 1.4 2.7 0 0 1 738.800012 295.5 A 1.4 2.7 0 0 1 740.200012 292.8 A 1.4 2.7 0 0 1 741.600012 295.5 Z" fill="#433C35"/>
			<path fill="#433C35" d="M714.2,290.6c0,0,1.8-2.5,3.9-2.5c2,0,4.5,2.5,5.7,2c1.2-0.4,2-2,1.4-2.9&#10;&#9;&#9;&#9;&#9;C724.6,286.5,717.1,282.8,714.2,290.6z"/>
			<path fill="#433C35" d="M747.5,290.6c0,0-1.8-2.5-3.9-2.5c-2,0-4.5,2.5-5.7,2c-1.2-0.4-2-2-1.4-2.9&#10;&#9;&#9;&#9;&#9;C737.1,286.5,744.7,282.8,747.5,290.6z"/>
			<path fill="#EEEFE9" d="M708.9,302.6c0,0,9.8-2.7,16.8-2.5c6.9,0.2,32.9,5.3,32.9,5.3s0.6,14.1-0.2,18&#10;&#9;&#9;&#9;&#9;c-0.8,3.9-20.4,11.2-25.1,11.6c-4.7,0.4-18.4-12.7-20.8-16.8C709.9,314.3,708.1,306.9,708.9,302.6z"/>
			<path fill="#C9CBC9" d="M725.1,331c3.3,2.5,6.4,4.3,8.2,4.2c4.7-0.4,24.3-7.8,25.1-11.6c0.8-3.9,0.2-18,0.2-18s-26-5.1-32.9-5.3&#10;&#9;&#9;&#9;&#9;c-0.5,0-1,0-1.5,0c10.8,1,28.6,5.3,29.7,8.6c1.2,3.7,1.4,12.5,1.4,12.5s-9.4,7.6-20.2,9.6C731,331.6,727.6,331.4,725.1,331z"/>
			<path d="M 754.0999755859375 306.70001220703125 L 772.5 288.70001220703125 L 773.7000122070312 288.70001220703125 L 773.0999755859375 291.6000061035156 L 757.7000122070312 307.5 L 772.9000244140625 311.20001220703125 L 771 314.29998779296875 L 755.9000244140625 310.79998779296875 Z" fill="#C9CBC9"/>
			<path d="M 754.7000122070312 324.1000061035156 L 766.9000244140625 323.1000061035156 L 767.2000122070312 326.79998779296875 L 752.2000122070312 327.79998779296875 Z" fill="#C9CBC9"/>
		</g><path fill="#E6C071" d="M641.1,489.6c0,0,24.5,6.9,37.2,12.7c12.7,5.7,93.6,13.9,115.7,21.7C816,531.7,966,649,966,649&#10;&#9;&#9;&#9;&#9;l-23.3,22.1c0,0-144.3-92.4-162.2-92c-18,0.4-92.4,5.3-154.9,1.6c-62.5-3.7-74-14.7-74-14.7L641.1,489.6z" transform="matrix(1, 0, 0, 1, 0, 0)"/><path fill="#E86F32" d="M440.4,400.1c0,0,21.7-7.8,45-4.9c23.3,2.9,42.9,36,49,38.4c6.1,2.5,39.6,12.7,62.5,23.3&#10;&#9;&#9;&#9;&#9;c22.9,10.6,47,31.5,47,31.5s6.1,26.6-24.5,49c-30.7,22.5-67.8,30.7-67.8,30.7s-79.7-77.6-98.1-99.7&#10;&#9;&#9;&#9;&#9;C435.1,446.3,440.4,400.1,440.4,400.1z" transform="matrix(1, 0, 0, 1, 0, 0)"/><path d="M 658.2000122070312 744.5999755859375 L 607.5999755859375 693.9000244140625 L 667.2000122070312 672.7000122070312 L 724 704.2000122070312 L 690.9000244140625 737.2999877929688 Z" fill="#D1D0CC" transform="matrix(1, 0, 0, 1, 0, 0)"/><path d="M 658.2000122070312 744.5999755859375 L 685.4000244140625 738.5 L 631.4000244140625 708.5999755859375 L 624.5999755859375 711 Z" fill="#B4AFAE" transform="matrix(1, 0, 0, 1, 0, 0)"/><path d="M 690.7999877929688 685.7999877929688 L 667.2000122070312 672.7000122070312 L 607.5999755859375 693.9000244140625 L 627.5999755859375 714 Z" fill="#B4AFAE" transform="matrix(1, 0, 0, 1, 0, 0)"/><path d="M 621.9000244140625 778.5 L 672.5 727.9000244140625 L 724 704.2000122070312 L 724 783.4000244140625 Z" fill="#14B16A" transform="matrix(1, 0, 0, 1, 0, 0)"/><path fill="#D1D0CC" d="M576.9,813.3h166.7l12.3-27c0,0-28.2-33.1-67.4-33.1c-39.2,0-118.9,38-118.9,38S551.2,813.3,576.9,813.3&#10;&#9;&#9;&#9;&#9;&#9;z" transform="matrix(1, 0, 0, 1, 0, 0)"/><path fill="#B4AFAE" d="M755.9,786.3c0,0-4.4-5.1-12-11.3c-9.7,12.1-32.5,16.2-32.5,16.2H677l-22.9,9h-89.9&#10;&#9;&#9;&#9;&#9;&#9;c-2.3,6.1-1.8,13.1,12.7,13.1h166.7L755.9,786.3z" transform="matrix(1, 0, 0, 1, 0, 0)"/><path d="M 694.200024 728.299988 A 16.299999 16.299999 0 0 1 677.900024 744.599987 A 16.299999 16.299999 0 0 1 661.600025 728.299988 A 16.299999 16.299999 0 0 1 677.900024 711.999989 A 16.299999 16.299999 0 0 1 694.200024 728.299988 Z" fill="#B4AFAE" transform="matrix(1, 0, 0, 1, 0, 0)"/><path d="M 688.500025 728.299988 A 10.6 10.6 0 0 1 677.900024 738.899988 A 10.6 10.6 0 0 1 667.300024 728.299988 A 10.6 10.6 0 0 1 677.900024 717.699987 A 10.6 10.6 0 0 1 688.500025 728.299988 Z" fill="#14B16A" transform="matrix(1, 0, 0, 1, 0, 0)"/><path d="M 686.100024 728.299988 A 8.2 8.2 0 0 1 677.900024 736.499988 A 8.2 8.2 0 0 1 669.700025 728.299988 A 8.2 8.2 0 0 1 677.900024 720.099988 A 8.2 8.2 0 0 1 686.100024 728.299988 Z" fill="#4CC0B6" transform="matrix(1, 0, 0, 1, 0, 0)"/><path d="M 404.8999938964844 475.70001220703125 L 386.1000061035156 475.70001220703125 L 386.1000061035156 488.79998779296875 L 406.1000061035156 508.79998779296875 L 418.29998779296875 496.6000061035156 Z" fill="#65615E" transform="matrix(1, 0, 0, 1, 0, 0)"/><path fill="#D1D0CC" d="M548.4,616.7c-5.4,5.2-14,5-19.2-0.4l-131-137c-5.2-5.4-5-14,0.4-19.2l0,0c5.4-5.2,14-5,19.2,0.4&#10;&#9;&#9;&#9;&#9;&#9;l131,137C554,603,553.8,611.6,548.4,616.7L548.4,616.7z" transform="matrix(1, 0, 0, 1, 0, 0)"/><path d="M 788.4000244140625 609.0999755859375 L 537.7000122070312 609.0999755859375 L 537.7000122070312 650.2000122070312 L 587.9000244140625 707.2000122070312 L 613.0999755859375 707.2000122070312 L 757.7000122070312 642.5 L 781 652.0999755859375 L 806.7999877929688 652.0999755859375 L 806.7999877929688 623.2000122070312 Z" fill="#D1D0CC" transform="matrix(1, 0, 0, 1, 0, 0)"/><path fill="#14B16A" d="M945.1,699.6c-3.9,5.9-11.8,7.6-17.7,3.7l-149.6-97.5c-5.9-3.9-7.6-11.8-3.7-17.7l0,0&#10;&#9;&#9;&#9;&#9;&#9;c3.9-5.9,11.8-7.6,17.7-3.7l149.6,97.5C947.3,685.8,949,693.7,945.1,699.6L945.1,699.6z" transform="matrix(1, 0, 0, 1, 0, 0)"/><path fill="#14B16A" d="M552,595.4c-5.1,4.9-13.2,4.7-18.1-0.4L410.5,465.9c-4.9-5.1-4.7-13.2,0.4-18.1l0,0&#10;&#9;&#9;&#9;&#9;&#9;c5.1-4.9,13.2-4.7,18.1,0.4l123.4,129.1C557.2,582.4,557.1,590.5,552,595.4L552,595.4z" transform="matrix(1, 0, 0, 1, 0, 0)"/><path fill="#65615E" d="M392.3,444.5c-5.4,2-11.4-0.8-13.4-6.2L362.2,392c-2-5.4,0.8-11.4,6.2-13.4l0,0c5.4-2,11.4,0.8,13.4,6.2&#10;&#9;&#9;&#9;&#9;&#9;l16.7,46.3C400.5,436.5,397.7,442.5,392.3,444.5L392.3,444.5z" transform="matrix(1, 0, 0, 1, 0, 0)"/><path fill="#14B16A" d="M412.4,443.7c-6.6,2.4-14-1-16.4-7.6l-20.4-56.7c-2.4-6.6,1-14,7.6-16.4l0,0c6.6-2.4,14,1,16.4,7.6&#10;&#9;&#9;&#9;&#9;&#9;l20.4,56.7C422.4,433.9,419,441.3,412.4,443.7L412.4,443.7z" transform="matrix(1, 0, 0, 1, 0, 0)"/><path fill="#14B16A" d="M794.5,592.9c0,9-7.3,16.2-16.2,16.2H551.5c-9,0-16.2-7.3-16.2-16.2l0,0c0-9,7.3-16.2,16.2-16.2h226.8&#10;&#9;&#9;&#9;&#9;&#9;C787.3,576.7,794.5,583.9,794.5,592.9L794.5,592.9z" transform="matrix(1, 0, 0, 1, 0, 0)"/><path fill="#D1D0CC" d="M766.1,558.2c0,5.6-4.5,10.1-10.1,10.1H559.1c-5.6,0-10.1-4.5-10.1-10.1l0,0c0-5.6,4.5-10.1,10.1-10.1&#10;&#9;&#9;&#9;&#9;&#9;H756C761.6,548,766.1,552.6,766.1,558.2L766.1,558.2z" transform="matrix(1, 0, 0, 1, 0, 0)"/><path d="M 558.500011 615.5 A 16.299999 16.299999 0 0 1 542.200012 631.799999 A 16.299999 16.299999 0 0 1 525.900013 615.5 A 16.299999 16.299999 0 0 1 542.200012 599.200001 A 16.299999 16.299999 0 0 1 558.500011 615.5 Z" fill="#B4AFAE" transform="matrix(1, 0, 0, 1, 0, 0)"/><path d="M 552.800013 615.5 A 10.6 10.6 0 0 1 542.200012 626.1 A 10.6 10.6 0 0 1 531.600012 615.5 A 10.6 10.6 0 0 1 542.200012 604.9 A 10.6 10.6 0 0 1 552.800013 615.5 Z" fill="#14B16A" transform="matrix(1, 0, 0, 1, 0, 0)"/><path d="M 550.400012 615.5 A 8.2 8.2 0 0 1 542.200012 623.7 A 8.2 8.2 0 0 1 534.000012 615.5 A 8.2 8.2 0 0 1 542.200012 607.3 A 8.2 8.2 0 0 1 550.400012 615.5 Z" fill="#4CC0B6" transform="matrix(1, 0, 0, 1, 0, 0)"/><path d="M 576.5 560.700012 H 591.2 V 617.100014 H 576.5 V 560.700012 Z" fill="#D1D0CC" transform="matrix(1, 0, 0, 1, 0, 0)"/><path d="M 729.299988 560.700012 H 743.999988 V 617.100014 H 729.299988 V 560.700012 Z" fill="#D1D0CC" transform="matrix(1, 0, 0, 1, 0, 0)"/><path d="M 357.8999938964844 457.8999938964844 L 357.8999938964844 419.5 L 373.70001220703125 403.70001220703125 L 377.20001220703125 407.20001220703125 L 362.79998779296875 421.6000061035156 L 362.79998779296875 455.8999938964844 L 399.3999938964844 492.6000061035156 L 396 496 L 357.8999938964844 457.8999938964844 Z" fill="#65615E" transform="matrix(1, 0, 0, 1, 0, 0)"/><path d="M 368.8999938964844 455.6000061035156 L 368.8999938964844 427.70001220703125 L 380.3999938964844 416.20001220703125 L 382.1000061035156 417.8999938964844 L 371.29998779296875 428.70001220703125 L 371.29998779296875 454.6000061035156 L 398.6000061035156 481.79998779296875 L 396.79998779296875 483.5 L 368.8999938964844 455.6000061035156 Z" fill="#65615E" transform="matrix(1, 0, 0, 1, 0, 0)"/><path fill="#FFD391" d="M732.4,524.8c0,9.5-4.5,17.2-10.1,17.2H557.9c-5.6,0-10.1-7.7-10.1-17.2l0,0c0-9.5,4.5-17.2,10.1-17.2&#10;&#9;&#9;&#9;&#9;&#9;h164.4C727.9,507.6,732.4,515.3,732.4,524.8L732.4,524.8z" transform="matrix(1, 0, 0, 1, 0, 0)"/><path fill="#FFD391" d="M434.4,408.3c6.4-7,14.9-9.6,19-5.8l121.3,111c4.1,3.8,2.3,12.5-4.1,19.5l0,0c-6.4,7-14.9,9.6-19,5.8&#10;&#9;&#9;&#9;&#9;&#9;l-121.3-111C426.1,424,428,415.3,434.4,408.3L434.4,408.3z" transform="matrix(1, 0, 0, 1, 0, 0)"/><path fill="#FFD391" d="M702.6,508.6c0,4.9-3.9,8.8-8.8,8.8l0,0c-4.9,0-8.8-3.9-8.8-8.8v-4.5c0-4.9,3.9-8.8,8.8-8.8l0,0&#10;&#9;&#9;&#9;&#9;&#9;c4.9,0,8.8,3.9,8.8,8.8V508.6z" transform="matrix(1, 0, 0, 1, 0, 0)"/><path fill="#89AAC9" d="M680.1,540.9c0,2.6-2.1,4.7-4.7,4.7l0,0c-2.6,0-4.7-2.1-4.7-4.7v-32.7c0-2.6,2.1-4.7,4.7-4.7l0,0&#10;&#9;&#9;&#9;&#9;&#9;c2.6,0,4.7,2.1,4.7,4.7V540.9z" transform="matrix(1, 0, 0, 1, 0, 0)"/><path d="M 686.200025 525.599976 A 9.8 9.8 0 0 1 676.400024 535.399976 A 9.8 9.8 0 0 1 666.600024 525.599976 A 9.8 9.8 0 0 1 676.400024 515.799975 A 9.8 9.8 0 0 1 686.200025 525.599976 Z" fill="#89AAC9" transform="matrix(1, 0, 0, 1, 0, 0)"/><path d="M 684.200025 525.599976 A 7.8 7.8 0 0 1 676.400024 533.399976 A 7.8 7.8 0 0 1 668.600024 525.599976 A 7.8 7.8 0 0 1 676.400024 517.799975 A 7.8 7.8 0 0 1 684.200025 525.599976 Z" fill="#FFFFFF" transform="matrix(1, 0, 0, 1, 0, 0)"/><path d="M 677.300024 525.599976 A 0.9 0.9 0 0 1 676.400024 526.499976 A 0.9 0.9 0 0 1 675.500024 525.599976 A 0.9 0.9 0 0 1 676.400024 524.699976 A 0.9 0.9 0 0 1 677.300024 525.599976 Z" fill="#754D29" transform="matrix(1, 0, 0, 1, 0, 0)"/><path d="M 676 519.599976 H 676.9 V 525.699975 H 676 V 519.599976 Z" fill="#754D29" transform="matrix(1, 0, 0, 1, 0, 0)"/><path d="M 677 524.700012 H 677.9 V 528.600012 H 677 V 524.700012 Z" transform="matrix(-0.7311000227928162, 0.6822999715805054, -0.6822999715805054, -0.7311000227928162, 1532.1098861114658, 449.3973150461511)" fill="#754D29"/><path fill="#65615E" d="M424.9,403.4l-6.1-2v4.1c0,0-24.1-31.5-32.3-56c-8.2-24.5,0.4-29,0.4-29s-0.8-12.7,12.7-21.3&#10;&#9;&#9;&#9;&#9;c13.5-8.6,40.5-14.7,59.3-13.9c18.8,0.8,24.5,2,24.5,2l-3.3,2.5c0,0,0,3.3,4.1,5.7c4.1,2.5,5.7,2.5,5.7,2.5s-1.6,0.8-5.7,2.9&#10;&#9;&#9;&#9;&#9;c-4.1,2-3.7,4.9-3.7,4.9l2.9,3.7h-6.1l2,4.1l-8.2,1.6c0,0-7.4,57.2-9.8,59.3C458.8,376.4,424.9,403.4,424.9,403.4z" transform="matrix(1, 0, 0, 1, 0, 0)"/><path d="M 470.5 380.8999938964844 L 482.5 377.3999938964844 L 484.1000061035156 381.29998779296875 L 476.3999938964844 383.6000061035156 Z" fill="#D1D0CC" transform="matrix(1, 0, 0, 1, 0, 0)"/><path fill="#D1D0CC" d="M468,369.9l13.3-2.5l0.2-3.9C481.5,363.5,467.4,366.6,468,369.9z" transform="matrix(1, 0, 0, 1, 0, 0)"/><path fill="#FFD391" d="M429.8,411.1l-9.4-11.9l9-4.9l-4.9-14.7l5.3-4.5l-0.4-3.3c0,0-8.2,4.1-14.7-3.7&#10;&#9;&#9;&#9;&#9;c-6.5-7.8-6.5-23.7,0.8-25.3c7.4-1.6,11.4,4.9,11.4,4.9l8.2,13.5l5.7-4.5l-6.9-22.1l7.4-0.8l0.4-6.1l17.2-13.5l-4.1-5.7l15.1-0.8&#10;&#9;&#9;&#9;&#9;l6.1,13.9v6.9l12.7,19.6l1.2,6.9l-4.5,3.7l-0.8,6.5c0,0-13.1,0.4-15.9,6.5c-2.9,6.1,2,12.3,17.2,6.9l1.6,4.9l-3.7,1.2&#10;&#9;&#9;&#9;&#9;c0,0,0.8,5.3-3.7,8.2c-4.5,2.9-31.5,10.2-31.5,10.2L429.8,411.1z" transform="matrix(1, 0, 0, 1, 0, 0)"/><path fill="#E86F32" d="M468.6,481.8l40.5-39.6c0,0-31.1-40.9-54.4-44.1c-23.3-3.3-35.1,15.5-29,33.1&#10;&#9;&#9;&#9;&#9;C431.8,448.7,468.6,481.8,468.6,481.8z" transform="matrix(1, 0, 0, 1, 0, 0)"/><path fill="#D1D0CC" d="M450.1,463.7c2.9,3,5.6,5.8,8.1,8.2l42.4-40c-2.3-2.7-5.1-5.6-8.1-8.7L450.1,463.7z" transform="matrix(1, 0, 0, 1, 0, 0)"/><path fill="#E6C071" d="M984,695.6l-0.3,4.3l6.4,4c0,0,5.5-2.5,11-6.1c5.5-3.7,12.9-15.9,12.9-15.9l-3.4-3.4l3.1-3.7l3.7,1.5&#10;&#9;&#9;&#9;&#9;&#9;c0,0,19.3-24.8,22.7-32.5c3.4-7.7,4.6-12,4.6-12l-5.2-3.4l-1.5,0.9L984,695.6z" transform="matrix(1, 0, 0, 1, 0, 0)"/><path fill="#65615E" d="M964,649.6c0,0,15,6.4,26.1,2.1c11-4.3,35.2-25.1,42.3-23.3c7,1.8,8.3,2.1,8.3,2.1s-47.2,68.7-54.9,69&#10;&#9;&#9;&#9;&#9;&#9;c-7.7,0.3-38.3-27-38.3-27L964,649.6z" transform="matrix(1, 0, 0, 1, 0, 0)"/><path d="M 989.2000122070312 650.5 L 992.7999877929688 662.2000122070312 L 995 660.9000244140625 L 991.9000244140625 648.4000244140625 Z" fill="#E6C071" transform="matrix(1, 0, 0, 1, 0, 0)"/><path d="M 993.5 648.0999755859375 L 997.0999755859375 659.7000122070312 L 999.2999877929688 658.5 L 996.2000122070312 645.9000244140625 Z" fill="#E6C071" transform="matrix(1, 0, 0, 1, 0, 0)"/><path d="M 997.7000122070312 645.2999877929688 L 1001.4000244140625 657 L 1003.5999755859375 655.7000122070312 L 1000.5 643.2000122070312 Z" fill="#E6C071" transform="matrix(1, 0, 0, 1, 0, 0)"/><path d="M 1003 641.5999755859375 L 1006.5999755859375 653.2999877929688 L 1008.7999877929688 652.0999755859375 L 1005.7000122070312 639.5 Z" fill="#E6C071" transform="matrix(1, 0, 0, 1, 0, 0)"/><path d="M 1007.5999755859375 638.9000244140625 L 1011.2000122070312 650.5 L 1013.4000244140625 649.2999877929688 L 1010.2999877929688 636.7000122070312 Z" fill="#E6C071" transform="matrix(1, 0, 0, 1, 0, 0)"/><path d="M 936.0999755859375 669.7999877929688 L 961.5 640.4000244140625 L 973.7000122070312 648.5999755859375 L 945.5 677.5999755859375 Z" fill="#E5AE6B" transform="matrix(1, 0, 0, 1, 0, 0)"/><path d="M 470.799994 333.899994 A 1.4 3.7 0 0 1 469.399994 337.599994 A 1.4 3.7 0 0 1 467.999994 333.899994 A 1.4 3.7 0 0 1 469.399994 330.199994 A 1.4 3.7 0 0 1 470.799994 333.899994 Z" transform="matrix(0.9673000574111938, -0.25369998812675476, 0.25369998812675476, 0.9673000574111938, -69.35180004465282, 130.01600840711603)" fill="#65615E"/><path fill="#65615E" d="M468.6,320.8c0,0-1.4,5.7-5.5,6.5c-4.1,0.8-5.5,1.6-5.5,1.6s6.1,1.2,9.6,0&#10;&#9;&#9;&#9;&#9;C470.7,327.8,468.6,320.8,468.6,320.8z" transform="matrix(1, 0, 0, 1, 0, 0)"/><g transform="matrix(1, 0, 0, 1, 0, 0)">
			<path fill="#025469" d="M433,832.9c3.2,0,3.2-5,0-5S429.7,832.9,433,832.9L433,832.9z"/>
		</g><path fill="#D15051" d="M883.8,217.1h-11.2c-6,0-10.9,4.9-10.9,10.9v73.5h33V228C894.8,221.9,889.9,217.1,883.8,217.1z" transform="matrix(1, 0, 0, 1, 0, 0)"/><path fill="#657474" d="M881.8,207.1h-7c-1.1,0-2,0.9-2,2v7.9h11v-7.9C883.8,208,882.9,207.1,881.8,207.1z" transform="matrix(1, 0, 0, 1, 0, 0)"/><path fill="#3AACE2" d="M925.6,252.2h-6.4c-3.4,0-6.2,2.8-6.2,6.2v41.8h18.7v-41.8C931.8,255,929,252.2,925.6,252.2z" transform="matrix(1, 0, 0, 1, 0, 0)"/><path fill="#657474" d="M924.4,246.6h-4c-0.6,0-1.1,0.5-1.1,1.1v4.5h6.2v-4.5C925.5,247.1,925,246.6,924.4,246.6z" transform="matrix(1, 0, 0, 1, 0, 0)"/><path d="M 1014.299988 220.300003 H 1036.299988 V 299.900002 H 1014.299988 V 220.300003 Z" fill="#FFCF87" transform="matrix(1, 0, 0, 1, 0, 0)"/><path d="M 1037.599976 220.300003 H 1059.599976 V 299.900002 H 1037.599976 V 220.300003 Z" fill="#FBCBC6" transform="matrix(1, 0, 0, 1, 0, 0)"/><path d="M 1060.900024 220.300003 H 1082.900024 V 299.900002 H 1060.900024 V 220.300003 Z" fill="#FFCF87" transform="matrix(1, 0, 0, 1, 0, 0)"/><path d="M 978.900024 219.5 H 1000.900024 V 299.099998 H 978.900024 V 219.5 Z" transform="matrix(0.9355000853538513, 0.353300005197525, -0.353300005197525, 0.9355000853538513, 155.45210497754968, -333.0172168764057)" fill="#C98454"/>
</svg>