<?xml version="1.0" encoding="utf-8"?>
<svg id="master-artboard" viewBox="0 0 1400 980" version="1.1" xmlns="http://www.w3.org/2000/svg" x="0px" y="0px" width="1400px" height="980px" enable-background="new 0 0 1400 980" xmlns:xlink="http://www.w3.org/1999/xlink">
<g transform="matrix(1, 0, 0, 1, 0, 0)">
		<defs>
			<path d="M 0 0 H 1400 V 980 H 0 V 0 Z" id="XMLID_1_"/>
		</defs>
		<clipPath id="XMLID_304_">
			<use overflow="visible" xlink:href="#XMLID_1_"/>
		</clipPath>
		
			<path d="M -2.4 0.4 H 1402.299951 V 981.600012 H -2.4 V 0.4 Z" id="XMLID_302_" clip-path="url(#XMLID_304_)" fill-rule="evenodd" clip-rule="evenodd" fill="#BCE5F1"/>
		<g clip-path="url(#XMLID_304_)">
			<defs>
				<path d="M -2.4 0.4 H 1402.299951 V 981.600012 H -2.4 V 0.4 Z" id="XMLID_2_"/>
			</defs>
			<clipPath id="XMLID_305_">
				<use overflow="visible" xlink:href="#XMLID_2_"/>
			</clipPath>
			
				<path d="M -2.4 575 H 1402.299951 V 981.600006 H -2.4 V 575 Z" id="XMLID_301_" clip-path="url(#XMLID_305_)" fill-rule="evenodd" clip-rule="evenodd" fill="#97D4E5"/>
			
				<path d="M -2.4 559.400024 H 1402.299951 V 590.500025 H -2.4 V 559.400024 Z" id="XMLID_300_" clip-path="url(#XMLID_305_)" fill-rule="evenodd" clip-rule="evenodd" fill="#74C5DC"/>
			
				<path d="M 98.400002 65.300003 H 452.900002 V 341.900009 H 98.400002 V 65.300003 Z" id="XMLID_299_" clip-path="url(#XMLID_305_)" fill-rule="evenodd" clip-rule="evenodd" fill="#646568"/>
			
				<path d="M 122.800003 89.699997 H 428.500015 V 317.599991 H 122.800003 V 89.699997 Z" id="XMLID_298_" clip-path="url(#XMLID_305_)" fill-rule="evenodd" clip-rule="evenodd" fill="#FFFFFF"/>
			
				<path d="M 947.099976 65.300003 H 1301.599976 V 341.900009 H 947.099976 V 65.300003 Z" id="XMLID_297_" clip-path="url(#XMLID_305_)" fill-rule="evenodd" clip-rule="evenodd" fill="#646568"/>
			
				<path d="M 971.5 89.699997 H 1277.200012 V 317.599991 H 971.5 V 89.699997 Z" id="XMLID_296_" clip-path="url(#XMLID_305_)" fill-rule="evenodd" clip-rule="evenodd" fill="#FFFFFF"/>
			<path id="XMLID_295_" clip-path="url(#XMLID_305_)" fill-rule="evenodd" clip-rule="evenodd" fill="#FED6B6" d="M395.5,723.8&#10;&#9;&#9;&#9;&#9;c-1.6,2.2-4.5,2.8-6.6,1.5l-37.9-24c-2.1-1.3-2.5-4.2-0.9-6.4c1.6-2.2,4.5-2.8,6.6-1.5l37.9,24&#10;&#9;&#9;&#9;&#9;C396.6,718.7,397,721.6,395.5,723.8"/>
			<path d="M 327.29998779296875 681.5999755859375 L 326 707.2999877929688 L 346.29998779296875 706.4000244140625 L 374.3999938964844 717.5999755859375 L 376.3999938964844 679.2999877929688 Z" id="XMLID_294_" clip-path="url(#XMLID_305_)" fill-rule="evenodd" clip-rule="evenodd" fill="#FED6B6"/>
			<path id="XMLID_293_" clip-path="url(#XMLID_305_)" fill-rule="evenodd" clip-rule="evenodd" fill="#FED6B6" d="M380.5,727&#10;&#9;&#9;&#9;&#9;c-1.6,2.2-4.5,2.8-6.6,1.5l-37.9-24c-2.1-1.3-2.5-4.2-0.9-6.4c1.6-2.2,4.5-2.8,6.6-1.5l37.9,24C381.6,721.9,382,724.8,380.5,727"/>
			<path id="XMLID_292_" clip-path="url(#XMLID_305_)" fill-rule="evenodd" clip-rule="evenodd" fill="#FED6B6" d="M414.2,722.5&#10;&#9;&#9;&#9;&#9;c-1.6,2.2-4.5,2.8-6.6,1.5l-36.5-23.2c-2.1-1.3-2.5-4.2-0.9-6.4c1.6-2.2,4.5-2.8,6.6-1.5l36.5,23.2&#10;&#9;&#9;&#9;&#9;C415.4,717.4,415.8,720.3,414.2,722.5"/>
			<path id="XMLID_291_" clip-path="url(#XMLID_305_)" fill-rule="evenodd" clip-rule="evenodd" fill="#FED6B6" d="M399.4,726.4&#10;&#9;&#9;&#9;&#9;c-1.6,2.2-4.5,2.9-6.6,1.5l-6-3.9c-2.1-1.3-2.5-4.2-0.9-6.4c1.6-2.2,4.5-2.9,6.6-1.5l6,3.9C400.6,721.3,401,724.2,399.4,726.4"/>
			<path id="XMLID_290_" clip-path="url(#XMLID_305_)" fill-rule="evenodd" clip-rule="evenodd" fill="#FED6B6" d="M347.5,683.8&#10;&#9;&#9;&#9;&#9;l-0.2,3.3l4.1-0.6l33-4.4c6.9-0.9,13.1-10.1,8.3-9.9l-39,5.2C350.5,677.9,347.6,680.7,347.5,683.8"/>
			<path id="XMLID_289_" clip-path="url(#XMLID_305_)" fill-rule="evenodd" clip-rule="evenodd" fill="#FED6B6" d="M385.9,730&#10;&#9;&#9;&#9;&#9;c-1.6,2.2-4.5,2.9-6.6,1.5l-7-4.5c-2.1-1.3-2.5-4.2-0.9-6.4c1.6-2.2,4.5-2.9,6.6-1.5l7,4.5C387,724.9,387.4,727.8,385.9,730"/>
			<path id="XMLID_288_" clip-path="url(#XMLID_305_)" fill-rule="evenodd" clip-rule="evenodd" fill="#FED6B6" d="M343,690.6&#10;&#9;&#9;&#9;&#9;c0.5-1.8,0.9-14.6-3.5-14.4c-37.7-0.4-67.5-14.2-101.3-21.4l0.3-105.3c-1.3-22-48.2-23-49.2,4c0,0.3,1.6,73.3,13.8,119.6&#10;&#9;&#9;&#9;&#9;c18.8,18.5,106.2,26.1,141.9,29.6L343,690.6z"/>
			<path id="XMLID_287_" clip-path="url(#XMLID_305_)" fill-rule="evenodd" clip-rule="evenodd" fill="#414142" d="M208.2,888.8&#10;&#9;&#9;&#9;&#9;c1.3,3,0.6,6.7-1.9,8.7l-10.6,8.8c-2.8,2.3-6.8,1.7-8.9-1.4l0,0c-2.1-3.1-1.5-7.5,1.3-9.8l10.6-8.8c2.5-2,5.9-1.8,8.1,0.4&#10;&#9;&#9;&#9;&#9;l7.4-5.8l0.9-10.8l2.3,0.2l-1,11.5l-0.1,0.6l-0.4,0.3L208.2,888.8z"/>
			
				<path d="M 247.300003 864.900024 H 265.100002 V 944.400024 H 247.300003 V 864.900024 Z" id="XMLID_286_" clip-path="url(#XMLID_305_)" fill-rule="evenodd" clip-rule="evenodd" fill="#808185"/>
			
				<path d="M 256.200012 864.900024 H 265.100012 V 944.400024 H 256.200012 V 864.900024 Z" id="XMLID_285_" clip-path="url(#XMLID_305_)" fill-rule="evenodd" clip-rule="evenodd" fill="#8E8E8E"/>
			<path id="XMLID_284_" clip-path="url(#XMLID_305_)" fill-rule="evenodd" clip-rule="evenodd" fill="#5A5A5C" d="M125,648&#10;&#9;&#9;&#9;&#9;c-0.1,13.3-0.3,26.5-0.5,39.3C123,774.1,121.7,848,171,850l-0.4,13.9c-61.6-2.5-60.2-82.6-58.6-176.7c0.2-12.9,0.4-26,0.5-39.2&#10;&#9;&#9;&#9;&#9;L125,648z"/>
			<path id="XMLID_283_" clip-path="url(#XMLID_305_)" fill-rule="evenodd" clip-rule="evenodd" fill="#49494C" d="M125,648&#10;&#9;&#9;&#9;&#9;c-0.1,13.3-0.3,26.5-0.5,39.3C123,774.1,121.7,848,171,850l-0.4,13.3c-55.2-7.7-53.8-85.4-52.3-176.2c0.2-12.9,0.4-26,0.5-39.1&#10;&#9;&#9;&#9;&#9;L125,648z"/>
			<path id="XMLID_282_" clip-path="url(#XMLID_305_)" fill-rule="evenodd" clip-rule="evenodd" fill="#58C2AD" d="M255.9,809.5&#10;&#9;&#9;&#9;&#9;c65.4,0,118.4,22.2,118.4,49.6c0,2-0.3,3.9-0.8,5.9H138.4c-0.5-1.9-0.8-3.9-0.8-5.9C137.6,831.7,190.6,809.5,255.9,809.5"/>
			<path id="XMLID_281_" clip-path="url(#XMLID_305_)" fill-rule="evenodd" clip-rule="evenodd" fill="#414142" d="M374.8,858.5&#10;&#9;&#9;&#9;&#9;c0,0.4,0.1,0.9,0.1,1.3c0,7.4-5.5,13.4-12.1,13.4h-45.3c-5.2,4.8-30.6,8.4-61.2,8.4c-30.6,0-56-3.6-61.2-8.4h-45.3&#10;&#9;&#9;&#9;&#9;c-6.7,0-12.1-6-12.1-13.4c0-0.4,0-0.9,0.1-1.3L374.8,858.5z"/>
			<path id="XMLID_280_" clip-path="url(#XMLID_305_)" fill-rule="evenodd" clip-rule="evenodd" fill="#6E6F71" d="M116.3,608.4&#10;&#9;&#9;&#9;&#9;h11.8c5.5,0,10.1,5,10.1,11.1v37.9c0,6.1-4.5,11.1-10.1,11.1h-11.8c-5.5,0-10.1-5-10.1-11.1v-37.9&#10;&#9;&#9;&#9;&#9;C106.2,613.4,110.7,608.4,116.3,608.4"/>
			<path id="XMLID_279_" clip-path="url(#XMLID_305_)" fill-rule="evenodd" clip-rule="evenodd" fill="#58C2AD" d="M158.1,635.1&#10;&#9;&#9;&#9;&#9;c8.5,55.7-0.2,103.7-19.3,107.2c-1.4,0.3-2.8,0.3-4.2,0.1L104,542.2c1.3-0.7,2.6-1.2,4-1.5C127.2,537.2,149.6,579.4,158.1,635.1"/>
			<path id="XMLID_278_" clip-path="url(#XMLID_305_)" fill-rule="evenodd" clip-rule="evenodd" fill="#44BDA2" d="M144,740.1&#10;&#9;&#9;&#9;&#9;c-1.6,1.1-3.4,1.9-5.2,2.2c-1.4,0.3-2.8,0.3-4.2,0.1L104,542.2c1.3-0.7,2.6-1.2,4-1.5c1.9-0.4,3.8-0.3,5.7,0.3L144,740.1z"/>
			<path id="XMLID_277_" clip-path="url(#XMLID_305_)" fill-rule="evenodd" clip-rule="evenodd" fill="#414142" d="M242.2,930h28.1&#10;&#9;&#9;&#9;&#9;v70l65.1,12.3c4.4,0.8,8.1,4,8.1,9c0,4.9-3.7,9.8-8.1,9l-71-13.4h-16.3l-71,13.4c-4.4,0.8-8.1-4-8.1-9c0-4.9,3.7-8.1,8.1-9&#10;&#9;&#9;&#9;&#9;l65.1-12.3V930z"/>
			<path id="XMLID_276_" clip-path="url(#XMLID_305_)" fill-rule="evenodd" clip-rule="evenodd" fill="#FBCEAE" d="M176.3,759.2&#10;&#9;&#9;&#9;&#9;c-6.2,17.2-17.3,65.5,14.7,70.5c14.9,2.3,166,15.5,166,15.5l30.6,160l37.4-12.4c-15.8-38.1-20.1-191.6-55.8-198.4l-134.4-34.6&#10;&#9;&#9;&#9;&#9;L176.3,759.2z"/>
			<path id="XMLID_275_" clip-path="url(#XMLID_305_)" fill-rule="evenodd" clip-rule="evenodd" fill="#393A3A" d="M354.1,779.6&#10;&#9;&#9;&#9;&#9;c-1.5,5.9-11.3,70.6-21.5,70.6c-10.2,0-154.6-8.5-165.7-23.8c-11.1-15.2-11.4-64.9,16.8-73.6C212,744,354.1,779.6,354.1,779.6"/>
			<path id="XMLID_274_" clip-path="url(#XMLID_305_)" fill-rule="evenodd" clip-rule="evenodd" fill="#F4888A" d="M181.2,454&#10;&#9;&#9;&#9;&#9;c0,0-3.8-2.1-6.5-1.7c-3.4,0.6-5.4,4.1-5.4,4.1l-13.9-2.4c0,0-2-12.2,5.7-16.9c7.5-4.6,14.5-4.1,14.5-4.1c0,0,9.8,4.7,9.8,8.8&#10;&#9;&#9;&#9;&#9;C185.4,445.9,181.2,454,181.2,454"/>
			<path id="XMLID_273_" clip-path="url(#XMLID_305_)" fill-rule="evenodd" clip-rule="evenodd" fill="#87644D" d="M169.2,456.4&#10;&#9;&#9;&#9;&#9;c0,0-2.5-1.3-6.8-2.4c-4.6-1.2-7.1,0-7.1,0s-14.4,17.3-17.2,46.7c-2.7,28.4-2.7,40.9,3,59.8c5.7,18.9,8.7,32.9,9.8,41.4&#10;&#9;&#9;&#9;&#9;c1.4,10.5,3.6,25.9,6.8,36.1c2.8,8.9,5.1,9.8,5.7,5.7c0.7-4.1,1-42.3,6.1-63.6c5.1-21.3,10.8-39.6,10.8-39.6s1-12.5-4.4-34.1&#10;&#9;&#9;&#9;&#9;c-5.4-21.6-4.7-17.2-7.1-29.1C166.5,465.4,169.2,456.4,169.2,456.4"/>
			<path id="XMLID_272_" clip-path="url(#XMLID_305_)" fill-rule="evenodd" clip-rule="evenodd" fill="#FBCEAE" d="M278.4,395.5&#10;&#9;&#9;&#9;&#9;c0,0,9.7,5.3,12,15.6c1,4.3,1.2,14,1.7,19.9c0.5,5.9,6.6,15.4,7.9,17.6c1.4,2.2,2.9,6.3,1.5,8.8c-1.4,2.5-7.9,5.4-7.9,5.4&#10;&#9;&#9;&#9;&#9;c0,0,1.1,5.4,0,6.6c-0.8,0.8-4.6,0.2-4.6,0.2s2.4,3.5,2.2,4.7c-0.3,1.4-4.2,4.1-4.2,4.1c0,0,6.1,6.4,2.5,12&#10;&#9;&#9;&#9;&#9;c-3.6,5.6-18.1,1.9-24.5,7.4c-6.4,5.6-18.9,31.3-18.9,31.3c0,0-11-7.6-22.5-10.1c-11.5-2.5-22-1.7-22-1.7c0,0,8.1-18.9,8.5-23.8&#10;&#9;&#9;&#9;&#9;c0.3-4.9-3-9-3-9c0,0,10.5-5.7,13-10.3c2.5-4.6,4.1-8.5,9.3-18.1c4.2-7.5,12.2-7.1,16.6-15.3c1.5-2.8,1-13.1,2-11.7&#10;&#9;&#9;&#9;&#9;c0,0,14-9.6,19.3-16.1C272.5,406.5,278.4,395.5,278.4,395.5"/>
			<path id="XMLID_271_" clip-path="url(#XMLID_305_)" fill-rule="evenodd" clip-rule="evenodd" fill="#F9BCC3" d="M165.8,748.2&#10;&#9;&#9;&#9;&#9;c-1.4-5.4,0-21.3-0.8-27.4c-0.8-6.1-3.2-14.4-3.4-39.7c-0.2-25.4,1.1-67.9,2.6-79.7c2.1-17.2,14.5-58.6,18-66.5&#10;&#9;&#9;&#9;&#9;c3.5-7.9,17.4-26.2,40.7-17.6c23.3,8.6,25.2,9.1,32.8,29.4c7.6,20.3,16.4,27.6,21,33.6c4.6,6.1,19,23.2,21.3,31.6&#10;&#9;&#9;&#9;&#9;c2.2,7.9,5.8,17.9,0.8,44.5c-5,26.6-10.4,59.1-10.8,73c-0.4,14-4.5,22.5-8.1,23C285.7,772.9,145.5,863,165.8,748.2"/>
			<path id="XMLID_270_" clip-path="url(#XMLID_305_)" fill-rule="evenodd" clip-rule="evenodd" fill="#E5ADB7" d="M245.2,741.9&#10;&#9;&#9;&#9;&#9;c2,0,9.5-0.3,12.8-5.2c3.9-5.6,5.6-12,8.1-22.3c2.6-10.3,6.4-24.9,6.4-24.9c0,0-15,39.9-18.9,43.3c-3.9,3.4-12.4,8.6-12.4,8.6&#10;&#9;&#9;&#9;&#9;l3.4,0.4C244.7,741.9,244.9,741.9,245.2,741.9"/>
			<path id="XMLID_269_" clip-path="url(#XMLID_305_)" fill-rule="evenodd" clip-rule="evenodd" fill="#87644D" d="M279.4,394.5&#10;&#9;&#9;&#9;&#9;c0,0-5.7-5.4-11.8-8.1c-6.1-2.7-9.8-2.7-9.8-2.7s-10.1-12.8-23.7-12.2c-13.5,0.7-29.7,7.4-41.9,23&#10;&#9;&#9;&#9;&#9;c-12.2,15.5-19.6,38.7-19.6,38.7s7.1,3.7,8.1,10c1,6-0.7,10.1-0.7,10.1c0,0,8.8,5.3,14.9,14.4c5.2,7.8,12.2,16.7,12.2,16.7&#10;&#9;&#9;&#9;&#9;c0,0,12.2-5.3,17.9-16.2c5.3-10.2,1.4-13.1,13.2-17.9c11.3-4.5,9.5-20.7,9.5-20.7c0,0,16.9-12.2,22.3-18.9&#10;&#9;&#9;&#9;&#9;C275.4,404,279.4,394.5,279.4,394.5"/>
			<path id="XMLID_268_" clip-path="url(#XMLID_305_)" fill-rule="evenodd" clip-rule="evenodd" fill="#7F5B38" d="M267,423.9&#10;&#9;&#9;&#9;&#9;c0,0,0.3-0.2,0.8-0.6c0.5-0.3,1.2-0.8,2.1-1.2c0.4-0.2,0.9-0.4,1.4-0.5c0.5-0.2,1-0.1,1.5-0.2c0.5-0.1,1.1,0.1,1.4,0.1&#10;&#9;&#9;&#9;&#9;c0.6,0.2,1.3,0.3,2,0.5c0.7,0.1,1.3,0.3,2,0.4c0.6,0.2,1.2,0.3,1.8,0.4c1.2,0.2,2.3,0.4,3.4,0.6c2,0.3,3.5,0.3,3.5,0.3&#10;&#9;&#9;&#9;&#9;c0,0-1.1-1-2.9-2c-0.9-0.6-2-1.1-3.3-1.6c-0.6-0.3-1.3-0.5-1.9-0.7c-0.7-0.2-1.3-0.3-2-0.5c-0.7-0.1-1.3-0.3-2-0.4&#10;&#9;&#9;&#9;&#9;c-0.6,0-0.9,0-1.3,0c-0.4,0-0.8,0-1.2,0.2c-0.7,0.2-1.5,0.4-2,0.9c-0.3,0.2-0.6,0.4-0.8,0.5c-0.2,0.2-0.4,0.4-0.6,0.6&#10;&#9;&#9;&#9;&#9;c-0.4,0.4-0.7,0.8-0.9,1.2c-0.3,0.4-0.4,0.7-0.5,1C267,423.5,267,423.9,267,423.9"/>
			<path id="XMLID_267_" clip-path="url(#XMLID_305_)" fill-rule="evenodd" clip-rule="evenodd" fill="#ED1C26" d="M294.1,466.3&#10;&#9;&#9;&#9;&#9;c-0.6-0.1-1.9-0.1-3,0c-1.6,0.2-5,1.2-5.8,1.1c-0.8-0.2,1.4,3.6,2.3,5.1c0.6,1.1,1.9,2.8,2.6,3.6c0.6-0.6,1.1-1.2,1.2-1.7&#10;&#9;&#9;&#9;&#9;c0.2-1.3-2.2-4.7-2.2-4.7s3.8,0.7,4.6-0.2C294.1,468.9,294.2,467.6,294.1,466.3"/>
			<path id="XMLID_266_" clip-path="url(#XMLID_305_)" fill-rule="evenodd" clip-rule="evenodd" fill="#7F5B38" d="M286.1,435.8&#10;&#9;&#9;&#9;&#9;c0,0-0.8-0.4-2.1-0.7c-0.6-0.2-1.4-0.3-2.1-0.5c-0.8-0.1-1.6-0.2-2.4-0.1c-0.4,0.1-0.8,0.2-1.2,0.2c-0.4,0.1-0.9,0.1-1.2,0.2&#10;&#9;&#9;&#9;&#9;c-0.7,0.2-1.4,0.2-2.1,0.3c-0.6,0.1-1.2,0.1-1.6,0.1c-0.4,0-0.6,0-0.6,0l-0.1-0.2c0,0,0.7-0.7,1.9-1.3c0.6-0.3,1.4-0.6,2.3-0.8&#10;&#9;&#9;&#9;&#9;c0.4,0,0.8,0,1.3,0c0.5,0,0.9,0,1.4,0c0.9,0.1,1.8,0.3,2.7,0.6c0.8,0.3,1.5,0.6,2.1,0.9c1.2,0.6,1.9,1.2,1.9,1.2L286.1,435.8z"/>
			<path id="XMLID_265_" clip-path="url(#XMLID_305_)" fill-rule="evenodd" clip-rule="evenodd" fill="#87644D" d="M255.8,384&#10;&#9;&#9;&#9;&#9;c0,0,12-4.1,24.3,3.4c12.8,7.8,8.5,22.3,8.5,22.3c0,0-7-10.2-12.5-14.9C269.6,389.4,255.8,384,255.8,384"/>
			<path id="XMLID_264_" clip-path="url(#XMLID_305_)" fill-rule="evenodd" clip-rule="evenodd" fill="#FBCEAE" d="M190.9,557.2&#10;&#9;&#9;&#9;&#9;c1.4-7.6,6.2-24.8,20.8-24.6c14.6,0.1,24.1,9.7,24.8,19.5c0.6,9.8,1.7,22.2,1.9,29.7c0.2,7.5,1.1,38.2,1.1,38.2l0.7,38.9&#10;&#9;&#9;&#9;&#9;l0.6,48.9l0.3,37.5c0,0,6.2,25.3,6.9,28.2c0.7,2.9,7.2,29.3,8.4,34.3c1.2,5.1,6.8,27.9,7.8,31.8c1,4,10.4,35.2,10.4,35.2&#10;&#9;&#9;&#9;&#9;s12.6,12.3,15.7,14.9c3,2.6,8.2,7.1,9.9,8.7c1.7,1.6,6,5.6,7,8c5.2,11.5,10.5,48.4,5.8,51.8c-4.8,3.4-5.8-6.3-6.1-10&#10;&#9;&#9;&#9;&#9;c-0.3-3.8-0.6-5.4-0.6-5.4s-3-16.4-3.9-20.5c-0.8-3.9-1.2-4.4-2.1-4.2c-1.3,0.2-0.8,1.3-0.5,4.1c0.2,2.8,3.7,25,4,30.3&#10;&#9;&#9;&#9;&#9;c0.1,1.9,1.6,13.9-2,14.3c-3.6,0.5-4.5-2.3-6.3-15.3c-1.6-12.1-2-14.5-2-14.5c0,0-1.6-12.7-2.4-16.3c-0.2-0.5-0.5-0.6-1-0.6&#10;&#9;&#9;&#9;&#9;c-0.7,0.1-0.8,0.7-0.8,1.2c0.7,6.5,4.5,41,0.7,43.2c-2.2,1.3-5.5,1.6-6.5-11c-0.8-10.1-2.3-27.2-2.9-31.2&#10;&#9;&#9;&#9;&#9;c-0.1-0.4-0.4-1.3-0.9-1.2c-0.8,0.1-0.9,0.9-1.1,2c-0.1,0.9-0.2,1.6-0.4,3c0,0-1.5,27.3-4.3,30.1c-2,2-5,1.6-5.5-3&#10;&#9;&#9;&#9;&#9;c-0.5-4.6,1.4-34.4,1.2-36c-0.2-1.6-1.7-4.5-2.6-5.9c-4.2-7.3-9.6-18.3-12.3-25.6c-2.7-7.3-20.2-56.2-20.2-56.2l-15-43.4&#10;&#9;&#9;&#9;&#9;c0,0-10.6-31.2-11.8-38.2c-1.2-7-4.7-40-5.3-45.7c-0.6-5.7-3.3-31-3.8-35.9c-0.5-5-2.2-24.2-2.9-31c-0.7-6.8-3.2-36.2-3.7-42.7&#10;&#9;&#9;&#9;&#9;C191.3,586,189.5,564.8,190.9,557.2"/>
			<path id="XMLID_263_" clip-path="url(#XMLID_305_)" fill-rule="evenodd" clip-rule="evenodd" fill="#E5ADB7" d="M245.3,745.2&#10;&#9;&#9;&#9;&#9;c2.3,9.2,4.5,18.5,6.7,27.8c2.7,11.5,5.7,22.9,8.4,34.3c2.6,10.6,5.1,21.2,7.8,31.8c0.5,2.1,1.2,4.2,1.8,6.3&#10;&#9;&#9;&#9;&#9;c3.6,12.4,10.3,23.2,13.2,33.2l-5.4,2.3c-7.1,3.1-14.1,6.3-21.1,9.5l-5.4,2.8c-7.5-19.7-13.7-41.7-21-62.1l0,0l-15-43.4&#10;&#9;&#9;&#9;&#9;c-2.3-6.5-4.4-13.1-6.5-19.7c-1.2-3.7-2.3-7.4-3.4-11.1c-0.8-2.6-1.6-5.4-2.1-8c-0.5-3-0.9-6.2-1.3-9.2&#10;&#9;&#9;&#9;&#9;c-0.6-4.5-1.1-9.1-1.6-13.6c-0.9-7.7-1.7-15.4-2.5-23.1c-0.7-5.9-1.3-11.9-1.9-17.8c-0.6-6-1.3-12.1-1.9-18.2&#10;&#9;&#9;&#9;&#9;c-1-10.3-1.9-20.7-2.9-31c-0.7-7.1-1.3-14.2-1.9-21.3c-0.6-7.1-1.2-14.3-1.8-21.4c-0.5-6-1-12.1-1.2-18.1&#10;&#9;&#9;&#9;&#9;c-0.2-3.3-0.3-6.7-0.2-10c0-2.7,0.1-5.6,0.6-8.2c2.4-13.1,9.6-28.3,25.2-28.2c7.4,0.1,14.7,2.3,20.4,7.1c4.9,4.1,8.2,10,8.7,16.4&#10;&#9;&#9;&#9;&#9;c0.6,9.9,1.6,20,1.9,29.9c0.3,12.7,0.7,25.4,1.1,38.1l0,0l0.7,38.9l0.6,48.9L245.3,745.2z"/>
			<path id="XMLID_262_" clip-path="url(#XMLID_305_)" fill-rule="evenodd" clip-rule="evenodd" fill="#E5ADB7" d="M195.9,519.4&#10;&#9;&#9;&#9;&#9;c2.3-5.1,4.2-10.2,7-14.8c17.6,6.4,35.5,12.1,53.4,16.9c-2.7,10-2.8,17.5-2.6,27C236.7,534.8,217.8,524.5,195.9,519.4"/>
			<path id="XMLID_261_" clip-path="url(#XMLID_305_)" fill-rule="evenodd" clip-rule="evenodd" fill="#FBE3CD" d="M436.9,737.7&#10;&#9;&#9;&#9;&#9;c0,0-2.6-2.1-3.9-3.5c0,0-7.1-2.3-8.2-7.6c0,0-1.8,0.1-4.2-0.5l4.5-4.3c0.9,0.6,1.9,1.2,3,1.8c0,0,4.8-4.7,6.1-3.5&#10;&#9;&#9;&#9;&#9;c1.2,1.2-1.1,4.3-1.1,4.3s8.3,1.3,8.2,2.8c-0.2,1.6-5,1.3-5,1.3c0,0,7,0.8,6.2,2.8c-0.8,2-6.6,0.1-6.6,0.1s5.2,2,4.1,3.7&#10;&#9;&#9;&#9;&#9;c-1.1,1.7-5.2-0.6-5.2-0.6C434.6,734.4,437.8,736.7,436.9,737.7c-0.8,0.8-2.9-0.1-3.8-0.7C434,737.6,436.1,738.5,436.9,737.7"/>
			<path id="XMLID_260_" clip-path="url(#XMLID_305_)" fill-rule="evenodd" clip-rule="evenodd" fill="#FED4B0" d="M424.8,726.4&#10;&#9;&#9;&#9;&#9;c1.2,5.4,8.2,7.6,8.2,7.6c1.3,1.4,3.9,3.5,3.9,3.5c-0.8,0.8-2.9-0.1-3.8-0.7c-0.2-0.2-0.4-0.3-0.5-0.4c-0.4-0.6-6.4-1.8-9.1-4.5&#10;&#9;&#9;&#9;&#9;c-1.4-1.4-4.1-1-7.3-1.7l4.5-4.3C422.9,726.6,424.8,726.4,424.8,726.4"/>
			<path id="XMLID_259_" clip-path="url(#XMLID_305_)" fill-rule="evenodd" clip-rule="evenodd" fill="#FBE3CD" d="M286.5,749.7&#10;&#9;&#9;&#9;&#9;c0,0,2.2-2.5,3.2-4.2c0,0,6.5-3.5,6.7-9c0,0,1.8-0.2,4-1.3l-5.2-3.4c-0.8,0.8-1.6,1.6-2.6,2.3c0,0-5.6-3.7-6.6-2.3&#10;&#9;&#9;&#9;&#9;c-1,1.4,1.9,4,1.9,4s-7.9,2.8-7.5,4.3c0.4,1.5,5.2,0.4,5.2,0.4c0,0-6.7,2.1-5.5,3.9c1.2,1.9,6.5-1.1,6.5-1.1s-4.8,3-3.4,4.4&#10;&#9;&#9;&#9;&#9;c1.4,1.4,5-1.6,5-1.6C288.1,746.1,285.4,748.9,286.5,749.7c0.9,0.6,2.8-0.6,3.6-1.4C289.3,749.1,287.4,750.4,286.5,749.7"/>
			<path id="XMLID_258_" clip-path="url(#XMLID_305_)" fill-rule="evenodd" clip-rule="evenodd" fill="#FED4B0" d="M296.3,736.4&#10;&#9;&#9;&#9;&#9;c-0.1,5.5-6.7,9-6.7,9c-1,1.6-3.2,4.2-3.2,4.2c0.9,0.6,2.8-0.6,3.6-1.4c0.2-0.2,0.3-0.4,0.4-0.5c0.3-0.6,5.9-2.9,8.1-6.1&#10;&#9;&#9;&#9;&#9;c1.1-1.6,3.9-1.7,6.9-3.1l-5.2-3.4C298.1,736.2,296.3,736.4,296.3,736.4"/>
			<path id="XMLID_257_" clip-path="url(#XMLID_305_)" fill-rule="evenodd" clip-rule="evenodd" fill="#FCCDB3" d="M297.3,742.4&#10;&#9;&#9;&#9;&#9;c-0.1,0-0.2,0.1-0.2,0.1c0-0.1,0.1-0.2,0.1-0.2L297.3,742.4z"/>
			<path id="XMLID_256_" clip-path="url(#XMLID_305_)" fill-rule="evenodd" clip-rule="evenodd" fill="#F37262" d="M427.3,721.1&#10;&#9;&#9;&#9;&#9;c-10.9-18-36.6-26.3-36.6-26.3l-29.9,4.3l-29.9-4.3c0,0-24.1,8.6-38,37c1.9,2.7,6.3,6.3,6.4,11.1c0,0,18.3-5.2,25.1-13.9&#10;&#9;&#9;&#9;&#9;c0,0-9.3,17.9,0.5,47.5c18.8,27.5,59.9,27.6,71.7,0c9.8-29.6,0.5-47.5,0.5-47.5c6.8,1.2,25.4,4.3,25.4,4.3&#10;&#9;&#9;&#9;&#9;C423.9,728.3,426.3,724.2,427.3,721.1"/>
			<path clip-path="url(#XMLID_305_)" fill-rule="evenodd" clip-rule="evenodd" fill="#FED39C" d="M292.9,731.8&#10;&#9;&#9;&#9;&#9;C292.9,731.8,292.9,731.8,292.9,731.8C292.9,731.8,292.9,731.8,292.9,731.8 M294.7,733.3c-1-0.9-1.7-1.5-1.8-1.5&#10;&#9;&#9;&#9;&#9;C292.9,731.8,293.7,732.4,294.7,733.3C294.7,733.3,294.7,733.3,294.7,733.3L294.7,733.3z"/>
			<path id="XMLID_253_" clip-path="url(#XMLID_305_)" fill-rule="evenodd" clip-rule="evenodd" fill="#F1594A" d="M294.7,733.3&#10;&#9;&#9;&#9;&#9;c-1-0.9-1.7-1.5-1.8-1.5h0h0h0c12.2-24.9,32.2-34.6,37-36.6c0.7,0.5,1.4,1,2.1,1.5c-6.5,5.3-12.7,10.9-18.8,16.7&#10;&#9;&#9;&#9;&#9;c-6.4,6-13.9,11.8-18.3,19.6C294.8,733.1,294.7,733.2,294.7,733.3"/>
			<path id="XMLID_252_" clip-path="url(#XMLID_305_)" fill-rule="evenodd" clip-rule="evenodd" fill="#F1594A" d="M426.9,720.4&#10;&#9;&#9;&#9;&#9;c-14-3.9-27.6-12.8-37.8-23.3c0.9-0.6,1.9-1.3,2.7-1.9C396.7,696.9,417.1,705,426.9,720.4"/>
			<path clip-path="url(#XMLID_305_)" fill-rule="evenodd" clip-rule="evenodd" fill="#FFEDC0" d="M397.1,729.1&#10;&#9;&#9;&#9;&#9;C397.1,729.1,397.1,729.1,397.1,729.1 M397.2,729.1C397.2,729.1,397.2,729.1,397.2,729.1C397.1,729.1,397.1,729.1,397.2,729.1&#10;&#9;&#9;&#9;&#9;C397.1,729.1,397.1,729.1,397.2,729.1C397.2,729.1,397.2,729.1,397.2,729.1L397.2,729.1z M418.2,733.2c-5.8-1.2-16.2-3.3-21-4.2&#10;&#9;&#9;&#9;&#9;C401.9,729.9,412.3,732,418.2,733.2C418.2,733.2,418.2,733.2,418.2,733.2L418.2,733.2z"/>
			<path id="XMLID_248_" clip-path="url(#XMLID_305_)" fill-rule="evenodd" clip-rule="evenodd" fill="#F1594A" d="M394.2,776.6&#10;&#9;&#9;&#9;&#9;c3.4-16.6,4.2-33.4,2.4-50.4c5.5,0.8,11.1,1.7,15.9,3.8c2,0.9,3.9,1.4,5.7,2.6c-5.8-1.2-16.3-2.8-21-3.6h0c0,0,0,0,0,0&#10;&#9;&#9;&#9;&#9;c0,0,0,0,0,0c0,0,0,0,0,0c0.1,0.2,9.3,18.1-0.5,47.5H394.2z"/>
			<path clip-path="url(#XMLID_305_)" fill-rule="evenodd" clip-rule="evenodd" fill="#FFEDC0" d="M324.4,729.1&#10;&#9;&#9;&#9;&#9;C324.4,729.1,324.4,729.1,324.4,729.1C324.4,729.1,324.4,729.1,324.4,729.1 M324.4,729.1C324.4,729.1,324.4,729.1,324.4,729.1&#10;&#9;&#9;&#9;&#9;S324.4,729.1,324.4,729.1z M324.4,729.1C324.4,729.1,324.4,729.1,324.4,729.1C324.4,729.1,324.4,729.1,324.4,729.1z M324.4,729.1&#10;&#9;&#9;&#9;&#9;L324.4,729.1L324.4,729.1z M324.4,729.1L324.4,729.1 M324.4,729.1C324.4,729.1,324.4,729.1,324.4,729.1&#10;&#9;&#9;&#9;&#9;C324.4,729.1,324.4,729.1,324.4,729.1z M324.4,729.1C324.4,729.1,324.4,729.1,324.4,729.1C324.4,729.1,324.4,729.1,324.4,729.1&#10;&#9;&#9;&#9;&#9;L324.4,729.1z M324.3,729.2C324.3,729.2,324.3,729.2,324.3,729.2C324.3,729.2,324.3,729.2,324.3,729.2z M324.3,729.2&#10;&#9;&#9;&#9;&#9;C324.3,729.2,324.3,729.2,324.3,729.2C324.3,729.2,324.3,729.2,324.3,729.2z M324.2,729.3C324.2,729.3,324.2,729.3,324.2,729.3&#10;&#9;&#9;&#9;&#9;C324.2,729.3,324.2,729.3,324.2,729.3z M324.2,729.3C324.2,729.3,324.2,729.3,324.2,729.3C324.2,729.3,324.2,729.3,324.2,729.3z&#10;&#9;&#9;&#9;&#9; M324.2,729.4C324.2,729.4,324.2,729.4,324.2,729.4C324.2,729.4,324.2,729.4,324.2,729.4L324.2,729.4z M324.1,729.4&#10;&#9;&#9;&#9;&#9;C324.1,729.4,324.2,729.4,324.1,729.4C324.2,729.4,324.1,729.4,324.1,729.4L324.1,729.4z M324.1,729.5&#10;&#9;&#9;&#9;&#9;C324.1,729.5,324.1,729.5,324.1,729.5C324.1,729.5,324.1,729.5,324.1,729.5L324.1,729.5z M324.1,729.5&#10;&#9;&#9;&#9;&#9;C324.1,729.5,324.1,729.5,324.1,729.5C324.1,729.5,324.1,729.5,324.1,729.5z M324,729.6C324,729.6,324,729.6,324,729.6&#10;&#9;&#9;&#9;&#9;C324,729.6,324,729.6,324,729.6L324,729.6z M324,729.6C324,729.6,324,729.6,324,729.6C324,729.6,324,729.6,324,729.6L324,729.6z&#10;&#9;&#9;&#9;&#9; M323.9,729.7C323.9,729.7,323.9,729.7,323.9,729.7C323.9,729.7,323.9,729.7,323.9,729.7z M323.9,729.7&#10;&#9;&#9;&#9;&#9;C323.9,729.7,323.9,729.7,323.9,729.7C323.9,729.7,323.9,729.7,323.9,729.7z M323.9,729.7C323.9,729.7,323.9,729.7,323.9,729.7&#10;&#9;&#9;&#9;&#9;C323.9,729.7,323.9,729.7,323.9,729.7L323.9,729.7z M323.8,729.8C323.8,729.8,323.8,729.8,323.8,729.8&#10;&#9;&#9;&#9;&#9;C323.8,729.8,323.8,729.8,323.8,729.8z M323.8,729.8C323.8,729.8,323.8,729.8,323.8,729.8C323.8,729.8,323.8,729.8,323.8,729.8&#10;&#9;&#9;&#9;&#9;L323.8,729.8z M323.8,729.8C323.8,729.8,323.8,729.8,323.8,729.8C323.8,729.8,323.8,729.8,323.8,729.8z M323.7,729.9&#10;&#9;&#9;&#9;&#9;C323.7,729.9,323.7,729.9,323.7,729.9C323.7,729.9,323.7,729.9,323.7,729.9z M323.7,729.9C323.7,729.9,323.7,729.9,323.7,729.9&#10;&#9;&#9;&#9;&#9;C323.7,729.9,323.7,729.9,323.7,729.9z M323.7,729.9C323.7,729.9,323.7,729.9,323.7,729.9C323.7,729.9,323.7,729.9,323.7,729.9&#10;&#9;&#9;&#9;&#9;L323.7,729.9z M323.6,730C323.7,730,323.7,730,323.6,730C323.7,730,323.7,730,323.6,730z M323.6,730&#10;&#9;&#9;&#9;&#9;C323.6,730,323.6,730,323.6,730C323.6,730,323.6,730,323.6,730L323.6,730z M323.6,730.1C323.6,730,323.6,730,323.6,730.1&#10;&#9;&#9;&#9;&#9;C323.6,730,323.6,730,323.6,730.1L323.6,730.1z M323.6,730.1C323.6,730.1,323.6,730.1,323.6,730.1&#10;&#9;&#9;&#9;&#9;C323.6,730.1,323.6,730.1,323.6,730.1z M323.5,730.1C323.5,730.1,323.5,730.1,323.5,730.1C323.5,730.1,323.5,730.1,323.5,730.1z&#10;&#9;&#9;&#9;&#9; M323.5,730.2C323.5,730.1,323.5,730.1,323.5,730.2C323.5,730.1,323.5,730.1,323.5,730.2L323.5,730.2z M323.5,730.2&#10;&#9;&#9;&#9;&#9;C323.5,730.2,323.5,730.2,323.5,730.2C323.5,730.2,323.5,730.2,323.5,730.2z M323.4,730.2C323.4,730.2,323.4,730.2,323.4,730.2&#10;&#9;&#9;&#9;&#9;C323.4,730.2,323.4,730.2,323.4,730.2z M323.4,730.3C323.4,730.2,323.4,730.2,323.4,730.3C323.4,730.2,323.4,730.2,323.4,730.3z&#10;&#9;&#9;&#9;&#9; M323.3,730.3C323.4,730.3,323.4,730.3,323.3,730.3C323.4,730.3,323.4,730.3,323.3,730.3L323.3,730.3z M323.3,730.4&#10;&#9;&#9;&#9;&#9;C323.3,730.3,323.3,730.3,323.3,730.4C323.3,730.3,323.3,730.3,323.3,730.4z M323.2,730.4C323.3,730.4,323.3,730.4,323.2,730.4&#10;&#9;&#9;&#9;&#9;C323.3,730.4,323.3,730.4,323.2,730.4z M315.8,736c2.8-1.6,5.5-3.5,7.5-5.6C321.2,732.5,318.6,734.4,315.8,736L315.8,736z&#10;&#9;&#9;&#9;&#9; M315.7,736.1C315.7,736,315.7,736,315.7,736.1C315.7,736,315.7,736,315.7,736.1L315.7,736.1z M315.7,736.1&#10;&#9;&#9;&#9;&#9;C315.7,736.1,315.7,736.1,315.7,736.1C315.7,736.1,315.7,736.1,315.7,736.1L315.7,736.1z M315.6,736.1&#10;&#9;&#9;&#9;&#9;C315.6,736.1,315.6,736.1,315.6,736.1C315.6,736.1,315.6,736.1,315.6,736.1z"/>
			<path id="XMLID_205_" clip-path="url(#XMLID_305_)" fill-rule="evenodd" clip-rule="evenodd" fill="#F1594A" d="M324.9,776.6&#10;&#9;&#9;&#9;&#9;c-9.7-29.1-0.8-47-0.5-47.5c0,0,0,0,0,0v0c0,0,0,0,0,0c0,0,0,0,0,0c0,0,0,0,0,0c0,0,0,0,0,0c0,0,0,0,0,0v0c0,0,0,0,0,0&#10;&#9;&#9;&#9;&#9;c0,0,0,0,0,0c0,0,0,0,0,0c0,0,0,0,0,0c0,0,0,0,0,0c0,0,0,0,0,0c0,0,0,0,0,0c0,0,0,0,0,0c0,0,0,0,0,0c0,0,0,0,0,0v0c0,0,0,0,0,0&#10;&#9;&#9;&#9;&#9;c0,0,0,0,0,0c0,0,0,0,0,0c0,0,0,0,0,0c0,0,0,0,0,0c0,0,0,0,0,0c0,0,0,0,0,0c0,0,0,0,0,0c0,0,0,0-0.1,0.1c0,0,0,0,0,0c0,0,0,0,0,0&#10;&#9;&#9;&#9;&#9;c0,0,0,0,0,0c0,0,0,0-0.1,0.1c0,0,0,0,0,0c0,0,0,0,0,0c0,0,0,0,0,0c0,0,0,0-0.1,0.1c0,0,0,0,0,0c0,0,0,0,0,0c0,0,0,0,0,0&#10;&#9;&#9;&#9;&#9;c0,0,0,0,0,0c0,0,0,0,0,0c0,0,0,0,0,0c0,0,0,0,0,0c0,0,0,0,0,0c0,0,0,0,0,0c0,0,0,0,0,0c0,0,0,0,0,0c0,0,0,0,0,0c0,0,0,0,0,0&#10;&#9;&#9;&#9;&#9;c0,0,0,0,0,0c0,0,0,0,0,0c0,0,0,0,0,0c0,0,0,0,0,0c0,0,0,0,0,0c0,0,0,0,0,0c0,0,0,0,0,0c0,0,0,0,0,0c0,0,0,0,0,0c0,0,0,0,0,0&#10;&#9;&#9;&#9;&#9;c0,0,0,0,0,0c0,0,0,0,0,0c0,0,0,0,0,0c0,0,0,0,0,0c0,0,0,0,0,0c0,0,0,0,0,0c0,0,0,0,0,0c0,0,0,0,0,0c0,0,0,0,0,0c0,0,0,0,0,0&#10;&#9;&#9;&#9;&#9;c0,0,0,0,0,0c0,0,0,0,0,0c0,0,0,0,0,0c0,0,0,0-0.1,0.1c0,0,0,0,0,0c0,0,0,0,0,0c0,0,0,0,0,0c0,0,0,0-0.1,0.1&#10;&#9;&#9;&#9;&#9;c-2,2.1-4.7,4-7.5,5.6c0,0,0,0,0,0c0,0,0,0,0,0c0,0,0,0,0,0c0,0,0,0,0,0c0,0,0,0,0,0c0,0,0,0,0,0c-4.1,2.3-8.4,4.1-11.6,5.3&#10;&#9;&#9;&#9;&#9;c0-0.1,0.1-0.2,0.1-0.3c0.1-0.4,0.3-0.8,0.5-1.1c7-5.2,14.5-9.5,21.9-14.1c-1.3,12.6-2.6,25.3-1.7,38c0.3,4.3,0.8,8.6,1.7,12.8&#10;&#9;&#9;&#9;&#9;H324.9z"/>
			<path id="XMLID_204_" clip-path="url(#XMLID_305_)" fill-rule="evenodd" clip-rule="evenodd" fill="#FBE3CD" d="M421.2,667&#10;&#9;&#9;&#9;&#9;c0,6.5-5.3,11.8-11.8,11.8c-6.5,0-11.8-5.3-11.8-11.8c0-6.5,5.3-11.8,11.8-11.8C415.9,655.3,421.2,660.5,421.2,667"/>
			<path id="XMLID_203_" clip-path="url(#XMLID_305_)" fill-rule="evenodd" clip-rule="evenodd" fill="#FED4B0" d="M416.7,667&#10;&#9;&#9;&#9;&#9;c0,4-3.3,7.3-7.3,7.3c-4,0-7.3-3.3-7.3-7.3c0-4,3.3-7.3,7.3-7.3C413.4,659.7,416.7,663,416.7,667"/>
			<path id="XMLID_202_" clip-path="url(#XMLID_305_)" fill-rule="evenodd" clip-rule="evenodd" fill="#FBE3CD" d="M324.8,667&#10;&#9;&#9;&#9;&#9;c0,6.5-5.3,11.8-11.8,11.8c-6.5,0-11.8-5.3-11.8-11.8c0-6.5,5.3-11.8,11.8-11.8C319.6,655.3,324.8,660.5,324.8,667"/>
			<path id="XMLID_201_" clip-path="url(#XMLID_305_)" fill-rule="evenodd" clip-rule="evenodd" fill="#FED4B0" d="M320.4,667&#10;&#9;&#9;&#9;&#9;c0,4-3.3,7.3-7.3,7.3c-4,0-7.3-3.3-7.3-7.3c0-4,3.3-7.3,7.3-7.3C317.1,659.7,320.4,663,320.4,667"/>
			<path id="XMLID_200_" clip-path="url(#XMLID_305_)" fill-rule="evenodd" clip-rule="evenodd" fill="#FBE3CD" d="M409.4,661.3&#10;&#9;&#9;&#9;&#9;c0,26.4-21.6,47.8-48.2,47.8c-26.6,0-48.2-21.4-48.2-47.8c0-26.4,21.6-47.8,48.2-47.8C387.8,613.5,409.4,634.9,409.4,661.3"/>
			<path id="XMLID_199_" clip-path="url(#XMLID_305_)" fill-rule="evenodd" clip-rule="evenodd" fill="#FED4B0" d="M361.2,706.8&#10;&#9;&#9;&#9;&#9;c-26.2,0-47.5-20.8-48.1-46.7c0,0.4,0,0.8,0,1.1c0,26.4,21.6,47.8,48.2,47.8c26.6,0,48.2-21.4,48.2-47.8c0-0.4,0-0.8,0-1.1&#10;&#9;&#9;&#9;&#9;C408.8,686,387.4,706.8,361.2,706.8"/>
			<path id="XMLID_198_" clip-path="url(#XMLID_305_)" fill-rule="evenodd" clip-rule="evenodd" fill="#B56B41" d="M333.3,650.7&#10;&#9;&#9;&#9;&#9;c0,0,4.1-3.4,12.3-4.1c1.8-0.1-3.5-2-7.7-0.8C333.7,646.9,332.9,650.3,333.3,650.7"/>
			<path id="XMLID_197_" clip-path="url(#XMLID_305_)" fill-rule="evenodd" clip-rule="evenodd" fill="#B56B41" d="M389.1,650.7&#10;&#9;&#9;&#9;&#9;c0,0-4.1-3.4-12.3-4.1c-1.8-0.1,3.5-2,7.7-0.8C388.7,646.9,389.5,650.3,389.1,650.7"/>
			<path id="XMLID_196_" clip-path="url(#XMLID_305_)" fill-rule="evenodd" clip-rule="evenodd" fill="#FFFFFF" d="M364.1,714.9&#10;&#9;&#9;&#9;&#9;c0,1.3-1.1,2.4-2.4,2.4c-1.3,0-2.4-1.1-2.4-2.4c0-1.3,1.1-2.4,2.4-2.4C363,712.5,364.1,713.6,364.1,714.9"/>
			<path id="XMLID_195_" clip-path="url(#XMLID_305_)" fill-rule="evenodd" clip-rule="evenodd" fill="#FFFFFF" d="M364.1,726&#10;&#9;&#9;&#9;&#9;c0,1.3-1.1,2.4-2.4,2.4c-1.3,0-2.4-1.1-2.4-2.4c0-1.3,1.1-2.4,2.4-2.4C363,723.6,364.1,724.7,364.1,726"/>
			<path id="XMLID_194_" clip-path="url(#XMLID_305_)" fill-rule="evenodd" clip-rule="evenodd" fill="#FFFFFF" d="M364.1,737.1&#10;&#9;&#9;&#9;&#9;c0,1.3-1.1,2.4-2.4,2.4c-1.3,0-2.4-1.1-2.4-2.4c0-1.3,1.1-2.4,2.4-2.4C363,734.7,364.1,735.7,364.1,737.1"/>
			<path id="XMLID_193_" clip-path="url(#XMLID_305_)" fill-rule="evenodd" clip-rule="evenodd" fill="#F48992" d="M374,687.1&#10;&#9;&#9;&#9;&#9;c0,5.1-5.3,9.2-11.9,9.2c-6.6,0-11.9-4.1-11.9-9.2c0-5.1,5.3-9.2,11.9-9.2C368.7,677.9,374,682,374,687.1"/>
			<path id="XMLID_192_" clip-path="url(#XMLID_305_)" fill-rule="evenodd" clip-rule="evenodd" fill="#F26D73" d="M350.5,689.2&#10;&#9;&#9;&#9;&#9;c1.3,4,6,7.1,11.6,7.1c5.3,0,9.8-2.6,11.3-6.3c-5-5.7-12-2.3-12-2.3C355.9,684.9,352.3,687.2,350.5,689.2"/>
			<path id="XMLID_191_" clip-path="url(#XMLID_305_)" fill-rule="evenodd" clip-rule="evenodd" fill="#915532" d="M349.5,657.5&#10;&#9;&#9;&#9;&#9;c-2.2-3-5.6-3.4-9-2.7c-3.2,0.7-7.4,3.6-7.9,7c0,0.3,0.3,0.6,0.6,0.4c2-1.6,3.4-3.5,5.8-4.6c2.7-1.3,6.4-1.4,8.4,1.1&#10;&#9;&#9;&#9;&#9;C347.8,660.1,350.7,659,349.5,657.5"/>
			<path id="XMLID_190_" clip-path="url(#XMLID_305_)" fill-rule="evenodd" clip-rule="evenodd" fill="#915532" d="M372,657.5&#10;&#9;&#9;&#9;&#9;c2.2-3,5.6-3.4,9-2.7c3.2,0.7,7.4,3.6,7.9,7c0,0.3-0.3,0.6-0.6,0.4c-2-1.6-3.4-3.5-5.8-4.6c-2.7-1.3-6.4-1.4-8.4,1.1&#10;&#9;&#9;&#9;&#9;C373.7,660.1,370.9,659,372,657.5"/>
			<path id="XMLID_189_" clip-path="url(#XMLID_305_)" fill-rule="evenodd" clip-rule="evenodd" fill="#EF3F30" d="M334.8,772.8&#10;&#9;&#9;&#9;&#9;c9.8,0,17.8,8,17.8,17.8c0,9.8-8,17.8-17.8,17.8s-17.8-8-17.8-17.8C316.9,780.8,324.9,772.8,334.8,772.8"/>
			<path id="XMLID_188_" clip-path="url(#XMLID_305_)" fill-rule="evenodd" clip-rule="evenodd" fill="#F1594A" d="M334.8,772.8&#10;&#9;&#9;&#9;&#9;c9.8,0,17.8,8,17.8,17.8c0,3.1-0.8,6-2.2,8.6c-3.2,3.3-7.8,5.4-12.8,5.4c-9.8,0-17.8-8-17.8-17.8c0-3.1,0.8-6,2.2-8.6&#10;&#9;&#9;&#9;&#9;C325.2,774.8,329.7,772.8,334.8,772.8"/>
			
				<path d="M 400.800007 792.599976 A 19.700001 19.700001 0 0 1 381.100006 812.299976 A 19.700001 19.700001 0 0 1 361.400005 792.599976 A 19.700001 19.700001 0 0 1 381.100006 772.899975 A 19.700001 19.700001 0 0 1 400.800007 792.599976 Z" id="XMLID_187_" clip-path="url(#XMLID_305_)" fill-rule="evenodd" clip-rule="evenodd" fill="#EF3F30"/>
			
				<path d="M 400.800007 792.599976 A 19.700001 19.700001 0 0 1 381.100006 812.299976 A 19.700001 19.700001 0 0 1 361.400005 792.599976 A 19.700001 19.700001 0 0 1 381.100006 772.899975 A 19.700001 19.700001 0 0 1 400.800007 792.599976 Z" id="XMLID_186_" clip-path="url(#XMLID_305_)" fill="none" stroke="#F47F6E" stroke-width="0.216" stroke-miterlimit="22.9256"/>
			<path id="XMLID_185_" clip-path="url(#XMLID_305_)" fill-rule="evenodd" clip-rule="evenodd" fill="#F1594A" d="M387.2,811.3&#10;&#9;&#9;&#9;&#9;c-1.9,0.6-4,1-6.2,1c-10.9,0-19.7-8.8-19.7-19.7c0-7.4,4.1-13.9,10.2-17.2c1.9-0.6,4-1,6.2-1c10.9,0,19.7,8.8,19.7,19.7&#10;&#9;&#9;&#9;&#9;C397.4,801.5,393.3,808,387.2,811.3"/>
			<path id="XMLID_184_" clip-path="url(#XMLID_305_)" fill-rule="evenodd" clip-rule="evenodd" fill="#393A3A" d="M952.6,967.4&#10;&#9;&#9;&#9;&#9;c0,0,23.7-101,23.7-122.7c0-21.6,0-34,2.1-39.2c2.1-5.2,11.3-66,7.2-95.9c-4.1-29.9-4.1-73.2-4.1-73.2l-139.1-4.1&#10;&#9;&#9;&#9;&#9;c0,0-9.3,63.9-9.3,86.6c0,22.7,4.1,55.7,4.1,59.8c0,4.1-9.3,7.2-5.2,13.4c4.1,6.2,9.3,13.4,3.1,16.5c-6.2,3.1-11.3,3.1-8.2,12.4&#10;&#9;&#9;&#9;&#9;c0,0,10.3,12.4,10.3,27.8c0,15.5,2.1,37.1,5.2,48.4c3.1,11.3,4.1,28.9,5.2,37.1c1,8.2,3.1,16.5,3.1,16.5l1,9.3&#10;&#9;&#9;&#9;&#9;c0,0,30.9,3.1,35-3.1c4.1-6.2,6.2-11.3,4.1-25.8c-2.1-14.4-10.3-87.6-9.3-97.9c1-10.3,1-15.5,1-19.6c0-4.1,3.1-5.2,5.2-9.3&#10;&#9;&#9;&#9;&#9;c2.1-4.1,2.1-14.4,2.1-14.4c0,0-2.1-35,5.2-46.4c7.2-11.3,13.4-40.2,13.4-40.2c0,0,7.2,9.3,8.2,19.6c1,10.3-3.1,11.3,1,35&#10;&#9;&#9;&#9;&#9;c4.1,23.7,7.2,22.7,7.2,33c0,10.3-2.1,13.4,3.1,18.6c5.2,5.2-1,13.4-1,26.8c0,13.4-13.4,68-13.4,79.4c0,11.3,0,46.4,0,46.4&#10;&#9;&#9;&#9;&#9;S938.2,970.5,952.6,967.4"/>
			<path id="XMLID_183_" clip-path="url(#XMLID_305_)" fill-rule="evenodd" clip-rule="evenodd" fill="#E1B798" d="M854.5,407.8&#10;&#9;&#9;&#9;&#9;c0,0,32.3-17,28.7-68.1h39.4c0,0-9.1,22.5,21.5,63.6C944.1,403.3,923.6,496.5,854.5,407.8"/>
			<path id="XMLID_182_" clip-path="url(#XMLID_305_)" fill-rule="evenodd" clip-rule="evenodd" fill="#E4E8EA" d="M852.6,515&#10;&#9;&#9;&#9;&#9;c-30,2.8-49.3-18.1-49.3-18.1l25.1-94l47.2-19.1c0,0,13.5,25.4,28.4,24.4c15.9-0.9,28.8-28.7,28.8-28.7l49.5,22.4l29.9,66.9&#10;&#9;&#9;&#9;&#9;c0,0-4.3-39-37.4-32.4L949,457.8l25.7,133.7l8.1,14.9l-1.9,12.3l3.4,5.7l-1.3,14.2c-62.8,24.3-144,7.7-144,7.7&#10;&#9;&#9;&#9;&#9;s-5.7-21.7,2.5-27.9l-0.2-14.5l7.4-13.8l2.3-100L852.6,515z"/>
			<path id="XMLID_181_" clip-path="url(#XMLID_305_)" fill-rule="evenodd" clip-rule="evenodd" fill="#F7F9FA" d="M972.5,490.1&#10;&#9;&#9;&#9;&#9;c-1.1-18.7-1.5-36.8-1.5-52.9l0,0l0-0.1c0,0,0-0.1,0-0.1l0,0l12.9-47.8c-3.1-3.2-13.1-3-13.1-3l-19.4,0v0&#10;&#9;&#9;&#9;&#9;c-4.9-0.2-9.5-1.5-13.7-3.6c0,0-0.1,0.1-0.1,0.1l2,1.2l8.2,33.5l-11.2,2.8l7.5,14l-38.1,75.3l-3.3,9.3l0,0.8l2.2,4.4l7.2,142.5&#10;&#9;&#9;&#9;&#9;c26.4-6.9,61.7-1.2,81.8-18.4l-21.8-159.7L972.5,490.1z"/>
			<path id="XMLID_180_" clip-path="url(#XMLID_305_)" fill-rule="evenodd" clip-rule="evenodd" fill="#F7F9FA" d="M901.6,547.4&#10;&#9;&#9;&#9;&#9;l1.1-27.8l-7.4-14.7l-5.8-8.6L858,434.2l7.5-14l-11.2-2.8l8.2-33.5l2-1.2c0,0-0.1-0.1-0.1-0.1c-4.2,2.1-8.8,3.4-13.7,3.6l0,0&#10;&#9;&#9;&#9;&#9;h-17.2c0,0,0,0.1,0,0.1c-0.1,0-0.2,0-0.3,0c-19.2,0-37,49.3-47.3,70.1c-0.1,2.4,36.6,2.3,36.5,4.4l-2.1,15.5l11.1,29.1&#10;&#9;&#9;&#9;&#9;c9,55.2-6.9,93.3-10.3,140c8.5,1.3,43.9,20.1,52.8,20.1C889.2,665.6,899.5,574.8,901.6,547.4"/>
			<path id="XMLID_179_" clip-path="url(#XMLID_305_)" fill-rule="evenodd" clip-rule="evenodd" fill="#F7F9FA" d="M902,547.3&#10;&#9;&#9;&#9;&#9;l2.9-23.3l-2.2-4.4l-1.1,27.8C901.7,547.4,901.8,547.3,902,547.3"/>
			<path id="XMLID_178_" clip-path="url(#XMLID_305_)" fill-rule="evenodd" clip-rule="evenodd" fill="#000201" d="M943.4,384.4&#10;&#9;&#9;&#9;&#9;c-8-11-21.7-16.5-40.7-16.5c-21.5,0-36.7,5.7-45.1,17c0,0,0,0,0,0c1.6-0.5,4.9-1.5,8.9-3.6c8.2-6.4,20.3-9.6,36.2-9.6&#10;&#9;&#9;&#9;&#9;c13.9,0,24.7,3.1,32.1,9.2c2.6,1.3,6.6,2.9,8.7,3.8C943.5,384.5,943.4,384.4,943.4,384.4"/>
			<path id="XMLID_177_" clip-path="url(#XMLID_305_)" fill-rule="evenodd" clip-rule="evenodd" fill="#F26429" d="M900.6,526.7&#10;&#9;&#9;&#9;&#9;C900.6,526.7,900.6,526.7,900.6,526.7L900.6,526.7C900.6,526.7,900.6,526.7,900.6,526.7"/>
			<path d="M 902.7000122070312 518.7999877929688 L 902.7000122070312 518.2999877929688 L 901.0999755859375 518.2999877929688 L 901.0999755859375 519 L 901.9000244140625 521 Z" id="XMLID_176_" clip-path="url(#XMLID_305_)" fill-rule="evenodd" clip-rule="evenodd" fill="#E5E6E6"/>
			<path id="XMLID_175_" clip-path="url(#XMLID_305_)" fill-rule="evenodd" clip-rule="evenodd" fill="#E5E6E6" d="M901.9,521&#10;&#9;&#9;&#9;&#9;l-0.8-1.9v1.2c0.1,0,0.2,0,0.3,0c0.4,0,0.8,0,1.3,0l0-1.4L901.9,521z"/>
			<path id="XMLID_174_" clip-path="url(#XMLID_305_)" fill-rule="evenodd" clip-rule="evenodd" fill="#0D4968" d="M970.9,437.2&#10;&#9;&#9;&#9;&#9;C970.9,437.1,970.9,437.1,970.9,437.2L970.9,437.2L970.9,437.2z"/>
			<path id="XMLID_173_" clip-path="url(#XMLID_305_)" fill-rule="evenodd" clip-rule="evenodd" fill="#4DC4D2" d="M900.6,526.7&#10;&#9;&#9;&#9;&#9;L900.6,526.7C900.6,526.7,900.6,526.7,900.6,526.7C900.6,526.7,900.6,526.7,900.6,526.7"/>
			<path id="XMLID_172_" clip-path="url(#XMLID_305_)" fill-rule="evenodd" clip-rule="evenodd" fill="#D7AF95" d="M922.9,362.9&#10;&#9;&#9;&#9;&#9;L922.9,362.9l0-6.9h-42.1v10h-0.1c-1.8,3.9-4.3,7.5-7.3,10.4C906.3,379.5,922.9,362.9,922.9,362.9"/>
			<path id="XMLID_171_" clip-path="url(#XMLID_305_)" fill-rule="evenodd" clip-rule="evenodd" fill="#F4C9A5" d="M923,369.3v-6.4&#10;&#9;&#9;&#9;&#9;l0,0c0,0-16.7,16.7-49.5,13.5c-2.5,2.5-5.4,4.6-8.6,6.2c4.1,5.9,9.6,10.7,16,14l0,9.3h0.1v0.6h40v-0.6h2v-10.1&#10;&#9;&#9;&#9;&#9;c5.8-3.3,10.7-7.8,14.5-13.3C931.5,379.5,926.4,375,923,369.3"/>
			<path id="XMLID_170_" clip-path="url(#XMLID_305_)" fill-rule="evenodd" clip-rule="evenodd" fill="#D1D5DC" d="M930.8,389.6&#10;&#9;&#9;&#9;&#9;c-7.9,7.4-18.5,11.9-30.1,11.9c-10.7,0-20.5-3.8-28.1-10.1L901.9,521L930.8,389.6z"/>
			<path d="M 909.4000244140625 499.70001220703125 L 916.0999755859375 483.5 L 908.2000122070312 409.70001220703125 L 901.9000244140625 407.8999938964844 L 901.9000244140625 407.79998779296875 L 901.7999877929688 407.8999938964844 L 901.7000122070312 407.79998779296875 L 901.7000122070312 407.8999938964844 L 895.4000244140625 409.70001220703125 L 887 488.29998779296875 L 897 507.3999938964844 L 901.7999877929688 520.7999877929688 L 903.4000244140625 518 L 907.2999877929688 506.8999938964844 Z" id="XMLID_169_" clip-path="url(#XMLID_305_)" fill-rule="evenodd" clip-rule="evenodd" fill="#445C7A"/>
			<path d="M 911.2999877929688 397.6000061035156 L 901.5999755859375 396.29998779296875 L 891.7999877929688 397.6000061035156 L 889.9000244140625 403 L 894.5 410.3999938964844 L 901.5999755859375 410.6000061035156 L 908.5999755859375 410.3999938964844 L 913.2000122070312 403 Z" id="XMLID_168_" clip-path="url(#XMLID_305_)" fill-rule="evenodd" clip-rule="evenodd" fill="#445C7A"/>
			<path d="M 869.9000244140625 379.5 L 901.0999755859375 396.29998779296875 L 878.9000244140625 418.5 L 862.5 383.79998779296875 Z" id="XMLID_167_" clip-path="url(#XMLID_305_)" fill-rule="evenodd" clip-rule="evenodd" fill="#BECAC6"/>
			<path d="M 932.5 379.5 L 901.2000122070312 396.29998779296875 L 923.4000244140625 418.5 L 939.5 384.20001220703125 Z" id="XMLID_166_" clip-path="url(#XMLID_305_)" fill-rule="evenodd" clip-rule="evenodd" fill="#BECAC6"/>
			<path d="M 901.9000244140625 521 L 872.5999755859375 391.29998779296875 L 869.9000244140625 379.5 L 864.5 382.70001220703125 L 862.5 383.79998779296875 L 854.2999877929688 417.3999938964844 L 865.5 420.20001220703125 L 858 434.20001220703125 Z" id="XMLID_165_" clip-path="url(#XMLID_305_)" fill-rule="evenodd" clip-rule="evenodd" fill="#E5E6E6"/>
			<path d="M 948.5999755859375 417.3999938964844 L 940.5 383.79998779296875 L 940.4000244140625 383.79998779296875 L 932.9000244140625 379.79998779296875 L 930.7999877929688 389.6000061035156 L 901.9000244140625 521 L 944.9000244140625 434.20001220703125 L 937.4000244140625 420.20001220703125 Z" id="XMLID_164_" clip-path="url(#XMLID_305_)" fill-rule="evenodd" clip-rule="evenodd" fill="#E5E6E6"/>
			<path id="XMLID_163_" clip-path="url(#XMLID_305_)" fill-rule="evenodd" clip-rule="evenodd" fill="#F7F9FA" d="M992.6,398.9&#10;&#9;&#9;&#9;&#9;c4.8,10.2,1.9,21.8-6.6,25.8c-8.5,4-19.3-1-24.2-11.3c-4.8-10.2-1.9-21.8,6.6-25.8C977,383.6,987.8,388.7,992.6,398.9"/>
			<path id="XMLID_162_" clip-path="url(#XMLID_305_)" fill-rule="evenodd" clip-rule="evenodd" fill="#343338" d="M901.1,489.1&#10;&#9;&#9;&#9;&#9;c0,1.3-1.1,2.4-2.4,2.4c-1.3,0-2.4-1.1-2.4-2.4c0-1.3,1.1-2.4,2.4-2.4C900,486.8,901,487.8,901.1,489.1"/>
			<path id="XMLID_161_" clip-path="url(#XMLID_305_)" fill-rule="evenodd" clip-rule="evenodd" fill="#343338" d="M908.3,489.8&#10;&#9;&#9;&#9;&#9;c0,1.3-1.1,2.4-2.4,2.4c-1.3,0-2.4-1.1-2.4-2.4c0-1.3,1.1-2.4,2.4-2.4C907.2,487.5,908.3,488.5,908.3,489.8"/>
			<path id="XMLID_160_" clip-path="url(#XMLID_305_)" fill-rule="evenodd" clip-rule="evenodd" fill="#E5E6E6" d="M971.6,493&#10;&#9;&#9;&#9;&#9;c-10.2-7.1-31.1-10.7-50-11.7l-9.2,18.8l59.9,2.8L971.6,493z"/>
			<path id="XMLID_159_" clip-path="url(#XMLID_305_)" fill-rule="evenodd" clip-rule="evenodd" fill="#000201" d="M850.5,409.6&#10;&#9;&#9;&#9;&#9;c0.1,7.2,1.7,12.5,1.8,12.7l3.7-1.1c-0.1-0.2-5.8-19.8,4.8-34.1c1.6-2.2,3.6-4.1,5.8-5.9c-4,2.1-7.2,3.2-8.9,3.6&#10;&#9;&#9;&#9;&#9;C852.8,391.4,850.3,400,850.5,409.6"/>
			<path d="M 944.2999877929688 434 L 946.0999755859375 434.6000061035156 L 944.2999877929688 434 Z" id="XMLID_158_" clip-path="url(#XMLID_305_)" fill-rule="evenodd" clip-rule="evenodd" fill="#000201"/>
			<path id="XMLID_157_" clip-path="url(#XMLID_305_)" fill-rule="evenodd" clip-rule="evenodd" fill="#000201" d="M943.6,384.6&#10;&#9;&#9;&#9;&#9;c-2.2-0.9-6.1-2.5-8.7-3.8c2.1,1.7,3.9,3.6,5.4,5.7c6.9,9.4,7.6,21.8,7,30.4c-0.6,9.5-3,16.9-3,17l1.8,0.6l1.8,0.6&#10;&#9;&#9;&#9;&#9;c0.1-0.3,2.5-7.8,3.2-17.8C952,404.1,949.4,392.8,943.6,384.6"/>
			<path id="XMLID_156_" clip-path="url(#XMLID_305_)" fill-rule="evenodd" clip-rule="evenodd" fill="#E5E6E6" d="M958.1,434.6&#10;&#9;&#9;&#9;&#9;c0,6.4-5.2,11.6-11.6,11.6c-6.4,0-11.6-5.2-11.6-11.6c0-6.4,5.2-11.6,11.6-11.6C952.9,423,958.1,428.2,958.1,434.6"/>
			<path clip-path="url(#XMLID_305_)" fill-rule="evenodd" clip-rule="evenodd" fill="#000201" d="M946.5,447.1&#10;&#9;&#9;&#9;&#9;c-6.9,0-12.5-5.6-12.5-12.5c0-6.9,5.6-12.5,12.5-12.5c6.9,0,12.5,5.6,12.5,12.5C958.9,441.5,953.3,447.1,946.5,447.1&#10;&#9;&#9;&#9;&#9; M946.5,423.8c-6,0-10.8,4.8-10.8,10.8c0,6,4.8,10.8,10.8,10.8c6,0,10.8-4.8,10.8-10.8C957.3,428.6,952.4,423.8,946.5,423.8z"/>
			<path id="XMLID_153_" clip-path="url(#XMLID_305_)" fill-rule="evenodd" clip-rule="evenodd" fill="#B3B4B4" d="M954.9,434.6&#10;&#9;&#9;&#9;&#9;c0,4.6-3.8,8.4-8.4,8.4c-4.6,0-8.4-3.8-8.4-8.4c0-4.6,3.8-8.4,8.4-8.4C951.1,426.2,954.9,430,954.9,434.6"/>
			<path id="XMLID_152_" clip-path="url(#XMLID_305_)" fill-rule="evenodd" clip-rule="evenodd" fill="#B3B4B4" d="M854.7,497.5&#10;&#9;&#9;&#9;&#9;c-9.3-0.5-10.4-6.4-10.4-6.7l-6.2-37.2l2.8-0.5l6.2,37.2c0,0.1,0.9,3.9,7.7,4.3L854.7,497.5z"/>
			<path id="XMLID_151_" clip-path="url(#XMLID_305_)" fill-rule="evenodd" clip-rule="evenodd" fill="#B3B4B4" d="M876.2,492.1&#10;&#9;&#9;&#9;&#9;c8.6-3.5,7.7-9.5,7.7-9.7l-6.2-37.2l-2.8,0.5l6.2,37.2c0,0.1,0.5,4-5.9,6.6L876.2,492.1z"/>
			<path id="XMLID_150_" clip-path="url(#XMLID_305_)" fill-rule="evenodd" clip-rule="evenodd" fill="#2A2929" d="M857.2,492.9&#10;&#9;&#9;&#9;&#9;c2.7,0.5,4.6,2.4,4.3,4.2c-0.4,1.8-2.8,2.8-5.6,2.2c-2.7-0.5-4.6-2.4-4.3-4.2C852,493.3,854.4,492.3,857.2,492.9"/>
			<path id="XMLID_149_" clip-path="url(#XMLID_305_)" fill-rule="evenodd" clip-rule="evenodd" fill="#2A2929" d="M872.4,490.3&#10;&#9;&#9;&#9;&#9;c-2.4,1.4-3.6,3.8-2.7,5.3c0.9,1.6,3.6,1.7,6,0.3c2.4-1.4,3.6-3.8,2.7-5.3C877.5,489.1,874.8,488.9,872.4,490.3"/>
			<path id="XMLID_148_" clip-path="url(#XMLID_305_)" fill-rule="evenodd" clip-rule="evenodd" fill="#2A2929" d="M837.3,454.6&#10;&#9;&#9;&#9;&#9;c-0.1-0.3-1.3-8.2-0.3-16.5c1.5-11.7,6.8-18.7,15.4-20.1c20.4-3.4,25.9,28.2,26.1,29.5l-4.2,0.7c0-0.3-5-28.7-21.2-26&#10;&#9;&#9;&#9;&#9;c-6.6,1.1-10.6,6.6-11.8,16.4c-1,7.8,0.3,15.2,0.3,15.3L837.3,454.6z"/>
			<path id="XMLID_147_" clip-path="url(#XMLID_305_)" fill-rule="evenodd" clip-rule="evenodd" fill="#E4BA9B" d="M876.8,454.8&#10;&#9;&#9;&#9;&#9;c0,0,2.1,2.4,7.9,4l-1.8,31.9c0,0-5.3-1-10.4,1.3L876.8,454.8z"/>
			<path id="XMLID_146_" clip-path="url(#XMLID_305_)" fill-rule="evenodd" clip-rule="evenodd" fill="#FFFFFF" d="M896.5,454.4&#10;&#9;&#9;&#9;&#9;l-12.3-0.6c-1.7-0.1-3.2,1.2-3.2,2.9l-0.8,16.2l-0.8,16.2c-0.1,1.7,1.2,3.2,2.9,3.2l12.3,0.6c1.7,0.1,3.2-1.2,3.2-2.9l0.8-16.2&#10;&#9;&#9;&#9;&#9;l0.8-16.2C899.5,456,898.2,454.5,896.5,454.4"/>
			<path id="XMLID_145_" clip-path="url(#XMLID_305_)" fill-rule="evenodd" clip-rule="evenodd" fill="#E4BA9B" d="M836.2,486.5&#10;&#9;&#9;&#9;&#9;c0.1-2.6,2.3-4.6,4.9-4.7c0,0,0,0,0-0.1l-4.6-0.2c-2.7-0.1-4.9-2.5-4.7-5.2c0.1-2.7,2.5-4.9,5.2-4.7l-5-0.2&#10;&#9;&#9;&#9;&#9;c-2.7-0.1-4.9-2.5-4.7-5.2c0.1-2.7,2.5-4.9,5.2-4.7l-19.9-1c-2.7-0.1-4.9-2.5-4.7-5.2c0.1-2.7,2.5-4.9,5.2-4.7l3.2,0.2l26.7,1.3&#10;&#9;&#9;&#9;&#9;l3.6,0.2c0.6,0,1.2-0.5,1.4-1.1c0.2-0.6,0-1.3-0.5-1.7c-4.6-3.9-9.3-3.9-9.1-9.2c0.1-1.2,0.8-2.3,1.8-2.9&#10;&#9;&#9;&#9;&#9;c1.1-0.6,2.4-0.5,3.4,0.1l32.9,17.3c0.8,0.5,1.2,1.3,1.2,2.2c-0.2,4.4-1,19.8-1.4,29.1c-0.2,4.1-3.7,7.3-7.8,7.1&#10;&#9;&#9;&#9;&#9;c-13.4-0.6-27.4-1.3-27.4-1.3C838.2,491.6,836.1,489.2,836.2,486.5"/>
			<path id="XMLID_144_" clip-path="url(#XMLID_305_)" fill-rule="evenodd" clip-rule="evenodd" fill="#F7F9FA" d="M1002.3,501&#10;&#9;&#9;&#9;&#9;c-0.3,0-0.6,0-0.9,0l-116.2-4.8l1.8-43.2l88.3,7l-19-45l37.1-14.1l28.1,68.7c3.5,6.8,3.2,15.1-1,21.6&#10;&#9;&#9;&#9;&#9;C1016.5,497.2,1009.6,501,1002.3,501"/>
			<path id="XMLID_143_" opacity="0.2" clip-path="url(#XMLID_305_)" fill-rule="evenodd" clip-rule="evenodd" fill="#330605" d="&#10;&#9;&#9;&#9;&#9;M820,442.2c-6.8,28.1-14,39.3-24.5,51c3.8,0.8,22.1,4,26.2,3.4l-1.7-24.7V442.2z"/>
			
				<path id="XMLID_142_" clip-path="url(#XMLID_305_)" fill="none" stroke="#64191B" stroke-width="3.4724" stroke-miterlimit="22.9256" d="&#10;&#9;&#9;&#9;&#9;M773.9,459.2c0,0,12.3,24.3,47.6,27.2"/>
			<path id="XMLID_141_" clip-path="url(#XMLID_305_)" fill-rule="evenodd" clip-rule="evenodd" fill="#EAC1AE" d="M803.7,511.5&#10;&#9;&#9;&#9;&#9;l-39.2,4l1.6,13.5l6.3,18.9c0,0,34.4-2.9,33.8-5.1C805.6,540.7,803.7,511.5,803.7,511.5"/>
			<path id="XMLID_140_" clip-path="url(#XMLID_305_)" fill-rule="evenodd" clip-rule="evenodd" fill="#EAC1AE" d="M784.8,511.2&#10;&#9;&#9;&#9;&#9;c-1-0.7-17.7-21.8-18.4-21.8c-0.7,0-3.3,3.5-1.3,9.4c2,5.9,12.9,18.7,13.1,18.4C778.3,516.9,784.8,511.2,784.8,511.2"/>
			<path d="M 747.2000122070312 433.8999938964844 L 842.0999755859375 425.20001220703125 L 876.5999755859375 550.5 L 786.2999877929688 557.5999755859375 Z" id="XMLID_139_" clip-path="url(#XMLID_305_)" fill-rule="evenodd" clip-rule="evenodd" fill="#1C636E"/>
			<path id="XMLID_138_" clip-path="url(#XMLID_305_)" fill-rule="evenodd" clip-rule="evenodd" fill="#FED6B6" d="M761.8,514.3&#10;&#9;&#9;&#9;&#9;l8.2-11.1l14.8-2.7c2.4-0.4,6.6-1.6,7.5,1c0.6,1.8-2.2,6.1-7.1,7.4l-9.1,2.3l-5.2,10.4l-3.8,2c-0.2,0.1-1.8,1.1-1.8,1.1&#10;&#9;&#9;&#9;&#9;C762.1,524,757.2,520.4,761.8,514.3"/>
			<path id="XMLID_137_" clip-path="url(#XMLID_305_)" fill-rule="evenodd" clip-rule="evenodd" fill="#FED6B6" d="M766.3,523.8&#10;&#9;&#9;&#9;&#9;l11.9-9.8l12-1.7c2.5-0.3,5.3-1.2,6.3,1.3c1,2.5-1.8,6.7-4.3,7.3l-10.4,2.7l-11.8,9.4c-2,1.6-4.9,0-6-2.5&#10;&#9;&#9;&#9;&#9;C762.9,528,764.3,525.5,766.3,523.8"/>
			<path id="XMLID_136_" clip-path="url(#XMLID_305_)" fill-rule="evenodd" clip-rule="evenodd" fill="#FED6B6" d="M769.2,530.4&#10;&#9;&#9;&#9;&#9;l13.2-7.6l12.1,0.4c2.5,0.1,5.4-0.2,6,2.4c0.7,2.6-2.8,6.3-5.3,6.5l-10.6,0.8l-13,7.2c-2.2,1.2-4.9-0.9-5.5-3.5&#10;&#9;&#9;&#9;&#9;C765.4,534,767,531.7,769.2,530.4"/>
			<path id="XMLID_135_" clip-path="url(#XMLID_305_)" fill-rule="evenodd" clip-rule="evenodd" fill="#FED6B6" d="M773.1,538.9&#10;&#9;&#9;&#9;&#9;l11.8-5.7l10.4,1.2c2.1,0.2,4.6,0.2,5.1,2.5c0.4,2.3-2.8,5.2-4.9,5.2l-9.2,0l-11.7,5.3c-2,0.9-4.2-1.1-4.6-3.4&#10;&#9;&#9;&#9;&#9;C769.6,541.7,771.1,539.8,773.1,538.9"/>
			<path id="XMLID_134_" clip-path="url(#XMLID_305_)" fill-rule="evenodd" clip-rule="evenodd" fill="#FED6B6" d="M954.1,275.2&#10;&#9;&#9;&#9;&#9;c-6.3,0-11.8,9.2-12.2,20.6c-0.4,11.4,4.3,20.6,10.6,20.6c6.3,0,11.8-9.2,12.2-20.6C965.1,284.4,960.4,275.2,954.1,275.2"/>
			<path id="XMLID_133_" clip-path="url(#XMLID_305_)" fill-rule="evenodd" clip-rule="evenodd" fill="#FED6B6" d="M851.3,275.2&#10;&#9;&#9;&#9;&#9;c6.3,0,11.8,9.2,12.2,20.6c0.4,11.4-4.3,20.6-10.6,20.6c-6.3,0-11.8-9.2-12.2-20.6C840.3,284.4,845,275.2,851.3,275.2"/>
			<path id="XMLID_132_" clip-path="url(#XMLID_305_)" fill-rule="evenodd" clip-rule="evenodd" fill="#FED6B6" d="M902.7,213.6&#10;&#9;&#9;&#9;&#9;c29.9,0,52.6,31.7,52.6,74.3c0,42.7-23,87.8-52.9,87.8c-29.9,0-48.8-42.4-48.8-85.1C853.5,248.1,872.8,213.6,902.7,213.6"/>
			<path id="XMLID_131_" clip-path="url(#XMLID_305_)" fill-rule="evenodd" clip-rule="evenodd" fill="#D9AC5C" d="M864.9,253&#10;&#9;&#9;&#9;&#9;c0,0-13.1,18.4-12.8,36.1c0,0-6.1-26.9-4.6-39L864.9,253z"/>
			<path id="XMLID_130_" clip-path="url(#XMLID_305_)" fill-rule="evenodd" clip-rule="evenodd" fill="#D9AC5C" d="M938,253&#10;&#9;&#9;&#9;&#9;c0,0,13.1,18.4,12.8,36.1c0,0,6.1-26.9,4.6-39L938,253z"/>
			<path id="XMLID_129_" clip-path="url(#XMLID_305_)" fill-rule="evenodd" clip-rule="evenodd" fill="#E2B366" d="M946.7,263.1&#10;&#9;&#9;&#9;&#9;c0,0-83.2,24.7-114.7-28.1c0,0,8.2,3.9,17,2.9c0,0-2-0.5-7.1-10.7l8.5,4.4c0,0-14.6-11.6-8.5-32.5c0,0,13.4,15,27.4,17l-8.2-10.7&#10;&#9;&#9;&#9;&#9;c0,0,10.4-1.5,28.2,4.4l-3-7.8c0,0,41.3,2.9,60.4,27.6C965.9,254.4,946.7,263.1,946.7,263.1"/>
			<path clip-path="url(#XMLID_305_)" fill-rule="evenodd" clip-rule="evenodd" fill="#E1C1AB" d="M832.1,235.1&#10;&#9;&#9;&#9;&#9;C832.1,235.1,832.1,235,832.1,235.1C832.1,235,832.1,235.1,832.1,235.1 M846.1,238.1c0.9,0,1.9,0,2.8-0.1&#10;&#9;&#9;&#9;&#9;C848,238,847,238.1,846.1,238.1z M846.1,238.1C846.1,238.1,846.1,238.1,846.1,238.1C846.1,238.1,846.1,238.1,846.1,238.1&#10;&#9;&#9;&#9;&#9;L846.1,238.1z M903.7,268.9c18.6,0,34.5-3.6,40.5-5.1h0C938.2,265.4,922.2,268.9,903.7,268.9L903.7,268.9z M903.7,268.9&#10;&#9;&#9;&#9;&#9;C903.7,268.9,903.7,268.9,903.7,268.9C903.7,268.9,903.7,268.9,903.7,268.9L903.7,268.9z"/>
			<path clip-path="url(#XMLID_305_)" fill-rule="evenodd" clip-rule="evenodd" fill="#A73B28" d="M946.7,263.1&#10;&#9;&#9;&#9;&#9;C946.7,263.1,946.7,263.1,946.7,263.1 M944.2,263.8L944.2,263.8c1.6-0.4,2.5-0.7,2.5-0.7C946.7,263.1,945.8,263.4,944.2,263.8&#10;&#9;&#9;&#9;&#9;L944.2,263.8z"/>
			<path id="XMLID_121_" clip-path="url(#XMLID_305_)" fill-rule="evenodd" clip-rule="evenodd" fill="#D9AC5C" d="M903.7,268.9&#10;&#9;&#9;&#9;&#9;C903.7,268.9,903.7,268.9,903.7,268.9c-25.2,0-55.3-6.6-71.6-33.8c0,0,0-0.1,0-0.1c0,0,6.5,3.1,14.1,3.1c0,0,0,0,0,0h0&#10;&#9;&#9;&#9;&#9;c0,0,0,0,0,0c0.9,0,1.9,0,2.8-0.1c0,0,0.1,0,0.1,0h0c0,0-2-0.5-7.1-10.7l8.5,4.4c0,0-10-8-10-22.5c0-3,0.4-6.4,1.5-10&#10;&#9;&#9;&#9;&#9;c0,0,1.3,30.7,40.5,48.5c0,0-17.6-1.4-29-5.8c0,0,7.2,14.2,31.5,18.9c6.2,1.2,13,1.8,19.9,1.8c22.7,0,46.1-6.1,50.2-15.8&#10;&#9;&#9;&#9;&#9;c1.7,11.8-8.2,16.4-8.3,16.4c0,0,0,0,0,0c0,0-0.9,0.3-2.5,0.7C938.2,265.4,922.2,268.9,903.7,268.9L903.7,268.9z"/>
			<path clip-path="url(#XMLID_305_)" fill-rule="evenodd" clip-rule="evenodd" d="M854.7,284.3c2.1-0.7,13.6-1.8,22.1-1.5&#10;&#9;&#9;&#9;&#9;c0.5,0,1.1,0,1.6,0.1c7.8,0.5,17.1,3.5,24.1,3.6l0,0h0c7-0.1,16.3-3,24.1-3.6c0.5,0,1-0.1,1.6-0.1c8.6-0.4,20.1,0.8,22.1,1.5&#10;&#9;&#9;&#9;&#9;c2.6,0.9,2.7,1.1,2.8,3.1c0.1,2-0.3,3.7-1.8,4.2c-2,0.6-2.2,3-3.4,9.6c-0.1,0.5-0.2,0.9-0.3,1.4c-0.6,3.1-1.6,5.9-3.6,8.1&#10;&#9;&#9;&#9;&#9;c-2.6,2.8-6.9,4.8-14.4,5.2c-0.5,0-1,0-1.4,0.1c-12,0.1-16-7.9-17.3-10.6c-2.5-4.9-1.7-11.4-8.4-11.5c-6.6,0.1-5.9,6.6-8.4,11.5&#10;&#9;&#9;&#9;&#9;c-1.3,2.6-5.3,10.7-17.3,10.6c-0.5,0-0.9,0-1.4-0.1c-7.5-0.4-11.8-2.4-14.4-5.2c-2-2.2-3-5-3.6-8.1c-0.1-0.5-0.2-1-0.3-1.4&#10;&#9;&#9;&#9;&#9;c-1.2-6.6-1.4-9-3.4-9.6c-1.6-0.5-1.9-2.2-1.8-4.2C852,285.4,852,285.2,854.7,284.3 M943.5,307.3L943.5,307.3&#10;&#9;&#9;&#9;&#9;c1.4-2.7,2.4-6.5,2.7-10.2c0.4-4.6-0.4-9-2.8-10.4c-1.9-1.2-8.5-2-15.2-1.8c-5.6,0.2-11.5,1.1-14.8,3.3c-0.8,0.5-1.4,1.1-1.9,1.7&#10;&#9;&#9;&#9;&#9;c-0.7,0.9-1.1,1.9-1.3,3.1c-1,6.5,4.6,16.8,10.1,19.5c2.1,1,4.9,1.5,7.9,1.5c6,0,12.6-2.1,15.1-6.3L943.5,307.3z M861.5,307.3&#10;&#9;&#9;&#9;&#9;L861.5,307.3l0.3,0.5c2.4,4.2,9.1,6.3,15.1,6.3c3,0,5.8-0.5,7.9-1.5c5.5-2.7,11.1-13,10.1-19.5c-0.2-1.2-0.6-2.3-1.3-3.1&#10;&#9;&#9;&#9;&#9;c-0.5-0.6-1.1-1.2-1.9-1.7c-3.4-2.2-9.2-3.1-14.8-3.3c-6.8-0.2-13.3,0.6-15.2,1.8c-2.4,1.4-3.2,5.8-2.8,10.4&#10;&#9;&#9;&#9;&#9;C859.1,300.8,860.1,304.6,861.5,307.3z"/>
			<path id="XMLID_117_" clip-path="url(#XMLID_305_)" fill-rule="evenodd" clip-rule="evenodd" fill="#414142" d="M890.7,297&#10;&#9;&#9;&#9;&#9;c0,0-1.6-0.7-4.2-1.4c-1.3-0.3-2.8-0.7-4.4-1c-1.6-0.3-3.3-0.4-4.9-0.3c-0.8,0.2-1.7,0.3-2.5,0.5c-0.9,0.2-1.7,0.3-2.5,0.4&#10;&#9;&#9;&#9;&#9;c-1.5,0.4-2.9,0.5-4.2,0.5c-1.3,0.2-2.4,0.2-3.3,0.2c-0.8,0-1.3,0-1.3,0l-0.2-0.4c0,0,1.4-1.5,3.9-2.7c1.3-0.6,2.9-1.2,4.7-1.6&#10;&#9;&#9;&#9;&#9;c0.9-0.1,1.7-0.1,2.6,0c0.9,0,1.9,0,2.8,0c1.9,0.2,3.8,0.6,5.4,1.2c1.6,0.6,3.1,1.2,4.3,1.9c2.4,1.3,3.9,2.4,3.9,2.4L890.7,297z"/>
			<path id="XMLID_116_" clip-path="url(#XMLID_305_)" fill-rule="evenodd" clip-rule="evenodd" fill="#414142" d="M915.2,297&#10;&#9;&#9;&#9;&#9;c0,0,1.6-0.7,4.2-1.4c1.3-0.3,2.8-0.7,4.4-1c1.6-0.3,3.3-0.4,4.9-0.3c0.8,0.2,1.7,0.3,2.5,0.5c0.9,0.2,1.7,0.3,2.5,0.4&#10;&#9;&#9;&#9;&#9;c1.5,0.4,2.9,0.5,4.2,0.5c1.3,0.2,2.4,0.2,3.3,0.2c0.8,0,1.3,0,1.3,0l0.2-0.4c0,0-1.4-1.5-3.9-2.7c-1.3-0.6-2.9-1.2-4.7-1.6&#10;&#9;&#9;&#9;&#9;c-0.9-0.1-1.7-0.1-2.6,0c-0.9,0-1.9,0-2.8,0c-1.9,0.2-3.8,0.6-5.4,1.2c-1.6,0.6-3.1,1.2-4.3,1.9c-2.4,1.3-3.9,2.4-3.9,2.4&#10;&#9;&#9;&#9;&#9;L915.2,297z"/>
			<path id="XMLID_115_" clip-path="url(#XMLID_305_)" fill-rule="evenodd" clip-rule="evenodd" fill="#FCC296" d="M921.5,348.5&#10;&#9;&#9;&#9;&#9;c-3.3,4-10.8,6.8-19.5,6.8c-8.7,0-16.2-2.8-19.5-6.8c4.7,2.5,11.7,4.1,19.5,4.1C909.8,352.6,916.8,351,921.5,348.5"/>
			<path id="XMLID_114_" clip-path="url(#XMLID_305_)" fill-rule="evenodd" clip-rule="evenodd" fill="#646568" d="M821.7,203.6&#10;&#9;&#9;&#9;&#9;c0,67.2-54.5,121.7-121.7,121.7c-67.2,0-121.7-54.5-121.7-121.7c0-67.2,54.5-121.7,121.7-121.7&#10;&#9;&#9;&#9;&#9;C767.2,81.9,821.7,136.4,821.7,203.6"/>
			<path id="XMLID_113_" clip-path="url(#XMLID_305_)" fill-rule="evenodd" clip-rule="evenodd" fill="#FFFFFF" d="M808,203.6&#10;&#9;&#9;&#9;&#9;c0,59.6-48.4,108-108,108c-59.6,0-108-48.4-108-108c0-59.6,48.4-108,108-108C759.7,95.6,808,144,808,203.6"/>
			<path id="XMLID_112_" clip-path="url(#XMLID_305_)" fill-rule="evenodd" clip-rule="evenodd" d="M705.1,106.9&#10;&#9;&#9;&#9;&#9;c0,2.8-2.3,5.1-5.1,5.1c-2.8,0-5.1-2.3-5.1-5.1c0-2.8,2.3-5.1,5.1-5.1C702.8,101.8,705.1,104.1,705.1,106.9"/>
			<path id="XMLID_111_" clip-path="url(#XMLID_305_)" fill-rule="evenodd" clip-rule="evenodd" d="M705.1,300.3&#10;&#9;&#9;&#9;&#9;c0,2.8-2.3,5.1-5.1,5.1c-2.8,0-5.1-2.3-5.1-5.1c0-2.8,2.3-5.1,5.1-5.1C702.8,295.3,705.1,297.5,705.1,300.3"/>
			<path id="XMLID_110_" clip-path="url(#XMLID_305_)" fill-rule="evenodd" clip-rule="evenodd" d="M796.7,208.7&#10;&#9;&#9;&#9;&#9;c-2.8,0-5.1-2.3-5.1-5.1c0-2.8,2.3-5.1,5.1-5.1c2.8,0,5.1,2.3,5.1,5.1C801.8,206.4,799.5,208.7,796.7,208.7"/>
			<path id="XMLID_109_" clip-path="url(#XMLID_305_)" fill-rule="evenodd" clip-rule="evenodd" d="M603.3,208.7&#10;&#9;&#9;&#9;&#9;c-2.8,0-5.1-2.3-5.1-5.1c0-2.8,2.3-5.1,5.1-5.1c2.8,0,5.1,2.3,5.1,5.1C608.3,206.4,606.1,208.7,603.3,208.7"/>
			<path id="XMLID_108_" clip-path="url(#XMLID_305_)" fill-rule="evenodd" clip-rule="evenodd" d="M768.4,138.6&#10;&#9;&#9;&#9;&#9;c0.9,0,1.8-0.4,2.4-1c1.3-1.3,1.3-3.5,0-4.9c-0.6-0.7-1.5-1-2.4-1c-0.9,0-1.8,0.4-2.4,1c-0.6,0.7-1,1.5-1,2.4&#10;&#9;&#9;&#9;&#9;c0,0.9,0.4,1.8,1,2.4C766.6,138.3,767.5,138.6,768.4,138.6"/>
			<path id="XMLID_107_" clip-path="url(#XMLID_305_)" fill-rule="evenodd" clip-rule="evenodd" d="M631.6,268.6&#10;&#9;&#9;&#9;&#9;c-0.9,0-1.8,0.4-2.4,1c-0.7,0.6-1,1.5-1,2.4c0,0.9,0.4,1.8,1,2.4c0.7,0.6,1.5,1,2.4,1c0.9,0,1.8-0.4,2.4-1c0.6-0.6,1-1.5,1-2.4&#10;&#9;&#9;&#9;&#9;c0-0.9-0.4-1.8-1-2.4C633.4,268.9,632.5,268.6,631.6,268.6"/>
			<path id="XMLID_106_" clip-path="url(#XMLID_305_)" fill-rule="evenodd" clip-rule="evenodd" d="M768.4,268.6&#10;&#9;&#9;&#9;&#9;c-0.9,0-1.8,0.4-2.4,1c-0.6,0.6-1,1.5-1,2.4c0,0.9,0.4,1.8,1,2.4c0.6,0.6,1.5,1,2.4,1c0.9,0,1.8-0.4,2.4-1c0.7-0.6,1-1.5,1-2.4&#10;&#9;&#9;&#9;&#9;c0-0.9-0.4-1.8-1-2.4C770.2,268.9,769.3,268.6,768.4,268.6"/>
			<path id="XMLID_105_" clip-path="url(#XMLID_305_)" fill-rule="evenodd" clip-rule="evenodd" d="M631.6,131.8&#10;&#9;&#9;&#9;&#9;c-0.9,0-1.8,0.4-2.4,1c-0.7,0.7-1,1.5-1,2.4c0,0.9,0.4,1.8,1,2.4c0.7,0.7,1.5,1,2.4,1c0.9,0,1.8-0.4,2.4-1c0.6-0.7,1-1.5,1-2.4&#10;&#9;&#9;&#9;&#9;c0-0.9-0.4-1.8-1-2.4C633.4,132.1,632.5,131.8,631.6,131.8"/>
			
				<path d="M 698.700012 125.5 H 701.100012 V 216.099998 H 698.700012 V 125.5 Z" id="XMLID_104_" clip-path="url(#XMLID_305_)" fill-rule="evenodd" clip-rule="evenodd"/>
			<path d="M 700 131.6999969482422 L 691.9000244140625 131.6999969482422 L 696 124.69999694824219 L 700 117.69999694824219 L 704 124.69999694824219 L 708.0999755859375 131.6999969482422 Z" id="XMLID_103_" clip-path="url(#XMLID_305_)" fill-rule="evenodd" clip-rule="evenodd"/>
			
				<path d="M 651.299988 202.5 H 708.699989 V 204.9 H 651.299988 V 202.5 Z" id="XMLID_102_" clip-path="url(#XMLID_305_)" fill-rule="evenodd" clip-rule="evenodd"/>
			<path d="M 657.4000244140625 203.5 L 657.4000244140625 211.5 L 650.5 207.5 L 643.5 203.5 L 650.5 199.39999389648438 L 657.4000244140625 195.39999389648438 Z" id="XMLID_101_" clip-path="url(#XMLID_305_)" fill-rule="evenodd" clip-rule="evenodd"/>
			
				<path d="M 669.400024 135.100006 H 671.800025 V 225.700005 H 669.400024 V 135.100006 Z" id="XMLID_100_" transform="matrix(0.6136 -0.7896 0.7896 0.6136 116.6736 599.2254)" clip-path="url(#XMLID_305_)" fill-rule="evenodd" clip-rule="evenodd" fill="#ED1C24"/>
			<path d="M 637.0999755859375 154.3000030517578 L 634.7999877929688 157.3000030517578 L 633.2999877929688 153.6999969482422 L 631.9000244140625 150.1999969482422 L 635.7000122070312 150.6999969482422 L 639.5 151.1999969482422 Z" id="XMLID_99_" clip-path="url(#XMLID_305_)" fill-rule="evenodd" clip-rule="evenodd" fill="#ED1C24"/>
			<path id="XMLID_98_" clip-path="url(#XMLID_305_)" fill-rule="evenodd" clip-rule="evenodd" d="M704.9,203.6&#10;&#9;&#9;&#9;&#9;c0,2.7-2.2,4.9-4.9,4.9c-2.7,0-4.9-2.2-4.9-4.9c0-2.7,2.2-4.9,4.9-4.9C702.7,198.7,704.9,200.9,704.9,203.6"/>
			<path clip-path="url(#XMLID_305_)" fill-rule="evenodd" clip-rule="evenodd" fill="#433A47" d="M1285.1,659.7v-3.3V652v-26.1&#10;&#9;&#9;&#9;&#9;v-26.1v-26.1v-1.5c4,0,7.3-2.5,7.3-5.7c0-3.1-3.3-5.7-7.3-5.7v0c-4,0-7.3,2.5-7.3,5.7c0,3.1,3.3,5.7,7.3,5.7v0 M1270.8,561.7v4.4&#10;&#9;&#9;&#9;&#9;v3.3v4.4V652v4.4v3.3h14.3h14.3v-3.3V652v-78.3v-4.4v-3.3v-4.4v-5.3h-14.3h-14.3V561.7z"/>
			<path clip-path="url(#XMLID_305_)" fill-rule="evenodd" clip-rule="evenodd" fill="#E9E3D4" d="M1285.1,560.9L1285.1,560.9&#10;&#9;&#9;&#9;&#9;c-4,0-7.3,2.6-7.3,5.7c0,3.1,3.3,5.7,7.3,5.7v0 M1285.1,566.1v-4.4v-0.8c4,0,7.3,2.5,7.3,5.7c0,3.1-3.3,5.7-7.3,5.7v-2.9V566.1z"/>
			<path clip-path="url(#XMLID_305_)" fill-rule="evenodd" clip-rule="evenodd" fill="#93718B" d="M1341.8,648.6h12.3v-63.2h-12.3&#10;&#9;&#9;&#9;&#9;h-12.3v63.2H1341.8z M1341.8,576.2h-12.3v4h12.3h12.3v-4H1341.8z M1354.1,571v-6.3h-12.3h-12.3v6.3h12.3H1354.1z M1341.8,601.4&#10;&#9;&#9;&#9;&#9;h8.5v31.3h-8.5h-8.5v-31.3H1341.8z"/>
			<path clip-path="url(#XMLID_305_)" fill-rule="evenodd" clip-rule="evenodd" fill="#E9E3D4" d="M1341.8,653.8h12.3v-5.2h-12.3&#10;&#9;&#9;&#9;&#9;h-12.3v5.2H1341.8z M1350.3,632.6v-31.3h-8.5h-8.5v31.3h8.5H1350.3z M1341.8,657.8h-12.3v5.2h12.3h12.3v-5.2H1341.8z"/>
			<path clip-path="url(#XMLID_305_)" fill-rule="evenodd" clip-rule="evenodd" fill="#E9E3D4" d="M1341.8,571h-12.3v5.2h12.3h12.3&#10;&#9;&#9;&#9;&#9;V571H1341.8z M1341.8,580.2h-12.3v5.2h12.3h12.3v-5.2H1341.8z"/>
			<path clip-path="url(#XMLID_305_)" fill-rule="evenodd" clip-rule="evenodd" fill="#28849D" d="M1314.3,658.3h12.3v-3.8h-12.3&#10;&#9;&#9;&#9;&#9;H1302v3.8H1314.3z M1314.3,649.5h12.3v-60.5h-12.3H1302v60.5H1314.3z M1314.3,669.3h12.3v-6h-12.3H1302v6H1314.3z"/>
			<path clip-path="url(#XMLID_305_)" fill-rule="evenodd" clip-rule="evenodd" fill="#28849D" d="M1326.6,575.1v-6h-12.3H1302v6&#10;&#9;&#9;&#9;&#9;h12.3H1326.6z M1314.3,583.9h12.3v-3.8h-12.3H1302v3.8H1314.3z"/>
			<path clip-path="url(#XMLID_305_)" fill-rule="evenodd" clip-rule="evenodd" fill="#FFF6DB" d="M1314.3,580.1h12.3v-5h-12.3H1302&#10;&#9;&#9;&#9;&#9;v5H1314.3z M1314.3,588.9h12.3v-5h-12.3H1302v5H1314.3z"/>
			<path clip-path="url(#XMLID_305_)" fill-rule="evenodd" clip-rule="evenodd" fill="#D36547" d="M1233.8,656.7h-10.9v3.3h10.9&#10;&#9;&#9;&#9;&#9;h10.9v-3.3H1233.8z M1233.8,575.9h-10.9v76.5h10.9h10.9v-76.5H1233.8z M1233.8,626.9h-7.5v-25.5h7.5h7.5v25.5H1233.8z&#10;&#9;&#9;&#9;&#9; M1233.8,568.4h-10.9v3.3h10.9h10.9v-3.3H1233.8z M1244.7,564.2v-5.1h-10.9h-10.9v5.1h10.9H1244.7z M1233.8,669.3h10.9v-5.1&#10;&#9;&#9;&#9;&#9;h-10.9h-10.9v5.1H1233.8z"/>
			<path clip-path="url(#XMLID_305_)" fill-rule="evenodd" clip-rule="evenodd" fill="#E9E3D4" d="M1233.8,652.4h-10.9v4.3h10.9&#10;&#9;&#9;&#9;&#9;h10.9v-4.3H1233.8z M1241.3,626.9v-25.5h-7.5h-7.5v25.5h7.5H1241.3z M1233.8,571.7h-10.9v4.3h10.9h10.9v-4.3H1233.8z&#10;&#9;&#9;&#9;&#9; M1233.8,568.4h10.9v-4.3h-10.9h-10.9v4.3H1233.8z M1233.8,659.9h-10.9v4.3h10.9h10.9v-4.3H1233.8z"/>
			<path clip-path="url(#XMLID_305_)" fill-rule="evenodd" clip-rule="evenodd" fill="#899976" d="M1257.4,658.5h11.2v-3.7h-11.2&#10;&#9;&#9;&#9;&#9;h-11.2v3.7H1257.4z M1257.4,649.9h11.2v-59.2h-11.2h-11.2v59.2H1257.4z M1257.4,582h-11.2v3.7h11.2h11.2V582H1257.4z&#10;&#9;&#9;&#9;&#9; M1268.6,577.1v-5.9h-11.2h-11.2v5.9h11.2H1268.6z M1257.4,669.3h11.2v-5.9h-11.2h-11.2v5.9H1257.4z"/>
			<path clip-path="url(#XMLID_305_)" fill-rule="evenodd" clip-rule="evenodd" fill="#FFF6DB" d="M1257.4,649.9h-11.2v4.9h11.2&#10;&#9;&#9;&#9;&#9;h11.2v-4.9H1257.4z M1257.4,585.8h-11.2v4.9h11.2h11.2v-4.9H1257.4z M1257.4,577.1h-11.2v4.9h11.2h11.2v-4.9H1257.4z&#10;&#9;&#9;&#9;&#9; M1257.4,663.4h11.2v-4.9h-11.2h-11.2v4.9H1257.4z"/>
			<path clip-path="url(#XMLID_305_)" fill-rule="evenodd" clip-rule="evenodd" fill="#433A47" d="M1151.1,659.7v-3.3V652v-26.1&#10;&#9;&#9;&#9;&#9;v-26.1v-26.1v-1.5c4,0,7.3-2.5,7.3-5.7c0-3.1-3.3-5.7-7.3-5.7v0c-4,0-7.3,2.5-7.3,5.7c0,3.1,3.3,5.7,7.3,5.7v0 M1136.8,561.7v4.4&#10;&#9;&#9;&#9;&#9;v3.3v4.4V652v4.4v3.3h14.3h14.3v-3.3V652v-78.3v-4.4v-3.3v-4.4v-5.3h-14.3h-14.3V561.7z"/>
			<path clip-path="url(#XMLID_305_)" fill-rule="evenodd" clip-rule="evenodd" fill="#E9E3D4" d="M1151.1,560.9L1151.1,560.9&#10;&#9;&#9;&#9;&#9;c-4,0-7.3,2.6-7.3,5.7c0,3.1,3.3,5.7,7.3,5.7v0 M1151.1,566.1v-4.4v-0.8c4,0,7.3,2.5,7.3,5.7c0,3.1-3.3,5.7-7.3,5.7v-2.9V566.1z"/>
			<path clip-path="url(#XMLID_305_)" fill-rule="evenodd" clip-rule="evenodd" fill="#93718B" d="M1207.7,648.6h12.3v-63.2h-12.3&#10;&#9;&#9;&#9;&#9;h-12.3v63.2H1207.7z M1207.7,576.2h-12.3v4h12.3h12.3v-4H1207.7z M1220.1,571v-6.3h-12.3h-12.3v6.3h12.3H1220.1z M1207.7,601.4&#10;&#9;&#9;&#9;&#9;h8.5v31.3h-8.5h-8.5v-31.3H1207.7z"/>
			<path clip-path="url(#XMLID_305_)" fill-rule="evenodd" clip-rule="evenodd" fill="#E9E3D4" d="M1207.7,653.8h12.3v-5.2h-12.3&#10;&#9;&#9;&#9;&#9;h-12.3v5.2H1207.7z M1216.2,632.6v-31.3h-8.5h-8.5v31.3h8.5H1216.2z M1207.7,657.8h-12.3v5.2h12.3h12.3v-5.2H1207.7z"/>
			<path clip-path="url(#XMLID_305_)" fill-rule="evenodd" clip-rule="evenodd" fill="#E9E3D4" d="M1207.7,571h-12.3v5.2h12.3h12.3&#10;&#9;&#9;&#9;&#9;V571H1207.7z M1207.7,580.2h-12.3v5.2h12.3h12.3v-5.2H1207.7z"/>
			<path clip-path="url(#XMLID_305_)" fill-rule="evenodd" clip-rule="evenodd" fill="#28849D" d="M1180.2,658.3h12.3v-3.8h-12.3&#10;&#9;&#9;&#9;&#9;h-12.3v3.8H1180.2z M1180.2,649.5h12.3v-60.5h-12.3h-12.3v60.5H1180.2z M1180.2,669.3h12.3v-6h-12.3h-12.3v6H1180.2z"/>
			<path clip-path="url(#XMLID_305_)" fill-rule="evenodd" clip-rule="evenodd" fill="#28849D" d="M1192.5,575.1v-6h-12.3h-12.3v6&#10;&#9;&#9;&#9;&#9;h12.3H1192.5z M1180.2,583.9h12.3v-3.8h-12.3h-12.3v3.8H1180.2z"/>
			<path clip-path="url(#XMLID_305_)" fill-rule="evenodd" clip-rule="evenodd" fill="#FFF6DB" d="M1180.2,580.1h12.3v-5h-12.3&#10;&#9;&#9;&#9;&#9;h-12.3v5H1180.2z M1180.2,588.9h12.3v-5h-12.3h-12.3v5H1180.2z"/>
			<path clip-path="url(#XMLID_305_)" fill-rule="evenodd" clip-rule="evenodd" fill="#D36547" d="M1099.7,656.7h-10.9v3.3h10.9&#10;&#9;&#9;&#9;&#9;h10.9v-3.3H1099.7z M1099.7,575.9h-10.9v76.5h10.9h10.9v-76.5H1099.7z M1099.7,626.9h-7.5v-25.5h7.5h7.5v25.5H1099.7z&#10;&#9;&#9;&#9;&#9; M1099.7,568.4h-10.9v3.3h10.9h10.9v-3.3H1099.7z M1110.6,564.2v-5.1h-10.9h-10.9v5.1h10.9H1110.6z M1099.7,669.3h10.9v-5.1&#10;&#9;&#9;&#9;&#9;h-10.9h-10.9v5.1H1099.7z"/>
			<path clip-path="url(#XMLID_305_)" fill-rule="evenodd" clip-rule="evenodd" fill="#E9E3D4" d="M1099.7,652.4h-10.9v4.3h10.9&#10;&#9;&#9;&#9;&#9;h10.9v-4.3H1099.7z M1107.2,626.9v-25.5h-7.5h-7.5v25.5h7.5H1107.2z M1099.7,571.7h-10.9v4.3h10.9h10.9v-4.3H1099.7z&#10;&#9;&#9;&#9;&#9; M1099.7,568.4h10.9v-4.3h-10.9h-10.9v4.3H1099.7z M1099.7,659.9h-10.9v4.3h10.9h10.9v-4.3H1099.7z"/>
			<path clip-path="url(#XMLID_305_)" fill-rule="evenodd" clip-rule="evenodd" fill="#899976" d="M1123.3,658.5h11.2v-3.7h-11.2&#10;&#9;&#9;&#9;&#9;h-11.2v3.7H1123.3z M1123.3,649.9h11.2v-59.2h-11.2h-11.2v59.2H1123.3z M1123.3,582h-11.2v3.7h11.2h11.2V582H1123.3z&#10;&#9;&#9;&#9;&#9; M1134.5,577.1v-5.9h-11.2h-11.2v5.9h11.2H1134.5z M1123.3,669.3h11.2v-5.9h-11.2h-11.2v5.9H1123.3z"/>
			<path clip-path="url(#XMLID_305_)" fill-rule="evenodd" clip-rule="evenodd" fill="#FFF6DB" d="M1123.3,649.9h-11.2v4.9h11.2&#10;&#9;&#9;&#9;&#9;h11.2v-4.9H1123.3z M1123.3,585.8h-11.2v4.9h11.2h11.2v-4.9H1123.3z M1123.3,577.1h-11.2v4.9h11.2h11.2v-4.9H1123.3z&#10;&#9;&#9;&#9;&#9; M1123.3,663.4h11.2v-4.9h-11.2h-11.2v4.9H1123.3z"/>
			
				<path d="M 570 746.099976 H 1326.599976 V 982.199982 H 570 V 746.099976 Z" id="XMLID_17_" clip-path="url(#XMLID_305_)" fill-rule="evenodd" clip-rule="evenodd" fill="#CAA47F"/>
			<path id="XMLID_16_" clip-path="url(#XMLID_305_)" fill-rule="evenodd" clip-rule="evenodd" fill="#BA9572" d="M557.5,715.1&#10;&#9;&#9;&#9;&#9;h781.6c6.7,0,12.3,5.5,12.3,12.3v16.3c0,6.7-5.5,12.3-12.3,12.3H557.5c-6.7,0-12.3-5.5-12.3-12.3v-16.3&#10;&#9;&#9;&#9;&#9;C545.2,720.6,550.7,715.1,557.5,715.1"/>
			<path id="XMLID_15_" clip-path="url(#XMLID_305_)" fill-rule="evenodd" clip-rule="evenodd" fill="#D4B29B" d="M528.8,667.4h839&#10;&#9;&#9;&#9;&#9;c7.7,0,14,6.3,14,14v39.5c0,7.7-6.3,14-14,14h-839c-7.7,0-14-6.3-14-14v-39.5C514.8,673.7,521.1,667.4,528.8,667.4"/>
			<path d="M 1270.800048828125 664.0999755859375 L 1270.800048828125 669.2999877929688 L 1285.0999755859375 669.2999877929688 L 1299.4000244140625 669.2999877929688 L 1299.4000244140625 664.0999755859375 L 1285.0999755859375 664.0999755859375 Z" id="XMLID_14_" clip-path="url(#XMLID_305_)" fill-rule="evenodd" clip-rule="evenodd" fill="#433A47"/>
			<path d="M 1285.0999755859375 659.7000122070312 L 1270.800048828125 659.7000122070312 L 1270.800048828125 664.0999755859375 L 1285.0999755859375 664.0999755859375 L 1299.4000244140625 664.0999755859375 L 1299.4000244140625 659.7000122070312 Z" id="XMLID_13_" clip-path="url(#XMLID_305_)" fill-rule="evenodd" clip-rule="evenodd" fill="#E9E3D4"/>
			<path clip-path="url(#XMLID_305_)" fill-rule="evenodd" clip-rule="evenodd" fill="#867289" d="M1341.8,653.8h-12.3v4h12.3h12.3&#10;&#9;&#9;&#9;&#9;v-4H1341.8z M1329.5,663v6.3h12.3h12.3V663h-12.3H1329.5z"/>
			<path clip-path="url(#XMLID_305_)" fill-rule="evenodd" clip-rule="evenodd" fill="#FFF6DB" d="M1314.3,654.5h12.3v-5h-12.3H1302&#10;&#9;&#9;&#9;&#9;v5H1314.3z M1314.3,663.3h12.3v-5h-12.3H1302v5H1314.3z"/>
			<path d="M 1136.800048828125 664.0999755859375 L 1136.800048828125 669.2999877929688 L 1151.0999755859375 669.2999877929688 L 1165.300048828125 669.2999877929688 L 1165.300048828125 664.0999755859375 L 1151.0999755859375 664.0999755859375 Z" id="XMLID_8_" clip-path="url(#XMLID_305_)" fill-rule="evenodd" clip-rule="evenodd" fill="#433A47"/>
			<path d="M 1151.0999755859375 659.7000122070312 L 1136.800048828125 659.7000122070312 L 1136.800048828125 664.0999755859375 L 1151.0999755859375 664.0999755859375 L 1165.300048828125 664.0999755859375 L 1165.300048828125 659.7000122070312 Z" id="XMLID_7_" clip-path="url(#XMLID_305_)" fill-rule="evenodd" clip-rule="evenodd" fill="#E9E3D4"/>
			<path clip-path="url(#XMLID_305_)" fill-rule="evenodd" clip-rule="evenodd" fill="#867289" d="M1207.7,653.8h-12.3v4h12.3h12.3&#10;&#9;&#9;&#9;&#9;v-4H1207.7z M1195.4,663v6.3h12.3h12.3V663h-12.3H1195.4z"/>
			<path clip-path="url(#XMLID_305_)" fill-rule="evenodd" clip-rule="evenodd" fill="#FFF6DB" d="M1180.2,654.5h12.3v-5h-12.3&#10;&#9;&#9;&#9;&#9;h-12.3v5H1180.2z M1180.2,663.3h12.3v-5h-12.3h-12.3v5H1180.2z"/>
		</g>
	</g>
</svg>