<?xml version="1.0" encoding="utf-8"?>
<svg id="master-artboard" viewBox="0 0 1400 980" version="1.1" xmlns="http://www.w3.org/2000/svg" x="0px" y="0px" style="enable-background:new 0 0 1400 980;" width="1400px" height="980px" xmlns:xlink="http://www.w3.org/1999/xlink">

<path d="M 0 0 H 1400 V 980 H 0 V 0 Z" class="st0" style="fill: rgb(193, 193, 193);" transform="matrix(1, 0, 0, 1, 0, 0)"/>
<g transform="matrix(1, 0, 0, 1, 0, 0)">
		<defs>
			<path d="M 0 0 H 1400 V 980 H 0 V 0 Z" id="SVGID_1_"/>
		</defs>
		<clipPath id="SVGID_2_">
			<use style="overflow:visible;" xlink:href="#SVGID_1_"/>
		</clipPath>
		<g class="st1" style="clip-path: url('#SVGID_2_');">
			<path d="M 231.899994 616.900024 H 254.699993 V 671.200024 H 231.899994 V 616.900024 Z" class="st2" style="fill: rgb(68, 68, 68);"/>
			<path d="M 313.400002 566.900024 A 70.099998 70.099998 0 0 1 243.300003 637.000023 A 70.099998 70.099998 0 0 1 173.200005 566.900024 A 70.099998 70.099998 0 0 1 243.300003 496.800026 A 70.099998 70.099998 0 0 1 313.400002 566.900024 Z" class="st3" style="fill: rgb(244, 167, 33);"/>
			<path d="M 329.399994 605.900024 A 27 27 0 0 1 302.399994 632.900024 A 27 27 0 0 1 275.399994 605.900024 A 27 27 0 0 1 302.399994 578.900024 A 27 27 0 0 1 329.399994 605.900024 Z" class="st4" style="fill: rgb(226, 144, 26);"/>
			
				<path d="M 232.699997 526.599976 A 18.5 12.1 0 0 1 214.199997 538.699976 A 18.5 12.1 0 0 1 195.699997 526.599976 A 18.5 12.1 0 0 1 214.199997 514.499975 A 18.5 12.1 0 0 1 232.699997 526.599976 Z" transform="matrix(0.8064 -0.5913 0.5913 0.8064 -269.9462 228.5893)" class="st5" style="fill: rgb(247, 195, 65);"/>
			<path d="M 274.3999938964844 658.2999877929688 L 212.10000610351562 658.2999877929688 L 181.10000610351562 658.2999877929688 L 201.39999389648438 759.7999877929688 L 212.10000610351562 759.7999877929688 L 274.3999938964844 759.7999877929688 L 285.20001220703125 759.7999877929688 L 305.5 658.2999877929688 Z" class="st2" style="fill: rgb(68, 68, 68);"/>
			<path d="M 181.100006 658.299988 H 305.600006 V 684.199987 H 181.100006 V 658.299988 Z" class="st6" style="fill: rgb(44, 42, 43);"/>
		</g>
		<g class="st1" style="clip-path: url('#SVGID_2_');">
			<path d="M 48.700001 616.900024 H 71.5 V 671.200024 H 48.700001 V 616.900024 Z" class="st2" style="fill: rgb(68, 68, 68);"/>
			<path d="M 130.199997 566.900024 A 70.099998 70.099998 0 0 1 60.099998 637.000023 A 70.099998 70.099998 0 0 1 -10 566.900024 A 70.099998 70.099998 0 0 1 60.099998 496.800026 A 70.099998 70.099998 0 0 1 130.199997 566.900024 Z" class="st3" style="fill: rgb(244, 167, 33);"/>
			<path d="M 146.199997 605.900024 A 27 27 0 0 1 119.199997 632.900024 A 27 27 0 0 1 92.199997 605.900024 A 27 27 0 0 1 119.199997 578.900024 A 27 27 0 0 1 146.199997 605.900024 Z" class="st4" style="fill: rgb(226, 144, 26);"/>
			
				<path d="M 49.5 526.599976 A 18.5 12.1 0 0 1 31 538.699976 A 18.5 12.1 0 0 1 12.5 526.599976 A 18.5 12.1 0 0 1 31 514.499975 A 18.5 12.1 0 0 1 49.5 526.599976 Z" transform="matrix(0.8064 -0.5913 0.5913 0.8064 -305.4072 120.2568)" class="st5" style="fill: rgb(247, 195, 65);"/>
			<path d="M 91.19999694824219 658.2999877929688 L 28.899999618530273 658.2999877929688 L -2.0999999046325684 658.2999877929688 L 18.200000762939453 759.7999877929688 L 28.899999618530273 759.7999877929688 L 91.19999694824219 759.7999877929688 L 102 759.7999877929688 L 122.30000305175781 658.2999877929688 Z" class="st2" style="fill: rgb(68, 68, 68);"/>
			<path d="M -2.1 658.299988 H 122.4 V 684.199987 H -2.1 V 658.299988 Z" class="st6" style="fill: rgb(44, 42, 43);"/>
		</g>
		<g class="st1" style="clip-path: url('#SVGID_2_');">
			<g>
				<path d="M 367.399994 180.399994 H 697 V 780.699982 H 367.399994 V 180.399994 Z" class="st7" style="fill: rgb(211, 211, 211);"/>
				<path d="M 703 180.399994 H 1032.600006 V 780.699982 H 703 V 180.399994 Z" class="st7" style="fill: rgb(211, 211, 211);"/>
				<path d="M 486.5 780.7000122070312 L 398.6000061035156 780.7000122070312 L 578 180.39999389648438 L 665.9000244140625 180.39999389648438 Z" class="st8" style="fill: rgb(226, 226, 226);"/>
				<path d="M 697 276.79998779296875 L 546.5 780.7000122070312 L 634.4000244140625 780.7000122070312 L 697 571.2000122070312 Z" class="st8" style="fill: rgb(226, 226, 226);"/>
				<path d="M 703 588.4000244140625 L 824.9000244140625 180.39999389648438 L 736.9000244140625 180.39999389648438 L 703 294.1000061035156 Z" class="st8" style="fill: rgb(226, 226, 226);"/>
				<path d="M 770.7000122070312 780.7000122070312 L 729.5999755859375 780.7000122070312 L 908.9000244140625 180.39999389648438 L 950.0999755859375 180.39999389648438 Z" class="st8" style="fill: rgb(226, 226, 226);"/>
				<path d="M 367.3999938964844 661.7999877929688 L 511.20001220703125 180.39999389648438 L 470.1000061035156 180.39999389648438 L 367.3999938964844 524.0999755859375 Z" class="st8" style="fill: rgb(226, 226, 226);"/>
				<path d="M 1032.5999755859375 180.39999389648438 L 1005.9000244140625 180.39999389648438 L 826.5 780.7000122070312 L 950.0999755859375 780.7000122070312 L 1032.5999755859375 269.79998779296875 Z" class="st8" style="fill: rgb(226, 226, 226);"/>
			</g>
		</g>
		<path d="M 0.6 80.699997 H 1400.6 V 215.800003 H 0.6 V 80.699997 Z" class="st9" style="opacity: 0.5; clip-path: url('#SVGID_2_'); fill: rgb(206, 206, 206);"/>
		<path d="M 0.6 45.400002 H 1400.6 V 180.500008 H 0.6 V 45.400002 Z" class="st10" style="clip-path: url('#SVGID_2_'); fill: rgb(152, 154, 155);"/>
		<path d="M 0.6 45.400002 H 1400.6 V 148.300003 H 0.6 V 45.400002 Z" class="st11" style="clip-path: url('#SVGID_2_'); fill: rgb(165, 165, 165);"/>
		<g class="st1" style="clip-path: url('#SVGID_2_');">
			<path class="st12" d="M481.2,125.4v-24.1h-27.1v24.1h-12.2V68.1h12.2v22.5h27.1V68.1h12.3v57.3H481.2z" style="fill: rgb(129, 129, 130);"/>
			<path class="st12" d="M519.2,96.8c0-17.3,12.6-29.7,29.9-29.7c17.4,0,30,12.4,30,29.7c0,17.3-12.6,29.7-30,29.7&#10;&#9;&#9;&#9;&#9;C531.8,126.5,519.2,114.1,519.2,96.8z M566.6,96.8c0-10.7-6.9-18.8-17.4-18.8c-10.6,0-17.4,8.1-17.4,18.8&#10;&#9;&#9;&#9;&#9;c0,10.7,6.8,18.8,17.4,18.8C559.7,115.6,566.6,107.5,566.6,96.8z" style="fill: rgb(129, 129, 130);"/>
			<path class="st12" d="M601,117.4l6.6-9.3c4,4.2,10.3,7.7,18.2,7.7c6.7,0,10-3.1,10-6.4c0-10.1-33-3.2-33-24.8&#10;&#9;&#9;&#9;&#9;c0-9.5,8.3-17.4,21.7-17.4c9.1,0,16.7,2.8,22.3,8l-6.8,8.9c-4.6-4.3-10.8-6.3-16.7-6.3c-5.2,0-8.2,2.3-8.2,5.8&#10;&#9;&#9;&#9;&#9;c0,9.1,32.9,3,32.9,24.4c0,10.5-7.5,18.4-22.9,18.4C614.3,126.5,606.3,122.8,601,117.4z" style="fill: rgb(129, 129, 130);"/>
			<path class="st12" d="M673.6,125.4V68.1h26.8c12.5,0,19.3,8.4,19.3,18.5c0,10-6.9,18.5-19.3,18.5h-14.6v20.4H673.6z M707.2,86.6&#10;&#9;&#9;&#9;&#9;c0-4.8-3.6-7.7-8.4-7.7h-13v15.5h13C703.6,94.3,707.2,91.3,707.2,86.6z" style="fill: rgb(129, 129, 130);"/>
			<path class="st12" d="M744.5,125.4V68.1h12.2v57.3H744.5z" style="fill: rgb(129, 129, 130);"/>
			<path class="st12" d="M798.4,125.4V78.8h-16.8V68.1h45.7v10.7h-16.7v46.6H798.4z" style="fill: rgb(129, 129, 130);"/>
			<path class="st12" d="M886.4,125.4l-3.5-9.7h-24.6l-3.6,9.7h-13.9L863,68.1h15.3l22.1,57.3H886.4z M870.6,80.3l-8.9,24.7h17.9&#10;&#9;&#9;&#9;&#9;L870.6,80.3z" style="fill: rgb(129, 129, 130);"/>
			<path class="st12" d="M922.9,125.4V68.1h12.2v46.6h24.2v10.7H922.9z" style="fill: rgb(129, 129, 130);"/>
		</g>
		<path d="M 0.6 759.799988 H 1400.6 V 980.799988 H 0.6 V 759.799988 Z" class="st13" style="clip-path: url('#SVGID_2_'); fill: rgb(68, 68, 68);"/>
		<path class="st14" d="M1714.3,876.7c0,3.9-3.1,7-7,7H850.2c-3.9,0-7-3.1-7-7l0,0c0-3.9,3.1-7,7-7h857.1&#10;&#9;&#9;&#9;C1711.2,869.7,1714.3,872.8,1714.3,876.7L1714.3,876.7z" style="clip-path: url('#SVGID_2_'); fill: rgb(50, 49, 50);"/>
		<path d="M 0.6 759.799988 H 1400.6 V 780.699987 H 0.6 V 759.799988 Z" class="st14" style="clip-path: url('#SVGID_2_'); fill: rgb(50, 49, 50);"/>
		<path d="M -0.10000000149011612 0.800000011920929 L -0.10000000149011612 335.1000061035156 L 1400.5999755859375 511.5 L 1400.5999755859375 0.800000011920929 Z" class="st15" style="opacity: 0.2; clip-path: url('#SVGID_2_'); fill: rgb(140, 140, 140);"/>
		<g class="st1" style="clip-path: url('#SVGID_2_');">
			<path class="st16" d="M193.8,421.8c-10,4.9-22.2,0.7-27.1-9.3l0,0c-4.9-10.1-0.7-22.2,9.3-27.1l120.3-58&#10;&#9;&#9;&#9;&#9;c10.1-4.9,22.2-0.7,27.1,9.3l0,0c4.9,10.1,10.4,33,0.3,37.9L193.8,421.8z" style="fill: rgb(232, 146, 119);"/>
			<path class="st17" d="M255.7,406.2l80.3-37.4c9.9-4.6,14.2-16.4,9.6-26.3l-7.7-16.5c-4.6-9.9-16.4-14.2-26.3-9.6l-80.3,37.4&#10;&#9;&#9;&#9;&#9;L255.7,406.2z" style="fill: rgb(13, 132, 118);"/>
			<g>
				<path class="st18" d="M495.6,914.2c0,3.8-3.1,6.9-6.9,6.9H258.4c-3.8,0-6.9-3.1-6.9-6.9l0,0c0-3.8,3.1-6.9,6.9-6.9h230.3&#10;&#9;&#9;&#9;&#9;&#9;C492.5,907.2,495.6,910.3,495.6,914.2L495.6,914.2z" style="fill: rgb(50, 49, 50);"/>
				<g>
					<g>
						<g>
							<path class="st16" d="M313,903.1c4.8-4.4,14.7-7.1,22.6-7.7l-15.6-207.1h41.3v225.9h-53C308.3,914.2,308.6,907.1,313,903.1z" style="fill: rgb(232, 146, 119);"/>
							<path d="M 367.6000061035156 879.2999877929688 L 367.6000061035156 564 L 301.8999938964844 564 L 325.79998779296875 879.2999877929688 Z" class="st17" style="fill: rgb(13, 132, 118);"/>
							<path class="st16" d="M435.5,903.1c-4.8-4.4-14.7-7.1-22.6-7.7l15.6-207.1h-41.3v225.9h53C440.2,914.2,440,907.1,435.5,903.1&#10;&#9;&#9;&#9;&#9;&#9;&#9;&#9;&#9;z" style="fill: rgb(232, 146, 119);"/>
							<path d="M 380.8999938964844 879.2999877929688 L 380.8999938964844 564 L 446.6000061035156 564 L 422.79998779296875 879.2999877929688 Z" class="st17" style="fill: rgb(13, 132, 118);"/>
							<path d="M 340.899994 570.799988 H 414.799995 V 612.899986 H 340.899994 V 570.799988 Z" class="st17" style="fill: rgb(13, 132, 118);"/>
							<path class="st19" d="M413.5,888.8l-0.5,6.6c7.9,0.6,17.8,3.3,22.6,7.7c4.4,4.1,4.7,11.1,4.7,11.1h-53v-25.4H413.5z" style="fill: rgb(17, 150, 137);"/>
							<path class="st19" d="M335,888.8l0.5,6.6c-7.9,0.6-17.8,3.3-22.6,7.7c-4.4,4.1-4.7,11.1-4.7,11.1h53v-25.4H335z" style="fill: rgb(17, 150, 137);"/>
						</g>
						<g>
							<path d="M 355.700012 310.600006 H 392.900013 V 315.200006 H 355.700012 V 310.600006 Z" id="XMLID_272_" class="st20" style="fill: rgb(181, 36, 36);"/>
							<path d="M 392.5 318.8999938964844 L 356.1000061035156 318.8999938964844 L 358.20001220703125 247.1999969482422 L 390.3999938964844 247.1999969482422 Z" class="st16" style="fill: rgb(232, 146, 119);"/>
							<path class="st21" d="M356.7,295.5c5.6,2,11.4,2.9,17.5,2.9c6.1,0,12-0.8,17.6-2.8l-1.5-47.6h-32.2L356.7,295.5z" style="fill: rgb(211, 128, 106);"/>
							<g>
								<path d="M 357.5 228 A 37.5 37.5 0 0 1 320 265.5 A 37.5 37.5 0 0 1 282.5 228 A 37.5 37.5 0 0 1 320 190.5 A 37.5 37.5 0 0 1 357.5 228 Z" class="st22" style="fill: rgb(40, 40, 40);"/>
								
									<path d="M 323.900012 223.399994 A 13.2 20.1 0 0 1 310.700012 243.499994 A 13.2 20.1 0 0 1 297.500012 223.399994 A 13.2 20.1 0 0 1 310.700012 203.299994 A 13.2 20.1 0 0 1 323.900012 223.399994 Z" transform="matrix(0.8551 -0.5185 0.5185 0.8551 -70.8188 193.4666)" class="st16" style="fill: rgb(232, 146, 119);"/>
								
									<path d="M 450.999988 223.399994 A 13.2 20.1 0 0 1 437.799988 243.499994 A 13.2 20.1 0 0 1 424.599988 223.399994 A 13.2 20.1 0 0 1 437.799988 203.299994 A 13.2 20.1 0 0 1 450.999988 223.399994 Z" transform="matrix(-0.8551 -0.5185 0.5185 -0.8551 696.26 641.439)" class="st16" style="fill: rgb(232, 146, 119);"/>
							</g>
							<path class="st23" d="M439.4,199.5c0,49-29.2,86.2-65.1,86.2c-36.6,0-65.1-38.3-65.1-86.2c0-49,29.2-71.5,65.1-71.5&#10;&#9;&#9;&#9;&#9;&#9;&#9;&#9;&#9;C410.2,128,439.4,150.6,439.4,199.5z" style="fill: rgb(249, 167, 138);"/>
							<path class="st16" d="M383,265.4c-0.7-3.2-4.4-4.3-8.8-4.3c-4.4,0-8.1,1.1-8.8,4.3H383z" style="fill: rgb(232, 146, 119);"/>
							<path class="st22" d="M374.3,116.1c9.2,0-9.5,15.9-21.3,21.5c0,24.8-0.9,16.8-16.1,26.1c-15.4,9.5-27.6,24.5-27.6,41.9&#10;&#9;&#9;&#9;&#9;&#9;&#9;&#9;&#9;c-3-0.7-6.1-0.9-9,0.6c0-17.7,9-43.9,17.5-55.3C332.6,130.8,351,116.1,374.3,116.1z" style="fill: rgb(40, 40, 40);"/>
							<path class="st22" d="M372.1,121.2c-9.2,0-31.4,9.9-43.6,21.5c0,24.8,10.3,31.7,25.5,41c15.4,9.5,66,35.2,82.5,35.2&#10;&#9;&#9;&#9;&#9;&#9;&#9;&#9;&#9;c3.1,0,6.3-3,9.7-7.6c0-17.7-9-43.9-17.5-55.3C413.8,135.9,395.4,121.2,372.1,121.2z" style="fill: rgb(40, 40, 40);"/>
							<path class="st16" d="M551.2,438.6c8.2,7.7,8.6,20.5,0.9,28.6l0,0c-7.7,8.2-20.5,8.6-28.6,0.9l-96.9-91.9&#10;&#9;&#9;&#9;&#9;&#9;&#9;&#9;&#9;c-8.2-7.7-8.6-20.5-0.9-28.6l0,0c7.7-8.2,27.2-21.4,35.3-13.7L551.2,438.6z" style="fill: rgb(232, 146, 119);"/>
							<path class="st17" d="M514.7,386.3l-63.4-61.8c-7.8-7.6-20.3-7.5-28,0.4l-12.7,13c-7.6,7.8-7.5,20.3,0.4,28l63.4,61.8&#10;&#9;&#9;&#9;&#9;&#9;&#9;&#9;&#9;L514.7,386.3z" style="fill: rgb(13, 132, 118);"/>
							<path class="st19" d="M452.9,360.2c-4.1-20.3-5-45.1-22.5-45.1h-41.3h-3.6h-67.3c-17.6,0-18.4,24.8-22.5,45.1&#10;&#9;&#9;&#9;&#9;&#9;&#9;&#9;&#9;c-3.9,19.6-11.4,18.5-11.4,37.1c0,12,3.2,18.7,11.4,25.1v148.4h89.8h3.6h63.9V422.4c8.2-6.4,11.4-13.1,11.4-25.1&#10;&#9;&#9;&#9;&#9;&#9;&#9;&#9;&#9;C464.3,378.7,456.9,379.9,452.9,360.2z" style="fill: rgb(17, 150, 137);"/>
							<path class="st16" d="M374.3,306.2c-6,0-14.2,9-18,9c-3.8,0-3.2,0-3.2,0c7.5,19,14,32.7,21.2,48.8&#10;&#9;&#9;&#9;&#9;&#9;&#9;&#9;&#9;c7.3-16.1,13.7-29.9,21.2-48.8c0,0,0.8,0-3.3,0C388.5,315.1,380.1,306.2,374.3,306.2z" style="fill: rgb(232, 146, 119);"/>
						</g>
					</g>
					<path class="st24" d="M310.1,422.3c2.8,4.5,7.7,7.5,13.3,7.5h101.7c5.6,0,10.5-3,13.3-7.5H310.1z" style="opacity: 0.2; fill: rgb(64, 64, 65);"/>
					<path class="st2" d="M410.2,194c-14.8,0-30.9-12-37.4-21.5c-0.5-0.7-0.3-1.6,0.3-2.1l0,0c0.6-0.5,1.5-0.3,2,0.4&#10;&#9;&#9;&#9;&#9;&#9;&#9;C381.6,179.9,401.3,191.8,410.2,194z" style="fill: rgb(68, 68, 68);"/>
				</g>
				<path class="st19" d="M437.8,117.6c-19-25.8-58.8-26-64.6-25.9c-5.8-0.1-45.6,0.1-64.6,25.9c5.2,22.7,15.4,38.6,15.4,38.6&#10;&#9;&#9;&#9;&#9;&#9;s30.6-10.7,49.2-11c18.6,0.3,49.2,11,49.2,11S432.6,140.3,437.8,117.6z" style="fill: rgb(17, 150, 137);"/>
				<path class="st17" d="M395.2,148.4c14.2,3.2,27.2,7.8,27.2,7.8s10.2-15.9,15.4-38.6c-19-25.8-58.8-26-64.6-25.9&#10;&#9;&#9;&#9;&#9;&#9;c-2.5,0-11.2,0-21.9,2L395.2,148.4z" style="fill: rgb(13, 132, 118);"/>
				<g>
					<path class="st16" d="M380.3,228.4c0,3.4-2.7,6.1-6.1,6.1l0,0c-3.4,0-6.1-2.7-6.1-6.1v-16.1c0-3.4,2.7-6.1,6.1-6.1l0,0&#10;&#9;&#9;&#9;&#9;&#9;&#9;c3.4,0,6.1,2.7,6.1,6.1V228.4z" style="fill: rgb(232, 146, 119);"/>
					<path class="st25" d="M383,230.6c0-2.2-1.8-4-4-4h-9.7c-2.2,0-4,1.8-4,4l0,0c0,2.2,1.8,4,4,4h9.7&#10;&#9;&#9;&#9;&#9;&#9;&#9;C381.3,234.5,383,232.7,383,230.6L383,230.6z" style="fill: rgb(255, 185, 164);"/>
				</g>
				<g>
					<path class="st26" d="M352.9,239.3c0.4,9.6,9.8,17.2,21.3,17.2c11.5,0,20.9-7.6,21.3-17.2H352.9z" style="fill: rgb(226, 55, 55);"/>
					<path class="st27" d="M362.2,247.9c0,2.4,0.7,4.6,1.9,6.5c3,1.4,6.5,2.1,10.2,2.1c3.7,0,7.1-0.8,10.2-2.1&#10;&#9;&#9;&#9;&#9;&#9;&#9;c1.2-1.9,1.9-4.1,1.9-6.5c0-3.4-1.4-6.4-3.6-8.6h-16.8C363.6,241.5,362.2,244.5,362.2,247.9z" style="fill: rgb(204, 43, 43);"/>
					<path class="st28" d="M387.9,244c2.4,0,4.4-2,4.4-4.4c0-0.1,0-0.2,0-0.3h-36c0,0.1,0,0.2,0,0.3c0,2.4,2,4.4,4.4,4.4H387.9z" style="fill: rgb(255, 255, 255);"/>
					<path class="st29" d="M388.2,252.1c-3.2-3.1-8.2-5.1-14-5.1c-5.7,0-10.8,2-14,5.1c3.7,2.7,8.6,4.4,14,4.4&#10;&#9;&#9;&#9;&#9;&#9;&#9;C379.6,256.5,384.5,254.8,388.2,252.1z" style="fill: rgb(239, 89, 89);"/>
				</g>
				<g>
					<path class="st22" d="M360.9,215c-0.5,0.8-1.6,1-2.5,0.5c-6.8-3.6-15-3.6-21.8,0c-0.9,0.5-2,0.3-2.5-0.5l0,0&#10;&#9;&#9;&#9;&#9;&#9;&#9;c-0.5-0.8-0.1-2,0.9-2.5c7.8-4.1,17.2-4.1,25,0C361,213,361.4,214.2,360.9,215L360.9,215z" style="fill: rgb(40, 40, 40);"/>
					<path class="st22" d="M414.4,215c-0.5,0.8-1.6,1-2.5,0.5c-6.8-3.6-15-3.6-21.8,0c-0.9,0.5-2,0.3-2.5-0.5l0,0&#10;&#9;&#9;&#9;&#9;&#9;&#9;c-0.5-0.8-0.1-2,0.9-2.5c7.8-4.1,17.2-4.1,25,0C414.6,213,415,214.2,414.4,215L414.4,215z" style="fill: rgb(40, 40, 40);"/>
				</g>
			</g>
			<path d="M 385.29998779296875 115.30000305175781 L 378.79998779296875 115.30000305175781 L 378.79998779296875 108.80000305175781 L 367.5 108.80000305175781 L 367.5 115.30000305175781 L 361.1000061035156 115.30000305175781 L 361.1000061035156 126.5999984741211 L 367.5 126.5999984741211 L 367.5 133.10000610351562 L 378.79998779296875 133.10000610351562 L 378.79998779296875 126.5999984741211 L 385.29998779296875 126.5999984741211 Z" class="st30" style="fill: rgb(34, 170, 153);"/>
			<g id="XMLID_273_">
				<g id="XMLID_193_">
					<path id="XMLID_266_" class="st31" d="M361.1,471.8v-33c0-2.4,2-4.4,4.4-4.4H383c2.4,0,4.4,2,4.4,4.4v33c0,2.4-2,4.4-4.4,4.4&#10;&#9;&#9;&#9;&#9;&#9;&#9;h-17.5C363.1,476.2,361.1,474.2,361.1,471.8z" style="fill: rgb(199, 200, 202);"/>
					<path id="XMLID_274_" class="st31" d="M381.1,432.9h-13.6c-2.2,0-5.4,2.2-6.2,4.4l3.7-2.8c0,0.9,0.7,1.6,1.6,1.6h-0.9h1h15.2&#10;&#9;&#9;&#9;&#9;&#9;&#9;c0.9,0,1.6-0.8,1.6-1.7l3.7,2.8C386.4,435.1,383.3,432.9,381.1,432.9z" style="fill: rgb(199, 200, 202);"/>
					<g id="XMLID_263_">
						<path d="M 367.9 436.700012 A 0.9 0.9 0 0 1 367 437.600012 A 0.9 0.9 0 0 1 366.1 436.700012 A 0.9 0.9 0 0 1 367 435.800012 A 0.9 0.9 0 0 1 367.9 436.700012 Z" id="XMLID_265_" class="st32" style="fill: rgb(220, 221, 222);"/>
						<path d="M 382.4 436.700012 A 0.9 0.9 0 0 1 381.5 437.600012 A 0.9 0.9 0 0 1 380.6 436.700012 A 0.9 0.9 0 0 1 381.5 435.800012 A 0.9 0.9 0 0 1 382.4 436.700012 Z" id="XMLID_264_" class="st32" style="fill: rgb(220, 221, 222);"/>
					</g>
					<path id="XMLID_262_" class="st28" d="M362.8,473.1v-32.6c0-0.8,0.7-1.5,1.5-1.5h20c0.8,0,1.5,0.7,1.5,1.5v32.6&#10;&#9;&#9;&#9;&#9;&#9;&#9;c0,0.8-0.7,1.5-1.5,1.5h-20C363.5,474.5,362.8,473.9,362.8,473.1z" style="fill: rgb(255, 255, 255);"/>
					<path id="XMLID_261_" class="st32" d="M377.1,437.4h-5.6c-0.4,0-0.7-0.3-0.7-0.7l0,0c0-0.4,0.3-0.7,0.7-0.7h5.6&#10;&#9;&#9;&#9;&#9;&#9;&#9;c0.4,0,0.7,0.3,0.7,0.7l0,0C377.9,437.1,377.5,437.4,377.1,437.4z" style="fill: rgb(220, 221, 222);"/>
					<g id="XMLID_206_">
						<path d="M 369.299988 443 H 379.399988 V 453.1 H 369.299988 V 443 Z" id="XMLID_260_" class="st33" style="fill: rgb(27, 74, 109);"/>
						<g id="XMLID_251_">
							<defs>
								<path d="M 369.299988 443 H 379.399988 V 453.1 H 369.299988 V 443 Z" id="XMLID_252_"/>
							</defs>
							<clipPath id="XMLID_2_">
								<use style="overflow:visible;" xlink:href="#XMLID_252_"/>
							</clipPath>
						</g>
					</g>
					<path d="M 365.200012 460 H 383.500011 V 462.5 H 365.200012 V 460 Z" id="XMLID_205_" class="st32" style="fill: rgb(220, 221, 222);"/>
					<path d="M 365.200012 463.799988 H 383.500011 V 466.299988 H 365.200012 V 463.799988 Z" id="XMLID_196_" class="st32" style="fill: rgb(220, 221, 222);"/>
					<path d="M 369.299988 455.899994 H 379.399988 V 456.499994 H 369.299988 V 455.899994 Z" id="XMLID_195_" class="st32" style="fill: rgb(220, 221, 222);"/>
					<path d="M 372.100006 454.5 H 376.500006 V 455.1 H 372.100006 V 454.5 Z" id="XMLID_194_" class="st32" style="fill: rgb(220, 221, 222);"/>
				</g>
				<g id="XMLID_191_">
					<g id="XMLID_270_">
						<path d="M 392.8999938964844 310.6000061035156 L 371.8999938964844 427 L 376.6000061035156 427 L 396.70001220703125 314 Z" id="XMLID_271_" class="st27" style="fill: rgb(204, 43, 43);"/>
					</g>
					<path d="M 355.70001220703125 310.6000061035156 L 376.6000061035156 427 L 371.8999938964844 427 L 351.79998779296875 314 Z" id="XMLID_269_" class="st26" style="fill: rgb(226, 55, 55);"/>
					<path d="M 371.899994 426.899994 H 376.599994 V 436.099994 H 371.899994 V 426.899994 Z" id="XMLID_268_" class="st29" style="fill: rgb(239, 89, 89);"/>
					<path d="M 371.399994 430.899994 H 377.099994 V 432.299994 H 371.399994 V 430.899994 Z" id="XMLID_267_" class="st26" style="fill: rgb(226, 55, 55);"/>
				</g>
			</g>
			<g>
				<path class="st23" d="M255.3,263.9c2.9-0.7,5.7,1,6.5,3.9l0,0c0.7,2.9-1,5.7-3.9,6.5l-13.5,3.4c-2.9,0.7-5.7-1-6.5-3.9l0,0&#10;&#9;&#9;&#9;&#9;&#9;c-0.7-2.9,1-5.7,3.9-6.5L255.3,263.9z" style="fill: rgb(249, 167, 138);"/>
				<path class="st23" d="M225.4,247c-0.6,2.9-3.3,4.8-6.2,4.2l0,0c-2.9-0.6-4.8-3.3-4.2-6.2l4.9-24.8c0.6-2.9,3.3-4.8,6.2-4.2l0,0&#10;&#9;&#9;&#9;&#9;&#9;c2.9,0.6,4.8,3.3,4.2,6.2L225.4,247z" style="fill: rgb(249, 167, 138);"/>
				<path class="st23" d="M238.9,243.9c-0.7,2.9-3.6,4.6-6.5,3.9l0,0c-2.8-0.7-4.6-3.6-3.9-6.5l6.3-24.4c0.7-2.8,3.6-4.6,6.5-3.9&#10;&#9;&#9;&#9;&#9;&#9;l0,0c2.8,0.7,4.6,3.6,3.9,6.5L238.9,243.9z" style="fill: rgb(249, 167, 138);"/>
				<path class="st23" d="M250.7,222.9c1.5-2.6,4.7-3.4,7.3-2l0,0c2.5,1.5,3.4,4.7,2,7.3L247.2,250c-1.5,2.6-4.7,3.4-7.3,2l0,0&#10;&#9;&#9;&#9;&#9;&#9;c-2.5-1.5-3.4-4.7-2-7.3L250.7,222.9" style="fill: rgb(249, 167, 138);"/>
				<path class="st23" d="M248.7,263.4c-2.1,2-5.5,1.9-7.5-0.2l0,0c-2-2.1-1.9-5.5,0.2-7.5l18.5-17.2c2.1-2,5.5-1.9,7.5,0.2l0,0&#10;&#9;&#9;&#9;&#9;&#9;c2,2.1,1.9,5.5-0.2,7.5L248.7,263.4z" style="fill: rgb(249, 167, 138);"/>
				<path class="st23" d="M212.7,247.5c3.4-10.7,14.8-16.5,25.5-13.1l0,0c10.7,3.4,16.5,14.8,13.1,25.5l-47.9,149.9&#10;&#9;&#9;&#9;&#9;&#9;c-3.4,10.7-14.8,16.5-25.5,13.1l0,0c-10.7-3.4-16.5-14.8-13.1-25.5L212.7,247.5z" style="fill: rgb(249, 167, 138);"/>
			</g>
			<g>
				<g>
					<path class="st2" d="M452.9,505c-0.9,4.4-5.3,7.2-9.7,6.3l-88.6-18.8c-4.4-0.9-7.2-5.3-6.3-9.7l26.4-124.5&#10;&#9;&#9;&#9;&#9;&#9;&#9;c0.9-4.4,5.3-7.2,9.7-6.3l88.6,18.8c4.4,0.9,7.2,5.3,6.3,9.7L452.9,505z" style="fill: rgb(68, 68, 68);"/>
					<g>
						<path class="st34" d="M472.9,370.8l-88.6-18.8c-4.4-0.9-8.8,1.9-9.7,6.3l-0.9,4.1c0.9-4.4,5.3-7.2,9.7-6.3l88.6,18.8&#10;&#9;&#9;&#9;&#9;&#9;&#9;&#9;c4.4,0.9,7.2,5.3,6.3,9.7l0.9-4.1C480.2,376.1,477.3,371.7,472.9,370.8z" style="fill: rgb(86, 86, 86);"/>
					</g>
					<g>
						<path class="st22" d="M462.1,378.4l2.9-13.8c0.5-2.4-1-4.9-3.5-5.4l-22.1-4.7c0.1-0.3,0.2-0.6,0.3-0.9c1.1-5-2.1-9.9-7.1-10.9&#10;&#9;&#9;&#9;&#9;&#9;&#9;&#9;c-5-1.1-9.9,2.1-10.9,7.1c-0.1,0.3-0.1,0.6-0.2,1l-22.1-4.7c-2.4-0.5-4.9,1-5.4,3.5l-2.9,13.8L462.1,378.4z M431.6,347.3&#10;&#9;&#9;&#9;&#9;&#9;&#9;&#9;c2.4,0.5,4,2.9,3.4,5.3c-0.1,0.3-0.2,0.6-0.3,0.9c-0.1,0.3-0.3,0.6-0.6,0.9c0,0,0,0,0,0.1c-0.1,0.1-0.1,0.1-0.2,0.2&#10;&#9;&#9;&#9;&#9;&#9;&#9;&#9;c0,0-0.1,0.1-0.1,0.1c-0.1,0.1-0.1,0.1-0.2,0.2c0,0-0.1,0.1-0.1,0.1c-0.1,0.1-0.1,0.1-0.2,0.2c0,0-0.1,0.1-0.1,0.1&#10;&#9;&#9;&#9;&#9;&#9;&#9;&#9;c-0.1,0-0.1,0.1-0.2,0.1c0,0-0.1,0.1-0.1,0.1c-0.1,0-0.1,0.1-0.2,0.1c-0.1,0-0.2,0.1-0.3,0.1c-0.1,0-0.2,0.1-0.2,0.1&#10;&#9;&#9;&#9;&#9;&#9;&#9;&#9;c-0.1,0-0.1,0.1-0.2,0.1c-0.1,0-0.1,0-0.2,0c-0.1,0-0.1,0-0.2,0.1c-0.1,0-0.1,0-0.2,0c-0.1,0-0.2,0-0.2,0c-0.1,0-0.1,0-0.2,0&#10;&#9;&#9;&#9;&#9;&#9;&#9;&#9;c-0.1,0-0.2,0-0.2,0c-0.1,0-0.1,0-0.2,0c-0.1,0-0.2,0-0.3,0c0,0-0.1,0-0.1,0c-0.1,0-0.3,0-0.4-0.1c-0.1,0-0.3-0.1-0.4-0.1&#10;&#9;&#9;&#9;&#9;&#9;&#9;&#9;c0,0-0.1,0-0.1,0c-0.1,0-0.2-0.1-0.3-0.1c-0.1,0-0.1,0-0.2-0.1c-0.1,0-0.2-0.1-0.2-0.1c-0.1,0-0.1-0.1-0.2-0.1&#10;&#9;&#9;&#9;&#9;&#9;&#9;&#9;c-0.1,0-0.1-0.1-0.2-0.1c0,0-0.1-0.1-0.1-0.1c-0.1,0-0.1-0.1-0.2-0.1c0,0-0.1-0.1-0.1-0.1c-0.1-0.1-0.1-0.1-0.2-0.2&#10;&#9;&#9;&#9;&#9;&#9;&#9;&#9;c-0.1-0.1-0.1-0.1-0.2-0.2c-0.1-0.1-0.1-0.2-0.2-0.2c0-0.1-0.1-0.1-0.1-0.2c0,0-0.1-0.1-0.1-0.1c0-0.1-0.1-0.1-0.1-0.2&#10;&#9;&#9;&#9;&#9;&#9;&#9;&#9;c0,0-0.1-0.1-0.1-0.1c0-0.1-0.1-0.1-0.1-0.2c0,0,0-0.1-0.1-0.1c0-0.1-0.1-0.2-0.1-0.2c0,0,0-0.1,0-0.1c0-0.1-0.1-0.2-0.1-0.3&#10;&#9;&#9;&#9;&#9;&#9;&#9;&#9;c0,0,0,0,0-0.1c-0.1-0.3-0.1-0.7-0.1-1c0-0.3,0-0.7,0.1-1C426.9,348.3,429.2,346.8,431.6,347.3z" style="fill: rgb(40, 40, 40);"/>
						<g>
							<path class="st22" d="M461.5,359.2l-22.1-4.7c0.1-0.3,0.2-0.6,0.3-0.9c1.1-5-2.1-9.9-7.1-10.9c-5-1.1-9.9,2.1-10.9,7.1&#10;&#9;&#9;&#9;&#9;&#9;&#9;&#9;&#9;c-0.1,0.3-0.1,0.6-0.2,1l-22.1-4.7c-2.4-0.5-4.9,1-5.4,3.5l-0.4,1.9c0.5-2.4,2.9-4,5.4-3.5l22.1,4.7c0-0.3,0.1-0.6,0.2-1&#10;&#9;&#9;&#9;&#9;&#9;&#9;&#9;&#9;c1.1-5,5.9-8.2,10.9-7.1c5,1.1,8.2,5.9,7.1,10.9c-0.1,0.3-0.2,0.6-0.3,0.9l22.1,4.7c2.4,0.5,4,2.9,3.5,5.4l0.4-1.9&#10;&#9;&#9;&#9;&#9;&#9;&#9;&#9;&#9;C465.6,362.1,464,359.7,461.5,359.2z" style="fill: rgb(40, 40, 40);"/>
							<path class="st6" d="M431.2,349.2c2.1,0.4,3.5,2.3,3.5,4.3c0.1-0.3,0.2-0.6,0.3-0.9c0.5-2.4-1-4.8-3.4-5.3&#10;&#9;&#9;&#9;&#9;&#9;&#9;&#9;&#9;c-2.4-0.5-4.8,1-5.3,3.4c-0.1,0.3-0.1,0.7-0.1,1C427.1,349.8,429.1,348.7,431.2,349.2z" style="fill: rgb(44, 42, 43);"/>
							
								<path d="M 390.399994 368.600006 H 462.899994 V 372.800006 H 390.399994 V 368.600006 Z" transform="matrix(-0.9783 -0.2072 0.2072 -0.9783 767.2587 821.8066)" class="st6" style="fill: rgb(44, 42, 43);"/>
						</g>
					</g>
				</g>
			</g>
			<g>
				<path class="st23" d="M389.9,404.1c-1.1-2.7,0.2-5.8,2.9-6.9l0,0c2.7-1.1,5.8,0.2,6.9,2.9l5.2,12.9c1.1,2.7-0.2,5.8-2.9,6.9l0,0&#10;&#9;&#9;&#9;&#9;&#9;c-2.7,1.1-5.8-0.2-6.9-2.9L389.9,404.1z" style="fill: rgb(249, 167, 138);"/>
				<path class="st23" d="M377.3,436c2.9,0.2,5.2,2.7,5,5.6l0,0c-0.1,2.9-2.6,5.2-5.6,5l-25.2-1.4c-2.9-0.1-5.2-2.6-5-5.6l0,0&#10;&#9;&#9;&#9;&#9;&#9;c0.1-2.9,2.6-5.2,5.6-5L377.3,436z" style="fill: rgb(249, 167, 138);"/>
				<path class="st23" d="M372.3,423.2c2.9,0.3,5,2.9,4.7,5.9l0,0c-0.3,2.9-2.9,5-5.9,4.7l-25.1-2.8c-2.9-0.3-5-2.9-4.7-5.9l0,0&#10;&#9;&#9;&#9;&#9;&#9;c0.3-2.9,2.9-5,5.9-4.7L372.3,423.2z" style="fill: rgb(249, 167, 138);"/>
				<path class="st23" d="M349.9,414.4c-2.7-1.1-4.1-4.2-3-6.9l0,0c1.1-2.7,4.2-4.1,6.9-3l23.4,9.5c2.7,1.1,4.1,4.2,3,6.9l0,0&#10;&#9;&#9;&#9;&#9;&#9;c-1.1,2.7-4.2,4.1-6.9,3L349.9,414.4" style="fill: rgb(249, 167, 138);"/>
				<path class="st23" d="M390.2,410.7c2.3,1.8,2.7,5.2,0.8,7.5l0,0c-1.8,2.3-5.2,2.7-7.5,0.8L364,403.1c-2.3-1.8-2.7-5.2-0.8-7.5&#10;&#9;&#9;&#9;&#9;&#9;l0,0c1.8-2.3,5.2-2.7,7.5-0.8L390.2,410.7z" style="fill: rgb(249, 167, 138);"/>
				<path class="st23" d="M379.5,448.5c-11-1.9-18.4-12.4-16.5-23.4l0,0c1.9-11,12.4-18.4,23.4-16.5l155.1,26.6&#10;&#9;&#9;&#9;&#9;&#9;c11,1.9,18.4,12.4,16.5,23.4l0,0c-1.9,11-12.4,18.4-23.4,16.5L379.5,448.5z" style="fill: rgb(249, 167, 138);"/>
			</g>
		</g>
		<g class="st1" style="clip-path: url('#SVGID_2_');">
			<g>
				<path d="M 1845 763.7999877929688 L 1623 763.7999877929688 L 1641.300048828125 794 L 1845 794 Z" class="st35" style="fill: rgb(12, 12, 12);"/>
				<path d="M 1271.800048828125 794 L 990.7999877929688 794 L 972.5 763.7999877929688 L 1293 763.7999877929688 Z" class="st35" style="fill: rgb(12, 12, 12);"/>
				<path d="M 1945.9000244140625 778.5 L 842.2000122070312 778.5 L 842.2000122070312 584.7000122070312 L 1664.699951171875 564.5999755859375 L 2083.800048828125 665.0999755859375 Z" class="st35" style="fill: rgb(12, 12, 12);"/>
				<path class="st3" d="M2117.6,637c0,8.9-7.2,16.1-16.1,16.1h-24.6c-8.9,0-16.1-7.2-16.1-16.1v-48.2c0-8.9,7.2-16.1,16.1-16.1&#10;&#9;&#9;&#9;&#9;&#9;h24.6c8.9,0,16.1,7.2,16.1,16.1V637z" style="fill: rgb(244, 167, 33);"/>
				<path class="st3" d="M870.6,637c0,8.9-7.2,16.1-16.1,16.1h-24.6c-8.9,0-16.1-7.2-16.1-16.1v-48.2c0-8.9,7.2-16.1,16.1-16.1h24.6&#10;&#9;&#9;&#9;&#9;&#9;c8.9,0,16.1,7.2,16.1,16.1V637z" style="fill: rgb(244, 167, 33);"/>
				<path class="st36" d="M2103.5,731.9V540.5c0,0-0.9-25.5-13.9-37.5c-13-12.1-159-64.1-159-64.1L1894.7,203v-25.9&#10;&#9;&#9;&#9;&#9;&#9;c0-28.7-23.2-51.9-51.9-51.9H878.4c-28.7,0-51.9,23.2-51.9,51.9V203v76.7V765l176.8,0.3c6-66.2,61.7-118.1,129.5-118.1&#10;&#9;&#9;&#9;&#9;&#9;c67.9,0,123.7,52.1,129.5,118.5l491.6,0.9c5.4-67.5,61.9-120.7,130.8-120.7c56.6,0,104.8,35.8,123.2,86H2103.5z" style="fill: rgb(255, 254, 255);"/>
				<path class="st26" d="M2088.9,572.7c0,5.6-4.6,10.1-10.3,10.1H850.1c-5.7,0-10.3-4.5-10.3-10.1l0,0c0-5.6,4.6-10.1,10.3-10.1&#10;&#9;&#9;&#9;&#9;&#9;h1228.5C2084.3,562.6,2088.9,567.1,2088.9,572.7L2088.9,572.7z" style="fill: rgb(226, 55, 55);"/>
				<path class="st18" d="M1898.9,416.9c0,12.1-9.8,22-22,22h-44.5c-12.1,0-22-9.8-22-22V287.3c0-12.1,9.8-22,22-22h22.2&#10;&#9;&#9;&#9;&#9;&#9;c12.1,0,22,9.8,22,22L1898.9,416.9z" style="fill: rgb(50, 49, 50);"/>
				<path class="st37" d="M1231.9,777.2c0,54.8-44.4,99.2-99.2,99.2c-54.8,0-99.2-44.4-99.2-99.2c0-54.8,44.4-99.2,99.2-99.2&#10;&#9;&#9;&#9;&#9;&#9;C1187.5,678,1231.9,722.4,1231.9,777.2z" style="fill: rgb(30, 30, 30);"/>
				<path class="st18" d="M1192.7,777.2c0,33.1-26.9,60-60,60c-33.1,0-60-26.9-60-60c0-33.1,26.9-60,60-60&#10;&#9;&#9;&#9;&#9;&#9;C1165.9,717.2,1192.7,744.1,1192.7,777.2z" style="fill: rgb(50, 49, 50);"/>
				<path class="st37" d="M1983.9,777.2c0,54.8-44.4,99.2-99.2,99.2c-54.8,0-99.2-44.4-99.2-99.2c0-54.8,44.4-99.2,99.2-99.2&#10;&#9;&#9;&#9;&#9;&#9;C1939.5,678,1983.9,722.4,1983.9,777.2z" style="fill: rgb(30, 30, 30);"/>
				<path class="st18" d="M1945.9,777.2c0,33.8-27.4,61.2-61.2,61.2c-33.8,0-61.2-27.4-61.2-61.2c0-33.8,27.4-61.2,61.2-61.2&#10;&#9;&#9;&#9;&#9;&#9;C1918.5,716,1945.9,743.4,1945.9,777.2z" style="fill: rgb(50, 49, 50);"/>
				<path class="st3" d="M1987.1,624c0,3.7-3,6.8-6.8,6.8h-15.8c-3.7,0-6.8-3-6.8-6.8v-5.3c0-3.7,3-6.8,6.8-6.8h15.8&#10;&#9;&#9;&#9;&#9;&#9;c3.7,0,6.8,3,6.8,6.8V624z" style="fill: rgb(244, 167, 33);"/>
				<path class="st3" d="M885.3,624c0,3.7-3,6.8-6.8,6.8h-15.8c-3.7,0-6.8-3-6.8-6.8v-5.3c0-3.7,3-6.8,6.8-6.8h15.8&#10;&#9;&#9;&#9;&#9;&#9;c3.7,0,6.8,3,6.8,6.8V624z" style="fill: rgb(244, 167, 33);"/>
				<g>
					<path class="st38" d="M988.5,751.7c12.1-68.7,72.1-121,144.3-121c77.2,0,140.4,59.6,146.1,135.3" style="fill: none; stroke: rgb(187, 189, 191); stroke-width: 10.3324; stroke-linecap: round; stroke-linejoin: round; stroke-miterlimit: 10;"/>
					<path class="st38" d="M1738.7,766.1c5.7-75.7,68.9-135.3,146-135.3c60.4,0,112.2,36.5,134.6,88.7" style="fill: none; stroke: rgb(187, 189, 191); stroke-width: 10.3324; stroke-linecap: round; stroke-linejoin: round; stroke-miterlimit: 10;"/>
					<path d="M 1584.900024 766.099976 L 1584.900024 228.399994 L 1790.099976 228.399994 L 1790.099976 665.400024" class="st38" style="fill: none; stroke: rgb(187, 189, 191); stroke-width: 10.3324; stroke-linecap: round; stroke-linejoin: round; stroke-miterlimit: 10;"/>
					<path d="M 1790.099976 540.5 L 2103.5 540.5" class="st38" style="fill: none; stroke: rgb(187, 189, 191); stroke-width: 10.3324; stroke-linecap: round; stroke-linejoin: round; stroke-miterlimit: 10;"/>
					<path d="M 1610.900024 700.5 H 1664.800026 V 716.5 H 1610.900024 V 700.5 Z" class="st38" style="fill: none; stroke: rgb(187, 189, 191); stroke-width: 10.3324; stroke-linecap: round; stroke-linejoin: round; stroke-miterlimit: 10;"/>
					<path d="M 1610.900024 730.400024 H 1664.800026 V 746.400024 H 1610.900024 V 730.400024 Z" class="st38" style="fill: none; stroke: rgb(187, 189, 191); stroke-width: 10.3324; stroke-linecap: round; stroke-linejoin: round; stroke-miterlimit: 10;"/>
				</g>
				<path d="M 1747.5 456.399994 H 1762.3 V 513.399994 H 1747.5 V 456.399994 Z" class="st38" style="fill: none; stroke: rgb(187, 189, 191); stroke-width: 10.3324; stroke-linecap: round; stroke-linejoin: round; stroke-miterlimit: 10;"/>
				<path class="st18" d="M2140.8,717.6c0,14.4-13.3,26.2-29.7,26.2h-54.7c-16.4,0-29.7-11.7-29.7-26.2v-38.3&#10;&#9;&#9;&#9;&#9;&#9;c0-14.4,13.3-26.2,29.7-26.2h54.7c16.4,0,29.7,11.7,29.7,26.2V717.6z" style="fill: rgb(50, 49, 50);"/>
				<g>
					<path class="st38" d="M2054.8,678.7c0,3.1-2.5,5.5-5.5,5.5c-3.1,0-5.5-2.5-5.5-5.5c0-3.1,2.5-5.5,5.5-5.5&#10;&#9;&#9;&#9;&#9;&#9;&#9;C2052.3,673.2,2054.8,675.7,2054.8,678.7z" style="fill: none; stroke: rgb(187, 189, 191); stroke-width: 10.3324; stroke-linecap: round; stroke-linejoin: round; stroke-miterlimit: 10;"/>
					<path class="st38" d="M2054.8,718.1c0,3.1-2.5,5.5-5.5,5.5c-3.1,0-5.5-2.5-5.5-5.5c0-3.1,2.5-5.5,5.5-5.5&#10;&#9;&#9;&#9;&#9;&#9;&#9;C2052.3,712.5,2054.8,715,2054.8,718.1z" style="fill: none; stroke: rgb(187, 189, 191); stroke-width: 10.3324; stroke-linecap: round; stroke-linejoin: round; stroke-miterlimit: 10;"/>
				</g>
				<path d="M 1776.599976 228.399994 L 1894.699951 228.399994" class="st38" style="fill: none; stroke: rgb(187, 189, 191); stroke-width: 10.3324; stroke-linecap: round; stroke-linejoin: round; stroke-miterlimit: 10;"/>
				<g>
					<path class="st26" d="M1563.4,180.4c0,5.6-4.6,10.1-10.3,10.1H850.1c-5.7,0-10.3-4.5-10.3-10.1l0,0c0-5.6,4.6-10.1,10.3-10.1&#10;&#9;&#9;&#9;&#9;&#9;&#9;h702.9C1558.8,170.3,1563.4,174.9,1563.4,180.4L1563.4,180.4z" style="fill: rgb(226, 55, 55);"/>
				</g>
				<path class="st39" d="M975.4,743.2c0,5.6-4.5,10.1-10.1,10.1H849.9c-5.6,0-10.1-4.5-10.1-10.1l0,0c0-5.6,4.5-10.1,10.1-10.1&#10;&#9;&#9;&#9;&#9;&#9;h115.4C970.9,733.1,975.4,737.6,975.4,743.2L975.4,743.2z" style="fill: rgb(45, 42, 51);"/>
				<path class="st39" d="M1563.4,743.2c0,5.6-4.5,10.1-10.1,10.1H1303c-5.6,0-10.1-4.5-10.1-10.1l0,0c0-5.6,4.5-10.1,10.1-10.1&#10;&#9;&#9;&#9;&#9;&#9;h250.2C1558.9,733.1,1563.4,737.6,1563.4,743.2L1563.4,743.2z" style="fill: rgb(45, 42, 51);"/>
				<path class="st18" d="M1754.9,417.1c0,12-9.7,21.7-21.7,21.7h-103.9c-12,0-21.7-9.7-21.7-21.7V287.1c0-12,9.7-21.7,21.7-21.7&#10;&#9;&#9;&#9;&#9;&#9;h103.9c12,0,21.7,9.7,21.7,21.7V417.1z" style="fill: rgb(50, 49, 50);"/>
				<path d="M 1664.699951 265.399994 H 1677.199951 V 438.899994 H 1664.699951 V 265.399994 Z" class="st40" style="fill: rgb(187, 189, 191);"/>
			</g>
			<g>
				<path d="M 1166.599976 281.799988 H 1261.699974 V 519.699982 H 1166.599976 V 281.799988 Z" class="st26" style="fill: rgb(226, 55, 55);"/>
				<path d="M 1095.199951 353.200012 H 1333.099945 V 448.300011 H 1095.199951 V 353.200012 Z" class="st26" style="fill: rgb(226, 55, 55);"/>
			</g>
			<path class="st41" d="M1894.7,177.1c0-15.7-7-29.8-18-39.3H844.5c-11,9.5-18,23.6-18,39.3v152.1l1104,109.6L1894.7,203V177.1z" style="opacity: 0.5; fill: rgb(206, 206, 206);"/>
		</g>
	</g>
</svg>