<?xml version="1.0" encoding="iso-8859-1"?>
<!-- Generator: Adobe Illustrator 19.0.0, SVG Export Plug-In . SVG Version: 6.00 Build 0)  -->
<svg version="1.1" id="Layer_1" xmlns="http://www.w3.org/2000/svg" xmlns:xlink="http://www.w3.org/1999/xlink" x="0px" y="0px"
	 viewBox="0 0 512 512" style="enable-background:new 0 0 512 512;" xml:space="preserve">
<path style="fill:#9CDBD8;" d="M458.254,3.994l48.102,23.275c3.452,1.67,5.644,5.167,5.644,9.002v146.513
	c0,4.309-2.76,8.133-6.849,9.491L421.647,220v282c0,5.523-4.477,10-10,10H100.353c-5.523,0-10-4.477-10-10V220L6.849,192.274
	C2.76,190.916,0,187.092,0,182.783V36.18c0-3.788,2.14-7.25,5.528-8.944L51.554,4.223C57.108,1.446,63.233,0,69.443,0h98.399
	c3.368,0,6.51,1.696,8.359,4.511l53.169,80.977c1.849,2.816,4.991,4.511,8.359,4.511h39.876c3.368,0,6.51-1.696,8.359-4.511
	l53.169-80.977C340.982,1.696,344.124,0,347.492,0h93.339C446.866,0,452.822,1.365,458.254,3.994z"/>
<path style="fill:#B5EAE4;" d="M492,20.323v96.667v26.318v53.333L421.647,220v250H90.353V220L20,196.641v-42.5v-49.818v-84V20
	L51.554,4.223C57.108,1.446,63.233,0,69.443,0h51.399l79.432,120.977c3.698,5.631,9.982,9.023,16.718,9.023h83.412
	c3.368,0,6.51-1.696,8.359-4.511L391.158,0h49.673c6.034,0,11.991,1.365,17.422,3.994L492,20.323z"/>
<path style="fill:#ACE2DA;" d="M421.647,260.906V502c0,5.523-4.477,10-10,10H266.55
	C343.149,463.243,400.908,371.607,421.647,260.906z"/>
<path style="fill:#94D3CE;" d="M318.004,470h103.643v32c0,5.523-4.477,10-10,10H266.55C284.862,500.344,302.094,486.232,318.004,470
	z"/>
<path style="fill:#FFFFFF;" d="M380,145c0,24.853-20.147,45-45,45s-45-20.147-45-45s20.147-45,45-45S380,120.147,380,145z"/>
<path style="fill:#F97253;" d="M362.5,145c0,4.142-3.358,7.5-7.5,7.5h-12.5V165c0,4.142-3.358,7.5-7.5,7.5s-7.5-3.358-7.5-7.5v-12.5
	H315c-4.142,0-7.5-3.358-7.5-7.5s3.358-7.5,7.5-7.5h12.5V125c0-4.142,3.358-7.5,7.5-7.5s7.5,3.358,7.5,7.5v12.5H355
	C359.142,137.5,362.5,140.858,362.5,145z"/>
<g>
</g>
<g>
</g>
<g>
</g>
<g>
</g>
<g>
</g>
<g>
</g>
<g>
</g>
<g>
</g>
<g>
</g>
<g>
</g>
<g>
</g>
<g>
</g>
<g>
</g>
<g>
</g>
<g>
</g>
</svg>
