<?xml version="1.0" encoding="iso-8859-1"?>
<!-- Generator: Adobe Illustrator 19.0.0, SVG Export Plug-In . SVG Version: 6.00 Build 0)  -->
<svg version="1.1" id="Capa_1" xmlns="http://www.w3.org/2000/svg" xmlns:xlink="http://www.w3.org/1999/xlink" x="0px" y="0px"
	 viewBox="0 0 448.842 448.842" style="enable-background:new 0 0 448.842 448.842;" xml:space="preserve">
<path style="fill:#F8DFD2;" d="M224.421,152c-39.696,0-72-32.304-72-72s32.304-72,72-72s72,32.304,72,72S264.117,152,224.421,152z"
	/>
<path style="fill:#77A0D4;" d="M366.501,220.112c-25.776-17.304-59.288-26.968-90.048-32.064c-35.312,16.152-70,15.576-104.048,0
	c-30.728,5.096-64.312,14.744-90.064,32.064c-6.224,4.176-9.92,11.472-9.92,19.52V296c28.888,0,78.984,0,131.416,0
	c16.2-19.984,40.92-32.8,68.584-32.8s52.376,12.816,68.576,32.8c13.736,0,25.928,0,35.408,0v-56.368
	C376.405,231.584,372.709,224.288,366.501,220.112z"/>
<path style="fill:#454545;" d="M113.317,442.432l-11.728-27.472l86.256-36.992l3.104,7.472c1.664,4,3.68,7.792,5.888,11.456
	l4.72,7.872L113.317,442.432z"/>
<path style="fill:#CDDCF0;" d="M272.421,439.76c-48.672,0-88.288-39.6-88.288-88.288s39.616-88.272,88.288-88.272
	s88.288,39.6,88.288,88.288S321.093,439.76,272.421,439.76z"/>
<g>
	<path style="fill:#010101;" d="M384.421,304l-0.032-64.384c0-10.384-4.832-20.352-13.456-26.16
		c-22.784-15.312-56.448-27.792-95.856-33.728c-15.232,7.776-32.416,12.256-50.656,12.256c-18.256,0-35.44-4.48-50.672-12.256
		c-39.44,5.936-73.088,18.416-95.872,33.728c-8.624,5.808-13.456,15.76-13.456,26.144v64.384l124.952,0.008
		c-8.192,14.136-12.952,30.496-12.952,48.008c0,7.312,0.888,14.408,2.44,21.248l-75.72,32.336
		c-6.656,2.848-9.76,10.576-6.912,17.232l7.712,18.048c1.424,3.328,4.064,5.776,7.184,7.024s6.72,1.328,10.048-0.096l78.4-33.376
		c17.6,20.528,43.68,33.584,72.848,33.584c53.016,0,96-42.984,96-96c0-17.504-4.76-33.872-12.952-48H384.421z M80.421,288v-48.384
		c0-5.376,2.384-10.192,6.368-12.864c20.928-14.064,50.784-24.8,84.496-30.416c16.816,7.728,34.672,11.648,53.136,11.648
		s36.304-3.92,53.12-11.664c33.696,5.616,63.552,16.352,84.48,30.416c4,2.688,6.4,7.488,6.4,12.864V288c-8.48,0-16.504,0-24.592,0
		c-17.576-19.6-43.016-32-71.408-32s-53.832,12.4-71.408,32C163.069,288,124.389,288,80.421,288z M117.525,431.936l-5.456-12.768
		l71.6-30.616c1.784,4.328,3.936,8.464,6.312,12.448L117.525,431.936z M272.421,432c-44.112,0-80-35.888-80-80s35.888-80,80-80
		s80,35.888,80,80S316.533,432,272.421,432z"/>
	<path style="fill:#010101;" d="M224.421,160c44.176,0,80-35.824,80-80s-35.824-80-80-80s-80,35.824-80,80S180.245,160,224.421,160z
		 M224.421,16c35.296,0,64,28.704,64,64s-28.704,64-64,64s-64-28.704-64-64S189.125,16,224.421,16z"/>
	<path style="fill:#010101;" d="M272.421,400v16c35.344,0,64-28.656,64-64h-16C320.421,378.464,298.885,400,272.421,400z"/>
</g>
<g>
</g>
<g>
</g>
<g>
</g>
<g>
</g>
<g>
</g>
<g>
</g>
<g>
</g>
<g>
</g>
<g>
</g>
<g>
</g>
<g>
</g>
<g>
</g>
<g>
</g>
<g>
</g>
<g>
</g>
</svg>
