<?xml version="1.0" encoding="utf-8"?>
<svg id="master-artboard" viewBox="0 0 2800 2800" version="1.1" xmlns="http://www.w3.org/2000/svg" x="0px" y="0px" enable-background="new 0 0 2800 2800" width="2800px" height="2800px">
<path fill="#F9BFA1" d="M1316.2,950.3v151.5c0,34.4,27.9,62.3,62.3,62.3h0c34.4,0,62.3-27.9,62.3-62.3V950.3H1316.2z" transform="matrix(1, 0, 0, 1, 677.4753637829176, -31.148292587720334)"/><path fill="#F5AC88" d="M1316.2,1021.4c21.2,15.8,45.9,24.9,72.3,24.9c18.5,0,36.2-4.5,52.4-12.6v-83.4h-124.7V1021.4z" transform="matrix(1, 0, 0, 1, 677.4753637829176, -31.148292587720334)"/><path fill="#F9BFA1" d="M1738.8,1217.2c0,0,19.7-80.2,117.9-48.5c0,0,54.9,11.6,66.4-17.3c0,0,49.1-28.9,14.4,49.1&#10;&#9;&#9;&#9;&#9;c0,0-57.8,37.5-115.5,20.2c0,0-36.6-13.5-45.3,18.3C1776.8,1239,1724.4,1263.4,1738.8,1217.2z" transform="matrix(1, 0, 0, 1, 677.4753637829176, -31.148292587720334)"/><path fill="#FFFFFF" d="M1564,1080c0,0,69.6,145.9,116.4,266.9c0,0,38-135.3,59.8-132.5c0,0-9.1,23.9,6.3,26.7l31.6-4.9l6.3-11.9&#10;&#9;&#9;&#9;&#9;c0,0,11.2-8.4,9.8,21.1c0,0-60.4,230.5-87.1,229.1c0,0-38,8.4-61.8,0l-120.7-244.3L1564,1080z" transform="matrix(1, 0, 0, 1, 677.4753637829176, -31.148292587720334)"/><path fill="#257E9F" d="M1483,1603.3h-234.9c0,0-45.5-22.2-50.3,362.2l19.2,371.5c0,0,38.4,37.8,100.7,6.7l53.6-613.6l18.3,613.6&#10;&#9;&#9;&#9;&#9;c0,0,43.2,28.9,95.9,6.7l38.4-555.9C1523.8,1794.4,1531,1634.4,1483,1603.3z" transform="matrix(1, 0, 0, 1, 677.4753637829176, -31.148292587720334)"/><g transform="matrix(1, 0, 0, 1, 677.4753637829176, -31.148292587720334)">
					<g>
						<path fill="#289EC1" d="M1324.4,2265.8h-111.2l3.7,71.2c0,0,38.4,37.8,100.7,6.7L1324.4,2265.8z"/>
					</g>
					<g>
						<path fill="#289EC1" d="M1387.2,2265.8l2.3,77.8c0,0,43.2,28.9,95.9,6.7l5.8-84.5H1387.2z"/>
					</g>
				</g><path fill="#2F93B1" d="M1503.3,1740.8h20.2c-2.2-49.5-10.7-118.2-40.4-137.4h-234.9c0,0-45.5-22.2-50.3,362.2l12.8,247.6h86&#10;&#9;&#9;&#9;&#9;l50.2-486l19.3,62v0l5.2-59.2l14.4,483.1h82.8L1503.3,1740.8z" transform="matrix(1, 0, 0, 1, 677.4753637829176, -31.148292587720334)"/><path fill="#F9BFA1" d="M1011.3,1214.6c0,0-19.7-80.2-117.9-48.5c0,0-54.9,11.5-66.4-17.3c0,0-49.1-28.9-14.4,49.1&#10;&#9;&#9;&#9;&#9;c0,0,57.8,37.5,115.5,20.2c0,0,36.6-13.5,45.3,18.3C973.4,1236.4,1025.7,1260.8,1011.3,1214.6z" transform="matrix(1, 0, 0, 1, 677.4753637829176, -31.148292587720334)"/><path d="M 1315.0999755859375 1036.699951171875 L 1363.5 1114.5 L 1376.4000244140625 1158.199951171875 L 1391.800048828125 1117.0999755859375 L 1453.5 1042.5999755859375 L 1499.800048828125 1114.5 L 1435.5 1183.9000244140625 L 1417.5 1140.199951171875 L 1409.800048828125 1189.0999755859375 L 1412.4000244140625 1628.5999755859375 L 1335.300048828125 1628.5999755859375 L 1345.5 1186.5 L 1332.699951171875 1137.699951171875 L 1314.699951171875 1183.9000244140625 L 1268.4000244140625 1081.0999755859375 Z" fill="#8EB4D6" transform="matrix(1, 0, 0, 1, 677.4753637829176, -31.148292587720334)"/><path fill="#FFFFFF" d="M1407.2,1121.2l-25.7,699.9l61.7,145.4c0,0,136.2,32,177.3-32l-66.8-438.7l-10.6-261.4l20.9-156.1&#10;&#9;&#9;&#9;&#9;l-128.9-41.5C1435.1,1036.7,1438.5,1076,1407.2,1121.2z" transform="matrix(1, 0, 0, 1, 677.4753637829176, -31.148292587720334)"/><path fill="#FFFFFF" d="M1343,1121.2l25.7,699.9l-61.7,145.4c0,0-136.2,32-177.3-32l66.8-438.7l14.5-244.3l-21-174.7l125.1-40.1&#10;&#9;&#9;&#9;&#9;C1315.1,1036.7,1311.7,1076,1343,1121.2z" transform="matrix(1, 0, 0, 1, 677.4753637829176, -31.148292587720334)"/><path fill="#FFFFFF" d="M1189.9,1078.5c0,0-67.7,151.4-114.9,283.5c0,0-43.3-153.1-65.1-150.2c0,0,9.1,23.9-6.3,26.7l-31.6-4.9&#10;&#9;&#9;&#9;&#9;l-6.3-11.9c0,0-11.2-8.4-9.8,21.1c0,0,60.4,230.5,87.1,229.1c0,0,49.7,8.4,73.6,0l114.6-241.7L1189.9,1078.5z" transform="matrix(1, 0, 0, 1, 677.4753637829176, -31.148292587720334)"/><path fill="#CCCCCC" d="M1196.4,1502.7l10.4,29.3l44.5,4.1l24.7-33.8C1276,1502.3,1201.4,1498.5,1196.4,1502.7z" transform="matrix(1, 0, 0, 1, 677.4753637829176, -31.148292587720334)"/><path fill="#CCCCCC" d="M1546,1501.4l-4.7,28.1l-44.5,4.1l-24.9-29.7C1471.9,1503.9,1541,1497.3,1546,1501.4z" transform="matrix(1, 0, 0, 1, 677.4753637829176, -31.148292587720334)"/><path d="M 1343 1124.800048828125 L 1363.5 1114.5 L 1356.4000244140625 1106.800048828125 L 1341.699951171875 1121.5999755859375 Z" fill="#6A9CC8" transform="matrix(1, 0, 0, 1, 677.4753637829176, -31.148292587720334)"/><path d="M 1391.800048828125 1117.0999755859375 L 1398.5 1109.699951171875 L 1408.5 1120.5999755859375 L 1406.9000244140625 1123.9000244140625 Z" fill="#6A9CC8" transform="matrix(1, 0, 0, 1, 677.4753637829176, -31.148292587720334)"/><path d="M 1366.0999755859375 1360.5999755859375 L 1369.9000244140625 1628.5999755859375 L 1378.9000244140625 1628.5999755859375 L 1377 1352.9000244140625 L 1385.4000244140625 1139 L 1376.4000244140625 1155 L 1370.5999755859375 1140.9000244140625 Z" fill="#6A9CC8" transform="matrix(1, 0, 0, 1, 677.4753637829176, -31.148292587720334)"/><path d="M 1386.700025 1203.199951 A 10.3 10.3 0 0 1 1376.400024 1213.499951 A 10.3 10.3 0 0 1 1366.100024 1203.199951 A 10.3 10.3 0 0 1 1376.400024 1192.899951 A 10.3 10.3 0 0 1 1386.700025 1203.199951 Z" fill="#424145" transform="matrix(1, 0, 0, 1, 677.4753637829176, -31.148292587720334)"/><path d="M 1382.8 1317.599976 A 10.3 10.3 0 0 1 1372.5 1327.899976 A 10.3 10.3 0 0 1 1362.2 1317.599976 A 10.3 10.3 0 0 1 1372.5 1307.299975 A 10.3 10.3 0 0 1 1382.8 1317.599976 Z" fill="#424145" transform="matrix(1, 0, 0, 1, 677.4753637829176, -31.148292587720334)"/><path d="M 1382.8 1435.800049 A 10.3 10.3 0 0 1 1372.5 1446.100049 A 10.3 10.3 0 0 1 1362.2 1435.800049 A 10.3 10.3 0 0 1 1372.5 1425.500049 A 10.3 10.3 0 0 1 1382.8 1435.800049 Z" fill="#424145" transform="matrix(1, 0, 0, 1, 677.4753637829176, -31.148292587720334)"/><path d="M 1385.399976 1537.400024 A 10.3 10.3 0 0 1 1375.099976 1547.700025 A 10.3 10.3 0 0 1 1364.799975 1537.400024 A 10.3 10.3 0 0 1 1375.099976 1527.100024 A 10.3 10.3 0 0 1 1385.399976 1537.400024 Z" fill="#424145" transform="matrix(1, 0, 0, 1, 677.4753637829176, -31.148292587720334)"/><path fill="#E6E6E6" d="M1315.1,1036.7l-59.9,20.5v116.5c0,0,44.6-53.1,63.4-46.3l10.3,24l17.1,17.1l-3-43.7L1315.1,1036.7z" transform="matrix(1, 0, 0, 1, 677.4753637829176, -31.148292587720334)"/><path fill="#333333" d="M1338.2,1281.6c0,4.7-3.8,8.6-8.6,8.6c-4.7,0-8.6-3.8-8.6-8.6c0-4.7,3.8-8.6,8.6-8.6&#10;&#9;&#9;&#9;&#9;C1334.4,1273,1338.2,1276.9,1338.2,1281.6z" transform="matrix(1, 0, 0, 1, 677.4753637829176, -31.148292587720334)"/><path d="M 1340.000025 1386.099976 A 8.6 8.6 0 0 1 1331.400024 1394.699976 A 8.6 8.6 0 0 1 1322.800024 1386.099976 A 8.6 8.6 0 0 1 1331.400024 1377.499975 A 8.6 8.6 0 0 1 1340.000025 1386.099976 Z" fill="#333333" transform="matrix(1, 0, 0, 1, 677.4753637829176, -31.148292587720334)"/><path fill="#333333" d="M1346.8,1497.5c0,4.7-3.8,8.6-8.6,8.6c-4.7,0-8.6-3.8-8.6-8.6c0-4.7,3.8-8.6,8.6-8.6&#10;&#9;&#9;&#9;&#9;C1343,1489,1346.8,1492.8,1346.8,1497.5z" transform="matrix(1, 0, 0, 1, 677.4753637829176, -31.148292587720334)"/><path d="M 1353.699976 1602 A 8.6 8.6 0 0 1 1345.099976 1610.6 A 8.6 8.6 0 0 1 1336.499975 1602 A 8.6 8.6 0 0 1 1345.099976 1593.4 A 8.6 8.6 0 0 1 1353.699976 1602 Z" fill="#333333" transform="matrix(1, 0, 0, 1, 677.4753637829176, -31.148292587720334)"/><path fill="#808080" d="M1411.7,1286.9c4.7,0,8.6-1.6,8.6-3.6c0-2-3.8-3.6-8.6-3.6c-4.7,0-8.6,1.6-8.6,3.6&#10;&#9;&#9;&#9;&#9;C1403.2,1285.3,1407,1286.9,1411.7,1286.9z" transform="matrix(1, 0, 0, 1, 677.4753637829176, -31.148292587720334)"/><path fill="#808080" d="M1405.9,1391.5c4.7,0,8.6-1.6,8.6-3.6c0-2-3.8-3.6-8.6-3.6c-4.7,0-8.6,1.6-8.6,3.6&#10;&#9;&#9;&#9;&#9;C1397.3,1389.8,1401.1,1391.5,1405.9,1391.5z" transform="matrix(1, 0, 0, 1, 677.4753637829176, -31.148292587720334)"/><path fill="#808080" d="M1403,1502.8c4.7,0,8.6-1.6,8.6-3.6c0-2-3.8-3.6-8.6-3.6c-4.7,0-8.6,1.6-8.6,3.6&#10;&#9;&#9;&#9;&#9;C1394.4,1501.2,1398.2,1502.8,1403,1502.8z" transform="matrix(1, 0, 0, 1, 677.4753637829176, -31.148292587720334)"/><path fill="#808080" d="M1400.1,1607.4c4.7,0,8.6-1.6,8.6-3.6c0-2-3.8-3.6-8.6-3.6c-4.7,0-8.6,1.6-8.6,3.6&#10;&#9;&#9;&#9;&#9;C1391.5,1605.8,1395.4,1607.4,1400.1,1607.4z" transform="matrix(1, 0, 0, 1, 677.4753637829176, -31.148292587720334)"/><path fill="#E6E6E6" d="M1451.7,1042.6l41.6,17.1v116.5c0,0-44.6-53.1-63.4-46.3l-10.3,24l-17.1,17.1l3-43.7L1451.7,1042.6z" transform="matrix(1, 0, 0, 1, 677.4753637829176, -31.148292587720334)"/><path fill="#E6E6E6" d="M1184.9,1593.9c0,0,32.6,39,80.5,8.1l10.6-99.7l3.1,27.8l-8.6,84c0,0-59.5,27.4-87-12L1184.9,1593.9z" transform="matrix(1, 0, 0, 1, 677.4753637829176, -31.148292587720334)"/><path fill="#E6E6E6" d="M1564,1591.3c0,0-30.5,41.5-81.1,10.7l-11.2-99.7l-3.3,27.8l9,84c0,0,59.7,30.4,88.6-9L1564,1591.3z" transform="matrix(1, 0, 0, 1, 677.4753637829176, -31.148292587720334)"/><path fill="#E6E6E6" d="M967.6,1221.6c0,0,5.7,14.1,13.8,14.1c0,0,18-1.8,22.7,2.8c0,0,14.2-2.8,7.4-23.9c0,0,11.5,5.3,0.3,25.3&#10;&#9;&#9;&#9;&#9;c0,0-8.1,7.4-21.3,1.1c0,0-10.1,0-12.2,4.2C978.4,1245.2,954.8,1231.8,967.6,1221.6z" transform="matrix(1, 0, 0, 1, 677.4753637829176, -31.148292587720334)"/><path fill="#E6E6E6" d="M1781.6,1237.2c0,0-5.7,14.1-13.8,14.1c0,0-18-1.8-22.7,2.8c0,0-14.2-2.8-7.4-23.9c0,0-11.5,5.3-0.3,25.3&#10;&#9;&#9;&#9;&#9;c0,0,8.1,7.4,21.3,1.1c0,0,10.1,0,12.2,4.2C1770.8,1260.7,1794.4,1247.4,1781.6,1237.2z" transform="matrix(1, 0, 0, 1, 677.4753637829176, -31.148292587720334)"/><path fill="#F7394B" d="M1394.2,602c-8.4-15.6-36.2-10.7-36.2-10.7l0,0c-7.2,0.4-14.1,2.5-19.8,7.5c-3,2.6-8,14.7-4.1,18.5&#10;&#9;&#9;&#9;&#9;&#9;c0,0,0,0,0,0c17.7,16.6,63.3-2.1,63.3-2.1C1400.7,613.9,1396.4,605.4,1394.2,602z" transform="matrix(1, 0, 0, 1, 677.4753637829176, -31.148292587720334)"/><path fill="#BD4A03" d="M1388.3,607.3L1388.3,607.3c-86.2,0-156,62.7-156,140.1v132.1h312.1V747.4&#10;&#9;&#9;&#9;&#9;&#9;C1544.4,670,1474.5,607.3,1388.3,607.3z" transform="matrix(1, 0, 0, 1, 677.4753637829176, -31.148292587720334)"/><path fill="#BD4A03" d="M1482.9,976.4c0,0,71.6,85.1,1.7,162.5c0,0-24.9,21-14.8,56.9c0,0-65.1-72.6-47.5-156.7l4-24.1&#10;&#9;&#9;&#9;&#9;&#9;&#9;C1426.2,1015,1446.3,1011.5,1482.9,976.4z" transform="matrix(1, 0, 0, 1, 677.4753637829176, -31.148292587720334)"/><path d="M 1550.900047 865.5 A 44.599998 44.599998 0 0 1 1506.300049 910.099998 A 44.599998 44.599998 0 0 1 1461.70005 865.5 A 44.599998 44.599998 0 0 1 1506.300049 820.900002 A 44.599998 44.599998 0 0 1 1550.900047 865.5 Z" fill="#F5AC88" transform="matrix(1, 0, 0, 1, 677.4753637829176, -31.148292587720334)"/><path d="M 1316.900047 865.5 A 44.599998 44.599998 0 0 1 1272.300049 910.099998 A 44.599998 44.599998 0 0 1 1227.70005 865.5 A 44.599998 44.599998 0 0 1 1272.300049 820.900002 A 44.599998 44.599998 0 0 1 1316.900047 865.5 Z" fill="#F5AC88" transform="matrix(1, 0, 0, 1, 677.4753637829176, -31.148292587720334)"/><path fill="#F9BFA1" d="M1389.3,1018.8L1389.3,1018.8c-74.7,0-135.3-60.6-135.3-135.3V714.7h270.7v168.8&#10;&#9;&#9;&#9;&#9;&#9;C1524.6,958.2,1464,1018.8,1389.3,1018.8z" transform="matrix(1, 0, 0, 1, 677.4753637829176, -31.148292587720334)"/><path fill="#B44003" d="M1290,816.1c-0.6,0.5,12.6-13.7,30.2-18.1c16.9-5.8,38-1.9,36.9,2.2c-0.3,4.5-1.5,11.4-3.9,10.3&#10;&#9;&#9;&#9;&#9;&#9;c-0.8-0.4-15.2-6-30.4-3.7c-15.2,1.2-31.1,10.4-34.6,15.6C1288.7,820.2,1289.3,818.2,1290,816.1z" transform="matrix(1, 0, 0, 1, 677.4753637829176, -31.148292587720334)"/><path fill="#B44003" d="M1486.3,816.1c0.6,0.5-12.6-13.7-30.2-18.1c-16.9-5.8-38-1.9-36.9,2.2c0.3,4.5,1.5,11.4,3.9,10.3&#10;&#9;&#9;&#9;&#9;&#9;c0.8-0.4,15.2-6,30.4-3.7c15.2,1.2,31.1,10.4,34.6,15.6C1487.6,820.2,1487,818.2,1486.3,816.1z" transform="matrix(1, 0, 0, 1, 677.4753637829176, -31.148292587720334)"/><path fill="#BD4A03" d="M1529.5,732.3c-13.9-50-24.4-70.7-76-87.8c-19.6-6.5-42.5-9.7-65-10.2c-22.5,0.5-45.5,3.7-65,10.2&#10;&#9;&#9;&#9;&#9;&#9;c-51.6,17.1-65.3,22.4-74.4,73.5c-17.1,96.6,4.7,152.1,4.7,152.1s31.8-51.3,63.3-130.3c-0.7,4.9,14.3,17.1,17.1,19.8&#10;&#9;&#9;&#9;&#9;&#9;c18.1,16.7,40,29,62.8,38.1c46,18.3,116.5,9.6,126,72.4C1523.1,870.1,1557.5,833.1,1529.5,732.3z" transform="matrix(1, 0, 0, 1, 677.4753637829176, -31.148292587720334)"/><path fill="#B44003" d="M1347.6,673.1c0,0,151.8-35.2,196.6,121C1544.3,794.1,1515.1,679.9,1347.6,673.1z" transform="matrix(1, 0, 0, 1, 677.4753637829176, -31.148292587720334)"/><path fill="#B44003" d="M1380.2,703.5c0,0,106.8-13.1,162.8,101.7C1543.1,805.2,1459.9,703.1,1380.2,703.5z" transform="matrix(1, 0, 0, 1, 677.4753637829176, -31.148292587720334)"/><path fill="#B44003" d="M1342.6,637.7c0,0,152.2-35.3,197.1,121.3C1539.7,759,1510.4,644.6,1342.6,637.7z" transform="matrix(1, 0, 0, 1, 677.4753637829176, -31.148292587720334)"/><path fill="#B44003" d="M1308,680.6c0,0-90,36.4-56.9,132.1C1251.1,812.8,1225.1,744.1,1308,680.6z" transform="matrix(1, 0, 0, 1, 677.4753637829176, -31.148292587720334)"/><path fill="#B44003" d="M1302.2,707.8c0,0-59.1,31.6-46.6,110.1C1255.7,818,1261.5,736.2,1302.2,707.8z" transform="matrix(1, 0, 0, 1, 677.4753637829176, -31.148292587720334)"/><path fill="#B44003" d="M1297.9,660.8c0,0-90.2,36.5-57,132.4C1240.9,793.2,1214.8,724.5,1297.9,660.8z" transform="matrix(1, 0, 0, 1, 677.4753637829176, -31.148292587720334)"/><path fill="#B44003" d="M1308.4,625.9c0,0-0.1,80.9,7.7,89.8C1316.1,715.7,1315.7,633.2,1308.4,625.9z" transform="matrix(1, 0, 0, 1, 677.4753637829176, -31.148292587720334)"/><path d="M 1345.099976 845.099976 A 14.5 14.5 0 0 1 1330.599976 859.599976 A 14.5 14.5 0 0 1 1316.099976 845.099976 A 14.5 14.5 0 0 1 1330.599976 830.599976 A 14.5 14.5 0 0 1 1345.099976 845.099976 Z" fill="#6F2702" transform="matrix(1, 0, 0, 1, 677.4753637829176, -31.148292587720334)"/><path d="M 1334.599951 841.400024 A 6.9 6.9 0 0 1 1327.699951 848.300025 A 6.9 6.9 0 0 1 1320.799951 841.400024 A 6.9 6.9 0 0 1 1327.699951 834.500024 A 6.9 6.9 0 0 1 1334.599951 841.400024 Z" fill="#FFFFFF" transform="matrix(1, 0, 0, 1, 677.4753637829176, -31.148292587720334)"/><path d="M 1458.5 845.099976 A 14.5 14.5 0 0 1 1444 859.599976 A 14.5 14.5 0 0 1 1429.5 845.099976 A 14.5 14.5 0 0 1 1444 830.599976 A 14.5 14.5 0 0 1 1458.5 845.099976 Z" fill="#6F2702" transform="matrix(1, 0, 0, 1, 677.4753637829176, -31.148292587720334)"/><path d="M 1447.999976 841.400024 A 6.9 6.9 0 0 1 1441.099976 848.300025 A 6.9 6.9 0 0 1 1434.199975 841.400024 A 6.9 6.9 0 0 1 1441.099976 834.500024 A 6.9 6.9 0 0 1 1447.999976 841.400024 Z" fill="#FFFFFF" transform="matrix(1, 0, 0, 1, 677.4753637829176, -31.148292587720334)"/><path fill="#F5AC88" d="M1390.8,845.1L1390.8,845.1c-6,0-10.9,3.9-10.9,8.7v32.7c0,4.8,4.9,8.7,10.9,8.7l0,0&#10;&#9;&#9;&#9;&#9;&#9;c6,0,10.9-3.9,10.9-8.7v-32.7C1401.7,848.9,1396.8,845.1,1390.8,845.1z" transform="matrix(1, 0, 0, 1, 677.4753637829176, -31.148292587720334)"/><path fill="#8F212C" d="M1436.3,913.3h-95.7c-6.4,0-11.2,5.9-9.8,12.2c5.6,26.7,29.3,46.7,57.7,46.7s52.1-20,57.7-46.7&#10;&#9;&#9;&#9;&#9;&#9;&#9;C1447.5,919.2,1442.8,913.3,1436.3,913.3z" transform="matrix(1, 0, 0, 1, 677.4753637829176, -31.148292587720334)"/><path fill="#F7394B" d="M1388.5,939.2c-18.3,0-34.7,4.3-45.9,11.1c10.8,13.4,27.3,21.9,45.9,21.9s35.1-8.5,45.9-21.9&#10;&#9;&#9;&#9;&#9;&#9;&#9;C1423.2,943.5,1406.8,939.2,1388.5,939.2z" transform="matrix(1, 0, 0, 1, 677.4753637829176, -31.148292587720334)"/><path d="M 1330.199951171875 2388.5 L 1205.4000244140625 2390.199951171875 L 1215.300048828125 2317.199951171875 L 1318.4000244140625 2317.199951171875 Z" fill="#BC2B39" transform="matrix(1, 0, 0, 1, 677.4753637829176, -31.148292587720334)"/><path fill="#F7394B" d="M1268.8,2329.9c-35,0-63.4,28.4-63.4,63.4h126.9C1332.2,2358.3,1303.8,2329.9,1268.8,2329.9z" transform="matrix(1, 0, 0, 1, 677.4753637829176, -31.148292587720334)"/><path d="M 1264.50005 2359 A 16.200001 16.200001 0 0 1 1248.300049 2375.200001 A 16.200001 16.200001 0 0 1 1232.100048 2359 A 16.200001 16.200001 0 0 1 1248.300049 2342.799999 A 16.200001 16.200001 0 0 1 1264.50005 2359 Z" fill="#F65A5D" transform="matrix(1, 0, 0, 1, 677.4753637829176, -31.148292587720334)"/><path fill="#BC2B39" d="M1205.3,2393.3v11.2c0,5.5,6.2,10,13.8,10h99.3c7.6,0,13.8-4.5,13.8-10v-11.2H1205.3z" transform="matrix(1, 0, 0, 1, 677.4753637829176, -31.148292587720334)"/><path d="M 1501.300048828125 2388.5 L 1376.5 2390.199951171875 L 1386.5 2317.199951171875 L 1489.5 2317.199951171875 Z" fill="#BC2B39" transform="matrix(1, 0, 0, 1, 677.4753637829176, -31.148292587720334)"/><path fill="#F7394B" d="M1439.9,2329.9c-35,0-63.4,28.4-63.4,63.4h126.9C1503.3,2358.3,1474.9,2329.9,1439.9,2329.9z" transform="matrix(1, 0, 0, 1, 677.4753637829176, -31.148292587720334)"/><path d="M 1435.600025 2359 A 16.200001 16.200001 0 0 1 1419.400024 2375.200001 A 16.200001 16.200001 0 0 1 1403.200024 2359 A 16.200001 16.200001 0 0 1 1419.400024 2342.799999 A 16.200001 16.200001 0 0 1 1435.600025 2359 Z" fill="#F65A5D" transform="matrix(1, 0, 0, 1, 677.4753637829176, -31.148292587720334)"/><path fill="#BC2B39" d="M1376.4,2393.3v11.2c0,5.5,6.2,10,13.8,10h99.3c7.6,0,13.8-4.5,13.8-10v-11.2H1376.4z" transform="matrix(1, 0, 0, 1, 677.4753637829176, -31.148292587720334)"/><path fill="#FFFFFF" d="M696.4,786.4L687,779c4.6-5.9,9.4-11.9,14.1-17.7l9.3,7.6C705.7,774.6,701,780.5,696.4,786.4z" transform="matrix(1, 0, 0, 1, 677.4753637829176, -31.148292587720334)"/><path fill="#FFFFFF" d="M934.7,2078.4c-6.5-3.8-13-7.8-19.4-11.8l6.4-10.2c6.3,3.9,12.7,7.9,19.1,11.6L934.7,2078.4z" transform="matrix(1, 0, 0, 1, 677.4753637829176, -31.148292587720334)"/><path fill="#FFFFFF" d="M297.3,671.9v-21.4h2.5v19.2h9.4v2.3H297.3z" transform="matrix(1, 0, 0, 1, 4.263256414560601e-14, 2.1316282072803006e-14)"/><path fill="#FFFFFF" d="M326.3,663.9c0,2.6-0.7,4.7-2,6.1s-3.1,2.2-5.5,2.2c-1.4,0-2.7-0.3-3.8-1s-2-1.6-2.6-2.9&#10;&#9;&#9;&#9;&#9;s-0.9-2.7-0.9-4.4c0-2.6,0.7-4.7,2-6.1s3.1-2.2,5.4-2.2c2.2,0,4,0.7,5.4,2.2C325.7,659.3,326.3,661.3,326.3,663.9z M314.1,663.9&#10;&#9;&#9;&#9;&#9;c0,2.1,0.4,3.6,1.2,4.7s2,1.6,3.6,1.6s2.8-0.5,3.6-1.6s1.2-2.6,1.2-4.7c0-2-0.4-3.6-1.2-4.7s-2-1.6-3.7-1.6&#10;&#9;&#9;&#9;&#9;c-1.6,0-2.8,0.5-3.6,1.6S314.1,661.8,314.1,663.9z" transform="matrix(1, 0, 0, 1, 4.263256414560601e-14, 2.1316282072803006e-14)"/><path fill="#FFFFFF" d="M337.9,655.6c0.7,0,1.4,0.1,1.9,0.2l-0.3,2.3c-0.7-0.1-1.3-0.2-1.8-0.2c-1.3,0-2.4,0.5-3.3,1.6&#10;&#9;&#9;&#9;&#9;c-0.9,1.1-1.4,2.4-1.4,3.9v8.6h-2.4v-16.1h2l0.3,3h0.1c0.6-1,1.3-1.9,2.2-2.4S336.9,655.6,337.9,655.6z" transform="matrix(1, 0, 0, 1, 4.263256414560601e-14, 2.1316282072803006e-14)"/><path fill="#FFFFFF" d="M349.6,672.2c-2.4,0-4.2-0.7-5.6-2.2s-2.1-3.5-2.1-6c0-2.6,0.6-4.6,1.9-6.2c1.3-1.5,3-2.3,5.1-2.3&#10;&#9;&#9;&#9;&#9;c2,0,3.6,0.7,4.8,2s1.8,3.1,1.8,5.2v1.5h-11.1c0,1.9,0.5,3.3,1.4,4.3c0.9,1,2.2,1.5,3.8,1.5c1.7,0,3.4-0.4,5.1-1.1v2.2&#10;&#9;&#9;&#9;&#9;c-0.9,0.4-1.7,0.6-2.4,0.8C351.6,672.1,350.7,672.2,349.6,672.2z M349,657.6c-1.3,0-2.3,0.4-3.1,1.3s-1.2,2-1.4,3.5h8.4&#10;&#9;&#9;&#9;&#9;c0-1.5-0.3-2.7-1-3.5S350.2,657.6,349,657.6z" transform="matrix(1, 0, 0, 1, 4.263256414560601e-14, 2.1316282072803006e-14)"/><path fill="#FFFFFF" d="M380.1,671.9v-10.4c0-1.3-0.3-2.2-0.8-2.9s-1.4-1-2.5-1c-1.5,0-2.6,0.4-3.4,1.3s-1.1,2.2-1.1,4v9h-2.4&#10;&#9;&#9;&#9;&#9;v-10.4c0-1.3-0.3-2.2-0.8-2.9s-1.4-1-2.6-1c-1.5,0-2.6,0.5-3.3,1.4c-0.7,0.9-1.1,2.4-1.1,4.5v8.4h-2.4v-16.1h2l0.4,2.2h0.1&#10;&#9;&#9;&#9;&#9;c0.5-0.8,1.1-1.4,1.9-1.8c0.8-0.4,1.8-0.7,2.8-0.7c2.5,0,4.2,0.9,4.9,2.7h0.1c0.5-0.8,1.2-1.5,2.1-2s1.9-0.7,3.1-0.7&#10;&#9;&#9;&#9;&#9;c1.8,0,3.2,0.5,4.1,1.4c0.9,0.9,1.4,2.4,1.4,4.5v10.5H380.1z" transform="matrix(1, 0, 0, 1, 4.263256414560601e-14, 2.1316282072803006e-14)"/><path fill="#FFFFFF" d="M395.2,651.5c0-0.6,0.1-1,0.4-1.2s0.6-0.4,1-0.4c0.4,0,0.7,0.1,1,0.4s0.4,0.7,0.4,1.2s-0.1,1-0.4,1.2&#10;&#9;&#9;&#9;&#9;s-0.6,0.4-1,0.4c-0.4,0-0.8-0.1-1-0.4S395.2,652.1,395.2,651.5z M397.8,671.9h-2.4v-16.1h2.4V671.9z" transform="matrix(1, 0, 0, 1, 4.263256414560601e-14, 2.1316282072803006e-14)"/><path fill="#FFFFFF" d="M410.4,672.2c-1,0-2-0.2-2.9-0.6c-0.9-0.4-1.6-1-2.2-1.8h-0.2c0.1,0.9,0.2,1.8,0.2,2.7v6.6H403v-23.3h2&#10;&#9;&#9;&#9;&#9;l0.3,2.2h0.1c0.6-0.9,1.4-1.5,2.2-1.9s1.8-0.6,2.9-0.6c2.1,0,3.8,0.7,4.9,2.2c1.2,1.5,1.7,3.5,1.7,6.1c0,2.6-0.6,4.7-1.8,6.1&#10;&#9;&#9;&#9;&#9;C414.2,671.5,412.5,672.2,410.4,672.2z M410.1,657.7c-1.6,0-2.8,0.5-3.6,1.4s-1.1,2.4-1.1,4.3v0.5c0,2.3,0.4,3.9,1.1,4.8&#10;&#9;&#9;&#9;&#9;s2,1.5,3.6,1.5c1.4,0,2.5-0.6,3.3-1.7c0.8-1.1,1.2-2.7,1.2-4.6c0-2-0.4-3.5-1.2-4.6C412.6,658.2,411.5,657.7,410.1,657.7z" transform="matrix(1, 0, 0, 1, 4.263256414560601e-14, 2.1316282072803006e-14)"/><path fill="#FFFFFF" d="M431.7,667.6c0,1.5-0.6,2.6-1.7,3.5s-2.7,1.2-4.7,1.2c-2.1,0-3.8-0.3-5-1V669c0.8,0.4,1.6,0.7,2.5,0.9&#10;&#9;&#9;&#9;&#9;c0.9,0.2,1.7,0.3,2.6,0.3c1.3,0,2.2-0.2,2.9-0.6s1-1,1-1.9c0-0.6-0.3-1.2-0.8-1.6c-0.5-0.4-1.6-1-3.2-1.6c-1.5-0.6-2.6-1-3.2-1.5&#10;&#9;&#9;&#9;&#9;c-0.6-0.4-1.1-0.9-1.4-1.4c-0.3-0.5-0.5-1.2-0.5-1.9c0-1.3,0.5-2.3,1.6-3.1s2.5-1.1,4.4-1.1c1.7,0,3.4,0.4,5.1,1.1l-0.9,2&#10;&#9;&#9;&#9;&#9;c-1.6-0.7-3.1-1-4.4-1c-1.2,0-2,0.2-2.6,0.5s-0.9,0.9-0.9,1.5c0,0.4,0.1,0.8,0.3,1.1c0.2,0.3,0.6,0.6,1.1,0.9s1.4,0.7,2.8,1.2&#10;&#9;&#9;&#9;&#9;c1.9,0.7,3.2,1.4,3.9,2.1C431.4,665.6,431.7,666.5,431.7,667.6z" transform="matrix(1, 0, 0, 1, 4.263256414560601e-14, 2.1316282072803006e-14)"/><path fill="#FFFFFF" d="M438,655.9v10.4c0,1.3,0.3,2.3,0.9,2.9s1.5,1,2.8,1c1.7,0,2.9-0.5,3.7-1.4c0.8-0.9,1.2-2.4,1.2-4.5v-8.4&#10;&#9;&#9;&#9;&#9;h2.4v16.1h-2l-0.4-2.2h-0.1c-0.5,0.8-1.2,1.4-2.1,1.8s-1.9,0.6-3,0.6c-2,0-3.4-0.5-4.4-1.4s-1.5-2.4-1.5-4.5v-10.5H438z" transform="matrix(1, 0, 0, 1, 677.4753637829176, -31.148292587720334)"/><path fill="#FFFFFF" d="M474.5,671.9v-10.4c0-1.3-0.3-2.2-0.8-2.9s-1.4-1-2.5-1c-1.5,0-2.6,0.4-3.4,1.3s-1.1,2.2-1.1,4v9h-2.4&#10;&#9;&#9;&#9;&#9;v-10.4c0-1.3-0.3-2.2-0.8-2.9s-1.4-1-2.6-1c-1.5,0-2.6,0.5-3.3,1.4c-0.7,0.9-1.1,2.4-1.1,4.5v8.4h-2.4v-16.1h2l0.4,2.2h0.1&#10;&#9;&#9;&#9;&#9;c0.5-0.8,1.1-1.4,1.9-1.8c0.8-0.4,1.8-0.7,2.8-0.7c2.5,0,4.2,0.9,4.9,2.7h0.1c0.5-0.8,1.2-1.5,2.1-2s1.9-0.7,3.1-0.7&#10;&#9;&#9;&#9;&#9;c1.8,0,3.2,0.5,4.1,1.4c0.9,0.9,1.4,2.4,1.4,4.5v10.5H474.5z" transform="matrix(1, 0, 0, 1, 677.4753637829176, -31.148292587720334)"/><path fill="#FFFFFF" d="M500.7,669.8h-0.1c-1.1,1.6-2.8,2.4-5,2.4c-2.1,0-3.7-0.7-4.9-2.2c-1.2-1.4-1.8-3.5-1.8-6.1&#10;&#9;&#9;&#9;&#9;s0.6-4.7,1.8-6.2s2.8-2.2,4.9-2.2c2.2,0,3.8,0.8,5,2.4h0.2l-0.1-1.2l-0.1-1.1v-6.5h2.4v22.8h-2L500.7,669.8z M495.8,670.2&#10;&#9;&#9;&#9;&#9;c1.7,0,2.9-0.5,3.6-1.4c0.7-0.9,1.1-2.4,1.1-4.4V664c0-2.3-0.4-3.9-1.1-4.9s-2-1.5-3.6-1.5c-1.4,0-2.5,0.6-3.3,1.7&#10;&#9;&#9;&#9;&#9;c-0.8,1.1-1.1,2.7-1.1,4.7c0,2.1,0.4,3.6,1.1,4.6S494.4,670.2,495.8,670.2z" transform="matrix(1, 0, 0, 1, 677.4753637829176, -31.148292587720334)"/><path fill="#FFFFFF" d="M522,663.9c0,2.6-0.7,4.7-2,6.1s-3.1,2.2-5.5,2.2c-1.4,0-2.7-0.3-3.8-1s-2-1.6-2.6-2.9s-0.9-2.7-0.9-4.4&#10;&#9;&#9;&#9;&#9;c0-2.6,0.7-4.7,2-6.1s3.1-2.2,5.4-2.2c2.2,0,4,0.7,5.4,2.2C521.4,659.3,522,661.3,522,663.9z M509.8,663.9c0,2.1,0.4,3.6,1.2,4.7&#10;&#9;&#9;&#9;&#9;s2,1.6,3.6,1.6s2.8-0.5,3.6-1.6s1.2-2.6,1.2-4.7c0-2-0.4-3.6-1.2-4.7s-2-1.6-3.7-1.6c-1.6,0-2.8,0.5-3.6,1.6&#10;&#9;&#9;&#9;&#9;S509.8,661.8,509.8,663.9z" transform="matrix(1, 0, 0, 1, 677.4753637829176, -31.148292587720334)"/><path fill="#FFFFFF" d="M528.7,671.9h-2.4v-22.8h2.4V671.9z" transform="matrix(1, 0, 0, 1, 677.4753637829176, -31.148292587720334)"/><path fill="#FFFFFF" d="M327.4,708.2c-2.3,0-4.1-0.7-5.4-2.1c-1.3-1.4-1.9-3.5-1.9-6.1c0-2.7,0.6-4.8,1.9-6.2s3.1-2.2,5.5-2.2&#10;&#9;&#9;&#9;&#9;c0.8,0,1.5,0.1,2.3,0.2s1.4,0.4,1.8,0.6l-0.7,2.1c-0.5-0.2-1.1-0.4-1.8-0.5s-1.2-0.2-1.7-0.2c-3.3,0-4.9,2.1-4.9,6.2&#10;&#9;&#9;&#9;&#9;c0,2,0.4,3.5,1.2,4.5c0.8,1.1,2,1.6,3.5,1.6c1.3,0,2.7-0.3,4.1-0.9v2.2C330.3,708,329,708.2,327.4,708.2z" transform="matrix(1, 0, 0, 1, 4.263256414560601e-14, 2.1316282072803006e-14)"/><path fill="#FFFFFF" d="M349.1,699.9c0,2.6-0.7,4.7-2,6.1s-3.1,2.2-5.5,2.2c-1.4,0-2.7-0.3-3.8-1s-2-1.6-2.6-2.9&#10;&#9;&#9;&#9;&#9;s-0.9-2.7-0.9-4.4c0-2.6,0.7-4.7,2-6.1s3.1-2.2,5.4-2.2c2.2,0,4,0.7,5.4,2.2C348.4,695.3,349.1,697.3,349.1,699.9z M336.8,699.9&#10;&#9;&#9;&#9;&#9;c0,2.1,0.4,3.6,1.2,4.7s2,1.6,3.6,1.6s2.8-0.5,3.6-1.6s1.2-2.6,1.2-4.7c0-2-0.4-3.6-1.2-4.7s-2-1.6-3.7-1.6&#10;&#9;&#9;&#9;&#9;c-1.6,0-2.8,0.5-3.6,1.6S336.8,697.8,336.8,699.9z" transform="matrix(1, 0, 0, 1, 4.263256414560601e-14, 2.1316282072803006e-14)"/><path fill="#FFFFFF" d="M364.3,707.9v-10.4c0-1.3-0.3-2.3-0.9-2.9s-1.5-1-2.8-1c-1.7,0-2.9,0.5-3.7,1.4s-1.2,2.4-1.2,4.5v8.4&#10;&#9;&#9;&#9;&#9;h-2.4v-16.1h2l0.4,2.2h0.1c0.5-0.8,1.2-1.4,2.1-1.8s1.9-0.7,3-0.7c1.9,0,3.4,0.5,4.4,1.4s1.5,2.4,1.5,4.5v10.5H364.3z" transform="matrix(1, 0, 0, 1, 4.263256414560601e-14, 2.1316282072803006e-14)"/><path fill="#FFFFFF" d="M382.1,703.6c0,1.5-0.6,2.6-1.7,3.5s-2.7,1.2-4.7,1.2c-2.1,0-3.8-0.3-5-1V705c0.8,0.4,1.6,0.7,2.5,0.9&#10;&#9;&#9;&#9;&#9;c0.9,0.2,1.7,0.3,2.6,0.3c1.3,0,2.2-0.2,2.9-0.6s1-1,1-1.9c0-0.6-0.3-1.2-0.8-1.6c-0.5-0.4-1.6-1-3.2-1.6c-1.5-0.6-2.6-1-3.2-1.5&#10;&#9;&#9;&#9;&#9;c-0.6-0.4-1.1-0.9-1.4-1.4c-0.3-0.5-0.5-1.2-0.5-1.9c0-1.3,0.5-2.3,1.6-3.1s2.5-1.1,4.4-1.1c1.7,0,3.4,0.4,5.1,1.1l-0.9,2&#10;&#9;&#9;&#9;&#9;c-1.6-0.7-3.1-1-4.4-1c-1.2,0-2,0.2-2.6,0.5s-0.9,0.9-0.9,1.5c0,0.4,0.1,0.8,0.3,1.1c0.2,0.3,0.6,0.6,1.1,0.9s1.4,0.7,2.8,1.2&#10;&#9;&#9;&#9;&#9;c1.9,0.7,3.2,1.4,3.9,2.1C381.8,701.6,382.1,702.5,382.1,703.6z" transform="matrix(1, 0, 0, 1, 4.263256414560601e-14, 2.1316282072803006e-14)"/><path fill="#FFFFFF" d="M392.8,708.2c-2.4,0-4.2-0.7-5.6-2.2s-2.1-3.5-2.1-6c0-2.6,0.6-4.6,1.9-6.2c1.3-1.5,3-2.3,5.1-2.3&#10;&#9;&#9;&#9;&#9;c2,0,3.6,0.7,4.8,2s1.8,3.1,1.8,5.2v1.5h-11.1c0,1.9,0.5,3.3,1.4,4.3c0.9,1,2.2,1.5,3.8,1.5c1.7,0,3.4-0.4,5.1-1.1v2.2&#10;&#9;&#9;&#9;&#9;c-0.9,0.4-1.7,0.6-2.4,0.8C394.9,708.1,393.9,708.2,392.8,708.2z M392.2,693.6c-1.3,0-2.3,0.4-3.1,1.3s-1.2,2-1.4,3.5h8.4&#10;&#9;&#9;&#9;&#9;c0-1.5-0.3-2.7-1-3.5S393.5,693.6,392.2,693.6z" transform="matrix(1, 0, 0, 1, 4.263256414560601e-14, 2.1316282072803006e-14)"/><path fill="#FFFFFF" d="M409.3,708.2c-2.3,0-4.1-0.7-5.4-2.1c-1.3-1.4-1.9-3.5-1.9-6.1c0-2.7,0.6-4.8,1.9-6.2s3.1-2.2,5.5-2.2&#10;&#9;&#9;&#9;&#9;c0.8,0,1.5,0.1,2.3,0.2s1.4,0.4,1.8,0.6l-0.7,2.1c-0.5-0.2-1.1-0.4-1.8-0.5s-1.2-0.2-1.7-0.2c-3.3,0-4.9,2.1-4.9,6.2&#10;&#9;&#9;&#9;&#9;c0,2,0.4,3.5,1.2,4.5c0.8,1.1,2,1.6,3.5,1.6c1.3,0,2.7-0.3,4.1-0.9v2.2C412.3,708,410.9,708.2,409.3,708.2z" transform="matrix(1, 0, 0, 1, 4.263256414560601e-14, 2.1316282072803006e-14)"/><path fill="#FFFFFF" d="M422.4,706.2c0.4,0,0.8,0,1.2-0.1s0.7-0.1,1-0.2v1.9c-0.3,0.1-0.7,0.2-1.2,0.3c-0.5,0.1-1,0.1-1.4,0.1&#10;&#9;&#9;&#9;&#9;c-3.1,0-4.7-1.6-4.7-4.9v-9.6h-2.3v-1.2l2.3-1l1-3.4h1.4v3.7h4.7v1.9h-4.7v9.4c0,1,0.2,1.7,0.7,2.2S421.6,706.2,422.4,706.2z" transform="matrix(1, 0, 0, 1, 4.263256414560601e-14, 2.1316282072803006e-14)"/><path fill="#FFFFFF" d="M434.6,708.2c-2.4,0-4.2-0.7-5.6-2.2s-2.1-3.5-2.1-6c0-2.6,0.6-4.6,1.9-6.2c1.3-1.5,3-2.3,5.1-2.3&#10;&#9;&#9;&#9;&#9;c2,0,3.6,0.7,4.8,2s1.8,3.1,1.8,5.2v1.5h-11.1c0,1.9,0.5,3.3,1.4,4.3c0.9,1,2.2,1.5,3.8,1.5c1.7,0,3.4-0.4,5.1-1.1v2.2&#10;&#9;&#9;&#9;&#9;c-0.9,0.4-1.7,0.6-2.4,0.8C436.6,708.1,435.6,708.2,434.6,708.2z M433.9,693.6c-1.3,0-2.3,0.4-3.1,1.3s-1.2,2-1.4,3.5h8.4&#10;&#9;&#9;&#9;&#9;c0-1.5-0.3-2.7-1-3.5S435.2,693.6,433.9,693.6z" transform="matrix(1, 0, 0, 1, 4.263256414560601e-14, 2.1316282072803006e-14)"/><path fill="#FFFFFF" d="M449.8,706.2c0.4,0,0.8,0,1.2-0.1s0.7-0.1,1-0.2v1.9c-0.3,0.1-0.7,0.2-1.2,0.3c-0.5,0.1-1,0.1-1.4,0.1&#10;&#9;&#9;&#9;&#9;c-3.1,0-4.7-1.6-4.7-4.9v-9.6h-2.3v-1.2l2.3-1l1-3.4h1.4v3.7h4.7v1.9h-4.7v9.4c0,1,0.2,1.7,0.7,2.2S449,706.2,449.8,706.2z" transform="matrix(1, 0, 0, 1, 677.4753637829176, -31.148292587720334)"/><path fill="#FFFFFF" d="M457.5,691.9v10.4c0,1.3,0.3,2.3,0.9,2.9s1.5,1,2.8,1c1.7,0,2.9-0.5,3.7-1.4c0.8-0.9,1.2-2.4,1.2-4.5&#10;&#9;&#9;&#9;&#9;v-8.4h2.4v16.1h-2l-0.4-2.2H466c-0.5,0.8-1.2,1.4-2.1,1.8s-1.9,0.6-3,0.6c-2,0-3.4-0.5-4.4-1.4s-1.5-2.4-1.5-4.5v-10.5H457.5z" transform="matrix(1, 0, 0, 1, 677.4753637829176, -31.148292587720334)"/><path fill="#FFFFFF" d="M480.9,691.6c0.7,0,1.4,0.1,1.9,0.2l-0.3,2.3c-0.7-0.1-1.3-0.2-1.8-0.2c-1.3,0-2.4,0.5-3.3,1.6&#10;&#9;&#9;&#9;&#9;c-0.9,1.1-1.4,2.4-1.4,3.9v8.6h-2.4v-16.1h2l0.3,3h0.1c0.6-1,1.3-1.9,2.2-2.4S479.9,691.6,480.9,691.6z" transform="matrix(1, 0, 0, 1, 677.4753637829176, -31.148292587720334)"/><path fill="#FFFFFF" d="M503.5,707.9l-0.5-2.3h-0.1c-0.8,1-1.6,1.7-2.4,2s-1.8,0.5-3,0.5c-1.6,0-2.8-0.4-3.7-1.2&#10;&#9;&#9;&#9;&#9;c-0.9-0.8-1.4-2-1.4-3.5c0-3.2,2.6-4.9,7.8-5.1l2.7-0.1v-1c0-1.3-0.3-2.2-0.8-2.8c-0.5-0.6-1.4-0.9-2.6-0.9&#10;&#9;&#9;&#9;&#9;c-1.3,0-2.9,0.4-4.5,1.2l-0.7-1.9c0.8-0.4,1.7-0.8,2.6-1c0.9-0.2,1.9-0.4,2.8-0.4c1.9,0,3.3,0.4,4.3,1.3c0.9,0.8,1.4,2.2,1.4,4.1&#10;&#9;&#9;&#9;&#9;v11H503.5z M498,706.2c1.5,0,2.7-0.4,3.6-1.2c0.9-0.8,1.3-2,1.3-3.5V700l-2.4,0.1c-1.9,0.1-3.3,0.4-4.2,0.9s-1.3,1.4-1.3,2.5&#10;&#9;&#9;&#9;&#9;c0,0.9,0.3,1.5,0.8,2C496.3,706,497.1,706.2,498,706.2z" transform="matrix(1, 0, 0, 1, 677.4753637829176, -31.148292587720334)"/><path fill="#FFFFFF" d="M521.3,705.8h-0.1c-1.1,1.6-2.8,2.4-5,2.4c-2.1,0-3.7-0.7-4.9-2.2c-1.2-1.4-1.8-3.5-1.8-6.1&#10;&#9;&#9;&#9;&#9;s0.6-4.7,1.8-6.2s2.8-2.2,4.9-2.2c2.2,0,3.8,0.8,5,2.4h0.2l-0.1-1.2l-0.1-1.1v-6.5h2.4v22.8h-2L521.3,705.8z M516.4,706.2&#10;&#9;&#9;&#9;&#9;c1.7,0,2.9-0.5,3.6-1.4c0.7-0.9,1.1-2.4,1.1-4.4V700c0-2.3-0.4-3.9-1.1-4.9s-2-1.5-3.6-1.5c-1.4,0-2.5,0.6-3.3,1.7&#10;&#9;&#9;&#9;&#9;c-0.8,1.1-1.1,2.7-1.1,4.7c0,2.1,0.4,3.6,1.1,4.6S514.9,706.2,516.4,706.2z" transform="matrix(1, 0, 0, 1, 677.4753637829176, -31.148292587720334)"/><path fill="#FFFFFF" d="M528.5,687.5c0-0.6,0.1-1,0.4-1.2s0.6-0.4,1-0.4c0.4,0,0.7,0.1,1,0.4s0.4,0.7,0.4,1.2s-0.1,1-0.4,1.2&#10;&#9;&#9;&#9;&#9;s-0.6,0.4-1,0.4c-0.4,0-0.8-0.1-1-0.4S528.5,688.1,528.5,687.5z M531.1,707.9h-2.4v-16.1h2.4V707.9z" transform="matrix(1, 0, 0, 1, 677.4753637829176, -31.148292587720334)"/><path fill="#FFFFFF" d="M268.4,1989.2v-21.4h2.5v19.2h9.4v2.3H268.4z" transform="matrix(1, 0, 0, 1, 4.263256414560601e-14, 2.1316282072803006e-14)"/>
<path fill="#FFFFFF" d="M1778.5,2106.6l-5.4-10.7c6.6-3.3,13.3-6.8,19.8-10.3l5.7,10.6&#10;&#9;&#9;&#9;&#9;C1791.9,2099.7,1785.2,2103.2,1778.5,2106.6z" transform="matrix(1, 0, 0, 1, 677.4753637829176, -31.148292587720334)"/></svg>